<?xml version="1.0" standalone="no"?>
<!DOCTYPE svg PUBLIC "-//W3C//DTD SVG 1.1//EN" "http://www.w3.org/Graphics/SVG/1.1/DTD/svg11.dtd" >
<svg xmlns="http://www.w3.org/2000/svg">
<metadata>Generated by IcoMoon</metadata>
<defs>
<font id="inetsys-ico" horiz-adv-x="1024">
<font-face units-per-em="1024" ascent="960" descent="-64" />
<missing-glyph horiz-adv-x="1024" />
<glyph unicode="&#x20;" horiz-adv-x="512" d="" />
<glyph unicode="&#xe900;" glyph-name="ico-calc-big" d="M884.028 428.448c-8.499 0-15.865 5.668-18.701 13.034-2.833 7.932-0.566 16.434 5.668 22.1 6.8 5.666 16.434 6.235 23.233 1.7 6.8-4.533 10.768-13.032 9.066-20.967-1.7-9.066-10.199-15.868-19.267-15.868zM708.923 170.041h-82.17c-10.768 0-19.834 9.066-19.834 19.834s9.066 19.834 19.834 19.834h82.17c10.766 0 19.834-9.066 19.834-19.834s-8.502-19.834-19.834-19.834zM708.923 108.271h-82.17c-10.768 0-19.834 9.068-19.834 19.834 0 10.768 9.066 19.836 19.834 19.836h82.17c10.766 0 19.834-9.068 19.834-19.836 0.566-10.766-8.502-19.834-19.834-19.834zM708.923 430.715h-82.17c-10.768 0-19.834 9.068-19.834 19.834 0 10.768 9.066 19.836 19.834 19.836h82.17c10.766 0 19.834-9.068 19.834-19.836 0.566-10.766-8.502-19.834-19.834-19.834zM396.678 470.951h-20.967v20.967c0 10.766-9.066 19.834-19.834 19.834s-19.834-9.068-19.834-19.834v-20.967h-20.968c-10.767 0-19.834-9.068-19.834-19.836 0-10.766 9.067-19.834 19.834-19.834h20.968v-20.967c0-10.766 9.066-19.834 19.834-19.834s19.834 9.068 19.834 19.834v20.967h20.967c10.768 0 19.834 9.068 19.834 19.834 0 10.768-9.066 19.836-19.834 19.836zM398.378 200.074c-7.932 7.934-20.4 7.934-28.333 0l-14.734-14.732-14.734 14.732c-7.933 7.934-20.4 7.934-28.334 0-7.933-7.932-7.933-20.4 0-28.333l14.733-14.734-14.733-14.734c-7.933-7.932-7.933-20.4 0-28.333 3.967-3.968 9.067-5.668 14.167-5.668s10.2 1.7 14.167 5.668l14.734 14.734 14.734-14.734c3.966-3.968 9.066-5.668 14.168-5.668 5.1 0 10.199 1.7 14.165 5.668 7.934 7.932 7.934 20.4 0 28.333l-14.732 14.734 14.732 14.734c7.934 7.932 7.934 20.4 0 28.333zM786.559 28.369h-236.874c-10.768 0-19.834 9.066-19.834 19.834v217.040c0 10.768 9.066 19.834 19.834 19.834h236.874c10.768 0 19.834-9.066 19.834-19.834v-217.040c0-10.768-9.066-19.834-19.834-19.834zM569.518 68.604h196.64v176.807h-196.64v-176.807zM473.75 28.369h-236.876c-10.767 0-19.834 9.066-19.834 19.834v217.040c0 10.768 9.067 19.834 19.834 19.834h236.876c10.766 0 19.834-9.066 19.834-19.834v-217.040c0-10.768-8.502-19.834-19.834-19.834zM256.708 68.604h197.205v176.807h-197.205v-176.807zM786.559 322.478h-236.874c-10.768 0-19.834 9.068-19.834 19.834v217.042c0 10.766 9.066 19.834 19.834 19.834h236.874c10.768 0 19.834-9.068 19.834-19.834v-217.042c0-10.766-9.066-19.834-19.834-19.834zM569.518 362.148h196.64v177.371h-196.64v-177.371zM473.75 322.478h-236.876c-10.767 0-19.834 9.068-19.834 19.834v217.042c0 10.766 9.067 19.834 19.834 19.834h236.876c10.766 0 19.834-9.068 19.834-19.834v-217.042c0-10.766-8.502-19.834-19.834-19.834zM256.708 362.148h197.205v177.371h-197.205v-177.371zM786.559 651.723h-549.685c-10.767 0-19.834 9.066-19.834 19.834v175.672c0 10.767 9.067 19.834 19.834 19.834h549.685c10.768 0 19.834-9.067 19.834-19.834v-175.672c0-10.768-9.066-19.834-19.834-19.834zM256.708 691.392h509.45v136.004h-509.45v-136.004zM845.493-64h-667.554c-32.301 0-58.369 26.067-58.369 58.368v907.263c0 32.301 26.068 58.369 58.369 58.369h668.122c32.301 0 58.37-26.068 58.37-58.369v-363.812c0-10.766-9.068-19.834-19.836-19.834-10.766 0-19.834 9.068-19.834 19.834v363.812c0 10.201-7.932 18.134-18.134 18.134h-668.688c-10.201 0-18.134-7.933-18.134-18.134v-907.83c0-10.202 7.933-18.134 18.134-18.134h668.122c10.202 0 18.134 7.932 18.134 18.134v363.811c0 10.768 9.068 19.834 19.834 19.834 10.768 0 19.834-9.066 19.834-19.834v-363.811c0-31.735-26.067-57.802-58.368-57.802z" />
<glyph unicode="&#xe901;" glyph-name="ico-delivery-big" d="M952.413 497.193l-26.414 106.419c7.273 1.531 12.632 8.039 12.632 15.695v17.226c0 37.132-30.241 67.373-67.372 67.373h-120.966v34.835c0 18.374-14.93 33.303-33.304 33.303h-615.547c-18.374 0-33.303-14.929-33.303-33.303v-290.929c0-8.805 7.274-16.079 16.078-16.079s16.078 7.273 16.078 16.079v290.929c0 0.766 0.383 1.148 1.148 1.148h615.93c0.765 0 1.148-0.383 1.148-1.148v-290.929c0-8.805 7.273-16.079 16.079-16.079 8.804 0 16.079 7.273 16.079 16.079v17.99h189.104c23.351 0 42.873-15.312 49.764-36.367h-49.764c-8.805 0-16.079-7.273-16.079-16.077v-34.071c0-27.561 22.585-50.148 50.148-50.148h17.992v-70.436h-42.108c-13.781 39.811-51.679 68.521-96.084 68.521s-82.303-28.71-96.084-68.521h-7.657v120.966c0 8.804-7.273 16.079-16.079 16.079-8.804 0-16.077-7.275-16.077-16.079v-120.966h-332.656c-13.781 39.811-51.679 68.521-96.084 68.521s-82.303-28.71-96.084-68.521h-91.489c-0.766 0-1.148 0.383-1.148 1.149v35.217h69.669c8.805 0 16.079 7.273 16.079 16.079 0 8.804-7.273 16.077-16.079 16.077h-153.886c-8.805 0-16.078-7.273-16.078-16.077s7.274-16.079 16.078-16.079h52.444v-35.217c0-18.375 14.929-33.304 33.303-33.304h86.513c0-0.383 0-0.767 0-1.148 0-55.889 45.553-101.444 101.443-101.444s101.443 45.554 101.443 101.444c0 0.382 0 0.765 0 1.148h361.366c0-0.383 0-0.767 0-1.148 0-55.889 45.553-101.444 101.443-101.444s101.443 45.554 101.443 101.444c0 0.382 0 0.765 0 1.148h52.443c8.805 0 16.079 7.273 16.079 16.079v171.112c0.383 42.491-31.007 77.327-71.585 83.452zM750.678 671.368h120.964c19.524 0 35.218-15.695 35.218-35.218v-1.148h-156.182v36.367zM750.678 498.341v104.888h142.401l26.032-104.888h-168.433zM289.783 156.116c-38.281 0-69.67 31.007-69.67 69.669 0 38.281 31.007 69.67 69.67 69.67 38.281 0 69.67-31.007 69.67-69.67-0.383-38.281-31.391-69.669-69.67-69.669zM854.416 156.116c-38.281 0-69.669 31.007-69.669 69.669 0 38.281 31.007 69.67 69.669 69.67 38.281 0 69.67-31.007 69.67-69.67-0.383-38.281-31.391-69.669-69.67-69.669zM973.851 361.298c-9.953 0-17.992 8.037-17.992 17.99v17.992h36.368v-36.367h-18.375v0.383zM289.783 258.707c-18.375 0-33.304-14.929-33.304-33.302 0-18.375 14.929-33.304 33.304-33.304s33.302 14.929 33.302 33.304-14.929 33.302-33.302 33.302zM854.416 258.707c-18.374 0-33.302-14.929-33.302-33.302 0-18.375 14.929-33.304 33.302-33.304 18.375 0 33.304 14.929 33.304 33.304-0.383 18.374-15.312 33.302-33.304 33.302zM410.748 311.151c0-8.805 7.273-16.079 16.077-16.079h239.253c8.804 0 16.077 7.273 16.077 16.079 0 8.804-7.273 16.077-16.077 16.077h-239.634c-8.805 0-15.695-7.273-15.695-16.077zM50.147 363.594h205.183c8.804 0 16.077 7.275 16.077 16.079s-7.273 16.079-16.077 16.079h-205.183c-8.805 0-16.078-7.275-16.078-16.079s7.274-16.079 16.078-16.079zM538.987 628.876l-142.786-142.784-74.263 74.263c-6.125 6.125-16.46 6.125-22.585 0s-6.125-16.461 0-22.585l85.364-85.366c3.063-3.062 7.275-4.592 11.484-4.592 4.212 0 8.039 1.531 11.484 4.592l153.887 153.887c6.125 6.125 6.125 16.46 0 22.585s-16.46 6.125-22.585 0z" />
<glyph unicode="&#xe902;" glyph-name="ico-cart-big" d="M1016.876 636.244c-6.896 8.734-17.008 13.79-28.041 13.79h-80.908v141.587c0 13.791-11.031 25.283-25.281 25.283h-222.034c-13.791 0-25.283-11.033-25.283-25.283v-39.074h-149.4c-13.791 0-25.283-11.033-25.283-25.283v-75.85h-89.84c-10.113 0-18.388-8.272-18.388-18.388 0-10.113 8.274-18.388 18.388-18.388l615.73-0.918-50.567-309.834c-1.838-5.976-7.814-10.574-14.25-10.574h-54.243c-10.113 0-18.388-8.274-18.388-18.388s8.274-18.388 18.388-18.388h54.243c23.445 0 43.671 15.63 50.107 38.155l0.46 0.92 50.567 311.214c2.758 10.113 0.46 21.146-5.976 29.421zM870.692 779.668v-129.635l-198.588 0.461v129.174h198.588zM497.88 715.311h137.908v-64.816l-137.908 0.46v64.358zM810.933 293.311c-10.115 0-18.388-8.274-18.388-18.388s8.272-18.388 18.388-18.388h0.918c10.115 0 18.388 8.274 18.388 18.388s-8.272 18.388-18.388 18.388h-0.918zM647.955 388.008v142.966c0 10.113-8.274 18.388-18.388 18.388s-18.388-8.274-18.388-18.388v-142.966c0-10.113 8.274-18.388 18.388-18.388s18.388 8.274 18.388 18.388zM476.029 388.008v142.966c0 10.113-8.274 18.388-18.388 18.388s-18.388-8.274-18.388-18.388v-142.966c0-10.113 8.274-18.388 18.388-18.388s18.388 8.274 18.388 18.388zM818.042 388.008v142.966c0 10.113-8.274 18.388-18.388 18.388s-18.389-8.274-18.389-18.388v-142.966c0-10.113 8.274-18.388 18.389-18.388 10.113 0 18.388 8.274 18.388 18.388zM807.683 179.306c-0.918 0-1.838 0-3.218 0-0.46 0-0.92 0-1.38 0h-515.318c-21.146 0-38.613 17.469-38.613 38.615s17.468 38.613 38.613 38.613h462.023c10.113 0 18.388 8.274 18.388 18.388s-8.274 18.388-18.388 18.388h-449.611c-3.218 0-5.516 2.3-5.976 5.058l-29.881 316.269h35.399c10.113 0 18.388 8.274 18.388 18.388s-8.274 18.388-18.388 18.388h-38.615l-15.63 162.733c-3.678 34.478-32.638 60.68-67.116 60.68h-159.972c-10.114 0-18.388-8.274-18.388-18.388s8.274-18.388 18.388-18.388h159.972c15.631 0 28.961-11.952 30.341-27.582l49.187-515.777c0.46-2.298 0.92-5.056 1.38-7.354-27.121-11.492-46.429-38.155-46.429-69.414 0-41.373 33.558-75.39 75.389-75.39h48.729c-7.814-12.412-12.412-26.663-12.412-42.291 0-43.671 35.397-79.068 79.068-79.068s79.068 35.397 79.068 79.068c0 15.63-4.596 30.341-12.41 42.291h270.759c-7.816-12.412-12.412-26.663-12.412-42.291 0-43.671 35.397-79.068 79.068-79.068s79.068 35.397 79.068 79.068c0 43.671-35.397 79.068-79.068 79.068zM445.903 100.239c0-23.443-18.847-42.291-42.291-42.291-23.443 0-42.291 18.849-42.291 42.291 0 23.445 18.849 42.291 42.291 42.291 23.445 0 42.291-18.847 42.291-42.291zM807.683 57.488c-23.443 0-42.291 18.847-42.291 42.291s18.849 42.291 42.291 42.291c23.445 0 42.291-18.849 42.291-42.291 0-23.445-18.847-42.291-42.291-42.291z" />
<glyph unicode="&#xe903;" glyph-name="ico-page-product-big" d="M944 959.998h-657.964c-12.349 0-22.455-10.106-22.455-22.456s10.106-22.456 22.455-22.456h649.542v-632.14h-847.717v632.14h68.491c12.35 0 22.456 10.106 22.456 22.456s-10.106 22.456-22.456 22.456h-76.912c-20.21 0-36.491-16.281-36.491-36.491v-951.016c0-20.209 16.281-36.491 36.491-36.491h865.121c20.209 0 36.491 16.282 36.491 36.491v951.016c-0.562 20.21-16.841 36.491-37.052 36.491zM935.578-18.525h-847.717v256.562h847.717v-256.562zM218.672 915.087h2.807c12.351 0 22.456 10.106 22.456 22.456s-10.105 22.456-22.456 22.456h-2.807c-12.351 0-22.456-10.106-22.456-22.456s10.105-22.456 22.456-22.456zM141.193 356.495c0-12.351 10.106-22.457 22.456-22.457h699.507c12.351 0 22.457 10.106 22.457 22.457 0 12.349-10.106 22.455-22.457 22.455h-699.507c-12.35 0-22.456-10.106-22.456-22.455zM638.038 796.065h225.123c12.349 0 22.455 10.106 22.455 22.456s-10.106 22.456-22.455 22.456h-225.123c-12.351 0-22.457-10.106-22.457-22.456s10.106-22.456 22.457-22.456zM638.038 722.527h225.123c12.349 0 22.455 10.106 22.455 22.456s-10.106 22.456-22.455 22.456h-225.123c-12.351 0-22.457-10.106-22.457-22.456s10.106-22.456 22.457-22.456zM638.038 602.948h225.123c12.349 0 22.455 10.106 22.455 22.455 0 12.351-10.106 22.457-22.455 22.457h-225.123c-12.351 0-22.457-10.106-22.457-22.457 0-12.349 10.106-22.455 22.457-22.455zM638.038 529.405h225.123c12.349 0 22.455 10.106 22.455 22.455 0 12.351-10.106 22.457-22.455 22.457h-225.123c-12.351 0-22.457-10.106-22.457-22.457 0-12.349 10.106-22.455 22.457-22.455zM638.038 446.315h225.123c12.349 0 22.455 10.106 22.455 22.455 0 12.351-10.106 22.457-22.455 22.457h-225.123c-12.351 0-22.457-10.106-22.457-22.457 0-12.349 10.106-22.455 22.457-22.455zM527.999 849.966h-355.368c-16.842 0-30.877-14.035-30.877-30.877v-341.894c0-16.841 14.035-30.877 30.877-30.877h355.368c16.841 0 30.877 14.036 30.877 30.877v341.333c0 17.403-14.036 31.438-30.877 31.438zM513.964 491.23h-327.859v313.824h327.859v-313.824zM172.632 45.477h682.665c16.841 0 30.877 14.036 30.877 30.877v80.281c0 16.841-14.036 30.877-30.877 30.877h-682.665c-16.842 0-30.877-14.036-30.877-30.877v-80.281c-0.561-16.841 13.474-30.877 30.877-30.877zM186.106 142.6h654.596v-52.21h-654.596v52.21z" />
<glyph unicode="&#xe904;" glyph-name="ico-catalog-big" d="M1004 920h-412.199c-32.602 0-61.602-15.6-79.802-40-18.198 24.2-47.2 40-79.8 40h-412.2c-11 0-20-9-20-20v-904c0-11.001 9-20.001 20-20.001h646.801c10.999 0 20.001 9 20.001 20.001s-9.002 20.001-20.001 20.001h-131.6c3 8.399 7.6 16 14.2 22.401 11.2 11.399 26.4 17.601 42.4 17.601h392.198v-40h-157.199c-11.001 0-20.001-9-20.001-20.001s9-20.001 20.001-20.001h177.2c11.001 0 20.001 9 20.001 20.001v904c0 11-9 20-20.001 20zM40.001 880h392.199c33 0 59.801-26.8 59.801-59.8v-744.201c-17.202 12.801-38.002 19.801-59.801 19.801h-392.199v784.2zM40.001 56.001h392.199c16 0 31.001-6.201 42.4-17.601 6.4-6.4 11.2-14 14-22.401h-448.601v40zM532 76.201v743.999c0 33 26.801 59.8 59.801 59.8h392.198v-784h-392.198c-21.8 0-42.602-6.998-59.801-19.799zM412.2 591.8h-294.199c-11 0-20-9.002-20-20.001v-383.801c0-10.999 9.001-20.001 20-20.001h294.199c11.001 0 20.001 9.002 20.001 20.001v383.801c0 10.999-9 20.001-20.001 20.001zM392.2 207.999h-254.199v343.801h254.199v-343.801zM896 448h-289.999c-11.001 0-20.001-9-20.001-20.001s9-20.001 20.001-20.001h289.999c11.001 0 20.001 9 20.001 20.001s-9 20.001-20.001 20.001zM896 328.001h-289.999c-11.001 0-20.001-9.002-20.001-20.001 0-11.001 9-20.001 20.001-20.001h289.999c11.001 0 20.001 9 20.001 20.001 0 10.999-9 20.001-20.001 20.001zM896 207.999h-289.999c-11.001 0-20.001-9-20.001-20.001 0-10.999 9-20.001 20.001-20.001h289.999c11.001 0 20.001 9.002 20.001 20.001 0 11.001-9 20.001-20.001 20.001zM217.4 288.799c10.401-3.599 21.8 2.2 25.4 12.601l1.401 4.399h55.998l1.401-4.399c2.8-8.401 10.601-13.602 19-13.602 2.2 0 4.2 0.401 6.4 1.001 10.401 3.599 16.199 14.8 12.599 25.4l-48.399 144c-2.8 8.201-10.399 13.6-19 13.6s-16.199-5.4-19-13.6l-48.399-144c-3.599-10.399 1.999-21.8 12.599-25.4zM272.201 389.2l14.6-43.199h-29.201l14.6 43.199zM412.2 687.799h-214.2c-10.999 0-20-9-20-19.999 0-11.001 9.001-20.001 20-20.001h214.2c11.001 0 20.001 9 20.001 20.001 0 10.999-9 19.999-20.001 19.999zM118.001 647.801c5.2 0 10.4 2.198 14.2 5.799s5.8 8.8 5.8 14.202c0 5.198-2.2 10.399-5.8 14.2-3.8 3.799-8.8 5.799-14.2 5.799s-10.4-2.198-14.2-5.799c-3.8-3.801-5.801-8.8-5.801-14.2 0-5.2 2.2-10.401 5.801-14.202 3.6-3.799 9-5.799 14.2-5.799zM122.2 775.4h289.999c11.001 0 20.001 9.001 20.001 20s-9 20-20.001 20h-289.999c-11 0-20-9-20-20s9-20 20-20zM606.001 519.801h289.999c11.001 0 20.001 9 20.001 20.001v255.599c0 11-9 20-20.001 20h-289.999c-11.001 0-20.001-9-20.001-20v-255.801c0-10.999 9-19.799 20.001-19.799zM787.001 559.799h-133.001l66.401 66.401 66.6-66.401zM843.599 559.799l-71.999 72.003 51.601 51.599 52.799-52.801v-70.8h-32.4zM876 775.4v-88.401l-38.599 38.6c-7.799 7.8-20.401 7.8-28.2 0l-65.799-65.8-8.8 8.8c-7.799 7.799-20.401 7.799-28.2 0l-80.4-80.4v187.199h249.998zM751.002 16c-5.2 0-10.401-2.2-14.202-5.801-3.799-3.599-5.799-8.8-5.799-14.2s2.198-10.401 5.799-14.2c3.601-3.801 8.8-5.801 14.202-5.801 5.4 0 10.399 2.2 14.2 5.801 3.799 3.599 5.799 8.8 5.799 14.2s-2.198 10.401-5.799 14.2c-3.599 3.799-9.002 5.801-14.2 5.801z" />
<glyph unicode="&#xe905;" glyph-name="ico-map-big" d="M1017.598 790.594c-3.999 2.808-9.2 3.41-13.8 1.604l-326-123.359-83.599 31.893c-7.8 3.010-16.4-1.003-19.4-8.824-3-7.823 1.001-16.449 8.8-19.458l88.799-33.698c3.401-1.202 7.201-1.202 10.6 0l311.001 117.743v-606.964l-316.401-119.547-125.4 47.539c-7.8 3.010-16.398-1.003-19.4-8.824-3-7.823 1.001-16.449 8.8-19.458l130.8-49.544c1.801-0.601 3.601-1.003 5.2-1.003 1.801 0 3.601 0.402 5.2 1.003l331.4 125.364c5.801 2.207 9.801 7.821 9.801 14.041v639.258c0 4.814-2.4 9.428-6.4 12.236zM677.598 67.895c1.801 0 3.601 0.402 5.2 1.003l263.6 99.69c5.799 2.207 9.799 7.821 9.799 14.041v501.056c0 5.015-2.4 9.629-6.4 12.436s-9.2 3.41-13.798 1.605l-258.201-97.685-273.998 103.5c1.799 12.237 2.4 24.271 1.999 36.106l113.401-42.925c1.799-0.601 3.601-1.003 5.2-1.003 6.001 0 11.8 3.812 14 9.829 3 7.822-1.001 16.448-8.8 19.457l-128.2 48.541c-4.801 21.663-13.2 41.721-25.601 59.172-29.199 41.721-76.001 64.587-131.598 64.587-55.601 0-102.401-22.866-131.801-64.587-26.2-37.308-35.4-86.652-26.4-136.796l-76.2-28.885c-5.8-2.207-9.8-7.821-9.8-14.041v-639.258c0-5.015 2.4-9.627 6.4-12.434 2.6-1.805 5.6-2.608 8.6-2.608 1.8 0 3.6 0.402 5.2 1.003l325.999 123.359 129.6-48.942c7.8-3.010 16.4 1.003 19.4 8.824 3.002 7.823-0.999 16.449-8.798 19.458l-134.802 50.747c-3.399 1.202-7.199 1.202-10.6 0l-310.999-117.542v606.964l63.2 24.069c0.6-2.005 1.2-3.81 2-5.817 3.2-9.026 7-17.651 11.2-26.075l-29-11.031c-5.8-2.207-9.8-7.823-9.8-14.041v-501.058c0-5.015 2.4-9.627 6.4-12.434 4-2.81 9.2-3.41 13.8-1.605l258.199 97.685 325.8-123.359c2.198-0.803 3.999-1.003 5.799-1.003zM672.398 569.753c3.401-1.204 7.201-1.204 10.6 0l243.2 92.067v-105.307l-392.599-100.892-56.8 188.145 195.599-74.014zM137 815.466c23.6 33.297 61.6 51.75 107.201 51.75 45.599 0 83.799-18.454 107.198-51.75 26.801-38.11 32.001-92.268 13.402-144.62-12.8-36.507-36.2-66.995-61-99.288-4.601-6.018-9.401-12.235-14-18.454l-31.801-37.308c-3.199-3.61-8.2-8.023-13.599-8.023-5.602 0-10.6 4.413-13.601 8.023l-31.8 36.907c-4.6 6.218-9.4 12.434-14.2 18.654-24.8 32.294-48.2 62.783-61 99.288-18.8 52.554-13.8 106.71 13.2 144.822zM97.799 599.037l23.6 8.826c12-19.256 25.8-37.308 39.4-54.961 4.8-6.218 9.6-12.434 14.2-18.654 0.2-0.202 0.4-0.603 0.6-0.803l32.199-37.308c13.202-15.244 27-18.454 36.402-18.454 9.399 0 23.199 3.209 36.4 18.454l32.2 37.308c0.2 0.2 0.4 0.601 0.599 0.803 4.601 6.218 9.399 12.434 14.2 18.654 12.401 16.047 24.8 32.495 36 49.746l54.6-175.511-320.4-76.021v247.921zM351.598 222.344c-3.399 1.202-7.199 1.202-10.6 0l-243.199-92.067v98.284l357.199 91.667 49.4-155.652-152.8 57.769zM540.198 150.936l-61 191.957c-2.4 7.623-10.4 12.036-18.001 10.028l-363.4-93.27v60.575l342.999 81.438c3.999 1.003 7.6 3.61 9.601 7.221 1.999 3.61 2.6 8.023 1.201 11.834l-67.599 217.834c3.399 7.221 6.398 14.441 9.2 22.064 1.599 4.413 3 8.826 4.199 13.238l44-16.648 67.599-224.050c2.001-6.42 7.8-10.631 14.4-10.631 1.201 0 2.4 0.202 3.8 0.402l399.199 102.498v-54.759l-370.599-94.274c-3.999-1.003-7.401-3.61-9.399-7.221-2.001-3.61-2.4-7.821-1.399-11.834l70.599-234.883-75.399 28.484zM578.198 351.117l348 88.657v-246.716l-248.599-94.072-26.798 10.23-72.601 241.902zM244.2 641.16c50.398 0 91.399 41.118 91.399 91.866 0 50.547-41 91.667-91.399 91.667-50.401 0-91.401-41.119-91.401-91.667s40.999-91.866 91.401-91.866zM244.2 794.605c33.8 0 61.399-27.681 61.399-61.579 0-34.1-27.6-61.778-61.399-61.778-34.001 0-61.401 27.68-61.401 61.778 0 33.899 27.6 61.579 61.401 61.579z" />
<glyph unicode="&#xe906;" glyph-name="ico-page-big" d="M972.070 960h-920.701c-20.211 0-36.492-16.281-36.492-36.491v-951.018c0-20.209 16.281-36.492 36.492-36.492h921.263c20.209 0 36.492 16.282 36.492 36.492v951.018c-0.562 20.211-16.841 36.491-37.053 36.491zM59.79-18.526v748.911h81.965c12.351 0 22.456 10.105 22.456 22.457s-10.105 22.456-22.456 22.456h-81.965v139.79h903.858v-139.79h-666.386c-12.35 0-22.454-10.105-22.454-22.456s10.105-22.457 22.454-22.457h666.386v-748.911h-903.858zM922.103 296.982c-0.56 1.124-1.121 2.807-2.245 3.93-0.562 1.121-1.686 2.245-2.807 3.368-1.124 1.124-2.247 1.683-3.368 2.807-1.124 0.562-2.809 1.686-3.93 2.245-1.124 0.562-2.807 1.124-4.492 1.124-7.299 1.686-15.158-1.124-20.209-6.175-1.124-1.124-2.247-2.247-2.809-3.368-0.56-1.124-1.683-2.807-2.245-3.93s-1.124-2.807-1.124-4.492c-0.562-1.683-0.562-2.807-0.562-4.492 0-6.175 2.247-11.788 6.739-15.717 3.927-3.93 10.105-6.737 15.717-6.737 1.686 0 2.807 0 4.492 0.56 1.686 0 2.807 0.562 4.492 1.124 1.121 0.562 2.807 1.124 3.93 2.245 1.121 0.562 2.245 1.686 3.368 2.809 1.121 1.121 2.245 2.245 2.807 3.368 1.124 1.121 1.686 2.807 2.245 3.93 0.562 1.121 1.124 2.807 1.124 4.489 0 1.686 0.562 2.809 0.562 4.492 0 1.686 0 2.807-0.562 4.492-0.562 1.124-0.562 2.245-1.124 3.93zM460.069 265.544h382.316c12.35 0 22.456 10.105 22.456 22.456s-10.107 22.456-22.456 22.456h-382.316c-12.352 0-22.456-10.107-22.456-22.456 0-12.352 10.105-22.456 22.456-22.456zM901.332 204.348h-441.264c-12.352 0-22.456-10.105-22.456-22.456s10.105-22.454 22.456-22.454h441.264c12.35 0 22.456 10.105 22.456 22.454 0 12.352-10.107 22.456-22.456 22.456zM901.332 107.224h-441.264c-12.352 0-22.456-10.105-22.456-22.456s10.105-22.454 22.456-22.454h441.264c12.35 0 22.456 10.105 22.456 22.454 0 12.352-10.107 22.456-22.456 22.456zM690.247 825.825h211.087c12.352 0 22.456 10.105 22.456 22.456s-10.105 22.456-22.456 22.456h-211.087c-12.35 0-22.454-10.105-22.454-22.456s10.105-22.456 22.454-22.456zM216.419 730.39h2.808c12.351 0 22.456 10.105 22.456 22.455s-10.105 22.456-22.456 22.456h-2.808c-12.351 0-22.456-10.105-22.456-22.456s10.105-22.455 22.456-22.455zM357.059 684.907h-210.526c-16.842 0-30.877-14.035-30.877-30.876v-560.842c0-16.843 14.036-30.879 30.877-30.879h211.087c16.841 0 30.879 14.035 30.879 30.879v560.842c0 17.403-14.037 30.876-31.44 30.876zM343.585 107.224h-183.017v532.77h183.017v-532.77zM468.49 417.123h424.42c16.841 0 30.879 14.035 30.879 30.879v55.577c0 16.843-14.037 30.879-30.879 30.879h-424.42c-16.843 0-30.879-14.035-30.879-30.879v-55.577c0-17.405 13.473-30.879 30.879-30.879zM482.525 489.543h396.35v-27.508h-396.35v27.508zM468.49 568.146h37.051c12.352 0 22.456 10.105 22.456 22.456s-10.105 22.456-22.456 22.456h-23.016v26.946h396.35v-27.508h-310.456c-12.352 0-22.456-10.105-22.456-22.456s10.105-22.456 22.456-22.456h324.491c16.841 0 30.879 14.035 30.879 30.879v55.577c0 16.843-14.037 30.879-30.879 30.879h-424.42c-16.843 0-30.879-14.035-30.879-30.879v-55.577c0-16.843 13.473-30.317 30.879-30.317z" />
<glyph unicode="&#xe907;" glyph-name="ico-bug" d="M982.942 448.604h-161.813v38.641c89.359 19.32 154.567 99.018 154.567 190.793v38.642c0 21.736-19.32 41.056-41.056 41.056-24.151-2.415-41.056-19.32-41.056-41.056v-38.642c0-48.303-28.982-89.36-72.454-106.265v9.662c0 33.81-26.564 60.377-60.377 60.377h-16.905v94.188c0 60.377-38.641 113.509-96.602 130.415l14.49 36.226c4.831 9.66 4.831 21.736 0 31.396s-9.662 16.906-19.32 21.736c-9.662 4.83-21.736 4.83-31.398 0-9.659-4.83-19.32-12.075-21.736-21.736l-26.564-62.793h-101.436l-26.564 62.793c-4.831 9.66-12.077 16.906-21.736 21.736-9.662 4.83-21.736 4.83-31.398 0-9.659-4.83-19.32-14.491-24.151-24.151s-4.831-21.736 0-31.396l14.493-36.226c-55.549-16.906-96.605-70.038-96.605-130.415v-94.189h-16.906c-33.811 0-60.377-26.567-60.377-60.377v-7.246c-43.472 16.905-72.453 57.961-72.453 106.265v38.642c0 21.736-19.321 41.056-41.057 41.056s-36.226-19.32-36.226-41.056v-38.642c0-91.775 65.208-171.472 154.566-190.793v-38.641h-161.811c-21.736 0-41.057-19.32-41.057-41.056s19.321-41.056 41.057-41.056h161.811v-36.229c-89.358-19.32-154.566-96.602-154.566-190.792v-38.641c0-21.736 19.321-41.056 41.057-41.056s41.057 19.32 41.057 41.056v38.641c0 48.303 28.981 89.359 72.453 106.264 0-171.472 140.076-309.131 309.132-309.131s309.131 137.659 309.131 309.131c43.472-16.905 72.454-57.961 72.454-106.264v-38.641c0-21.736 19.32-41.056 41.056-41.056s41.056 19.32 41.056 41.056v38.641c0 91.774-65.208 171.472-154.567 190.792v38.644h161.813c21.736 0 41.056 19.32 41.056 41.056s-19.32 38.641-41.056 38.641zM359.847 641.811v94.188c0 31.396 24.151 55.547 55.549 55.547h193.205c31.398 0 55.549-24.151 55.549-55.547v-94.188h-304.303zM511.998 252.981c21.736 0 41.056 19.32 41.056 41.056v265.662h185.961v-313.964c0-125.585-101.433-227.018-227.018-227.018s-227.019 101.433-227.019 227.018v313.964h185.963v-265.662c0-24.151 16.905-41.056 41.056-41.056z" />
<glyph unicode="&#xe908;" glyph-name="ico-rocket2" d="M773.446 281.318c-2.743 17.267-28.82 171.33-79.599 225.783 0 0-1.373 0-1.373 1.329 2.745 23.907 4.118 47.814 4.118 74.378 0 166.017-120.773 322.739-157.829 366.567-6.863 6.64-16.469 10.625-26.077 10.625-9.606 0-19.214-3.984-26.075-11.953-37.056-42.5-159.202-193.91-159.202-359.927 0-27.892 1.373-54.455 4.117-79.689 0 0 0 0-1.373 0-52.152-54.455-76.856-208.519-79.6-225.786 0-7.968 1.373-13.282 5.489-17.265 4.118-3.985 9.607-6.64 15.097-6.64h129.008c0 0 0 0 1.373 0 5.489-5.314 13.724-9.299 21.958-9.299h8.235c-23.331-22.578-38.428-55.782-38.428-92.968 0-63.751 90.58-196.566 101.559-211.174 4.118-5.314 9.608-9.299 16.469-9.299 6.863 0 13.726 2.658 16.469 9.299 10.981 14.608 101.561 147.423 101.561 211.174 0 37.187-15.099 70.39-39.801 94.298 5.49 1.329 10.979 3.985 15.097 7.97 1.373 0 2.745 0 4.118 0h142.733c5.488 0 12.351 2.656 15.097 6.64 5.488 3.983 6.861 9.297 6.861 15.937zM512.686 916.171c20.587-25.235 57.643-73.048 87.835-134.143-10.979-2.656-34.311-5.313-89.207-5.313-49.407 0-75.483 2.656-90.579 5.313 32.938 59.766 69.994 108.908 91.952 134.143zM339.761 447.337c10.98-65.081 28.821-116.878 41.173-148.752h-85.091c8.235 39.842 23.331 104.923 43.917 148.752zM368.582 588.12c0 54.452 15.097 107.579 35.683 155.393 19.214-3.985 50.78-7.97 108.421-7.97 54.898 0 87.835 2.656 105.677 9.297 21.959-50.468 37.056-106.25 37.056-163.36 0-152.737-59.012-264.301-76.854-292.193h-149.596c-16.469 37.189-60.387 148.752-60.387 298.834zM511.313-6.89c-35.683 54.455-76.855 130.159-76.855 163.362 0 47.812 34.311 87.656 76.855 87.656 42.546 0 76.856-38.515 76.856-87.656 1.373-33.204-41.174-108.908-76.856-163.362zM629.343 297.255c16.469 33.204 38.427 85.001 52.152 151.408 21.957-43.829 37.056-110.237 45.29-151.408h-97.441zM618.36 546.948c0 57.109-48.037 103.594-107.049 103.594-59.014 0-107.049-46.485-107.049-103.594 0-57.111 48.035-103.596 107.049-103.596 59.012 0 107.049 46.485 107.049 103.596zM511.311 483.197c-35.683 0-65.876 27.89-65.876 63.751 0 34.53 28.821 63.749 65.876 63.749s65.875-27.89 65.875-63.749c0-35.862-28.82-63.751-65.875-63.751z" />
<glyph unicode="&#xe909;" glyph-name="ico-code" d="M86.81 449.79l219.306 219.305c15.991 15.991 15.991 41.12 0 57.111s-41.122 15.991-57.113 0l-230.727-230.728c-11.422-13.706-18.276-27.413-18.276-45.688 0-15.991 6.853-31.983 18.276-45.688l233.012-230.73c6.854-6.854 18.276-11.421 27.415-11.421 9.137 0 20.558 4.567 27.413 11.421 15.991 15.991 15.991 41.118 0 57.11l-219.306 219.307zM1005.154 495.478l-230.727 230.728c-15.991 15.991-41.122 15.991-57.113 0s-15.991-41.12 0-57.111l219.305-219.305-219.305-219.307c-15.991-15.991-15.991-41.118 0-57.11 6.854-6.854 18.276-11.421 27.413-11.421 9.139 0 20.56 4.567 27.415 11.421l233.011 233.011c25.13 22.846 25.13 63.964 0 89.094zM612.234 854.134c-20.56 4.569-43.406-6.853-47.973-29.698l-180.471-733.305c-4.57-20.56 6.851-43.404 29.697-47.973 2.284 0 6.854-2.284 9.137-2.284 18.276 0 34.267 11.424 38.836 29.697l178.187 735.59c6.851 22.844-6.854 43.404-27.413 47.973z" />
<glyph unicode="&#xe90a;" glyph-name="ico-energy2" d="M512 890.183v-395.635h209.374l-209.374-488.728v395.636h-209.374l209.374 488.727zM512 960.001c-27.916 0-53.507-16.291-65.139-41.892l-209.375-488.728c-9.305-20.943-6.98-46.544 6.98-65.163 13.958-20.946 34.896-32.582 58.16-32.582h139.583v-325.818c0-32.582 23.263-62.834 55.832-67.49 4.655 0 9.307-2.329 13.959-2.329 27.916 0 53.507 16.291 65.14 41.892l209.374 488.726c9.304 20.946 6.979 46.546-6.981 65.165-13.957 20.943-34.895 32.582-58.159 32.582h-139.582v325.817c0 32.582-23.263 62.836-55.833 67.492-4.655 2.327-9.307 2.327-13.959 2.327z" />
<glyph unicode="&#xe90b;" glyph-name="ico-coffe" d="M899.795 768.294h-184.929v35.895c2.762 30.373-8.28 57.985-30.358 80.074-19.32 22.089-46.924 33.134-77.285 33.134h-499.579c-27.601 0-57.962-11.045-77.283-33.134s-30.361-49.701-30.361-80.074l22.081-643.35c5.521-102.162 88.324-182.236 190.447-182.236h289.81c102.126 0 184.929 80.074 190.449 182.236v8.286c168.366 11.045 300.851 102.162 309.13 223.654l22.082 245.742v2.761c0 80.074-46.924 127.013-124.205 127.013zM107.644 834.562h499.579c13.8 0 24.841-11.045 24.841-24.85l-5.521-154.625c-55.199 30.373-143.526 46.94-284.29-2.761-168.367-60.745-240.13-13.805-256.691 0l-2.76 157.386c0 13.805 11.040 24.85 24.841 24.85zM502.338 61.438h-289.81c-57.962 0-104.884 46.938-107.645 102.162l-13.8 394.845c24.841-11.045 60.722-16.567 102.124-16.567 46.922 0 104.885 8.286 176.646 35.898 176.649 63.506 240.131-5.524 251.169-22.091l-13.8-389.321c0-57.986-46.921-104.924-104.885-104.924zM919.115 401.060c-5.521-74.55-104.885-138.056-223.57-146.341l16.562 433.503h187.687c30.361 0 41.403-11.045 41.403-41.417l-22.082-245.743z" />
<glyph unicode="&#xe90c;" glyph-name="ico-star" d="M500.094 876.721l142.907-309.633h309.632l-214.362-214.362 47.637-333.452-285.815 195.309-285.815-195.309 71.455 333.452-214.362 214.362h285.815l142.907 309.633zM500.094 948.176c-28.582 0-52.402-16.672-64.308-40.49l-123.855-269.143h-240.56c-28.582 0-54.781-16.671-66.691-45.253-9.527-26.2-4.764-57.163 16.672-76.219l185.78-188.16-61.927-295.344c-7.145-28.582 4.764-57.163 30.963-73.835 9.527-7.145 23.818-11.909 38.109-11.909s28.582 4.765 40.49 11.909l245.325 166.725 245.324-166.725c11.909-7.145 26.2-11.909 40.491-11.909 11.907 0 26.198 4.765 38.108 11.909 23.817 14.291 38.108 42.873 33.346 71.454l-42.873 297.725 188.16 188.16c21.436 21.436 26.2 50.017 16.671 78.599-11.907 26.2-38.108 42.873-66.69 42.873h-264.379l-123.852 269.143c-11.909 23.818-35.727 40.49-64.308 40.49z" />
<glyph unicode="&#xe90d;" glyph-name="ico-circle" d="M512 960c-281.6 0-512-230.4-512-512s230.4-512 512-512c281.6 0 512 230.4 512 512s-230.4 512-512 512zM512 890.182c111.71 0 211.781-41.891 290.91-109.382-6.981-2.328-13.963-6.981-18.619-13.964l-100.072-100.073c-48.872 37.237-107.056 60.51-172.219 60.51s-123.344-23.273-169.891-58.181l-100.073 100.072c-6.981 4.654-13.963 9.309-20.945 11.636 79.128 67.491 179.199 109.382 290.909 109.382zM721.456 448c0-116.366-93.094-209.457-209.457-209.457s-209.454 93.091-209.454 209.457c0 116.363 93.091 209.454 209.454 209.454s209.457-93.091 209.457-209.454zM179.199 157.091c-67.491 79.128-109.382 179.2-109.382 290.91s41.891 211.781 109.382 290.909c2.328-6.981 6.981-13.964 13.963-18.618l100.073-100.071c-37.236-48.874-60.509-107.056-60.509-172.219 0-65.166 23.273-123.347 58.182-169.891l-100.073-100.075c-4.654-6.981-9.309-13.963-11.636-20.943zM512 5.819c-111.71 0-211.781 41.891-290.909 109.381 6.981 2.329 13.963 6.981 18.618 13.963l100.072 100.072c46.547-37.235 107.056-58.181 169.891-58.181 65.166 0 123.347 23.275 169.891 58.181l100.075-100.072c4.653-4.653 11.634-9.309 18.619-13.963-74.475-67.49-174.547-109.381-286.256-109.381zM844.8 157.091c-2.329 6.981-6.981 13.963-13.963 18.619l-100.075 100.072c37.238 46.547 58.184 107.054 58.184 169.891s-23.275 123.347-58.184 169.891l100.075 100.073c4.653 4.655 9.309 11.636 13.963 18.618 67.49-74.473 109.381-174.545 109.381-286.254s-41.891-211.781-109.381-290.91z" />
<glyph unicode="&#xe90e;" glyph-name="ico-eye" d="M1015.276 485.236c-9.304 13.966-211.66 335.128-502.404 335.128s-493.102-321.162-502.405-335.128c-13.956-23.272-13.956-51.2 0-72.144 9.304-16.29 211.661-337.457 502.405-337.457h2.325c290.744 0 490.776 321.165 500.079 335.128 11.631 23.272 11.631 51.2 0 74.472zM512.872 145.455c-255.854 0-441.931 302.547-441.931 302.547s186.076 302.544 441.931 302.544c255.855 0 441.932-302.544 441.932-302.544s-186.075-302.547-441.932-302.547zM512.872 634.181c-102.343 0-186.075-83.782-186.075-186.181s83.733-186.181 186.075-186.181c102.343 0 186.075 83.782 186.075 186.181s-83.733 186.181-186.075 186.181zM512.872 331.636c-65.127 0-116.297 51.2-116.297 116.363s51.17 116.364 116.297 116.364c65.127 0 116.297-51.201 116.297-116.364s-51.17-116.363-116.297-116.363z" />
<glyph unicode="&#xe90f;" glyph-name="ico-user2" d="M512 960c-281.6 0-511.999-230.4-511.999-512s230.4-511.999 511.999-511.999c281.6 0 511.999 230.4 511.999 511.999s-230.4 512-511.999 512zM225.746 110.547c34.909 90.762 134.983 165.234 242.035 186.181 13.966-4.656 27.928-6.981 44.218-6.981 18.619 0 34.909 2.325 51.2 6.981 102.4-18.619 200.146-100.072 242.037-181.528-76.8-69.819-179.2-111.71-293.237-111.71-109.381 2.329-209.453 41.891-286.255 107.056zM395.638 499.2c0 76.8 51.2 139.638 116.363 139.638s116.363-62.837 116.363-139.638c0-58.181-30.253-109.381-74.472-130.326-9.309 0-20.943 2.325-30.253 2.325-16.29 0-32.581-2.325-48.874-4.653-46.544 20.943-79.125 72.144-79.125 132.653zM854.109 168.728c-44.218 72.146-123.347 144.291-214.109 179.2 34.909 37.238 58.181 90.762 58.181 151.272 0 116.366-83.782 209.455-186.181 209.455s-186.181-93.090-186.181-209.455c0-60.51 23.272-116.363 60.51-153.6-93.092-34.909-172.218-102.4-214.109-181.528-62.836 76.8-102.4 176.875-102.4 283.928 0 244.365 197.818 442.183 442.182 442.183s442.182-197.818 442.182-442.183c0-104.725-37.235-202.472-100.072-279.272z" />
<glyph unicode="&#xe910;" glyph-name="ico-document" d="M902.094 960h-560.762c-26.087 0-49.006-13.898-61.928-34.621l-196.023-196.023c-20.724-12.922-34.621-35.84-34.621-61.928v-658.287c0-40.473 32.67-73.141 73.143-73.141h780.192c40.473 0 73.145 32.668 73.145 73.141v877.717c0 40.473-32.672 73.143-73.145 73.143zM268.188 810.789v-70.217h-70.217l70.217 70.217zM902.094 9.141h-780.192v655.849c0.488 0.488 0.976 0.488 1.462 0.976l1.462 1.462h216.503v216.503l1.462 1.462c0.488 0.488 0.488 0.976 0.976 1.462h558.324v-877.717zM755.818 399.234h-487.62c-20.236 0-36.572-16.334-36.572-36.573 0-20.234 16.336-36.568 36.572-36.568h487.62c20.234 0 36.573 16.334 36.573 36.568 0 20.238-16.339 36.573-36.573 36.573zM682.673 228.567h-414.475c-20.236 0-36.572-16.334-36.572-36.573 0-20.234 16.336-36.573 36.572-36.573h414.475c20.238 0 36.573 16.339 36.573 36.573 0 20.238-16.334 36.573-36.573 36.573zM585.136 496.76h146.286c40.473 0 73.145 32.668 73.145 73.142v146.286c0 40.473-32.672 73.143-73.145 73.143h-146.286c-40.473 0-73.141-32.67-73.141-73.143v-146.286c0-40.475 32.668-73.142 73.141-73.142zM585.136 716.187h146.286v-146.286h-146.286v146.286z" />
<glyph unicode="&#xe911;" glyph-name="ico-payment" d="M511.967 336.060c-10.938 0-21.178 4.19-29.091 12.102-16.059 16.059-16.059 41.888 0 57.946 15.593 15.596 42.592 15.596 57.948 0 7.678-7.678 12.102-17.918 12.102-29.090 0-19.318 15.591-34.91 34.91-34.91 19.314 0 34.91 15.591 34.91 34.91 0 29.556-11.64 57.484-32.35 78.427-15.129 15.129-33.747 24.905-53.994 29.556l-1.163 21.644c0 19.316-15.591 34.909-34.908 34.909s-34.909-15.593-34.909-34.909v-29.324c-11.637-5.353-22.342-12.569-31.883-21.878-43.287-43.284-43.287-113.571 0-156.626 20.945-20.944 48.64-32.345 78.429-32.345 13.267 0 25.598-5.12 34.911-14.433 9.309-9.309 14.428-21.64 14.428-34.905s-5.12-25.6-14.428-34.91c-6.749-6.749-14.895-10.939-23.508-13.036-7.217 0-14.661 0-21.876-0.229-8.844 1.859-17.455 6.282-24.437 13.265-10.472 10.472-15.593 25.133-14.197 39.796 1.862 19.085-12.101 36.306-31.185 38.165-19.083 1.863-36.305-12.102-38.168-31.183-3.491-35.84 8.844-70.749 34.444-96.116 11.171-11.173 24.204-19.552 38.166-25.367 1.862-17.688 16.523-31.421 34.443-31.421 15.362 0 28.393 10.010 33.046 23.971 23.042 4.19 45.152 15.129 62.836 32.817 22.579 22.574 34.91 52.36 34.91 84.247 0 31.883-12.331 61.903-34.91 84.247-22.808 22.341-52.593 34.676-84.478 34.676zM949.525 111.94c-9.309 104.495-54.691 440.088-256.464 566.227 0.229 0.465 0.463 0.931 0.696 1.396l69.819 186.182c8.146 21.411 5.12 45.382-7.912 64.233s-34.676 30.022-57.484 30.022h-372.364c-22.808 0-44.451-11.171-57.484-30.022s-15.825-42.822-7.912-64.233l69.818-186.182c0.233-0.465 0.466-0.931 0.699-1.396-202.007-126.138-247.389-461.732-256.466-566.227-3.956-44.68 11.171-89.6 41.891-122.88 30.72-33.747 74.706-53.061 120.553-53.061h550.166c45.849 0 89.834 19.314 120.554 53.061 30.72 33.513 45.849 78.198 41.893 122.88zM325.814 890.182h372.364l-69.819-186.182h-232.727l-69.818 186.182zM787.079 5.82h-550.166c-54.225 0-97.745 46.078-92.857 100.072 16.989 193.861 87.505 452.887 251.578 528.29h232.727c164.072-75.403 234.591-334.428 251.579-528.29 4.886-53.994-38.632-100.072-92.861-100.072z" />
<glyph unicode="&#xe912;" glyph-name="ico-rocket" d="M590.214 37.504c14.321 19.465 140.63 194.626 146.34 295.467 0 0-1.286 1.286 0.015 2.587 25.96 20.816 50.637 42.922 76.624 68.912 162.432 162.429 202.635 428.893 210.806 506.484 0.069 12.925-5.033 25.822-14.030 34.822-9 8.999-21.899 14.1-36.124 12.731-76.291-6.872-338.843-40.592-501.274-203.022-27.288-27.289-51.988-54.563-74.11-81.824 0 0 0 0-1.286 1.286-102.127-4.426-276.003-132.020-295.467-146.342-7.797-7.796-11.709-14.279-11.75-22.036-0.041-7.754 2.502-15.496 7.644-20.637l120.844-120.844c0 0 0 0 1.286-1.286-0.055-10.34 3.759-21.952 11.473-29.667l7.714-7.712c-43.945-0.237-90.572-18.582-126.957-54.966-62.373-62.372-107.469-277.165-111.479-301.743-1.341-9.055-0.098-18.095 6.331-24.521 6.428-6.429 15.454-10.259 24.523-6.333 24.579 4.011 239.37 49.108 301.743 111.479 36.384 36.384 54.729 83.011 54.979 129.541 6.441-3.842 14.183-6.384 21.938-6.345 1.286-1.286 2.571-2.568 3.858-3.855l133.699-133.699c5.143-5.143 14.172-8.974 20.64-7.646 9.039-1.244 15.523 2.668 22.021 9.166zM967.087 902.894c-5.404-43.973-17.476-125.464-48.966-213.52-12.882 7.686-37.337 26.941-88.761 78.364-46.281 46.28-68.107 73.305-79.65 90.045 89.329 27.621 172.117 40.99 217.377 45.11zM346.403 606.174c-53.387-73.956-87.353-141.348-106.969-184.105l-79.705 79.706c46.697 31.272 124.511 80.8 186.674 104.399zM511.141 716.919c53.278 53.277 119.396 91.113 186.757 119.909 14.099-21.897 39.771-55.363 93.764-109.356 51.424-51.423 84.876-79.678 108.084-89.894-28.808-69.948-69.243-138.665-125.119-194.542-149.435-149.435-313.868-203.308-359.169-215.184l-140.126 140.128c20.957 51.809 88.972 202.1 235.809 348.938zM62.691 1.069c19.852 86.703 55.353 199.339 87.84 231.825 46.78 46.779 117.902 53.623 157.754 13.771 39.855-39.855 34.309-109.677-13.77-157.757-31.201-33.771-145.122-67.987-231.824-87.839zM470.821 188.082c47.915 17.061 119.162 47.17 196.99 99.285-22.312-63.45-73.145-142.565-105.714-190.561l-91.276 91.276zM704.833 442.663c55.876 55.876 56.36 146.35 1.081 201.628-55.278 55.28-145.755 54.796-201.631-1.081s-56.36-146.35-1.081-201.628c55.278-55.281 145.755-54.795 201.631 1.081zM542.185 480.565c-33.425 33.423-34.42 88.995 0.667 124.079 35.083 35.083 89.368 35.375 124.079 0.667 34.712-34.712 34.42-88.998-0.667-124.082-35.083-35.083-89.368-35.375-124.079-0.664z" />
<glyph unicode="&#xe913;" glyph-name="ico-server-2" d="M337.171 760.195c20.688 0 37.463 16.773 37.463 37.464s-16.776 37.463-37.463 37.463c-20.692 0-37.465-16.773-37.465-37.463s16.773-37.464 37.465-37.464zM249.755 635.317h674.343c42.457 0 74.927 32.469 74.927 74.927v174.829c0 42.458-32.47 74.927-74.927 74.927h-674.343c-42.459 0-74.927-32.468-74.927-74.927v-49.951h-112.39c-19.98 0-37.463-17.483-37.463-37.463v-724.292c0-19.98 17.483-37.463 37.463-37.463h112.39v-24.977c0-42.46 32.468-74.927 74.927-74.927h674.343c42.457 0 74.927 32.467 74.927 74.927v174.83c0 42.457-32.47 74.927-74.927 74.927h-674.343c-42.459 0-74.927-32.47-74.927-74.927v-74.927h-74.927v299.707h74.927v-49.95c0-42.46 32.468-74.927 74.927-74.927h674.343c42.457 0 74.927 32.467 74.927 74.927v174.827c0 42.46-32.47 74.927-74.927 74.927h-674.343c-42.459 0-74.927-32.467-74.927-74.927v-49.95h-74.927v274.732h74.927v-49.951c0-42.459 32.468-74.927 74.927-74.927zM249.755 885.073h674.343v-174.829h-674.343v174.829zM249.755 185.757h674.343v-174.83h-674.343v174.83zM249.755 535.413h674.343v-174.827h-674.343v174.827zM337.171 410.537c20.688 0 37.463 16.773 37.463 37.463s-16.776 37.463-37.463 37.463c-20.692 0-37.465-16.773-37.465-37.463s16.773-37.463 37.465-37.463zM337.171 60.877c20.688 0 37.463 16.776 37.463 37.463 0 20.691-16.776 37.463-37.463 37.463-20.692 0-37.465-16.773-37.465-37.463 0-20.688 16.773-37.463 37.465-37.463z" />
<glyph unicode="&#xe914;" glyph-name="ico-mobile" d="M512.002 52.363c19.278 0 34.906 15.631 34.906 34.909 0 19.281-15.628 34.909-34.906 34.909-19.281 0-34.911-15.628-34.911-34.909 0-19.278 15.63-34.909 34.911-34.909zM458.473 773.818h107.054c18.619 0 34.909 16.291 34.909 34.909s-16.291 34.909-34.909 34.909h-107.054c-18.618 0-34.909-16.291-34.909-34.909s16.291-34.909 34.909-34.909zM651.636 960h-279.272c-90.764 0-162.909-72.145-162.909-162.909v-698.182c0-90.763 72.145-162.909 162.909-162.909h279.272c90.766 0 162.909 72.147 162.909 162.909v698.182c0 90.764-72.144 162.909-162.909 162.909zM744.727 77.963c0-34.909-27.925-62.834-62.834-62.834h-339.783c-34.909 0-62.837 27.925-62.837 62.834v707.492c0 58.182 46.546 104.727 104.727 104.727h256.002c58.181 0 104.725-46.546 104.725-104.727v-707.492zM372.364 464.291l60.509 60.509c11.637 11.637 11.637 30.253 0 41.891s-30.254 11.637-41.891 0l-76.8-76.8c-6.982-6.981-11.636-16.291-11.636-25.6s4.654-18.619 11.636-25.6l76.8-76.8c6.982-4.653 13.964-6.981 20.946-6.981s13.963 2.328 20.945 9.309c11.637 11.634 11.637 30.253 0 41.891l-60.509 58.181zM633.018 566.691c-11.634 11.637-30.253 11.637-41.891 0-11.634-11.637-11.634-30.253 0-41.891l60.509-60.509-60.509-60.509c-11.634-11.634-11.634-30.253 0-41.891 4.656-4.653 13.966-9.309 20.947-9.309s13.963 2.328 20.944 9.309l76.8 76.8c6.984 6.981 11.637 16.291 11.637 25.6s-4.653 18.619-11.637 25.6l-76.8 76.8zM549.236 603.928c-16.291 4.653-30.253-4.656-34.909-20.947l-58.181-242.034c-4.655-16.294 4.655-30.256 20.945-34.909 2.327 0 4.655 0 6.982 0 13.964 0 25.6 9.309 27.929 23.272l58.181 242.037c2.325 11.634-6.981 27.925-20.947 32.581z" />
<glyph unicode="&#xe915;" glyph-name="ico-play" d="M115.2 883.2l793.6-435.2-793.6-435.2v870.4zM115.2 960c-12.8 0-28.16-2.56-38.4-10.24-23.040-15.36-38.4-38.4-38.4-66.56v-870.4c0-28.16 15.36-51.2 38.4-66.56 10.24-7.68 25.6-10.24 38.4-10.24s25.6 2.56 35.84 10.24l793.6 435.2c25.6 12.8 40.96 38.4 40.96 66.56s-15.36 53.76-40.96 66.56l-793.6 435.2c-10.24 7.68-23.040 10.24-35.84 10.24z" />
<glyph unicode="&#xe916;" glyph-name="ico-contrast" d="M1023.768 437.76c0 3.26 0.232 6.748 0.232 10.24 0 53.992-8.38 105.892-23.972 154.764-0.464 4.888-2.092 9.54-4.652 13.964-70.052 199.679-260.192 343.272-483.376 343.272-282.298 0-512-229.702-512-512 0-282.3 229.702-512 512-512 277.876 0 504.552 222.488 511.768 498.736 0 0.928 0 1.86 0 3.024zM706.792 290.908l239.476 239.476c4.888-25.832 7.68-52.364 7.912-79.592l-203.401-203.404-43.988 43.52zM535.272 678.4c0.468 0.466 0.932 0.466 1.396 0.931l162.912 162.909c1.396 1.396 1.86 3.026 2.792 4.422 19.78-9.542 38.864-19.782 56.784-32.116l-223.884-224.117v87.972zM535.272 776.611v112.407c33.28-1.629 65.628-6.982 96.584-15.825l-96.584-96.582zM536.668 493.148l277.18 277.179c15.128-14.196 29.324-29.091 42.356-45.149l-291.84-291.838-29.092 29.088v29.792c0.468 0.464 0.932 0.464 1.396 0.928zM896.232 666.531c10.708-18.851 20.016-38.865 28.16-59.347l-266.936-266.936-43.756 43.752 282.532 282.531zM69.818 448c0 228.538 173.382 416.349 395.638 439.622v-439.622c0-9.308 3.724-18.152 10.24-24.668l316.972-316.976c-76.332-62.836-174.080-100.536-280.668-100.536-244.131 0-442.182 198.048-442.182 442.18zM842.704 154.996l-42.82 42.824 139.868 139.868c-17.688-68.888-51.432-131.028-97.048-182.692z" />
<glyph unicode="&#xe917;" glyph-name="ico-energy" d="M761.881 880.814l-223.579-387.255 205.014-118.365-481.204-360.005 223.583 387.254-205.018 118.365 481.204 360.006zM801.338 949.153c-27.334 15.782-61.598 14.303-87.457-4.179l-481.204-360.006c-20.949-15.241-33.137-41.612-29.991-67.729 1.832-28.392 15.757-51.619 38.537-64.77l136.677-78.912-184.125-318.916c-18.412-31.891-12.73-74.656 16.531-97.625 4.556-2.629 7.797-7.536 12.353-10.168 27.335-15.783 61.601-14.302 87.457 4.18l481.204 360.005c20.949 15.241 33.137 41.612 29.992 67.729-1.832 28.392-15.756 51.619-38.537 64.77l-136.677 78.912 184.126 318.915c18.412 31.891 12.731 74.656-16.53 97.625-3.241 4.908-7.797 7.538-12.354 10.17z" />
<glyph unicode="&#xe918;" glyph-name="ico-infinity" d="M800.139 692.917c-77.575 0-175.101-79.792-239.376-141.853l-44.331-46.546c-2.215-2.216-4.433-4.433-6.65-6.649l-44.327-48.762c0 0-157.369-177.315-243.81-177.315s-155.152 79.79-155.152 177.315c0 97.524 70.925 177.316 155.152 177.316 55.411 0 137.418-70.925 190.613-121.905l46.545 46.546c-62.060 62.060-157.369 141.853-237.158 141.853-121.905 0-221.645-108.606-221.645-243.81 0-135.201 99.74-243.81 221.645-243.81 88.659 0 201.696 104.172 261.54 166.233l17.733 17.733c4.433 4.433 6.65 6.65 11.083 11.083l46.545 48.762c0 0 157.369 177.316 243.809 177.316 86.443 0 155.154-79.792 155.154-177.316s-70.928-177.315-155.154-177.315c-55.41 0-137.418 70.925-190.612 121.903l-46.545-48.76c62.060-62.062 159.582-141.853 237.157-141.853 121.906 0 221.646 108.605 221.646 243.809s-99.74 246.025-223.859 246.025z" />
<glyph unicode="&#xe919;" glyph-name="ico-grid" d="M220.405 886.858v-146.285h-145.801v146.285h145.801zM220.405 960h-145.801c-41.31 0-72.901-31.695-72.901-73.142v-146.285c0-41.447 31.59-73.142 72.901-73.142h145.801c41.31 0 72.901 31.695 72.901 73.142v146.285c0 41.447-31.59 73.142-72.901 73.142zM584.907 886.858v-146.285h-145.8v146.285h145.8zM584.907 960h-145.8c-41.311 0-72.899-31.695-72.899-73.142v-146.285c0-41.447 31.588-73.142 72.899-73.142h145.8c41.311 0 72.902 31.695 72.902 73.142v146.285c0 41.447-31.591 73.142-72.902 73.142zM949.396 886.858v-146.285h-145.8v146.285h145.8zM949.396 960h-145.8c-41.311 0-72.902-31.695-72.902-73.142v-146.285c0-41.447 31.591-73.142 72.902-73.142h145.8c41.311 0 72.902 31.695 72.902 73.142v146.285c0 41.447-31.591 73.142-72.902 73.142zM220.405 521.14v-146.283h-145.801v146.283h145.801zM220.405 594.283h-145.801c-41.31 0-72.901-31.693-72.901-73.143v-146.283c0-41.447 31.59-73.14 72.901-73.14h145.801c41.31 0 72.901 31.693 72.901 73.14v146.283c0 41.45-31.59 73.143-72.901 73.143zM584.907 521.14v-146.283h-145.8v146.283h145.8zM584.907 594.283h-145.8c-41.311 0-72.899-31.693-72.899-73.143v-146.283c0-41.447 31.588-73.14 72.899-73.14h145.8c41.311 0 72.902 31.693 72.902 73.14v146.283c0 41.45-31.591 73.143-72.902 73.143zM949.396 521.14v-146.283h-145.8v146.283h145.8zM949.396 594.283h-145.8c-41.311 0-72.902-31.693-72.902-73.143v-146.283c0-41.447 31.591-73.14 72.902-73.14h145.8c41.311 0 72.902 31.693 72.902 73.14v146.283c0 41.45-31.591 73.143-72.902 73.143zM220.405 155.424v-146.283h-145.801v146.283h145.801zM220.405 228.567h-145.801c-41.31 0-72.901-31.693-72.901-73.143v-146.283c0-41.447 31.59-73.14 72.901-73.14h145.801c41.31 0 72.901 31.693 72.901 73.14v146.283c0 41.45-31.59 73.143-72.901 73.143zM949.396 155.424v-146.283h-145.8v146.283h145.8zM949.396 228.567h-145.8c-41.311 0-72.902-31.693-72.902-73.143v-146.283c0-41.447 31.591-73.14 72.902-73.14h145.8c41.311 0 72.902 31.693 72.902 73.14v146.283c0 41.45-31.591 73.143-72.902 73.143zM584.907 155.424v-146.283h-145.8v146.283h145.8zM584.907 228.567h-145.8c-41.311 0-72.899-31.693-72.899-73.143v-146.283c0-41.447 31.588-73.14 72.899-73.14h145.8c41.311 0 72.902 31.693 72.902 73.14v146.283c0 41.45-31.591 73.143-72.902 73.143z" />
<glyph unicode="&#xe91a;" glyph-name="ico-server" d="M242.528 582.737c75.452 0 134.736 59.284 134.736 134.738s-59.284 134.737-134.736 134.737-134.737-59.285-134.737-134.737c0-75.454 59.285-134.738 134.737-134.738zM242.528 771.368c29.641 0 53.895-24.253 53.895-53.895s-24.254-53.894-53.895-53.894c-29.642 0-53.895 24.252-53.895 53.894s24.253 53.895 53.895 53.895zM943.157 960h-862.314c-45.81 0-80.843-35.031-80.843-80.843v-323.367c0-45.81 35.032-80.844 80.843-80.844h862.314c45.81 0 80.844 35.032 80.844 80.844v323.367c0 45.81-35.032 80.843-80.844 80.843zM943.157 555.79h-862.314v323.367h862.314v-323.367zM242.528 43.791c75.452 0 134.736 59.284 134.736 134.738 0 75.451-59.284 134.735-134.736 134.735s-134.737-59.284-134.737-134.735c0-75.454 59.285-134.738 134.737-134.738zM242.528 232.423c29.641 0 53.895-24.254 53.895-53.895 0-29.643-24.254-53.895-53.895-53.895s-53.895 24.252-53.895 53.895c0 29.64 24.253 53.895 53.895 53.895zM943.157 421.052h-862.314c-45.81 0-80.843-35.030-80.843-80.841v-323.37c0-45.807 35.032-80.841 80.843-80.841h862.314c45.81 0 80.844 35.032 80.844 80.841v323.37c0 45.81-35.032 80.841-80.844 80.841zM943.157 16.842h-862.314v323.37h862.314v-323.37z" />
<glyph unicode="&#xe91b;" glyph-name="ico-exchange" d="M245.845 418.892c12.237 0 24.474 3.059 33.651 12.237 15.296 18.355 15.296 48.949-3.059 67.304l-119.311 119.309h700.571c24.474 0 45.889 21.415 45.889 45.889s-21.415 45.889-45.889 45.889h-709.748l128.488 119.311c18.355 18.355 21.415 45.889 3.059 64.245s-45.889 21.415-64.245 3.059l-198.852-183.556c-12.237-9.178-15.296-24.474-15.296-39.77-3.059-15.296 0-30.592 12.237-39.77l198.852-198.85c9.178-12.237 21.415-15.296 33.651-15.296zM1022.897 226.155c3.059 15.296 0 30.592-12.237 39.77l-192.733 198.852c-18.355 18.355-45.889 18.355-64.245 0s-18.355-45.889 0-64.245l116.252-122.37h-685.275c-24.474 0-45.889-21.415-45.889-45.889s21.415-45.889 45.889-45.889h694.452l-128.488-119.311c-18.355-18.355-18.355-45.889-3.059-64.245 9.178-9.178 21.415-15.296 33.651-15.296s21.415 3.059 30.592 12.237l198.852 183.556c12.237 12.237 15.296 27.533 12.237 42.829z" />
<glyph unicode="&#xe91c;" glyph-name="ico-web" d="M512 960c-281.6 0-512-230.4-512-511.999s230.4-512 512-512c281.6 0 512 230.4 512 512s-230.4 511.999-512 511.999zM951.855 471.271h-151.274c-6.981 153.6-83.781 309.529-190.836 407.274 190.836-41.891 332.8-207.125 342.11-407.274zM465.455 841.309v-370.038h-174.545c6.981 146.619 76.8 288.583 174.545 370.038zM465.455 401.455v-342.11c-90.764 81.455-158.255 211.781-172.219 342.11h172.219zM535.275 47.71v353.745h195.49c-16.291-132.655-93.091-272.291-195.49-353.745zM535.275 471.271v379.346c109.38-81.455 188.506-232.728 197.816-379.346h-197.816zM400.29 876.218c-102.4-97.745-172.218-249.018-179.2-404.946h-148.945c9.309 195.493 144.291 356.074 328.145 404.946zM72.146 401.455h151.273c13.964-141.964 83.782-286.254 181.527-381.674-176.872 44.219-314.181 195.49-332.799 381.674zM605.091 15.127c104.729 95.419 181.528 244.365 195.49 386.329h151.274c-20.945-190.836-162.909-346.764-346.764-386.329z" />
<glyph unicode="&#xe91d;" glyph-name="ico-cart" d="M958.095 664.74h-44.399c0 0 0 0 0 2.336l-231.344 231.346c-14.021 14.021-35.052 14.021-49.073 0-16.357-14.021-16.357-37.389-2.336-51.41l182.271-182.272h-600.561l184.607 182.272c14.021 14.021 14.021 37.389 0 51.41s-35.052 14.021-49.073 0l-231.343-231.346c0 0 0 0 0-2.336h-46.736c-39.725 0-70.105-30.378-70.105-70.105v-93.473c0-39.725 30.378-70.103 70.105-70.103 0-4.675 0-9.349 0-14.021l70.105-373.891c7.010-32.716 35.052-56.084 67.768-56.084h607.57c32.716 0 63.095 23.367 67.77 56.084l70.105 373.891c0 4.672 0 9.346 0 14.021 39.725 0 70.103 30.378 70.103 70.103v93.473c4.675 37.391-25.703 70.105-65.431 70.105zM817.887 57.169h-607.572l-70.105 373.891h747.781l-70.105-373.891zM958.095 501.162h-887.989v93.473h887.989v-93.473z" />
<glyph unicode="&#xe91e;" glyph-name="ico-storage" d="M990.753 640.622l-433.87 300.884c-26.596 18.286-63.168 18.286-89.767 0l-433.869-300.884c-21.611-14.962-33.247-38.231-33.247-64.831v-556.883c0-43.22 34.909-78.129 78.13-78.129h867.741c43.22 0 78.129 34.909 78.129 78.129v556.883c0 24.936-11.635 49.869-33.246 64.831zM698.181 85.403h69.82v-69.817h-69.82v69.817zM766.339 151.897h-68.158v69.817h69.82v-69.817h-1.663zM561.87 15.585v69.817h69.82v-69.817h-69.82zM779.637 401.246h-533.61v88.105h533.61v-88.105zM246.027 334.752h533.61v-48.207h-113.038c-19.947 0-34.909-16.624-34.909-34.909v-99.74h-99.743c-19.947 0-34.909-16.624-34.909-34.909v-109.715h-251.012v327.478zM957.508 18.908c0-6.649-4.989-11.635-11.638-11.635h-99.74v500.365c0 26.596-21.611 49.869-49.869 49.869h-568.52c-26.597 0-49.87-21.611-49.87-49.869v-500.365h-99.741c-6.649 0-11.636 4.986-11.636 11.635v556.883c0 3.326 1.662 8.312 4.987 9.975l433.87 300.883c1.663 1.662 4.986 1.662 6.649 1.662s4.986 0 6.649-1.662l433.87-300.883c3.326-1.663 4.989-6.649 4.989-9.975v-556.883z" />
<glyph unicode="&#xe91f;" glyph-name="ico-1c" d="M178.518 624.040v-495.884c0-19.836 14.877-34.712 34.712-34.712s34.712 14.877 34.712 34.712v637.211c0 0 0 0 0 0-2.479 17.356-17.356 34.712-34.712 34.712-19.836 0-34.712-14.877-34.712-34.712v-74.383h-141.327c-17.356 2.479-32.232-14.877-32.232-32.232 0-19.836 14.877-34.712 34.712-34.712h138.848zM1004.164 524.863v0c-34.712 146.286-163.642 247.942-312.407 247.942-178.518 0-322.324-146.286-322.324-324.804s143.806-324.804 322.324-324.804h295.051c19.836 0 34.712 14.877 34.712 34.712s-14.877 34.712-34.712 34.712h-295.051c-141.327 0-255.38 116.533-255.38 257.86 0 138.848 116.533 252.901 255.38 252.901 116.533 0 218.189-79.342 247.942-195.874 4.959-17.356 22.315-29.753 39.67-24.794s29.753 24.794 24.794 42.15zM213.23 90.964c-22.315 0-39.67 17.356-39.67 39.67v488.446h-133.889c-22.315 0-39.67 17.356-39.67 39.67 0 12.397 4.959 22.315 12.397 29.753s17.356 9.917 24.794 7.438h133.889v69.424c0 22.315 17.356 39.67 39.67 39.67 19.836 0 37.191-17.356 39.67-37.191v-637.211c2.479-22.315-14.877-39.67-37.191-39.67zM34.711 686.025c-4.959 0-12.397-2.479-14.877-4.959-7.438-4.959-9.917-14.877-9.917-22.315 0-17.356 12.397-29.753 29.753-29.753h141.327c2.479 0 4.959-2.479 4.959-4.959v-495.884c0-17.356 12.397-29.753 29.753-29.753s29.753 12.397 29.753 29.753v637.211c-4.959 17.356-17.356 29.753-34.712 29.753-14.877 0-29.753-12.397-29.753-29.753v-74.383c0-2.479-2.479-4.959-4.959-4.959h-138.848c0 0-2.479 0-2.479 0zM986.809 115.758h-295.051c-180.997 0-327.283 148.765-327.283 329.763s146.286 329.763 327.283 329.763c151.244 0 282.654-104.136 317.366-250.422v0c4.959-19.836-9.917-42.15-29.753-47.109-9.917-2.479-19.836 0-29.753 4.959s-14.877 14.877-17.356 22.315c-27.274 111.574-126.45 190.916-242.983 190.916-138.848 0-250.422-111.574-250.422-250.422s111.574-252.901 250.422-252.901h295.051c22.315 0 39.67-17.356 39.67-39.67s-14.877-37.191-37.191-37.191zM691.757 765.367c-173.559 0-317.366-143.806-317.366-319.845s141.327-319.845 317.366-319.845h295.051c14.877 0 29.753 12.397 29.753 29.753s-12.397 29.753-29.753 29.753h-295.051c-143.806 0-260.339 119.012-260.339 262.818s116.533 260.339 260.339 260.339c119.012 0 223.148-81.821 252.901-198.354 2.479-7.438 4.959-12.397 12.397-17.356s14.877-4.959 22.315-4.959c14.877 2.479 24.794 19.836 19.836 34.712 0 0 0 0 0 0v0c-34.712 143.806-161.163 242.983-307.448 242.983z" />
<glyph unicode="&#xe920;" glyph-name="ico-idea" d="M827.077 453.623c0 173.292-141.785 315.077-315.078 315.077-173.289 0-315.075-141.785-315.075-315.077 0-117.028 63.015-218.301 157.537-272.315v-110.276c0-74.269 60.767-135.033 135.033-135.033h45.013c74.266 0 135.033 60.764 135.033 135.033v110.276c94.52 54.014 157.537 155.288 157.537 272.315zM602.023 116.044h-112.529c-18.005 0-33.757-15.754-33.757-33.76s15.751-33.757 33.757-33.757h108.025c-9.002-27.007-33.757-45.013-63.014-45.013h-45.013c-38.26 0-67.516 29.256-67.516 67.516v67.516h180.044v-22.504zM511.999 206.065c-137.283 0-247.557 110.276-247.557 247.558s110.276 247.56 247.557 247.56c137.286 0 247.561-110.278 247.561-247.56s-110.276-247.558-247.561-247.558zM512.002 644.925c-18.005 0-33.76-15.754-33.76-33.76s15.754-33.757 33.76-33.757c67.516 0 123.778-56.264 123.778-123.781 0-18.005 15.754-33.757 33.76-33.757s33.757 15.751 33.757 33.757c0 105.775-85.518 191.297-191.294 191.297zM500.746 847.472c18.005 0 33.76 15.753 33.76 33.759v45.012c0 18.004-15.754 33.758-33.76 33.758s-33.757-15.753-33.757-33.758v-45.012c0-18.004 15.751-33.759 33.757-33.759zM984.614 543.65h-45.013c-18.005 0-33.757-15.751-33.757-33.757s15.751-33.76 33.757-33.76h45.013c18.005 0 33.757 15.754 33.757 33.76s-15.751 33.757-33.757 33.757zM118.156 509.894c0 18.005-15.753 33.757-33.758 33.757h-45.012c-18.004 0-33.759-15.751-33.759-33.757s15.753-33.76 33.759-33.76h45.012c18.004 0 33.758 15.754 33.758 33.76zM813.572 732.694c9.002 0 18.005 2.25 24.758 9.002l31.507 31.507c13.505 13.503 13.505 33.758 0 47.262-13.502 13.503-33.757 13.503-47.262 0l-31.507-31.507c-13.502-13.503-13.502-33.759 0-47.262 6.753-4.501 15.754-9.002 22.504-9.002zM210.428 791.215l-31.507 31.507c-13.503 13.503-33.759 13.503-47.262 0s-13.503-33.758 0-47.262l31.508-31.508c6.752-6.752 15.753-9.002 24.756-9.002s18.004 2.25 24.756 9.002c11.253 13.503 11.253 33.759-2.25 47.262zM883.34 251.075c-13.505 13.505-33.76 13.505-47.262 0-13.505-13.502-13.505-33.757 0-47.262l31.507-31.507c6.753-6.753 15.754-9.002 24.755-9.002s18.005 2.249 24.758 9.002c13.502 13.505 13.502 33.76 0 47.262l-33.757 31.507zM118.156 251.075l-31.507-33.757c-13.503-13.505-13.503-33.76 0-47.262 6.752-6.753 15.753-9.002 24.756-9.002s18.004 2.249 24.757 9.002l31.507 31.507c13.503 13.505 13.503 33.76 0 47.262-15.753 13.502-36.009 13.502-49.512 2.249z" />
<glyph unicode="&#xe921;" glyph-name="ico-image" d="M944.872 692.365c-4.652 6.982-9.307 11.636-13.962 16.29l-214.109 239.709c-4.655 6.982-11.635 9.31-18.619 11.636-6.981 0-32.581 0-32.581 0h-525.963c-39.564 0-69.818-32.582-69.818-69.818v-884.362c0-39.564 30.254-69.819 69.818-69.819h744.727c39.562 0 69.816 30.254 69.816 69.819v651.635c0 2.329 0 4.655 0 6.984 0 11.635-2.326 20.945-9.31 27.927zM744.727 813.382l76.8-86.109h-76.8v86.109zM674.911 890.182v-232.728h207.125l2.329-2.326v-246.69l-123.345 69.816c-13.965 6.984-32.584 4.655-44.219-6.981l-193.164-214.109-162.909 60.51c-13.963 4.655-27.927 2.326-37.235-6.981l-183.854-186.184v765.673h535.273zM139.638 5.82v20.945c0 0 0 0 2.327 0l216.437 216.435 165.236-60.507c13.965-4.655 27.929-2.329 37.235 9.307l190.838 211.784 132.655-76.8v-321.164h-744.727zM349.092 471.273c65.164 0 116.364 51.2 116.364 116.364 0 65.161-51.2 116.362-116.364 116.362s-116.363-51.201-116.363-116.362c0-65.164 53.527-116.364 116.363-116.364zM349.092 634.184c25.6 0 46.545-20.945 46.545-46.545s-20.945-46.545-46.545-46.545c-25.6 0-46.546 20.945-46.546 46.545s20.946 46.545 46.546 46.545z" />
<glyph unicode="&#xe922;" glyph-name="ico-bell" d="M921.912 169.991c-9.268 9.265-85.72 88.034-85.72 338.245 0 125.103-76.452 259.474-196.924 317.393 0 2.317 0 4.634 0 6.95 0 67.185-60.234 127.421-127.421 127.421s-127.421-60.235-127.421-127.421c0-2.317 0-4.634 0-6.95-120.47-57.919-196.923-192.289-196.923-317.393 0-261.793-83.403-335.927-85.719-335.927-25.484-16.217-37.068-48.651-27.801-78.769 9.267-30.121 34.751-48.651 67.185-48.651h227.041c-11.583-13.903-13.9-34.751 0-48.651 37.069-39.386 88.038-60.237 141.321-60.237 53.286 0 104.255 20.851 141.321 60.237 13.903 13.9 13.903 34.748 0 46.334h229.358c32.435 0 60.234 20.849 69.504 50.969 9.265 32.435 0 62.552-27.8 76.452zM511.846 890.498c20.851 0 46.334-16.217 53.286-39.385-18.535 2.317-34.751 4.634-53.286 4.634s-37.069-2.316-53.283-4.634c6.949 23.168 32.432 39.385 53.283 39.385zM511.846 786.245c145.955 0 254.841-148.271 254.841-278.009 0-99.62 11.586-173.756 27.803-231.676h-565.287c16.217 57.92 27.801 132.055 27.801 231.676 0 129.738 108.886 278.009 254.841 278.009zM509.528 7.819c-34.751 0-67.183 13.9-92.669 39.383h183.024c-23.169-27.8-55.604-39.383-90.355-39.383zM141.167 114.388c0 0 32.435 23.169 64.869 92.669h613.937c30.118-69.501 64.869-92.669 64.869-92.669h-743.675z" />
<glyph unicode="&#xe923;" glyph-name="ico-cycle" d="M901.661 360.751l111.378 112.799c14.617 14.23 14.514 39.531 0.285 54.149s-39.531 14.514-54.149 0.288l-50.398-50.812c-4.398 85.506-35.624 172.926-90.573 245.575-151.111 199.786-438.209 239.609-637.996 88.495-199.784-151.114-239.606-438.212-88.492-637.996 151.111-199.784 438.209-239.606 637.996-88.495 92.829 70.216 150.109 170.649 171.949 275.997zM152.254 219.042c-126.691 167.495-93.751 404.971 73.745 531.663s404.971 93.75 531.663-73.745c50.371-66.596 75.49-145.945 77.326-223.872l-74.692 73.58c-14.228 14.617-39.531 14.514-54.149 0.288-12.6-12.704-15.55-33.969-3.337-50.113 1.527-2.017 1.527-2.017 3.053-4.038l115.852-115.414c-20.417-82.065-68.694-156.653-139.326-210.077-165.968-128.709-403.445-95.771-530.137 71.728z" />
<glyph unicode="&#xe924;" glyph-name="ico-user" d="M739.279 313.132c-19.981 2.497-39.961-12.486-39.961-32.467s12.486-39.961 32.47-39.961c7.49 0 194.809-22.478 214.788-224.783h-869.152c19.981 202.305 204.8 224.783 214.79 224.783 19.981 2.494 34.965 19.981 32.468 39.961s-19.981 34.965-39.96 32.467c-4.995 0-284.722-32.467-284.722-337.172 0-19.981 17.483-37.463 37.464-37.463h949.073c19.981 0 37.463 17.482 37.463 37.463 0 304.705-279.726 337.172-284.721 337.172zM512 325.621c-174.828 0-314.692 142.361-314.692 314.69 0 172.332 139.865 317.191 314.692 317.191 174.831 0 314.693-142.361 314.693-314.693s-139.863-317.189-314.693-317.189zM512 882.576c-132.369 0-239.766-107.396-239.766-239.767 0-132.369 107.397-239.765 239.766-239.765 132.372 0 239.768 107.396 239.768 239.765 0 132.371-107.396 239.767-239.768 239.767z" />
<glyph unicode="&#xe925;" glyph-name="ico-rock" d="M773.953 960c-66.68 0-119.067-52.391-119.067-119.070v-166.698h-95.256c-11.909 0-26.197-4.763-35.72-9.525-9.526 7.144-23.815 9.525-35.724 9.525h-95.255c-9.525 0-16.67-2.381-23.814-4.763v171.461c0 66.679-52.391 119.070-119.070 119.070s-119.070-52.391-119.070-119.070v-476.28c0-47.626 0-166.697 23.814-214.323 64.298-123.832 207.181-214.326 354.826-214.326 209.565 0 383.405 166.697 383.405 309.582 0 9.523 0 595.347 0 595.347 0 66.679-52.391 119.070-119.071 119.070zM559.629 602.792h95.256v-238.141c0-26.194-21.432-47.626-47.629-47.626-26.194 0-47.626 21.432-47.626 47.626v238.141zM392.931 602.792h95.255v-176.223c-4.762 7.144-9.523 11.906-14.288 19.049-21.431 21.432-50.008 33.341-80.966 33.341v123.832zM202.42 840.932c0 26.195 21.432 47.627 47.628 47.627s47.628-21.432 47.628-47.627v-402.457l-95.256-95.256v497.713zM228.615 186.048c-9.525 19.049-14.289 38.103-19.052 57.153 2.382 7.144 4.763 11.906 11.907 16.671l135.74 135.737c9.525 9.526 21.432 14.288 33.339 14.288s23.814-4.762 33.339-14.288c19.052-19.049 19.052-47.626 0-66.68l-135.74-135.737c-9.525-9.526-21.432-14.288-33.339-14.288-9.525 0-19.052 2.383-26.195 7.144zM821.582 245.584c0-119.071-164.317-238.141-309.582-238.141-92.874 0-180.985 30.959-238.139 95.256 21.432 4.765 47.628 21.432 64.298 38.103l104.781 104.782c30.957 0 59.533 14.288 80.969 33.338 21.432-21.432 50.009-33.338 83.346-33.338 95.256 0 119.071 116.688 119.071 116.688v478.659c0 26.195 21.432 47.627 47.626 47.627 26.197 0 47.629-21.432 47.629-47.627v-595.347z" />
<glyph unicode="&#xe926;" glyph-name="ico-smile" d="M325.818 541.092c25.707 0 46.545 20.838 46.545 46.544s-20.838 46.548-46.545 46.548c-25.706 0-46.545-20.841-46.545-46.548s20.839-46.544 46.545-46.544zM698.184 541.092c25.706 0 46.544 20.838 46.544 46.544s-20.838 46.548-46.544 46.548c-25.709 0-46.548-20.841-46.548-46.548s20.838-46.544 46.548-46.544zM512 960c-281.6 0-512-230.4-512-512s230.4-512 512-512c281.6 0 512 230.4 512 512s-230.4 512-512 512zM512 5.82c-244.364 0-442.182 197.816-442.182 442.18s197.818 442.182 442.182 442.182c244.364 0 442.184-197.818 442.184-442.182s-197.819-442.18-442.184-442.18zM786.616 361.892c-16.288 9.308-37.236 4.656-48.873-11.636-48.873-76.8-132.652-123.344-225.744-123.344s-176.873 46.544-225.746 123.344c-9.309 16.292-32.582 20.945-48.873 11.636s-20.946-32.58-11.636-48.873c62.836-97.744 169.891-155.928 286.255-155.928s223.416 58.184 286.252 155.928c9.311 16.292 4.656 37.236-11.636 48.873z" />
<glyph unicode="&#xe927;" glyph-name="ico-portfolio" d="M950.857 752.762h-219.428v73.143c0 41.447-31.696 73.143-73.145 73.143h-292.57c-41.448 0-73.142-31.695-73.142-73.143v-73.143h-219.429c-41.447 0-73.143-31.695-73.143-73.143v-609.524c0-41.445 31.695-73.142 73.143-73.142h877.714c41.445 0 73.142 31.696 73.142 73.142v609.524c0 41.447-31.696 73.143-73.142 73.143zM365.714 825.905h292.57v-73.143h-292.57v73.143zM950.857 679.619v-180.419c-2.439 0-163.355-80.457-321.828-112.151-9.755 26.819-36.573 48.761-68.268 48.761h-97.526c-31.693 0-58.513-19.504-68.265-48.761-168.23 31.693-314.514 114.59-316.952 117.028-2.437 0-2.437 2.439-4.877 2.439v173.103h877.714zM560.762 362.668v-73.145h-97.526v73.145h97.526zM73.143 70.095v353.525c56.076-29.258 180.419-85.332 316.951-109.716v-24.381c0-41.445 31.696-73.142 73.142-73.142h97.526c41.448 0 73.142 31.696 73.142 73.142v24.381c129.22 24.384 258.438 78.019 316.954 104.838v-348.648h-877.714z" />
<glyph unicode="&#xe928;" glyph-name="ico-gramophone" d="M989.483 494.022h-69.034c-18.409 0-34.516-16.109-34.516-34.518s16.107-34.516 34.516-34.516h69.034c18.409 0 34.518 16.107 34.518 34.516s-16.109 34.518-34.518 34.518zM984.885 291.523l-69.034 46.022c-16.109 11.504-36.818 6.902-48.325-9.204-11.504-16.109-6.902-36.818 9.204-48.325l69.034-46.022c6.905-4.603 11.507-6.902 18.409-6.902 11.507 0 23.011 4.603 27.613 16.107 13.807 18.409 9.204 39.12-6.902 48.325zM897.443 576.863c6.905 0 13.807 2.302 18.409 4.603l71.336 46.022c16.107 9.204 20.709 32.216 11.504 48.323s-32.216 20.71-48.323 11.506l-71.336-46.022c-16.107-9.204-20.709-32.216-11.504-48.323 6.902-11.507 18.409-16.109 29.913-16.109zM759.371 816.179h-92.045c-39.118 0-69.034-29.915-69.034-69.034v-4.603l-395.793-158.779c-9.204 27.615-34.516 48.325-64.432 48.325h-69.034c-39.119 0-69.034-29.915-69.034-69.034v-230.112c0-39.12 29.915-69.034 69.034-69.034h69.034c29.915 0 55.227 18.409 64.432 46.022l43.722-18.409c-2.302-4.603-4.603-9.204-4.603-16.109 0-64.432 32.216-117.356 87.443-144.969 20.709-9.204 43.72-16.109 64.432-16.109 39.118 0 78.238 13.807 110.454 43.722 4.603 4.603 6.902 9.204 9.204 13.807l82.841-36.818c9.204-32.216 36.818-55.227 71.333-55.227h92.045c39.12 0 69.034 29.913 69.034 69.034v598.292c0 39.119-29.913 69.034-69.034 69.034zM138.067 332.944h-69.034v230.112h69.034v-230.112zM598.292 210.983l-391.19 172.586v128.863l391.19 156.477v-457.925zM361.278 190.274c-36.818 18.409-46.022 50.625-48.325 71.333l138.067-59.829c-25.311-16.107-59.829-25.311-89.743-11.504zM759.371 148.854h-92.045v598.292h92.045v-598.292z" />
<glyph unicode="&#xe929;" glyph-name="ico-graph-smoth" d="M1011.158 0.605v598.992c7.392 7.392 12.323 17.254 12.323 27.115 0 19.72-17.254 36.974-36.974 36.974-71.485 0-101.065-54.231-123.25-96.135-27.115-49.3-44.37-76.412-98.6-76.412-41.904 0-54.227 24.647-76.412 91.204-22.185 66.554-54.231 155.293-170.086 155.293-2.465 0-4.93 0-7.392 0-2.465 0-2.465 0-4.93 0s-4.93 0-9.861 0c-128.178-12.325-160.223-135.573-187.338-244.035-12.325-49.297-24.65-103.527-46.834-145.432-7.395-12.327-14.79-24.65-22.185-34.512-7.395-4.927-12.326-9.858-17.255-17.254-51.764-49.3-118.319-54.227-150.364-54.227v680.334c2.465 19.72-14.79 36.975-34.51 36.975s-36.975-17.255-36.975-36.975v-949.020c0-19.72 17.255-36.974 36.975-36.974h949.020c19.72 0 36.974 17.254 36.974 36.974 0 9.861-4.93 19.72-12.323 27.115zM929.812 533.042c2.465 4.927 4.93 9.858 7.396 14.789v-537.365h-147.901v409.187c83.812 9.858 115.854 69.020 140.504 113.389zM619.225 557.692c17.254-46.835 39.439-110.924 96.135-133.112v-414.114h-172.551v650.755c39.439-9.858 56.697-46.835 76.415-103.529zM328.356 313.657c24.648 49.3 39.44 105.997 51.763 160.224 22.185 93.67 41.904 152.832 86.277 177.482v-643.361h-172.551v256.359c14.79 14.789 27.115 32.042 34.51 49.297zM74.463 168.224c2.465 0 2.465 0 4.93 0 41.905 0 93.669 9.858 142.969 34.508v-194.733h-147.898v160.224z" />
<glyph unicode="&#xe92a;" glyph-name="ico-crm" d="M895.995 424.728h-46.544c-39.564 0-69.819-30.256-69.819-69.819v-69.816c0-39.564 30.256-69.819 69.819-69.819h46.544c39.564 0 69.819 30.256 69.819 69.819v69.816c0 39.564-30.256 69.819-69.819 69.819zM895.995 285.092h-46.544v69.816h46.544v-69.816zM663.277 424.728h-46.544c-39.564 0-69.816-30.256-69.816-69.819v-162.908c0-39.564 30.252-69.819 69.816-69.819h46.544c39.564 0 69.819 30.256 69.819 69.819v162.908c0 39.564-30.256 69.819-69.819 69.819zM663.277 192h-46.544v162.908h46.544v-162.908zM430.545 424.728h-46.548c-39.56 0-69.817-30.256-69.817-69.819v-256c0-39.564 30.256-69.816 69.817-69.816h46.548c39.564 0 69.816 30.252 69.816 69.816v256c0 39.564-30.252 69.819-69.816 69.819zM430.545 98.909h-46.548v256h46.548v-256zM197.812 424.728h-46.545c-39.563 0-69.818-30.256-69.818-69.819v-349.092c0-39.56 30.255-69.816 69.818-69.816h46.545c39.563 0 69.818 30.256 69.818 69.816v349.092c0 39.564-30.255 69.819-69.818 69.819zM197.812 5.817h-46.545v349.092h46.545v-349.092zM989.090 541.092h-23.272v349.090c0 39.563-30.256 69.818-69.819 69.818h-46.544c-39.564 0-69.819-30.255-69.819-69.818v-349.090h-46.544v255.999c0 39.563-30.256 69.818-69.819 69.818h-46.544c-39.564 0-69.819-30.254-69.819-69.818v-255.999h-46.544v162.908c0 39.563-30.256 69.818-69.819 69.818h-46.544c-39.564 0-69.818-30.254-69.818-69.818v-162.908h-46.545v69.816c0 39.564-30.254 69.818-69.818 69.818h-46.545c-39.563 0-69.818-30.255-69.818-69.818v-69.816h-46.545c-18.619 0-34.909-16.292-34.909-34.911 0-18.617 16.29-34.908 34.909-34.908h954.183c18.617 0 34.908 16.292 34.908 34.908 0 18.62-16.292 34.911-34.908 34.911zM849.454 890.182h46.544v-349.090h-46.544v349.090zM616.726 797.091h46.544v-255.999h-46.544v255.999zM383.998 704h46.544v-162.908h-46.544v162.908zM151.271 610.908h46.545v-69.816h-46.545v69.816z" />
<glyph unicode="&#xe92b;" glyph-name="ico-box" d="M949.074 922.537h-874.147c-42.459 0-74.927-32.469-74.927-74.927v-799.22c0-42.459 32.468-74.927 74.927-74.927h874.147c42.459 0 74.927 32.468 74.927 74.927v799.22c0 42.459-32.468 74.927-74.927 74.927zM447.064 847.61h127.375v-187.318h-127.375v187.318zM949.074 170.769v-122.38h-874.147v799.22h297.211v-209.795c0-27.472 22.477-52.449 52.449-52.449h174.829c27.472 0 52.449 22.477 52.449 52.449v209.795h297.209v-676.84z" />
<glyph unicode="&#xe92c;" glyph-name="ico-pouche" d="M954.182 610.909v209.455c0 39.564-30.254 69.818-69.818 69.818h-814.546c-39.564 0-69.818-30.255-69.818-69.818v-744.727c0-39.564 30.255-69.818 69.818-69.818h814.546c39.564 0 69.818 30.254 69.818 69.818v209.455c39.564 0 69.818 30.254 69.818 69.818v186.182c0 39.564-30.254 69.818-69.818 69.818zM954.182 354.909h-186.182v186.182h186.182v-186.182zM69.817 75.636v744.727h814.546v-209.455h-116.365c-39.564 0-69.818-30.254-69.818-69.818v-186.182c0-39.564 30.254-69.818 69.818-69.818h116.365v-209.455h-814.546zM861.090 413.092c19.279 0 34.909 15.63 34.909 34.909s-15.63 34.909-34.909 34.909c-19.279 0-34.909-15.63-34.909-34.909s15.63-34.909 34.909-34.909z" />
<glyph unicode="&#xe92d;" glyph-name="ico-shield" d="M512 890.183c349.091 0 372.362-93.091 372.362-93.091v-309.528c0-168.262-90.762-323.258-237.148-405.643l-135.214-76.102-135.217 76.102c-146.386 82.384-237.149 237.381-237.149 405.643v309.528c0 0 0 93.091 372.365 93.091zM512 960c-165.47 0-285.558-18.152-357.005-53.993-79.127-39.331-85.178-93.324-85.178-108.917v-309.528c0-193.162 104.495-371.898 272.757-466.616l135.214-76.102c10.706-5.819 22.342-8.843 34.213-8.843 11.868 0 23.504 3.025 34.21 9.076l135.214 76.102c168.262 94.485 272.759 273.221 272.759 466.384v309.528c0 5.818-0.698 11.404-2.096 16.989-13.731 54.458-88.902 145.92-440.086 145.92zM488.727 320.004c-8.843 0-17.92 3.49-24.667 10.238l-162.91 162.909c-13.731 13.731-13.731 35.84 0 49.339 13.73 13.731 35.84 13.731 49.338 0l138.239-138.237 231.332 231.329c13.731 13.731 35.84 13.731 49.339 0 13.728-13.731 13.728-35.84 0-49.339l-256.003-256c-6.748-6.748-15.824-10.238-24.667-10.238z" />
<glyph unicode="&#xe92e;" glyph-name="ico-like" d="M1023.999 497.949c0 68.932-55.948 124.879-124.88 124.879h-174.828v174.829c0 74.427-42.96 149.854-124.88 149.854s-124.877-75.426-124.877-149.854v-68.933l-90.163-90.162-115.386-37.462c-10.989 27.472-37.963 46.703-69.182 46.703h-124.878c-41.46 0-74.927-33.467-74.927-74.928v-549.459c0-41.462 33.467-74.926 74.927-74.926h124.878c41.46 0 74.927 33.464 74.927 74.926v9.738l108.392-72.178c12.24-7.991 26.726-12.486 41.462-12.486h474.533c68.932 0 124.88 55.945 124.88 124.877v24.975c0 13.735-3.748 26.474-9.991 37.465 6.492 10.988 9.991 23.726 9.991 37.461v74.926c0 13.739-3.748 26.474-9.991 37.465 6.492 10.991 9.991 23.726 9.991 37.465v74.926c0 13.735-3.748 26.474-9.991 37.461 6.492 10.991 9.991 23.729 9.991 37.465v24.975zM199.805 23.414h-124.878v549.459h124.878v-549.459zM949.072 472.974h-37.461c-20.729 0-37.465-16.732-37.465-37.465 0-20.729 16.736-37.461 37.465-37.461h37.461v-74.926h-37.461c-20.729 0-37.465-16.736-37.465-37.465s16.736-37.465 37.465-37.465h37.461v-74.926h-37.461c-20.729 0-37.465-16.732-37.465-37.461 0-20.733 16.736-37.465 37.465-37.465h37.461v-24.975c0-27.474-22.477-49.951-49.951-49.951h-474.533l-149.854 99.901v401.108l149.854 48.452 124.877 124.879v99.902c0 0 0 74.927 49.951 74.927s49.951-74.927 49.951-74.927v-249.757h249.757c27.474 0 49.951-22.477 49.951-49.951v-24.975z" />
<glyph unicode="&#xe92f;" glyph-name="ico-message" d="M814.547 843.635c77.033 0 139.636-62.604 139.636-139.636v-372.364c0-77.033-62.604-139.636-139.636-139.636h-424.727l-157.092-139.636v139.636h-23.273c-77.033 0-139.636 62.604-139.636 139.636v372.364c0 77.033 62.604 139.636 139.636 139.636h605.092zM814.547 913.454h-605.092c-115.433 0-209.455-94.022-209.455-209.455v-372.364c0-99.608 69.819-182.923 162.909-204.334v-74.938c0-27.462 16.058-52.364 41.192-63.767 9.309-3.957 18.851-6.051 28.625-6.051 16.756 0 33.28 6.051 46.313 17.687l137.31 121.949h398.196c115.433 0 209.455 94.022 209.455 209.455v372.364c0 115.433-94.022 209.455-209.455 209.455zM512.001 482.907c19.279 0 34.909 15.63 34.909 34.909 0 19.282-15.63 34.909-34.909 34.909-19.282 0-34.909-15.627-34.909-34.909 0-19.279 15.627-34.909 34.909-34.909zM744.728 482.907c19.279 0 34.909 15.63 34.909 34.909 0 19.282-15.63 34.909-34.909 34.909-19.282 0-34.909-15.627-34.909-34.909 0-19.279 15.627-34.909 34.909-34.909zM282.060 482.907c19.279 0 34.909 15.63 34.909 34.909 0 19.282-15.63 34.909-34.909 34.909s-34.909-15.627-34.909-34.909c0-19.279 15.63-34.909 34.909-34.909z" />
<glyph unicode="&#xe930;" glyph-name="ico-graph-outline" d="M974.126-20.772h-924.251c-26.595 0-49.874 23.27-49.874 49.874s23.27 49.874 49.874 49.874h924.251c26.595 0 49.874-23.27 49.874-49.874s-23.27-49.874-49.874-49.874zM246.029 454.646v-265.971h-99.739v265.971h99.739zM246.029 527.788h-99.739c-39.895 0-73.141-33.246-73.141-73.141v-265.971c0-39.895 33.246-73.141 73.141-73.141h96.413c39.895 0 73.141 33.246 73.141 73.141v265.971c3.326 39.895-29.921 73.141-69.816 73.141zM535.27 624.209v-438.851h-96.413v438.851h96.413zM535.27 697.35h-96.413c-39.895 0-73.141-33.246-73.141-73.141v-438.851c0-39.895 33.246-73.141 73.141-73.141h96.413c39.895 0 73.141 33.246 73.141 73.141v438.851c0 39.895-29.921 73.141-73.141 73.141zM827.843 843.631v-658.278h-96.413v658.278h96.413zM827.843 916.772h-96.413c-39.895 0-73.141-33.246-73.141-73.141v-658.278c0-39.895 33.246-73.141 73.141-73.141h96.413c39.895 0 73.141 33.246 73.141 73.141v658.278c0 39.895-33.246 73.141-73.141 73.141z" />
<glyph unicode="&#xe931;" glyph-name="ico-plus" d="M512-63.999c-42.374 0-70.624 28.257-70.624 70.624v882.752c0 42.374 28.257 70.624 70.624 70.624s70.624-28.257 70.624-70.624v-882.752c0-42.374-35.298-70.624-70.624-70.624zM953.375 377.376h-882.752c-42.374 0-70.624 28.257-70.624 70.624s28.257 70.624 70.624 70.624h882.752c42.374 0 70.624-28.257 70.624-70.624s-35.298-70.624-70.624-70.624z" />
<glyph unicode="&#xe932;" glyph-name="ico-rub" d="M403.2 147.2c-19.2 0-32 12.8-32 32v57.6h-32c-19.2 0-32 12.8-32 32s12.8 32 32 32h32v41.6h-32c-19.2 0-32 12.8-32 32s12.8 32 32 32h32v278.4h-32c-19.2 0-32 12.8-32 32s12.8 32 32 32h227.2c108.8 0 195.2-89.6 195.2-201.6s-86.4-201.6-195.2-201.6h-131.2v-41.6h137.6c19.2 0 32-12.8 32-32s-12.8-32-32-32h-137.6v-57.6c0-19.2-12.8-35.2-32-35.2zM435.2 406.4h131.2c73.6 0 131.2 60.8 131.2 137.6s-57.6 140.8-128 140.8h-131.2v-278.4zM512-64c-281.6 0-512 230.4-512 512s230.4 512 512 512 512-230.4 512-512-230.4-512-512-512zM512 896c-246.4 0-448-201.6-448-448s201.6-448 448-448 448 201.6 448 448-201.6 448-448 448z" />
<glyph unicode="&#xe933;" glyph-name="ico-drawsdown" d="M59.446 213.576c-39.654 76.975-58.314 156.282-58.314 235.59 0 282.241 228.592 510.833 510.833 510.833 135.289 0 261.248-51.317 354.55-144.62l-32.656-32.656c-83.973 83.973-198.268 130.624-321.895 130.624-256.583 0-464.181-207.599-464.181-464.181 0-72.309 18.66-144.62 53.649-214.596l-41.986-20.993zM511.965-61.667c-128.291 0-247.253 46.651-340.556 130.624l30.324 34.988c86.305-79.307 198.268-121.294 317.23-118.961 256.583 4.666 461.849 214.596 457.184 471.179 0 62.979-16.328 125.959-41.986 186.606l41.986 18.66c30.324-65.312 46.651-135.289 46.651-205.266 4.666-282.241-221.594-515.498-503.835-520.164-2.332 2.332-4.666 2.332-6.998 2.332zM579.61 330.204c-6.998 0-11.662 2.332-16.328 6.998l-153.95 170.278c-9.33 9.33-6.998 23.326 2.332 32.656s23.326 6.998 32.656-2.332l153.95-170.278c9.33-9.33 6.998-23.326-2.332-32.656-4.666-2.332-11.662-4.666-16.328-4.666zM166.744 208.911c-4.666 0-6.998 0-11.662 2.332-11.662 6.998-16.328 20.993-9.33 32.656l146.952 272.911c6.998 11.662 20.993 16.328 32.656 9.33s16.328-20.993 9.33-32.656l-146.952-272.911c-4.666-6.998-11.662-11.662-20.993-11.662zM703.236 379.189l149.284 277.576zM703.236 355.863c-4.666 0-6.998 0-11.662 2.332-11.662 6.998-16.328 20.993-9.33 32.656l149.284 277.576c6.998 11.662 20.993 16.328 32.656 9.33s16.328-20.993 9.33-32.656l-149.284-275.243c-4.666-9.33-11.662-13.996-20.993-13.996zM658.917 199.581c-58.314 0-104.965 46.651-104.965 104.965s46.651 104.965 104.965 104.965 104.965-46.651 104.965-104.965-46.651-104.965-104.965-104.965zM658.917 360.528c-32.656 0-58.314-25.658-58.314-58.314s25.658-58.314 58.314-58.314 58.314 25.658 58.314 58.314c0 32.656-25.658 58.314-58.314 58.314zM362.68 472.492c-58.314 0-104.965 46.651-104.965 104.965s46.651 104.965 104.965 104.965 104.965-46.651 104.965-104.965-46.651-104.965-104.965-104.965zM362.68 633.439c-32.656 0-58.314-25.658-58.314-58.314s25.658-58.314 58.314-58.314 58.314 25.658 58.314 58.314-25.658 58.314-58.314 58.314zM138.753 50.297c-58.314 0-104.965 46.651-104.965 104.965s46.651 104.965 104.965 104.965 104.965-46.651 104.965-104.965-46.651-104.965-104.965-104.965zM138.753 211.243c-32.656 0-58.314-25.658-58.314-58.314s27.991-55.982 58.314-55.982 58.314 25.658 58.314 58.314-25.658 55.982-58.314 55.982zM913.167 640.437c-58.314 0-104.965 46.651-104.965 104.965s46.651 104.965 104.965 104.965 104.965-46.651 104.965-104.965-48.984-104.965-104.965-104.965zM913.167 803.717c-32.656 0-58.314-25.658-58.314-58.314s25.658-58.314 58.314-58.314 58.314 25.658 58.314 58.314-27.991 58.314-58.314 58.314z" />
<glyph unicode="&#xe934;" glyph-name="ico-board" d="M949.527 194.328h-875.053c-13.964 0-23.273 9.309-23.273 23.273v565.526c0 13.964 9.309 23.273 23.273 23.273h875.053c13.964 0 23.273-9.309 23.273-23.273v-565.526c0-13.964-11.636-23.273-23.273-23.273zM97.747 240.873h828.507v518.981h-828.507v-518.981zM821.527-63.999c-6.982 0-13.964 2.327-18.618 9.309l-183.855 260.654c-6.982 11.636-4.655 25.6 4.655 32.582 11.636 6.982 25.6 4.655 32.582-4.655l183.855-260.654c6.982-11.636 4.655-25.6-4.655-32.582-4.655-2.327-9.309-4.655-13.964-4.655zM202.475-63.999c-4.655 0-9.309 2.327-13.964 4.655-11.636 6.982-13.964 20.945-4.655 32.582l181.527 260.654c6.982 11.636 20.945 13.964 32.582 4.655 11.636-6.982 13.964-20.945 4.655-32.582l-181.527-260.654c-4.655-6.982-11.636-9.309-18.618-9.309zM498.037 811.054c-13.964 0-23.273 9.309-23.273 23.273v102.4c0 13.964 9.309 23.273 23.273 23.273s23.273-9.309 23.273-23.273v-102.4c0-13.964-9.309-23.273-23.273-23.273zM314.183 373.527c-4.655 0-9.309 2.327-13.964 4.655-9.309 6.982-11.636 23.273-4.655 32.582l130.327 179.2c4.655 6.982 11.636 9.309 18.618 9.309s13.964-2.327 18.618-9.309l118.691-155.927 109.382 153.6c6.982 9.309 20.945 13.964 32.582 4.655 9.309-6.982 13.964-20.945 4.655-32.582l-128-179.2c-4.655-6.982-11.636-9.309-18.618-9.309s-13.964 2.327-18.618 9.309l-121.018 155.927-114.036-155.927c0-4.655-6.982-6.982-13.964-6.982z" />
<glyph unicode="&#xe935;" glyph-name="ico-time" d="M780.8-64h-540.8c-19.2 0-32 12.8-32 32v243.2c0 9.6 3.2 19.2 9.6 22.4l236.8 214.4-236.8 211.2c-6.4 6.4-9.6 16-9.6 25.6v243.2c0 19.2 12.8 32 32 32h540.8c19.2 0 32-12.8 32-32v-243.2c0-9.6-3.2-19.2-9.6-22.4l-233.6-214.4 236.8-211.2c6.4-6.4 9.6-16 9.6-22.4v-246.4c-3.2-19.2-16-32-35.2-32zM272 0h476.8v57.6h-476.8v-57.6zM272 121.6h476.8v76.8l-233.6 211.2c-3.2 0-6.4 0-9.6 0l-233.6-211.2v-76.8zM512 489.6c3.2 0 3.2 0 6.4 0l233.6 211.2v73.6h-480v-76.8l233.6-211.2c3.2 0 3.2 3.2 6.4 3.2zM272 838.4h476.8v57.6h-476.8v-57.6z" />
<glyph unicode="&#xe936;" glyph-name="ico-clock" d="M512-64c-281.6 0-512 230.4-512 512s230.4 512 512 512 512-230.4 512-512-230.4-512-512-512zM512 896c-246.4 0-448-201.6-448-448s201.6-448 448-448 448 201.6 448 448-201.6 448-448 448zM672 384h-192v288h64v-224h128z" />
<glyph unicode="&#xe937;" glyph-name="ico-text" d="M956.6-33.848h-35.473v50.846c-16.554 1.183-30.743 11.825-35.473 28.379l-33.109 126.523v600.684c0 14.189 9.459 26.014 21.284 30.743v35.473c0 22.467 18.919 41.385 41.385 41.385h47.298c22.467 0 41.385-18.919 41.385-41.385v-35.473c11.825-4.73 20.101-16.554 20.101-29.562v-608.961l-35.473-118.245c-3.547-16.554-16.554-28.379-33.109-29.562v-50.846zM891.566 160.074l27.196-105.238c0-1.183 1.183-2.365 2.365-2.365h30.743c0 0 1.183 0 1.183 1.183v2.365l30.743 104.056h-92.231zM888.019 195.547h100.508v431.594h-100.508v-431.594zM888.019 662.615h100.508v107.603h-100.508v-107.603zM909.303 805.691h59.122v33.109c0 3.547-2.365 5.912-5.912 5.912h-47.298c-3.547 0-5.912-2.365-5.912-5.912v-33.109zM759.132-26.753h-759.132v956.601h593.59l165.543-163.178v-793.424zM35.473 8.72h688.185v718.93h-151.354v166.725h-536.832v-885.655zM607.778 763.123h106.42l-106.42 104.056v-104.056zM613.691 369.367h-468.25v35.473h467.067v-35.473zM613.691 473.423h-468.25v35.473h467.067v-35.473zM613.691 584.573h-468.25v35.473h467.067v-35.473zM439.87 727.65h-294.43v35.473h294.43v-35.473z" />
<glyph unicode="&#xe938;" glyph-name="ico-arrow-left" d="M241.601 398.837c-27.153 27.153-27.153 71.175 0 98.327l442.472 442.471c27.152 27.153 71.175 27.153 98.326 0s27.152-71.175 0-98.327l-393.307-393.307 393.307-393.312c27.152-27.151 27.152-71.168 0-98.326-27.152-27.151-71.175-27.151-98.326 0l-442.472 442.473zM360.344 378.473h-69.579v139.055h69.579v-139.055z" />
<glyph unicode="&#xe939;" glyph-name="ico-arrow-right" d="M782.4 497.164c27.153-27.153 27.153-71.175 0-98.327l-442.471-442.473c-27.152-27.151-71.175-27.151-98.326 0-27.153 27.157-27.153 71.176 0 98.326l393.307 393.312-393.308 393.307c-27.153 27.153-27.153 71.175 0 98.327s71.175 27.153 98.327 0l442.471-442.471zM663.658 517.528h69.579v-139.055h-69.579v139.055z" />
<glyph unicode="&#xe93a;" glyph-name="ico-center" d="M512.335 610.602c-43.001 0-83.316-16.127-112.882-48.376-32.25-29.567-48.376-69.881-48.376-112.882 0-43.004 16.127-83.319 48.376-112.882 29.567-29.563 69.881-48.38 112.882-48.38 43.004 0 83.319 16.127 112.882 48.38 29.563 29.563 48.38 69.878 48.38 112.882 0 43.001-16.127 83.316-48.38 112.882-29.563 32.25-69.878 48.376-112.882 48.376zM568.777 392.902c-16.127-16.127-34.939-24.188-56.442-24.188s-40.315 8.062-56.442 24.188c-32.25 32.25-32.25 83.316 0 112.882 16.127 16.127 37.629 24.188 56.442 24.188 21.502 0 40.315-8.062 56.442-24.188 32.253-32.253 32.253-80.633 0-112.882zM891.298 108.010c174.7 193.512 174.7 489.155 0 682.668l40.315 40.315c16.127 16.126 16.127 40.315 0 56.441s-40.315 16.127-56.442 0l-40.315-40.315c-91.381 72.567-204.263 112.882-322.521 112.882-129.009 0-247.266-45.691-341.334-131.696l-59.129 59.129c-13.438 13.439-40.315 13.439-56.441 0s-16.127-43.003 0-59.129l59.129-59.129c-150.509-185.448-150.509-454.218 0-639.664l-40.315-40.315c-16.127-16.127-16.127-40.318 0-56.442 8.063-8.065 18.814-13.441 29.564-13.441s21.501 2.69 29.564 10.751l37.627 37.629c94.069-86.005 215.015-131.695 341.334-131.695 118.258 0 231.14 40.315 319.831 112.879l21.502-21.498c8.065-8.065 18.813-10.751 29.563-10.751s21.502 2.686 29.567 10.751c16.124 16.124 16.124 40.315 0 56.442l-21.502 24.188zM834.856 164.452l-56.442 56.442c112.882 129.006 112.882 322.521 0 454.216l56.442 59.129c142.446-163.949 142.446-405.837 0-569.785zM684.345 258.517c-8.062-8.062-10.751-16.124-10.751-26.874-48.376-34.942-104.817-53.756-158.573-53.756-69.878 0-137.071 26.877-190.823 77.943-107.506 107.507-107.506 279.517-2.687 384.336 53.754 53.754 120.946 77.943 190.824 77.943s137.071-26.877 190.826-77.943c102.131-102.13 104.817-263.392 10.751-368.21-10.751 0-21.502-5.376-29.567-13.441zM512.335 879.371c94.070 0 185.45-29.564 263.39-91.381l-56.442-56.442c-61.813 43.003-131.695 67.192-206.949 67.192-83.319 0-163.948-29.564-228.452-83.318l-56.441 56.441c80.63 72.567 182.761 107.507 284.893 107.507zM173.689 712.735l56.442-56.441c-88.694-123.632-91.381-290.27 0-411.214l-56.442-56.442c-120.945 153.197-120.945 368.211 0 524.096zM512.335 19.315c-102.131 0-204.263 34.939-284.893 107.507l56.441 56.442c64.503-53.752 142.447-83.319 228.452-83.319 75.254 0 145.135 24.191 206.949 67.192l56.442-56.442c-77.94-61.816-169.321-91.381-263.39-91.381z" />
<glyph unicode="&#xe93b;" glyph-name="ico-check" d="M512 4.595l-512 886.81h1024l-512.001-886.81z" />
<glyph unicode="&#xe93c;" glyph-name="ico-details" d="M481.086 229.679c-5.795 0-9.66-1.931-13.524-5.795s-5.798-9.662-5.798-13.524c0-5.798 1.933-9.662 5.798-13.527s9.66-5.795 13.524-5.795c3.864 0 9.66 1.931 13.524 5.795s5.795 9.662 5.795 13.527c0 5.795-1.931 9.66-5.795 13.524-1.931 3.864-7.729 5.795-13.524 5.795zM614.399 55.789h-48.301v67.623h316.86c44.437 0 79.214 36.71 79.214 79.214v328.453l15.458 15.458c3.864 3.864 5.795 9.66 5.795 13.524 0 5.798-1.931 9.662-5.795 13.524l-21.253 21.253c7.729 13.527 13.524 27.051 17.388 40.575h30.913c5.798 0 9.662 1.931 13.527 5.795s5.795 9.662 5.795 13.524v85.012c0 11.592-9.66 19.321-19.322 19.321h-30.913c-3.864 13.525-9.66 27.049-17.388 40.574l21.253 25.117c7.729 7.728 7.729 21.253 0 28.981l-59.894 59.894c-7.729 7.728-21.253 7.728-28.982 0l-21.253-21.253c-13.524 7.728-27.048 13.524-40.572 17.388v30.913c0 11.592-9.66 19.321-19.322 19.321h-85.012c-11.591 0-19.319-9.66-19.319-19.321v-30.913c-13.524-3.864-27.051-9.66-40.575-17.388l-21.253 21.253c-9.66 7.728-23.184 7.728-30.913 0l-59.894-59.894c-3.864-3.864-5.795-11.592-5.795-17.389h-463.699c-44.438 0-81.147-36.709-81.147-81.147v-552.575c0-44.437 36.709-79.214 79.215-79.214h316.861v-67.623h-48.301c-40.575 0-71.487-32.846-71.487-71.487v-28.979c0-11.593 9.66-19.322 19.319-19.322h367.094c11.593 0 19.322 9.66 19.322 19.322v27.048c3.864 40.572-28.982 73.418-67.623 73.418zM589.282 737.812c3.864 21.253 11.593 38.642 23.186 57.962 5.795 7.728 5.795 17.389-1.933 25.117l-19.319 19.321 32.844 32.845 19.322-19.321c7.729-7.728 17.388-7.728 25.117-1.932 17.388 11.593 36.708 19.321 56.030 23.185 9.66 1.932 15.455 9.66 15.455 19.321v27.049h46.37v-27.049c0-9.66 5.798-17.389 15.458-19.321 21.253-3.864 40.572-11.592 57.961-23.185 0 0 1.933 0 1.933-1.932 7.729-3.864 17.388-1.932 23.184 3.864l19.322 19.321 32.846-32.845-19.322-19.321c0 0-1.931-1.932-1.931-3.864-3.864-5.796-3.864-15.457 0-21.253 11.591-17.389 19.319-36.709 23.184-57.962 1.933-9.66 9.66-15.457 19.322-15.457h27.048v-46.371h-27.048c-9.662 0-17.388-5.795-19.322-15.455-3.864-21.253-11.593-38.641-23.184-57.963-5.798-7.729-3.864-17.388 1.931-25.117l19.322-19.319-32.846-32.846-19.322 19.322c-5.795 5.795-15.455 7.726-23.184 3.864 0 0-1.933 0-1.933-1.933-17.388-11.593-36.708-19.319-57.961-23.184-9.66-1.933-15.458-9.662-15.458-19.322v-27.048h-46.37v27.048c0 9.66-5.795 17.388-15.455 19.322-21.253 3.864-38.641 11.591-57.963 23.184-3.864 1.933-7.729 3.864-11.591 3.864-5.798 0-9.662-1.931-13.527-5.795l-19.319-19.322-32.846 32.846 19.322 19.319c5.795 5.798 7.726 17.388 1.931 25.117-11.593 17.388-19.319 36.71-23.184 56.030-1.933 9.662-9.662 15.458-19.322 15.458h-27.048v46.37h27.048c11.593 1.932 19.322 9.66 21.253 17.388zM79.214 163.985c-21.253 0-40.574 17.391-40.574 40.575v46.37h743.848c11.593 0 19.322 9.66 19.322 19.319 0 9.662-9.66 19.322-19.322 19.322h-741.916v56.030h152.634c11.592 0 19.321 9.66 19.321 19.322 0 11.591-9.66 19.319-19.321 19.319h-152.634v370.959c0 21.253 17.389 40.574 40.574 40.574h488.816c-5.798-11.592-9.662-21.253-13.527-32.845h-30.913c-5.795 0-9.66-1.932-13.524-5.796s-5.795-9.66-5.795-13.524v-85.012c0-11.591 9.66-19.319 19.319-19.319h30.913c3.864-13.524 9.662-27.051 17.388-40.575l-21.25-21.253c-7.729-7.726-7.729-21.253 0-28.979l59.894-59.894c7.726-7.729 21.253-7.729 28.979 0l21.253 21.253c13.524-7.729 27.051-11.593 40.575-17.391v-30.913c0-11.593 9.66-19.319 19.319-19.319h85.012c11.593 0 19.322 9.66 19.322 19.319v30.913c13.524 3.864 27.048 9.662 40.572 17.391l21.253-21.253c3.864-3.864 9.662-5.798 13.524-5.798 3.864 0 9.662 1.933 13.527 5.798l5.795 5.795v-287.881c0-21.253-17.388-40.572-40.575-40.572h-801.81v-1.933zM525.523 123.413v-67.623h-88.876v67.623h88.876zM645.312-23.424h-328.453v7.726c0 17.388 13.524 32.846 32.846 32.846h264.694c17.388 0 32.846-13.524 32.846-32.846v-7.726h-1.933zM763.169 575.513c67.621 0 123.653 56.030 123.653 123.653 1.931 69.554-54.099 125.585-123.653 125.585-67.623 0-123.653-56.030-123.653-123.654 0-69.554 56.030-125.584 123.653-125.584zM763.169 784.178c46.368 0 83.078-36.709 83.078-83.080 0-46.368-36.71-83.078-83.078-83.078-46.37 0-83.081 38.641-83.081 83.078 0 44.439 36.71 83.080 83.081 83.080zM483.020 600.638c1.931 5.795 0 9.66-1.933 15.455l-32.844 57.963c-5.798 9.66-17.391 13.524-27.051 7.729l-19.319-11.593c-5.798 3.864-13.527 7.729-19.322 11.593v21.253c0 11.591-9.66 19.32-19.319 19.32h-67.623c-11.593 0-19.322-9.66-19.322-19.32v-21.253c-7.729-3.864-13.524-7.729-19.319-11.593l-19.322 11.593c-3.864 1.931-9.66 3.864-15.457 1.931-5.796-1.931-9.66-3.864-11.592-9.66l-32.845-57.963c-5.796-9.66-1.932-21.253 7.728-27.048l19.321-11.593c0-3.864 0-7.726 0-11.591s0-7.729 0-11.593l-19.321-11.593c-15.457-5.795-17.389-17.388-11.592-27.048l32.845-57.963c1.932-3.864 7.728-7.729 11.592-9.66 5.796-1.931 9.66 0 15.457 1.931l19.321 11.593c5.795-3.864 13.524-7.729 19.319-11.593v-21.253c0-11.591 9.662-19.319 19.322-19.319h67.623c11.591 0 19.319 9.66 19.319 19.319v21.253c7.729 3.864 13.524 7.729 19.322 11.593l19.319-11.593c9.662-5.795 21.253-1.931 27.051 7.729l32.844 57.963c1.933 3.864 3.864 9.66 1.933 15.455-1.933 5.798-3.864 9.662-9.662 11.593l-19.319 11.593c0 3.864 0 7.729 0 11.593s0 7.726 0 11.591l19.319 11.593c9.662 1.933 11.593 5.795 13.527 11.593zM413.463 583.249c1.933-5.798 1.933-11.593 1.933-17.388 0-5.798 0-11.593-1.933-17.388-1.931-7.729 1.933-17.391 9.662-21.253l13.524-7.729-13.524-23.186-13.527 7.729c-7.726 3.864-17.388 3.864-23.184-1.931-9.66-7.729-19.322-13.524-30.913-17.388-7.729-1.933-13.524-9.662-13.524-19.322v-15.458h-27.051v15.458c0 7.729-5.795 15.458-13.524 19.322-11.593 3.864-21.253 9.66-30.913 17.388-5.798 5.795-15.458 5.795-23.186 1.931l-15.456-9.66-13.525 23.184 13.525 7.729c7.728 3.864 11.592 13.524 9.66 21.253-1.932 5.795-1.932 11.593-1.932 17.388 0 5.798 0 11.593 1.932 17.388 1.932 7.729-1.932 17.388-9.66 21.253l-13.525 9.66 13.525 23.186 13.525-7.729c7.729-3.864 17.388-3.864 23.184 1.933 9.662 7.726 19.322 13.524 30.915 17.388 7.726 1.931 13.524 9.66 13.524 19.319v15.458h27.048v-15.458c0-7.729 5.795-15.455 13.524-19.319 11.593-3.864 21.253-9.662 30.915-17.388 5.795-5.798 15.455-5.798 23.184-1.933l13.524 7.729 13.524-23.186-13.524-7.726c-5.795-3.864-9.66-11.593-7.729-21.253z" />
<glyph unicode="&#xe93d;" glyph-name="ico-gear" d="M511.999 563.199c65.165 0 116.365-51.2 116.365-116.365 0-65.162-51.2-116.362-116.365-116.362s-116.365 51.2-116.365 116.362c0 65.165 51.2 116.365 116.365 116.365zM511.999 633.016c-102.4 0-186.181-83.782-186.181-186.181s83.782-186.178 186.181-186.178c102.4 0 186.181 83.779 186.181 186.178s-83.782 186.181-186.181 186.181zM581.817 889.018v-76.8c51.2-9.309 97.747-30.254 139.638-58.182l53.526 53.527 97.744-97.746-53.526-53.527c27.926-41.89 48.874-88.437 58.182-139.637h76.8v-139.635h-76.8c-9.309-51.2-30.256-97.747-58.182-139.638l53.526-53.526-97.744-97.744-53.526 53.526c-41.891-27.926-88.438-48.874-139.638-58.182v-76.8h-139.635v76.8c-51.2 9.309-97.747 30.256-139.637 58.182l-53.527-53.526-97.746 97.744 53.527 53.526c-27.927 41.891-48.873 88.438-58.182 139.638h-76.8v139.635h76.8c9.309 51.2 30.254 97.747 58.182 139.637l-53.527 53.527 97.746 97.746 53.527-53.527c41.89 27.927 88.437 48.873 139.637 58.182v76.8h139.635zM581.817 958.836h-139.635c-39.565 0-69.818-30.255-69.818-69.818v-23.273c-20.947-6.982-39.565-13.964-58.183-23.273l-16.291 16.291c-13.964 13.964-32.582 20.945-48.873 20.945-18.618 0-34.909-6.982-48.873-20.945l-100.073-100.073c-27.927-27.927-27.927-72.145 0-97.745l16.291-16.291c-9.309-18.618-18.618-37.236-23.273-58.183h-23.273c-39.564 0-69.818-30.253-69.818-69.818v-139.635c0-39.565 30.255-69.818 69.818-69.818h23.273c6.982-20.947 13.964-39.565 23.273-58.182l-16.291-16.291c-27.927-27.926-27.927-72.147 0-97.747l97.746-97.744c13.964-13.965 32.582-20.944 48.873-20.944s34.909 6.979 48.873 20.944l16.291 16.291c18.619-9.309 37.237-18.618 58.181-23.274v-23.274c0-39.562 30.256-69.818 69.821-69.818h139.635c39.565 0 69.818 30.256 69.818 69.818v23.274c20.947 6.982 39.565 13.965 58.182 23.274l16.291-16.291c13.962-13.965 32.582-20.944 48.874-20.944 16.288 0 34.909 6.979 48.87 20.944l97.747 97.744c27.926 27.93 27.926 72.147 0 97.747l-11.638 16.291c9.309 18.618 18.621 37.235 23.274 58.182h23.274c39.562 0 69.818 30.253 69.818 69.818v139.635c0 39.565-30.256 69.818-69.818 69.818h-23.274c-6.982 20.947-13.965 39.565-23.274 58.183l16.291 16.291c27.93 27.927 27.93 72.145 0 97.745l-97.744 97.746c-13.965 13.964-32.582 20.946-48.874 20.946s-34.909-6.982-48.874-20.946l-18.618-13.964c-18.618 9.309-37.235 18.618-58.182 23.273v23.273c0 39.564-30.253 69.818-69.818 69.818z" />
<glyph unicode="&#xe93e;" glyph-name="ico-schedule" d="M1024 624.356c0 56.89-45.51 102.4-102.4 102.4s-102.4-45.511-102.4-102.4c0-11.377 2.276-22.756 6.826-31.857l-143.36-154.737c-15.93 9.1-34.133 15.926-54.613 15.926-25.030 0-47.787-9.1-65.99-25.030l-131.984 81.92c2.276 6.826 2.276 15.93 2.276 22.757 0 56.888-45.513 102.399-102.401 102.399-56.89 0-102.4-45.511-102.4-102.399 0-11.38 2.275-20.48 4.551-29.583l-163.84-179.77v562.064c0 18.205-15.929 34.133-34.133 34.133s-34.133-15.929-34.133-34.133v-876.091c0-18.204 15.929-34.133 34.133-34.133h887.467c18.204 0 34.133 15.93 34.133 34.133 0 2.276 0 2.276 0 4.554 0 2.274 0 4.55 0 6.826v507.447c38.683 13.654 68.267 50.063 68.267 95.574zM887.466 44.088h-227.557v211.627c38.687 13.654 68.267 52.34 68.267 95.573 0 11.38-2.274 20.48-4.55 31.86l145.637 154.737c6.826-4.55 13.654-6.826 20.48-9.104v-484.693h-2.276zM364.089 437.762c11.376 4.55 20.48 9.1 27.307 15.926l131.98-84.193c0-6.826-2.274-11.38-2.274-18.207 0-45.51 29.58-81.92 68.267-95.573v-211.627h-225.28v393.674zM625.776 385.422c18.207 0 34.133-15.926 34.133-34.133 0-18.204-15.926-34.133-34.133-34.133-18.204 0-34.133 15.93-34.133 34.133 0 18.207 15.93 34.133 34.133 34.133zM329.955 567.469c18.205 0 34.135-15.93 34.135-34.133 0-18.207-15.93-34.133-34.135-34.133s-34.133 15.926-34.133 34.133c0 18.204 15.928 34.133 34.133 34.133zM68.266 223.859l207.076 223.003c6.826-4.55 13.654-6.826 20.48-11.376v-393.67h-227.556v182.043zM921.6 590.223c-18.204 0-34.133 15.929-34.133 34.133s15.93 34.133 34.133 34.133c18.204 0 34.133-15.928 34.133-34.133s-15.93-34.133-34.133-34.133z" />
<glyph unicode="&#xe93f;" glyph-name="ico-tehnology" d="M931.405 480.68h-827.917c-17.43 0-32.681-15.251-32.681-32.68s15.251-32.68 32.681-32.68h827.917c17.429 0 32.68 15.251 32.68 32.68s-15.251 32.68-32.68 32.68zM844.255 349.955c-61.004 0-108.937-47.93-108.937-108.934 0-10.896 2.18-21.787 4.358-32.683l-167.76-87.147c-19.612 19.609-45.754 32.68-76.258 32.68-28.322 0-54.468-10.893-74.076-30.501l-150.332 84.968c4.357 10.896 6.537 21.787 6.537 32.683 0 61.004-47.932 108.934-108.936 108.934s-108.936-47.93-108.936-108.934c0-61.004 47.932-108.937 108.936-108.937 23.966 0 47.932 8.716 65.361 21.787l154.691-87.15c-2.18-6.535-2.18-13.071-2.18-21.787 0-61.004 47.93-108.934 108.934-108.934s108.937 47.93 108.937 108.934c0 6.538 0 13.074-2.18 19.612l176.476 91.505c17.429-13.071 41.396-23.967 65.362-23.967 61.004 0 108.937 47.933 108.937 108.937s-47.933 108.934-108.937 108.934zM168.849 197.445c-23.966 0-43.575 19.609-43.575 43.575s19.609 43.575 43.575 43.575c23.966 0 43.574-19.609 43.574-43.575s-19.609-43.575-43.574-43.575zM495.657 1.361c-23.964 0-43.575 19.609-43.575 43.572 0 4.358 0 8.716 2.18 13.074 2.18 2.18 4.358 4.358 6.538 8.713 2.18 2.18 2.18 6.538 4.358 8.716 8.713 8.716 19.609 15.251 32.68 15.251 23.967 0 43.575-19.609 43.575-43.575 0-23.964-21.787-45.751-45.754-45.751zM844.255 197.445c-23.967 0-43.575 19.609-43.575 43.575s19.609 43.575 43.575 43.575c23.967 0 43.575-19.609 43.575-43.575s-19.609-43.575-43.575-43.575zM168.849 546.043c61.004 0 108.936 47.93 108.936 108.934 0 10.894-2.179 21.787-6.537 32.681l150.332 84.97c19.609-19.609 45.754-30.503 74.076-30.503 30.504 0 56.646 13.072 76.258 32.681l167.76-87.149c-2.18-10.894-4.358-21.787-4.358-32.681 0-61.004 47.933-108.934 108.937-108.934s108.937 47.93 108.937 108.934c0 61.004-47.933 108.937-108.937 108.937-23.967 0-47.933-8.715-65.362-23.966l-176.476 91.507c2.18 6.537 2.18 13.072 2.18 19.609 0 61.004-47.933 108.936-108.937 108.936s-108.934-47.932-108.934-108.936c0-8.715 0-15.251 2.18-21.787l-154.691-87.149c-17.429 13.072-41.395 21.787-65.361 21.787-61.004 0-108.936-47.932-108.936-108.937s47.932-108.934 108.936-108.934zM844.255 698.552c23.967 0 43.575-19.609 43.575-43.575s-19.609-43.575-43.575-43.575c-23.967 0-43.575 19.609-43.575 43.575s19.609 43.575 43.575 43.575zM495.657 894.638c23.967 0 43.575-19.609 43.575-43.575s-19.609-43.574-43.575-43.574c-13.071 0-23.964 6.537-32.68 15.251 0 2.179-2.18 6.537-4.358 8.715s-4.358 6.537-6.538 8.715c0 2.179 0 6.536 0 10.894 0 23.966 19.612 43.575 43.575 43.575zM168.849 698.552c23.966 0 43.574-19.609 43.574-43.575s-19.609-43.575-43.574-43.575c-23.966 0-43.575 19.609-43.575 43.575s19.609 43.575 43.575 43.575z" />
<glyph unicode="&#xe940;" glyph-name="ico-cycle2" d="M150.179 599.663c56.968 131.785 180.879 226.557 323.691 240.208 101.86 9.713 196.366-20.215 270.924-75.082l-104.484-14.964c-20.476-2.888-37.543-20.476-36.493-41.217 1.053-21.527 18.903-37.541 39.38-37.541 1.839 0 3.676 0 5.513 0.525l183.767 26.253c21.526 3.15 36.49 23.102 33.342 44.629l-26.252 183.766c-3.151 21.527-23.104 36.491-44.63 33.34s-36.49-23.103-33.342-44.629l10.501-72.982c-91.093 60.381-204.243 90.571-324.74 74.294-196.892-26.515-357.819-178.253-397.985-373.046-12.601-60.644-12.601-119.451-2.888-175.102 5.513-31.243 44.367-42.793 66.681-20.476 9.188 9.186 12.864 22.314 10.764 35.176-11.551 67.472-6.563 140.451 26.253 216.846zM977.654 527.47c-5.513 31.24-44.368 42.79-66.681 20.476-9.189-9.189-12.865-22.317-10.767-35.179 10.239-60.906 7.090-126.538-17.85-195.054-51.979-143.075-181.667-247.823-333.142-261.998-103.696-9.714-199.255 21.526-274.6 78.231l83.222 12.075c19.424 2.889 35.701 18.64 35.966 38.33 0.525 24.94-21.529 43.577-44.893 40.166l-183.767-26.252c-21.527-3.151-36.491-23.104-33.34-44.63l26.253-183.767c2.625-19.69 19.427-33.867 38.854-33.867 1.837 0 3.675 0 5.513 0.525 21.527 3.151 36.49 23.104 33.34 44.63l-13.389 94.51c98.184-76.658 227.081-115.774 365.169-93.986 183.767 28.879 334.982 167.491 381.448 347.582 18.112 68.517 19.428 135.463 8.664 198.206z" />
<glyph unicode="&#xe941;" glyph-name="ico-levels" d="M36.571 752.762h66.073c16.091-56.077 67.535-97.524 128.975-97.524 61.442 0 112.883 41.205 128.976 97.524h626.834c20.235 0 36.569 16.335 36.569 36.571s-16.334 36.571-36.569 36.571h-626.834c-16.093 56.321-67.535 97.524-128.976 97.524s-112.885-41.448-128.975-97.524h-66.073c-20.235 0-36.571-16.335-36.571-36.571s16.335-36.571 36.571-36.571zM170.67 789.332c0 33.646 27.307 60.952 60.952 60.952s60.952-27.307 60.952-60.952c0-33.646-27.306-60.952-60.952-60.952s-60.952 27.307-60.952 60.952zM987.43 484.571h-346.454c-16.093 56.321-67.535 97.522-128.975 97.522s-112.885-41.446-128.978-97.522h-346.452c-20.235 0-36.571-16.336-36.571-36.572s16.335-36.569 36.571-36.569h346.452c16.093-56.077 67.538-97.526 128.978-97.526s112.882 41.205 128.975 97.526h346.454c20.235 0 36.569 16.334 36.569 36.569s-16.334 36.572-36.569 36.572zM572.953 448c0-33.646-27.305-60.952-60.95-60.952s-60.952 27.307-60.952 60.952c0 33.646 27.307 60.952 60.952 60.952s60.95-27.307 60.95-60.952zM987.43 143.239h-66.073c-16.093 56.321-67.538 97.526-128.975 97.526-61.44 0-112.885-41.449-128.978-97.526h-626.832c-20.235 0-36.571-16.334-36.571-36.572 0-20.235 16.335-36.569 36.571-36.569h626.832c16.093-56.077 67.538-97.526 128.978-97.526 61.437 0 112.882 41.205 128.975 97.526h66.073c20.235 0 36.569 16.334 36.569 36.569 0 20.238-16.334 36.572-36.569 36.572zM853.333 106.666c0-33.646-27.305-60.95-60.95-60.95-33.649 0-60.952 27.305-60.952 60.95s27.305 60.952 60.952 60.952c33.646 0 60.95-27.307 60.95-60.952z" />
</font>
</defs>
</svg>
