<svg width="188" height="1007" fill="none" xmlns="http://www.w3.org/2000/svg"><path d="M75 81.68v1.67h-7.2v-1.67h2.64V74.1l.03-.92-1.87 1.56a.82.82 0 01-.32.16.82.82 0 01-.54-.09.57.57 0 01-.17-.15l-.7-.96 3.97-3.38h1.83v11.37H75zm7.98-6.43c.41-.4.88-.73 1.4-.95a4.61 4.61 0 011.81-.33c.73 0 1.37.12 1.93.36a4.1 4.1 0 012.27 2.5c.2.58.3 1.2.3 1.88 0 .76-.12 1.43-.34 2.03a4.4 4.4 0 01-.9 1.49 3.86 3.86 0 01-2.93 1.25 6.8 6.8 0 01-.98-.07 4.7 4.7 0 01-1.85-.71c-.29-.2-.56-.44-.8-.73l.6-.75c.1-.13.24-.2.42-.2.09 0 .17.02.25.07a3.28 3.28 0 01.52.32 3.2 3.2 0 00.81.32c.17.04.38.06.62.06.62 0 1.13-.2 1.55-.61.41-.42.67-1.01.76-1.8h-3.91v-1.5h3.9a2.86 2.86 0 00-.77-1.64 2.14 2.14 0 00-1.58-.58 3.2 3.2 0 00-1.32.3l-.4.21a.68.68 0 01-.34.1.47.47 0 01-.27-.08 1.21 1.21 0 01-.2-.2l-.55-.74zm18.06.5h-3.3v7.6h-2.22v-7.6h-3.29v-1.64h8.8v1.65zm7.13 3.65c-.64.03-1.18.1-1.62.17a4.2 4.2 0 00-1.05.31c-.27.13-.45.27-.57.44a.96.96 0 00-.17.55c0 .4.11.67.34.84.24.17.54.25.91.25.46 0 .85-.08 1.18-.24.34-.17.66-.42.98-.76V79.4zm-5.1-4a5.48 5.48 0 013.84-1.46c.54 0 1.02.1 1.45.27a2.99 2.99 0 011.75 1.86c.15.44.23.92.23 1.44v5.84h-1c-.22 0-.38-.03-.5-.1-.1-.06-.2-.19-.26-.38l-.2-.67c-.24.21-.46.4-.69.56a4.2 4.2 0 01-1.46.64 4.16 4.16 0 01-1.98-.06c-.33-.11-.62-.27-.86-.48a2.12 2.12 0 01-.56-.78 2.78 2.78 0 01-.08-1.79c.08-.23.2-.45.38-.66.18-.21.41-.4.7-.6a4.5 4.5 0 011.03-.48c.41-.14.9-.25 1.44-.33.55-.1 1.17-.15 1.87-.17v-.54c0-.61-.13-1.07-.4-1.36-.26-.3-.64-.45-1.14-.45a2.76 2.76 0 00-1.52.41l-.5.28a.95.95 0 01-.48.12.66.66 0 01-.4-.11c-.1-.09-.2-.18-.26-.29l-.4-.71zm18.4 7.95h-2.21v-7.6h-3.6v7.6h-2.23V74.1h8.05v9.24z" fill="#5E78FF"/><path d="M77.23 113.56c0 .75-.12 1.44-.35 2.07a4.53 4.53 0 01-2.58 2.67c-.6.26-1.28.38-2.02.38-.73 0-1.4-.12-2.01-.37a4.55 4.55 0 01-2.57-2.68 5.82 5.82 0 01-.36-2.07c0-.75.12-1.44.36-2.06a4.51 4.51 0 012.57-2.69 5.2 5.2 0 012.01-.38c.74 0 1.41.13 2.02.38a4.5 4.5 0 012.58 2.69c.23.62.35 1.31.35 2.06zm-1.39 0a5.1 5.1 0 00-.25-1.66c-.17-.49-.4-.9-.72-1.24-.3-.34-.68-.6-1.12-.78a3.8 3.8 0 00-1.47-.27c-.53 0-1.02.09-1.46.27a3.15 3.15 0 00-1.84 2.02 5.1 5.1 0 00-.25 1.66c0 .62.08 1.17.25 1.66a3.19 3.19 0 001.84 2.02c.44.18.93.26 1.46.26.55 0 1.04-.08 1.47-.26a3.12 3.12 0 001.84-2.02 5.1 5.1 0 00.25-1.66zm11.1 4.07v3c0 .12-.03.22-.1.28a.34.34 0 01-.26.1h-.76v-2.44h-6.07v-7.09H81v6.15h3.4v-6.15h1.25v6.15h1.3zm6.9-3.38c0-.28-.05-.55-.13-.79a1.68 1.68 0 00-1.7-1.17c-.59 0-1.06.17-1.41.52-.35.35-.56.83-.65 1.44h3.88zm1 3.33c-.15.19-.34.35-.55.49a4.06 4.06 0 01-1.45.53c-.26.05-.52.07-.78.07-.49 0-.94-.08-1.36-.24a3.07 3.07 0 01-1.77-1.92 4.82 4.82 0 01-.03-3.01c.16-.43.38-.8.66-1.11.29-.32.63-.57 1.04-.75a3.39 3.39 0 012.57-.05c.36.14.67.34.93.61.27.27.48.6.63 1 .15.39.22.84.22 1.34 0 .2-.02.33-.06.4-.04.06-.12.1-.24.1h-4.74c.02.44.08.83.18 1.16.12.33.27.61.47.83.2.22.43.39.7.5a2.72 2.72 0 002.3-.18c.16-.08.3-.16.4-.23.12-.08.21-.11.3-.11.1 0 .17.04.23.11l.35.46zm8.55-6.1v7.1h-1.25v-3.32h-3.4v3.31h-1.26v-7.09h1.26v2.83h3.4v-2.83h1.25zm7.29.35a.8.8 0 01.25-.25c.11-.06.23-.1.35-.1h.97l-1.84 2.7c-.11.18-.23.32-.35.43-.12.11-.27.2-.45.25.23.06.42.16.57.3.15.12.3.28.41.48l1.86 2.93h-.86a.99.99 0 01-.52-.1 1 1 0 01-.32-.33l-1.38-2.2a1.08 1.08 0 00-.98-.55h-.77v3.2h-1.25v-7.1h1.25v3.06h.68a1 1 0 00.87-.48l1.5-2.24zm7.78 3.55c-.57.02-1.06.07-1.47.14-.4.07-.73.17-.99.28a1.4 1.4 0 00-.55.42.9.9 0 00-.17.53c0 .18.03.34.1.48.05.14.14.25.24.34.1.08.23.14.37.19a2.68 2.68 0 001.06 0 2.71 2.71 0 00.97-.5c.16-.13.3-.26.44-.4v-1.48zm-4.02-2.9c.39-.37.8-.66 1.26-.84.45-.19.96-.28 1.5-.28.4 0 .76.06 1.06.2a2.18 2.18 0 011.26 1.39c.1.33.16.7.16 1.09v4.53h-.56a.56.56 0 01-.28-.05c-.06-.04-.11-.12-.15-.24l-.14-.67c-.19.17-.37.33-.55.46a2.96 2.96 0 01-1.19.54 3.19 3.19 0 01-1.5-.04 1.69 1.69 0 01-1.06-.93 2.1 2.1 0 01-.17-.84c0-.28.08-.55.24-.8.15-.26.4-.5.75-.7.34-.2.8-.36 1.35-.48.55-.13 1.23-.21 2.04-.23v-.55c0-.55-.12-.97-.36-1.25-.23-.28-.58-.43-1.04-.43a2.22 2.22 0 00-1.32.38l-.39.26a.56.56 0 01-.32.11.37.37 0 01-.22-.06.63.63 0 01-.15-.17l-.22-.4zm-42.55 26.1h-1.25v-6.15h-3.4v6.14h-1.26v-7.09h5.91v7.1zm4.23-1.71c.23.3.48.52.75.65.27.12.58.19.91.19a1.8 1.8 0 001.53-.71 3.3 3.3 0 00.53-2.02c0-.46-.04-.85-.12-1.19-.08-.33-.2-.6-.35-.8a1.37 1.37 0 00-.57-.48c-.22-.1-.48-.14-.76-.14-.41 0-.77.09-1.08.28-.3.18-.58.45-.83.79v3.43zm-.06-4.29c.3-.37.65-.66 1.04-.89.39-.22.84-.33 1.34-.33.41 0 .78.08 1.12.23.33.16.6.39.84.7.24.3.41.68.54 1.13a5.84 5.84 0 01-.02 3.03c-.14.44-.34.83-.6 1.17a2.85 2.85 0 01-3.38.84c-.3-.15-.58-.36-.81-.62v3.13h-1.26v-9.49h.75c.18 0 .29.09.33.26l.11.84zm10.63-1.2c.52 0 .99.08 1.4.25a3 3 0 011.74 1.89c.16.45.24.95.24 1.5a4.5 4.5 0 01-.24 1.52 2.98 2.98 0 01-1.74 1.88 3.7 3.7 0 01-1.4.25c-.52 0-.99-.08-1.4-.25a2.98 2.98 0 01-1.07-.73c-.3-.32-.52-.7-.68-1.15a4.63 4.63 0 01-.23-1.51c0-.56.07-1.06.23-1.51a3 3 0 011.74-1.89c.42-.17.9-.26 1.41-.26zm0 6.32c.7 0 1.23-.23 1.57-.7.35-.47.52-1.13.52-1.97 0-.84-.17-1.5-.52-1.97-.34-.47-.87-.7-1.57-.7-.35 0-.66.05-.93.17-.26.13-.48.3-.65.53-.18.23-.3.5-.4.84-.08.34-.12.71-.12 1.13 0 .84.17 1.5.52 1.97s.88.7 1.58.7zm10.7-3.44c0-.3-.04-.56-.12-.8a1.69 1.69 0 00-1.69-1.17c-.6 0-1.07.17-1.42.52-.34.35-.56.83-.64 1.44h3.88zm1.01 3.32c-.15.19-.34.35-.55.49a4.06 4.06 0 01-1.45.53c-.26.05-.52.07-.78.07-.49 0-.94-.08-1.35-.24a3.07 3.07 0 01-1.77-1.92 4.82 4.82 0 01-.03-3.01c.15-.43.37-.8.66-1.11.28-.32.63-.57 1.04-.75a3.39 3.39 0 012.56-.05c.36.14.68.34.94.61.26.27.47.6.62 1 .15.39.23.84.23 1.34 0 .2-.03.33-.07.4-.04.06-.12.1-.24.1h-4.73c0 .44.07.83.18 1.16.1.33.26.61.46.83.2.22.43.39.7.5a2.72 2.72 0 002.3-.18c.17-.09.3-.16.4-.23.12-.08.22-.11.3-.11.1 0 .18.04.23.12l.35.45zm6.95-5.75a.8.8 0 01.26-.25c.1-.06.22-.1.34-.1h.98l-1.85 2.7c-.1.18-.22.32-.34.43-.13.11-.28.2-.45.25.22.06.41.16.56.3.16.12.3.28.42.48l1.86 2.93h-.87a.99.99 0 01-.52-.1 1 1 0 01-.31-.33l-1.38-2.2a1.08 1.08 0 00-.99-.55h-.76v3.2h-1.25v-7.1h1.25v3.06h.67a1 1 0 00.88-.48l1.5-2.24zm9.84.6h-2.73v6.14h-1.24v-6.13h-2.73v-.96h6.7v.96zm5.96 2.95c-.58.02-1.07.07-1.47.14-.4.07-.73.17-.99.28a1.4 1.4 0 00-.55.41.9.9 0 00-.17.54c0 .18.03.34.1.48.05.14.13.25.24.34.1.08.23.14.37.19a2.68 2.68 0 001.06 0 2.71 2.71 0 00.97-.5l.44-.4v-1.48zm-4.03-2.9a3.92 3.92 0 012.77-1.13c.4 0 .75.07 1.06.2a2.18 2.18 0 011.26 1.4c.1.33.16.7.16 1.09v4.53h-.56a.56.56 0 01-.28-.05c-.06-.04-.11-.12-.15-.24l-.14-.67-.55.46a2.96 2.96 0 01-1.19.54 3.2 3.2 0 01-1.5-.04 1.68 1.68 0 01-1.06-.93 2.1 2.1 0 01-.17-.84c0-.28.08-.55.23-.8.16-.26.4-.5.75-.7.35-.2.8-.36 1.36-.49.55-.13 1.23-.2 2.04-.22v-.55c0-.55-.12-.97-.36-1.25s-.58-.42-1.04-.42a2.22 2.22 0 00-1.32.37l-.39.26a.56.56 0 01-.32.11.37.37 0 01-.22-.06.63.63 0 01-.15-.17l-.23-.4z" fill="#414141"/><circle cx="94.14" cy="94.04" r="92.85" stroke="#5E78FF" stroke-width="2" stroke-dasharray="5.5 5.5"/><path d="M74.52 250c.24 0 .43.07.57.21.14.13.21.31.21.53v1.33h-8.92v-.73a1.25 1.25 0 01.4-.92l3.94-3.96c.33-.34.63-.66.88-.97.27-.3.49-.6.66-.9.18-.3.3-.6.4-.91.1-.31.14-.64.14-.98 0-.32-.04-.59-.13-.82a1.6 1.6 0 00-.39-.6 1.5 1.5 0 00-.6-.37 2.23 2.23 0 00-.77-.12 2.27 2.27 0 00-1.33.43 1.92 1.92 0 00-.71 1.06c-.1.28-.24.46-.4.55-.16.1-.4.11-.7.06l-1.17-.2c.1-.63.26-1.17.52-1.64a3.9 3.9 0 012.3-1.9 5.26 5.26 0 013.26.04 3.4 3.4 0 012.1 1.92 3.98 3.98 0 01.08 2.85c-.13.4-.32.8-.56 1.17a7.6 7.6 0 01-.82 1.08l-1 1.06-2.94 3a6.2 6.2 0 011.64-.27h3.34zm8.46-6.02c.41-.41.88-.73 1.4-.95a4.61 4.61 0 011.81-.33c.73 0 1.37.12 1.93.36a4.1 4.1 0 012.27 2.5c.2.57.3 1.2.3 1.88 0 .75-.12 1.43-.34 2.02a4.4 4.4 0 01-.9 1.5 3.86 3.86 0 01-2.93 1.25 6.8 6.8 0 01-.98-.07 4.7 4.7 0 01-1.85-.71c-.29-.2-.56-.44-.8-.73l.6-.75c.1-.13.23-.2.41-.2.1 0 .18.02.26.06a3.28 3.28 0 01.52.32c.1.08.22.13.35.19a3.1 3.1 0 001.08.2c.62 0 1.13-.2 1.55-.62.41-.4.67-1 .76-1.79h-3.91v-1.5h3.9a2.86 2.86 0 00-.77-1.64 2.14 2.14 0 00-1.58-.58 3.2 3.2 0 00-1.32.3l-.4.21a.68.68 0 01-.34.1.47.47 0 01-.28-.08 1.21 1.21 0 01-.18-.2l-.56-.74zm18.06.5h-3.3v7.6h-2.22v-7.6h-3.29v-1.64h8.8v1.65zm7.13 3.65c-.64.03-1.18.09-1.62.17a4.2 4.2 0 00-1.05.3c-.27.14-.46.28-.57.45a.96.96 0 00-.17.55c0 .39.11.67.34.84.23.16.54.25.91.25.46 0 .85-.08 1.18-.25.34-.16.66-.41.98-.75v-1.56zm-5.1-4a5.48 5.48 0 013.84-1.46c.54 0 1.02.09 1.45.27a2.99 2.99 0 011.75 1.86c.15.44.23.92.23 1.44v5.83h-1c-.22 0-.38-.03-.5-.09-.1-.06-.2-.2-.27-.38l-.2-.67c-.23.21-.45.4-.68.56a4.2 4.2 0 01-1.46.64 4.16 4.16 0 01-1.98-.06c-.33-.11-.62-.27-.86-.48a2.12 2.12 0 01-.56-.78 2.78 2.78 0 01-.08-1.79c.08-.23.2-.45.38-.66.18-.21.41-.41.7-.6a4.5 4.5 0 011.03-.48c.41-.14.9-.25 1.44-.34.54-.09 1.17-.14 1.87-.16v-.54c0-.62-.13-1.07-.4-1.37-.26-.3-.64-.45-1.14-.45a2.76 2.76 0 00-1.52.42l-.5.28a.95.95 0 01-.48.12.66.66 0 01-.4-.11c-.1-.09-.2-.18-.26-.3l-.4-.7zm18.4 7.94h-2.22v-7.58h-3.6v7.58h-2.22v-9.23h8.05v9.23z" fill="#5E78FF"/><path d="M33.54 287.3h-1.36v-8.96h-5.02v8.96h-1.35v-10.03h7.73v10.03zm4.41-1.7c.23.3.48.52.75.64.27.13.57.2.91.2a1.8 1.8 0 001.53-.71 3.3 3.3 0 00.53-2.02c0-.46-.04-.86-.13-1.19-.08-.33-.2-.6-.35-.81a1.37 1.37 0 00-.56-.47c-.23-.1-.48-.15-.77-.15-.4 0-.76.1-1.07.28-.3.19-.58.45-.84.8v3.42zm-.06-4.29c.3-.37.64-.67 1.03-.89.4-.22.84-.34 1.35-.34.4 0 .78.09 1.11.24.33.16.61.39.85.7.23.3.41.68.54 1.13a5.84 5.84 0 01-.02 3.02c-.14.45-.35.84-.61 1.17a2.85 2.85 0 01-3.37.84c-.3-.15-.58-.35-.82-.61v3.13H36.7v-9.49h.75c.17 0 .28.09.33.26l.1.84zm10.63-1.21c.52 0 .99.09 1.4.26a3 3 0 011.74 1.89c.16.45.24.95.24 1.5 0 .56-.08 1.07-.24 1.51a2.98 2.98 0 01-1.74 1.88 3.7 3.7 0 01-1.4.26c-.52 0-1-.08-1.41-.25a2.98 2.98 0 01-1.07-.74c-.3-.31-.52-.7-.68-1.15a4.63 4.63 0 01-.23-1.5c0-.56.08-1.06.23-1.51a3 3 0 011.74-1.89c.43-.17.9-.26 1.42-.26zm0 6.33c.7 0 1.22-.24 1.57-.7.34-.47.52-1.13.52-1.97 0-.84-.18-1.5-.52-1.97-.35-.48-.87-.71-1.57-.71-.35 0-.66.06-.93.18-.26.12-.48.3-.66.53-.17.22-.3.5-.39.84-.08.33-.13.71-.13 1.13 0 .84.18 1.5.52 1.97.35.46.88.7 1.6.7zm11.56-5.27h-2.72v6.14H56.1v-6.14H53.4v-.95h6.7v.95zm4.9-1.06c.51 0 .98.09 1.4.26a3 3 0 011.73 1.89c.16.45.24.95.24 1.5 0 .56-.08 1.07-.24 1.51a2.98 2.98 0 01-1.74 1.88 3.7 3.7 0 01-1.4.26c-.52 0-1-.08-1.41-.25a2.98 2.98 0 01-1.07-.74c-.29-.31-.52-.7-.67-1.15a4.63 4.63 0 01-.24-1.5c0-.56.08-1.06.24-1.51a3 3 0 011.74-1.89c.42-.17.89-.26 1.41-.26zm0 6.33c.7 0 1.21-.24 1.56-.7.35-.47.52-1.13.52-1.97 0-.84-.17-1.5-.52-1.97-.35-.48-.87-.71-1.57-.71-.35 0-.66.06-.93.18-.26.12-.48.3-.66.53-.17.22-.3.5-.39.84-.08.33-.12.71-.12 1.13 0 .84.17 1.5.51 1.97.35.46.88.7 1.6.7zm11.55-5.27h-2.72v6.14h-1.25v-6.14h-2.72v-.95h6.7v.95zm8.27-.95v7.1h-1.24v-4.82a3.52 3.52 0 01.05-.63 4.21 4.21 0 01-.26.48l-3.42 4.65c-.06.08-.12.15-.2.22a.37.37 0 01-.25.1h-.76v-7.1h1.25v4.82a3.38 3.38 0 01-.04.61 4.25 4.25 0 01.25-.46l3.42-4.65c.05-.08.12-.15.2-.21.08-.07.16-.1.26-.1h.74zm8.88 7.1h-1.25v-6.15h-3.4v6.14h-1.26v-7.09h5.91v7.1zm9.07-7.1v7.1h-1.25v-4.82a3.65 3.65 0 01.05-.63 4.21 4.21 0 01-.26.48l-3.42 4.65c-.05.08-.12.15-.2.22a.37.37 0 01-.25.1h-.76v-7.1h1.26v4.82a3.38 3.38 0 01-.05.61 4.25 4.25 0 01.25-.46l3.42-4.65c.05-.08.12-.15.2-.21.08-.07.16-.1.26-.1h.75zm4.22 5.38a2 2 0 00.75.66c.27.12.57.18.9.18a1.8 1.8 0 001.53-.7 3.3 3.3 0 00.54-2.02c0-.46-.05-.86-.13-1.19-.08-.33-.2-.6-.35-.81a1.37 1.37 0 00-.57-.47c-.22-.1-.48-.15-.76-.15-.4 0-.76.1-1.07.28-.3.19-.59.45-.84.8v3.42zm-.06-4.28c.3-.37.64-.67 1.03-.89.4-.22.84-.34 1.35-.34.4 0 .78.09 1.1.24.34.16.62.39.86.7.23.3.4.68.53 1.13a5.84 5.84 0 01-.02 3.02c-.14.45-.34.84-.6 1.17a2.85 2.85 0 01-2.25 1.06c-.44 0-.81-.07-1.12-.22-.31-.15-.58-.35-.82-.61v3.13h-1.25v-9.49h.75c.17 0 .28.09.32.26l.12.84zm10.63-1.21c.52 0 .98.09 1.4.26a3.01 3.01 0 011.73 1.89c.16.45.24.95.24 1.5 0 .56-.08 1.07-.23 1.51-.16.45-.38.84-.68 1.15-.3.32-.65.57-1.06.74a3.7 3.7 0 01-1.4.25c-.52 0-1-.08-1.42-.25a2.98 2.98 0 01-1.06-.74c-.3-.31-.52-.7-.68-1.15a4.63 4.63 0 01-.23-1.5c0-.56.08-1.06.23-1.51a3 3 0 011.74-1.89c.42-.17.9-.26 1.42-.26zm0 6.33c.7 0 1.22-.24 1.57-.7.34-.47.52-1.13.52-1.97 0-.84-.18-1.5-.52-1.97-.35-.48-.87-.71-1.57-.71-.36 0-.67.06-.93.18s-.48.3-.66.53c-.17.22-.3.5-.4.84-.08.33-.12.71-.12 1.13 0 .84.17 1.5.52 1.97.35.46.88.7 1.59.7zm8.68 0c.46 0 .83-.11 1.1-.32.27-.22.4-.52.4-.9 0-.17-.02-.32-.07-.46a.88.88 0 00-.25-.36c-.12-.1-.27-.18-.47-.24-.2-.05-.43-.08-.7-.08h-1.54v2.36h1.53zm-1.53-5.38v2.23h1.37c.2 0 .39-.03.56-.09a1.14 1.14 0 00.75-.62 1.14 1.14 0 00.04-.87.78.78 0 00-.24-.33 1.2 1.2 0 00-.44-.23c-.19-.06-.4-.09-.67-.09h-1.37zm1.4-.84c.44 0 .81.05 1.13.13.31.1.57.21.77.37.2.15.35.33.44.53.1.2.14.43.14.66a2 2 0 01-.06.48 1.6 1.6 0 01-.65.9c-.18.13-.4.22-.68.3.54.09.96.27 1.25.56.3.28.45.65.45 1.11a1.84 1.84 0 01-.78 1.54c-.24.17-.52.3-.84.39-.32.08-.67.12-1.04.12h-2.73v-7.09h2.6zm9.2 3.9c-.58.02-1.07.07-1.48.14-.4.07-.73.16-.99.28a1.4 1.4 0 00-.55.41.9.9 0 00-.17.54c0 .18.03.34.1.48.06.13.14.25.24.33.1.09.23.15.37.2a2.67 2.67 0 001.06 0 2.64 2.64 0 00.97-.5c.16-.13.3-.26.44-.41v-1.47zm-4.03-2.9c.39-.38.81-.66 1.26-.84.46-.2.96-.29 1.5-.29.4 0 .76.07 1.06.2a2.18 2.18 0 011.26 1.4c.1.33.16.69.16 1.09v4.53h-.55a.57.57 0 01-.28-.05c-.07-.05-.12-.13-.16-.24l-.14-.67c-.18.17-.37.32-.54.46a2.96 2.96 0 01-1.19.54 3.19 3.19 0 01-1.52-.04 1.7 1.7 0 01-1.06-.93c-.1-.24-.15-.52-.15-.84 0-.28.07-.55.23-.8.15-.27.4-.5.75-.7.34-.2.8-.36 1.35-.49s1.23-.2 2.04-.22v-.55c0-.55-.12-.97-.36-1.25-.23-.28-.58-.43-1.04-.43a2.22 2.22 0 00-1.31.38l-.4.26a.56.56 0 01-.32.11.37.37 0 01-.22-.06.65.65 0 01-.15-.17l-.22-.4zm14.05-1v7.1h-1.26v-3.33h-3.4v3.32h-1.25v-7.09h1.25v2.83h3.4v-2.83h1.25zm9.06 0v7.1h-1.25v-4.82a3.65 3.65 0 01.05-.63 4.21 4.21 0 01-.26.48l-3.42 4.65c-.05.08-.12.15-.2.22a.37.37 0 01-.25.1h-.75v-7.1h1.25v4.82a3.54 3.54 0 01-.05.61 4.25 4.25 0 01.25-.46l3.42-4.65c.06-.08.12-.15.2-.21.08-.07.17-.1.26-.1h.75zm7.72 2.77c0-.29-.05-.55-.13-.79a1.7 1.7 0 00-.93-1.03c-.22-.1-.47-.14-.76-.14-.6 0-1.07.17-1.42.52-.34.35-.56.83-.64 1.44h3.88zm1 3.33c-.15.19-.34.35-.55.49a4.07 4.07 0 01-1.45.53 4.4 4.4 0 01-.78.07c-.49 0-.94-.08-1.35-.25a3.06 3.06 0 01-1.78-1.91 4.82 4.82 0 01-.02-3.01c.15-.43.37-.8.66-1.12.28-.31.63-.56 1.04-.74a3.38 3.38 0 012.56-.05c.36.14.68.34.94.61.26.27.47.6.62 1 .15.39.23.84.23 1.34 0 .2-.03.33-.07.4-.04.06-.12.09-.24.09h-4.74c.02.45.08.84.19 1.17.1.33.26.6.46.83.2.22.43.39.7.5a2.72 2.72 0 002.3-.18c.16-.09.3-.16.4-.23.12-.08.22-.12.3-.12.1 0 .18.04.23.12l.35.46zm-94.15 13.9v7.1H67.7v-4.82a3.48 3.48 0 01.04-.63 4.21 4.21 0 01-.25.48l-3.43 4.65c-.05.08-.11.15-.2.22a.37.37 0 01-.25.1h-.75v-7.1h1.25v4.82a3.42 3.42 0 01-.05.61 4.25 4.25 0 01.25-.46l3.43-4.65c.05-.08.11-.15.2-.21.07-.07.16-.1.25-.1h.75zm12.44 6.18v-5.2h-2.25c-.04.73-.11 1.37-.2 1.93-.08.56-.18 1.06-.29 1.48-.1.42-.23.78-.36 1.07-.13.3-.27.54-.42.72h3.52zm2.5-.03v3c0 .12-.03.21-.1.28a.34.34 0 01-.26.1h-.76v-2.44h-5.97v2.09a.4.4 0 01-.08.24c-.05.08-.14.12-.26.12h-.78v-3.36h.23c.16 0 .32-.03.48-.08.16-.06.32-.16.47-.32.15-.16.29-.38.42-.66.14-.29.26-.66.36-1.12.11-.45.2-1 .28-1.66.08-.66.15-1.44.2-2.34h4.48v6.15h1.3zm8.35-6.15v7.1h-1.25v-4.82a3.52 3.52 0 01.05-.63 4.21 4.21 0 01-.26.48l-3.42 4.65c-.05.08-.12.15-.2.22a.37.37 0 01-.25.1h-.75v-7.1h1.25v4.82a3.42 3.42 0 01-.05.61 4.25 4.25 0 01.25-.46l3.43-4.65c.05-.08.11-.15.2-.21.07-.07.16-.1.25-.1h.75zm2.52.73c.27-.25.59-.46.97-.61a3.7 3.7 0 011.38-.23c.43 0 .8.05 1.13.16.33.1.6.24.82.41.22.18.4.37.5.6a1.44 1.44 0 01.1 1.13c-.03.15-.1.3-.2.44a1.87 1.87 0 01-1.02.68c.46.14.81.36 1.07.65.26.3.39.67.39 1.1 0 .33-.07.63-.22.9-.15.25-.35.48-.6.66-.26.19-.55.32-.89.42a3.66 3.66 0 01-1.74.09 3.56 3.56 0 01-1.32-.54c-.2-.14-.37-.3-.53-.5l.35-.45a.27.27 0 01.24-.12c.08 0 .17.04.27.12.1.07.21.15.35.23.14.1.31.18.51.25s.46.1.75.1c.26 0 .49-.03.69-.09.2-.06.38-.15.52-.26a1.15 1.15 0 00.43-.9 1 1 0 00-.44-.85c-.29-.22-.73-.32-1.32-.32h-.8v-.83h.8c.25 0 .48-.03.69-.08.2-.05.38-.13.52-.22a.88.88 0 00.06-1.5c-.13-.1-.28-.17-.48-.22a2.4 2.4 0 00-.67-.09 2.63 2.63 0 00-1.52.45.41.41 0 01-.22.08.3.3 0 01-.15-.03.46.46 0 01-.13-.15l-.29-.48zm11.58 3.17c-.57.02-1.06.07-1.47.14-.4.07-.73.16-.98.28a1.4 1.4 0 00-.56.41.9.9 0 00-.17.54c0 .18.03.34.1.48.06.13.14.25.24.33.1.09.23.15.37.2a2.68 2.68 0 001.06 0 2.71 2.71 0 00.97-.5c.16-.13.3-.26.44-.41v-1.47zm-4.02-2.9c.39-.38.81-.66 1.26-.84.46-.2.96-.29 1.5-.29.4 0 .76.07 1.07.2a2.18 2.18 0 011.25 1.4c.1.33.16.69.16 1.09v4.53H107a.56.56 0 01-.28-.05c-.07-.05-.12-.13-.16-.24l-.14-.67c-.18.17-.37.32-.54.46a2.96 2.96 0 01-1.19.54 3.19 3.19 0 01-1.52-.04 1.69 1.69 0 01-1.06-.93 2.1 2.1 0 01-.15-.84c0-.28.07-.55.23-.8.15-.27.4-.5.75-.7.34-.2.8-.36 1.35-.49s1.23-.2 2.04-.22v-.55c0-.55-.12-.97-.36-1.25-.23-.28-.58-.43-1.04-.43a2.22 2.22 0 00-1.31.38l-.4.26a.56.56 0 01-.32.11.37.37 0 01-.22-.06.63.63 0 01-.15-.17l-.22-.4zm14.22-1v7.1h-1.25v-4.82a3.65 3.65 0 01.05-.63 4.21 4.21 0 01-.25.48l-3.43 4.65c-.05.08-.12.15-.2.22a.37.37 0 01-.25.1h-.75v-7.1h1.25v4.82a3.54 3.54 0 01-.05.61 4.25 4.25 0 01.25-.46l3.43-4.65c.05-.08.11-.15.2-.21.07-.07.16-.1.25-.1h.75zm-2.96-1.71c.2 0 .35-.02.48-.07a.69.69 0 00.32-.21c.08-.1.14-.23.18-.38.04-.16.06-.34.06-.57h.72c.1 0 .16.04.2.12a.5.5 0 01.08.26c0 .23-.05.44-.14.63-.1.19-.23.35-.4.48-.18.13-.4.23-.65.3-.25.07-.53.1-.85.1-.32 0-.6-.03-.85-.1a1.95 1.95 0 01-.65-.3 1.39 1.39 0 01-.54-1.11c0-.1.03-.18.07-.26a.22.22 0 01.2-.12h.73c0 .23.02.41.06.57.04.15.1.28.17.38.09.1.2.17.33.21.13.05.29.07.48.07zm11.84 1.71v7.1h-1.25v-3.33h-3.4v3.32h-1.26v-7.09h1.25v2.83h3.4v-2.83h1.26z" fill="#414141"/><circle cx="94.14" cy="273.49" r="92.85" stroke="#5E78FF" stroke-width="2" stroke-dasharray="5.5 5.5"/><circle cx="94.14" cy="449.5" r="92.5" stroke="#5E78FF" stroke-width="2" stroke-dasharray="5.5 5.5"/><path d="M66.66 413.44c.1-.63.27-1.17.53-1.64a3.9 3.9 0 012.3-1.89 5.26 5.26 0 013.23.02c.49.17.9.4 1.24.7a3.15 3.15 0 011.06 2.38c0 .43-.04.8-.14 1.11a2.37 2.37 0 01-1.04 1.41c-.26.17-.55.3-.88.41a3.4 3.4 0 011.75 1.13c.38.5.58 1.13.58 1.9a3.74 3.74 0 01-2.75 3.74 5.82 5.82 0 01-3.41.04 3.71 3.71 0 01-2.2-1.75 7.29 7.29 0 01-.64-1.48l.98-.4c.25-.11.5-.14.72-.08.22.04.39.16.5.36l.34.62a2.37 2.37 0 001.1.94c.25.09.54.14.87.14a2.15 2.15 0 002.12-1.32c.1-.25.14-.5.14-.74 0-.32-.03-.6-.1-.85-.06-.26-.2-.48-.41-.66a2.25 2.25 0 00-.9-.42c-.4-.1-.92-.15-1.58-.15v-1.59c.54 0 1-.05 1.35-.15.36-.1.65-.23.86-.4.22-.17.37-.38.45-.62.08-.24.13-.5.13-.79 0-.61-.18-1.08-.52-1.4-.34-.31-.8-.47-1.37-.47a2.19 2.19 0 00-1.33.43 1.92 1.92 0 00-.7 1.06c-.11.28-.25.46-.41.55-.17.1-.4.11-.7.06l-1.17-.2zm16.32 1.3c.41-.42.88-.74 1.4-.96a4.61 4.61 0 011.81-.33c.73 0 1.37.12 1.93.36a4.1 4.1 0 012.27 2.5c.2.57.3 1.2.3 1.88 0 .76-.12 1.43-.34 2.02a4.4 4.4 0 01-.9 1.5 3.86 3.86 0 01-2.93 1.25 6.8 6.8 0 01-.98-.07 4.7 4.7 0 01-1.85-.71c-.29-.2-.56-.44-.8-.73l.6-.75c.1-.13.24-.2.42-.2.09 0 .17.02.25.07a3.28 3.28 0 01.52.32 3.2 3.2 0 00.81.32c.17.04.38.06.62.06.62 0 1.13-.2 1.55-.61.41-.42.67-1.02.76-1.8h-3.91v-1.5h3.9a2.86 2.86 0 00-.77-1.64 2.14 2.14 0 00-1.58-.58 3.2 3.2 0 00-1.32.3l-.4.21a.68.68 0 01-.34.1.47.47 0 01-.27-.08 1.21 1.21 0 01-.2-.2l-.55-.74zm18.06.5h-3.3v7.58h-2.22v-7.58h-3.29v-1.65h8.8v1.65zm7.13 3.64c-.64.03-1.18.09-1.62.17a4.2 4.2 0 00-1.05.31c-.27.13-.46.27-.57.44a.96.96 0 00-.17.55c0 .39.11.67.34.84.23.17.54.25.91.25.46 0 .85-.08 1.18-.24.34-.17.66-.42.98-.76v-1.56zm-5.1-4a5.48 5.48 0 013.84-1.46c.54 0 1.02.09 1.45.27a2.99 2.99 0 011.75 1.86c.15.44.23.92.23 1.44v5.83h-1c-.22 0-.38-.02-.5-.08-.1-.07-.2-.2-.27-.4l-.2-.66c-.23.21-.45.4-.68.56a4.2 4.2 0 01-1.46.64 4.16 4.16 0 01-1.98-.06c-.33-.11-.62-.27-.86-.48a2.12 2.12 0 01-.56-.78 2.78 2.78 0 01-.08-1.79c.08-.23.2-.45.38-.66.18-.21.41-.41.7-.6a4.5 4.5 0 011.03-.48c.41-.14.9-.25 1.44-.33.54-.1 1.17-.15 1.87-.17V417c0-.62-.13-1.07-.4-1.37-.26-.3-.64-.44-1.14-.44a2.76 2.76 0 00-1.52.4l-.5.29a.95.95 0 01-.48.12.66.66 0 01-.4-.11c-.1-.09-.2-.18-.26-.3l-.4-.7zm18.4 7.94h-2.22v-7.58h-3.6v7.58h-2.22v-9.23h8.05v9.24z" fill="#5E78FF"/><path d="M62.55 462.6c.39 0 .72-.05 1-.14.28-.08.5-.2.69-.37.18-.16.31-.35.4-.57.08-.23.12-.47.12-.74 0-.51-.18-.92-.55-1.22-.37-.3-.92-.46-1.66-.46h-2.17v3.5h2.17zm-2.17-7.89v3.43h1.8c.37 0 .7-.04.99-.13.28-.08.51-.2.7-.35.18-.15.32-.33.4-.54.1-.21.14-.45.14-.7 0-.59-.18-1.02-.53-1.3-.36-.27-.9-.4-1.65-.4h-1.85zm1.85-1.07c.61 0 1.14.06 1.59.19.44.12.81.29 1.1.51.28.23.5.5.63.83a2.8 2.8 0 01.09 1.8c-.08.23-.2.44-.35.63-.15.2-.35.38-.58.54-.24.15-.51.28-.83.38a3 3 0 011.66.79c.37.38.56.88.56 1.5 0 .43-.08.82-.24 1.17-.15.35-.38.65-.69.9-.3.25-.66.45-1.1.6-.44.13-.94.2-1.5.2h-3.54v-10.04h3.2zm11.2 5.72c0-.3-.05-.56-.13-.8a1.68 1.68 0 00-1.7-1.17c-.59 0-1.06.17-1.41.52-.35.35-.56.83-.65 1.44h3.88zm1 3.32c-.15.19-.34.35-.55.49a4.06 4.06 0 01-1.45.53c-.26.05-.52.07-.78.07-.49 0-.94-.08-1.36-.24a3.07 3.07 0 01-1.77-1.92 4.82 4.82 0 01-.03-3.01c.16-.43.38-.8.66-1.11.29-.32.63-.57 1.04-.75a3.39 3.39 0 012.57-.05c.36.14.67.34.93.61.27.27.48.6.63 1 .15.39.22.84.22 1.34 0 .2-.02.33-.06.4-.04.06-.12.1-.24.1H69.5c.02.44.08.83.18 1.16.12.33.27.61.47.83.2.22.43.39.7.5a2.72 2.72 0 002.3-.18c.16-.09.3-.16.4-.23.12-.08.21-.11.3-.11.1 0 .17.04.23.12l.35.45zm3.9-.71c.22.3.47.52.74.65.27.12.58.19.91.19a1.8 1.8 0 001.53-.71 3.3 3.3 0 00.53-2.02c0-.46-.04-.85-.12-1.19-.08-.33-.2-.6-.35-.8a1.37 1.37 0 00-.57-.48c-.22-.1-.48-.15-.76-.15-.41 0-.77.1-1.07.29-.3.18-.59.45-.84.79v3.43zm-.07-4.29c.3-.37.65-.66 1.04-.89.39-.22.84-.33 1.34-.33.41 0 .78.08 1.12.24.33.15.6.38.84.69.24.3.42.68.54 1.13a5.84 5.84 0 01-.02 3.03c-.14.44-.34.83-.6 1.16a2.85 2.85 0 01-3.38.85c-.3-.15-.58-.36-.81-.62v3.13h-1.26v-9.49h.75c.18 0 .29.09.33.26l.11.84zm12.58.16a.54.54 0 01-.11.12.25.25 0 01-.15.04.43.43 0 01-.24-.08 3.33 3.33 0 00-.77-.38c-.17-.06-.4-.1-.65-.1-.35 0-.66.07-.93.2-.26.12-.49.3-.67.53-.18.23-.31.51-.4.84a4.31 4.31 0 000 2.26c.1.34.24.62.42.84.18.23.4.4.65.52.26.12.55.18.86.18.3 0 .56-.04.75-.1.2-.08.36-.16.49-.25l.32-.24a.41.41 0 01.26-.11c.1 0 .18.04.23.12l.35.45c-.15.2-.32.36-.52.49a3.28 3.28 0 01-1.34.54c-.25.04-.5.06-.76.06a2.84 2.84 0 01-2.23-.95c-.28-.31-.5-.7-.65-1.15a4.66 4.66 0 01-.24-1.55c0-.52.07-1.01.21-1.46.15-.45.37-.83.65-1.15.28-.33.63-.58 1.04-.77.42-.18.9-.27 1.43-.27.5 0 .94.08 1.32.25.38.15.72.38 1.01.67l-.33.45zm8.65-.3h-2.73v6.13h-1.24v-6.13h-2.73v-.96h6.7v.96zm6.49-.6a.8.8 0 01.26-.26c.1-.06.22-.1.34-.1h.97l-1.84 2.7c-.1.18-.23.32-.35.43-.12.11-.27.2-.44.25.22.06.4.16.56.3.16.12.3.28.41.48l1.87 2.93h-.87a.99.99 0 01-.52-.1 1 1 0 01-.31-.33l-1.38-2.2a1.08 1.08 0 00-.99-.55h-.76v3.2h-1.26v-7.1h1.26v3.06h.67a1 1 0 00.87-.48l1.5-2.24zm7.78 3.54c-.57.02-1.06.07-1.47.14-.4.07-.73.17-.98.28a1.4 1.4 0 00-.56.42.9.9 0 00-.17.53c0 .18.03.34.1.48.06.14.14.25.24.34.1.08.23.14.37.19a2.68 2.68 0 001.06 0 2.71 2.71 0 00.97-.5c.16-.13.3-.26.44-.4v-1.48zm-4.02-2.9a3.92 3.92 0 012.77-1.13c.4 0 .75.07 1.06.2a2.18 2.18 0 011.25 1.4c.1.33.16.7.16 1.09v4.53h-.55a.56.56 0 01-.28-.05c-.07-.04-.12-.12-.16-.24l-.14-.67c-.18.17-.36.33-.54.46a2.96 2.96 0 01-1.19.54 3.19 3.19 0 01-1.51-.04 1.69 1.69 0 01-1.06-.93 2.1 2.1 0 01-.16-.84c0-.28.08-.54.23-.8.15-.26.4-.5.75-.7.34-.2.8-.36 1.35-.48.55-.13 1.24-.21 2.04-.23v-.55c0-.55-.12-.97-.35-1.25-.24-.28-.59-.43-1.05-.43a2.22 2.22 0 00-1.31.38l-.4.26a.56.56 0 01-.32.11.37.37 0 01-.21-.06.63.63 0 01-.16-.17l-.22-.4zm18.8-1v7.1h-1.24v-4.82a3.65 3.65 0 01.05-.63 4.21 4.21 0 01-.26.48l-3.42 4.66-.2.21a.37.37 0 01-.25.1h-.76v-7.09h1.25v4.82a3.54 3.54 0 01-.04.6 4.25 4.25 0 01.25-.46l3.42-4.65c.05-.08.12-.15.2-.21.07-.07.16-.1.25-.1h.75zM31 483.68h-1.25v-6.14h-3.4v6.13H25.1v-7.09H31v7.1zm4.24-1.71c.23.3.48.52.75.65.27.12.57.19.9.19a1.8 1.8 0 001.53-.71 3.3 3.3 0 00.53-2.02c0-.46-.04-.85-.12-1.19-.08-.33-.2-.6-.35-.8a1.37 1.37 0 00-.57-.48c-.22-.1-.48-.15-.76-.15-.4 0-.76.1-1.07.29-.3.18-.59.45-.84.79v3.43zm-.07-4.29c.3-.37.65-.66 1.04-.89.4-.22.84-.33 1.34-.33.42 0 .79.08 1.12.24.33.15.61.38.84.69.24.3.42.68.54 1.13a5.84 5.84 0 01-.02 3.03c-.14.44-.34.83-.6 1.16a2.85 2.85 0 01-3.37.85c-.31-.15-.58-.36-.82-.62v3.13h-1.26v-9.49h.75c.18 0 .29.09.33.26l.11.84zm10.64-1.2c.52 0 .98.08 1.4.25a3 3 0 011.73 1.89c.16.45.24.95.24 1.5 0 .56-.08 1.07-.24 1.52a2.98 2.98 0 01-1.74 1.88 3.7 3.7 0 01-1.4.25c-.52 0-.99-.08-1.4-.25a2.98 2.98 0 01-1.07-.73c-.3-.32-.52-.7-.68-1.15a4.63 4.63 0 01-.23-1.51c0-.56.08-1.06.23-1.51a3 3 0 011.74-1.89c.42-.17.9-.26 1.42-.26zm0 6.32c.7 0 1.22-.23 1.57-.7.34-.47.51-1.13.51-1.97 0-.84-.17-1.5-.51-1.97-.35-.47-.87-.7-1.57-.7-.36 0-.67.05-.93.17-.27.13-.48.3-.66.53-.17.23-.3.5-.4.84-.08.34-.12.71-.12 1.13 0 .84.17 1.5.52 1.97s.88.7 1.59.7zm10.55-5.26h-3.35v6.13h-1.25v-7.09h4.6v.96zm3.44 4.43c.23.3.48.52.75.65.27.12.57.19.9.19a1.8 1.8 0 001.53-.71 3.3 3.3 0 00.53-2.02c0-.46-.04-.85-.12-1.19-.08-.33-.2-.6-.35-.8a1.37 1.37 0 00-.57-.48c-.22-.1-.48-.15-.76-.15-.4 0-.76.1-1.07.29-.3.18-.59.45-.84.79v3.43zm-.07-4.29c.3-.37.65-.66 1.04-.89.4-.22.84-.33 1.34-.33.42 0 .79.08 1.12.24.33.15.61.38.84.69.24.3.42.68.54 1.13a5.84 5.84 0 01-.02 3.03c-.14.44-.34.83-.6 1.16a2.85 2.85 0 01-3.37.85c-.31-.15-.58-.36-.82-.62v3.13h-1.26v-9.49h.75c.18 0 .3.09.33.26l.11.84zm11.5 2.8c-.58.02-1.07.07-1.48.14-.4.07-.73.17-.99.28a1.4 1.4 0 00-.55.42.9.9 0 00-.17.53c0 .18.03.34.1.48.06.14.14.25.24.34.1.08.23.14.37.19a2.68 2.68 0 001.06 0 2.68 2.68 0 00.97-.5c.16-.13.3-.26.44-.4v-1.48zm-4.03-2.9c.39-.37.81-.66 1.26-.84.46-.19.96-.28 1.5-.28.4 0 .76.06 1.07.2a2.18 2.18 0 011.25 1.39c.1.33.16.7.16 1.09v4.53h-.55a.56.56 0 01-.28-.05c-.07-.04-.12-.12-.16-.24l-.14-.67c-.18.17-.37.33-.54.46a2.96 2.96 0 01-1.19.54 3.2 3.2 0 01-1.52-.04 1.69 1.69 0 01-1.06-.93c-.1-.24-.15-.51-.15-.84 0-.28.07-.54.23-.8.15-.26.4-.5.75-.7.34-.2.8-.36 1.35-.48.55-.13 1.23-.21 2.04-.23v-.55c0-.55-.12-.97-.36-1.25-.23-.28-.58-.43-1.04-.43a2.22 2.22 0 00-1.31.38l-.4.26a.56.56 0 01-.32.11.37.37 0 01-.22-.06.64.64 0 01-.15-.17l-.22-.4zm16.04-1.02v7.11h-1.13v-4.7a5 5 0 01.1-.9l-2.47 4.32a.47.47 0 01-.15.17.36.36 0 01-.2.06h-.15a.4.4 0 01-.21-.06.47.47 0 01-.15-.17l-2.5-4.33a8.67 8.67 0 01.08.9v4.71h-1.12v-7.1h1c.09 0 .17.01.26.06.08.03.15.1.21.21l2.22 3.7c.1.21.2.44.28.68.08-.25.18-.48.28-.68l2.17-3.7a.48.48 0 01.22-.22.64.64 0 01.26-.06h1zm10.87 0v7.11h-1.13v-4.7a5 5 0 01.1-.9l-2.47 4.32a.47.47 0 01-.14.17.36.36 0 01-.22.06h-.14a.4.4 0 01-.21-.06.47.47 0 01-.15-.17l-2.5-4.33a8.67 8.67 0 01.09.9v4.71H86.2v-7.1h1c.09 0 .18.01.26.06.08.03.16.1.22.21l2.2 3.7c.12.21.21.44.3.68.07-.25.17-.48.28-.68l2.17-3.7a.48.48 0 01.21-.22.64.64 0 01.26-.06h1zm9.05.02v7.1h-1.24v-4.82a3.65 3.65 0 01.05-.63 4.21 4.21 0 01-.26.48l-3.43 4.66c-.05.07-.11.14-.2.21a.37.37 0 01-.24.1h-.76v-7.09h1.25v4.82a3.42 3.42 0 01-.05.6 4.25 4.25 0 01.26-.46l3.42-4.65c.05-.08.12-.15.2-.21.07-.07.16-.1.25-.1h.75zm4.23 5.39a2 2 0 00.75.65c.27.12.57.19.9.19a1.8 1.8 0 001.53-.71 3.3 3.3 0 00.53-2.02c0-.46-.04-.85-.12-1.19-.08-.33-.2-.6-.35-.8a1.37 1.37 0 00-.57-.48c-.22-.1-.48-.15-.76-.15-.4 0-.77.1-1.07.29-.3.18-.59.45-.84.79v3.43zm-.07-4.29c.3-.37.65-.66 1.04-.89.4-.22.84-.33 1.34-.33.41 0 .78.08 1.12.24.33.15.6.38.84.69.24.3.42.68.54 1.13a5.84 5.84 0 01-.02 3.03c-.14.44-.34.83-.6 1.16a2.85 2.85 0 01-2.25 1.06c-.44 0-.81-.07-1.13-.21-.3-.15-.58-.36-.81-.62v3.13h-1.26v-9.49h.75c.18 0 .29.09.33.26l.11.84zm10.64-1.2c.51 0 .98.08 1.4.25a3.01 3.01 0 011.73 1.89c.16.45.24.95.24 1.5 0 .56-.08 1.07-.24 1.52a2.99 2.99 0 01-1.74 1.88 3.7 3.7 0 01-1.4.25c-.52 0-.99-.08-1.4-.25a2.98 2.98 0 01-1.07-.73c-.3-.32-.52-.7-.68-1.15a4.63 4.63 0 01-.23-1.51c0-.56.08-1.06.23-1.51a3 3 0 011.74-1.89c.42-.17.9-.26 1.42-.26zm0 6.32c.7 0 1.22-.23 1.56-.7.35-.47.52-1.13.52-1.97 0-.84-.17-1.5-.52-1.97-.34-.47-.86-.7-1.56-.7-.36 0-.67.05-.93.17-.27.13-.49.3-.66.53-.18.23-.3.5-.4.84-.08.34-.12.71-.12 1.13 0 .84.17 1.5.52 1.97s.88.7 1.59.7zm8.67 0c.47 0 .84-.1 1.1-.32.28-.22.42-.52.42-.9 0-.17-.03-.32-.08-.45a.88.88 0 00-.25-.37 1.2 1.2 0 00-.47-.24c-.2-.05-.43-.08-.71-.08h-1.53v2.36h1.52zm-1.52-5.38v2.23h1.36c.2 0 .4-.03.57-.08.18-.06.33-.15.45-.25.13-.1.23-.23.3-.38a1.14 1.14 0 00.03-.87.77.77 0 00-.23-.32 1.2 1.2 0 00-.45-.24c-.18-.06-.4-.09-.67-.09h-1.36zm1.4-.84c.44 0 .81.05 1.12.14.32.08.57.2.77.36.2.15.35.33.44.53.1.2.15.43.15.66a2 2 0 01-.07.48 1.58 1.58 0 01-.65.9c-.18.13-.4.22-.67.3.54.09.96.28 1.25.56.3.28.44.65.44 1.11 0 .35-.07.65-.2.9-.14.26-.33.47-.57.64-.24.18-.52.3-.84.39-.33.08-.67.12-1.04.12h-2.73v-7.09h2.6zm9.19 3.9c-.58.02-1.07.07-1.47.14-.4.07-.73.17-.99.28a1.4 1.4 0 00-.55.42.9.9 0 00-.17.53c0 .18.03.34.1.48.05.14.13.25.24.34.1.08.23.14.37.19a2.67 2.67 0 001.06 0 2.64 2.64 0 00.97-.5l.44-.4v-1.48zm-4.03-2.9a3.93 3.93 0 012.77-1.13c.4 0 .75.07 1.06.2a2.18 2.18 0 011.25 1.4c.11.33.17.7.17 1.09v4.53h-.56a.57.57 0 01-.28-.05c-.06-.04-.11-.12-.15-.24l-.14-.67c-.19.17-.37.33-.55.46a2.96 2.96 0 01-1.19.54 3.19 3.19 0 01-1.5-.04 1.7 1.7 0 01-1.06-.93c-.12-.24-.17-.51-.17-.84 0-.28.08-.54.23-.8.16-.26.4-.5.75-.7.35-.2.8-.36 1.35-.48.56-.13 1.24-.21 2.05-.23v-.55c0-.55-.12-.97-.36-1.25s-.58-.43-1.04-.43a2.22 2.22 0 00-1.32.38l-.39.26a.56.56 0 01-.32.11.37.37 0 01-.22-.06.65.65 0 01-.15-.17l-.23-.4zm14.05-1v7.1h-1.25v-3.32h-3.4v3.31h-1.26v-7.09h1.26v2.83h3.4v-2.83h1.25zm9.07 0v7.1h-1.25v-4.82a3.65 3.65 0 01.05-.63 4.21 4.21 0 01-.26.48l-3.42 4.66c-.05.07-.12.14-.2.21a.37.37 0 01-.25.1h-.76v-7.09h1.26v4.82a3.54 3.54 0 01-.05.6 4.25 4.25 0 01.25-.46l3.42-4.65c.05-.08.12-.15.2-.21.08-.07.16-.1.26-.1h.75zm7.71 2.78c0-.3-.04-.56-.12-.8a1.68 1.68 0 00-1.7-1.17c-.59 0-1.06.17-1.41.52-.35.35-.56.83-.65 1.44h3.88zm1.01 3.32c-.15.19-.34.35-.55.49a4.07 4.07 0 01-1.45.53c-.26.05-.52.07-.78.07-.49 0-.94-.08-1.36-.24a3.06 3.06 0 01-1.77-1.92 4.82 4.82 0 01-.03-3.01c.16-.43.38-.8.66-1.11.29-.32.63-.57 1.05-.75a3.39 3.39 0 012.56-.05c.36.14.67.34.94.61.26.27.47.6.62 1 .15.39.22.84.22 1.34 0 .2-.02.33-.06.4-.04.06-.12.1-.24.1h-4.74c.02.44.08.83.18 1.16.12.33.27.61.47.83.2.22.43.39.7.5a2.72 2.72 0 002.3-.18c.16-.09.3-.16.4-.23.12-.08.21-.11.3-.11.1 0 .17.04.23.12l.35.45z" fill="#414141"/><path d="M72.1 602.18v-4.25c0-.4.03-.85.08-1.33l-4.04 5.58h3.96zm3.57 0v1.3c0 .11-.04.22-.11.3-.08.09-.2.13-.34.13h-1.19v3.18H72.1v-3.18h-5.49a.62.62 0 01-.4-.13.62.62 0 01-.21-.35l-.24-1.13 6.17-8.23h2.1v8.11h1.64zm7.3-3.18c.42-.42.89-.73 1.4-.96a4.61 4.61 0 011.82-.33c.73 0 1.37.12 1.93.36a4.1 4.1 0 012.27 2.5c.2.58.3 1.2.3 1.88 0 .76-.12 1.43-.34 2.03a4.4 4.4 0 01-.9 1.5 3.86 3.86 0 01-2.93 1.24 6.8 6.8 0 01-.98-.07 4.7 4.7 0 01-1.85-.71c-.29-.2-.56-.44-.8-.73l.6-.75c.1-.13.24-.2.42-.2.09 0 .17.03.25.07a3.28 3.28 0 01.52.32 3.2 3.2 0 00.81.32c.17.04.38.06.62.06.62 0 1.13-.2 1.55-.61.41-.41.67-1.01.76-1.8h-3.91v-1.5h3.9a2.86 2.86 0 00-.77-1.63 2.14 2.14 0 00-1.58-.59 3.2 3.2 0 00-1.32.3l-.4.22a.68.68 0 01-.34.09.47.47 0 01-.27-.08 1.21 1.21 0 01-.2-.2l-.55-.73zm18.07.5h-3.3v7.59h-2.22v-7.59h-3.29v-1.64h8.8v1.64zm7.13 3.65c-.64.03-1.18.08-1.62.17a4.2 4.2 0 00-1.05.3c-.27.13-.46.28-.57.45a.96.96 0 00-.17.54c0 .4.11.67.34.84.23.17.54.25.91.25.46 0 .85-.08 1.18-.24.34-.17.66-.42.98-.76v-1.55zm-5.1-4a5.48 5.48 0 013.84-1.47c.54 0 1.02.1 1.45.27a2.99 2.99 0 011.75 1.87c.15.43.23.91.23 1.44v5.83h-1c-.22 0-.38-.03-.5-.1-.1-.06-.2-.19-.27-.38l-.2-.66c-.23.2-.45.4-.68.55a4.2 4.2 0 01-1.46.64 4.16 4.16 0 01-1.98-.06c-.33-.1-.62-.27-.86-.48a2.12 2.12 0 01-.56-.78 2.78 2.78 0 01-.08-1.78c.08-.24.2-.46.38-.67.18-.2.41-.4.7-.6a4.5 4.5 0 011.03-.48c.41-.14.9-.25 1.44-.33.54-.1 1.17-.14 1.87-.16v-.54c0-.62-.13-1.08-.4-1.37-.26-.3-.64-.45-1.14-.45a2.76 2.76 0 00-1.52.41l-.5.28a.95.95 0 01-.48.13.66.66 0 01-.4-.12c-.1-.08-.2-.18-.26-.29l-.4-.7zm18.4 7.94h-2.22v-7.59h-3.6v7.59h-2.22v-9.24h8.05v9.24z" fill="#5E78FF"/><path d="M61.44 638.17h-2.78v7.62H57.5v-7.62h-2.79v-.98h6.73v.98zm4.63 3.92c0-.25-.04-.48-.1-.68a1.44 1.44 0 00-1.45-1.01c-.52 0-.92.15-1.22.45-.3.3-.48.7-.55 1.24h3.32zm.86 2.84c-.13.17-.29.3-.47.43a3.02 3.02 0 01-1.24.45c-.23.04-.45.06-.67.06a2.64 2.64 0 01-2.68-1.85 4.14 4.14 0 01-.02-2.58c.13-.37.32-.69.56-.96.24-.27.54-.48.9-.63a2.9 2.9 0 012.19-.05 2.36 2.36 0 011.34 1.38c.13.33.2.72.2 1.15-.01.17-.03.28-.06.34-.04.05-.1.08-.2.08H62.7c.01.38.06.72.16 1 .1.29.22.52.4.72.16.18.36.33.6.42.22.1.48.14.77.14a2.33 2.33 0 001.2-.3c.14-.07.25-.13.34-.2.1-.05.18-.09.25-.09.09 0 .16.04.2.1l.3.4zm6.64-4.14a.48.48 0 01-.1.1.22.22 0 01-.13.04.37.37 0 01-.2-.07 2.74 2.74 0 00-.65-.34 1.76 1.76 0 00-.57-.07c-.3 0-.56.05-.79.16-.23.1-.42.25-.58.46-.15.2-.26.44-.34.72-.08.29-.12.6-.12.96s.04.7.13.98c.08.28.2.52.35.72.16.2.34.34.56.44.22.1.47.15.74.15.26 0 .47-.03.64-.09.17-.06.3-.13.41-.2l.28-.21c.08-.06.15-.1.22-.1.09 0 .16.04.2.1l.3.4c-.13.16-.28.3-.44.41a2.86 2.86 0 01-1.16.47c-.2.03-.42.05-.64.05a2.44 2.44 0 01-1.9-.82c-.25-.26-.44-.6-.58-.98a4 4 0 01-.2-1.33c0-.45.06-.87.19-1.25.12-.38.3-.71.55-.99.24-.28.54-.5.9-.65.35-.16.76-.24 1.22-.24a2.66 2.66 0 012 .8l-.29.38zm7.55-.26H78.8v5.26h-1.07v-5.26H75.4v-.82h5.73v.81zm7.24-.82v6.08h-1.07v-4.13a2.99 2.99 0 01.04-.53 3.87 3.87 0 01-.22.4l-2.93 4-.17.18a.32.32 0 01-.22.08h-.65v-6.07h1.08v4.12a2.93 2.93 0 01-.04.52 3.38 3.38 0 01.21-.4l2.94-3.98c.04-.07.1-.13.16-.18a.33.33 0 01.23-.1h.64zm3.76 4.61c.2.27.4.45.64.56.23.1.5.16.78.16.57 0 1-.2 1.3-.6.31-.4.47-.98.47-1.73 0-.4-.04-.74-.11-1.02a1.93 1.93 0 00-.3-.7c-.13-.18-.3-.32-.49-.4-.2-.08-.4-.13-.65-.13-.35 0-.66.08-.92.25-.26.15-.5.38-.72.67v2.94zm-.05-3.67c.25-.31.55-.57.88-.76.34-.2.72-.29 1.16-.29.35 0 .67.07.95.2.28.14.53.34.73.6.2.26.35.58.46.97a5 5 0 01-.02 2.6c-.12.38-.3.71-.52 1a2.45 2.45 0 01-1.93.9c-.37 0-.7-.06-.96-.19a2.3 2.3 0 01-.7-.52v2.69h-1.07v-8.14h.64c.15 0 .24.07.28.22l.1.72zm9.25-1.04c.45 0 .85.08 1.2.23a2.57 2.57 0 011.49 1.62c.14.38.2.8.2 1.28 0 .49-.06.92-.2 1.3a2.57 2.57 0 01-1.49 1.61c-.35.15-.75.22-1.2.22-.45 0-.85-.07-1.21-.22a2.57 2.57 0 01-1.5-1.6c-.13-.4-.2-.82-.2-1.3 0-.48.07-.91.2-1.3.14-.38.34-.71.59-.99.25-.27.55-.48.91-.63.36-.14.76-.22 1.21-.22zm0 5.43c.6 0 1.05-.2 1.35-.6.3-.4.44-.97.44-1.69s-.15-1.29-.44-1.7c-.3-.4-.75-.6-1.35-.6-.3 0-.57.05-.8.16-.22.1-.4.25-.56.45-.15.2-.26.44-.34.73-.07.28-.1.6-.1.96 0 .72.14 1.28.44 1.69.3.4.75.6 1.36.6zm7.58 0c.4 0 .72-.1.95-.28a.94.94 0 00.35-.77c0-.14-.02-.27-.07-.39a.76.76 0 00-.21-.3c-.1-.1-.24-.16-.4-.21a2.19 2.19 0 00-.61-.08h-1.31v2.03h1.3zm-1.3-4.61v1.9h1.17c.17 0 .33-.02.48-.07.15-.05.28-.12.4-.2.1-.1.18-.2.24-.33a.98.98 0 00.03-.74.66.66 0 00-.2-.28c-.1-.09-.22-.16-.38-.2a1.84 1.84 0 00-.58-.08h-1.17zm1.2-.72c.37 0 .7.04.96.11.27.08.49.18.66.31.17.13.3.28.38.46.08.18.12.37.12.56 0 .14-.02.27-.06.42a1.37 1.37 0 01-.56.77c-.14.1-.34.19-.57.25.46.08.82.24 1.08.49.25.24.37.55.37.95 0 .3-.06.55-.18.77-.11.22-.28.4-.48.55-.2.15-.45.26-.72.33-.28.07-.58.1-.9.1h-2.33v-6.07h2.23zm8.02 3.34c-.5.02-.92.06-1.26.12-.35.06-.63.14-.85.24-.22.1-.37.22-.47.36a.77.77 0 00-.15.45c0 .16.03.3.08.41.05.12.12.22.21.3.1.07.2.12.32.16a2.3 2.3 0 00.91 0 2.32 2.32 0 00.83-.43c.13-.1.26-.22.38-.35v-1.26zm-3.45-2.48c.33-.33.7-.57 1.08-.73.39-.16.82-.24 1.3-.24.33 0 .63.06.9.17a1.86 1.86 0 011.07 1.2c.1.28.14.59.14.93v3.89h-.47a.49.49 0 01-.24-.05c-.06-.04-.1-.1-.14-.2l-.12-.58a6.5 6.5 0 01-.46.4 2.58 2.58 0 01-1.02.46 2.77 2.77 0 01-1.3-.03 1.45 1.45 0 01-.91-.8 1.8 1.8 0 01-.13-.72c0-.24.06-.47.2-.7.13-.22.34-.41.64-.59.3-.17.68-.3 1.15-.41a8.66 8.66 0 011.76-.2v-.47c0-.47-.1-.83-.31-1.07-.2-.24-.5-.37-.9-.37a1.9 1.9 0 00-1.12.33l-.34.22c-.09.07-.18.1-.27.1a.32.32 0 01-.19-.06.57.57 0 01-.13-.14l-.2-.34zm12.18-.86v6.08h-1.07v-2.85h-2.92v2.85h-1.07v-6.08h1.07v2.42h2.92v-2.42h1.07zm6.77 2.38c0-.25-.04-.48-.11-.68a1.44 1.44 0 00-1.45-1.01c-.5 0-.91.15-1.22.45-.3.3-.47.7-.55 1.24h3.33zm.86 2.84c-.13.17-.29.3-.47.43a3.02 3.02 0 01-1.25.45c-.22.04-.44.06-.66.06-.42 0-.8-.07-1.17-.2a2.64 2.64 0 01-1.51-1.65 4.14 4.14 0 01-.03-2.58c.13-.37.32-.69.57-.96.24-.27.54-.48.9-.63a2.9 2.9 0 012.19-.05 2.36 2.36 0 011.34 1.38c.12.33.19.72.19 1.15 0 .17-.02.28-.06.34-.03.05-.1.08-.2.08h-4.06c0 .38.06.72.15 1 .1.29.23.52.4.72.17.18.37.33.6.42.23.1.5.14.78.14a2.33 2.33 0 001.2-.3c.13-.07.25-.13.34-.2.1-.05.18-.09.25-.09.08 0 .15.04.2.1l.3.4z" fill="#414141"/><circle cx="94.14" cy="625.48" r="92.5" stroke="#5E78FF" stroke-width="2" stroke-dasharray="5.5 5.5"/><path d="M69.35 783.31a7.31 7.31 0 011.59-.17c.68 0 1.29.1 1.8.3a3.54 3.54 0 012.11 2.12 4.72 4.72 0 01-.1 3.45 4.27 4.27 0 01-2.53 2.4 5.41 5.41 0 01-3.09.2 6.14 6.14 0 01-1.93-.81 6.1 6.1 0 01-.73-.59l.69-.94c.14-.2.33-.3.57-.3.15 0 .3.04.45.14l.54.31a3.02 3.02 0 001.7.46c.4 0 .76-.06 1.08-.2.3-.13.57-.31.77-.55.21-.24.37-.52.47-.84.1-.33.16-.69.16-1.07 0-.71-.2-1.26-.62-1.66-.4-.4-1.01-.6-1.82-.6a5.7 5.7 0 00-1.9.34l-1.38-.4 1.08-6.31h6.42v.94c0 .32-.1.58-.3.77-.2.2-.53.3-1 .3H69.8l-.45 2.71zm13.63.2c.41-.41.88-.73 1.4-.96a4.61 4.61 0 011.81-.33c.73 0 1.37.12 1.93.36a4.1 4.1 0 012.27 2.5c.2.58.3 1.2.3 1.88 0 .76-.12 1.44-.34 2.03a4.4 4.4 0 01-.9 1.5 3.86 3.86 0 01-2.93 1.25 6.8 6.8 0 01-.98-.08 4.7 4.7 0 01-1.85-.71c-.29-.2-.56-.44-.8-.73l.6-.74c.1-.14.23-.2.42-.2.09 0 .17.02.25.06a3.28 3.28 0 01.52.32c.1.07.22.13.35.19a3.1 3.1 0 001.08.2c.62 0 1.13-.21 1.55-.62.41-.41.67-1.01.76-1.79h-3.91v-1.51h3.9a2.86 2.86 0 00-.77-1.63 2.14 2.14 0 00-1.58-.59 3.2 3.2 0 00-1.32.3l-.4.22a.68.68 0 01-.34.09.47.47 0 01-.28-.07 1.21 1.21 0 01-.18-.2l-.56-.74zm18.06.5h-3.3v7.59h-2.22v-7.59h-3.29v-1.64h8.8V784zm7.13 3.65c-.64.03-1.18.09-1.62.17a4.2 4.2 0 00-1.05.3c-.27.13-.46.28-.57.45a.96.96 0 00-.17.54c0 .4.11.67.34.84.23.17.54.25.91.25.46 0 .85-.08 1.18-.24.34-.17.66-.42.98-.75v-1.56zm-5.1-4a5.48 5.48 0 013.84-1.46c.54 0 1.02.08 1.45.26a2.99 2.99 0 011.75 1.87c.15.44.23.92.23 1.44v5.83h-1c-.22 0-.38-.03-.5-.09-.1-.07-.2-.2-.27-.39l-.2-.66c-.23.2-.45.4-.68.55a4.2 4.2 0 01-1.46.64 4.16 4.16 0 01-1.98-.06c-.33-.1-.62-.27-.86-.48a2.12 2.12 0 01-.56-.78 2.78 2.78 0 01-.08-1.78c.08-.23.2-.46.38-.67.18-.2.41-.4.7-.6a4.5 4.5 0 011.03-.48c.41-.13.9-.25 1.44-.33.54-.09 1.17-.14 1.87-.16v-.54c0-.62-.13-1.08-.4-1.37-.26-.3-.64-.45-1.14-.45a2.76 2.76 0 00-1.52.41l-.5.28a.95.95 0 01-.48.13.66.66 0 01-.4-.12c-.1-.08-.2-.18-.26-.29l-.4-.7zm18.4 7.94h-2.22v-7.59h-3.6v7.59h-2.22v-9.23h8.05v9.23z" fill="#5E78FF"/><path d="M78.45 827c.36 0 .67-.05.95-.15.27-.1.5-.22.7-.4.18-.17.33-.37.42-.61.1-.24.14-.5.14-.79 0-.59-.18-1.05-.55-1.39-.36-.33-.92-.5-1.66-.5h-1.5V827h1.5zm0-4.83c.59 0 1.1.07 1.53.2.44.14.8.33 1.09.58.28.26.5.56.63.91.15.36.22.76.22 1.2 0 .43-.08.82-.23 1.18-.15.36-.37.67-.67.93a3.1 3.1 0 01-1.08.61 4.7 4.7 0 01-1.5.22h-1.49v3.48H75.7v-9.31h2.75zm9.85 5.3c0-.27-.04-.51-.12-.73a1.56 1.56 0 00-1.57-1.1c-.55 0-.99.17-1.32.5-.32.31-.52.76-.6 1.33h3.6zm.93 3.09c-.14.17-.31.32-.51.45s-.41.23-.64.32a4.04 4.04 0 01-1.42.25c-.46 0-.88-.08-1.27-.23a2.86 2.86 0 01-1.64-1.78 4.48 4.48 0 01-.03-2.8c.14-.4.35-.74.61-1.03.27-.3.59-.53.97-.7a3.14 3.14 0 012.38-.04 2.56 2.56 0 011.45 1.5c.14.35.2.77.2 1.24 0 .18-.01.3-.05.36s-.11.1-.22.1h-4.4c.01.4.07.77.17 1.08.1.3.24.56.43.77.18.2.4.36.65.46.25.1.53.15.84.15a2.52 2.52 0 001.3-.31l.37-.22c.1-.07.2-.1.27-.1.1 0 .17.03.22.1l.32.43zm8.3.92h-1.16v-5.67H94.3c-.05.83-.13 1.56-.23 2.17-.1.6-.23 1.12-.38 1.55-.14.43-.3.77-.48 1.04s-.37.47-.57.62c-.2.15-.4.25-.61.3-.2.05-.42.08-.63.08-.36 0-.55-.06-.55-.18v-.73h.34c.15 0 .3-.03.45-.08.15-.05.3-.15.44-.3.15-.15.29-.35.42-.62.14-.27.26-.61.37-1.04.11-.43.2-.95.28-1.55.09-.61.15-1.34.2-2.17h4.2v6.58zm8.48-6.58v6.58h-1.16v-4.47a3.1 3.1 0 01.05-.58 4.17 4.17 0 01-.24.44l-3.18 4.33c-.05.07-.1.13-.18.2a.35.35 0 01-.23.09h-.7v-6.59h1.16v4.48a3.02 3.02 0 01-.05.56 3.69 3.69 0 01.23-.43l3.18-4.32c.05-.07.11-.13.19-.2.07-.06.15-.1.24-.1h.7zm2.41.67c.25-.23.55-.42.9-.56.36-.14.78-.22 1.28-.22.4 0 .75.05 1.06.15.3.1.55.23.76.39.2.16.36.34.46.55a1.34 1.34 0 01.1 1.05c-.04.14-.1.28-.2.4a1.71 1.71 0 01-.94.64c.42.13.75.33 1 .6.23.28.36.62.36 1.03 0 .3-.07.58-.21.82-.14.25-.33.45-.56.63-.24.17-.5.3-.82.39a3.4 3.4 0 01-1.62.07 3.37 3.37 0 01-1.23-.5 2.28 2.28 0 01-.48-.45l.32-.42a.25.25 0 01.22-.11.4.4 0 01.25.1l.33.22c.13.08.29.16.47.23.2.06.43.1.7.1.24 0 .45-.03.64-.09s.35-.14.48-.25a1.06 1.06 0 00.4-.83.93.93 0 00-.4-.79c-.28-.2-.69-.3-1.24-.3h-.75v-.77h.75c.24 0 .46-.02.65-.07s.35-.12.48-.2a.81.81 0 00.32-1.09.8.8 0 00-.26-.3 1.4 1.4 0 00-.45-.22 2.23 2.23 0 00-.62-.07 2.44 2.44 0 00-1.42.41.38.38 0 01-.2.08.3.3 0 01-.14-.03.45.45 0 01-.12-.14l-.27-.45z" fill="#414141"/><circle cx="94.14" cy="804.61" r="92.5" stroke="#5E78FF" stroke-width="2" stroke-dasharray="5.5 5.5"/><path d="M94.14 927.16v76.5" stroke="#5E78FF" stroke-width="2"/><path d="M98.39 1000.4l-4.25 4.25-4.26-4.25" stroke="#5E78FF" stroke-width="2" stroke-linecap="round"/></svg>