<svg width="832" height="515" fill="none" xmlns="http://www.w3.org/2000/svg"><rect x="1" y="1.05" width="830" height="125.49" rx="62.74" stroke="#5E78FF" stroke-width="2"/><circle cx="55.33" cy="63.8" r="21.24" fill="#5E78FF"/><path d="M96.25 63.8c0 .74-.12 1.43-.37 2.07a4.8 4.8 0 01-4.75 3.1 5.5 5.5 0 01-2.1-.38 4.84 4.84 0 01-2.66-2.72A5.64 5.64 0 0186 63.8c0-.74.12-1.43.37-2.06a4.76 4.76 0 012.67-2.72 5.58 5.58 0 014.79.3 4.67 4.67 0 012.26 3.07c.1.45.16.92.16 1.41zm-1.92 0c0-.55-.08-1.05-.23-1.49a3.2 3.2 0 00-.63-1.13c-.28-.3-.62-.54-1.01-.7-.4-.17-.84-.25-1.33-.25-.5 0-.94.08-1.34.25a2.8 2.8 0 00-1.64 1.83c-.15.44-.23.94-.23 1.5 0 .55.08 1.05.23 1.49a2.84 2.84 0 001.64 1.82c.4.16.84.24 1.34.24.5 0 .94-.08 1.33-.24.4-.16.73-.4 1-.7.28-.3.5-.68.64-1.12.15-.44.23-.94.23-1.5zm11.76 3.78v3.17c0 .16-.05.29-.14.38-.1.1-.21.14-.36.14h-1.08v-2.4h-6v-7.19h1.73v5.9h2.8v-5.9h1.73v5.9h1.32zm6.6-3.13c0-.23-.04-.44-.1-.63-.07-.2-.16-.38-.29-.53a1.28 1.28 0 00-.48-.35c-.2-.09-.42-.13-.67-.13-.5 0-.9.14-1.19.42a2.1 2.1 0 00-.54 1.22h3.26zm-3.3 1.04c.02.37.09.69.19.96a1.65 1.65 0 001 1.06c.23.08.5.12.77.12.28 0 .52-.03.72-.1.2-.06.38-.14.53-.21l.4-.22c.12-.07.23-.1.34-.1.14 0 .25.05.32.16l.5.63a2.97 2.97 0 01-1.4.93c-.25.1-.52.15-.79.2a5.6 5.6 0 01-.77.05c-.5 0-.97-.08-1.4-.25a3.17 3.17 0 01-1.86-1.94 4.69 4.69 0 01-.04-3.04 3.3 3.3 0 011.76-1.9 3.6 3.6 0 011.45-.27c.45 0 .87.07 1.26.22a2.72 2.72 0 011.63 1.65c.16.4.23.87.23 1.38 0 .26-.02.44-.08.54-.06.08-.16.13-.32.13h-4.45zm13.4-3.81v7.18h-1.73v-3.18h-2.8v3.18h-1.73v-7.18h1.73v2.72h2.8v-2.72h1.73zm7 .46a.96.96 0 01.8-.46h1.37l-1.68 2.67a2.4 2.4 0 01-.35.45c-.13.11-.27.2-.44.27.23.07.42.17.57.31.15.14.28.31.4.52l1.69 2.96h-1.2c-.3 0-.54-.05-.7-.15-.18-.1-.32-.25-.44-.44l-1.05-2a.95.95 0 00-.37-.38 1 1 0 00-.5-.12h-.66v3.1h-1.73v-7.19h1.73v2.96h.56a.9.9 0 00.47-.1.9.9 0 00.3-.34l1.23-2.06zm8.1 3.66c-.5.02-.91.06-1.25.13-.34.06-.61.14-.82.24-.2.1-.35.21-.44.34a.75.75 0 00-.13.43c0 .3.08.52.26.65s.42.2.7.2c.36 0 .67-.07.92-.2.27-.13.52-.32.77-.58V65.8zm-3.95-3.12a4.26 4.26 0 012.98-1.13c.42 0 .8.07 1.13.2a2.31 2.31 0 011.35 1.46c.13.34.19.71.19 1.12v4.53h-.79a.83.83 0 01-.38-.07c-.08-.05-.16-.15-.2-.3l-.16-.52c-.18.17-.36.31-.53.44a3.23 3.23 0 01-1.14.5 3.23 3.23 0 01-1.54-.05 1.9 1.9 0 01-.67-.38 1.66 1.66 0 01-.43-.6c-.1-.25-.16-.53-.16-.85a1.67 1.67 0 01.39-1.06c.14-.16.32-.32.54-.46.22-.15.48-.27.8-.38a10.73 10.73 0 012.58-.38v-.42c0-.48-.1-.84-.31-1.07-.2-.23-.5-.35-.89-.35a2.15 2.15 0 00-1.18.32l-.39.22a.74.74 0 01-.38.1.51.51 0 01-.3-.1.85.85 0 01-.2-.22l-.31-.55z" fill="#5E78FF"/><path d="M66.28 64.02v-.22a10.87 10.87 0 00-.6-3.62 10.97 10.97 0 00-21.31 3.61c0 6.05 4.91 10.97 10.96 10.97 5.95 0 10.8-4.77 10.95-10.68v-.06zm-6.78 3.14l5.12-5.13c.1.56.17 1.12.17 1.7l-4.35 4.36-.94-.93zm-3.68-8.3c.01 0 .02 0 .03-.02l3.5-3.48.05-.1c.43.2.83.42 1.22.69l-4.8 4.8v-1.89zm0-2.1v-2.4c.72.03 1.41.14 2.07.33l-2.07 2.07zm.03 6.07l5.94-5.93c.32.3.63.62.9.96l-6.24 6.25-.63-.62v-.64l.03-.02zm7.7-3.71c.23.4.43.83.6 1.27l-5.7 5.71-.95-.93 6.05-6.05zm-17.7 4.68c0-4.9 3.72-8.92 8.48-9.42v9.42c0 .2.08.39.22.52l6.79 6.8a9.47 9.47 0 01-15.48-7.31zm16.56 6.27l-.92-.92 3-3a9.46 9.46 0 01-2.08 3.92z" fill="#fff"/><circle cx="255.83" cy="63.8" r="21.24" fill="#5E78FF"/><path d="M295.28 60.93h-1.9v-8.67H289v8.67h-1.89V50.8h8.18v10.12zm4.6-1.86c.2.23.4.4.64.5a1.93 1.93 0 001.46 0c.21-.1.39-.25.53-.45.15-.2.26-.45.35-.75.07-.31.11-.67.11-1.09 0-.42-.03-.77-.1-1.06-.07-.3-.16-.53-.29-.72a1.14 1.14 0 00-.46-.4 1.41 1.41 0 00-.6-.12c-.37 0-.67.08-.93.23-.25.15-.49.36-.71.64v3.22zm-.1-4.34c.3-.33.64-.6 1.01-.8a2.69 2.69 0 012.39-.07c.32.16.6.4.84.71.24.31.42.7.54 1.15a5.67 5.67 0 01-.02 3.05c-.14.46-.35.86-.62 1.2a2.84 2.84 0 01-2.25 1.07c-.4 0-.74-.07-1.03-.19-.28-.12-.54-.3-.76-.52v2.94h-1.73v-9.52h1.06c.22 0 .37.1.44.31l.14.67zm11.94 1.78c0-.22-.03-.43-.1-.63-.06-.2-.15-.37-.28-.52a1.28 1.28 0 00-.48-.35c-.2-.1-.42-.14-.67-.14-.5 0-.9.15-1.19.43a2.1 2.1 0 00-.54 1.21h3.26zm-3.3 1.04c.03.37.1.7.2.96a2 2 0 00.4.67c.17.17.37.3.6.4.23.07.5.12.77.12.28 0 .52-.04.72-.1.2-.07.38-.14.53-.22.16-.08.3-.15.4-.22a.7.7 0 01.34-.1c.14 0 .25.06.32.17l.5.63c-.2.22-.4.41-.65.56a3.84 3.84 0 01-1.54.56 5.6 5.6 0 01-.77.05c-.5 0-.97-.08-1.4-.24a3.18 3.18 0 01-1.86-1.94 4.69 4.69 0 01-.04-3.05 3.24 3.24 0 011.76-1.89 3.6 3.6 0 011.45-.28c.46 0 .87.08 1.26.22a2.7 2.7 0 011.63 1.66c.16.4.23.86.23 1.38 0 .26-.02.44-.08.53-.06.09-.16.13-.32.13h-4.45zm11.91 2.15v-4.63h-1.76c-.05.6-.1 1.15-.18 1.63-.07.48-.15.91-.24 1.29a7.5 7.5 0 01-.66 1.7h2.84zm3-.05v3.17c0 .16-.05.28-.14.38-.09.09-.2.14-.35.14h-1.08v-2.41h-5.38v1.92c0 .12-.03.23-.11.33s-.2.16-.36.16h-1.1V59.7h.21c.16 0 .32-.02.48-.07.15-.04.3-.14.44-.28s.28-.34.4-.6c.13-.26.25-.62.35-1.06.1-.44.2-.98.27-1.63.08-.64.14-1.41.19-2.31H322v5.9h1.32zm5.14-6.02c.53 0 1.02.1 1.45.26a3.14 3.14 0 011.84 1.9c.17.46.25.97.25 1.53 0 .57-.08 1.09-.25 1.54a3.1 3.1 0 01-1.84 1.91c-.43.18-.92.26-1.45.26-.53 0-1.02-.08-1.46-.26a3.16 3.16 0 01-1.85-1.9 4.44 4.44 0 01-.25-1.55c0-.56.08-1.07.25-1.53.17-.46.41-.84.72-1.16.32-.32.7-.56 1.13-.74.44-.17.93-.26 1.46-.26zm0 6.07c.6 0 1.04-.2 1.33-.6a3 3 0 00.43-1.76c0-.78-.15-1.37-.43-1.77-.29-.4-.73-.61-1.33-.61-.6 0-1.05.2-1.35.61-.29.41-.43 1-.43 1.77s.14 1.36.43 1.76c.3.4.75.6 1.35.6zm12.12 1.23h-1.73v-5.9h-2.8v5.9h-1.73v-7.18h6.26v7.18zm9.38 0h-1.73v-5.86h-1.76c-.06.88-.15 1.64-.26 2.28a10 10 0 01-.42 1.62c-.16.44-.34.8-.54 1.07s-.4.47-.63.62a1.9 1.9 0 01-.7.3c-.23.05-.47.07-.72.07s-.44-.02-.56-.07c-.12-.04-.18-.1-.18-.18V59.7h.41c.16 0 .31-.02.47-.07.15-.04.3-.14.44-.28.15-.15.29-.35.42-.62s.25-.62.36-1.06c.1-.45.2-.99.29-1.63.08-.64.15-1.4.2-2.3h4.9v7.19zm6.5-3.07c-.5.03-.92.07-1.26.14-.34.06-.62.14-.82.23-.2.1-.35.22-.44.35a.74.74 0 00-.14.42c0 .3.1.52.27.65.18.14.42.2.7.2.36 0 .67-.06.92-.19.26-.13.52-.32.77-.59v-1.2zm-3.97-3.11a4.26 4.26 0 012.99-1.14c.42 0 .8.07 1.12.21a2.33 2.33 0 011.36 1.45c.12.34.18.72.18 1.12v4.54h-.78a.83.83 0 01-.38-.07c-.09-.05-.16-.15-.2-.3l-.16-.52-.53.43a3.27 3.27 0 01-1.15.5 3.23 3.23 0 01-1.54-.05c-.25-.08-.47-.2-.66-.37a1.65 1.65 0 01-.44-.6 2.15 2.15 0 01-.06-1.4c.06-.18.16-.35.3-.51.14-.17.32-.32.53-.46.22-.15.5-.27.81-.38a10.73 10.73 0 012.58-.38v-.43c0-.48-.1-.83-.31-1.06-.2-.23-.5-.35-.9-.35a2.15 2.15 0 00-1.17.32l-.39.22a.74.74 0 01-.38.1.51.51 0 01-.3-.1.83.83 0 01-.2-.22l-.32-.55zm14.32.28h-2.56v5.9h-1.73v-5.9h-2.56v-1.28h6.85v1.28zm5.77 2.83c-.5.03-.92.07-1.26.14-.34.06-.62.14-.82.23-.2.1-.35.22-.44.35a.74.74 0 00-.13.42c0 .3.08.52.26.65.18.14.42.2.7.2.36 0 .67-.06.93-.19s.51-.32.76-.59v-1.2zm-3.96-3.11a4.26 4.26 0 012.98-1.14c.42 0 .8.07 1.13.21a2.33 2.33 0 011.35 1.45c.13.34.19.72.19 1.12v4.54h-.79a.83.83 0 01-.38-.07c-.09-.05-.16-.15-.2-.3l-.16-.52c-.18.16-.36.3-.53.43a3.27 3.27 0 01-1.14.5 3.23 3.23 0 01-1.54-.05c-.26-.08-.48-.2-.67-.37a1.65 1.65 0 01-.43-.6 2.15 2.15 0 01-.06-1.4c.06-.18.15-.35.29-.51.14-.17.32-.32.54-.46.22-.15.49-.27.8-.38a10.73 10.73 0 012.58-.38v-.43c0-.48-.1-.83-.3-1.06-.21-.23-.51-.35-.9-.35a2.15 2.15 0 00-1.18.32l-.39.22a.74.74 0 01-.37.1.51.51 0 01-.31-.1.83.83 0 01-.2-.22l-.31-.55zm-75.41 21.88v1.3h-5.6v-1.3h2.05v-5.9c0-.23 0-.47.02-.72l-1.45 1.22a.64.64 0 01-.26.13.64.64 0 01-.42-.07.44.44 0 01-.12-.12l-.55-.75 3.09-2.63h1.42v8.84h1.82zm9.64-3.76c0 .88-.09 1.65-.28 2.3a4.62 4.62 0 01-.79 1.61c-.33.43-.72.74-1.18.95-.45.2-.94.31-1.47.31s-1.02-.1-1.47-.3a3.2 3.2 0 01-1.17-.96 4.72 4.72 0 01-.77-1.6 8.46 8.46 0 01-.29-2.31c0-.89.1-1.66.29-2.3.18-.65.44-1.2.77-1.62.33-.42.72-.73 1.17-.94.45-.21.94-.32 1.47-.32s1.02.11 1.47.32c.46.2.85.52 1.18.94.34.43.6.97.79 1.61.19.65.29 1.42.29 2.3zm-1.78 0c0-.73-.05-1.34-.16-1.82a3.6 3.6 0 00-.44-1.15 1.52 1.52 0 00-1.34-.77c-.25 0-.49.06-.72.17-.23.12-.43.31-.6.6-.19.28-.33.67-.44 1.15-.1.48-.15 1.09-.15 1.82s.05 1.34.15 1.82c.11.48.25.86.43 1.15.18.28.38.48.61.6a1.65 1.65 0 001.45 0c.23-.12.44-.32.62-.6.18-.29.32-.67.43-1.15.1-.48.16-1.09.16-1.82zm10.9 0c0 .88-.09 1.65-.28 2.3a4.64 4.64 0 01-.78 1.61 3.17 3.17 0 01-2.66 1.26c-.52 0-1.01-.1-1.47-.3a3.2 3.2 0 01-1.17-.96c-.33-.42-.59-.96-.77-1.6a8.42 8.42 0 01-.28-2.31c0-.89.09-1.66.28-2.3.18-.65.44-1.2.77-1.62.33-.42.73-.73 1.17-.94.45-.21.94-.32 1.47-.32s1.02.11 1.47.32c.46.2.85.52 1.19.94.33.43.6.97.78 1.61.2.65.29 1.42.29 2.3zm-1.78 0c0-.73-.05-1.34-.16-1.82-.1-.48-.25-.87-.43-1.15a1.53 1.53 0 00-1.35-.77c-.25 0-.49.06-.72.17-.23.12-.43.31-.6.6a3.7 3.7 0 00-.43 1.15c-.1.48-.16 1.09-.16 1.82s.05 1.34.16 1.82c.1.48.25.86.42 1.15.18.28.38.48.61.6a1.65 1.65 0 001.45 0c.23-.12.44-.32.62-.6.18-.29.32-.67.43-1.15.1-.48.16-1.09.16-1.82zm8.35-2.61a2.64 2.64 0 01-.7 1.82 2.27 2.27 0 01-1.64.68c-.34 0-.65-.06-.93-.18a2.18 2.18 0 01-.74-.5c-.21-.22-.37-.48-.49-.79a2.9 2.9 0 01-.17-1.03c0-.4.06-.75.17-1.07a2.14 2.14 0 011.22-1.3c.3-.13.6-.19.94-.19a2.35 2.35 0 011.68.69c.2.22.37.49.49.8.11.32.17.67.17 1.07zm-1.33 0c0-.27-.03-.5-.08-.68a1.2 1.2 0 00-.22-.44.73.73 0 00-.32-.24 1 1 0 00-.4-.08 1 1 0 00-.38.08.73.73 0 00-.32.24c-.08.1-.15.26-.2.44-.05.18-.08.4-.08.68 0 .26.03.48.08.65.05.18.12.32.2.42.09.11.2.19.32.24.12.04.25.07.39.07s.27-.03.39-.07a.75.75 0 00.32-.24c.1-.1.17-.24.22-.42.06-.17.08-.4.08-.65zm4.7-2.18c.06-.07.13-.13.21-.19.08-.06.2-.08.35-.08h1.26l-7.52 9.86a.85.85 0 01-.22.19.63.63 0 01-.3.07h-1.3l7.52-9.85zm2.35 7.47a2.64 2.64 0 01-.7 1.83 2.36 2.36 0 01-1.64.67 2.27 2.27 0 01-1.67-.68c-.21-.21-.37-.48-.49-.79a2.9 2.9 0 01-.17-1.03c0-.4.05-.75.17-1.07a2.14 2.14 0 011.22-1.3c.29-.13.6-.19.94-.19a2.35 2.35 0 011.67.69c.21.22.37.49.49.8.12.32.18.68.18 1.07zm-1.33 0c0-.27-.03-.5-.08-.68a1.2 1.2 0 00-.22-.44.73.73 0 00-.32-.24 1 1 0 00-.4-.08 1 1 0 00-.38.08.73.73 0 00-.32.24c-.09.11-.16.26-.21.44-.05.18-.07.4-.07.68 0 .26.02.48.07.66.05.17.12.32.21.42.09.11.2.19.31.23.13.05.26.07.4.07s.27-.02.39-.07a.75.75 0 00.32-.23c.1-.1.17-.25.22-.42.05-.18.07-.4.07-.66z" fill="#5E78FF"/><path d="M255.83 66.2a.87.87 0 01-.62-.27.87.87 0 010-1.24.9.9 0 011.24 0c.16.17.26.39.26.63a.75.75 0 101.5 0 2.38 2.38 0 00-1.86-2.32l-.02-.46a.75.75 0 10-1.5 0v.63a2.37 2.37 0 001 4.51 1.05 1.05 0 011.06 1.06 1.05 1.05 0 01-.82 1.03h-.47a1.05 1.05 0 01-.82-1.14.75.75 0 00-1.49-.14 2.53 2.53 0 001.56 2.6c.04.37.35.67.74.67.32 0 .6-.22.7-.51a2.54 2.54 0 00-.46-5.06z" fill="#fff"/><path d="M265.2 71c-.2-2.25-1.17-9.43-5.5-12.13l.02-.03 1.5-3.99a1.49 1.49 0 00-1.4-2.02h-7.98a1.5 1.5 0 00-1.4 2.02l1.5 3.99.01.03c-4.32 2.7-5.3 9.88-5.49 12.12a3.5 3.5 0 003.48 3.77h11.78a3.5 3.5 0 003.48-3.77zm-13.36-16.67h7.98l-1.5 3.99h-4.98l-1.5-3.99zm9.88 18.93h-11.78c-1.16 0-2.1-.98-1.99-2.14.37-4.15 1.88-9.7 5.39-11.3h4.98c3.51 1.6 5.02 7.15 5.39 11.3a1.98 1.98 0 01-1.99 2.14z" fill="#fff"/><path d="M535.43 63.83c.34 0 .64-.04.9-.13s.47-.2.64-.37c.17-.16.3-.36.38-.59a2.28 2.28 0 000-1.5c-.08-.23-.2-.41-.38-.57a1.64 1.64 0 00-.63-.35 2.93 2.93 0 00-.91-.12h-1.41v3.63h1.4zm0-5.09c.67 0 1.26.08 1.75.24.5.16.9.38 1.23.66.32.29.56.63.71 1.03a3.61 3.61 0 010 2.65c-.17.4-.41.75-.74 1.05-.33.3-.74.52-1.23.68-.5.17-1.07.25-1.72.25h-1.41v3.56h-1.88V58.74h3.29zm9.68 7.06c-.5.02-.92.06-1.26.13-.34.06-.62.14-.82.24-.2.1-.36.21-.44.34a.75.75 0 00-.14.43c0 .3.1.52.27.65.18.13.42.2.7.2.36 0 .67-.07.92-.2.26-.13.52-.32.77-.58V65.8zm-3.97-3.12a4.26 4.26 0 012.99-1.13c.42 0 .8.07 1.12.2a2.31 2.31 0 011.36 1.46c.12.34.18.71.18 1.12v4.53h-.78a.83.83 0 01-.38-.07c-.09-.05-.16-.15-.2-.3l-.16-.52c-.18.17-.36.31-.53.44a3.23 3.23 0 01-1.15.5 3.23 3.23 0 01-1.54-.05 1.9 1.9 0 01-.66-.38 1.66 1.66 0 01-.43-.6c-.1-.25-.16-.53-.16-.85a1.67 1.67 0 01.39-1.06c.14-.16.32-.32.53-.46.23-.15.5-.27.81-.38a10.73 10.73 0 012.58-.38v-.42c0-.48-.1-.84-.31-1.07-.2-.23-.5-.35-.9-.35a2.15 2.15 0 00-1.17.32l-.39.22a.74.74 0 01-.38.1.51.51 0 01-.3-.1.85.85 0 01-.2-.22l-.32-.55zm7.86-.22c.27-.26.6-.48 1.01-.64.4-.17.88-.25 1.44-.25.44 0 .84.05 1.18.16.35.1.64.24.87.43.24.17.42.38.54.61a1.47 1.47 0 01.13 1.15 1.65 1.65 0 01-.55.82c-.15.12-.34.22-.56.3.4.15.7.37.95.66.24.29.36.64.36 1.07 0 .35-.08.66-.24.93-.16.27-.38.5-.64.7a3.8 3.8 0 01-4.05-.03 2.97 2.97 0 01-.62-.58l.5-.63c.07-.1.17-.16.31-.16.1 0 .21.04.31.1l.34.23a1.94 1.94 0 001.13.32c.43 0 .76-.1.98-.3.22-.19.34-.43.34-.73a.78.78 0 00-.35-.68c-.23-.16-.6-.24-1.12-.24h-.82v-1.13h.82c.45 0 .8-.08 1.04-.24a.72.72 0 00.36-.63.7.7 0 00-.32-.58 1.58 1.58 0 00-.94-.24 2.24 2.24 0 00-1.07.25c-.13.06-.23.1-.31.16a.45.45 0 01-.44.03.61.61 0 01-.19-.2l-.39-.66zm9.45 4.54c.2.24.41.4.64.5a1.93 1.93 0 001.46 0c.21-.1.4-.24.54-.44s.26-.46.34-.76c.08-.3.12-.67.12-1.08 0-.42-.04-.78-.1-1.07-.07-.3-.17-.53-.3-.71a1.14 1.14 0 00-.46-.4 1.41 1.41 0 00-.6-.13c-.37 0-.67.08-.92.23-.25.15-.5.37-.72.64V67zm-.09-4.34c.3-.33.63-.6 1-.8a2.69 2.69 0 012.4-.07c.32.17.6.4.83.72.24.3.42.69.55 1.14a5.67 5.67 0 01-.02 3.06c-.15.45-.36.85-.63 1.19-.26.33-.59.6-.97.79-.38.18-.8.28-1.27.28-.4 0-.75-.06-1.03-.18-.29-.13-.54-.3-.77-.52v2.94h-1.73v-9.53h1.06c.23 0 .37.1.44.32l.14.66zm11.1 3.14c-.5.02-.92.06-1.26.13-.34.06-.61.14-.82.24-.2.1-.35.21-.44.34a.74.74 0 00-.13.43c0 .3.09.52.27.65.18.13.41.2.7.2.36 0 .66-.07.92-.2s.51-.32.76-.58V65.8zm-3.96-3.12a4.26 4.26 0 012.98-1.13c.42 0 .8.07 1.13.2a2.33 2.33 0 011.36 1.46c.12.34.18.71.18 1.12v4.53h-.78a.83.83 0 01-.38-.07c-.1-.05-.16-.15-.21-.3l-.16-.52c-.18.17-.36.31-.53.44a3.27 3.27 0 01-1.14.5 3.23 3.23 0 01-1.54-.05c-.26-.09-.48-.21-.66-.38a1.65 1.65 0 01-.44-.6 2.15 2.15 0 01-.06-1.4c.06-.17.16-.35.3-.5.13-.17.31-.33.53-.47.22-.15.49-.27.8-.38a10.73 10.73 0 012.58-.38v-.42c0-.48-.1-.84-.3-1.07-.21-.23-.5-.35-.9-.35a2.15 2.15 0 00-1.18.32l-.38.22a.74.74 0 01-.38.1.51.51 0 01-.3-.1.83.83 0 01-.21-.22l-.31-.55zm11.65 5.03c.6 0 1.04-.2 1.34-.58.3-.38.44-.94.44-1.68 0-.73-.14-1.29-.43-1.67-.29-.38-.73-.57-1.31-.57-.6 0-1.04.18-1.35.54-.3.36-.46.9-.46 1.62 0 .76.14 1.34.43 1.74.3.4.74.6 1.34.6zm.5-7.33c-.43.03-.8.11-1.12.26-.31.14-.57.33-.77.57-.2.24-.36.53-.46.86-.1.33-.17.7-.19 1.1a2.72 2.72 0 011-.89 3.09 3.09 0 011.5-.34c.48 0 .9.08 1.3.25.37.17.7.4.96.72.27.3.48.67.62 1.1a4.44 4.44 0 01-.04 2.9 3.12 3.12 0 01-1.84 1.81c-.44.17-.93.25-1.46.25-.52 0-1-.09-1.43-.25-.44-.17-.81-.45-1.13-.82a4.04 4.04 0 01-.74-1.47 9.75 9.75 0 01-.06-4.26c.13-.64.35-1.19.66-1.66.3-.47.71-.86 1.21-1.15.5-.29 1.12-.46 1.85-.51l2.55-.2.1.9c.01.19-.01.35-.09.49-.07.13-.2.2-.4.2l-2.01.14zm8.58 1.19c.53 0 1.01.08 1.45.26a3.15 3.15 0 011.84 1.9c.16.45.25.96.25 1.53 0 .57-.09 1.08-.25 1.54a3.1 3.1 0 01-1.84 1.91c-.44.17-.92.26-1.45.26-.54 0-1.03-.09-1.47-.26a3.16 3.16 0 01-1.84-1.91 4.44 4.44 0 01-.26-1.54c0-.57.09-1.08.26-1.54a3.2 3.2 0 011.85-1.9c.43-.17.92-.25 1.46-.25zm0 6.07c.6 0 1.03-.2 1.32-.6a3 3 0 00.43-1.77c0-.77-.14-1.36-.43-1.77-.28-.4-.73-.6-1.32-.6-.61 0-1.06.2-1.35.6-.3.41-.44 1-.44 1.77s.15 1.36.44 1.77c.29.4.74.6 1.35.6zm11.81-4.68h-2.56v5.9h-1.73v-5.9h-2.55v-1.28h6.84v1.28zm6.31-.82a.96.96 0 01.8-.46h1.37l-1.68 2.67a2.4 2.4 0 01-.36.45c-.12.11-.26.2-.44.27.24.07.43.17.58.31.15.14.28.31.4.52l1.68 2.96h-1.2c-.3 0-.53-.05-.7-.15-.17-.1-.31-.25-.43-.44l-1.05-2a.95.95 0 00-.37-.38 1 1 0 00-.5-.12h-.66v3.1h-1.73v-7.19h1.73v2.96h.56a.9.9 0 00.47-.1.9.9 0 00.3-.34l1.23-2.06zm8.1 3.66c-.5.02-.91.06-1.25.13-.35.06-.62.14-.82.24-.2.1-.36.21-.44.34a.74.74 0 00-.14.43c0 .3.1.52.27.65.18.13.42.2.7.2.36 0 .67-.07.92-.2.26-.13.52-.32.77-.58V65.8zm-3.96-3.12a4.26 4.26 0 012.99-1.13c.42 0 .8.07 1.12.2a2.33 2.33 0 011.36 1.46c.12.34.18.71.18 1.12v4.53h-.78a.83.83 0 01-.38-.07c-.09-.05-.16-.15-.2-.3l-.16-.52-.53.44a3.27 3.27 0 01-1.15.5 3.23 3.23 0 01-1.54-.05c-.25-.09-.47-.21-.66-.38a1.65 1.65 0 01-.44-.6 2.15 2.15 0 01-.06-1.4c.06-.17.16-.35.3-.5.14-.17.32-.33.54-.47.21-.15.48-.27.8-.38a10.73 10.73 0 012.58-.38v-.42c0-.48-.1-.84-.31-1.07-.2-.23-.5-.35-.9-.35a2.15 2.15 0 00-1.17.32l-.39.22a.74.74 0 01-.38.1.51.51 0 01-.3-.1.83.83 0 01-.2-.22l-.32-.55z" fill="#5E78FF"/><circle cx="500.87" cy="63.8" r="21.24" fill="#5E78FF"/><path d="M500.87 61.3a2.5 2.5 0 110 4.99 2.5 2.5 0 010-4.98zm0-1.49a4 4 0 100 7.98 4 4 0 000-7.98z" fill="#fff"/><path d="M502.36 54.33v1.64c1.09.2 2.1.63 2.98 1.23l1.16-1.15 2.11 2.11-1.15 1.16c.6.88 1.02 1.9 1.23 2.98h1.64v3h-1.64c-.2 1.08-.63 2.1-1.23 2.98l1.15 1.15-2.11 2.11-1.16-1.15c-.88.6-1.89 1.03-2.98 1.23v1.64h-2.99v-1.64c-1.1-.2-2.1-.63-2.99-1.23l-1.15 1.15-2.11-2.1 1.15-1.16a7.92 7.92 0 01-1.23-2.99h-1.64V62.3h1.64c.2-1.09.63-2.1 1.23-2.98l-1.15-1.16 2.1-2.11 1.16 1.15c.89-.6 1.9-1.02 2.99-1.23v-1.64h2.99zm0-1.5h-2.99c-.83 0-1.5.67-1.5 1.5v.48c-.42.14-.84.32-1.25.52l-.34-.35a1.48 1.48 0 00-2.11 0l-2.12 2.12a1.5 1.5 0 000 2.11l.35.35c-.2.4-.38.82-.52 1.25h-.48c-.83 0-1.5.66-1.5 1.5v2.98c0 .83.67 1.5 1.5 1.5h.48c.14.42.31.84.51 1.25l-.34.34a1.5 1.5 0 000 2.11l2.11 2.12a1.48 1.48 0 002.12 0l.34-.35c.4.2.82.38 1.25.52v.48c0 .83.67 1.5 1.5 1.5h2.98c.83 0 1.5-.67 1.5-1.5v-.48c.43-.14.85-.31 1.25-.51l.34.34a1.48 1.48 0 002.12 0l2.1-2.11a1.5 1.5 0 000-2.11l-.34-.35c.2-.4.38-.82.52-1.25h.5c.82 0 1.49-.67 1.49-1.5v-2.98c0-.83-.67-1.5-1.5-1.5h-.48a9.38 9.38 0 00-.52-1.25l.35-.34a1.5 1.5 0 000-2.12l-2.11-2.1a1.48 1.48 0 00-2.12 0l-.34.34c-.4-.21-.83-.38-1.26-.53v-.48c0-.83-.66-1.5-1.5-1.5z" fill="#fff"/><circle cx="733.81" cy="63.8" r="21.24" fill="#5E78FF"/><path d="M770.4 65.71l-1.23-3.37a7.06 7.06 0 01-.38-1.2 14.2 14.2 0 01-.38 1.22l-1.22 3.35h3.22zm3.33 3.82h-1.46a.64.64 0 01-.4-.12.78.78 0 01-.23-.3l-.75-2.07h-4.2l-.75 2.07c-.04.1-.11.2-.22.29a.62.62 0 01-.4.13h-1.47l3.98-10.12h1.92l3.98 10.12zm6.03-6.72a.96.96 0 01.8-.46h1.37l-1.68 2.67a2.4 2.4 0 01-.35.45c-.13.11-.27.2-.44.27.23.07.42.17.57.31.15.14.28.31.4.52l1.69 2.96h-1.2c-.3 0-.54-.05-.7-.15a1.3 1.3 0 01-.44-.44l-1.05-1.99a.94.94 0 00-.88-.51h-.65v3.1h-1.73v-7.19h1.73v2.96h.56a.9.9 0 00.47-.1.9.9 0 00.3-.34l1.23-2.06zm10.47.82h-2.56v5.9h-1.73v-5.9h-2.55v-1.28h6.84v1.28z" fill="#5E78FF"/><path d="M742.16 52.84h-12c-.56 0-1.06.3-1.33.74l-4.2 4.2c-.44.27-.74.76-.74 1.32v14.1c0 .86.7 1.56 1.57 1.56h16.7c.87 0 1.57-.7 1.57-1.57V54.4c0-.87-.7-1.56-1.57-1.56zm-13.57 3.19v1.5h-1.5l1.5-1.5zm13.57 17.16h-16.7V59.15s.02 0 .03-.02l.03-.03h4.63v-4.64l.03-.03c.02 0 .02-.02.03-.03h11.95v18.8z" fill="#fff"/><path d="M739.03 64.84h-10.44a.78.78 0 100 1.57h10.44a.78.78 0 100-1.57zM737.46 68.5h-8.87a.78.78 0 100 1.56h8.87a.78.78 0 100-1.57zM735.37 62.75h3.13c.87 0 1.57-.7 1.57-1.56v-3.13c0-.87-.7-1.57-1.57-1.57h-3.13c-.86 0-1.56.7-1.56 1.56v3.14c0 .86.7 1.56 1.56 1.56zm0-4.7h3.13v3.14h-3.13v-3.13z" fill="#fff"/><path d="M163.06 63.8h52.41" stroke="#5E78FF" stroke-width="2"/><path d="M213.24 60.88l2.9 2.92-2.9 2.91" stroke="#5E78FF" stroke-width="2" stroke-linecap="round"/><path d="M401.65 63.8h52.41" stroke="#5E78FF" stroke-width="2"/><path d="M451.83 60.88l2.9 2.92-2.9 2.91" stroke="#5E78FF" stroke-width="2" stroke-linecap="round"/><path d="M642.24 63.8h52.4" stroke="#5E78FF" stroke-width="2"/><path d="M692.42 60.88l2.9 2.92-2.9 2.91" stroke="#5E78FF" stroke-width="2" stroke-linecap="round"/><path d="M416 156.13v76.5" stroke="#5E78FF" stroke-width="2"/><path d="M420.25 229.37L416 233.6l-4.25-4.24" stroke="#5E78FF" stroke-width="2" stroke-linecap="round"/><path d="M381.36 373.75h-3.25v-14.87h-7.54v14.87h-3.24v-17.36h14.03v17.36zm11.95-7.57c0-.39-.06-.75-.17-1.08a2.5 2.5 0 00-.48-.9 2.2 2.2 0 00-.83-.6 2.72 2.72 0 00-1.15-.23c-.86 0-1.53.24-2.03.73-.49.49-.8 1.18-.94 2.07h5.6zm-5.66 1.78c.05.64.16 1.18.34 1.65.18.45.4.83.7 1.14.28.3.62.52 1.02.67.4.14.84.21 1.32.21.48 0 .89-.05 1.23-.16.35-.12.66-.24.91-.38.27-.13.5-.25.69-.37.2-.1.39-.17.57-.17.25 0 .44.1.56.28l.85 1.08a5.07 5.07 0 01-2.39 1.6 9.58 9.58 0 01-2.69.42c-.85 0-1.65-.14-2.39-.42a5.45 5.45 0 01-3.2-3.33 8.04 8.04 0 01-.06-5.22 5.55 5.55 0 013.02-3.24 6.17 6.17 0 012.49-.48c.77 0 1.49.13 2.15.38a4.64 4.64 0 012.8 2.84c.26.69.4 1.48.4 2.36 0 .45-.05.75-.14.92-.1.15-.28.22-.56.22h-7.62zm14.5 2.6c.34.4.7.7 1.1.86a3.31 3.31 0 002.5 0c.37-.17.67-.43.92-.77.26-.34.45-.77.59-1.3.13-.52.2-1.14.2-1.86 0-.72-.06-1.32-.18-1.82-.11-.5-.27-.91-.49-1.22a1.96 1.96 0 00-.8-.69c-.3-.14-.64-.21-1.04-.21-.61 0-1.14.13-1.57.4-.43.25-.84.61-1.22 1.09v5.51zm-.15-7.44a6.42 6.42 0 011.72-1.38 4.6 4.6 0 014.09-.11c.56.28 1.04.69 1.44 1.22.4.53.72 1.19.94 1.97a9.67 9.67 0 01-.04 5.23c-.25.78-.6 1.46-1.07 2.04a4.9 4.9 0 01-1.67 1.36c-.64.32-1.37.48-2.18.48-.69 0-1.28-.1-1.76-.31a4.4 4.4 0 01-1.31-.9v5.05h-2.97v-16.33h1.82c.38 0 .63.18.75.54l.24 1.13zm19.74 3.06c0-.39-.05-.75-.17-1.08a2.5 2.5 0 00-.47-.9 2.2 2.2 0 00-.83-.6 2.72 2.72 0 00-1.15-.23c-.86 0-1.54.24-2.03.73-.5.49-.8 1.18-.94 2.07h5.6zm-5.65 1.78c.05.64.16 1.18.34 1.65.17.45.4.83.7 1.14.28.3.62.52 1.01.67.4.14.84.21 1.32.21.48 0 .9-.05 1.24-.16.35-.12.66-.24.91-.38.26-.13.5-.25.69-.37.2-.1.39-.17.57-.17.25 0 .43.1.55.28l.85 1.08a5.07 5.07 0 01-2.38 1.6 9.58 9.58 0 01-2.69.42c-.86 0-1.65-.14-2.39-.42a5.45 5.45 0 01-3.2-3.33 8.04 8.04 0 01-.06-5.22 5.55 5.55 0 013.02-3.24 6.17 6.17 0 012.49-.48c.77 0 1.49.13 2.14.38a4.64 4.64 0 012.8 2.84c.27.69.4 1.48.4 2.36 0 .45-.04.75-.14.92-.1.15-.28.22-.55.22h-7.62zm22.35 5.79h-2.86a.8.8 0 01-.53-.17 1.65 1.65 0 01-.32-.38l-2.6-4.29-.15.38c-.05.13-.1.24-.17.34l-2.3 3.56c-.09.14-.2.27-.33.39a.7.7 0 01-.48.17h-2.65l4.23-6.35-4.06-5.96h2.86c.21 0 .37.03.48.1.1.05.2.14.27.28l2.58 4.1c.09-.27.21-.54.37-.8l2.08-3.24c.18-.3.4-.44.68-.44h2.73l-4.05 5.83 4.22 6.48zm7.43-12.5c.91 0 1.74.14 2.48.44a5.38 5.38 0 013.16 3.25c.29.78.43 1.66.43 2.63s-.14 1.85-.43 2.64c-.29.78-.7 1.45-1.24 2a5.3 5.3 0 01-1.92 1.27c-.74.3-1.57.45-2.48.45a6.8 6.8 0 01-2.5-.45 5.42 5.42 0 01-3.18-3.27 7.61 7.61 0 01-.43-2.64c0-.97.14-1.85.43-2.63.3-.79.71-1.45 1.24-2a5.5 5.5 0 011.93-1.25 6.8 6.8 0 012.5-.45zm0 10.4c1.02 0 1.78-.35 2.27-1.03.5-.7.74-1.7.74-3.03a5.2 5.2 0 00-.74-3.03c-.5-.7-1.25-1.05-2.27-1.05-1.04 0-1.81.35-2.32 1.06-.5.7-.74 1.7-.74 3.02s.25 2.33.74 3.03c.5.68 1.28 1.03 2.32 1.03zm17.19-.01v-7.94h-3.02a43.03 43.03 0 01-.3 2.8c-.13.82-.26 1.56-.43 2.2-.16.66-.33 1.22-.52 1.7s-.39.9-.6 1.24h4.87zm5.13-.09V377c0 .27-.07.49-.24.64a.79.79 0 01-.6.25h-1.84v-4.13h-9.22v3.29c0 .2-.07.4-.2.57-.13.18-.33.26-.61.26h-1.88v-6.24h.35c.28 0 .55-.03.82-.1.26-.08.51-.24.75-.48.25-.24.48-.59.7-1.04a8.7 8.7 0 00.6-1.8c.18-.77.33-1.7.45-2.8.14-1.1.25-2.43.33-3.98h8.34v10.12h2.25zm-131.7 20.66a1.66 1.66 0 011.39-.77h2.32l-2.86 4.57c-.2.32-.4.58-.62.78-.2.19-.46.34-.75.45.4.12.73.3.98.54.26.24.49.53.7.9l2.88 5.07h-2.05c-.52 0-.93-.1-1.22-.27a2.21 2.21 0 01-.73-.75l-1.81-3.41a1.6 1.6 0 00-1.5-.88h-1.12v5.3h-2.96v-12.3h2.96v5.07h.96c.34 0 .6-.06.8-.18.22-.13.4-.32.54-.57l2.1-3.55zm22.34 1.83c-.1.11-.18.2-.27.26-.08.07-.2.1-.36.1a.84.84 0 01-.44-.13 7.9 7.9 0 00-.52-.31 3.36 3.36 0 00-1.74-.46c-.52 0-.97.1-1.37.29-.39.18-.71.45-.98.8-.25.35-.45.78-.57 1.29-.13.5-.2 1.06-.2 1.69 0 .65.07 1.24.2 1.75.15.51.36.94.62 1.3.26.34.58.6.96.79.38.17.8.26 1.27.26a3.2 3.2 0 001.88-.55l.52-.38a.8.8 0 01.5-.19c.25 0 .43.1.55.28l.85 1.08a5.52 5.52 0 01-3.54 1.92c-.44.06-.87.1-1.3.1a5.14 5.14 0 01-3.91-1.67c-.5-.55-.9-1.2-1.2-2-.29-.78-.43-1.69-.43-2.7 0-.9.13-1.73.38-2.5a5.7 5.7 0 011.15-2 5.22 5.22 0 011.88-1.34c.74-.32 1.6-.48 2.56-.48a5.89 5.89 0 014.28 1.72l-.77 1.08zm15.18 9.7h-2.96V393.7h-3.03c-.1 1.51-.24 2.82-.44 3.92-.2 1.08-.44 2-.72 2.77a7.12 7.12 0 01-.93 1.83c-.33.46-.7.81-1.08 1.07-.38.26-.78.42-1.19.5-.4.1-.81.14-1.23.14a2.9 2.9 0 01-.97-.12c-.2-.07-.3-.18-.3-.31v-1.85h.7c.27 0 .53-.04.8-.12.26-.08.52-.25.76-.5.25-.24.49-.6.71-1.05.23-.47.43-1.07.62-1.83.19-.75.36-1.68.5-2.78.14-1.1.25-2.4.33-3.94h8.43v12.32zm11.85-7.56c0-.39-.06-.75-.17-1.08a2.5 2.5 0 00-.48-.9 2.2 2.2 0 00-.82-.6 2.72 2.72 0 00-1.16-.23c-.85 0-1.53.24-2.03.73-.48.49-.8 1.18-.93 2.07h5.6zm-5.65 1.78c.05.64.16 1.18.34 1.65.17.45.4.83.7 1.14.28.3.62.52 1.01.67.4.14.84.21 1.32.21.48 0 .9-.05 1.24-.16.35-.12.65-.24.9-.38.27-.13.5-.25.7-.37.2-.1.38-.17.57-.17.25 0 .43.1.55.28l.85 1.08a5.07 5.07 0 01-2.38 1.6 9.58 9.58 0 01-2.69.42c-.86 0-1.65-.14-2.4-.42a5.45 5.45 0 01-3.2-3.33 8.04 8.04 0 01-.06-5.22 5.55 5.55 0 013.02-3.24 6.17 6.17 0 012.5-.48c.77 0 1.49.13 2.14.38a4.64 4.64 0 012.8 2.84c.27.69.4 1.48.4 2.36 0 .45-.04.75-.14.92-.1.15-.28.22-.55.22h-7.62zm19.7 3.68v-7.94h-3.02a43.03 43.03 0 01-.3 2.8c-.12.82-.26 1.56-.42 2.2-.16.66-.34 1.22-.53 1.7s-.39.9-.6 1.24h4.87zm5.14-.09V407c0 .27-.08.49-.24.64a.79.79 0 01-.6.25h-1.85v-4.13h-9.22v3.29c0 .2-.07.4-.2.57-.13.18-.33.26-.61.26h-1.88v-6.24h.35c.28 0 .55-.03.82-.1.26-.08.51-.24.75-.48.25-.24.48-.59.7-1.04a8.7 8.7 0 00.6-1.8c.18-.77.33-1.7.46-2.8.13-1.1.24-2.43.32-3.98h8.34v10.12h2.26zm13.4-10.12l-6.72 15.7c-.09.2-.2.37-.35.47-.13.11-.34.17-.63.17h-2.2l2.3-4.95-4.99-11.38h2.6a.8.8 0 01.55.16c.13.11.24.24.3.39l2.62 6.38a15.88 15.88 0 01.4 1.3 64.6 64.6 0 01.45-1.31l2.47-6.37c.06-.16.17-.3.31-.4.15-.1.32-.15.5-.15h2.38zm13.59 10.22c.96 0 1.66-.35 2.12-1.03.46-.7.69-1.7.69-3.03 0-1.33-.23-2.34-.69-3.03-.46-.7-1.16-1.05-2.12-1.05-.96 0-1.67.35-2.13 1.06-.45.7-.68 1.7-.68 3.02 0 1.33.22 2.34.67 3.03.46.68 1.17 1.03 2.14 1.03zm-5.72-5.2c.1-.8.3-1.53.6-2.17a5.1 5.1 0 012.92-2.68c.66-.24 1.4-.36 2.2-.36.88 0 1.69.15 2.4.45a5.24 5.24 0 013.05 3.25c.27.78.41 1.66.41 2.63s-.14 1.85-.43 2.64a5.8 5.8 0 01-1.2 2c-.53.55-1.15.98-1.87 1.27-.72.3-1.5.45-2.36.45-.84 0-1.59-.13-2.26-.38a5.03 5.03 0 01-2.9-2.75 7.16 7.16 0 01-.57-2.25h-2.43v5.2h-2.97v-12.31h2.97v5.01h2.44zm34.12 5.1V407c0 .27-.08.49-.24.64a.79.79 0 01-.6.25h-1.85v-4.13h-16.6v-12.31h2.97v10.11h4.07v-10.12h2.96v10.12h4.07v-10.12h2.96v10.12h2.26zm10.6-5.38c0-.38-.06-.74-.17-1.07a2.5 2.5 0 00-.48-.9 2.2 2.2 0 00-.83-.6 2.72 2.72 0 00-1.15-.23c-.85 0-1.53.24-2.03.73-.48.49-.8 1.18-.93 2.07h5.59zm-5.65 1.8c.05.63.16 1.17.33 1.64.18.45.41.83.7 1.14.29.3.63.52 1.02.67.4.14.84.21 1.32.21.48 0 .9-.05 1.24-.16.35-.12.65-.24.9-.38.27-.13.5-.25.7-.37.2-.1.38-.17.57-.17.25 0 .43.1.55.28l.85 1.08a5.07 5.07 0 01-2.39 1.6c-.44.15-.89.26-1.35.32-.46.06-.9.1-1.33.1-.86 0-1.66-.14-2.4-.42a5.45 5.45 0 01-3.2-3.33 8.04 8.04 0 01-.06-5.22 5.55 5.55 0 013.02-3.24 6.17 6.17 0 012.5-.48c.77 0 1.48.13 2.14.38a4.64 4.64 0 012.8 2.84c.27.69.4 1.48.4 2.36 0 .45-.04.75-.14.92-.1.15-.28.22-.55.22h-7.62zm25.8-6.56v12.34h-2.67v-6.87a8.54 8.54 0 01.18-1.93l-3.62 6.65a.88.88 0 01-.84.51h-.31a.88.88 0 01-.85-.51l-3.67-6.69a10.8 10.8 0 01.2 1.97v6.87h-2.68V391.4h2.45c.2 0 .4.04.6.13.22.1.39.27.52.53l2.9 5.19a13.92 13.92 0 01.67 1.57l.31-.82c.11-.27.23-.52.36-.75l2.88-5.19c.14-.27.32-.45.52-.53.2-.09.4-.13.6-.13h2.46zm15.13.02l-6.71 15.7c-.09.2-.2.37-.35.47-.14.11-.35.17-.64.17h-2.2l2.3-4.95-4.98-11.38h2.6a.8.8 0 01.54.16c.14.11.24.24.3.39l2.62 6.38a15.88 15.88 0 01.4 1.3 64.6 64.6 0 01.45-1.31l2.47-6.37a.87.87 0 01.82-.55h2.38zm-122.24 31.53a5.93 5.93 0 011.86-1.27c.7-.3 1.5-.45 2.43-.45.96 0 1.82.16 2.56.48a5.46 5.46 0 013.02 3.34c.27.77.4 1.6.4 2.5 0 1.01-.15 1.92-.44 2.7a5.87 5.87 0 01-1.19 2 5.14 5.14 0 01-3.91 1.67c-.43 0-.87-.04-1.3-.1a6.43 6.43 0 01-1.3-.32 5.52 5.52 0 01-2.26-1.6l.81-1a.64.64 0 01.56-.26.7.7 0 01.33.09 4.37 4.37 0 01.7.43 4.27 4.27 0 001.08.43c.23.05.5.07.83.07.82 0 1.5-.27 2.06-.81.55-.56.9-1.35 1.02-2.4h-5.22v-2h5.2a3.82 3.82 0 00-1.02-2.18 2.85 2.85 0 00-2.12-.78c-.4 0-.75.04-1.03.13a7.79 7.79 0 00-1.26.55.9.9 0 01-.44.12.62.62 0 01-.37-.1 1.62 1.62 0 01-.25-.26l-.75-.98zm23.75.67h-4.4v10.12h-2.96v-10.12h-4.38v-2.2h11.74v2.2zm9.17 4.86c-.85.04-1.57.12-2.16.23a5.6 5.6 0 00-1.4.4c-.35.18-.6.37-.76.6-.15.22-.23.46-.23.73 0 .52.16.89.46 1.11.31.23.72.34 1.21.34.61 0 1.13-.1 1.57-.32.45-.23.89-.56 1.31-1.01v-2.08zm-6.79-5.34a7.3 7.3 0 015.11-1.94c.72 0 1.37.12 1.94.36a3.98 3.98 0 012.32 2.48c.21.58.31 1.22.31 1.92v7.78h-1.34c-.28 0-.5-.04-.65-.12-.15-.1-.27-.26-.36-.52l-.26-.89c-.31.28-.62.53-.91.75-.3.2-.6.38-.93.52a5.54 5.54 0 01-3.67.24 3.24 3.24 0 01-1.14-.63 2.83 2.83 0 01-.74-1.05 3.7 3.7 0 01-.11-2.37c.1-.31.27-.6.5-.89.24-.28.55-.54.93-.8a6 6 0 011.38-.64c.55-.18 1.19-.33 1.92-.44.73-.12 1.56-.2 2.5-.22v-.72c0-.82-.18-1.43-.53-1.82-.36-.4-.87-.6-1.53-.6a3.67 3.67 0 00-2.03.55l-.66.37c-.19.11-.4.17-.64.17a.88.88 0 01-.53-.16 1.43 1.43 0 01-.35-.38l-.53-.95zm24.2 10.6h-2.96v-10.12h-4.8v10.12h-2.96v-12.31h10.72v12.3zm15.13-12.31l-6.71 15.7c-.1.2-.2.36-.35.46-.14.11-.35.17-.64.17h-2.2l2.3-4.95-4.98-11.38h2.6a.8.8 0 01.54.16c.14.11.24.24.3.39l2.62 6.38a15.88 15.88 0 01.4 1.3 64.6 64.6 0 01.45-1.31l2.47-6.37c.07-.16.17-.3.31-.4.16-.1.33-.15.5-.15h2.39z" fill="#5E78FF"/><path d="M417 267.45c-68.07 0-123.24 55.18-123.24 123.25 0 68.06 55.17 123.24 123.24 123.24s123.24-55.18 123.24-123.24c0-53.17-33.67-98.48-80.85-115.76" stroke="#5E78FF" stroke-width="2" stroke-dasharray="5.5 5.5"/><path d="M416 263.2l4.24 4.25-4.25 4.25" stroke="#5E78FF" stroke-width="2" stroke-linecap="round"/></svg>