<svg width="188" height="1147" fill="none" xmlns="http://www.w3.org/2000/svg"><circle cx="94.14" cy="94.45" r="92.5" stroke="#5E78FF" stroke-width="2"/><path d="M32.82 68.27a3.15 3.15 0 002.9-2.07 3.65 3.65 0 00-.64-3.67 3.08 3.08 0 00-2.26-1.02v6.76zm-2.3-6.76a3.1 3.1 0 00-2.9 2.09 3.78 3.78 0 000 2.6 3.17 3.17 0 002.9 2.07v-6.76zm2.3-1.86c.81.02 1.56.18 2.23.46a5.49 5.49 0 012.9 2.78 4.97 4.97 0 01-1.15 5.66c-.49.47-1.07.85-1.75 1.13-.67.29-1.42.44-2.23.46v1.55h-2.3v-1.55a5.82 5.82 0 01-3.98-1.6 5.17 5.17 0 01-1.56-3.65 4.88 4.88 0 011.57-3.64 5.6 5.6 0 011.75-1.13 6.36 6.36 0 012.23-.47v-1.52h2.3v1.52zm12.16 2.66a5 5 0 011.86.34 4.04 4.04 0 012.37 2.44c.21.58.32 1.24.32 1.97s-.1 1.39-.32 1.98a3.98 3.98 0 01-2.37 2.46 5 5 0 01-1.86.33 5.1 5.1 0 01-1.88-.34 4.07 4.07 0 01-2.38-2.45 5.71 5.71 0 01-.32-1.98c0-.73.1-1.39.32-1.97a4.13 4.13 0 012.38-2.44 5.1 5.1 0 011.88-.34zm0 7.8c.77 0 1.33-.25 1.7-.77.37-.51.56-1.27.56-2.27s-.19-1.75-.56-2.27c-.37-.52-.93-.79-1.7-.79-.78 0-1.36.27-1.74.8a3.88 3.88 0 00-.56 2.26c0 1 .19 1.75.56 2.27.38.52.96.78 1.74.78zm9.47-.81c.25.3.53.52.82.65a2.48 2.48 0 001.88 0c.27-.13.5-.32.69-.58.19-.26.33-.58.44-.97.1-.4.15-.86.15-1.4 0-.54-.05-1-.14-1.37a2.6 2.6 0 00-.36-.91c-.17-.24-.36-.4-.6-.52a1.8 1.8 0 00-.78-.16c-.46 0-.86.1-1.18.3-.32.19-.63.46-.92.82v4.14zm-.12-5.58c.38-.43.81-.77 1.3-1.04a3.46 3.46 0 013.06-.08c.42.21.78.52 1.08.92.3.4.54.89.7 1.48a7.25 7.25 0 01-.02 3.92c-.19.59-.46 1.1-.8 1.53a3.65 3.65 0 01-2.89 1.38c-.52 0-.96-.08-1.33-.24a3.3 3.3 0 01-.98-.66v3.78h-2.22V62.46h1.36c.29 0 .47.13.56.4l.18.86zm19.81-1.28v9.25h-2v-5.15c0-.2 0-.44.02-.7.03-.27.06-.52.11-.75l-2.72 4.99a.66.66 0 01-.63.39h-.23a.66.66 0 01-.63-.39l-2.76-5.01a8.1 8.1 0 01.15 1.47v5.15h-2v-9.25h1.83c.15 0 .3.03.46.1.15.06.28.2.38.4l2.18 3.88a6.4 6.4 0 01.5 1.18l.23-.61c.08-.2.17-.4.27-.57l2.16-3.89a.8.8 0 01.39-.4c.15-.06.3-.1.46-.1h1.83zm11.5.02v9.23h-2.22V66.3a6.12 6.12 0 01.08-.95 4.36 4.36 0 01-.58.98 229.12 229.12 0 01-1 1.4 201.81 201.81 0 00-2.42 3.42c-.09.13-.2.25-.34.37a.66.66 0 01-.46.18h-1.36v-9.23h2.23v5.39l-.03.46-.05.5a4.69 4.69 0 01.56-.98 56.08 56.08 0 001-1.4l.66-.93 1.78-2.5c.09-.14.2-.26.33-.37a.7.7 0 01.47-.18h1.35zm5.42 6.84c.25.3.53.52.82.65a2.48 2.48 0 001.88 0c.27-.13.5-.32.69-.58.19-.26.33-.58.44-.97.1-.4.15-.86.15-1.4 0-.54-.05-1-.14-1.37a2.6 2.6 0 00-.36-.91c-.17-.24-.36-.4-.6-.52a1.8 1.8 0 00-.78-.16c-.46 0-.86.1-1.18.3-.32.19-.63.46-.92.82v4.14zm-.12-5.58c.38-.43.81-.77 1.3-1.04a3.46 3.46 0 013.06-.08c.42.21.78.52 1.08.92.3.4.54.89.7 1.48a7.25 7.25 0 01-.02 3.92c-.2.59-.46 1.1-.8 1.53a3.65 3.65 0 01-2.89 1.38c-.52 0-.96-.08-1.33-.24a3.3 3.3 0 01-.98-.66v3.78h-2.22V62.46h1.36c.29 0 .47.13.56.4l.18.86zm13.2-1.4a5 5 0 011.86.33 4.04 4.04 0 012.37 2.44c.21.58.32 1.24.32 1.97s-.1 1.39-.32 1.98A3.98 3.98 0 01106 71.5a5 5 0 01-1.86.33 5.1 5.1 0 01-1.88-.34 4.07 4.07 0 01-2.38-2.45 5.71 5.71 0 01-.32-1.98c0-.73.1-1.39.32-1.97a4.13 4.13 0 012.38-2.44 5.1 5.1 0 011.88-.34zm0 7.8c.77 0 1.33-.26 1.7-.78.37-.51.56-1.27.56-2.27s-.19-1.75-.56-2.27c-.37-.52-.94-.79-1.7-.79-.78 0-1.36.27-1.74.8a3.88 3.88 0 00-.56 2.26c0 1 .19 1.75.56 2.27.38.52.96.78 1.74.78zm11.02.05c.47 0 .84-.11 1.1-.34.28-.23.42-.54.42-.94 0-.17-.03-.32-.07-.47a.83.83 0 00-.24-.38c-.11-.11-.27-.2-.47-.25-.19-.06-.43-.1-.73-.1h-1.67v2.48h1.66zm-1.66-6.26v2.42h1.46c.22 0 .41-.03.6-.1.17-.06.33-.15.46-.26a1.3 1.3 0 00.34-1.35.85.85 0 00-.24-.36c-.11-.11-.27-.2-.46-.25-.18-.07-.42-.1-.7-.1h-1.46zm1.52-1.45c.59 0 1.09.05 1.5.17.43.11.78.27 1.06.47a1.86 1.86 0 01.8 1.59c0 .2-.02.4-.07.62a2.01 2.01 0 01-.8 1.15c-.22.16-.5.29-.84.38.3.07.58.16.84.28.25.11.46.26.64.44a1.96 1.96 0 01.57 1.41 2.38 2.38 0 01-1.08 2.06c-.32.23-.7.4-1.13.5-.43.1-.88.16-1.34.16h-3.78v-9.23h3.63zm11.3 5.29c-.64.03-1.18.09-1.62.17a4.2 4.2 0 00-1.06.3c-.26.13-.45.28-.56.45a.96.96 0 00-.17.55c0 .39.11.67.34.83.23.17.54.26.9.26.46 0 .86-.09 1.19-.25.33-.17.66-.42.98-.75v-1.56zm-5.1-4a5.48 5.48 0 013.84-1.46c.54 0 1.02.09 1.45.27a2.99 2.99 0 011.74 1.86c.16.44.24.92.24 1.44v5.83h-1.01c-.21 0-.37-.03-.49-.09-.11-.06-.2-.2-.27-.39l-.2-.66c-.23.2-.46.4-.68.56a4.2 4.2 0 01-1.47.64 4.16 4.16 0 01-1.98-.07c-.33-.1-.61-.26-.85-.47a2.12 2.12 0 01-.56-.79 2.78 2.78 0 01-.08-1.78c.08-.23.2-.46.38-.67.18-.2.4-.4.7-.59a4.5 4.5 0 011.03-.49c.41-.13.89-.24 1.44-.33.54-.09 1.17-.14 1.87-.16v-.54c0-.62-.13-1.07-.4-1.37-.26-.3-.64-.45-1.14-.45a2.76 2.76 0 00-1.52.42l-.5.27a.95.95 0 01-.48.13.66.66 0 01-.4-.12c-.1-.08-.2-.18-.26-.28l-.4-.72zm18.4-1.3v9.24h-2.22v-4.08h-3.6v4.08h-2.22v-9.23h2.22v3.5h3.6v-3.5h2.23zm11.5 0v9.24h-2.22V66.3a6.12 6.12 0 01.09-.95 4.36 4.36 0 01-.58.98 229.12 229.12 0 01-1 1.4 201.81 201.81 0 00-2.43 3.42c-.08.13-.2.25-.33.37a.66.66 0 01-.46.18h-1.36v-9.23h2.22v5.39c0 .14 0 .29-.03.46 0 .16-.03.32-.05.5a4.69 4.69 0 01.57-.98 56.08 56.08 0 001-1.4l.65-.93 1.79-2.5c.08-.14.2-.26.33-.37a.7.7 0 01.47-.18h1.35zm9.15 3.56c0-.29-.04-.56-.12-.8-.08-.27-.2-.5-.36-.68-.17-.2-.37-.34-.63-.45a2.04 2.04 0 00-.86-.17c-.64 0-1.15.18-1.52.55-.37.36-.6.88-.7 1.55h4.2zm-4.24 1.34c.04.48.12.89.25 1.24.14.34.31.62.53.85.21.22.47.4.76.5.3.11.63.17 1 .17.35 0 .66-.04.92-.13.26-.08.5-.18.68-.28l.52-.28c.15-.08.29-.12.43-.12.18 0 .32.07.41.2l.64.81a3.8 3.8 0 01-1.79 1.2 7.19 7.19 0 01-2.02.31 5 5 0 01-1.79-.3 4.09 4.09 0 01-2.4-2.5 6.03 6.03 0 01-.04-3.92 4.16 4.16 0 012.27-2.43 4.63 4.63 0 011.86-.36c.58 0 1.12.1 1.6.28a3.48 3.48 0 012.1 2.14c.2.51.31 1.1.31 1.77 0 .33-.04.56-.1.68-.08.12-.22.17-.42.17h-5.72zm-94.3 26.1c.35-.33.78-.6 1.3-.81a4.79 4.79 0 011.85-.33c.57 0 1.08.07 1.52.21.45.13.82.32 1.12.55.3.23.54.5.7.8a1.9 1.9 0 01.15 1.47 2.1 2.1 0 01-.71 1.05c-.19.15-.43.28-.7.39.5.19.9.47 1.2.84.32.38.48.83.48 1.38 0 .45-.1.85-.32 1.2-.2.34-.48.64-.82.89-.34.24-.73.42-1.18.55a4.9 4.9 0 01-4.02-.6c-.3-.2-.56-.44-.8-.73l.64-.8c.09-.14.22-.21.4-.21.14 0 .27.04.4.13l.43.29a2.5 2.5 0 001.45.41c.56 0 .98-.12 1.27-.37.29-.26.43-.57.43-.95a1 1 0 00-.45-.87c-.3-.21-.77-.32-1.44-.32H63.6v-1.45h1.04c.58 0 1.03-.1 1.34-.3.31-.2.47-.48.47-.81a.9.9 0 00-.41-.76c-.27-.2-.68-.3-1.21-.3a2.87 2.87 0 00-1.39.32l-.4.2a.58.58 0 01-.57.05.79.79 0 01-.22-.26l-.5-.85zm14.52 4.3c-.64.03-1.18.09-1.62.17a4.2 4.2 0 00-1.05.3c-.26.13-.45.28-.57.45a.96.96 0 00-.17.55c0 .39.12.67.35.83.23.17.53.26.9.26.46 0 .85-.09 1.18-.25.34-.17.67-.42.98-.75v-1.56zm-5.09-4a5.48 5.48 0 013.83-1.46c.54 0 1.03.09 1.45.27a2.99 2.99 0 011.75 1.86c.16.44.23.92.23 1.44v5.83h-1c-.21 0-.38-.03-.5-.09-.1-.06-.2-.2-.26-.39l-.2-.66c-.23.2-.46.4-.68.56a4.2 4.2 0 01-1.47.64 4.16 4.16 0 01-1.98-.07c-.33-.1-.61-.27-.85-.48a2.12 2.12 0 01-.56-.78 2.78 2.78 0 01-.08-1.78c.07-.23.2-.46.37-.67.18-.2.42-.4.7-.59a4.5 4.5 0 011.03-.49c.42-.13.9-.24 1.44-.33.55-.09 1.17-.14 1.87-.16v-.54c0-.62-.13-1.07-.4-1.37-.26-.3-.64-.45-1.13-.45a2.76 2.76 0 00-1.53.42l-.5.27a.95.95 0 01-.48.13.66.66 0 01-.4-.12c-.1-.08-.19-.18-.25-.28l-.4-.72zm15.17 2.87V93.9h-1.2c-.29 0-.52.04-.7.12-.2.08-.35.19-.47.32-.1.12-.19.27-.24.43-.05.16-.07.32-.07.48 0 .42.14.76.42 1 .3.24.68.36 1.16.36h1.1zm2.12-4.16v9.23h-2.12V98h-.39c-.17 0-.33.01-.44.05a.9.9 0 00-.5.34 8.3 8.3 0 00-.18.28l-1.48 2.27c-.07.12-.15.23-.23.33a1.09 1.09 0 01-.65.39c-.14.03-.3.04-.5.04h-1.54l2.33-3.26a1.87 1.87 0 011.03-.88 3.8 3.8 0 01-1.1-.36c-.3-.17-.55-.36-.73-.57a2.18 2.18 0 01-.53-1.46 2.34 2.34 0 01.85-1.86c.29-.26.67-.46 1.13-.6a5.23 5.23 0 011.66-.24h3.39zm6.98 7.71c.47 0 .84-.11 1.1-.34.28-.23.42-.54.42-.94 0-.17-.02-.32-.07-.47a.83.83 0 00-.24-.38c-.11-.11-.27-.2-.46-.25-.2-.06-.44-.1-.74-.1h-1.67v2.48h1.66zm-1.66-6.26v2.42h1.46c.22 0 .41-.03.6-.1.17-.06.33-.15.46-.26a1.3 1.3 0 00.34-1.35.85.85 0 00-.24-.36c-.11-.11-.27-.2-.46-.25-.18-.07-.42-.1-.7-.1h-1.46zm1.52-1.45c.59 0 1.09.05 1.5.17.43.11.78.27 1.06.47a1.86 1.86 0 01.81 1.59c0 .2-.03.4-.08.62a2.01 2.01 0 01-.8 1.15c-.22.16-.5.29-.84.38.3.07.59.16.84.28.25.11.47.26.65.44a1.96 1.96 0 01.57 1.41 2.38 2.38 0 01-1.09 2.06c-.32.23-.7.4-1.13.5-.43.1-.87.16-1.34.16h-3.78v-9.23h3.63zm10.5-.15a5 5 0 011.87.34 4.04 4.04 0 012.37 2.44c.21.58.32 1.24.32 1.97s-.1 1.39-.32 1.98a3.98 3.98 0 01-2.37 2.46 5 5 0 01-1.86.33 5.1 5.1 0 01-1.88-.34 4.07 4.07 0 01-2.38-2.45 5.71 5.71 0 01-.33-1.98c0-.73.11-1.39.33-1.97a4.13 4.13 0 012.38-2.44 5.1 5.1 0 011.88-.34zm0 7.8c.77 0 1.34-.25 1.7-.77.38-.51.57-1.27.57-2.27s-.2-1.75-.56-2.27c-.37-.52-.94-.79-1.7-.79-.78 0-1.36.27-1.74.8a3.88 3.88 0 00-.56 2.26c0 1 .19 1.75.56 2.27.38.52.96.78 1.74.78zm12.77-7.07a1.24 1.24 0 011.04-.58h1.74l-2.15 3.43c-.15.24-.3.43-.46.58-.15.15-.34.26-.56.34.3.1.54.23.73.4.2.18.37.4.53.67l2.16 3.81h-1.54c-.4 0-.7-.06-.91-.2-.22-.13-.4-.32-.55-.56l-1.36-2.56a1.2 1.2 0 00-1.12-.66h-.84v3.98h-2.22v-9.23h2.22v3.8h.72c.25 0 .45-.04.6-.13.16-.1.29-.24.4-.43l1.57-2.66zm-70.18 29.27a5 5 0 011.86.34 4.04 4.04 0 012.37 2.43c.22.6.32 1.25.32 1.98s-.1 1.39-.32 1.98a3.98 3.98 0 01-2.37 2.46 5 5 0 01-1.86.33 5.1 5.1 0 01-1.88-.34 4.07 4.07 0 01-2.38-2.45 5.71 5.71 0 01-.32-1.98c0-.73.1-1.39.32-1.98a4.13 4.13 0 012.38-2.44 5.1 5.1 0 011.88-.33zm0 7.8c.77 0 1.33-.25 1.7-.77.37-.51.56-1.27.56-2.27s-.19-1.75-.56-2.27c-.37-.52-.93-.79-1.7-.79-.78 0-1.36.27-1.74.8a3.88 3.88 0 00-.56 2.26c0 1 .19 1.75.56 2.27.38.52.96.78 1.74.78zm14.9-6H60v7.58h-2.22v-7.59h-3.29v-1.64h8.8v1.64zm13.2-1.07a1.24 1.24 0 011.04-.58h1.75l-2.15 3.43c-.15.24-.3.43-.46.58-.16.14-.35.26-.57.34.3.1.55.23.74.4.2.18.37.4.52.67l2.16 3.81h-1.54c-.39 0-.69-.06-.9-.2-.22-.13-.4-.32-.55-.56l-1.36-2.56a1.2 1.2 0 00-1.13-.66h-.84v3.98h-2.22v-9.23h2.22v3.8h.72c.26 0 .46-.04.6-.13.16-.1.3-.24.4-.43l1.58-2.66zm13.83 8.65H88.1v-7.53h-2.27a25.66 25.66 0 01-.33 2.93c-.15.82-.33 1.51-.54 2.08-.2.57-.44 1.03-.7 1.38-.25.34-.52.6-.8.8-.3.2-.59.32-.9.38-.3.06-.61.1-.92.1-.33 0-.58-.03-.73-.1-.15-.05-.23-.13-.23-.23v-1.38h.53c.2 0 .4-.03.6-.1.2-.05.39-.18.57-.36.2-.19.37-.45.54-.8.16-.34.32-.8.45-1.36.15-.57.27-1.27.38-2.1.11-.81.2-1.8.25-2.94h6.32v9.23zm11.49-9.23v9.23h-2.22v-5.39a6.12 6.12 0 01.08-.95 4.36 4.36 0 01-.58.98 229.12 229.12 0 01-1 1.4 201.81 201.81 0 00-2.43 3.42c-.08.13-.2.25-.33.37a.66.66 0 01-.46.18H93.5v-9.23h2.23v5.39l-.03.46-.06.5a4.69 4.69 0 01.57-.98 56.08 56.08 0 001-1.4l.66-.93 1.78-2.5c.08-.14.2-.26.33-.37a.7.7 0 01.47-.18h1.35zm9.15 3.55c0-.29-.05-.56-.13-.8-.08-.27-.2-.5-.36-.68-.16-.2-.37-.34-.62-.45a2.04 2.04 0 00-.87-.17c-.64 0-1.14.18-1.52.55-.36.36-.6.88-.7 1.55h4.2zm-4.24 1.34c.03.48.12.89.25 1.24.13.34.3.62.52.85.22.22.47.4.77.5.3.11.63.17.99.17s.67-.05.92-.13c.27-.08.5-.18.69-.28l.51-.28c.15-.08.3-.12.43-.12.19 0 .33.07.42.2l.64.81a3.8 3.8 0 01-1.8 1.2 7.19 7.19 0 01-2.02.31 5 5 0 01-1.78-.3 4.09 4.09 0 01-2.4-2.5 6.03 6.03 0 01-.05-3.92 4.16 4.16 0 012.27-2.43 4.63 4.63 0 011.86-.36c.58 0 1.12.1 1.61.28a3.48 3.48 0 012.1 2.13c.2.52.3 1.11.3 1.78 0 .33-.03.56-.1.68-.08.12-.21.17-.42.17h-5.71zm16.95-4.9v9.24h-2.22v-4.08h-3.6v4.08h-2.23v-9.23h2.22v3.5h3.6v-3.5h2.23zm11.12 1.65h-3.3v7.6h-2.22v-7.6h-3.28v-1.64h8.8v1.64zm7.13 3.65c-.64.03-1.18.09-1.62.17a4.2 4.2 0 00-1.05.3c-.26.13-.45.28-.57.45a.96.96 0 00-.17.55c0 .39.12.66.34.83.24.17.54.25.91.25.46 0 .85-.08 1.18-.24.34-.17.67-.42.98-.75v-1.56zm-5.09-4a5.48 5.48 0 013.83-1.46c.54 0 1.03.09 1.45.27a2.99 2.99 0 011.75 1.86c.16.44.23.92.23 1.44v5.83h-1c-.22 0-.38-.03-.5-.09-.1-.06-.2-.2-.26-.39l-.2-.66c-.23.2-.46.4-.68.56a4.2 4.2 0 01-1.47.63 4.16 4.16 0 01-1.98-.06 2.12 2.12 0 01-1.41-1.26 2.78 2.78 0 01-.08-1.78c.07-.23.2-.46.37-.67.18-.2.41-.4.7-.59a4.5 4.5 0 011.03-.49c.42-.13.9-.25 1.44-.33.55-.09 1.17-.14 1.87-.16v-.54c0-.62-.13-1.08-.4-1.37-.26-.3-.64-.45-1.13-.45a2.76 2.76 0 00-1.53.41l-.5.28a.95.95 0 01-.48.13.66.66 0 01-.4-.12c-.1-.08-.19-.18-.25-.28l-.4-.72z" fill="#5E78FF"/><path d="M94.14 197.95v30.09" stroke="#5E78FF" stroke-width="2"/><path d="M97.88 225.7l-3.74 3.73-3.74-3.73" stroke="#5E78FF" stroke-width="2" stroke-linecap="round"/><path d="M94.14 435.95v30.09" stroke="#5E78FF" stroke-width="2"/><path d="M97.88 463.7l-3.74 3.73-3.74-3.73" stroke="#5E78FF" stroke-width="2" stroke-linecap="round"/><path d="M94.14 674.43v30.1" stroke="#5E78FF" stroke-width="2"/><path d="M97.88 702.19l-3.74 3.73-3.74-3.73" stroke="#5E78FF" stroke-width="2" stroke-linecap="round"/><path d="M94.14 912.95v30.09" stroke="#5E78FF" stroke-width="2"/><path d="M97.88 940.7l-3.74 3.73-3.74-3.73" stroke="#5E78FF" stroke-width="2" stroke-linecap="round"/><circle cx="94.14" cy="332.45" r="92.5" stroke="#5E78FF" stroke-width="2"/><path d="M49.63 324.89h-2.44v-11.15h-5.65v11.15H39.1v-13.02h10.52v13.02zm5.62-2.4c.25.3.53.52.82.65a2.48 2.48 0 001.88 0c.27-.13.5-.32.69-.57.19-.26.33-.59.44-.98.1-.4.15-.86.15-1.4 0-.53-.05-.99-.14-1.36a2.6 2.6 0 00-.36-.92c-.17-.23-.36-.4-.6-.51a1.8 1.8 0 00-.78-.16c-.46 0-.86.1-1.18.3-.32.19-.63.46-.92.81v4.14zm-.12-5.58c.38-.42.81-.77 1.3-1.03a3.46 3.46 0 013.06-.08c.42.2.78.51 1.08.91.3.4.54.9.7 1.48a7.25 7.25 0 01-.02 3.93c-.19.58-.46 1.1-.8 1.52a3.65 3.65 0 01-2.89 1.38c-.52 0-.96-.08-1.33-.23a3.3 3.3 0 01-.98-.67v3.78h-2.22v-12.25h1.36c.29 0 .47.14.56.4l.18.86zm15.06 2.3c0-.29-.04-.56-.13-.81-.07-.26-.2-.48-.36-.68-.16-.19-.36-.34-.62-.45a2.04 2.04 0 00-.86-.17c-.64 0-1.15.19-1.52.55-.37.37-.6.89-.7 1.56h4.2zm-4.24 1.34c.04.47.12.88.25 1.23.14.34.31.63.53.86.21.22.47.39.76.5.3.1.63.16 1 .16.35 0 .66-.04.92-.12.26-.09.49-.18.68-.28l.51-.28c.15-.08.3-.13.44-.13.18 0 .32.07.41.21l.64.81a3.8 3.8 0 01-1.8 1.2 7.19 7.19 0 01-2.02.31 5 5 0 01-1.78-.31 4.09 4.09 0 01-2.4-2.5 6.03 6.03 0 01-.05-3.91 4.16 4.16 0 012.27-2.43 4.63 4.63 0 011.86-.36c.59 0 1.12.1 1.62.28a3.48 3.48 0 012.1 2.13c.2.52.3 1.1.3 1.77 0 .34-.04.57-.1.69-.08.11-.22.17-.42.17h-5.72zm15.03 2.75v-5.95H78.7c-.06.78-.14 1.48-.23 2.1-.09.62-.19 1.17-.31 1.66-.12.48-.25.9-.4 1.27-.13.36-.28.67-.45.92h3.66zm3.85-.06v4.08c0 .2-.06.36-.18.48a.6.6 0 01-.45.18h-1.39v-3.1h-6.9v2.47a.7.7 0 01-.16.44c-.1.13-.25.2-.46.2h-1.4v-4.69h.26c.2 0 .41-.02.6-.08.2-.06.4-.18.58-.36.18-.18.36-.44.52-.77.17-.34.32-.8.45-1.36.13-.57.24-1.27.34-2.1.1-.83.18-1.82.24-2.98h6.26v7.59h1.69zm6.33-7.73a5 5 0 011.86.33 4.04 4.04 0 012.37 2.44c.21.59.32 1.25.32 1.97 0 .73-.1 1.4-.32 1.98a3.98 3.98 0 01-2.37 2.46 5 5 0 01-1.86.33 5.1 5.1 0 01-1.88-.33 4.07 4.07 0 01-2.38-2.46 5.71 5.71 0 01-.32-1.98c0-.72.1-1.38.32-1.97a4.13 4.13 0 012.38-2.44 5.1 5.1 0 011.88-.33zm0 7.8c.77 0 1.33-.26 1.7-.77.37-.52.56-1.27.56-2.27s-.19-1.75-.56-2.28c-.37-.52-.93-.78-1.7-.78-.78 0-1.36.26-1.74.8a3.88 3.88 0 00-.56 2.26c0 .99.19 1.75.56 2.27.38.51.96.77 1.74.77zm15.3 1.58h-2.23v-7.59h-3.6v7.59h-2.22v-9.24h8.04v9.24zm11.76 0H116v-7.54h-2.27a25.66 25.66 0 01-.33 2.94c-.15.81-.33 1.5-.54 2.08-.2.57-.44 1.03-.7 1.37-.24.35-.52.61-.8.8-.3.2-.59.32-.9.38-.3.07-.6.1-.92.1-.33 0-.57-.03-.73-.09-.15-.05-.23-.13-.23-.23v-1.39h.54c.2 0 .4-.03.59-.09.2-.06.39-.18.58-.37.18-.18.36-.45.53-.79.17-.35.32-.8.46-1.37.14-.57.27-1.26.37-2.08.11-.83.2-1.81.26-2.96h6.31v9.24zm8.07-3.94c-.64.03-1.18.08-1.62.17a4.2 4.2 0 00-1.05.3c-.27.13-.45.27-.57.44a.96.96 0 00-.17.55c0 .4.12.67.34.84.24.17.54.25.91.25.46 0 .85-.08 1.18-.24.34-.17.66-.42.98-.76v-1.56zm-5.1-4.01a5.48 5.48 0 013.84-1.46c.54 0 1.03.1 1.45.27a2.99 2.99 0 011.75 1.87c.15.43.23.91.23 1.44v5.83h-1c-.22 0-.38-.03-.5-.1-.1-.06-.2-.19-.26-.38l-.2-.67c-.23.21-.46.4-.69.56a4.2 4.2 0 01-1.46.64 4.16 4.16 0 01-1.98-.06c-.33-.11-.62-.27-.86-.48a2.12 2.12 0 01-.56-.78 2.78 2.78 0 01-.08-1.78c.08-.24.2-.46.38-.67.18-.21.41-.4.7-.6a4.5 4.5 0 011.03-.48c.41-.14.9-.25 1.44-.33.55-.1 1.17-.15 1.87-.16v-.55c0-.61-.13-1.07-.4-1.36-.26-.3-.64-.45-1.14-.45a2.76 2.76 0 00-1.52.41l-.5.28a.95.95 0 01-.48.13.66.66 0 01-.4-.12c-.1-.08-.19-.18-.26-.29l-.4-.71zm18.13.36h-3.3v7.59h-2.22v-7.59h-3.29v-1.65h8.8v1.65zm7.13 3.64c-.64.04-1.18.1-1.62.18a4.2 4.2 0 00-1.05.3c-.27.13-.46.27-.57.44a.96.96 0 00-.17.55c0 .4.11.67.34.84.24.17.54.25.91.25.46 0 .85-.08 1.18-.24.34-.17.66-.42.98-.76v-1.56zm-5.1-4a5.48 5.48 0 013.84-1.46c.54 0 1.02.1 1.45.27a2.99 2.99 0 011.75 1.87c.15.43.23.91.23 1.44v5.83h-1c-.22 0-.38-.03-.5-.1-.1-.06-.2-.19-.27-.38l-.2-.67c-.23.21-.46.4-.68.56a4.2 4.2 0 01-1.46.64 4.16 4.16 0 01-1.98-.06c-.33-.11-.62-.27-.86-.48a2.12 2.12 0 01-.56-.78 2.78 2.78 0 01-.08-1.78c.08-.24.2-.46.38-.67.18-.21.41-.4.7-.6a4.5 4.5 0 011.03-.48c.41-.14.9-.25 1.44-.33.54-.1 1.17-.15 1.87-.16v-.55c0-.61-.13-1.07-.4-1.36-.26-.3-.64-.45-1.14-.45a2.76 2.76 0 00-1.52.41l-.5.28a.95.95 0 01-.48.13.66.66 0 01-.4-.12c-.1-.08-.2-.18-.26-.29l-.4-.71zM78.99 346.6a7.31 7.31 0 011.59-.17c.68 0 1.29.1 1.8.3a3.54 3.54 0 012.12 2.12 4.72 4.72 0 01-.1 3.45 4.27 4.27 0 01-2.54 2.4 5.41 5.41 0 01-3.09.2 6.14 6.14 0 01-1.93-.81 6.1 6.1 0 01-.73-.59l.69-.94c.14-.2.33-.31.57-.31.15 0 .3.05.45.14l.54.32c.2.11.44.22.7.31.28.1.61.15 1 .15.4 0 .76-.07 1.08-.2.3-.13.57-.32.77-.55.21-.24.37-.52.47-.85.1-.32.16-.68.16-1.07 0-.7-.2-1.26-.62-1.65-.4-.4-1.01-.6-1.82-.6a5.7 5.7 0 00-1.9.34l-1.38-.4 1.08-6.32h6.42v.95c0 .32-.1.57-.3.77-.2.2-.53.3-1 .3h-3.58l-.45 2.7zm17.77 1.78c0 1.13-.12 2.12-.37 2.96a5.95 5.95 0 01-1 2.07 4.07 4.07 0 01-3.41 1.62 4.11 4.11 0 01-3.4-1.62 6.05 6.05 0 01-1-2.07c-.24-.84-.36-1.83-.36-2.96 0-1.14.12-2.13.36-2.96.24-.84.58-1.53 1-2.07.43-.55.93-.95 1.5-1.22.59-.27 1.22-.4 1.9-.4.67 0 1.3.13 1.89.4.58.27 1.09.67 1.52 1.22.43.54.76 1.23 1 2.07.25.83.37 1.82.37 2.96zm-2.3 0a11 11 0 00-.2-2.34 4.63 4.63 0 00-.56-1.48 1.96 1.96 0 00-1.72-.99 1.98 1.98 0 00-1.71.99c-.23.37-.42.86-.55 1.48-.14.62-.2 1.4-.2 2.34s.06 1.72.2 2.34c.13.62.32 1.11.55 1.48.22.36.48.62.78.77a2.12 2.12 0 001.86 0c.3-.15.56-.4.8-.77.23-.37.41-.86.55-1.48a11 11 0 00.2-2.34zm10.46-3.36a3.38 3.38 0 01-.91 2.35 2.9 2.9 0 01-2.1.87c-.44 0-.84-.08-1.2-.23a2.8 2.8 0 01-.96-.64 3.05 3.05 0 01-.62-1.01c-.15-.4-.22-.85-.22-1.34 0-.5.07-.96.22-1.37a2.74 2.74 0 011.57-1.68c.37-.15.77-.23 1.2-.23a3.02 3.02 0 012.16.88c.27.28.48.63.63 1.03.15.41.23.87.23 1.37zm-1.71 0c0-.34-.04-.64-.1-.87a1.52 1.52 0 00-.29-.57.94.94 0 00-.41-.3 1.28 1.28 0 00-1 0 .95.95 0 00-.42.3c-.1.15-.19.34-.26.57-.06.23-.1.53-.1.87 0 .34.04.62.1.85.07.22.16.4.27.54.1.14.24.24.4.3a1.4 1.4 0 001 0c.17-.06.3-.16.42-.3.12-.14.22-.32.28-.54.07-.23.1-.51.1-.85zm6.04-2.8c.08-.09.17-.17.27-.24a.8.8 0 01.45-.1h1.62l-9.67 12.67c-.08.1-.17.18-.28.25a.8.8 0 01-.4.09h-1.65l9.66-12.67zm3.02 9.6a3.38 3.38 0 01-.9 2.36 3.03 3.03 0 01-3.31.64 2.92 2.92 0 01-.95-.64 3.05 3.05 0 01-.63-1.02c-.14-.4-.22-.84-.22-1.33 0-.5.08-.96.22-1.37a2.75 2.75 0 011.58-1.68c.37-.16.77-.24 1.2-.24a3.02 3.02 0 012.15.88c.27.29.48.63.63 1.04.15.4.23.86.23 1.37zm-1.72 0c0-.34-.03-.63-.1-.87a1.52 1.52 0 00-.27-.56.94.94 0 00-.42-.3 1.28 1.28 0 00-1 0 .95.95 0 00-.41.3c-.12.14-.2.33-.27.56-.06.24-.1.53-.1.88 0 .33.04.62.1.84.06.23.15.41.27.55.11.14.25.24.4.3a1.4 1.4 0 001 0c.17-.06.31-.16.43-.3.11-.14.2-.32.27-.55.07-.23.1-.5.1-.84z" fill="#5E78FF"/><circle cx="94.14" cy="570.93" r="92.5" stroke="#5E78FF" stroke-width="2"/><path d="M65.5 524.06c0 .96-.16 1.84-.48 2.66a6.18 6.18 0 01-3.4 3.5 7.1 7.1 0 01-2.7.5c-1 0-1.89-.17-2.7-.5a6.22 6.22 0 01-3.43-3.5 7.25 7.25 0 01-.47-2.66c0-.95.16-1.83.47-2.64a6.11 6.11 0 013.43-3.5c.81-.34 1.7-.5 2.7-.5a7.17 7.17 0 013.46.87 6 6 0 012.9 3.95c.15.58.22 1.19.22 1.82zm-2.47 0c0-.71-.1-1.35-.3-1.91a4.11 4.11 0 00-.81-1.45 3.5 3.5 0 00-1.3-.91 4.41 4.41 0 00-1.7-.32c-.64 0-1.22.1-1.73.32a3.6 3.6 0 00-2.11 2.36c-.2.56-.29 1.2-.29 1.91 0 .72.1 1.36.29 1.93a3.65 3.65 0 002.12 2.34c.5.2 1.08.31 1.71.31.64 0 1.2-.1 1.71-.31s.95-.51 1.3-.9c.35-.4.63-.88.82-1.44.19-.57.29-1.21.29-1.93zm13.17-1.08h-3.3v7.59h-2.22v-7.59h-3.29v-1.64h8.8v1.64zm9.6-1.64v9.23h-2.23v-3.63c-.79.2-1.53.3-2.2.33a4.57 4.57 0 01-1.77-.24c-.49-.19-.88-.5-1.16-.92-.27-.43-.41-1-.41-1.7v-3.07h2.22v2.72c0 .38.06.69.18.92.13.23.32.4.59.5.27.1.61.14 1.03.12.42-.02.93-.09 1.52-.2v-4.06h2.22zm9.15 3.55c0-.29-.05-.56-.13-.81-.08-.26-.2-.48-.36-.68-.16-.19-.37-.34-.62-.44a2.04 2.04 0 00-.87-.18c-.64 0-1.14.19-1.52.55-.36.37-.6.89-.7 1.56h4.2zm-4.24 1.34c.03.48.12.89.25 1.23.13.35.3.63.52.86.22.22.47.39.77.5.3.11.63.16.99.16s.66-.04.92-.12c.27-.09.5-.18.69-.28l.51-.28c.15-.08.3-.13.43-.13.19 0 .33.07.42.21l.63.81a3.8 3.8 0 01-1.79 1.2 7.19 7.19 0 01-2.02.31 5 5 0 01-1.78-.31 4.09 4.09 0 01-2.4-2.5 6.03 6.03 0 01-.05-3.9 4.16 4.16 0 012.27-2.43 4.63 4.63 0 011.86-.37c.58 0 1.12.1 1.61.28a3.48 3.48 0 012.1 2.13c.2.52.3 1.11.3 1.78 0 .33-.03.56-.1.68-.08.11-.21.17-.42.17h-5.71zm16.75-3.25h-3.3v7.59h-2.22v-7.59h-3.28v-1.64h8.8v1.64zm15.73 7.59h-2.22v-7.59h-3.6v7.59h-2.22v-9.24h8.04v9.24zm7.3-9.38a5 5 0 011.85.33 4.04 4.04 0 012.37 2.44c.22.6.32 1.25.32 1.97 0 .74-.1 1.4-.32 1.98a3.98 3.98 0 01-2.37 2.46 5 5 0 01-1.86.33 5.1 5.1 0 01-1.88-.33 4.07 4.07 0 01-2.38-2.46 5.71 5.71 0 01-.32-1.98c0-.72.1-1.38.32-1.97.23-.59.53-1.08.93-1.5.4-.4.89-.71 1.45-.94a5.1 5.1 0 011.88-.33zm0 7.8c.76 0 1.33-.25 1.7-.77.36-.52.55-1.27.55-2.27s-.19-1.75-.56-2.28c-.36-.52-.93-.78-1.7-.78-.78 0-1.36.27-1.74.8a3.88 3.88 0 00-.55 2.26c0 1 .18 1.75.55 2.27.38.52.96.77 1.74.77zm-91.73 31.58h-2.22v-7.59h-3.6v7.59h-2.22v-9.24h8.04v9.24zm5.43-2.4c.25.31.52.53.82.65a2.48 2.48 0 001.88 0c.27-.12.5-.32.68-.57.2-.26.34-.59.44-.98.1-.4.16-.86.16-1.39 0-.54-.05-1-.14-1.37a2.6 2.6 0 00-.37-.92c-.16-.23-.36-.4-.6-.5a1.8 1.8 0 00-.78-.17c-.46 0-.85.1-1.17.3-.33.19-.63.46-.92.81v4.14zm-.12-5.57c.38-.43.8-.78 1.29-1.04a3.46 3.46 0 013.07-.08c.42.2.78.51 1.08.92.3.4.54.88.7 1.47a7.25 7.25 0 01-.03 3.93c-.18.59-.45 1.1-.8 1.53a3.65 3.65 0 01-2.89 1.38c-.51 0-.96-.08-1.32-.24a3.3 3.3 0 01-.98-.67v3.78h-2.23v-12.25h1.36c.3 0 .48.14.57.41l.18.86zm13.2-1.4a5 5 0 011.86.32 4.04 4.04 0 012.36 2.44c.22.6.33 1.25.33 1.97 0 .74-.11 1.4-.33 1.98a3.98 3.98 0 01-2.37 2.46 5 5 0 01-1.86.33 5.1 5.1 0 01-1.88-.33 4.07 4.07 0 01-2.37-2.46 5.71 5.71 0 01-.33-1.98c0-.72.11-1.38.33-1.97.22-.59.53-1.08.92-1.5.4-.4.89-.71 1.45-.94a5.1 5.1 0 011.88-.33zm0 7.8c.76 0 1.33-.26 1.7-.78.37-.52.55-1.27.55-2.27s-.18-1.75-.56-2.28c-.36-.52-.93-.78-1.7-.78-.78 0-1.36.27-1.73.8a3.88 3.88 0 00-.56 2.26c0 1 .18 1.75.56 2.27.37.52.95.77 1.73.77zm13.14-.01v-5.95h-2.27c-.06.77-.14 1.47-.23 2.1-.09.61-.2 1.16-.31 1.65-.12.49-.25.9-.4 1.27-.14.36-.29.67-.45.93h3.66zm3.85-.07V563c0 .2-.06.37-.18.49a.6.6 0 01-.45.17h-1.39v-3.1h-6.91v2.48a.7.7 0 01-.15.43c-.1.13-.25.2-.46.2h-1.4v-4.68h.25c.21 0 .42-.03.62-.09s.38-.18.56-.36c.19-.18.36-.43.53-.77.16-.34.31-.8.45-1.36.13-.57.24-1.27.34-2.1.1-.82.18-1.82.24-2.97h6.26v7.58h1.69zm8.19-4.03c0-.29-.04-.56-.13-.81-.08-.26-.2-.48-.36-.68-.16-.19-.37-.34-.62-.44a2.04 2.04 0 00-.86-.18c-.64 0-1.15.19-1.52.55-.37.37-.6.89-.7 1.56h4.19zm-4.24 1.34c.04.48.12.89.25 1.23.13.35.3.63.52.86.22.22.47.39.77.5.3.11.63.16.99.16s.67-.04.93-.12c.26-.09.49-.18.68-.28l.51-.28c.15-.08.3-.13.43-.13.2 0 .33.07.42.21l.64.81a3.8 3.8 0 01-1.8 1.2 7.19 7.19 0 01-2.02.31 5 5 0 01-1.78-.31 4.09 4.09 0 01-2.4-2.5 6.03 6.03 0 01-.05-3.9 4.16 4.16 0 012.27-2.43 4.63 4.63 0 011.86-.37c.58 0 1.12.1 1.61.28a3.48 3.48 0 012.1 2.13c.2.52.3 1.11.3 1.78 0 .33-.03.56-.1.68-.07.11-.21.17-.42.17h-5.71zm17.47 4.34h-2.22v-7.53h-2.27a25.66 25.66 0 01-.33 2.93c-.15.82-.33 1.5-.54 2.08-.2.57-.44 1.03-.7 1.38-.25.34-.52.6-.8.8-.3.19-.59.31-.9.38-.3.06-.61.1-.92.1-.33 0-.57-.04-.73-.1-.15-.05-.23-.13-.23-.23v-1.39h.54c.2 0 .4-.03.59-.09.2-.06.39-.18.58-.37.18-.18.36-.44.53-.79.16-.35.32-.8.46-1.37.14-.57.27-1.26.37-2.08.11-.82.2-1.8.26-2.95h6.31v9.23zm8.07-3.94c-.64.03-1.18.08-1.62.17a4.2 4.2 0 00-1.05.3c-.27.13-.45.28-.57.44a.96.96 0 00-.17.55c0 .4.11.67.34.84.24.17.54.25.91.25.46 0 .85-.08 1.18-.24.34-.17.66-.42.98-.76v-1.55zm-5.1-4a5.48 5.48 0 013.84-1.47c.54 0 1.02.1 1.45.27a2.99 2.99 0 011.75 1.87c.15.44.23.92.23 1.44v5.83h-1c-.22 0-.38-.03-.5-.1-.1-.06-.2-.19-.26-.38l-.2-.66c-.24.2-.46.4-.69.55a4.2 4.2 0 01-1.46.64 4.16 4.16 0 01-1.98-.06c-.33-.1-.62-.27-.86-.48a2.12 2.12 0 01-.56-.78 2.78 2.78 0 01-.08-1.78c.08-.24.2-.46.38-.67.18-.2.41-.4.7-.6a4.5 4.5 0 011.03-.48c.41-.14.9-.25 1.44-.33.55-.1 1.17-.15 1.87-.16v-.54c0-.62-.13-1.08-.4-1.37-.26-.3-.64-.45-1.14-.45a2.76 2.76 0 00-1.52.41l-.5.28a.95.95 0 01-.48.13.66.66 0 01-.4-.12c-.1-.08-.2-.18-.26-.29l-.4-.7zm18.41-1.3v9.24h-2.22v-4.09h-3.6v4.09H109v-9.24h2.23v3.5h3.6v-3.5h2.22zm11.25 0v9.24h-2.23v-4.09h-3.6v4.09h-2.22v-9.24h2.22v3.5h3.6v-3.5h2.23zm6.97 7.65c.5 0 .88-.13 1.13-.38.25-.25.37-.58.37-.97a1.34 1.34 0 00-.35-.9 1.2 1.2 0 00-.47-.28c-.19-.08-.42-.11-.69-.11h-1.65v2.64h1.66zm-.02-4.23c.65 0 1.19.08 1.63.24.45.15.8.37 1.08.63s.48.57.6.92a3.1 3.1 0 01-.05 2.27c-.15.36-.37.68-.67.94-.3.26-.66.46-1.1.6-.42.15-.9.22-1.46.22h-3.78v-9.24h2.12v3.42h1.63zm7.4-3.41v9.23h-2.22v-9.24h2.22zm13.9-.02v9.25h-2.02v-5.15l.03-.71c.03-.26.06-.51.11-.74l-2.72 4.99a.66.66 0 01-.63.38h-.23a.66.66 0 01-.63-.38l-2.76-5.01a8.1 8.1 0 01.15 1.47v5.15h-2v-9.25h1.83c.15 0 .3.03.46.1.15.06.28.2.38.4l2.18 3.88a6.4 6.4 0 01.5 1.18l.23-.61c.08-.2.17-.4.27-.57l2.16-3.89a.8.8 0 01.39-.4c.15-.06.3-.1.46-.1h1.83zM56.12 588.17c.25.31.53.53.82.65a2.48 2.48 0 001.88 0c.27-.12.5-.32.68-.57.2-.26.34-.59.45-.98.1-.4.15-.86.15-1.39 0-.54-.05-1-.14-1.37a2.6 2.6 0 00-.37-.92c-.16-.23-.36-.4-.59-.5a1.8 1.8 0 00-.78-.17c-.46 0-.86.1-1.18.3-.33.19-.63.46-.92.81v4.14zm-.12-5.57c.38-.43.81-.78 1.29-1.04a3.46 3.46 0 013.07-.08c.42.2.78.51 1.08.92.3.4.54.88.7 1.47a7.25 7.25 0 01-.03 3.93c-.18.59-.45 1.1-.8 1.53a3.65 3.65 0 01-2.89 1.38c-.51 0-.95-.08-1.32-.24a3.3 3.3 0 01-.98-.67v3.78h-2.22v-12.25h1.36c.28 0 .47.14.56.41l.18.86zM70 586.63c-.64.03-1.18.08-1.62.17a4.2 4.2 0 00-1.05.3c-.27.13-.46.28-.57.44a.96.96 0 00-.17.55c0 .4.11.67.34.84.23.17.54.25.9.25.46 0 .86-.08 1.19-.24.33-.17.66-.42.98-.76v-1.55zm-5.1-4a5.48 5.48 0 013.84-1.47c.54 0 1.02.1 1.45.27a2.99 2.99 0 011.74 1.87c.16.44.24.92.24 1.44v5.83h-1.01c-.21 0-.37-.03-.49-.1-.11-.06-.2-.19-.27-.38l-.2-.66c-.23.2-.46.4-.68.55a4.2 4.2 0 01-1.47.64 4.16 4.16 0 01-1.98-.06c-.33-.1-.61-.27-.85-.48a2.12 2.12 0 01-.56-.78 2.78 2.78 0 01-.08-1.78c.08-.24.2-.46.38-.67.18-.2.4-.4.7-.6a4.5 4.5 0 011.03-.48c.41-.14.89-.25 1.44-.33.54-.1 1.17-.15 1.87-.16v-.54c0-.62-.13-1.08-.4-1.37-.26-.3-.64-.45-1.14-.45a2.76 2.76 0 00-1.52.41l-.5.28a.95.95 0 01-.48.13.66.66 0 01-.4-.12c-.1-.08-.2-.18-.26-.29l-.4-.7zm14.7 6.45c.77 0 1.34-.24 1.72-.73.38-.5.56-1.22.56-2.16 0-.95-.18-1.66-.55-2.16-.37-.49-.93-.73-1.69-.73-.75 0-1.33.23-1.72.7-.4.46-.6 1.15-.6 2.08 0 .98.19 1.72.56 2.24.38.5.95.76 1.72.76zm.65-9.42c-.57.04-1.05.15-1.45.33-.4.18-.73.43-1 .74-.25.3-.45.68-.59 1.1-.13.43-.2.9-.23 1.43a3.49 3.49 0 011.29-1.14 3.95 3.95 0 011.92-.45c.61 0 1.17.1 1.66.32.5.22.9.52 1.25.92a4 4 0 01.8 1.43 5.72 5.72 0 01-.06 3.72 4.01 4.01 0 01-2.37 2.33c-.56.2-1.19.31-1.87.31-.67 0-1.28-.1-1.85-.32a3.54 3.54 0 01-1.45-1.05 5.18 5.18 0 01-.95-1.9c-.23-.77-.34-1.72-.34-2.85 0-.94.09-1.81.26-2.62s.46-1.52.85-2.13c.4-.61.92-1.1 1.56-1.47.64-.38 1.44-.6 2.38-.67l3.28-.25.12 1.15c.02.25-.01.46-.1.63-.1.17-.28.26-.52.27l-2.6.17zm10.73 1.53a5 5 0 011.86.33 4.04 4.04 0 012.37 2.44c.22.6.33 1.25.33 1.97 0 .74-.11 1.4-.33 1.98a3.98 3.98 0 01-2.37 2.46 5 5 0 01-1.86.33 5.1 5.1 0 01-1.88-.33 4.07 4.07 0 01-2.38-2.46 5.71 5.71 0 01-.32-1.98c0-.72.1-1.38.32-1.97.23-.59.54-1.08.93-1.5.4-.4.89-.71 1.45-.94a5.1 5.1 0 011.88-.33zm0 7.8c.77 0 1.34-.25 1.7-.77.37-.52.56-1.27.56-2.27s-.19-1.75-.56-2.28c-.36-.52-.93-.78-1.7-.78-.78 0-1.36.27-1.74.8a3.88 3.88 0 00-.55 2.26c0 1 .18 1.75.55 2.27.38.52.96.77 1.74.77zm14.9-6h-3.29v7.58h-2.22v-7.59H97.1v-1.64h8.8v1.64zm7.14 3.64c-.64.03-1.18.08-1.62.17a4.2 4.2 0 00-1.05.3c-.27.13-.45.28-.57.44a.96.96 0 00-.17.55c0 .4.11.67.34.84.24.17.54.25.91.25.46 0 .85-.08 1.18-.24.34-.17.66-.42.98-.76v-1.55zm-5.1-4a5.48 5.48 0 013.84-1.47c.54 0 1.02.1 1.45.27a2.99 2.99 0 011.75 1.87c.15.44.23.92.23 1.44v5.83h-1c-.22 0-.38-.03-.5-.1-.1-.06-.2-.19-.26-.38l-.2-.66c-.24.2-.46.4-.69.55a4.2 4.2 0 01-1.46.64 4.16 4.16 0 01-1.98-.06c-.33-.1-.62-.27-.86-.48a2.12 2.12 0 01-.56-.78 2.78 2.78 0 01-.08-1.78c.08-.24.2-.46.38-.67.18-.2.41-.4.7-.6a4.5 4.5 0 011.03-.48c.41-.14.9-.25 1.44-.33.54-.1 1.17-.15 1.87-.16v-.54c0-.62-.13-1.08-.4-1.37-.26-.3-.64-.45-1.14-.45a2.76 2.76 0 00-1.52.41l-.5.28a.95.95 0 01-.48.13.66.66 0 01-.4-.12c-.1-.08-.2-.18-.26-.29l-.4-.7zm21.07-1.31v9.25h-2.01v-5.15c0-.2 0-.45.02-.71.03-.26.06-.51.11-.74l-2.72 4.99a.66.66 0 01-.63.38h-.23a.66.66 0 01-.63-.38l-2.75-5.01a8.1 8.1 0 01.14 1.47v5.15h-2v-9.25h1.83c.16 0 .3.03.46.1.16.06.28.2.39.4l2.17 3.88a6.4 6.4 0 01.5 1.18l.23-.61.27-.57 2.16-3.89a.8.8 0 01.39-.4c.15-.06.3-.1.46-.1h1.84zm-74.35 31.01c.35-.33.78-.6 1.3-.82a4.79 4.79 0 011.85-.32c.57 0 1.08.07 1.52.2.45.14.82.32 1.12.56.3.22.54.49.7.79a1.9 1.9 0 01.15 1.48 2.1 2.1 0 01-.71 1.05c-.19.15-.43.28-.7.38.5.2.9.48 1.2.85.32.37.47.83.47 1.38 0 .45-.1.85-.31 1.2-.2.34-.48.64-.82.89a4.9 4.9 0 01-5.2-.04c-.3-.2-.56-.45-.8-.74l.64-.8c.09-.15.22-.22.4-.22.14 0 .27.05.4.14l.43.29a2.5 2.5 0 001.45.41c.56 0 .98-.12 1.27-.38.29-.25.43-.56.43-.94a1 1 0 00-.45-.87c-.3-.21-.77-.32-1.44-.32H56.5v-1.45h1.04c.58 0 1.03-.1 1.34-.3.31-.2.47-.48.47-.81a.9.9 0 00-.42-.76c-.27-.2-.67-.3-1.2-.3a2.87 2.87 0 00-1.39.32l-.4.2a.58.58 0 01-.57.05.79.79 0 01-.22-.26l-.5-.86zm14.52 4.3c-.64.03-1.18.08-1.62.17a4.2 4.2 0 00-1.05.3c-.26.13-.45.28-.57.44a.96.96 0 00-.17.55c0 .4.12.67.34.84.24.17.54.25.91.25.46 0 .85-.08 1.18-.24.34-.17.66-.42.98-.76v-1.55zm-5.1-4a5.48 5.48 0 013.84-1.47c.54 0 1.03.1 1.45.27a2.99 2.99 0 011.75 1.87c.15.44.23.92.23 1.44v5.83h-1c-.22 0-.38-.03-.5-.1-.1-.06-.2-.19-.26-.38l-.2-.66c-.23.2-.46.4-.68.55a4.2 4.2 0 01-1.47.64 4.16 4.16 0 01-1.98-.06c-.33-.1-.62-.27-.86-.48a2.12 2.12 0 01-.55-.78 2.78 2.78 0 01-.09-1.78c.08-.24.2-.46.38-.67.18-.2.41-.4.7-.6a4.5 4.5 0 011.03-.48c.42-.14.9-.25 1.44-.33.55-.1 1.17-.15 1.87-.16v-.54c0-.62-.13-1.08-.4-1.37-.26-.3-.64-.45-1.14-.45a2.76 2.76 0 00-1.52.41l-.5.28a.95.95 0 01-.48.13.66.66 0 01-.4-.12c-.1-.08-.19-.18-.25-.29l-.4-.7zm26.44-1.31v9.25h-2v-5.15c0-.2 0-.45.02-.71.03-.26.06-.51.11-.74l-2.72 4.99a.66.66 0 01-.63.38h-.23a.66.66 0 01-.63-.38l-2.75-5.01a8.1 8.1 0 01.14 1.47v5.15h-2v-9.25h1.83c.15 0 .3.03.46.1.15.06.28.2.38.4l2.18 3.88a6.4 6.4 0 01.5 1.18l.23-.61.27-.57 2.16-3.89a.8.8 0 01.39-.4c.15-.06.3-.1.46-.1h1.83zm9.15 3.57c0-.29-.04-.56-.12-.81-.08-.26-.2-.48-.36-.68-.16-.19-.37-.34-.62-.44a2.04 2.04 0 00-.87-.18c-.64 0-1.15.19-1.52.55-.36.37-.6.89-.7 1.56h4.2zm-4.24 1.34c.04.48.12.89.26 1.23.13.35.3.63.52.86.21.22.47.39.76.5.3.11.63.16 1 .16.35 0 .66-.04.92-.12.26-.09.5-.18.68-.28l.52-.28c.15-.08.3-.13.43-.13.19 0 .32.07.41.21l.64.81a3.8 3.8 0 01-1.79 1.2 7.19 7.19 0 01-2.02.31 5 5 0 01-1.79-.31 4.09 4.09 0 01-2.4-2.5 6.03 6.03 0 01-.04-3.9 4.16 4.16 0 012.27-2.43 4.63 4.63 0 011.86-.37c.58 0 1.12.1 1.6.28a3.48 3.48 0 012.1 2.13c.21.52.31 1.11.31 1.78 0 .33-.03.56-.1.68-.08.11-.22.17-.42.17h-5.72zm15.53-2.94l-.2.2c-.06.04-.15.07-.27.07a.63.63 0 01-.34-.1l-.38-.24a2.52 2.52 0 00-1.3-.34c-.4 0-.74.08-1.03.22-.3.14-.54.34-.74.6-.2.27-.34.59-.43.96-.1.38-.15.8-.15 1.27 0 .5.05.93.16 1.32.1.38.26.7.45.97.2.26.44.46.72.6.29.13.6.2.96.2a2.4 2.4 0 001.41-.42l.39-.29a.6.6 0 01.38-.13c.18 0 .31.06.4.2l.64.81a4.14 4.14 0 01-2.66 1.44c-.32.05-.64.07-.97.07a3.86 3.86 0 01-2.93-1.25c-.38-.4-.68-.9-.9-1.5a5.9 5.9 0 01-.33-2.02c0-.67.1-1.3.3-1.88.2-.58.48-1.08.86-1.5.38-.43.84-.76 1.4-1 .56-.24 1.2-.36 1.93-.36.69 0 1.29.11 1.8.33.53.23 1 .54 1.41.96l-.58.8zm7.88 2.2v-2.7h-1.2c-.29 0-.52.04-.7.12-.2.08-.35.18-.47.32-.11.12-.2.26-.24.43-.05.16-.07.32-.07.47 0 .43.14.76.42 1 .29.24.67.36 1.15.36h1.1zm2.11-4.15v9.23h-2.11v-3.7h-.39c-.18 0-.33 0-.45.04a.9.9 0 00-.5.35 8.3 8.3 0 00-.17.28l-1.48 2.26c-.07.13-.15.24-.23.34a1.09 1.09 0 01-.65.38c-.14.03-.3.05-.5.05h-1.54l2.33-3.26a1.87 1.87 0 011.03-.88 3.8 3.8 0 01-1.1-.36c-.3-.17-.55-.36-.73-.58a2.18 2.18 0 01-.53-1.46 2.34 2.34 0 01.85-1.86c.28-.25.66-.45 1.13-.6a5.23 5.23 0 011.66-.24h3.38zm12.96 7.58V623c0 .2-.06.37-.18.49a.62.62 0 01-.46.17h-1.38v-3.1h-7.73v-9.22h2.23v7.58h3.6v-7.58h2.22v7.58h1.7z" fill="#5E78FF"/><circle cx="94.14" cy="809.45" r="92.5" stroke="#5E78FF" stroke-width="2"/><path d="M51.9 797.52a3.15 3.15 0 002.9-2.07 3.65 3.65 0 00-.64-3.67 3.08 3.08 0 00-2.26-1.02v6.76zm-2.3-6.76a3.1 3.1 0 00-2.9 2.09 3.78 3.78 0 000 2.6 3.17 3.17 0 002.9 2.07v-6.76zm2.3-1.86c.81.02 1.55.18 2.23.46a5.49 5.49 0 012.9 2.78 4.97 4.97 0 01-1.15 5.66c-.49.48-1.07.85-1.75 1.14-.68.28-1.42.43-2.23.45v1.55h-2.3v-1.55a5.82 5.82 0 01-3.98-1.6 5.17 5.17 0 01-1.56-3.65 4.88 4.88 0 011.57-3.64 5.6 5.6 0 011.75-1.13 6.36 6.36 0 012.22-.47v-1.52h2.3v1.52zm16.35 2.8v9.24h-2.22v-5.39a6.12 6.12 0 01.08-.95 4.36 4.36 0 01-.58.98 229.12 229.12 0 01-1 1.4 201.81 201.81 0 00-2.43 3.42c-.08.13-.19.25-.33.37a.66.66 0 01-.46.18h-1.36v-9.23h2.23v5.39l-.03.46-.05.5a4.69 4.69 0 01.56-.98 56.08 56.08 0 001-1.4l.66-.93 1.78-2.5c.08-.13.2-.26.33-.37a.7.7 0 01.47-.18h1.35zm11.24 0v9.24h-2.22v-4.08h-3.6v4.08h-2.22v-9.23h2.22v3.5h3.6v-3.5h2.22zm8.08 5.3c-.64.03-1.18.09-1.62.17a4.2 4.2 0 00-1.05.3c-.26.13-.45.28-.57.45a.96.96 0 00-.17.55c0 .39.12.67.34.83.24.17.54.26.91.26.46 0 .85-.08 1.18-.25.34-.16.67-.42.98-.75V797zm-5.09-4a5.48 5.48 0 013.83-1.46c.54 0 1.03.09 1.45.27a2.99 2.99 0 011.75 1.86c.15.44.23.92.23 1.44v5.83h-1c-.22 0-.38-.03-.5-.09-.1-.06-.2-.2-.26-.38l-.2-.67c-.23.21-.46.4-.68.56a4.2 4.2 0 01-1.47.64 4.16 4.16 0 01-1.98-.07 2.12 2.12 0 01-1.41-1.26 2.78 2.78 0 01-.08-1.78c.07-.23.2-.45.37-.66.18-.21.41-.41.7-.6a4.5 4.5 0 011.03-.48c.42-.14.9-.25 1.44-.34.55-.09 1.17-.14 1.87-.16v-.54c0-.62-.13-1.07-.4-1.37-.26-.3-.64-.45-1.14-.45a2.76 2.76 0 00-1.52.42l-.5.28a.95.95 0 01-.48.12.66.66 0 01-.4-.12c-.1-.08-.19-.17-.25-.28l-.4-.71zm18.92 7.94h-2.22v-7.53h-2.27a25.66 25.66 0 01-.33 2.93c-.15.82-.33 1.51-.54 2.08-.2.57-.43 1.03-.7 1.38-.24.34-.51.6-.8.8-.3.2-.59.32-.9.38-.3.06-.6.1-.92.1-.33 0-.57-.03-.73-.1-.15-.05-.22-.12-.22-.23v-1.38h.53c.2 0 .4-.03.6-.1.19-.05.38-.17.57-.36.18-.19.36-.45.53-.8.17-.34.32-.8.46-1.36.14-.57.27-1.27.37-2.09.11-.82.2-1.8.26-2.95h6.31v9.23zm6.96-1.59c.5 0 .88-.13 1.13-.38.25-.25.38-.57.38-.97a1.34 1.34 0 00-.35-.9 1.2 1.2 0 00-.47-.28c-.2-.07-.42-.1-.7-.1h-1.64v2.63h1.66zm-.01-4.22c.64 0 1.18.08 1.63.23.44.16.8.37 1.08.63.27.27.47.57.59.92a3.1 3.1 0 01-.05 2.28c-.14.36-.37.67-.67.93-.3.26-.66.46-1.09.6-.42.15-.91.22-1.47.22h-3.78v-9.23h2.12v3.42h1.64zm14.03-3.42v9.23h-2.23v-4.08h-3.6v4.08h-2.22v-9.23h2.22v3.5h3.6v-3.5h2.23zm8.08 5.3c-.65.02-1.19.08-1.62.16a4.2 4.2 0 00-1.06.3c-.26.13-.45.28-.56.45a.96.96 0 00-.17.55c0 .39.11.67.34.83.23.17.53.26.9.26.46 0 .86-.08 1.19-.25.33-.16.66-.42.98-.75V797zm-5.1-4.01a5.48 5.48 0 013.84-1.46c.54 0 1.02.09 1.45.27a2.99 2.99 0 011.74 1.86c.16.44.24.92.24 1.44v5.83h-1.01c-.21 0-.37-.03-.49-.09-.11-.06-.2-.2-.27-.38l-.2-.67c-.23.21-.46.4-.68.56a4.2 4.2 0 01-1.47.64 4.16 4.16 0 01-1.98-.07c-.33-.1-.61-.26-.85-.47a2.12 2.12 0 01-.56-.79 2.78 2.78 0 01-.08-1.78c.08-.23.2-.45.38-.66.18-.21.4-.41.69-.6a4.5 4.5 0 011.03-.48c.42-.14.9-.25 1.45-.34.54-.09 1.16-.14 1.87-.16v-.54c0-.62-.14-1.07-.4-1.37-.26-.3-.64-.45-1.14-.45a2.76 2.76 0 00-1.52.42l-.5.28a.95.95 0 01-.48.12.66.66 0 01-.4-.12c-.1-.08-.2-.17-.26-.28l-.4-.71zm15.17 2.87v-2.71h-1.2c-.28 0-.52.04-.7.12-.19.08-.34.19-.46.32s-.2.27-.25.43c-.04.16-.07.32-.07.48 0 .42.14.76.43 1 .28.24.67.36 1.15.36h1.1zm2.12-4.16v9.23h-2.12v-3.7h-.38c-.18 0-.33.01-.45.05a.9.9 0 00-.5.34 8.3 8.3 0 00-.18.28l-1.47 2.27c-.08.12-.15.24-.24.33a1.09 1.09 0 01-.65.39c-.13.03-.3.04-.5.04h-1.54l2.33-3.26a1.87 1.87 0 011.04-.88 3.8 3.8 0 01-1.11-.36c-.3-.17-.54-.36-.73-.57a2.18 2.18 0 01-.53-1.46 2.34 2.34 0 01.85-1.86c.29-.26.67-.46 1.13-.6a5.23 5.23 0 011.66-.24h3.39zM67.5 821.57a5 5 0 011.86.33 4.04 4.04 0 012.37 2.44c.22.58.32 1.24.32 1.97s-.1 1.39-.32 1.98a3.98 3.98 0 01-2.37 2.46 5 5 0 01-1.86.33 5.1 5.1 0 01-1.88-.34 4.07 4.07 0 01-2.38-2.45 5.71 5.71 0 01-.32-1.98c0-.73.1-1.38.32-1.97a4.13 4.13 0 012.38-2.44 5.1 5.1 0 011.88-.33zm0 7.8c.77 0 1.34-.26 1.7-.78.37-.51.56-1.27.56-2.26 0-1-.19-1.76-.56-2.28-.36-.52-.93-.78-1.7-.78-.78 0-1.36.26-1.74.79a3.88 3.88 0 00-.55 2.27c0 .99.18 1.74.55 2.26.38.52.96.78 1.74.78zm15.3 1.57h-2.23v-7.58h-3.6v7.58h-2.22v-9.23h8.05v9.23zm11.77 0h-2.23v-7.53h-2.26a25.66 25.66 0 01-.34 2.93c-.15.82-.33 1.51-.54 2.08-.2.57-.43 1.03-.69 1.38-.25.34-.52.6-.81.8-.29.2-.59.32-.9.38-.3.06-.6.1-.92.1-.33 0-.57-.03-.73-.1-.15-.05-.22-.12-.22-.23v-1.38h.53c.2 0 .4-.03.6-.1.2-.05.38-.17.57-.36.18-.19.36-.45.53-.8.17-.34.32-.8.46-1.36.14-.57.27-1.27.38-2.09.1-.82.19-1.8.25-2.95h6.32v9.23zm8.06-3.94c-.64.03-1.18.09-1.62.17a4.2 4.2 0 00-1.05.3c-.26.13-.45.28-.57.45a.96.96 0 00-.17.55c0 .39.12.67.35.83.23.17.53.26.9.26.46 0 .85-.08 1.18-.25.34-.16.67-.42.98-.75V827zm-5.09-4a5.48 5.48 0 013.83-1.46c.54 0 1.03.09 1.45.27a2.99 2.99 0 011.75 1.86c.16.44.23.92.23 1.44v5.83h-1c-.22 0-.38-.03-.5-.09-.1-.06-.2-.2-.26-.38l-.2-.67c-.23.21-.46.4-.68.56a4.2 4.2 0 01-1.47.64 4.16 4.16 0 01-1.98-.07c-.33-.1-.61-.26-.85-.47a2.12 2.12 0 01-.56-.79 2.78 2.78 0 01-.08-1.78c.07-.23.2-.45.37-.66.18-.21.42-.41.7-.6a4.5 4.5 0 011.03-.48c.42-.14.9-.25 1.44-.34.55-.09 1.17-.14 1.87-.16v-.54c0-.62-.13-1.07-.4-1.37-.26-.3-.64-.45-1.14-.45a2.76 2.76 0 00-1.52.42l-.49.28a.95.95 0 01-.49.12.66.66 0 01-.4-.12c-.1-.08-.19-.17-.25-.28l-.4-.71zm18.12.36h-3.3v7.58h-2.22v-7.58h-3.28v-1.65h8.8v1.65zm7.13 3.64c-.64.03-1.18.09-1.62.17a4.2 4.2 0 00-1.05.3c-.26.13-.45.28-.57.45a.96.96 0 00-.17.55c0 .39.12.67.34.83.24.17.54.26.91.26.46 0 .85-.08 1.18-.25.34-.16.66-.42.98-.75V827zm-5.1-4a5.48 5.48 0 013.84-1.46c.54 0 1.03.09 1.45.27a2.99 2.99 0 011.75 1.86c.15.44.23.92.23 1.44v5.83h-1c-.22 0-.38-.03-.5-.09-.1-.06-.2-.2-.26-.38l-.2-.67c-.23.21-.46.4-.68.56a4.2 4.2 0 01-1.47.64 4.16 4.16 0 01-1.98-.07 2.12 2.12 0 01-1.41-1.26 2.78 2.78 0 01-.09-1.78c.08-.23.2-.45.38-.66.18-.21.41-.41.7-.6a4.5 4.5 0 011.03-.48c.41-.14.9-.25 1.44-.34.55-.09 1.17-.14 1.87-.16v-.54c0-.62-.13-1.07-.4-1.37-.26-.3-.64-.45-1.14-.45a2.76 2.76 0 00-1.52.42l-.5.28a.95.95 0 01-.48.12.66.66 0 01-.4-.12c-.1-.08-.19-.17-.25-.28l-.4-.71z" fill="#5E78FF"/><path d="M94.14 964.05a90.8 90.8 0 1090.8 90.79 90.83 90.83 0 00-59.58-85.28" stroke="#5E78FF" stroke-width="2" stroke-dasharray="5.5 5.5"/><path d="M90.45 958.64l5.4 5.42-5.4 5.4" stroke="#5E78FF" stroke-width="2" stroke-linecap="round"/><path d="M50.4 1028.83h-2.44v-11.15h-5.65v11.15h-2.43v-13.01H50.4v13.01zm11.92 0h-2.23v-7.53h-2.26a25.64 25.64 0 01-.34 2.93c-.15.82-.33 1.51-.54 2.08a5.4 5.4 0 01-.69 1.38c-.25.34-.52.61-.8.8a2.5 2.5 0 01-.9.38c-.3.06-.62.1-.93.1-.33 0-.57-.03-.73-.09-.15-.06-.22-.13-.22-.24v-1.38h.53c.2 0 .4-.03.6-.09.2-.06.38-.19.57-.37.19-.19.36-.45.53-.79.17-.35.32-.81.46-1.37.14-.57.27-1.27.38-2.09.1-.82.19-1.81.25-2.95h6.32v9.23zm8.07-3.94c-.65.03-1.19.09-1.62.17-.44.08-.8.18-1.06.31-.26.12-.45.27-.56.44a.96.96 0 00-.18.55c0 .39.12.67.35.83.23.17.53.26.9.26.46 0 .85-.08 1.18-.25.34-.16.67-.42.99-.75v-1.56zm-5.1-4a5.45 5.45 0 013.84-1.46c.54 0 1.02.09 1.44.27a3.01 3.01 0 011.75 1.86c.16.44.23.92.23 1.44v5.83h-1c-.21 0-.38-.03-.49-.09-.11-.06-.2-.19-.27-.38l-.2-.67c-.23.21-.46.4-.68.56a4.03 4.03 0 01-3.45.57 2.3 2.3 0 01-.85-.47 2.08 2.08 0 01-.56-.79 2.76 2.76 0 01-.08-1.78c.08-.23.2-.45.38-.66.18-.21.4-.41.69-.6.28-.18.63-.35 1.03-.48.42-.14.9-.25 1.44-.34.55-.09 1.17-.14 1.88-.16v-.54c0-.62-.14-1.07-.4-1.37-.26-.3-.65-.45-1.14-.45a2.6 2.6 0 00-1.52.42l-.5.28a.98.98 0 01-.49.12.65.65 0 01-.4-.12 1.1 1.1 0 01-.25-.28l-.4-.71zm18.4-1.29v9.23h-2.22v-4.08h-3.6v4.08h-2.22v-9.23h2.22v3.5h3.6v-3.5h2.22zm10.8 6.84c.26.3.53.52.83.65.3.12.62.19.97.19.33 0 .64-.07.9-.19.28-.13.5-.32.69-.58.2-.26.34-.58.44-.97.1-.4.15-.86.15-1.4 0-.54-.04-.99-.13-1.36-.09-.38-.2-.69-.37-.92a1.46 1.46 0 00-.6-.52c-.22-.1-.48-.16-.78-.16-.46 0-.85.1-1.18.3-.32.19-.63.46-.91.82v4.14zm-.11-5.58c.38-.43.8-.77 1.29-1.04a3.5 3.5 0 013.06-.08c.42.21.78.52 1.08.92.31.4.55.89.7 1.48a7.22 7.22 0 01-.02 3.92 4.6 4.6 0 01-.8 1.53c-.34.43-.76.77-1.25 1.02-.49.24-1.03.36-1.64.36a3.3 3.3 0 01-1.32-.24c-.37-.16-.7-.38-.98-.66v3.78h-2.23v-12.25h1.36c.29 0 .48.13.57.4l.18.86zm13.98 4.03c-.64.03-1.18.09-1.62.17-.43.08-.78.18-1.05.31-.26.12-.45.27-.57.44a.96.96 0 00-.17.55c0 .39.12.67.34.83.24.17.54.26.91.26.46 0 .85-.08 1.18-.25.34-.16.67-.42.98-.75v-1.56zm-5.09-4a5.45 5.45 0 013.83-1.46c.54 0 1.03.09 1.45.27a3.01 3.01 0 011.75 1.86c.16.44.23.92.23 1.44v5.83h-1c-.22 0-.38-.03-.5-.09-.1-.06-.2-.19-.26-.38l-.2-.67c-.23.21-.46.4-.68.56a4.03 4.03 0 01-3.45.57 2.3 2.3 0 01-.86-.47 2.08 2.08 0 01-.55-.79 2.76 2.76 0 01-.08-1.78c.07-.23.2-.45.37-.66.18-.21.42-.41.7-.6.28-.18.62-.35 1.03-.48.42-.14.9-.25 1.44-.34.55-.09 1.17-.14 1.87-.16v-.54c0-.62-.13-1.07-.4-1.37-.26-.3-.64-.45-1.13-.45a2.6 2.6 0 00-1.53.42l-.5.28a.98.98 0 01-.48.12.65.65 0 01-.4-.12 1.1 1.1 0 01-.25-.28l-.4-.71zm14.7 6.46c.76 0 1.34-.25 1.71-.74a3.5 3.5 0 00.57-2.16c0-.94-.19-1.66-.56-2.15-.36-.49-.92-.74-1.68-.74-.76 0-1.33.23-1.73.7-.4.46-.6 1.16-.6 2.08 0 .98.2 1.73.57 2.24.37.51.95.77 1.72.77zm.64-9.43c-.56.04-1.04.15-1.45.34-.4.18-.72.42-.99.74-.25.3-.45.67-.59 1.1-.13.43-.21.9-.23 1.42a3.51 3.51 0 012.18-1.47 4.3 4.3 0 012.69.21c.49.21.9.52 1.25.91.34.4.6.88.79 1.43a5.8 5.8 0 01-.06 3.72 3.94 3.94 0 01-2.36 2.33 5.33 5.33 0 01-3.72-.01 3.45 3.45 0 01-1.45-1.05 5.24 5.24 0 01-.95-1.89c-.23-.78-.34-1.73-.34-2.85 0-.94.08-1.82.26-2.63.17-.81.45-1.52.85-2.12.4-.62.92-1.11 1.56-1.48a5.68 5.68 0 012.37-.67l3.29-.25.12 1.15c.02.25-.02.46-.11.63-.1.17-.27.26-.52.27l-2.59.17zm10.74 1.53c.68 0 1.3.12 1.86.34a3.97 3.97 0 012.37 2.44c.21.58.32 1.24.32 1.97s-.1 1.39-.32 1.98a4.14 4.14 0 01-2.37 2.45c-.56.23-1.18.34-1.86.34-.7 0-1.32-.11-1.88-.34a4.09 4.09 0 01-2.38-2.45 5.73 5.73 0 01-.32-1.98c0-.73.1-1.39.32-1.97a4.06 4.06 0 012.38-2.44c.56-.22 1.19-.34 1.88-.34zm0 7.81c.77 0 1.33-.26 1.7-.78.37-.51.56-1.27.56-2.26 0-1-.19-1.76-.56-2.28-.37-.52-.94-.78-1.7-.78-.78 0-1.36.26-1.74.79a3.88 3.88 0 00-.56 2.27c0 .99.19 1.74.56 2.26.38.52.96.78 1.74.78zm14.9-6.01h-3.29v7.58h-2.22v-7.58h-3.29v-1.65h8.8v1.65zM35.04 1049.6v9.23H32.8v-4.08h-3.6v4.08H27v-9.23h2.22v3.5h3.6v-3.5h2.23zm8.08 5.29c-.65.03-1.19.09-1.62.17-.44.08-.8.18-1.06.31-.26.12-.45.27-.56.44a.96.96 0 00-.17.55c0 .39.11.67.34.83.23.17.53.26.9.26.46 0 .86-.08 1.19-.25.33-.16.66-.42.98-.75v-1.56zm-5.1-4a5.45 5.45 0 013.84-1.46c.54 0 1.02.09 1.45.27a3.01 3.01 0 011.75 1.86c.15.44.23.92.23 1.44v5.83h-1.01c-.21 0-.37-.03-.49-.09-.11-.06-.2-.19-.27-.38l-.2-.67c-.23.21-.46.4-.68.56a4.03 4.03 0 01-3.45.57 2.3 2.3 0 01-.85-.47 2.08 2.08 0 01-.56-.79 2.76 2.76 0 01-.08-1.78c.08-.23.2-.45.38-.66.18-.21.4-.41.69-.6.28-.18.63-.35 1.03-.48.42-.14.9-.25 1.44-.34.55-.09 1.17-.14 1.88-.16v-.54c0-.62-.14-1.07-.4-1.37-.26-.3-.64-.45-1.14-.45a2.6 2.6 0 00-1.52.42l-.5.28a.98.98 0 01-.48.12.65.65 0 01-.4-.12 1.1 1.1 0 01-.26-.28l-.4-.71zm22.35.66a.94.94 0 01-.2.2c-.06.05-.15.07-.27.07a.6.6 0 01-.33-.1 5.23 5.23 0 00-.93-.47 2.4 2.4 0 00-.76-.1c-.4 0-.73.07-1.03.21-.3.14-.54.34-.74.61-.19.26-.33.58-.43.96-.1.37-.14.79-.14 1.27 0 .49.05.93.15 1.31.1.39.26.71.46.97s.44.46.72.6c.28.13.6.2.95.2.36 0 .64-.05.86-.13.22-.09.4-.19.56-.29.15-.11.28-.2.38-.29a.6.6 0 01.38-.13c.18 0 .32.07.4.21l.65.81a4.09 4.09 0 01-1.7 1.19c-.31.12-.63.2-.96.25-.32.04-.65.07-.97.07a3.87 3.87 0 01-2.93-1.25 4.54 4.54 0 01-.9-1.5 5.88 5.88 0 01-.33-2.02c0-.68.1-1.31.29-1.88a4 4 0 012.27-2.51c.56-.24 1.2-.36 1.92-.36a4.44 4.44 0 013.21 1.29l-.58.81zm11.64 7.28h-2.23v-7.53h-2.26a25.64 25.64 0 01-.34 2.93c-.15.82-.33 1.51-.54 2.08a5.4 5.4 0 01-.69 1.38c-.25.34-.52.61-.8.8a2.5 2.5 0 01-.9.38c-.3.06-.62.1-.93.1-.33 0-.57-.03-.73-.09-.15-.06-.22-.13-.22-.24v-1.38h.53c.2 0 .4-.03.6-.09.2-.06.38-.19.57-.37.19-.19.36-.45.53-.79.17-.35.32-.81.46-1.37.14-.57.27-1.27.38-2.09.1-.82.19-1.81.25-2.95h6.32v9.23zm9.14-5.68c0-.28-.05-.55-.13-.81a1.69 1.69 0 00-.98-1.12 1.95 1.95 0 00-.86-.17c-.65 0-1.15.18-1.53.55-.36.36-.6.88-.7 1.55h4.2zm-4.24 1.34c.03.48.12.89.25 1.24a2.25 2.25 0 001.29 1.36 3.11 3.11 0 001.91.03 6.63 6.63 0 001.2-.56c.15-.08.3-.12.43-.12.19 0 .33.07.42.21l.64.81a4.52 4.52 0 01-1.8 1.19c-.33.12-.66.2-1.01.25-.34.04-.68.07-1 .07a5 5 0 01-1.8-.32 4.05 4.05 0 01-2.4-2.49 6.02 6.02 0 01-.04-3.92 4.21 4.21 0 014.13-2.79c.58 0 1.12.1 1.61.28a3.54 3.54 0 012.1 2.14c.2.51.3 1.1.3 1.77 0 .34-.03.56-.1.68-.08.12-.21.17-.42.17h-5.71zm15.02 2.76v-5.95h-2.26c-.06.77-.14 1.47-.23 2.1-.09.61-.2 1.17-.31 1.65-.12.49-.26.91-.4 1.27s-.29.67-.45.93h3.65zm3.86-.06v4.07c0 .21-.06.37-.18.49a.6.6 0 01-.45.18h-1.39v-3.1h-6.91v2.47a.7.7 0 01-.16.43c-.1.13-.24.2-.45.2h-1.4v-4.68h.25c.21 0 .42-.03.61-.08.2-.06.4-.18.57-.36.19-.18.36-.44.52-.78.17-.34.32-.79.45-1.36.14-.57.25-1.26.35-2.09.1-.83.18-1.82.24-2.98h6.25v7.59h1.7zm10.3-7.59l-5.04 11.77a.8.8 0 01-.26.35c-.1.09-.26.13-.48.13h-1.65l1.73-3.71-3.74-8.54h1.95c.18 0 .31.04.4.12.11.09.18.18.23.29l1.96 4.79a10.2 10.2 0 01.3.98l.16-.49.18-.5 1.86-4.78a.6.6 0 01.23-.29.64.64 0 01.38-.12h1.78zm10.44 7.66c.72 0 1.25-.26 1.6-.78.33-.51.5-1.27.5-2.26 0-1-.17-1.76-.5-2.28-.35-.52-.88-.78-1.6-.78-.72 0-1.25.26-1.6.79a4.15 4.15 0 00-.5 2.27c0 .99.16 1.75.5 2.26.34.52.87.78 1.6.78zm-4.28-3.9c.07-.61.22-1.15.44-1.63a3.77 3.77 0 012.19-2.01c.5-.18 1.05-.27 1.65-.27.66 0 1.27.12 1.8.34a3.86 3.86 0 012.28 2.44c.22.58.32 1.24.32 1.97s-.1 1.39-.32 1.98a3.98 3.98 0 01-2.3 2.45 5 5 0 01-3.47.06 3.8 3.8 0 01-2.18-2.07 5.4 5.4 0 01-.42-1.68h-1.83v3.89h-2.22v-9.23h2.22v3.76h1.84zm25.83 3.83v4.07c0 .21-.06.37-.18.49a.6.6 0 01-.45.18h-1.38v-3.1h-12.45v-9.23h2.22v7.59h3.05v-7.59h2.23v7.59h3.05v-7.59h2.22v7.59h1.7zm10.7-7.59v9.23h-2.21v-5.39a6.04 6.04 0 01.08-.95 4.63 4.63 0 01-.58.98l-.42.58-.58.82-.66.92-1.77 2.5c-.08.13-.2.25-.33.37a.66.66 0 01-.46.18h-1.36v-9.23h2.22v5.39c0 .14 0 .29-.02.46l-.06.49a5.34 5.34 0 01.57-.97l.41-.58.59-.81.66-.94 1.78-2.5c.08-.13.2-.26.33-.37a.7.7 0 01.47-.18h1.35zm11.5 0v9.23h-2.22v-5.39a6.04 6.04 0 01.08-.95 4.63 4.63 0 01-.57.98l-.43.58-.57.82-.66.92-1.77 2.5c-.09.13-.2.25-.34.37a.66.66 0 01-.46.18H152v-9.23h2.22v5.39l-.03.46-.05.49a5.34 5.34 0 01.56-.97l.42-.58.58-.81.66-.94 1.78-2.5c.09-.13.2-.26.34-.37a.7.7 0 01.46-.18h1.35zm-4.02-2.34c.22 0 .4-.03.56-.07a.76.76 0 00.36-.24 1 1 0 00.19-.45c.03-.18.05-.41.05-.68h1.32c.15 0 .26.06.34.2.07.12.11.26.11.42 0 .31-.06.58-.2.84-.14.24-.34.45-.6.63-.25.16-.56.3-.92.39a4.97 4.97 0 01-2.42 0 3.25 3.25 0 01-.92-.39 1.97 1.97 0 01-.6-.63c-.13-.26-.2-.53-.2-.84 0-.16.03-.3.1-.42.08-.14.2-.2.35-.2h1.32c0 .27.02.5.05.68a1 1 0 00.2.45c.08.11.2.19.34.24.15.04.34.07.57.07zm-78.07 32.32v9.25h-2v-5.15c0-.21 0-.44.02-.71.03-.26.06-.51.11-.73l-2.72 4.98a.66.66 0 01-.63.39h-.23a.66.66 0 01-.63-.39l-2.76-5.01a8.26 8.26 0 01.15 1.47v5.15h-2v-9.25h1.83c.15 0 .3.03.46.1.15.07.28.2.38.4l2.18 3.88a7.06 7.06 0 01.5 1.18l.23-.61c.08-.2.17-.39.27-.57l2.16-3.88c.1-.21.24-.34.39-.4.15-.07.3-.1.46-.1h1.83zm9.15 3.57c0-.28-.04-.55-.12-.81a1.69 1.69 0 00-.98-1.12 1.95 1.95 0 00-.87-.17c-.64 0-1.15.18-1.52.55-.36.36-.6.88-.7 1.55h4.2zm-4.24 1.34c.04.48.12.89.26 1.24a2.25 2.25 0 001.29 1.36 3.11 3.11 0 001.91.03 6.63 6.63 0 001.2-.56c.15-.08.3-.12.43-.12.19 0 .32.07.41.21l.64.81a4.52 4.52 0 01-1.8 1.19c-.32.12-.66.2-1 .25-.35.04-.68.07-1 .07a5 5 0 01-1.8-.32 4.05 4.05 0 01-2.4-2.49 6.02 6.02 0 01-.04-3.92 4.21 4.21 0 014.13-2.79c.58 0 1.12.1 1.6.28a3.54 3.54 0 012.1 2.14c.2.51.31 1.1.31 1.77 0 .34-.03.56-.1.68-.08.12-.22.17-.42.17H83.1zm15.52-2.94a.94.94 0 01-.2.2c-.05.05-.14.07-.26.07a.6.6 0 01-.34-.1 5.23 5.23 0 00-.92-.47 2.4 2.4 0 00-.77-.1c-.39 0-.73.07-1.02.21-.3.14-.54.34-.74.61-.2.26-.34.58-.43.96-.1.37-.15.79-.15 1.27 0 .49.05.93.15 1.31.11.39.27.71.46.97.2.26.44.46.72.6.29.13.6.2.96.2.35 0 .64-.05.85-.13.22-.09.41-.19.56-.29l.39-.29a.6.6 0 01.38-.13c.18 0 .31.07.4.21l.64.81a4.09 4.09 0 01-1.7 1.19c-.3.12-.63.2-.96.25-.32.04-.64.07-.97.07a3.87 3.87 0 01-2.93-1.25 4.54 4.54 0 01-.9-1.5 5.88 5.88 0 01-.33-2.02c0-.68.1-1.31.3-1.88a4 4 0 012.27-2.51c.55-.24 1.19-.36 1.92-.36a4.44 4.44 0 013.21 1.29l-.59.81zm7.89 2.21v-2.71h-1.2c-.29 0-.52.04-.71.12-.19.08-.34.19-.46.32-.11.12-.2.27-.24.43-.05.16-.07.32-.07.48 0 .42.14.76.42 1 .29.24.67.36 1.15.36h1.1zm2.11-4.16v9.23h-2.11v-3.71h-.39a1.44 1.44 0 00-.75.19c-.07.06-.14.13-.2.21l-.17.28-1.48 2.27c-.07.12-.15.23-.23.33a.91.91 0 01-.28.24c-.1.06-.23.11-.37.15-.14.03-.3.04-.5.04h-1.55l2.34-3.26c.12-.22.27-.41.44-.54.16-.14.36-.25.6-.34-.44-.08-.81-.2-1.12-.36a2.28 2.28 0 01-1.26-2.03 2.35 2.35 0 01.85-1.86c.3-.26.67-.46 1.13-.61a5.41 5.41 0 011.67-.23h3.38zm12.96 7.59v4.07c0 .21-.06.37-.18.49a.62.62 0 01-.46.18h-1.38v-3.1h-7.73v-9.23h2.23v7.59h3.6v-7.59h2.22v7.59h1.7z" fill="#5E78FF"/></svg>