<svg width="1215" height="594" fill="none" xmlns="http://www.w3.org/2000/svg"><rect x="1.55" y="1.81" width="1212.41" height="184.09" rx="92.04" stroke="#5E78FF" stroke-width="2"/><circle cx="81.3" cy="93.85" r="31" fill="#5E78FF"/><path d="M143.78 94.67c0 1.28-.2 2.46-.63 3.54a8.17 8.17 0 01-4.55 4.67 9.46 9.46 0 01-3.6.66c-1.31 0-2.5-.22-3.59-.66a8.3 8.3 0 01-2.78-1.86 8.39 8.39 0 01-1.79-2.8 9.67 9.67 0 01-.64-3.55c0-1.27.22-2.44.64-3.52a8.15 8.15 0 014.57-4.67 9.28 9.28 0 013.6-.67 9.56 9.56 0 014.61 1.17 8 8 0 013.88 5.27c.19.77.28 1.58.28 2.42zm-3.3 0c0-.95-.12-1.8-.38-2.55a5.48 5.48 0 00-1.1-1.93 4.66 4.66 0 00-1.72-1.22 5.88 5.88 0 00-2.28-.42c-.85 0-1.61.14-2.3.42a4.8 4.8 0 00-2.81 3.15 7.9 7.9 0 00-.38 2.55c0 .96.12 1.81.38 2.57a4.87 4.87 0 002.82 3.12c.68.28 1.44.42 2.3.42.84 0 1.6-.14 2.27-.42a4.73 4.73 0 001.73-1.2 5.5 5.5 0 001.1-1.92c.25-.76.38-1.61.38-2.57zm19.46 6.48v5.44c0 .27-.08.49-.24.65a.83.83 0 01-.61.24h-1.85v-4.13h-10.3V91.04h2.97v10.11h4.8V91.04h2.96v10.11h2.27zm10.58-5.37c0-.39-.06-.75-.17-1.08a2.5 2.5 0 00-.48-.9 2.2 2.2 0 00-.83-.6 2.72 2.72 0 00-1.15-.23c-.85 0-1.53.24-2.02.73-.5.49-.8 1.18-.94 2.08h5.6zm-5.65 1.79c.05.63.16 1.18.34 1.64.17.46.4.84.7 1.14.28.3.62.52 1.01.67.4.15.84.22 1.32.22.48 0 .9-.06 1.24-.17.35-.11.65-.24.9-.37l.7-.37c.2-.12.38-.17.57-.17.25 0 .43.09.55.27l.85 1.08a5.07 5.07 0 01-2.39 1.6c-.44.15-.89.26-1.35.32-.46.07-.9.1-1.33.1-.86 0-1.66-.14-2.4-.42a5.45 5.45 0 01-3.2-3.32 8.04 8.04 0 01-.06-5.22 5.55 5.55 0 013.02-3.24 6.17 6.17 0 012.5-.48c.77 0 1.48.12 2.14.37a4.64 4.64 0 012.8 2.84c.27.69.4 1.48.4 2.37 0 .44-.04.75-.14.9-.1.16-.28.24-.55.24h-7.62zm22.27-6.53v12.31h-2.97V97.9h-4.8v5.45h-2.96V91.04h2.96v4.67h4.8v-4.67h2.97zm11.29.78a1.66 1.66 0 011.38-.78h2.33l-2.87 4.57c-.2.32-.4.58-.61.78-.21.2-.46.34-.76.46.4.12.73.3.98.54.26.23.5.52.7.88l2.88 5.08h-2.05c-.52 0-.92-.09-1.21-.26a2.21 2.21 0 01-.73-.76l-1.82-3.4a1.6 1.6 0 00-1.5-.88h-1.11v5.3h-2.97V91.04h2.97v5.07h.96c.33 0 .6-.06.8-.18.2-.12.38-.32.53-.57l2.1-3.54zm13.18 6.27c-.86.04-1.58.12-2.16.23a5.6 5.6 0 00-1.4.41c-.36.17-.6.36-.76.59-.15.22-.23.47-.23.73 0 .52.15.9.46 1.12.3.22.71.33 1.2.33.62 0 1.14-.1 1.58-.32.45-.23.88-.56 1.3-1.01v-2.08zm-6.8-5.34a7.3 7.3 0 015.12-1.94c.72 0 1.36.12 1.93.36a3.98 3.98 0 012.33 2.48c.2.59.31 1.23.31 1.92v7.78h-1.34c-.28 0-.5-.04-.65-.12-.15-.09-.27-.26-.36-.52l-.27-.88c-.3.28-.61.52-.9.74a4.7 4.7 0 01-1.96.85 5.54 5.54 0 01-2.64-.08 3.24 3.24 0 01-1.14-.64 2.83 2.83 0 01-.75-1.04 3.7 3.7 0 01-.1-2.38c.1-.31.27-.6.5-.89.24-.28.55-.54.92-.79a6 6 0 011.38-.65c.56-.18 1.2-.33 1.92-.44.73-.12 1.56-.2 2.5-.22v-.72c0-.82-.18-1.43-.53-1.82-.35-.4-.86-.6-1.52-.6a3.67 3.67 0 00-2.03.55l-.66.37c-.2.12-.4.17-.65.17a.88.88 0 01-.53-.15 1.43 1.43 0 01-.34-.39l-.53-.95z" fill="#5E78FF"/><path d="M97.3 94.17v-.32a15.87 15.87 0 00-.89-5.27 16.03 16.03 0 00-15.1-10.73c-8.83 0-16 7.18-16 16s7.17 16 16 16c8.68 0 15.76-6.95 15.99-15.59v-.09zm-9.9 4.59l7.48-7.48a14 14 0 01.24 2.48l-6.35 6.36-1.38-1.36zm-5.37-12.11l.05-.03 5.09-5.09c.04-.04.05-.1.08-.14.62.3 1.22.62 1.78 1l-7 7v-2.74zm0-3.07v-3.51c1.04.05 2.05.22 3.02.5l-3.02 3.01zm.05 8.86l8.66-8.66c.47.44.91.9 1.32 1.4l-9.12 9.13-.9-.91v-.93c0-.02.02-.02.04-.03zm11.23-5.42c.34.59.63 1.22.88 1.86l-8.34 8.34-1.37-1.37 8.83-8.83zM67.5 93.85c0-7.14 5.41-13.01 12.36-13.74v13.74c0 .3.12.57.32.77l9.9 9.9a13.82 13.82 0 01-22.59-10.68zm24.15 9.16l-1.34-1.34 4.37-4.37a13.8 13.8 0 01-3.03 5.7z" fill="#fff"/><circle cx="373.96" cy="93.85" r="31" fill="#5E78FF"/><path d="M433.93 88.85h-3.26V73.98h-7.53v14.87h-3.24V71.5h14.03v17.35zm7.16-3.2c.33.42.7.7 1.09.87a3.31 3.31 0 002.5 0c.37-.17.67-.42.92-.77.26-.34.45-.77.59-1.3.13-.52.2-1.14.2-1.85 0-.72-.06-1.33-.18-1.83-.11-.5-.27-.9-.49-1.22a1.96 1.96 0 00-.8-.68c-.3-.15-.64-.22-1.04-.22-.61 0-1.14.13-1.57.4-.43.25-.84.62-1.22 1.09v5.52zm-.16-7.43a6.42 6.42 0 011.72-1.38 4.6 4.6 0 014.09-.11c.56.28 1.04.69 1.44 1.22.4.53.72 1.19.94 1.97a9.67 9.67 0 01-.04 5.23c-.25.79-.6 1.47-1.07 2.04a4.9 4.9 0 01-1.67 1.36c-.64.32-1.37.48-2.18.48-.69 0-1.28-.1-1.76-.31a4.4 4.4 0 01-1.31-.89v5.04h-2.97V76.54h1.82c.38 0 .63.18.75.54l.24 1.14zm19.74 3.06c0-.39-.05-.75-.17-1.08a2.5 2.5 0 00-.48-.9 2.2 2.2 0 00-.82-.6 2.72 2.72 0 00-1.15-.23c-.86 0-1.54.24-2.03.73-.5.49-.8 1.18-.94 2.08h5.6zm-5.65 1.79c.05.63.16 1.18.34 1.64.17.46.4.84.7 1.14.28.3.62.52 1.01.67.4.15.84.22 1.32.22.48 0 .9-.06 1.24-.17.35-.11.66-.24.91-.37l.69-.37c.2-.12.39-.17.57-.17.25 0 .43.09.55.27l.85 1.08a5.07 5.07 0 01-2.38 1.6 9.58 9.58 0 01-2.69.42c-.86 0-1.65-.14-2.39-.42a5.45 5.45 0 01-3.2-3.32 8.04 8.04 0 01-.06-5.22 5.55 5.55 0 013.02-3.24 6.17 6.17 0 012.49-.48c.77 0 1.49.12 2.14.37a4.64 4.64 0 012.8 2.84c.27.69.4 1.48.4 2.37 0 .44-.04.75-.14.9-.1.16-.28.24-.55.24h-7.62zm19.7 3.67V78.8h-3.02a43.03 43.03 0 01-.3 2.8c-.12.82-.26 1.55-.42 2.2-.16.65-.34 1.21-.53 1.7-.18.47-.38.88-.6 1.23h4.87zm5.14-.09v5.44c0 .27-.08.49-.24.65a.79.79 0 01-.6.24h-1.85v-4.13h-9.22v3.29c0 .2-.06.4-.2.57-.13.18-.33.27-.61.27h-1.87v-6.24h.35c.27 0 .55-.04.81-.11.26-.08.52-.24.76-.48.25-.24.48-.58.7-1.03a8.7 8.7 0 00.6-1.81c.17-.76.32-1.7.45-2.8.13-1.1.24-2.43.32-3.97h8.34v10.11h2.26zm8.1-10.3c.92 0 1.74.14 2.49.44a5.38 5.38 0 013.15 3.25c.3.79.44 1.66.44 2.63 0 .98-.15 1.86-.44 2.64a5.3 5.3 0 01-3.16 3.28c-.74.3-1.56.44-2.48.44a6.8 6.8 0 01-2.5-.44 5.42 5.42 0 01-3.17-3.28 7.61 7.61 0 01-.44-2.64c0-.97.15-1.84.44-2.63.3-.78.7-1.45 1.23-1.99a5.5 5.5 0 011.94-1.26 6.8 6.8 0 012.5-.44zm0 10.4c1.03 0 1.78-.34 2.27-1.03.5-.69.75-1.7.75-3.03a5.2 5.2 0 00-.75-3.03c-.49-.7-1.24-1.05-2.27-1.05-1.04 0-1.8.36-2.31 1.06-.5.7-.75 1.7-.75 3.02s.25 2.33.75 3.03c.5.69 1.27 1.03 2.31 1.03zm20.06 2.1h-2.96V78.73h-4.8v10.12h-2.96V76.54h10.72v12.31zm15.36 0h-2.96V78.81h-3.02c-.1 1.5-.25 2.81-.45 3.9-.2 1.1-.44 2.02-.72 2.78a7.12 7.12 0 01-.92 1.84c-.34.45-.7.8-1.08 1.06-.39.26-.78.43-1.19.5-.4.1-.82.14-1.24.14a2.9 2.9 0 01-.97-.12c-.2-.07-.3-.18-.3-.31v-1.85h.71c.26 0 .53-.04.8-.12.26-.08.51-.24.76-.5.25-.24.48-.6.7-1.05.23-.46.44-1.07.62-1.82.2-.76.36-1.69.5-2.79.15-1.1.26-2.4.34-3.93h8.42v12.31zm10.43-5.26c-.86.04-1.58.12-2.16.23a5.6 5.6 0 00-1.4.41c-.36.17-.61.36-.76.59-.15.22-.23.47-.23.73 0 .52.15.9.46 1.12.3.22.71.33 1.2.33.62 0 1.14-.1 1.58-.32.45-.23.88-.56 1.3-1.01v-2.08zm-6.8-5.34a7.3 7.3 0 015.12-1.94c.72 0 1.36.12 1.93.36a3.98 3.98 0 012.33 2.48c.2.59.31 1.23.31 1.92v7.78h-1.34c-.28 0-.5-.04-.65-.12-.15-.09-.27-.26-.36-.52l-.27-.88c-.3.28-.61.52-.9.74a4.7 4.7 0 01-1.96.85 5.54 5.54 0 01-2.64-.08 3.24 3.24 0 01-1.14-.64 2.83 2.83 0 01-.75-1.04 3.7 3.7 0 01-.1-2.38c.1-.31.27-.6.5-.89.24-.28.55-.54.92-.79a6 6 0 011.38-.65c.55-.18 1.2-.33 1.92-.44.73-.12 1.56-.2 2.5-.22v-.72c0-.82-.18-1.43-.53-1.82-.35-.4-.86-.6-1.52-.6a3.67 3.67 0 00-2.03.55l-.66.37c-.2.12-.41.17-.65.17a.88.88 0 01-.53-.15 1.43 1.43 0 01-.35-.39l-.52-.95zm23.83.48h-4.4v10.12h-2.96V78.73h-4.38v-2.2h11.74v2.2zm9.18 4.86c-.86.04-1.58.12-2.16.23a5.6 5.6 0 00-1.4.41c-.36.17-.6.36-.76.59-.15.22-.23.47-.23.73 0 .52.15.9.46 1.12.3.22.71.33 1.2.33.62 0 1.14-.1 1.58-.32.45-.23.88-.56 1.3-1.01v-2.08zm-6.8-5.34a7.3 7.3 0 015.12-1.94c.72 0 1.36.12 1.93.36a3.98 3.98 0 012.33 2.48c.2.59.31 1.23.31 1.92v7.78h-1.34c-.28 0-.5-.04-.65-.12-.15-.09-.27-.26-.36-.52l-.26-.88c-.32.28-.62.52-.92.74a4.7 4.7 0 01-1.96.85 5.54 5.54 0 01-2.63-.08 3.24 3.24 0 01-1.14-.64 2.83 2.83 0 01-.75-1.04 3.7 3.7 0 01-.1-2.38c.1-.31.27-.6.5-.89.24-.28.55-.54.92-.79a6 6 0 011.38-.65c.55-.18 1.2-.33 1.92-.44.73-.12 1.56-.2 2.5-.22v-.72c0-.82-.18-1.43-.53-1.82-.35-.4-.86-.6-1.52-.6a3.67 3.67 0 00-2.03.55l-.66.37c-.2.12-.4.17-.65.17a.88.88 0 01-.53-.15 1.43 1.43 0 01-.35-.39l-.52-.95zm-122.84 37.38v2.22h-9.6v-2.22h3.52v-10.12c0-.4.01-.8.04-1.23l-2.5 2.09a1.1 1.1 0 01-.43.21 1.1 1.1 0 01-.72-.12.76.76 0 01-.22-.2l-.93-1.29 5.29-4.5h2.44v15.16h3.12zm15.83-6.46c0 1.52-.17 2.83-.5 3.95a7.94 7.94 0 01-1.34 2.76 5.43 5.43 0 01-2.03 1.63c-.77.36-1.61.53-2.52.53a5.48 5.48 0 01-4.52-2.16 8.07 8.07 0 01-1.33-2.76 14.45 14.45 0 01-.48-3.95c0-1.52.16-2.83.48-3.94a8.07 8.07 0 011.33-2.76 5.37 5.37 0 012-1.62 5.91 5.91 0 012.52-.54c.9 0 1.75.18 2.52.54.79.35 1.46.89 2.03 1.62a7.94 7.94 0 011.34 2.76c.33 1.1.5 2.42.5 3.94zm-3.06 0c0-1.25-.1-2.3-.28-3.12a6.17 6.17 0 00-.74-1.96 2.61 2.61 0 00-2.3-1.32c-.43 0-.84.1-1.24.3-.4.19-.74.53-1.05 1.02-.3.48-.55 1.14-.73 1.96-.18.83-.26 1.87-.26 3.12 0 1.26.08 2.3.26 3.12.19.83.43 1.48.73 1.97s.65.83 1.05 1.03a2.83 2.83 0 002.48 0c.4-.2.75-.54 1.06-1.03.3-.49.56-1.14.74-1.97.19-.82.28-1.86.28-3.12zm17.98 0c0 1.52-.17 2.83-.5 3.95a7.94 7.94 0 01-1.34 2.76 5.43 5.43 0 01-2.03 1.63c-.77.36-1.61.53-2.51.53a5.48 5.48 0 01-4.52-2.16 8.07 8.07 0 01-1.34-2.76 14.45 14.45 0 01-.48-3.95c0-1.52.16-2.83.48-3.94a8.07 8.07 0 011.33-2.76 5.37 5.37 0 012-1.62 5.91 5.91 0 012.52-.54c.9 0 1.75.18 2.52.54.79.35 1.47.89 2.03 1.62a7.94 7.94 0 011.35 2.76c.32 1.1.49 2.42.49 3.94zm-3.06 0c0-1.25-.1-2.3-.28-3.12a6.17 6.17 0 00-.74-1.96 2.61 2.61 0 00-2.3-1.32c-.43 0-.84.1-1.24.3-.4.19-.74.53-1.05 1.02-.3.48-.54 1.14-.73 1.96-.17.83-.26 1.87-.26 3.12 0 1.26.09 2.3.26 3.12.19.83.43 1.48.73 1.97s.66.83 1.05 1.03a2.83 2.83 0 002.48 0c.4-.2.75-.54 1.06-1.03.31-.49.56-1.14.74-1.97.19-.82.28-1.86.28-3.12zm13.6-4.47a4.5 4.5 0 01-1.21 3.13 3.87 3.87 0 01-2.81 1.15c-.58 0-1.1-.1-1.6-.3-.48-.2-.9-.48-1.27-.85a4.06 4.06 0 01-.83-1.36c-.2-.52-.3-1.12-.3-1.77 0-.67.1-1.28.3-1.83a3.66 3.66 0 012.1-2.24c.5-.2 1.02-.31 1.6-.31a4.03 4.03 0 012.88 1.17c.36.38.64.84.84 1.38.2.55.3 1.16.3 1.83zm-2.28 0c0-.47-.05-.85-.14-1.17a2.03 2.03 0 00-.38-.75c-.15-.2-.33-.33-.55-.41a1.7 1.7 0 00-.67-.13c-.24 0-.46.04-.67.13-.21.08-.39.22-.54.4-.15.2-.26.45-.35.76-.09.32-.13.7-.13 1.17 0 .45.04.82.13 1.13.09.3.2.53.35.72.15.18.33.31.54.4.2.07.43.11.67.11.24 0 .46-.04.67-.12.22-.08.4-.21.55-.4.16-.18.29-.42.38-.71.1-.3.14-.68.14-1.13zm8.05-3.73a2 2 0 01.36-.33c.15-.1.35-.14.6-.14h2.16l-12.89 16.9c-.1.13-.22.24-.37.33-.14.08-.32.12-.53.12h-2.2l12.87-16.88zm4.03 12.8a4.5 4.5 0 01-1.2 3.13 4.03 4.03 0 01-4.41.87 3.9 3.9 0 01-1.27-.87 4.06 4.06 0 01-.83-1.35c-.2-.53-.3-1.12-.3-1.78 0-.67.1-1.28.3-1.82a3.66 3.66 0 012.1-2.24c.49-.22 1.02-.32 1.6-.32a4.03 4.03 0 012.86 1.18c.36.37.64.83.84 1.38.21.54.31 1.15.31 1.82zm-2.29 0c0-.46-.04-.85-.13-1.16a2.03 2.03 0 00-.37-.76c-.15-.2-.34-.33-.55-.4a1.7 1.7 0 00-.68-.14c-.24 0-.46.04-.67.13-.2.08-.39.22-.54.41-.15.2-.27.44-.36.76-.08.3-.12.7-.12 1.16 0 .45.04.82.12 1.13.09.3.21.55.36.73.15.18.33.32.54.4.21.08.43.12.67.12.24 0 .47-.04.68-.12.21-.08.4-.22.55-.4.16-.18.28-.43.37-.73.09-.3.13-.68.13-1.13z" fill="#5E78FF"/><path d="M373.96 97.35c-.34 0-.66-.13-.9-.38-.5-.5-.5-1.3 0-1.81a1.3 1.3 0 011.8 0c.25.24.38.56.38.9a1.09 1.09 0 102.19 0 3.47 3.47 0 00-2.7-3.37l-.04-.67a1.09 1.09 0 10-2.18 0v.91a3.46 3.46 0 001.45 6.59 1.53 1.53 0 011.54 1.54 1.53 1.53 0 01-1.18 1.5l-.68.01c-.28-.06-.55-.2-.77-.41a1.55 1.55 0 01-.44-1.25 1.1 1.1 0 00-2.17-.22 3.7 3.7 0 002.27 3.8c.06.55.52.98 1.08.98.48 0 .88-.31 1.03-.75a3.71 3.71 0 00-.68-7.37z" fill="#fff"/><path d="M387.64 104.35c-.3-3.26-1.71-13.75-8.02-17.7l.03-.04 2.18-5.81a2.17 2.17 0 00-2.05-2.95h-11.63a2.19 2.19 0 00-2.05 2.95l2.19 5.81.02.05c-6.31 3.94-7.73 14.43-8.02 17.7a5.1 5.1 0 005.08 5.5h17.2a5.1 5.1 0 005.07-5.5zm-19.5-24.32h11.64l-2.18 5.82h-7.27l-2.18-5.82zm14.42 27.64h-17.2a2.9 2.9 0 01-2.9-3.13c.54-6.06 2.74-14.15 7.87-16.5h7.27c5.13 2.35 7.33 10.44 7.86 16.5a2.9 2.9 0 01-2.9 3.13z" fill="#fff"/><path d="M783.2 94.72c.59 0 1.1-.07 1.54-.21.44-.16.8-.37 1.1-.64.3-.28.51-.62.66-1a3.91 3.91 0 000-2.6 2.5 2.5 0 00-.65-.96 2.82 2.82 0 00-1.1-.6 5.03 5.03 0 00-1.55-.22h-2.42v6.23h2.42zm0-8.72a9.9 9.9 0 013 .4 5.8 5.8 0 012.1 1.15c.56.48.97 1.07 1.23 1.75.27.68.41 1.42.41 2.23 0 .84-.14 1.61-.42 2.32-.28.7-.7 1.3-1.26 1.8s-1.26.9-2.11 1.17c-.84.28-1.82.42-2.95.42h-2.42v6.11h-3.22V86h5.64zm15.88 12.1c-.86.03-1.58.11-2.16.22a5.6 5.6 0 00-1.4.41c-.36.17-.61.36-.76.59-.15.22-.23.47-.23.73 0 .52.15.9.46 1.12.3.22.71.33 1.2.33.61 0 1.14-.1 1.58-.32.45-.23.88-.56 1.3-1.01v-2.08zm-6.8-5.35a7.3 7.3 0 015.12-1.94c.72 0 1.36.12 1.93.36a3.98 3.98 0 012.33 2.48c.2.59.3 1.23.3 1.92v7.78h-1.34c-.27 0-.5-.04-.64-.12-.15-.09-.27-.26-.36-.52l-.27-.88c-.3.28-.61.52-.9.74a4.7 4.7 0 01-1.96.85 5.54 5.54 0 01-2.64-.08 3.24 3.24 0 01-1.14-.64 2.83 2.83 0 01-.75-1.04 3.7 3.7 0 01-.1-2.38c.1-.31.26-.6.5-.89.24-.28.54-.54.92-.79a6 6 0 011.38-.65c.55-.18 1.2-.33 1.92-.44.73-.12 1.56-.2 2.5-.22v-.72c0-.82-.18-1.43-.53-1.82-.35-.4-.86-.6-1.52-.6a3.67 3.67 0 00-2.03.55l-.66.37c-.2.12-.41.17-.65.17a.88.88 0 01-.53-.15 1.43 1.43 0 01-.35-.39l-.52-.95zm12.76-.38a5.36 5.36 0 011.73-1.1 6.39 6.39 0 012.47-.42c.76 0 1.44.09 2.03.27.59.18 1.09.42 1.49.73.4.3.71.66.92 1.06a2.52 2.52 0 01.22 1.97 2.81 2.81 0 01-.95 1.4c-.26.2-.57.37-.95.52a3.8 3.8 0 011.62 1.13c.42.5.62 1.1.62 1.83 0 .6-.14 1.13-.42 1.6-.27.46-.63.86-1.09 1.19-.45.32-.98.56-1.57.73a6.52 6.52 0 01-5.36-.8 5.1 5.1 0 01-1.07-.97l.85-1.08a.6.6 0 01.54-.27.9.9 0 01.53.18l.57.38a3.33 3.33 0 001.93.55c.75 0 1.31-.16 1.7-.5.38-.34.57-.76.57-1.26s-.2-.88-.6-1.16c-.39-.28-1.03-.42-1.92-.42h-1.39v-1.94h1.4c.77 0 1.37-.13 1.78-.4.42-.28.63-.64.63-1.08 0-.41-.19-.75-.56-1.01a2.7 2.7 0 00-1.6-.4 3.83 3.83 0 00-1.85.42c-.21.1-.39.19-.53.28a.77.77 0 01-.76.06c-.1-.06-.2-.17-.3-.35l-.68-1.14zm15.49 7.79c.34.4.7.7 1.1.86a3.31 3.31 0 002.5 0c.36-.17.66-.42.91-.77.26-.34.45-.77.59-1.3.13-.52.2-1.14.2-1.85 0-.72-.06-1.33-.18-1.83-.1-.5-.27-.9-.49-1.22a1.96 1.96 0 00-.8-.68 2.96 2.96 0 00-2.62.18c-.42.25-.83.62-1.21 1.09v5.52zm-.16-7.44a6.42 6.42 0 011.72-1.38 4.6 4.6 0 014.1-.11c.55.28 1.03.69 1.43 1.22.4.53.72 1.19.94 1.97a9.67 9.67 0 01-.04 5.23c-.25.79-.6 1.47-1.07 2.04a4.9 4.9 0 01-1.67 1.36c-.64.32-1.37.48-2.18.48-.69 0-1.27-.1-1.76-.31a4.4 4.4 0 01-1.31-.89v5.04h-2.96V91.04h1.8c.4 0 .64.18.76.54l.24 1.14zm18.32 5.37c-.86.04-1.58.12-2.16.23a5.6 5.6 0 00-1.4.41c-.36.17-.61.36-.76.59-.16.22-.23.47-.23.73 0 .52.15.9.45 1.12.32.22.72.33 1.22.33.6 0 1.13-.1 1.57-.32.45-.23.88-.56 1.3-1.01v-2.08zm-6.8-5.34a7.3 7.3 0 015.12-1.94c.72 0 1.36.12 1.93.36a3.98 3.98 0 012.33 2.48c.2.59.3 1.23.3 1.92v7.78h-1.34c-.28 0-.5-.04-.64-.12-.16-.09-.28-.26-.36-.52l-.27-.88c-.31.28-.61.52-.91.74a4.7 4.7 0 01-1.96.85 5.54 5.54 0 01-2.64-.08 3.24 3.24 0 01-1.14-.64 2.83 2.83 0 01-.74-1.04 3.7 3.7 0 01-.1-2.38c.1-.31.26-.6.5-.89.24-.28.54-.54.92-.79a6 6 0 011.38-.65c.55-.18 1.2-.33 1.92-.44.73-.12 1.56-.2 2.5-.22v-.72c0-.82-.18-1.43-.53-1.82-.35-.4-.86-.6-1.53-.6a3.67 3.67 0 00-2.02.55l-.66.37c-.2.12-.41.17-.65.17a.88.88 0 01-.53-.15 1.43 1.43 0 01-.35-.39l-.53-.95zm19.26 8.62c1.03 0 1.8-.33 2.3-.98.5-.66.75-1.62.75-2.88a4.7 4.7 0 00-.74-2.87c-.49-.66-1.24-.99-2.25-.99-1 0-1.77.32-2.3.94-.53.62-.8 1.54-.8 2.77 0 1.3.26 2.3.75 2.99.5.68 1.27 1.02 2.3 1.02zm.87-12.56c-.75.04-1.4.2-1.93.44s-.97.57-1.32.98c-.35.41-.61.9-.8 1.48-.17.57-.28 1.2-.3 1.9.2-.32.44-.6.72-.86a5.27 5.27 0 013.55-1.27c.82 0 1.56.15 2.21.43.66.3 1.22.7 1.67 1.23.47.53.82 1.16 1.06 1.9a7.63 7.63 0 01-.07 4.96 5.35 5.35 0 01-3.16 3.11 7.1 7.1 0 01-2.5.42c-.88 0-1.7-.14-2.46-.43a4.73 4.73 0 01-1.93-1.4 6.9 6.9 0 01-1.27-2.53c-.3-1.04-.46-2.3-.46-3.8 0-1.26.12-2.42.35-3.5a8.32 8.32 0 011.14-2.84 6.04 6.04 0 012.08-1.96c.85-.5 1.91-.8 3.17-.9l4.38-.33.15 1.54c.03.33-.01.6-.14.84-.13.22-.36.34-.69.36l-3.45.23zM866 90.85c.9 0 1.74.14 2.48.44a5.38 5.38 0 013.16 3.25c.28.79.43 1.66.43 2.63 0 .98-.15 1.86-.43 2.64-.3.78-.7 1.45-1.24 2a5.3 5.3 0 01-1.92 1.28c-.74.3-1.57.44-2.48.44a6.8 6.8 0 01-2.51-.44 5.42 5.42 0 01-3.17-3.28 7.61 7.61 0 01-.43-2.64c0-.97.14-1.84.43-2.63a5.5 5.5 0 013.17-3.25 6.8 6.8 0 012.5-.44zm0 10.4c1.02 0 1.78-.34 2.26-1.03.5-.69.75-1.7.75-3.03a5.2 5.2 0 00-.75-3.03c-.48-.7-1.24-1.05-2.26-1.05-1.04 0-1.82.36-2.32 1.06-.5.7-.74 1.7-.74 3.02s.24 2.33.74 3.03c.5.69 1.28 1.03 2.32 1.03zm19.54-8.02h-4.4v10.12h-2.96V93.23h-4.38v-2.2h11.74v2.2zm10.1-1.41a1.66 1.66 0 011.38-.78h2.33l-2.87 4.57c-.2.32-.4.58-.61.78-.21.2-.46.34-.76.46.4.12.73.3.99.54.25.23.48.52.7.88l2.87 5.08h-2.05c-.52 0-.92-.09-1.21-.26a2.21 2.21 0 01-.73-.76l-1.82-3.4a1.6 1.6 0 00-1.5-.88h-1.11v5.3h-2.97V91.04h2.97v5.07h.96c.33 0 .6-.06.8-.18.21-.12.39-.32.53-.57l2.1-3.54zm13.18 6.27c-.86.04-1.58.12-2.16.23a5.6 5.6 0 00-1.4.41c-.36.17-.6.36-.76.59-.15.22-.23.47-.23.73 0 .52.15.9.46 1.12.3.22.71.33 1.2.33.62 0 1.14-.1 1.58-.32.45-.23.88-.56 1.3-1.01v-2.08zm-6.8-5.34a7.3 7.3 0 015.12-1.94c.72 0 1.36.12 1.93.36a3.98 3.98 0 012.33 2.48c.2.59.31 1.23.31 1.92v7.78h-1.34c-.28 0-.5-.04-.65-.12-.15-.09-.27-.26-.36-.52l-.26-.88c-.32.28-.62.52-.92.74a4.7 4.7 0 01-1.96.85 5.54 5.54 0 01-2.63-.08 3.24 3.24 0 01-1.14-.64 2.83 2.83 0 01-.75-1.04 3.7 3.7 0 01-.1-2.38c.1-.31.27-.6.5-.89.24-.28.55-.54.92-.79a6 6 0 011.38-.65c.56-.18 1.2-.33 1.92-.44.73-.12 1.56-.2 2.5-.22v-.72c0-.82-.18-1.43-.53-1.82-.35-.4-.86-.6-1.52-.6a3.67 3.67 0 00-2.03.55l-.66.37c-.2.12-.4.17-.65.17a.88.88 0 01-.53-.15 1.43 1.43 0 01-.35-.39l-.52-.95z" fill="#5E78FF"/><circle cx="731.63" cy="93.85" r="31" fill="#5E78FF"/><path d="M731.63 90.21a3.64 3.64 0 110 7.28 3.64 3.64 0 010-7.28zm0-2.18a5.83 5.83 0 100 11.65 5.83 5.83 0 000-11.65z" fill="#fff"/><path d="M733.8 80.03v2.4c1.6.3 3.08.92 4.36 1.8l1.69-1.69 3.08 3.08-1.68 1.7c.88 1.28 1.5 2.76 1.8 4.35h2.4v4.36h-2.4c-.3 1.6-.92 3.07-1.8 4.36l1.68 1.69-3.08 3.08-1.69-1.69c-1.28.88-2.76 1.5-4.35 1.8v2.4h-4.37v-2.4c-1.59-.3-3.07-.92-4.35-1.8l-1.7 1.69-3.07-3.08 1.68-1.7a11.57 11.57 0 01-1.8-4.35h-2.4v-4.36h2.4c.3-1.6.92-3.07 1.8-4.36l-1.68-1.69 3.08-3.08 1.69 1.69c1.28-.88 2.76-1.5 4.35-1.8v-2.4h4.37zm0-2.18h-4.36c-1.2 0-2.18.97-2.18 2.18v.7c-.63.21-1.24.47-1.83.76l-.5-.5a2.16 2.16 0 00-3.08 0l-3.08 3.09a2.18 2.18 0 000 3.08l.5.5c-.3.59-.55 1.2-.76 1.83h-.7c-1.21 0-2.18.97-2.18 2.18v4.36c0 1.2.97 2.18 2.18 2.18h.7c.2.63.46 1.24.75 1.83l-.5.5a2.18 2.18 0 000 3.08l3.08 3.09a2.16 2.16 0 003.09 0l.5-.5c.59.29 1.2.54 1.82.75v.7c0 1.22.98 2.19 2.18 2.19h4.37c1.2 0 2.18-.97 2.18-2.18v-.7c.63-.21 1.24-.47 1.83-.76l.5.5a2.16 2.16 0 003.08 0l3.09-3.08c.85-.85.85-2.23 0-3.08l-.5-.5c.28-.6.54-1.2.74-1.83h.72c1.21 0 2.18-.97 2.18-2.18v-4.36c0-1.21-.97-2.19-2.18-2.19h-.7c-.2-.62-.46-1.23-.75-1.82l.5-.5c.85-.85.85-2.24 0-3.09L741.41 81a2.16 2.16 0 00-3.09 0l-.5.5c-.6-.3-1.2-.55-1.83-.76v-.7c0-1.22-.98-2.19-2.18-2.19z" fill="#fff"/><circle cx="1071.63" cy="93.85" r="31" fill="#5E78FF"/><path d="M1126.7 96.8l-2.11-5.77a9.56 9.56 0 01-.33-.92l-.33-1.14a36.18 36.18 0 01-.65 2.08l-2.1 5.75h5.52zm5.7 6.55h-2.5c-.28 0-.51-.07-.68-.2a1.35 1.35 0 01-.4-.53l-1.29-3.54h-7.19l-1.3 3.54c-.06.18-.19.35-.37.5-.18.15-.42.23-.7.23h-2.5l6.81-17.35h3.3l6.82 17.35zm9.62-11.53a1.7 1.7 0 011.38-.78h2.33l-2.87 4.57a4 4 0 01-.61.78c-.21.2-.46.34-.75.46.4.12.72.3.98.54.26.23.49.52.7.88l2.88 5.08H1144c-.52 0-.92-.09-1.21-.26a2.2 2.2 0 01-.73-.76l-1.81-3.4a1.6 1.6 0 00-1.5-.88h-1.12v5.3h-2.96V91.04h2.96v5.07h.96c.34 0 .61-.06.81-.18.2-.12.38-.32.52-.57l2.1-3.54zm17.24 1.41h-4.39v10.12h-2.97V93.23h-4.38v-2.2h11.74v2.2z" fill="#5E78FF"/><path d="M1083.82 77.85h-17.52c-.81 0-1.53.43-1.93 1.08l-6.13 6.13a2.28 2.28 0 00-1.08 1.93v20.57a2.28 2.28 0 002.28 2.29h24.38a2.28 2.28 0 002.29-2.29V80.14a2.28 2.28 0 00-2.29-2.29zm-19.8 4.66v2.2h-2.2l2.2-2.2zm19.8 25.05h-24.38v-20.5c.02 0 .03 0 .05-.02l.05-.05h6.76v-6.76l.05-.05.03-.04h17.44v27.42z" fill="#fff"/><path d="M1079.25 95.37h-15.23a1.14 1.14 0 100 2.29h15.23a1.14 1.14 0 100-2.29zM1076.97 100.7h-12.95a1.14 1.14 0 100 2.3h12.95a1.14 1.14 0 000-2.3zM1073.92 92.33h4.57a2.28 2.28 0 002.29-2.29v-4.57a2.28 2.28 0 00-2.29-2.29h-4.57a2.29 2.29 0 00-2.29 2.29v4.57a2.29 2.29 0 002.29 2.29zm0-6.86h4.57v4.57h-4.57v-4.57z" fill="#fff"/><path d="M238.56 93.85h76.5" stroke="#5E78FF" stroke-width="2"/><path d="M311.8 89.6l4.24 4.25-4.24 4.25" stroke="#5E78FF" stroke-width="2" stroke-linecap="round"/><path d="M586.81 93.85h76.5" stroke="#5E78FF" stroke-width="2"/><path d="M660.05 89.6l4.25 4.25-4.25 4.25" stroke="#5E78FF" stroke-width="2" stroke-linecap="round"/><path d="M937.98 93.85h76.5" stroke="#5E78FF" stroke-width="2"/><path d="M1011.22 89.6l4.24 4.25-4.24 4.25" stroke="#5E78FF" stroke-width="2" stroke-linecap="round"/><path d="M607.75 226.9v76.5" stroke="#5E78FF" stroke-width="2"/><path d="M612 300.13l-4.25 4.25-4.25-4.25" stroke="#5E78FF" stroke-width="2" stroke-linecap="round"/><path d="M571.86 451.9h-3.26v-14.88h-7.53v14.87h-3.24v-17.35h14.03v17.35zm11.94-7.58c0-.38-.06-.74-.17-1.08a2.5 2.5 0 00-.48-.9 2.2 2.2 0 00-.83-.6 2.72 2.72 0 00-1.15-.23c-.85 0-1.53.25-2.03.74-.49.48-.8 1.18-.93 2.07h5.59zm-5.65 1.79c.05.63.16 1.18.33 1.64.18.46.41.84.7 1.14.29.3.63.52 1.02.68.4.14.84.21 1.32.21.48 0 .9-.05 1.24-.17.35-.1.65-.23.9-.37.27-.13.5-.26.7-.37.2-.11.38-.17.57-.17.25 0 .43.1.55.28l.85 1.08a5.07 5.07 0 01-2.39 1.6c-.44.14-.89.25-1.35.32-.46.06-.9.1-1.34.1-.85 0-1.65-.15-2.38-.43a5.45 5.45 0 01-3.2-3.32 8.04 8.04 0 01-.07-5.22 5.55 5.55 0 013.02-3.24 6.17 6.17 0 012.5-.48c.77 0 1.48.12 2.14.37a4.64 4.64 0 012.8 2.85c.27.68.4 1.47.4 2.36 0 .45-.05.75-.14.91-.1.15-.28.23-.55.23h-7.62zm14.5 2.6c.34.4.7.69 1.1.86a3.31 3.31 0 002.5 0c.36-.17.67-.43.91-.77.26-.35.46-.78.6-1.3.13-.53.2-1.15.2-1.86 0-.72-.06-1.33-.18-1.82-.12-.5-.28-.92-.5-1.23a1.96 1.96 0 00-.79-.68c-.3-.15-.65-.22-1.04-.22-.62 0-1.14.13-1.57.4-.44.26-.84.62-1.23 1.1v5.51zm-.15-7.45a6.42 6.42 0 011.71-1.38 4.6 4.6 0 014.1-.1c.55.27 1.03.68 1.43 1.22.41.52.72 1.18.94 1.96a9.67 9.67 0 01-.04 5.24c-.24.78-.6 1.46-1.06 2.04a4.9 4.9 0 01-1.67 1.35c-.65.32-1.38.48-2.19.48-.68 0-1.27-.1-1.76-.3a4.4 4.4 0 01-1.3-.9v5.04h-2.97v-16.33h1.81c.38 0 .64.18.76.54l.24 1.14zm19.74 3.06c0-.38-.06-.74-.17-1.08a2.5 2.5 0 00-.48-.9 2.2 2.2 0 00-.83-.6 2.72 2.72 0 00-1.15-.23c-.86 0-1.53.25-2.03.74-.49.48-.8 1.18-.94 2.07h5.6zm-5.65 1.79c.04.63.15 1.18.33 1.64.18.46.4.84.7 1.14.28.3.63.52 1.02.68.4.14.84.21 1.32.21.48 0 .89-.05 1.23-.17.35-.1.66-.23.91-.37.27-.13.5-.26.69-.37.2-.11.4-.17.58-.17.24 0 .43.1.55.28l.85 1.08a5.07 5.07 0 01-2.39 1.6 9.58 9.58 0 01-2.69.42c-.85 0-1.65-.15-2.38-.43a5.45 5.45 0 01-3.2-3.32 8.04 8.04 0 01-.07-5.22 5.55 5.55 0 013.02-3.24 6.17 6.17 0 012.49-.48c.78 0 1.5.12 2.15.37a4.64 4.64 0 012.8 2.85c.26.68.4 1.47.4 2.36 0 .45-.05.75-.14.91-.1.15-.28.23-.55.23h-7.63zm22.34 5.78h-2.86a.8.8 0 01-.52-.16 1.65 1.65 0 01-.33-.39l-2.6-4.28c-.04.13-.09.26-.15.38-.04.12-.1.23-.16.34l-2.3 3.56c-.1.14-.2.27-.33.39a.7.7 0 01-.48.16h-2.65l4.22-6.34-4.06-5.97h2.86c.22 0 .38.03.48.1.1.05.2.15.28.28l2.58 4.1c.08-.26.2-.53.37-.8l2.07-3.24c.18-.3.4-.44.69-.44h2.72l-4.04 5.83 4.21 6.48zm7.43-12.5c.91 0 1.74.15 2.49.44a5.38 5.38 0 013.15 3.25c.29.79.43 1.67.43 2.63 0 .98-.14 1.86-.43 2.64a5.3 5.3 0 01-3.16 3.28c-.74.3-1.57.44-2.48.44a6.8 6.8 0 01-2.5-.44 5.42 5.42 0 01-3.17-3.28 7.61 7.61 0 01-.44-2.64c0-.96.15-1.84.44-2.63.3-.78.7-1.44 1.23-1.99a5.5 5.5 0 011.93-1.26 6.8 6.8 0 012.51-.44zm0 10.4c1.03 0 1.78-.34 2.27-1.03.5-.69.74-1.7.74-3.02a5.2 5.2 0 00-.74-3.04c-.49-.7-1.24-1.04-2.27-1.04-1.04 0-1.81.35-2.31 1.05-.5.7-.75 1.7-.75 3.03 0 1.32.25 2.32.75 3.02.5.69 1.27 1.03 2.31 1.03zm17.2 0v-7.94h-3.03a43.03 43.03 0 01-.3 2.8c-.12.82-.26 1.56-.42 2.2-.16.65-.34 1.21-.53 1.7-.18.47-.38.89-.6 1.23h4.87zm5.13-.1v5.44c0 .27-.08.5-.24.65a.79.79 0 01-.6.24H656v-4.13h-9.22v3.3c0 .2-.06.4-.2.57-.13.17-.33.26-.61.26h-1.87v-6.24h.34c.28 0 .56-.03.82-.1.26-.09.52-.25.76-.49s.48-.58.7-1.03a8.7 8.7 0 00.6-1.81c.17-.76.32-1.7.45-2.8.13-1.1.24-2.43.32-3.97h8.34v10.12h2.26zm-131.7 20.67a1.66 1.66 0 011.38-.78h2.33l-2.87 4.57c-.2.32-.4.58-.61.78-.21.2-.46.35-.76.46.4.12.73.3.99.54.25.23.48.53.7.89l2.87 5.07h-2.05c-.52 0-.93-.08-1.21-.26a2.21 2.21 0 01-.74-.76l-1.8-3.4a1.6 1.6 0 00-1.5-.88h-1.12v5.3h-2.97v-12.3h2.97v5.07h.96c.33 0 .6-.06.8-.18.2-.13.38-.32.53-.58l2.1-3.54zm22.33 1.82c-.09.12-.18.2-.26.27-.08.06-.2.1-.36.1a.84.84 0 01-.45-.14 7.9 7.9 0 00-.51-.3 3.36 3.36 0 00-1.74-.47c-.52 0-.98.1-1.37.3-.4.18-.72.44-.99.8-.25.35-.44.78-.57 1.28-.13.5-.2 1.06-.2 1.7 0 .65.07 1.23.21 1.74.14.52.35.95.61 1.3.27.35.59.6.96.8.38.17.8.26 1.27.26a3.2 3.2 0 001.89-.56l.51-.38a.8.8 0 01.5-.18c.25 0 .43.1.55.28l.85 1.08a5.52 5.52 0 01-3.54 1.92c-.43.06-.86.1-1.3.1a5.14 5.14 0 01-3.91-1.67c-.5-.55-.9-1.21-1.2-2-.29-.79-.43-1.69-.43-2.7 0-.9.13-1.74.38-2.5a5.7 5.7 0 011.16-2 5.22 5.22 0 011.87-1.34c.74-.32 1.6-.48 2.57-.48.92 0 1.72.15 2.4.44.7.3 1.33.72 1.88 1.28l-.78 1.07zm15.18 9.71h-2.96v-10.04h-3.03c-.1 1.51-.24 2.81-.44 3.91-.2 1.09-.44 2.01-.72 2.77a7.12 7.12 0 01-.92 1.84c-.34.45-.7.81-1.08 1.07-.39.25-.78.42-1.2.5-.4.09-.81.13-1.23.13a2.9 2.9 0 01-.97-.12c-.2-.07-.3-.17-.3-.3v-1.86h.7c.27 0 .54-.04.8-.12.26-.08.52-.24.77-.49s.48-.6.7-1.06c.23-.46.43-1.07.62-1.82.19-.76.36-1.69.5-2.78.15-1.1.26-2.41.34-3.94h8.42v12.31zm11.85-7.57c0-.38-.05-.74-.16-1.08a2.5 2.5 0 00-.48-.9 2.2 2.2 0 00-.83-.6 2.72 2.72 0 00-1.15-.23c-.86 0-1.54.25-2.03.74-.49.48-.8 1.18-.94 2.07h5.6zm-5.65 1.79c.05.63.16 1.18.34 1.64.17.46.4.84.7 1.14.28.3.62.52 1.01.68.4.14.84.21 1.32.21.48 0 .9-.05 1.24-.17.35-.1.66-.23.91-.37.27-.13.5-.26.69-.37.2-.11.39-.17.57-.17.25 0 .43.1.55.28l.86 1.08a5.07 5.07 0 01-2.4 1.6c-.43.14-.88.25-1.35.32-.45.06-.9.1-1.33.1-.86 0-1.65-.15-2.39-.43a5.45 5.45 0 01-3.2-3.32 8.04 8.04 0 01-.06-5.22 5.55 5.55 0 013.02-3.24 6.17 6.17 0 012.49-.48c.77 0 1.49.12 2.14.37a4.64 4.64 0 012.8 2.85c.27.68.4 1.47.4 2.36 0 .45-.04.75-.14.91-.1.15-.28.23-.55.23h-7.62zm19.7 3.67v-7.93h-3.02a43.03 43.03 0 01-.3 2.8c-.12.82-.26 1.56-.42 2.2-.16.65-.34 1.21-.53 1.7-.18.47-.38.89-.6 1.23h4.87zm5.14-.08v5.43c0 .27-.08.5-.24.65a.79.79 0 01-.6.24h-1.85v-4.13h-9.21v3.3c0 .2-.07.4-.2.57-.14.17-.34.26-.62.26h-1.87v-6.24h.35c.28 0 .55-.03.81-.1.27-.09.52-.25.76-.49.25-.24.48-.58.7-1.03a8.7 8.7 0 00.6-1.81c.17-.76.32-1.7.45-2.8.14-1.1.24-2.43.32-3.97h8.34v10.12h2.26zm13.4-10.12l-6.71 15.7c-.1.2-.2.36-.35.47-.14.1-.35.16-.64.16h-2.2l2.3-4.94-4.98-11.39h2.6a.8.8 0 01.54.17c.14.11.24.24.3.38l2.62 6.39a15.88 15.88 0 01.4 1.3 64.6 64.6 0 01.45-1.31l2.47-6.38c.07-.16.17-.29.31-.4.16-.1.32-.15.5-.15h2.38zm13.59 10.21c.96 0 1.67-.34 2.12-1.03.46-.69.69-1.7.69-3.02 0-1.33-.23-2.34-.69-3.04-.45-.7-1.16-1.04-2.12-1.04-.96 0-1.67.35-2.12 1.05-.46.7-.69 1.7-.69 3.03 0 1.32.23 2.33.67 3.02.46.69 1.17 1.03 2.14 1.03zm-5.71-5.2c.1-.8.3-1.52.6-2.16a5.1 5.1 0 012.92-2.68c.66-.24 1.39-.36 2.19-.36.89 0 1.7.15 2.41.44a5.24 5.24 0 013.04 3.25c.28.79.42 1.67.42 2.63 0 .98-.15 1.86-.43 2.64a5.8 5.8 0 01-1.22 2c-.52.56-1.14.98-1.86 1.28-.72.3-1.5.44-2.36.44-.83 0-1.58-.12-2.26-.37a5.03 5.03 0 01-2.9-2.76 7.16 7.16 0 01-.56-2.24h-2.44v5.2h-2.96v-12.32h2.96v5.02h2.45zm34.11 5.1v5.44c0 .27-.08.5-.24.65a.79.79 0 01-.6.24h-1.85v-4.13h-16.6v-12.3h2.97v10.1h4.07v-10.1h2.97v10.1h4.06v-10.1h2.97v10.1h2.25zm10.6-5.37c0-.38-.05-.74-.16-1.08a2.5 2.5 0 00-.48-.9 2.2 2.2 0 00-.83-.6 2.72 2.72 0 00-1.15-.23c-.86 0-1.54.25-2.03.74-.49.48-.8 1.18-.94 2.07h5.6zm-5.65 1.79c.05.63.16 1.18.34 1.64.17.46.4.84.7 1.14.28.3.62.52 1.01.68.4.14.84.21 1.32.21.48 0 .9-.05 1.24-.17.35-.1.66-.23.91-.37.27-.13.5-.26.69-.37.2-.11.39-.17.57-.17.25 0 .43.1.55.28l.86 1.08a5.07 5.07 0 01-2.4 1.6c-.43.14-.88.25-1.35.32-.45.06-.9.1-1.33.1-.86 0-1.65-.15-2.39-.43a5.45 5.45 0 01-3.2-3.32 8.04 8.04 0 01-.06-5.22 5.55 5.55 0 013.02-3.24 6.17 6.17 0 012.49-.48c.77 0 1.49.12 2.14.37a4.64 4.64 0 012.8 2.85c.27.68.4 1.47.4 2.36 0 .45-.04.75-.14.91-.1.15-.28.23-.55.23h-7.62zm25.81-6.55v12.33h-2.68v-6.86c0-.28.02-.6.04-.95.03-.35.08-.68.14-.98l-3.62 6.64a.88.88 0 01-.84.52h-.31a.88.88 0 01-.84-.51l-3.67-6.69a10.8 10.8 0 01.19 1.97v6.86h-2.68v-12.33h2.45c.2 0 .41.04.61.13.21.09.38.26.52.53l2.9 5.18a13.92 13.92 0 01.67 1.57l.3-.81c.12-.28.24-.53.36-.76l2.88-5.18c.15-.28.32-.45.52-.53.2-.09.4-.13.61-.13h2.45zm15.12.02l-6.7 15.7c-.1.2-.21.36-.36.47-.13.1-.35.16-.63.16h-2.21l2.3-4.94-4.98-11.39h2.6a.8.8 0 01.55.17c.13.11.23.24.3.38l2.61 6.39a15.88 15.88 0 01.4 1.3 64.6 64.6 0 01.46-1.31l2.47-6.38c.06-.16.16-.29.3-.4.16-.1.33-.15.51-.15h2.38zm-122.24 31.53a5.93 5.93 0 011.86-1.28c.7-.3 1.5-.44 2.43-.44.97 0 1.82.16 2.57.48a5.46 5.46 0 013.02 3.34c.26.76.4 1.6.4 2.5 0 1.01-.15 1.91-.45 2.7a5.87 5.87 0 01-1.19 2 5.14 5.14 0 01-3.9 1.66c-.44 0-.88-.03-1.32-.1a6.43 6.43 0 01-1.28-.32 5.52 5.52 0 01-2.26-1.6l.8-.99a.64.64 0 01.56-.26.7.7 0 01.34.08c.1.05.2.1.32.18l.37.25a4.27 4.27 0 001.08.43c.23.05.51.08.83.08.82 0 1.51-.27 2.06-.82.56-.55.9-1.35 1.02-2.39h-5.22v-2.01h5.2a3.82 3.82 0 00-1.02-2.18 2.85 2.85 0 00-2.11-.78 4.26 4.26 0 00-1.76.4l-.53.29a.9.9 0 01-.45.12.62.62 0 01-.37-.1 1.62 1.62 0 01-.25-.26l-.75-.98zm23.75.67h-4.4v10.11h-2.96v-10.11h-4.38v-2.2h11.74v2.2zm9.18 4.86c-.86.04-1.58.11-2.16.23a5.6 5.6 0 00-1.4.4c-.36.17-.61.37-.76.6-.16.21-.23.46-.23.72 0 .52.15.9.45 1.12.32.22.72.34 1.22.34.6 0 1.13-.11 1.57-.33.45-.22.88-.56 1.3-1v-2.08zm-6.8-5.34a7.3 7.3 0 015.12-1.95c.72 0 1.36.12 1.93.36a3.98 3.98 0 012.33 2.49c.2.58.3 1.22.3 1.92v7.77h-1.34c-.28 0-.5-.04-.64-.12-.16-.08-.28-.26-.36-.51l-.27-.9c-.31.29-.61.54-.91.75a4.7 4.7 0 01-1.96.85 5.54 5.54 0 01-2.64-.08 3.24 3.24 0 01-1.14-.63 2.83 2.83 0 01-.74-1.05 3.7 3.7 0 01-.1-2.38c.1-.3.26-.6.5-.88s.54-.55.92-.8a6 6 0 011.38-.64c.55-.19 1.2-.33 1.92-.45.73-.12 1.56-.19 2.5-.21v-.72c0-.83-.18-1.44-.53-1.83-.35-.4-.86-.6-1.53-.6a3.67 3.67 0 00-2.02.56l-.66.37c-.2.1-.41.17-.65.17a.88.88 0 01-.53-.16 1.43 1.43 0 01-.35-.38l-.53-.95zm24.2 10.6h-2.96v-10.12h-4.8v10.11h-2.96v-12.3h10.73v12.3zm15.13-12.32l-6.71 15.7c-.09.2-.2.36-.35.47-.13.1-.35.16-.63.16h-2.21l2.3-4.94-4.98-11.39h2.6a.8.8 0 01.55.17c.13.11.23.24.3.38l2.61 6.39a15.88 15.88 0 01.4 1.3 64.6 64.6 0 01.45-1.31l2.48-6.38c.06-.16.16-.29.3-.4.16-.1.33-.15.51-.15h2.38z" fill="#5E78FF"/><path d="M607.5 345.6c-68.07 0-123.25 55.18-123.25 123.24 0 68.07 55.18 123.25 123.24 123.25 68.07 0 123.25-55.18 123.25-123.25 0-53.17-33.68-98.48-80.86-115.76" stroke="#5E78FF" stroke-width="2" stroke-dasharray="5.5 5.5"/><path d="M606.5 341.34l4.23 4.26-4.25 4.25" stroke="#5E78FF" stroke-width="2" stroke-linecap="round"/></svg>