<svg width="631" height="102" fill="none" xmlns="http://www.w3.org/2000/svg"><path d="M103.07 53.68h22.79" stroke="#5E78FF" stroke-width="2"/><path d="M124.09 50.84l2.82 2.84-2.82 2.83" stroke="#5E78FF" stroke-width="2" stroke-linecap="round"/><path d="M235.77 53.68h22.8" stroke="#5E78FF" stroke-width="2"/><path d="M256.8 50.84l2.81 2.84-2.82 2.83" stroke="#5E78FF" stroke-width="2" stroke-linecap="round"/><path d="M369.44 53.68h22.79" stroke="#5E78FF" stroke-width="2"/><path d="M390.46 50.84l2.82 2.84-2.82 2.83" stroke="#5E78FF" stroke-width="2" stroke-linecap="round"/><path d="M503.11 53.68h22.79" stroke="#5E78FF" stroke-width="2"/><path d="M524.13 50.84l2.82 2.84-2.82 2.83" stroke="#5E78FF" stroke-width="2" stroke-linecap="round"/><circle cx="48.26" cy="53.68" r="47.26" stroke="#5E78FF" stroke-width="2"/><path d="M17.5 42.43a2.1 2.1 0 001.93-1.38 2.43 2.43 0 00-.42-2.45 2.05 2.05 0 00-1.51-.68v4.5zm-1.53-4.51a2.07 2.07 0 00-1.93 1.4 2.52 2.52 0 000 1.73 2.11 2.11 0 001.93 1.38v-4.51zm1.53-1.24c.54.01 1.04.12 1.49.3a3.66 3.66 0 011.93 1.86 3.31 3.31 0 01-.77 3.77c-.32.32-.71.57-1.16.76-.45.19-.95.29-1.49.3v1.04h-1.53v-1.04a3.88 3.88 0 01-2.65-1.06 3.45 3.45 0 01-1.05-2.44 3.26 3.26 0 011.05-2.42c.33-.32.72-.57 1.17-.76.45-.19.94-.3 1.48-.31v-1.02h1.53v1.02zm8.44 1.77c.45 0 .87.08 1.24.23a2.7 2.7 0 011.58 1.62c.14.4.21.83.21 1.32 0 .48-.07.92-.21 1.32-.15.39-.35.72-.62 1-.26.27-.58.49-.96.63-.37.15-.79.23-1.24.23a3.4 3.4 0 01-1.26-.23 2.71 2.71 0 01-1.58-1.63 3.8 3.8 0 01-.22-1.32c0-.49.08-.93.22-1.32.15-.39.35-.72.62-1 .27-.27.59-.48.96-.62.38-.15.8-.23 1.26-.23zm0 5.2c.51 0 .89-.17 1.13-.51.25-.34.37-.85.37-1.51a2.6 2.6 0 00-.37-1.52c-.24-.35-.62-.52-1.13-.52-.52 0-.9.17-1.16.53-.25.34-.37.85-.37 1.5 0 .67.12 1.17.37 1.52.25.34.64.52 1.16.52zm6.65-.54c.16.2.35.35.54.43a1.66 1.66 0 001.26 0c.18-.08.33-.21.45-.38.13-.17.23-.39.3-.65.06-.26.1-.57.1-.93 0-.36-.03-.66-.1-.91a1.73 1.73 0 00-.24-.61.98.98 0 00-.4-.35 1.2 1.2 0 00-.52-.1c-.3 0-.56.06-.78.2-.22.12-.42.3-.61.54v2.76zm-.08-3.72c.25-.28.54-.51.86-.69a2.3 2.3 0 012.04-.05c.28.14.52.34.72.6.2.27.36.6.47 1a4.84 4.84 0 01-.02 2.6c-.12.4-.3.74-.53 1.03-.23.29-.5.51-.83.68-.33.16-.7.24-1.1.24-.34 0-.63-.06-.88-.16a2.2 2.2 0 01-.65-.44v2.52H31.1v-8.17h.91c.2 0 .32.09.38.27l.12.57zm13.54-.85v6.17H44.7v-3.44a7.04 7.04 0 01.09-.96l-1.81 3.32a.44.44 0 01-.42.26h-.16a.44.44 0 01-.42-.26l-1.83-3.34a5.4 5.4 0 01.1.98v3.44H38.9v-6.17h1.23c.1 0 .2.02.3.06.1.05.2.14.26.27l1.45 2.59a4.27 4.27 0 01.34.79l.15-.41.18-.38 1.44-2.6a.53.53 0 01.26-.26c.1-.04.2-.06.3-.06h1.23zm8 .01v6.16h-1.48v-3.6a4.08 4.08 0 01.05-.63 2.91 2.91 0 01-.38.65 152.74 152.74 0 01-1.1 1.55l-1.2 1.67c-.05.08-.12.16-.21.24a.44.44 0 01-.3.12h-.91v-6.15H50v3.59c0 .1 0 .2-.02.3 0 .11-.02.22-.04.34a3.13 3.13 0 01.38-.65 37.39 37.39 0 00.67-.93l.44-.63 1.18-1.66c.06-.1.13-.17.23-.25.09-.08.2-.12.3-.12h.9zm3.94 4.56c.17.2.35.35.55.43a1.66 1.66 0 001.25 0c.18-.08.34-.21.46-.38.13-.17.23-.39.3-.65.06-.26.1-.57.1-.93 0-.36-.03-.66-.1-.91a1.73 1.73 0 00-.24-.61.98.98 0 00-.4-.35 1.2 1.2 0 00-.52-.1c-.3 0-.57.06-.78.2-.22.12-.42.3-.62.54v2.76zm-.07-3.72c.25-.28.53-.51.85-.69a2.3 2.3 0 012.05-.05c.28.14.52.34.72.6.2.27.36.6.47 1a4.84 4.84 0 01-.02 2.6c-.12.4-.3.74-.53 1.03a2.43 2.43 0 01-1.93.92c-.34 0-.64-.06-.88-.16a2.2 2.2 0 01-.66-.44v2.52h-1.48v-8.17h.9c.2 0 .33.09.39.27l.12.57zm9.12-.94c.46 0 .87.08 1.25.23a2.7 2.7 0 011.57 1.62c.15.4.22.83.22 1.32 0 .48-.07.92-.22 1.32a2.65 2.65 0 01-1.58 1.64c-.37.14-.78.22-1.24.22a3.4 3.4 0 01-1.25-.23 2.71 2.71 0 01-1.58-1.63 3.8 3.8 0 01-.22-1.32c0-.49.07-.93.22-1.32.14-.39.35-.72.61-1 .27-.27.6-.48.97-.62.38-.15.8-.23 1.25-.23zm0 5.2c.52 0 .9-.17 1.14-.51.25-.34.37-.85.37-1.51a2.6 2.6 0 00-.37-1.52c-.25-.35-.62-.52-1.14-.52-.52 0-.9.17-1.15.53-.25.34-.38.85-.38 1.5 0 .67.13 1.17.38 1.52.25.34.63.52 1.15.52zm7.68.04c.32 0 .56-.07.74-.23a.77.77 0 00.28-.62.98.98 0 00-.05-.31.56.56 0 00-.16-.26.77.77 0 00-.3-.17c-.14-.04-.3-.06-.5-.06h-1.1v1.65h1.1zm-1.1-4.17v1.61h.97a1 1 0 00.7-.24.85.85 0 00.21-.28.86.86 0 00.03-.62.57.57 0 00-.16-.24.77.77 0 00-.3-.17 1.42 1.42 0 00-.48-.06h-.97zm1.01-.97c.4 0 .73.04 1 .11.3.08.52.18.7.32a1.24 1.24 0 01.55 1.06c0 .13-.02.27-.06.41a1.34 1.34 0 01-.53.77c-.14.1-.33.2-.56.25.2.05.4.1.56.19.17.07.31.17.43.3.12.1.21.25.28.4.07.16.1.34.1.53a1.59 1.59 0 01-.72 1.38c-.22.15-.47.26-.76.33-.28.07-.58.1-.89.1h-2.52v-6.15h2.42zm7.87 3.53a7.8 7.8 0 00-1.08.11c-.3.05-.53.12-.7.2a.92.92 0 00-.38.3.64.64 0 00-.12.37c0 .26.08.44.23.55.16.12.36.17.6.17.31 0 .57-.05.8-.16.22-.11.44-.28.65-.5v-1.04zm-3.4-2.67c.71-.65 1.56-.97 2.56-.97.36 0 .68.06.96.18a1.99 1.99 0 011.17 1.24c.1.29.15.61.15.96v3.89h-.67a.7.7 0 01-.32-.06c-.08-.05-.14-.13-.18-.26l-.13-.45c-.16.14-.31.27-.46.38a2.8 2.8 0 01-.98.42 2.77 2.77 0 01-1.32-.04 1.62 1.62 0 01-.57-.32 1.41 1.41 0 01-.37-.52 1.85 1.85 0 01-.05-1.19c.05-.15.13-.3.25-.44s.27-.27.46-.4a3 3 0 01.69-.32 9.19 9.19 0 012.2-.33v-.36c0-.41-.08-.72-.26-.91-.17-.2-.43-.3-.76-.3a1.84 1.84 0 00-1.01.27l-.33.19c-.1.05-.2.08-.33.08-.1 0-.19-.02-.26-.08a.72.72 0 01-.17-.19l-.27-.47zM17.8 52.55v6.16h-1.48v-2.73h-2.4v2.73h-1.48v-6.16h1.48v2.33h2.4v-2.33h1.48zm8 0v6.16h-1.48v-3.6a4.08 4.08 0 01.05-.63 2.91 2.91 0 01-.38.65 152.74 152.74 0 01-1.1 1.55l-1.19 1.67c-.05.08-.13.16-.22.24a.44.44 0 01-.3.12h-.91v-6.15h1.48v3.59c0 .1 0 .2-.02.3l-.03.34a3.13 3.13 0 01.38-.65 37.39 37.39 0 00.66-.93 353.76 353.76 0 011.63-2.3c.05-.08.13-.16.22-.24.1-.08.2-.12.31-.12h.9zm6.43 2.37c0-.2-.03-.37-.08-.54a1.25 1.25 0 00-.24-.45 1.1 1.1 0 00-.42-.3 1.36 1.36 0 00-.57-.11c-.43 0-.77.12-1.02.36-.24.25-.4.6-.46 1.04h2.8zm-2.82.9c.02.31.08.58.16.82.1.22.2.41.35.57.15.14.32.26.51.33.2.07.42.11.66.11a2 2 0 00.62-.08 7.55 7.55 0 00.8-.37c.1-.06.2-.09.29-.09.12 0 .21.05.27.14l.43.54a2.54 2.54 0 01-1.2.8 4.79 4.79 0 01-1.34.21c-.43 0-.83-.07-1.2-.21a2.73 2.73 0 01-1.6-1.67 4.02 4.02 0 01-.03-2.6 2.77 2.77 0 011.51-1.62c.37-.17.79-.25 1.25-.25.39 0 .74.07 1.07.19a2.32 2.32 0 011.4 1.42c.14.35.2.74.2 1.18 0 .23-.02.38-.07.46-.05.08-.14.11-.27.11H29.4zm9.82-2.6c.24-.23.52-.41.87-.55a3.2 3.2 0 011.23-.22c.38 0 .72.05 1.02.14.3.09.54.21.74.37.2.15.36.33.46.53a1.26 1.26 0 01.11.98 1.4 1.4 0 01-.47.7c-.13.1-.29.19-.48.26.34.13.6.32.81.56.21.25.32.56.32.92 0 .3-.07.57-.21.8-.14.23-.32.43-.55.6a3.26 3.26 0 01-3.47-.03c-.2-.14-.37-.3-.53-.5l.42-.53a.3.3 0 01.27-.14c.1 0 .18.03.27.09l.29.2c.1.06.24.12.4.18.14.06.33.09.56.09.37 0 .66-.09.85-.25a.8.8 0 00.29-.63c0-.25-.1-.45-.3-.59-.2-.14-.52-.2-.96-.2h-.7v-.97h.7c.38 0 .68-.07.89-.2.2-.14.31-.32.31-.55a.6.6 0 00-.27-.5c-.18-.13-.45-.2-.8-.2a1.92 1.92 0 00-.93.21l-.27.14a.39.39 0 01-.38.03.53.53 0 01-.15-.17l-.34-.57zm10.02 2.86a7.8 7.8 0 00-1.08.11c-.3.05-.53.12-.7.2a.92.92 0 00-.38.3.64.64 0 00-.12.37c0 .26.08.44.23.55.16.12.36.17.6.17.31 0 .57-.05.8-.16.22-.11.44-.28.65-.5v-1.04zm-3.4-2.67c.71-.65 1.56-.97 2.56-.97.36 0 .68.06.96.18a1.99 1.99 0 011.17 1.24c.1.29.15.61.15.96v3.89h-.67a.7.7 0 01-.32-.06c-.08-.05-.14-.13-.18-.26l-.13-.45c-.16.14-.31.27-.46.38a2.8 2.8 0 01-.98.42 2.77 2.77 0 01-1.32-.04 1.62 1.62 0 01-.57-.32 1.41 1.41 0 01-.37-.52 1.85 1.85 0 01-.05-1.19c.05-.15.13-.3.25-.44s.27-.27.46-.4a3 3 0 01.69-.32 9.19 9.19 0 012.2-.33v-.36c0-.41-.08-.72-.26-.91-.17-.2-.43-.3-.76-.3a1.84 1.84 0 00-1.01.27l-.33.19c-.1.05-.2.08-.33.08-.1 0-.19-.02-.26-.08a.72.72 0 01-.17-.19l-.27-.47zm10.45 1.91v-1.8h-.8c-.2 0-.35.02-.47.08a.85.85 0 00-.3.21.74.74 0 00-.17.29c-.03.1-.05.21-.05.32 0 .28.1.5.28.66.2.16.45.24.77.24h.74zm1.4-2.77v6.16h-1.4v-2.48h-.26c-.12 0-.22.02-.3.04a.6.6 0 00-.33.23l-.12.18-.98 1.52-.16.22a.72.72 0 01-.43.26c-.1.02-.2.03-.34.03h-1.02l1.55-2.18a1.25 1.25 0 01.7-.58 2.54 2.54 0 01-.75-.24c-.2-.12-.36-.24-.48-.39a1.45 1.45 0 01-.36-.97c0-.23.05-.45.14-.67.09-.21.23-.4.43-.57.2-.17.45-.3.75-.4.31-.1.68-.16 1.11-.16h2.26zm5 5.14c.3 0 .56-.07.74-.23a.77.77 0 00.27-.62.98.98 0 00-.05-.31.56.56 0 00-.15-.26.77.77 0 00-.31-.17c-.13-.04-.3-.06-.5-.06h-1.1v1.65h1.1zm-1.1-4.17v1.61h.97a1 1 0 00.7-.24.85.85 0 00.2-.28.86.86 0 00.03-.62.57.57 0 00-.16-.24.77.77 0 00-.3-.17 1.42 1.42 0 00-.47-.06h-.98zm1-.97c.4 0 .73.04 1 .11.3.08.53.18.71.32a1.24 1.24 0 01.54 1.06c0 .13-.02.27-.05.41a1.34 1.34 0 01-.53.77c-.15.1-.34.2-.56.25.2.05.39.1.55.19.17.07.32.17.44.3a1.3 1.3 0 01.38.94 1.59 1.59 0 01-.73 1.37c-.21.15-.46.26-.75.33s-.58.1-.9.1h-2.52v-6.15h2.43zm7.34-.1c.46 0 .87.08 1.24.23a2.7 2.7 0 011.58 1.62c.15.4.22.83.22 1.32 0 .48-.07.92-.22 1.32-.14.39-.35.72-.62 1-.26.27-.58.49-.96.63-.37.15-.78.23-1.24.23a3.4 3.4 0 01-1.25-.23 2.71 2.71 0 01-1.59-1.63 3.8 3.8 0 01-.21-1.32c0-.49.07-.93.21-1.32.15-.39.36-.72.62-1 .27-.27.6-.48.97-.62.37-.15.8-.23 1.25-.23zm0 5.2c.51 0 .9-.17 1.14-.51.24-.34.37-.85.37-1.51a2.6 2.6 0 00-.37-1.52c-.25-.35-.63-.52-1.14-.52-.52 0-.9.17-1.16.53-.24.34-.37.85-.37 1.5 0 .67.13 1.17.37 1.52.26.34.64.52 1.16.52zm8.85-4.71a.83.83 0 01.69-.39h1.16l-1.43 2.29c-.1.16-.2.29-.3.39-.11.1-.24.17-.39.22.2.06.37.15.5.27.12.12.24.27.34.45l1.44 2.54h-1.02c-.26 0-.47-.05-.6-.14a1.1 1.1 0 01-.38-.37l-.9-1.7a.8.8 0 00-.75-.45h-.56v2.66h-1.48v-6.16h1.48v2.54h.48c.17 0 .3-.03.4-.1.1-.06.2-.15.27-.28l1.05-1.77zM16.25 66.45c.46 0 .87.08 1.24.23a2.7 2.7 0 011.58 1.62c.15.4.22.83.22 1.32 0 .48-.07.92-.22 1.32-.14.39-.35.72-.62 1-.26.27-.58.49-.96.63-.37.15-.78.23-1.24.23a3.4 3.4 0 01-1.25-.23 2.71 2.71 0 01-1.59-1.63 3.8 3.8 0 01-.21-1.32c0-.49.07-.93.21-1.32.15-.39.36-.72.62-1 .27-.27.6-.48.97-.62.37-.15.8-.23 1.25-.23zm0 5.2c.51 0 .9-.17 1.14-.51.24-.34.37-.85.37-1.51a2.6 2.6 0 00-.37-1.52c-.25-.35-.63-.52-1.14-.52-.52 0-.9.17-1.16.53-.24.34-.37.85-.37 1.5 0 .67.13 1.17.37 1.52.26.34.64.52 1.16.52zm10.27-4h-2.2v5.06h-1.47v-5.06h-2.2v-1.1h5.87v1.1zm9.47-.71a.83.83 0 01.7-.39h1.16l-1.44 2.29c-.1.16-.2.29-.3.39-.1.1-.23.17-.38.22.2.06.36.15.49.27.13.12.24.27.35.45L38 72.7h-1.03c-.26 0-.46-.05-.6-.14a1.1 1.1 0 01-.37-.37l-.9-1.7a.8.8 0 00-.76-.45h-.55v2.66H32.3v-6.16h1.49v2.54h.48c.16 0 .3-.03.4-.1.1-.06.19-.15.26-.28L36 66.94zm9.55 5.77h-1.48v-5.03h-1.51c-.05.76-.12 1.41-.22 1.96-.1.54-.22 1-.36 1.39-.14.38-.3.68-.47.91-.16.23-.34.41-.54.54-.19.13-.39.21-.59.25-.2.04-.41.07-.62.07-.22 0-.38-.02-.48-.06-.1-.04-.15-.1-.15-.16v-.92h.35c.13 0 .26-.02.4-.06a.93.93 0 00.38-.25c.12-.12.24-.3.35-.53.12-.23.22-.53.31-.91.1-.38.18-.84.25-1.4.07-.54.13-1.2.17-1.96h4.21v6.16zm8-6.16v6.16h-1.49v-3.6a4.08 4.08 0 01.06-.63 2.91 2.91 0 01-.39.65 152.74 152.74 0 01-1.1 1.55l-1.18 1.67c-.06.08-.13.16-.23.24a.44.44 0 01-.3.12H48v-6.15h1.47v3.59l-.01.3-.04.34a3.13 3.13 0 01.38-.65 37.39 37.39 0 00.66-.93 353.76 353.76 0 011.63-2.3c.06-.08.13-.16.22-.24.1-.08.2-.12.31-.12h.9zm6.42 2.37c0-.2-.02-.37-.08-.54a1.25 1.25 0 00-.24-.45 1.1 1.1 0 00-.41-.3 1.36 1.36 0 00-.58-.11c-.43 0-.77.12-1.01.36-.25.25-.4.6-.47 1.04h2.8zm-2.82.9c.02.31.08.58.17.82.08.22.2.41.34.57.15.14.32.26.51.33.2.07.42.11.66.11a2 2 0 00.62-.08 7.55 7.55 0 00.8-.37c.1-.06.2-.09.29-.09.12 0 .21.05.27.14l.43.54a2.54 2.54 0 01-1.2.8 4.79 4.79 0 01-1.34.21c-.43 0-.82-.07-1.2-.21a2.73 2.73 0 01-1.6-1.67 4.02 4.02 0 01-.02-2.6 2.77 2.77 0 011.51-1.62c.37-.17.78-.25 1.24-.25.39 0 .75.07 1.07.19a2.32 2.32 0 011.4 1.42c.14.35.2.74.2 1.18 0 .23-.02.38-.07.46-.04.08-.14.11-.27.11h-3.81zm11.63-3.27v6.16H67.3v-2.73h-2.4v2.73h-1.48v-6.16h1.48v2.33h2.4v-2.33h1.48zm7.75 1.1h-2.2v5.06h-1.48v-5.06h-2.19v-1.1h5.87v1.1zm5.09 2.43a7.8 7.8 0 00-1.08.11c-.3.05-.53.12-.7.2a.92.92 0 00-.38.3.64.64 0 00-.12.37c0 .26.08.44.23.55.16.12.36.17.6.17.31 0 .58-.05.8-.16.22-.11.44-.28.65-.5v-1.04zm-3.4-2.67c.71-.65 1.56-.97 2.56-.97.36 0 .68.06.97.18a1.99 1.99 0 011.16 1.24c.1.29.16.61.16.96v3.89h-.68a.7.7 0 01-.32-.06c-.08-.05-.14-.13-.18-.26l-.13-.45c-.16.14-.31.27-.46.38a2.8 2.8 0 01-.98.42A2.77 2.77 0 0179 72.7a1.62 1.62 0 01-.57-.32 1.41 1.41 0 01-.37-.52 1.85 1.85 0 01-.05-1.19c.05-.15.13-.3.25-.44s.27-.27.46-.4a3 3 0 01.7-.32 9.19 9.19 0 012.2-.33v-.36c0-.41-.09-.72-.27-.91-.17-.2-.42-.3-.76-.3a1.84 1.84 0 00-1.01.27l-.33.19c-.1.05-.2.08-.32.08-.1 0-.2-.02-.27-.08a.72.72 0 01-.17-.19l-.27-.47z" fill="#5E78FF"/><circle cx="181.5" cy="53.68" r="47.26" stroke="#5E78FF" stroke-width="2"/><path d="M150.16 51.36h-1.62v-7.43h-3.77v7.43h-1.62V42.7h7.01v8.67zm4.09-1.6c.16.21.35.35.54.44a1.66 1.66 0 001.26 0c.18-.09.33-.21.45-.39.13-.17.23-.38.3-.64.06-.27.1-.58.1-.93 0-.36-.03-.67-.1-.92a1.73 1.73 0 00-.24-.6.98.98 0 00-.4-.35 1.2 1.2 0 00-.52-.1c-.3 0-.57.06-.78.19-.22.13-.42.31-.61.55v2.76zm-.08-3.71c.25-.29.54-.52.86-.7a2.3 2.3 0 012.04-.05c.28.14.52.35.72.61.2.27.36.6.47.99a4.84 4.84 0 01-.02 2.61c-.12.4-.3.74-.53 1.02a2.43 2.43 0 01-1.93.92c-.34 0-.64-.05-.88-.15a2.2 2.2 0 01-.65-.45v2.52h-1.49v-8.16h.91c.2 0 .32.09.38.27l.12.57zm10.37 1.53c0-.2-.03-.38-.09-.54a1.25 1.25 0 00-.24-.45 1.1 1.1 0 00-.41-.3 1.36 1.36 0 00-.58-.12c-.42 0-.76.12-1.01.37-.24.24-.4.59-.47 1.04h2.8zm-2.83.89c.03.32.08.59.17.82.09.23.2.42.35.57.14.15.31.26.5.34.2.07.43.1.67.1a2 2 0 00.62-.08c.17-.05.32-.12.45-.18l.34-.19c.1-.06.2-.08.3-.08.12 0 .2.04.27.13l.42.54a2.54 2.54 0 01-1.19.8 4.79 4.79 0 01-1.34.21c-.43 0-.83-.07-1.2-.2a2.73 2.73 0 01-1.6-1.67 4.02 4.02 0 01-.03-2.61 2.77 2.77 0 011.51-1.62c.37-.16.78-.24 1.24-.24.4 0 .75.06 1.08.19a2.32 2.32 0 011.4 1.42c.13.34.2.74.2 1.18 0 .22-.02.38-.07.46-.05.07-.14.11-.28.11h-3.8zm10.35 1.84v-3.97h-1.5c-.05.52-.1.98-.16 1.4a11.64 11.64 0 01-.47 1.95c-.1.24-.2.44-.3.62h2.43zm2.57-.05v2.72c0 .14-.04.25-.12.33a.4.4 0 01-.3.12h-.92v-2.07h-4.61v1.65c0 .1-.03.2-.1.28-.07.1-.17.14-.3.14h-.94V50.3h.17c.14 0 .28-.02.4-.06a.91.91 0 00.38-.24c.13-.12.25-.29.35-.51.12-.23.22-.53.3-.91.1-.38.17-.85.23-1.4.07-.55.12-1.21.16-1.98h4.17v5.05h1.13zm4.55-5.15c.46 0 .87.07 1.25.22a2.7 2.7 0 011.57 1.63c.15.39.22.83.22 1.31 0 .49-.07.93-.22 1.32-.14.4-.35.73-.62 1-.26.28-.58.5-.95.64-.38.15-.8.22-1.25.22a3.4 3.4 0 01-1.25-.22 2.71 2.71 0 01-1.59-1.64 3.8 3.8 0 01-.21-1.32c0-.48.07-.92.22-1.31.14-.4.35-.73.61-1 .27-.27.6-.48.97-.63.38-.15.8-.22 1.25-.22zm0 5.2c.51 0 .9-.17 1.14-.51.25-.35.37-.85.37-1.52a2.6 2.6 0 00-.37-1.51c-.25-.35-.63-.53-1.14-.53-.52 0-.9.18-1.16.53-.24.35-.37.85-.37 1.51s.13 1.17.38 1.52c.25.34.63.51 1.15.51zm10.53 1.05h-1.48V46.3h-2.4v5.06h-1.48v-6.15h5.36v6.15zm8.18 0h-1.48v-5.02h-1.51c-.05.76-.12 1.4-.22 1.96-.1.54-.22 1-.36 1.38-.14.38-.3.69-.46.92-.17.23-.35.4-.54.53-.2.13-.4.22-.6.26-.2.04-.4.06-.62.06-.22 0-.38-.02-.48-.06-.1-.03-.15-.09-.15-.15v-.93h.35c.13 0 .27-.02.4-.06a.93.93 0 00.38-.24c.13-.13.24-.3.36-.53.1-.23.21-.54.3-.91.1-.38.18-.85.25-1.4.08-.54.13-1.2.17-1.96h4.21v6.15zm5.72-2.63a7.8 7.8 0 00-1.08.12c-.3.05-.53.12-.7.2a.92.92 0 00-.38.3.64.64 0 00-.12.36c0 .26.08.45.23.56.16.11.36.17.6.17.31 0 .57-.06.8-.16.22-.12.43-.28.65-.5v-1.05zm-3.4-2.67c.7-.64 1.56-.97 2.56-.97.36 0 .68.06.96.18a1.99 1.99 0 011.17 1.24c.1.3.15.62.15.96v3.9h-.67a.7.7 0 01-.32-.07c-.08-.04-.14-.13-.18-.26l-.14-.44c-.15.14-.3.26-.45.37a2.8 2.8 0 01-.98.43 2.77 2.77 0 01-1.32-.04 1.62 1.62 0 01-.57-.32 1.41 1.41 0 01-.37-.52 1.85 1.85 0 01-.06-1.2c.06-.15.14-.3.26-.44s.27-.27.46-.4a3 3 0 01.69-.32 9.19 9.19 0 012.2-.33v-.36c0-.4-.08-.71-.26-.9-.17-.2-.43-.3-.76-.3a1.84 1.84 0 00-1.01.27l-.33.18c-.1.06-.2.09-.33.09-.1 0-.19-.03-.26-.08a.72.72 0 01-.18-.2l-.26-.47zm12.41.24h-2.2v5.06h-1.48V46.3h-2.19v-1.1h5.87v1.1zm5.1 2.43a7.8 7.8 0 00-1.09.12c-.3.05-.53.12-.7.2a.92.92 0 00-.38.3.64.64 0 00-.11.36c0 .26.07.45.22.56.16.11.36.17.61.17.3 0 .57-.06.79-.16.22-.12.44-.28.65-.5v-1.05zm-3.4-2.67c.7-.64 1.56-.97 2.55-.97.36 0 .68.06.97.18a1.99 1.99 0 011.16 1.24c.1.3.16.62.16.96v3.9h-.67a.7.7 0 01-.33-.07c-.07-.04-.13-.13-.18-.26l-.13-.44c-.16.14-.3.26-.46.37a2.8 2.8 0 01-.97.43 2.77 2.77 0 01-1.32-.04 1.62 1.62 0 01-.57-.32 1.41 1.41 0 01-.38-.52 1.85 1.85 0 01-.05-1.2c.05-.15.14-.3.25-.44.12-.14.28-.27.46-.4a3 3 0 01.7-.32 9.19 9.19 0 012.2-.33v-.36c0-.4-.09-.71-.26-.9-.18-.2-.43-.3-.76-.3a1.84 1.84 0 00-1.02.27l-.33.18c-.1.06-.2.09-.32.09-.1 0-.2-.03-.27-.08a.72.72 0 01-.17-.2l-.27-.47zm-43.26 13.78a4.88 4.88 0 011.06-.12c.46 0 .86.07 1.21.2a2.36 2.36 0 011.41 1.41 3.15 3.15 0 01-.07 2.3 2.85 2.85 0 01-1.7 1.6 3.6 3.6 0 01-2.05.14 4.1 4.1 0 01-1.29-.54 4.06 4.06 0 01-.48-.4l.45-.62c.1-.14.23-.2.38-.2.1 0 .2.03.3.09l.36.21c.14.08.3.15.48.21s.4.1.66.1c.27 0 .5-.05.72-.14.2-.08.38-.2.51-.36.14-.16.25-.35.31-.57.08-.22.11-.45.11-.71 0-.47-.14-.84-.41-1.1-.27-.27-.68-.4-1.21-.4-.42 0-.84.07-1.27.22l-.92-.26.72-4.21h4.28v.63a.7.7 0 01-.2.51c-.13.13-.35.2-.67.2h-2.38l-.3 1.8zm12.19 1.18c0 .76-.09 1.42-.25 1.98a3.97 3.97 0 01-.67 1.38 2.71 2.71 0 01-2.28 1.08 2.74 2.74 0 01-2.26-1.08c-.28-.37-.5-.83-.66-1.38a7.23 7.23 0 01-.24-1.98c0-.76.08-1.41.24-1.97.16-.56.38-1.02.66-1.38.29-.36.62-.63 1-.81.4-.18.81-.27 1.27-.27.45 0 .87.09 1.25.27.4.18.73.45 1.02.81.29.36.51.82.67 1.38.16.56.25 1.21.25 1.97zm-1.53 0c0-.62-.05-1.14-.14-1.56-.1-.4-.22-.74-.37-.98a1.3 1.3 0 00-1.16-.66c-.2 0-.41.05-.61.15-.2.1-.37.27-.53.51a3.2 3.2 0 00-.36.98c-.09.42-.13.94-.13 1.56 0 .63.04 1.15.13 1.56.1.42.21.74.36.99.16.24.33.41.53.51a1.41 1.41 0 001.24 0c.2-.1.38-.27.53-.51.15-.25.28-.57.37-.99.1-.4.14-.93.14-1.56zm7.3-2.23a2.25 2.25 0 01-.6 1.56 1.94 1.94 0 01-1.41.58c-.3 0-.56-.05-.8-.15-.25-.1-.46-.24-.64-.43a2.03 2.03 0 01-.41-.68 2.5 2.5 0 01-.15-.88c0-.34.05-.64.15-.92a1.83 1.83 0 011.05-1.12c.24-.1.5-.15.8-.15a2.01 2.01 0 011.44.58c.18.2.32.42.42.7.1.27.15.57.15.9zm-1.14 0a2 2 0 00-.07-.59c-.05-.15-.11-.28-.2-.37a.62.62 0 00-.27-.2.85.85 0 00-.33-.07.85.85 0 00-.34.06c-.1.04-.2.11-.27.2-.07.1-.13.23-.17.38-.05.16-.07.35-.07.59 0 .22.02.4.07.56.04.15.1.27.17.36.08.1.17.16.27.2.1.04.22.06.34.06.12 0 .23-.02.33-.06.11-.04.2-.1.28-.2.08-.1.14-.21.19-.36.04-.15.07-.34.07-.56zm4.02-1.87a1 1 0 01.18-.16.54.54 0 01.3-.07h1.08l-6.44 8.45a.72.72 0 01-.19.16.54.54 0 01-.26.06h-1.1l6.43-8.44zm2.02 6.4a2.25 2.25 0 01-.6 1.57 2.02 2.02 0 01-2.2.43c-.25-.1-.47-.25-.65-.43a2.03 2.03 0 01-.4-.68 2.5 2.5 0 01-.16-.89c0-.33.05-.64.15-.91a1.83 1.83 0 011.05-1.12c.25-.1.51-.16.8-.16a2.01 2.01 0 011.43.59c.18.19.32.42.42.69.1.27.16.58.16.91zm-1.15 0c0-.23-.02-.42-.06-.58-.05-.16-.1-.28-.19-.38a.62.62 0 00-.28-.2.85.85 0 00-.33-.07.85.85 0 00-.34.07c-.1.04-.2.1-.27.2s-.13.22-.18.38c-.04.16-.06.35-.06.58 0 .23.02.41.06.57.05.15.1.27.18.36.08.1.17.16.27.2.1.04.22.06.34.06.12 0 .23-.02.34-.06.1-.04.2-.1.27-.2.08-.09.14-.21.19-.36.04-.16.06-.34.06-.57z" fill="#5E78FF"/><circle cx="314.53" cy="53.68" r="47.26" stroke="#5E78FF" stroke-width="2"/><path d="M294.1 32.38c0 .63-.1 1.22-.31 1.77a4.12 4.12 0 01-4.08 2.66c-.65 0-1.25-.1-1.8-.33a4.15 4.15 0 01-2.28-2.33 4.83 4.83 0 01-.31-1.77c0-.64.1-1.23.31-1.77a4.08 4.08 0 012.29-2.33 4.78 4.78 0 014.1.25 4 4 0 011.94 2.63c.1.39.15.8.15 1.22zm-1.65 0c0-.48-.06-.9-.19-1.28s-.3-.7-.54-.97a2.33 2.33 0 00-.87-.6 2.94 2.94 0 00-1.14-.21c-.42 0-.8.07-1.14.2a2.4 2.4 0 00-1.41 1.58c-.13.37-.2.8-.2 1.28 0 .47.07.9.2 1.28s.3.7.54.96c.24.26.53.46.87.6.34.14.72.21 1.14.21.43 0 .8-.07 1.14-.2.34-.15.63-.35.87-.6.23-.27.41-.6.54-.97a4 4 0 00.2-1.28zm9.12-.72h-2.2v5.05h-1.48v-5.05h-2.19v-1.1h5.87v1.1zm6.73-1.1v6.15h-1.48V34.3c-.53.12-1.02.2-1.47.22-.45.01-.85-.04-1.18-.16a1.6 1.6 0 01-.77-.62 2.06 2.06 0 01-.28-1.14v-2.04h1.49v1.82c0 .25.03.45.12.6.08.16.2.27.38.34.19.07.41.1.7.08a6.7 6.7 0 001-.14v-2.7h1.5zm6.44 2.37c0-.2-.03-.37-.09-.54a1.25 1.25 0 00-.24-.45 1.1 1.1 0 00-.41-.3 1.36 1.36 0 00-.58-.12c-.43 0-.77.13-1.01.37-.25.24-.4.6-.47 1.04h2.8zm-2.83.9c.02.3.08.58.17.81.09.23.2.42.35.57.14.15.3.26.5.34.2.07.43.1.67.1a2 2 0 00.61-.08c.18-.05.33-.11.46-.18l.34-.19c.1-.05.2-.08.29-.08.12 0 .21.04.27.14l.43.54a2.54 2.54 0 01-1.2.8 4.79 4.79 0 01-1.34.21c-.42 0-.82-.08-1.2-.22a2.73 2.73 0 01-1.6-1.66 4.02 4.02 0 01-.02-2.6 2.77 2.77 0 011.51-1.62c.37-.17.78-.25 1.24-.25.39 0 .75.06 1.07.19a2.32 2.32 0 011.4 1.42c.14.34.2.74.2 1.18 0 .23-.02.38-.06.46-.05.07-.14.11-.28.11h-3.81zm11.5-2.17h-2.2v5.05h-1.48v-5.05h-2.19v-1.1h5.87v1.1zm11.16 5.05h-1.49v-5.05h-2.4v5.05h-1.48v-6.15h5.37v6.15zm5.19-6.25c.45 0 .87.08 1.24.22a2.7 2.7 0 011.58 1.63c.14.4.22.83.22 1.31 0 .5-.08.93-.22 1.32-.14.4-.35.73-.62 1-.26.28-.58.5-.96.64-.37.15-.79.22-1.24.22a3.4 3.4 0 01-1.25-.22 2.71 2.71 0 01-1.59-1.64 3.8 3.8 0 01-.22-1.32c0-.48.08-.92.22-1.3a2.75 2.75 0 011.58-1.63c.38-.15.8-.23 1.26-.23zm0 5.2c.51 0 .89-.17 1.13-.51.25-.35.38-.85.38-1.51a2.6 2.6 0 00-.38-1.52c-.24-.35-.62-.52-1.13-.52-.52 0-.9.17-1.16.52-.25.35-.37.86-.37 1.52s.12 1.16.37 1.5c.25.35.64.52 1.16.52zm-63.98 15.05h-1.48v-5.05h-2.4v5.05h-1.48v-6.15h5.36v6.15zm3.95-1.6c.17.21.35.36.54.44a1.66 1.66 0 001.26 0c.18-.08.33-.21.46-.38.12-.18.22-.4.29-.65.07-.27.1-.58.1-.93 0-.36-.03-.67-.09-.91a1.73 1.73 0 00-.25-.62.98.98 0 00-.4-.34 1.2 1.2 0 00-.51-.1c-.31 0-.57.06-.79.2-.21.12-.42.3-.61.54v2.76zm-.08-3.71c.25-.29.54-.52.86-.7a2.3 2.3 0 012.05-.05c.27.14.51.35.71.62.2.26.37.59.47.98a4.84 4.84 0 01-.01 2.62c-.13.39-.3.73-.54 1.02a2.43 2.43 0 01-1.93.92c-.34 0-.63-.06-.88-.16a2.2 2.2 0 01-.65-.45v2.52h-1.48v-8.16h.9c.2 0 .32.09.38.27l.12.57zm9.13-.94c.46 0 .87.08 1.24.22a2.7 2.7 0 011.58 1.63c.14.4.22.83.22 1.31 0 .5-.08.93-.22 1.32-.14.4-.35.73-.62 1-.26.28-.58.5-.96.64-.37.15-.78.22-1.24.22a3.4 3.4 0 01-1.25-.22 2.71 2.71 0 01-1.59-1.64 3.8 3.8 0 01-.21-1.32c0-.48.07-.92.21-1.3a2.75 2.75 0 011.58-1.63c.38-.15.8-.23 1.26-.23zm0 5.2c.51 0 .89-.17 1.13-.51.25-.35.38-.85.38-1.51a2.6 2.6 0 00-.38-1.52c-.24-.35-.62-.52-1.13-.52-.52 0-.9.17-1.16.52-.25.35-.37.86-.37 1.52s.12 1.16.37 1.5c.25.35.64.52 1.16.52zm9.1 0v-3.97h-1.52c-.04.52-.09.98-.15 1.4a11.64 11.64 0 01-.47 1.95c-.1.24-.2.45-.3.62h2.44zm2.56-.04v2.71c0 .14-.04.25-.12.33a.4.4 0 01-.3.12h-.92V50.7h-4.6v1.65c0 .1-.04.2-.11.29-.06.08-.17.13-.3.13h-.94v-3.12h.17c.14 0 .28-.02.4-.06a.91.91 0 00.39-.24c.12-.12.24-.29.34-.51.12-.23.22-.53.3-.9.1-.39.17-.85.23-1.4.07-.56.13-1.22.16-2h4.18v5.07h1.12zm5.8-2.7c0-.18-.03-.36-.09-.53a1.25 1.25 0 00-.24-.45 1.1 1.1 0 00-.41-.3 1.36 1.36 0 00-.58-.12c-.43 0-.76.13-1.01.37s-.4.6-.47 1.04h2.8zm-2.83.9c.02.32.08.6.17.82.09.23.2.42.35.57.14.15.31.26.5.34.2.07.43.1.67.1a2 2 0 00.61-.08c.18-.05.33-.11.46-.18l.34-.19c.1-.05.2-.08.3-.08.12 0 .2.04.27.14l.42.54a2.54 2.54 0 01-1.2.8 4.79 4.79 0 01-1.34.21c-.42 0-.82-.08-1.19-.22a2.73 2.73 0 01-1.6-1.66 4.02 4.02 0 01-.03-2.6 2.77 2.77 0 011.51-1.62c.37-.17.78-.25 1.24-.25.4 0 .75.06 1.08.19a2.32 2.32 0 011.4 1.42c.13.34.2.74.2 1.18 0 .23-.02.38-.07.46-.05.07-.14.11-.28.11h-3.8zm11.98 2.9h-1.48v-5.03h-1.51c-.05.76-.12 1.41-.22 1.96-.1.54-.22 1-.36 1.38-.14.38-.3.7-.46.92-.17.23-.35.4-.55.54-.19.12-.38.2-.59.25-.2.04-.4.06-.62.06-.22 0-.38-.02-.48-.06-.1-.03-.15-.08-.15-.15v-.93h.35c.13 0 .26-.02.4-.06a.93.93 0 00.38-.24c.13-.13.24-.3.35-.53.12-.23.22-.54.31-.91.1-.38.18-.85.25-1.4.07-.54.13-1.2.17-1.96h4.21v6.15zm5.72-2.63a7.8 7.8 0 00-1.09.11c-.29.05-.52.12-.7.2a.92.92 0 00-.38.3.64.64 0 00-.1.36c0 .26.07.45.22.56.15.11.36.17.6.17.3 0 .57-.05.8-.16.22-.11.43-.28.65-.5v-1.04zm-3.4-2.67c.7-.65 1.56-.98 2.56-.98.36 0 .68.06.96.18a1.99 1.99 0 011.16 1.25c.1.29.16.6.16.96v3.88h-.67a.7.7 0 01-.32-.06c-.08-.04-.14-.13-.19-.25l-.13-.45c-.15.14-.3.27-.45.37a2.8 2.8 0 01-.98.43 2.77 2.77 0 01-1.32-.04 1.62 1.62 0 01-.57-.32 1.41 1.41 0 01-.37-.52 1.85 1.85 0 01-.06-1.19c.06-.16.14-.3.25-.44.13-.14.28-.28.47-.4a3 3 0 01.69-.32c.27-.1.6-.17.96-.23s.78-.1 1.25-.1v-.36c0-.42-.1-.72-.27-.92-.17-.2-.43-.3-.76-.3a1.84 1.84 0 00-1.01.28l-.33.19c-.1.05-.2.08-.33.08-.1 0-.2-.03-.26-.08a.72.72 0 01-.18-.19l-.26-.47zm12.6-.86v6.15h-1.48V48h-2.4v2.72h-1.48v-6.15h1.48v2.33h2.4v-2.33h1.48zm7.83 0v6.15h-1.48V48h-2.4v2.72h-1.48v-6.15h1.48v2.33h2.4v-2.33h1.48zm4.99 5.1c.33 0 .58-.1.75-.26a.88.88 0 00.25-.65.9.9 0 00-.24-.6.8.8 0 00-.3-.18 1.32 1.32 0 00-.47-.08h-1.1v1.76h1.1zm-.02-2.82c.43 0 .8.05 1.09.15.3.1.54.25.72.42.18.18.31.38.4.62a2.07 2.07 0 01-.03 1.51c-.1.24-.25.45-.46.63-.2.17-.43.3-.72.4-.29.1-.61.14-.98.14h-2.52v-6.15h1.41v2.28h1.1zm4.94-2.28v6.15h-1.49v-6.15h1.49zm9.59-.01v6.16h-1.34v-3.43a7.04 7.04 0 01.1-.96l-1.82 3.32a.44.44 0 01-.42.26H354a.44.44 0 01-.42-.26l-1.83-3.34a5.4 5.4 0 01.1.98v3.43h-1.35v-6.16h1.23c.1 0 .2.02.3.06.1.05.2.13.26.27l1.45 2.59a4.27 4.27 0 01.34.78l.15-.4.18-.38 1.44-2.6a.53.53 0 01.26-.26c.1-.04.2-.06.3-.06h1.23zm-69.62 18.57c.17.2.35.35.55.43a1.66 1.66 0 001.25 0c.18-.08.34-.21.46-.38.13-.18.23-.4.3-.65.06-.27.1-.58.1-.93 0-.36-.03-.67-.1-.91a1.73 1.73 0 00-.24-.62.98.98 0 00-.4-.34 1.2 1.2 0 00-.52-.1c-.3 0-.57.06-.78.2-.22.12-.42.3-.62.54v2.76zm-.07-3.72c.25-.29.53-.52.85-.7a2.3 2.3 0 012.05-.05c.28.14.52.35.72.62.2.26.36.59.47.98a4.84 4.84 0 01-.02 2.62c-.12.39-.3.73-.53 1.02a2.43 2.43 0 01-1.93.92c-.34 0-.64-.06-.88-.16a2.2 2.2 0 01-.66-.45v2.52h-1.48v-8.16h.9c.2 0 .33.09.39.27l.12.57zm9.65 2.69a7.8 7.8 0 00-1.08.11c-.29.05-.52.12-.7.2a.92.92 0 00-.38.3.64.64 0 00-.11.36c0 .26.07.45.23.56.15.11.36.17.6.17.3 0 .57-.05.79-.16.22-.11.44-.28.65-.5v-1.04zm-3.4-2.67c.72-.65 1.57-.98 2.56-.98.36 0 .69.06.97.18a1.99 1.99 0 011.16 1.25c.1.29.16.6.16.96v3.88h-.67a.7.7 0 01-.33-.06c-.07-.04-.13-.13-.18-.25l-.13-.45c-.16.14-.3.27-.45.37a2.8 2.8 0 01-.98.43 2.77 2.77 0 01-1.32-.04 1.62 1.62 0 01-.57-.32 1.41 1.41 0 01-.38-.52 1.85 1.85 0 01-.05-1.19c.05-.16.14-.3.25-.44.12-.14.28-.28.46-.4a3 3 0 01.7-.32c.27-.1.6-.17.96-.23s.77-.1 1.24-.1v-.36c0-.42-.09-.72-.26-.92-.18-.2-.43-.3-.76-.3a1.84 1.84 0 00-1.02.28l-.33.19c-.1.05-.2.08-.32.08-.1 0-.2-.03-.27-.08a.72.72 0 01-.17-.19l-.26-.47zm10.14 4.3c.5 0 .9-.16 1.14-.49.25-.33.38-.8.38-1.44 0-.63-.12-1.1-.37-1.43-.25-.33-.62-.5-1.12-.5-.5 0-.9.16-1.16.47-.26.31-.4.77-.4 1.4 0 .64.13 1.14.38 1.48.25.34.63.51 1.15.51zm.43-6.28c-.38.03-.7.1-.97.22-.26.12-.48.29-.66.5-.17.2-.3.45-.4.73-.08.29-.13.6-.15.95a2.33 2.33 0 01.86-.76 2.64 2.64 0 011.28-.3c.41 0 .78.07 1.1.22.34.14.61.34.84.6.23.27.4.6.53.96a3.82 3.82 0 01-.04 2.48 2.68 2.68 0 01-1.58 1.55c-.37.14-.79.21-1.24.21-.45 0-.86-.07-1.23-.21-.38-.15-.7-.38-.97-.7a3.45 3.45 0 01-.63-1.26 8.34 8.34 0 01-.05-3.65c.1-.55.3-1.02.56-1.42.27-.41.61-.74 1.04-.99.43-.25.95-.4 1.58-.44l2.2-.17.07.77c.02.16 0 .3-.07.42-.06.11-.18.17-.34.18l-1.73.11zm7.49 1.02c.45 0 .87.08 1.24.22a2.7 2.7 0 011.58 1.63c.14.4.22.83.22 1.31 0 .5-.08.93-.22 1.32-.14.4-.35.73-.62 1-.26.28-.58.5-.96.64-.37.15-.79.22-1.24.22a3.4 3.4 0 01-1.25-.22 2.71 2.71 0 01-1.59-1.64 3.8 3.8 0 01-.22-1.32c0-.48.08-.92.22-1.3a2.75 2.75 0 011.58-1.63c.38-.15.8-.23 1.26-.23zm0 5.2c.51 0 .89-.17 1.13-.51.25-.35.38-.85.38-1.51a2.6 2.6 0 00-.38-1.52c-.24-.35-.62-.52-1.13-.52-.52 0-.9.17-1.16.52-.25.35-.37.86-.37 1.52s.12 1.16.37 1.5c.25.35.64.52 1.16.52zm10.27-4h-2.2v5.05h-1.48v-5.05h-2.19v-1.1h5.87v1.1zm5.09 2.43a7.8 7.8 0 00-1.08.11c-.3.05-.53.12-.7.2a.92.92 0 00-.38.3.64.64 0 00-.11.36c0 .26.07.45.22.56.16.11.36.17.6.17.31 0 .57-.05.8-.16.22-.11.44-.28.65-.5v-1.04zm-3.4-2.67c.71-.65 1.56-.98 2.56-.98.36 0 .68.06.97.18a1.99 1.99 0 011.16 1.25c.1.29.15.6.15.96v3.88h-.67a.7.7 0 01-.32-.06c-.08-.04-.14-.13-.18-.25l-.13-.45c-.16.14-.31.27-.46.37a2.8 2.8 0 01-.98.43 2.77 2.77 0 01-1.32-.04 1.62 1.62 0 01-.57-.32 1.41 1.41 0 01-.37-.52 1.85 1.85 0 01-.05-1.19c.05-.16.13-.3.25-.44s.27-.28.46-.4a3 3 0 01.7-.32c.27-.1.59-.17.95-.23.37-.06.78-.1 1.25-.1v-.36c0-.42-.09-.72-.26-.92-.18-.2-.44-.3-.77-.3a1.84 1.84 0 00-1.01.28l-.33.19c-.1.05-.2.08-.32.08-.1 0-.2-.03-.27-.08a.72.72 0 01-.17-.19l-.27-.47zm14.37-.87v6.16h-1.33v-3.43a7.04 7.04 0 01.09-.96l-1.82 3.32a.44.44 0 01-.42.26h-.15a.44.44 0 01-.42-.26l-1.84-3.34a5.4 5.4 0 01.1.98v3.43h-1.34v-6.16h1.22c.1 0 .21.02.31.06.1.05.19.13.26.27l1.45 2.59a4.27 4.27 0 01.34.78l.15-.4c.05-.14.11-.27.18-.38l1.44-2.6a.53.53 0 01.25-.26c.1-.04.2-.06.31-.06h1.22zm-51.56 14.67c.23-.22.52-.4.87-.54a3.2 3.2 0 011.23-.22c.38 0 .72.05 1.02.14.3.09.54.21.74.37.2.15.36.32.46.52a1.26 1.26 0 01.11.99 1.4 1.4 0 01-.47.7c-.13.1-.29.19-.48.26.34.13.6.31.81.56.21.25.31.56.31.92 0 .3-.07.57-.2.8-.14.23-.32.43-.55.6a3.26 3.26 0 01-3.47-.03c-.2-.14-.37-.3-.53-.5l.42-.53a.3.3 0 01.27-.14c.1 0 .18.03.27.09l.28.2.4.18c.15.06.34.09.57.09.37 0 .65-.09.85-.26a.8.8 0 00.28-.63c0-.24-.1-.44-.3-.58-.2-.14-.51-.2-.96-.2h-.7v-.97h.7c.4 0 .69-.07.9-.2.2-.14.31-.32.31-.55a.6.6 0 00-.28-.5c-.18-.13-.44-.2-.8-.2a1.92 1.92 0 00-.92.21l-.27.14a.39.39 0 01-.38.03.53.53 0 01-.15-.18l-.34-.57zm10.02 2.87a7.8 7.8 0 00-1.08.11c-.3.05-.53.12-.7.2a.92.92 0 00-.38.3.64.64 0 00-.12.36c0 .26.08.45.23.56.16.11.36.17.6.17.31 0 .57-.05.8-.16.22-.11.43-.28.65-.5v-1.04zm-3.4-2.67c.7-.65 1.56-.98 2.56-.98.36 0 .68.06.96.18a1.99 1.99 0 011.17 1.25c.1.29.15.6.15.96v3.88h-.67a.7.7 0 01-.32-.06c-.08-.04-.14-.13-.18-.25l-.14-.45c-.15.14-.3.27-.45.37a2.8 2.8 0 01-.98.43 2.77 2.77 0 01-1.32-.04 1.62 1.62 0 01-.57-.32 1.41 1.41 0 01-.37-.52 1.85 1.85 0 01-.06-1.19c.06-.16.14-.3.26-.44s.27-.28.46-.4a3 3 0 01.69-.32c.27-.1.6-.17.96-.23s.78-.1 1.25-.1v-.36c0-.42-.1-.72-.27-.92-.17-.2-.43-.3-.76-.3a1.84 1.84 0 00-1.01.28l-.33.19c-.1.05-.2.08-.33.08-.1 0-.19-.03-.26-.08a.72.72 0 01-.18-.19l-.26-.47zm18.29-.87v6.16h-1.34v-3.43a7.04 7.04 0 01.1-.96l-1.82 3.32a.44.44 0 01-.42.26h-.16a.44.44 0 01-.42-.26l-1.83-3.34a5.4 5.4 0 01.1.98v3.43h-1.34v-6.16h1.22c.1 0 .2.02.3.06.11.05.2.13.26.27l1.46 2.59a4.27 4.27 0 01.33.78l.15-.4.18-.38 1.44-2.6a.53.53 0 01.26-.26c.1-.04.2-.06.3-.06h1.23zm6.43 2.38c0-.2-.02-.37-.08-.54a1.25 1.25 0 00-.24-.45 1.1 1.1 0 00-.41-.3 1.36 1.36 0 00-.58-.12c-.43 0-.77.13-1.01.37-.25.24-.4.6-.47 1.04h2.8zm-2.82.9c.02.3.08.58.17.81a1.42 1.42 0 00.86.9 2 2 0 001.28.02c.17-.04.32-.1.45-.17l.34-.19c.1-.05.2-.08.29-.08.12 0 .21.04.27.14l.43.54a2.54 2.54 0 01-1.2.8 4.79 4.79 0 01-1.34.21c-.43 0-.82-.08-1.2-.22a2.73 2.73 0 01-1.6-1.66 4.02 4.02 0 01-.02-2.6 2.77 2.77 0 011.51-1.62c.37-.17.78-.25 1.24-.25.39 0 .75.06 1.07.19a2.32 2.32 0 011.4 1.42c.14.34.2.74.2 1.18 0 .23-.02.38-.07.46-.04.07-.14.11-.27.11h-3.81zm10.68-1.97a.68.68 0 01-.13.13c-.04.03-.1.05-.18.05a.42.42 0 01-.23-.07 3.95 3.95 0 00-.61-.3c-.14-.06-.31-.08-.51-.08-.26 0-.5.05-.69.14-.2.1-.36.23-.49.4-.13.18-.22.4-.29.65a3.42 3.42 0 000 1.72c.08.26.18.47.31.65.14.17.3.3.48.4.2.08.4.13.64.13a1.6 1.6 0 00.94-.28l.26-.2a.4.4 0 01.25-.08.3.3 0 01.27.14l.43.54a2.76 2.76 0 01-1.77.96c-.22.03-.43.04-.65.04a2.57 2.57 0 01-1.96-.83c-.25-.27-.45-.6-.6-1-.14-.4-.21-.84-.21-1.35 0-.45.06-.87.19-1.25.13-.39.32-.72.58-1 .25-.29.56-.5.93-.67.37-.16.8-.24 1.29-.24.46 0 .86.08 1.2.22.35.15.66.36.94.64l-.4.54zm5.59 1.47v-1.8h-.8c-.2 0-.35.02-.47.08a.85.85 0 00-.31.2.74.74 0 00-.16.3c-.03.1-.05.21-.05.31 0 .29.1.51.28.67.2.16.45.24.77.24h.74zm1.4-2.77v6.15h-1.4v-2.47h-.26c-.12 0-.22.01-.3.04a.6.6 0 00-.34.23l-.11.18-.99 1.51c-.04.09-.1.16-.15.23a.72.72 0 01-.43.25c-.1.02-.2.03-.34.03h-1.02l1.55-2.17a1.25 1.25 0 01.69-.59 2.54 2.54 0 01-.74-.24 1.45 1.45 0 01-.84-1.36 1.56 1.56 0 01.56-1.24c.2-.16.45-.3.76-.4.3-.1.68-.15 1.11-.15h2.26zm8.98 5.06v2.71c0 .14-.04.25-.12.33a.41.41 0 01-.3.12h-.93V78.7h-5.15v-6.15h1.48v5.06h2.4v-5.06h1.49v5.06h1.13z" fill="#5E78FF"/><circle cx="448.2" cy="53.68" r="47.26" stroke="#5E78FF" stroke-width="2"/><path d="M418.54 48.75a2.1 2.1 0 001.93-1.38 2.43 2.43 0 00-.42-2.45 2.05 2.05 0 00-1.51-.68v4.5zm-1.53-4.5c-.31 0-.6.06-.85.18a2.07 2.07 0 00-1.08 1.2 2.52 2.52 0 000 1.73c.1.28.24.51.42.72a2.11 2.11 0 001.51.67v-4.5zm1.53-1.25c.54.02 1.04.12 1.49.3a3.66 3.66 0 011.93 1.86 3.31 3.31 0 01-.77 3.77c-.32.32-.71.57-1.16.76-.45.19-.95.3-1.49.3v1.04h-1.53V50a3.88 3.88 0 01-2.65-1.06 3.45 3.45 0 01-1.05-2.45 3.26 3.26 0 011.05-2.42c.33-.32.72-.57 1.17-.76.45-.19.94-.29 1.48-.3v-1.02h1.53V43zm11.23 1.87v6.16h-1.48v-3.6a4.08 4.08 0 01.06-.63 2.91 2.91 0 01-.39.65 152.74 152.74 0 01-1.1 1.55l-1.18 1.67c-.06.08-.13.16-.23.24a.44.44 0 01-.3.12h-.9v-6.15h1.47v3.6l-.01.3-.04.33a3.13 3.13 0 01.38-.65 37.39 37.39 0 00.66-.93l.44-.62 1.19-1.67c.06-.09.13-.17.22-.25.1-.08.2-.12.31-.12h.9zm7.83 0v6.16h-1.48V48.3h-2.4v2.73h-1.48v-6.16h1.48v2.34h2.4v-2.34h1.48zm5.72 3.53a7.8 7.8 0 00-1.08.11c-.29.06-.52.12-.7.2a.92.92 0 00-.38.3.64.64 0 00-.11.37c0 .26.07.44.23.56.15.1.35.16.6.16.3 0 .57-.05.79-.16.22-.1.44-.28.65-.5V48.4zm-3.4-2.67c.71-.65 1.57-.97 2.56-.97.36 0 .68.06.97.18a1.99 1.99 0 011.16 1.24c.1.3.16.61.16.96v3.89h-.67a.7.7 0 01-.33-.06c-.07-.05-.13-.13-.18-.26l-.13-.44c-.16.14-.3.26-.46.37a2.8 2.8 0 01-.97.42 2.77 2.77 0 01-1.32-.04 1.62 1.62 0 01-.57-.32 1.41 1.41 0 01-.38-.52 1.85 1.85 0 01-.05-1.19c.05-.15.14-.3.25-.44.12-.14.28-.27.46-.4a3 3 0 01.7-.32 9.19 9.19 0 012.2-.33v-.36c0-.41-.09-.72-.26-.91-.18-.2-.43-.3-.76-.3a1.84 1.84 0 00-1.02.27l-.33.2c-.1.05-.2.07-.32.07-.1 0-.2-.02-.27-.07a.72.72 0 01-.17-.2l-.26-.47zm12.96 5.3h-1.49V46h-1.5c-.06.75-.13 1.4-.23 1.95s-.22 1-.36 1.39c-.14.38-.29.68-.46.92-.17.22-.35.4-.54.53-.2.13-.4.21-.6.25-.2.05-.4.07-.61.07-.22 0-.39-.02-.49-.06-.1-.04-.15-.09-.15-.16v-.92h.35c.14 0 .27-.02.4-.06a.93.93 0 00.38-.25c.13-.12.25-.3.36-.53.11-.23.21-.53.3-.9.1-.39.18-.85.26-1.4.07-.55.12-1.2.16-1.97h4.22v6.16zm4.97-1.06c.34 0 .59-.09.75-.26a.88.88 0 00.25-.64.9.9 0 00-.23-.6.8.8 0 00-.31-.19 1.32 1.32 0 00-.47-.07h-1.1v1.76h1.11zm-.01-2.82c.43 0 .79.05 1.08.16.3.1.54.24.72.42.19.17.32.38.4.61a2.07 2.07 0 01-.03 1.52c-.1.24-.25.45-.45.62-.2.17-.44.3-.73.4-.28.1-.6.15-.97.15h-2.52v-6.16h1.4v2.28h1.1zm9.68-2.28v6.16h-1.48V48.3h-2.4v2.73h-1.48v-6.16h1.48v2.34h2.4v-2.34h1.48zm5.72 3.53a7.8 7.8 0 00-1.08.11c-.29.06-.52.12-.7.2a.92.92 0 00-.38.3.64.64 0 00-.11.37c0 .26.08.44.23.56.15.1.36.16.6.16.3 0 .57-.05.79-.16.22-.1.44-.28.65-.5V48.4zm-3.4-2.67c.72-.65 1.57-.97 2.56-.97.36 0 .69.06.97.18a1.99 1.99 0 011.16 1.24c.1.3.16.61.16.96v3.89h-.67a.7.7 0 01-.33-.06c-.07-.05-.13-.13-.18-.26l-.13-.44c-.15.14-.3.26-.45.37a2.8 2.8 0 01-.98.42 2.77 2.77 0 01-1.32-.04 1.62 1.62 0 01-.57-.32 1.41 1.41 0 01-.37-.52 1.85 1.85 0 01-.06-1.19c.05-.15.14-.3.25-.44.12-.14.28-.27.47-.4a3 3 0 01.69-.32 9.19 9.19 0 012.2-.33v-.36c0-.41-.08-.72-.26-.91-.18-.2-.43-.3-.76-.3a1.84 1.84 0 00-1.02.27l-.33.2c-.1.05-.2.07-.32.07-.1 0-.2-.02-.26-.07a.72.72 0 01-.18-.2l-.26-.47zm10.46 1.91v-1.8h-.8c-.2 0-.35.03-.48.08a.85.85 0 00-.3.21.74.74 0 00-.16.3c-.04.1-.05.2-.05.3 0 .3.1.51.28.67.2.16.45.24.77.24h.74zm1.4-2.77v6.16h-1.4v-2.47h-.26c-.12 0-.22 0-.3.03a.6.6 0 00-.34.23l-.11.19-.99 1.5c-.04.1-.1.17-.15.23a.72.72 0 01-.43.26c-.1.02-.2.03-.34.03h-1.03l1.56-2.17a1.25 1.25 0 01.69-.6 2.54 2.54 0 01-.74-.23c-.2-.11-.36-.24-.49-.39a1.45 1.45 0 01-.35-.97 1.56 1.56 0 01.56-1.24c.2-.17.45-.3.76-.4.3-.1.68-.16 1.11-.16h2.26zm-52.1 13.9c.46 0 .88.08 1.25.23a2.7 2.7 0 011.58 1.62c.14.4.21.83.21 1.32 0 .49-.07.93-.21 1.32-.15.4-.35.72-.62 1-.26.28-.58.49-.96.64-.37.14-.79.22-1.24.22a3.4 3.4 0 01-1.26-.22 2.71 2.71 0 01-1.58-1.64 3.8 3.8 0 01-.22-1.32c0-.49.07-.92.22-1.32.15-.39.35-.72.62-1 .26-.26.59-.47.96-.62.38-.15.8-.22 1.26-.22zm0 5.2c.52 0 .9-.16 1.14-.5.25-.35.37-.86.37-1.52a2.6 2.6 0 00-.37-1.52c-.24-.35-.62-.52-1.13-.52-.52 0-.9.18-1.16.53-.25.35-.37.85-.37 1.51s.12 1.16.37 1.51c.25.35.64.52 1.16.52zm10.54 1.06h-1.48v-5.06h-2.4v5.06h-1.49v-6.16h5.37v6.16zm8.18 0h-1.48V60h-1.52c-.04.75-.12 1.4-.22 1.95s-.22 1-.36 1.39c-.13.38-.29.68-.46.92-.17.22-.35.4-.54.53-.2.13-.39.21-.6.25-.2.05-.4.07-.61.07-.22 0-.38-.02-.49-.06-.1-.04-.15-.09-.15-.16v-.92h.36c.13 0 .26-.02.4-.06a.93.93 0 00.38-.25c.12-.12.24-.3.35-.53.11-.23.21-.53.3-.9.1-.39.19-.85.26-1.4.07-.55.13-1.2.17-1.97h4.2v6.16zm5.71-2.63a7.8 7.8 0 00-1.08.11c-.3.06-.53.12-.7.2a.92.92 0 00-.38.3.64.64 0 00-.11.37c0 .26.07.44.22.56.16.1.36.16.61.16.3 0 .57-.05.79-.16.22-.1.44-.28.65-.5V62.4zm-3.4-2.67c.71-.65 1.56-.97 2.56-.97.36 0 .68.06.97.18a1.99 1.99 0 011.16 1.24c.1.3.16.61.16.96v3.89h-.68a.7.7 0 01-.32-.06c-.08-.05-.14-.13-.18-.26l-.13-.44-.46.37a2.8 2.8 0 01-.98.42 2.77 2.77 0 01-1.32-.04 1.62 1.62 0 01-.57-.32 1.41 1.41 0 01-.37-.52 1.85 1.85 0 01-.05-1.19c.05-.15.13-.3.25-.44s.27-.27.46-.4a3 3 0 01.7-.32 9.19 9.19 0 012.2-.33v-.36c0-.41-.09-.72-.26-.91-.18-.2-.43-.3-.77-.3a1.84 1.84 0 00-1.01.27l-.33.2c-.1.05-.2.07-.32.07-.1 0-.2-.02-.27-.07a.72.72 0 01-.17-.2l-.27-.47zm12.42.24h-2.2v5.06h-1.48v-5.06h-2.2v-1.1h5.88v1.1zm5.08 2.43a7.8 7.8 0 00-1.07.11c-.3.06-.53.12-.7.2a.92.92 0 00-.38.3.64.64 0 00-.12.37c0 .26.08.44.23.56.16.1.36.16.6.16.3 0 .57-.05.8-.16.21-.1.43-.28.64-.5V62.4zm-3.4-2.67c.72-.65 1.57-.97 2.56-.97.36 0 .69.06.97.18a1.99 1.99 0 011.17 1.24c.1.3.15.61.15.96v3.89h-.67a.7.7 0 01-.33-.06c-.07-.05-.13-.13-.18-.26l-.13-.44c-.15.14-.3.26-.45.37a2.8 2.8 0 01-.98.42 2.77 2.77 0 01-1.32-.04 1.62 1.62 0 01-.57-.32 1.41 1.41 0 01-.37-.52 1.85 1.85 0 01-.06-1.19c.06-.15.14-.3.25-.44.13-.14.28-.27.47-.4a3 3 0 01.69-.32 9.19 9.19 0 012.2-.33v-.36c0-.41-.08-.72-.26-.91-.18-.2-.43-.3-.76-.3a1.84 1.84 0 00-1.01.27l-.34.2c-.1.05-.2.07-.32.07-.1 0-.2-.02-.26-.07a.72.72 0 01-.18-.2l-.26-.47z" fill="#5E78FF"/><path d="M582.56 4.23a47.44 47.44 0 1016.32 2.88" stroke="#5E78FF" stroke-width="2" stroke-dasharray="5.5 5.5"/><path d="M580.64 1.4l2.82 2.83-2.83 2.83" stroke="#5E78FF" stroke-width="2" stroke-linecap="round"/><path d="M573.3 37.37h-1.63v-7.43h-3.77v7.43h-1.62V28.7h7.01v8.67zm8.27 0h-1.48v-5.02h-1.51c-.05.76-.13 1.4-.23 1.96-.1.54-.22 1-.36 1.38-.13.38-.29.69-.46.92-.17.23-.35.4-.54.53-.19.13-.39.22-.6.26-.2.04-.4.06-.61.06-.22 0-.38-.02-.49-.06-.1-.03-.15-.09-.15-.15v-.93h.36c.13 0 .26-.02.4-.06a.93.93 0 00.38-.24c.12-.13.24-.3.35-.53.11-.23.22-.54.3-.91.1-.38.19-.85.26-1.4.07-.54.13-1.2.17-1.96h4.21v6.15zm5.71-2.63a7.8 7.8 0 00-1.08.12c-.29.05-.52.12-.7.2a.92.92 0 00-.38.3.64.64 0 00-.11.36c0 .26.07.45.23.56.15.11.35.17.6.17.3 0 .57-.06.79-.16.22-.12.44-.28.65-.5v-1.05zm-3.4-2.67c.71-.64 1.57-.97 2.56-.97.36 0 .68.06.97.18a1.99 1.99 0 011.16 1.24c.1.3.16.62.16.96v3.9h-.67a.7.7 0 01-.33-.07c-.07-.04-.13-.13-.18-.26l-.13-.44c-.16.14-.3.26-.46.37a2.8 2.8 0 01-.97.43 2.77 2.77 0 01-1.32-.04 1.62 1.62 0 01-.57-.32 1.41 1.41 0 01-.38-.52 1.85 1.85 0 01-.05-1.2c.05-.15.14-.3.25-.44.12-.14.28-.27.46-.4a3 3 0 01.7-.32 9.19 9.19 0 012.2-.33v-.36c0-.4-.09-.71-.26-.9-.18-.2-.43-.3-.76-.3a1.84 1.84 0 00-1.02.27l-.33.18c-.1.06-.2.09-.32.09-.1 0-.2-.03-.27-.08a.72.72 0 01-.17-.2l-.26-.47zm12.6-.85v6.15h-1.47v-2.72h-2.4v2.72h-1.49v-6.15h1.49v2.33h2.4v-2.33h1.48zM557.1 49.78c.17.2.35.34.55.43a1.66 1.66 0 001.25 0c.18-.09.33-.21.46-.39.12-.17.22-.38.29-.64.07-.27.1-.58.1-.93 0-.36-.03-.67-.09-.92a1.73 1.73 0 00-.24-.6.98.98 0 00-.4-.35 1.2 1.2 0 00-.52-.1c-.31 0-.57.06-.79.2-.21.12-.42.3-.61.54v2.76zm-.08-3.72c.25-.29.54-.52.86-.7a2.3 2.3 0 012.05-.05c.28.14.52.35.72.61.2.27.36.6.46.99a4.84 4.84 0 01-.01 2.61c-.13.4-.3.74-.54 1.02-.23.3-.5.52-.83.68-.33.16-.69.24-1.1.24-.34 0-.63-.05-.88-.15a2.2 2.2 0 01-.65-.45v2.52h-1.48v-8.16h.9c.2 0 .32.09.38.27l.12.57zm9.66 2.68a7.8 7.8 0 00-1.08.12c-.3.05-.53.12-.7.2a.92.92 0 00-.38.3.64.64 0 00-.12.36c0 .26.08.45.23.56.16.11.36.17.6.17.31 0 .57-.06.8-.16.22-.12.44-.28.65-.5v-1.05zm-3.4-2.67c.71-.64 1.56-.97 2.56-.97.36 0 .68.06.96.18a1.99 1.99 0 011.17 1.24c.1.3.15.62.15.96v3.9h-.67a.7.7 0 01-.32-.07c-.08-.04-.14-.13-.18-.26l-.13-.44-.46.37a2.8 2.8 0 01-.98.43 2.77 2.77 0 01-1.32-.04 1.62 1.62 0 01-.57-.32 1.41 1.41 0 01-.37-.52 1.85 1.85 0 01-.05-1.2c.05-.15.13-.3.25-.44s.27-.27.46-.4a3 3 0 01.7-.32 9.19 9.19 0 012.2-.33v-.36c0-.4-.09-.71-.26-.9-.18-.2-.43-.3-.77-.3a1.84 1.84 0 00-1.01.27l-.33.18c-.1.06-.2.09-.32.09-.1 0-.2-.03-.27-.08a.72.72 0 01-.17-.2l-.27-.47zm10.13 4.31c.51 0 .9-.16 1.15-.49.25-.33.38-.8.38-1.44 0-.63-.13-1.1-.38-1.43-.24-.33-.61-.5-1.12-.5-.5 0-.89.16-1.15.47-.26.31-.4.77-.4 1.39 0 .65.13 1.15.38 1.5.25.33.63.5 1.14.5zm.43-6.28c-.37.02-.7.1-.96.22-.27.12-.49.29-.66.5-.17.2-.3.44-.4.73-.09.29-.14.6-.15.95.1-.16.22-.3.36-.43a2.64 2.64 0 011.78-.64c.4 0 .77.08 1.1.22.33.15.6.35.84.62.23.26.4.58.52.95a3.82 3.82 0 01-.03 2.48 2.68 2.68 0 01-1.58 1.55c-.38.14-.8.21-1.25.21-.44 0-.85-.07-1.23-.21-.37-.15-.7-.38-.96-.7a3.45 3.45 0 01-.64-1.27 8.34 8.34 0 01-.05-3.65c.11-.54.3-1.01.57-1.42.26-.4.6-.73 1.03-.98.43-.25.96-.4 1.59-.44l2.19-.17.08.77c.01.16-.01.3-.08.42-.06.1-.17.17-.34.18l-1.73.11zm7.5 1.02c.45 0 .86.07 1.24.22a2.7 2.7 0 011.57 1.63c.15.4.22.83.22 1.31 0 .5-.07.93-.22 1.32a2.65 2.65 0 01-1.58 1.64c-.37.15-.78.22-1.24.22a3.4 3.4 0 01-1.25-.22 2.71 2.71 0 01-1.58-1.64 3.8 3.8 0 01-.22-1.32c0-.48.07-.92.22-1.31.14-.4.35-.73.61-1 .27-.27.6-.48.97-.63.38-.15.8-.22 1.25-.22zm0 5.2c.5 0 .88-.17 1.13-.51.25-.35.37-.85.37-1.52a2.6 2.6 0 00-.37-1.51c-.25-.35-.62-.53-1.14-.53-.52 0-.9.18-1.15.53-.25.35-.38.85-.38 1.51s.13 1.17.38 1.52c.25.34.63.51 1.15.51zm10.26-4h-2.2v5.05h-1.47v-5.06h-2.2v-1.1h5.88v1.1zm11.16-1.1v6.15h-1.48v-2.72h-2.4v2.72h-1.49v-6.15h1.49v2.33h2.4v-2.33h1.48zm5.72 3.52a7.8 7.8 0 00-1.08.12c-.3.05-.53.12-.7.2a.92.92 0 00-.38.3.64.64 0 00-.11.36c0 .26.07.45.22.56.16.11.36.17.6.17.31 0 .58-.06.8-.16.22-.12.44-.28.65-.5v-1.05zm-3.4-2.67c.71-.64 1.56-.97 2.56-.97.36 0 .68.06.97.18a1.99 1.99 0 011.16 1.24c.1.3.15.62.15.96v3.9h-.67a.7.7 0 01-.32-.07c-.08-.04-.14-.13-.18-.26l-.13-.44-.46.37a2.8 2.8 0 01-.98.43 2.77 2.77 0 01-1.32-.04 1.62 1.62 0 01-.57-.32 1.41 1.41 0 01-.37-.52 1.85 1.85 0 01-.05-1.2c.05-.15.13-.3.25-.44s.27-.27.46-.4a3 3 0 01.7-.32 9.19 9.19 0 012.2-.33v-.36c0-.4-.09-.71-.26-.9-.18-.2-.44-.3-.77-.3a1.84 1.84 0 00-1.01.27l-.33.18c-.1.06-.2.09-.33.09-.1 0-.19-.03-.26-.08a.72.72 0 01-.17-.2l-.27-.47zM550.3 60.52a.68.68 0 01-.13.13c-.04.03-.1.05-.18.05a.42.42 0 01-.22-.07 3.95 3.95 0 00-.62-.3c-.13-.06-.3-.08-.5-.08-.27 0-.5.05-.7.14-.19.1-.35.23-.48.4-.13.18-.23.4-.3.65-.05.24-.09.53-.09.84 0 .33.04.62.1.88.08.25.18.47.31.65.13.17.3.3.48.4.19.08.4.12.64.12a1.6 1.6 0 00.94-.27l.26-.2a.4.4 0 01.25-.08.3.3 0 01.27.13l.42.54a2.76 2.76 0 01-1.76.96c-.22.04-.44.05-.65.05a2.57 2.57 0 01-1.96-.83c-.25-.27-.45-.6-.6-1-.14-.4-.22-.84-.22-1.35 0-.45.07-.87.2-1.25a2.61 2.61 0 011.51-1.67c.37-.16.8-.24 1.28-.24.46 0 .87.07 1.2.22.36.15.67.36.94.64l-.38.54zm8.1 4.85h-1.49v-5.02h-1.5c-.06.76-.13 1.4-.23 1.96-.1.54-.22 1-.36 1.38-.14.38-.29.69-.46.92-.17.23-.35.4-.54.53-.2.13-.4.22-.6.26-.2.04-.4.06-.61.06-.22 0-.39-.02-.49-.06-.1-.03-.15-.09-.15-.15v-.93h.35c.14 0 .27-.02.4-.06a.93.93 0 00.38-.24c.13-.13.25-.3.36-.53.11-.23.21-.54.3-.91.1-.38.18-.85.26-1.4.07-.54.12-1.2.16-1.96h4.22v6.15zm6.42-3.78c0-.2-.03-.38-.08-.54a1.25 1.25 0 00-.24-.45 1.1 1.1 0 00-.42-.3 1.36 1.36 0 00-.57-.12c-.43 0-.77.12-1.02.37-.24.24-.4.59-.46 1.04h2.8zm-2.82.9c.02.3.08.58.16.81.1.23.2.42.35.57.15.15.32.26.51.34.2.07.42.1.66.1a2 2 0 00.62-.08c.18-.05.33-.12.46-.18l.34-.19c.1-.06.2-.08.29-.08.12 0 .21.04.27.13l.43.54a2.54 2.54 0 01-1.2.8 4.79 4.79 0 01-1.34.21c-.43 0-.83-.07-1.2-.2a2.73 2.73 0 01-1.6-1.67 4.02 4.02 0 01-.03-2.6 2.77 2.77 0 011.51-1.62c.37-.17.79-.25 1.25-.25.39 0 .74.06 1.07.19a2.32 2.32 0 011.4 1.42c.14.34.2.74.2 1.18 0 .22-.02.38-.07.46-.05.07-.14.11-.27.11h-3.81zm10.35 1.83v-3.97h-1.51c-.05.52-.1.98-.16 1.4a11.64 11.64 0 01-.47 1.95c-.1.24-.2.44-.3.62h2.44zm2.56-.05V67c0 .14-.03.25-.12.33a.4.4 0 01-.3.12h-.92v-2.07h-4.6v1.65c0 .1-.04.2-.1.28-.07.1-.18.14-.32.14h-.93v-3.12h.17c.14 0 .28-.02.41-.06a.91.91 0 00.38-.24c.12-.12.24-.29.35-.51.1-.23.2-.53.3-.9.08-.39.16-.86.23-1.4.06-.56.12-1.22.16-2h4.17v5.06h1.13zm7.2-5.05l-3.35 7.84c-.05.1-.1.19-.18.24-.06.05-.17.08-.31.08h-1.1l1.14-2.47-2.49-5.7h1.3c.12 0 .21.03.28.1.06.05.11.11.15.18l1.3 3.2a7.94 7.94 0 01.2.65 32.3 32.3 0 01.23-.66l1.24-3.19a.44.44 0 01.4-.28h1.2zm7.3 5.1c.48 0 .83-.17 1.06-.51.23-.35.34-.85.34-1.52 0-.66-.11-1.17-.34-1.51-.23-.35-.58-.53-1.06-.53-.48 0-.83.18-1.06.53-.23.35-.34.85-.34 1.51 0 .67.1 1.17.33 1.52.23.34.59.51 1.07.51zm-2.86-2.6c.05-.4.15-.76.3-1.08a2.55 2.55 0 011.46-1.34c.33-.12.7-.18 1.1-.18.44 0 .85.07 1.2.22a2.62 2.62 0 011.52 1.63c.14.4.21.83.21 1.31 0 .5-.07.93-.21 1.32a2.64 2.64 0 01-1.54 1.64c-.36.15-.75.22-1.18.22-.42 0-.8-.06-1.13-.18a2.51 2.51 0 01-1.45-1.38c-.15-.34-.24-.7-.28-1.13h-1.22v2.6h-1.48v-6.15h1.48v2.5h1.22zm17.56 2.55V67c0 .14-.04.25-.12.33a.4.4 0 01-.3.12h-.92v-2.07h-8.3v-6.15h1.48v5.05h2.04v-5.05h1.48v5.05h2.03v-5.05h1.48v5.05h1.13zm7.47-5.05v6.15h-1.48v-3.6a4.08 4.08 0 01.06-.63 2.91 2.91 0 01-.39.66 152.74 152.74 0 01-1.1 1.54l-1.18 1.67c-.06.09-.13.17-.23.25a.44.44 0 01-.3.12h-.9v-6.16h1.47v3.6l-.01.3-.04.33a3.13 3.13 0 01.38-.65 37.39 37.39 0 00.66-.93c.15-.2.3-.4.44-.62l1.19-1.67c.06-.09.13-.17.22-.24.1-.08.2-.12.31-.12h.9zm8 0v6.15h-1.48v-3.6a4.08 4.08 0 01.05-.63 2.91 2.91 0 01-.38.66 152.74 152.74 0 01-1.1 1.54l-1.19 1.67c-.05.09-.13.17-.22.25a.44.44 0 01-.3.12h-.91v-6.16h1.48v3.6c0 .09 0 .2-.02.3l-.03.33a3.13 3.13 0 01.37-.65 37.39 37.39 0 00.67-.93l.44-.62 1.19-1.67c.05-.09.13-.17.22-.24.09-.08.2-.12.31-.12h.9zm-2.68-1.56c.15 0 .27-.02.37-.05a.5.5 0 00.24-.16c.06-.07.1-.17.13-.3.02-.12.03-.27.03-.45h.88c.1 0 .18.04.23.13.05.08.07.18.07.28a1.14 1.14 0 01-.53.98c-.17.11-.38.2-.62.26s-.5.1-.8.1c-.3 0-.57-.04-.8-.1a2.13 2.13 0 01-.62-.26c-.18-.12-.3-.26-.4-.42-.1-.17-.14-.36-.14-.56 0-.1.03-.2.07-.28a.25.25 0 01.24-.13h.87c0 .18.02.33.04.45.02.13.07.23.13.3a.5.5 0 00.23.16c.1.03.23.05.38.05zM571.93 73.2v6.17h-1.34v-3.43a7.04 7.04 0 01.1-.97l-1.82 3.33a.44.44 0 01-.42.26h-.16a.44.44 0 01-.41-.26l-1.84-3.34a5.4 5.4 0 01.1.98v3.43h-1.34V73.2h1.22c.1 0 .2.03.3.07.11.04.2.13.26.26l1.46 2.6a4.27 4.27 0 01.33.78l.15-.4.18-.38 1.44-2.6a.53.53 0 01.26-.26c.1-.04.2-.07.3-.07h1.23zm6.44 2.39c0-.2-.03-.38-.09-.54a1.25 1.25 0 00-.24-.45 1.1 1.1 0 00-.41-.3 1.36 1.36 0 00-.58-.12c-.43 0-.76.12-1.01.37-.25.24-.4.59-.47 1.04h2.8zm-2.83.9c.02.3.08.58.17.81a1.42 1.42 0 00.86.9 2 2 0 001.28.02c.17-.04.32-.1.45-.17l.34-.19c.1-.06.2-.08.29-.08.12 0 .22.04.28.13l.42.54a2.54 2.54 0 01-1.2.8 4.79 4.79 0 01-1.34.21c-.43 0-.82-.07-1.2-.2a2.73 2.73 0 01-1.6-1.67 4.02 4.02 0 01-.02-2.6 2.77 2.77 0 011.51-1.62c.37-.17.78-.25 1.24-.25.39 0 .75.06 1.08.19a2.32 2.32 0 011.4 1.42c.13.34.2.74.2 1.18 0 .22-.03.38-.08.46-.04.07-.13.11-.27.11h-3.81zm10.68-1.97a.68.68 0 01-.13.13c-.04.03-.1.05-.18.05a.42.42 0 01-.23-.07 3.95 3.95 0 00-.61-.3c-.14-.06-.3-.08-.51-.08-.26 0-.5.05-.69.14-.2.1-.36.23-.49.4-.13.18-.22.4-.29.65a3.42 3.42 0 000 1.72c.08.25.18.47.31.65.14.17.3.3.49.4.18.08.4.12.63.12a1.6 1.6 0 00.94-.27l.26-.2a.4.4 0 01.25-.08.3.3 0 01.27.13l.43.54a2.76 2.76 0 01-1.77.96c-.22.04-.43.05-.65.05a2.57 2.57 0 01-1.96-.83c-.25-.27-.45-.6-.6-1-.14-.4-.21-.84-.21-1.35 0-.45.06-.87.2-1.25a2.61 2.61 0 011.51-1.67c.36-.16.8-.24 1.28-.24.46 0 .86.07 1.2.22.35.15.66.36.94.64l-.4.54zm5.59 1.47v-1.8h-.8c-.2 0-.35.02-.47.08a.85.85 0 00-.31.2.74.74 0 00-.16.3c-.03.1-.05.2-.05.31 0 .29.1.5.28.67.2.16.45.24.77.24h.74zm1.4-2.77v6.15h-1.4V76.9h-.26c-.12 0-.22.01-.3.04a.6.6 0 00-.34.22l-.11.2-.98 1.5c-.05.09-.1.16-.16.22a.72.72 0 01-.43.26c-.1.02-.2.03-.34.03h-1.02l1.55-2.17a1.25 1.25 0 01.69-.59 2.54 2.54 0 01-.74-.24c-.2-.1-.36-.24-.48-.38a1.45 1.45 0 01-.36-.97 1.56 1.56 0 01.56-1.24c.2-.17.45-.3.76-.4.31-.11.68-.16 1.11-.16h2.26zm8.98 5.05V81c0 .14-.04.25-.12.33a.41.41 0 01-.3.12h-.93v-2.07h-5.15v-6.15h1.48v5.05h2.4v-5.05h1.49v5.05h1.13z" fill="#5E78FF"/></svg>