<svg width="631" height="419" fill="none" xmlns="http://www.w3.org/2000/svg"><path d="M315.5 148v76.5" stroke="#5E78FF" stroke-width="2"/><path d="M319.75 221.24l-4.25 4.24-4.25-4.24" stroke="#5E78FF" stroke-width="2" stroke-linecap="round"/><rect x="1.5" y="1.5" width="628" height="125.49" rx="62.74" stroke="#5E78FF" stroke-width="2"/><circle cx="39.74" cy="64.25" r="21.24" fill="#5E78FF"/><path d="M80.66 64.25c0 .75-.12 1.43-.37 2.07a4.8 4.8 0 01-4.75 3.1 5.5 5.5 0 01-2.1-.38 4.84 4.84 0 01-2.66-2.72 5.64 5.64 0 01-.37-2.07c0-.74.12-1.42.37-2.05a4.76 4.76 0 012.67-2.72 5.58 5.58 0 014.79.3 4.67 4.67 0 012.26 3.07c.1.44.16.9.16 1.4zm-1.92 0c0-.55-.08-1.05-.23-1.49a3.2 3.2 0 00-.63-1.12c-.28-.31-.61-.55-1.01-.71-.4-.17-.84-.25-1.33-.25-.5 0-.94.08-1.34.25a2.8 2.8 0 00-1.64 1.83c-.15.44-.23.94-.23 1.5 0 .55.08 1.05.23 1.5a2.84 2.84 0 001.64 1.82c.4.15.84.24 1.34.24.5 0 .94-.09 1.33-.25.4-.16.73-.4 1-.7.28-.3.5-.68.64-1.12.15-.44.23-.94.23-1.5zm11.76 3.78v3.17c0 .16-.05.29-.14.38-.1.1-.21.14-.36.14h-1.07v-2.4h-6.01v-7.19h1.73v5.9h2.8v-5.9h1.73v5.9h1.32zm6.6-3.13c0-.23-.04-.44-.1-.63-.07-.2-.16-.38-.29-.53a1.28 1.28 0 00-.48-.35c-.19-.09-.41-.13-.67-.13-.5 0-.9.14-1.18.43a2.1 2.1 0 00-.55 1.2h3.26zm-3.3 1.04c.02.37.09.69.2.96a2 2 0 00.4.66c.17.18.36.3.6.4.23.08.48.12.76.12s.52-.03.72-.1c.2-.06.39-.13.54-.21l.4-.22c.11-.07.22-.1.33-.1.15 0 .25.06.32.16l.5.63a2.96 2.96 0 01-1.4.93c-.25.1-.51.16-.78.2a5.6 5.6 0 01-.78.05c-.5 0-.97-.08-1.4-.25a3.18 3.18 0 01-1.86-1.93 4.69 4.69 0 01-.04-3.05 3.23 3.23 0 011.76-1.89 3.6 3.6 0 011.45-.28c.46 0 .87.07 1.26.22a2.7 2.7 0 011.63 1.66c.16.4.24.86.24 1.38 0 .26-.03.43-.09.53-.05.09-.16.13-.32.13H93.8zm13.4-3.8v7.17h-1.73v-3.17h-2.8v3.17h-1.73v-7.18h1.73v2.73h2.8v-2.73h1.73zm7 .45a.96.96 0 01.81-.46h1.36l-1.67 2.67a2.4 2.4 0 01-.36.45c-.12.12-.27.2-.44.27.23.07.42.18.57.32.15.13.29.3.4.51l1.69 2.96h-1.2c-.3 0-.54-.05-.7-.15-.17-.1-.32-.25-.43-.44l-1.06-1.99a.95.95 0 00-.36-.38 1 1 0 00-.52-.13h-.65v3.1h-1.72v-7.19h1.72v2.96h.56a.9.9 0 00.47-.1.9.9 0 00.31-.34l1.23-2.06zm8.11 3.66c-.5.02-.92.07-1.26.13-.34.06-.61.14-.82.24-.2.1-.35.21-.44.34a.75.75 0 00-.13.43c0 .3.09.52.26.65.19.13.42.2.71.2.36 0 .66-.07.92-.2.26-.12.51-.32.76-.58v-1.21zm-3.96-3.12a4.26 4.26 0 012.98-1.13c.42 0 .8.07 1.13.2a2.31 2.31 0 011.36 1.46c.12.34.18.71.18 1.12v4.53h-.79a.83.83 0 01-.38-.07c-.08-.05-.15-.15-.2-.3l-.16-.51c-.18.16-.36.3-.53.43a3.23 3.23 0 01-1.14.5 3.23 3.23 0 01-1.54-.05 1.9 1.9 0 01-.67-.37 1.66 1.66 0 01-.43-.61c-.1-.25-.16-.53-.16-.85a1.67 1.67 0 01.39-1.06c.14-.16.32-.31.54-.46.22-.14.49-.27.8-.38a10.73 10.73 0 012.58-.39v-.41c0-.48-.1-.84-.3-1.07-.21-.23-.5-.35-.9-.35a2.15 2.15 0 00-1.18.33l-.39.21a.74.74 0 01-.37.1.51.51 0 01-.31-.09.85.85 0 01-.2-.22l-.31-.56z" fill="#5E78FF"/><path d="M50.7 64.47v-.22a10.87 10.87 0 00-.61-3.61 10.97 10.97 0 00-21.31 3.61c0 6.04 4.91 10.96 10.96 10.96 5.95 0 10.8-4.76 10.95-10.68v-.06zm-6.8 3.14l5.14-5.13c.1.56.16 1.13.17 1.7l-4.36 4.36-.94-.93zm-3.66-8.3l.03-.01 3.48-3.5c.03-.02.04-.06.06-.09.43.2.84.43 1.22.7l-4.8 4.79v-1.88zm0-2.1v-2.4c.7.03 1.4.15 2.06.33l-2.06 2.07zm.03 6.07l5.93-5.93c.32.3.63.62.9.96l-6.24 6.25-.62-.62v-.64s.02 0 .03-.02zm7.7-3.71c.22.4.42.83.6 1.27l-5.72 5.72-.93-.94 6.04-6.05zm-17.7 4.68c0-4.9 3.71-8.92 8.47-9.41v9.4c0 .2.08.4.22.54l6.79 6.78a9.47 9.47 0 01-15.48-7.31zm16.55 6.27l-.92-.92 3-2.99a9.46 9.46 0 01-2.08 3.91z" fill="#fff"/><circle cx="190.02" cy="64.25" r="21.24" fill="#5E78FF"/><path d="M229.47 61.38h-1.9v-8.67h-4.39v8.67h-1.89V51.26h8.18v10.12zm4.6-1.86c.2.24.4.4.64.5a1.94 1.94 0 001.46 0c.2-.1.39-.24.53-.45.15-.2.27-.45.34-.75.08-.3.12-.67.12-1.09 0-.42-.03-.77-.1-1.06-.07-.3-.16-.53-.29-.71a1.14 1.14 0 00-.46-.4 1.4 1.4 0 00-.61-.13c-.36 0-.66.08-.92.23-.25.15-.49.36-.71.64v3.22zm-.1-4.34c.3-.33.64-.6 1-.8a2.7 2.7 0 012.4-.07c.32.16.6.4.84.71.23.31.42.7.54 1.15a5.63 5.63 0 01-.02 3.05 3.6 3.6 0 01-.62 1.2 2.84 2.84 0 01-2.25 1.07c-.4 0-.74-.07-1.03-.19-.28-.12-.54-.3-.76-.51v2.94h-1.73V54.2h1.06c.22 0 .37.1.44.31l.14.67zm11.94 1.78c0-.22-.03-.43-.1-.63-.06-.2-.15-.37-.28-.52a1.28 1.28 0 00-.48-.35c-.2-.09-.42-.13-.67-.13-.5 0-.9.14-1.19.42a2.1 2.1 0 00-.54 1.21h3.26zm-3.3 1.05c.03.37.1.68.2.96a1.65 1.65 0 001 1.06c.23.08.5.12.77.12.28 0 .52-.03.72-.1.2-.06.38-.14.53-.22l.4-.21c.12-.07.23-.1.34-.1.14 0 .25.05.32.16l.5.63a2.97 2.97 0 01-1.4.93 5.6 5.6 0 01-1.57.24c-.5 0-.96-.08-1.39-.24a3.17 3.17 0 01-1.87-1.94 4.69 4.69 0 01-.03-3.04 3.3 3.3 0 011.76-1.9 3.6 3.6 0 011.45-.27c.45 0 .87.07 1.26.21a2.72 2.72 0 011.63 1.66c.16.4.24.86.24 1.38 0 .26-.03.44-.09.53-.06.1-.16.14-.32.14h-4.45zm11.91 2.14v-4.63h-1.76c-.05.6-.1 1.15-.18 1.63-.07.48-.15.91-.24 1.3a7.66 7.66 0 01-.66 1.7h2.84zm3-.05v3.17c0 .16-.05.29-.14.38-.09.1-.2.14-.35.14h-1.08v-2.4h-5.38v1.9c0 .13-.03.24-.11.34-.08.1-.2.16-.36.16H249v-3.64h.21c.16 0 .32-.02.48-.06.15-.05.3-.14.44-.28s.28-.35.4-.6c.13-.27.25-.62.35-1.06.1-.45.2-.99.27-1.63.08-.65.14-1.42.19-2.32h4.86v5.9h1.32zm5.14-6.01c.53 0 1.02.08 1.45.26a3.15 3.15 0 011.84 1.9c.17.45.25.96.25 1.53 0 .56-.08 1.08-.25 1.54a3.1 3.1 0 01-1.84 1.91c-.43.17-.92.26-1.45.26-.53 0-1.02-.1-1.46-.26a3.16 3.16 0 01-1.85-1.91 4.44 4.44 0 01-.25-1.54c0-.57.08-1.08.25-1.54a3.2 3.2 0 011.85-1.9c.44-.17.93-.25 1.46-.25zm0 6.07c.6 0 1.04-.2 1.33-.6a3 3 0 00.43-1.77c0-.78-.15-1.37-.43-1.77-.29-.4-.73-.61-1.33-.61-.6 0-1.05.2-1.35.62-.29.4-.43.99-.43 1.76s.14 1.36.43 1.76c.3.4.75.6 1.35.6zm12.12 1.22h-1.73v-5.9h-2.8v5.9h-1.73V54.2h6.26v7.18zm9.38 0h-1.73v-5.86h-1.76c-.06.88-.15 1.64-.26 2.28a10 10 0 01-.42 1.62c-.16.44-.34.8-.54 1.07s-.4.48-.63.62a1.9 1.9 0 01-.7.3c-.23.05-.47.08-.72.08s-.44-.03-.56-.07c-.12-.05-.18-.1-.18-.19v-1.07h.41c.16 0 .31-.03.47-.07.15-.05.3-.15.44-.3.15-.14.29-.34.42-.6.13-.28.25-.63.36-1.07.1-.44.2-.99.29-1.63.08-.63.15-1.4.2-2.3h4.9v7.2zm6.5-3.07c-.5.03-.92.07-1.26.14-.34.06-.62.14-.82.24-.2.1-.36.2-.44.34a.74.74 0 00-.14.43c0 .3.1.52.27.65.18.13.42.2.7.2a2.06 2.06 0 001.69-.78V58.3zm-3.97-3.11a4.26 4.26 0 012.99-1.13c.42 0 .8.07 1.12.2a2.33 2.33 0 011.36 1.45c.12.35.18.72.18 1.12v4.54h-.78a.82.82 0 01-.38-.07c-.09-.05-.16-.15-.2-.3l-.16-.52-.53.44a3.31 3.31 0 01-1.15.5 3.24 3.24 0 01-1.54-.06c-.25-.08-.48-.2-.66-.37a1.64 1.64 0 01-.44-.6 2.15 2.15 0 01-.06-1.4c.06-.17.16-.35.3-.51.14-.16.31-.32.53-.46.22-.15.5-.27.81-.38a10.71 10.71 0 012.58-.38v-.43c0-.48-.1-.83-.31-1.06-.2-.23-.5-.35-.9-.35a2.14 2.14 0 00-1.17.32l-.39.22a.74.74 0 01-.38.1.51.51 0 01-.3-.1.83.83 0 01-.2-.22l-.32-.55zm14.32.28h-2.56v5.9h-1.73v-5.9h-2.56V54.2h6.85v1.28zm5.77 2.83c-.5.03-.92.07-1.26.14-.34.06-.62.14-.82.24-.2.1-.35.2-.44.34a.74.74 0 00-.13.43c0 .3.08.52.26.65s.42.2.7.2a2.06 2.06 0 001.69-.78V58.3zm-3.96-3.11a4.26 4.26 0 012.98-1.13c.42 0 .8.07 1.13.2a2.33 2.33 0 011.35 1.45c.13.35.19.72.19 1.12v4.54h-.79a.82.82 0 01-.38-.07c-.09-.05-.16-.15-.2-.3l-.16-.52-.53.44a3.31 3.31 0 01-1.14.5 3.24 3.24 0 01-1.54-.06c-.26-.08-.48-.2-.67-.37a1.64 1.64 0 01-.43-.6 2.15 2.15 0 01-.06-1.4c.06-.17.15-.35.29-.51.14-.16.32-.32.54-.46.22-.15.49-.27.8-.38a10.71 10.71 0 012.58-.38v-.43c0-.48-.1-.83-.3-1.06-.22-.23-.51-.35-.9-.35a2.14 2.14 0 00-1.18.32l-.39.22a.74.74 0 01-.37.1.51.51 0 01-.31-.1.83.83 0 01-.2-.22l-.31-.55zM227.4 77.09v1.3h-5.6v-1.3h2.05v-5.9c0-.24 0-.48.02-.73l-1.45 1.22a.64.64 0 01-.26.13.64.64 0 01-.42-.07.44.44 0 01-.12-.12l-.55-.75 3.09-2.63h1.42v8.85h1.82zm9.65-3.77c0 .88-.1 1.65-.3 2.3a4.64 4.64 0 01-.78 1.61 3.17 3.17 0 01-2.65 1.26c-.53 0-1.02-.1-1.47-.3a3.2 3.2 0 01-1.17-.96 4.72 4.72 0 01-.78-1.6 8.42 8.42 0 01-.28-2.31c0-.89.1-1.65.28-2.3.2-.65.45-1.19.78-1.61.33-.43.72-.74 1.17-.95.45-.2.94-.31 1.47-.31s1.02.1 1.47.31c.46.2.85.52 1.18.95.34.42.6.96.79 1.6.19.66.28 1.42.28 2.31zm-1.79 0c0-.73-.05-1.34-.16-1.82a3.6 3.6 0 00-.44-1.15 1.52 1.52 0 00-1.34-.77 1.53 1.53 0 00-1.33.77c-.18.29-.32.67-.43 1.15-.1.48-.15 1.09-.15 1.82s.05 1.34.15 1.82c.11.48.25.86.43 1.15.18.28.38.48.61.6a1.65 1.65 0 001.45 0c.23-.12.44-.32.62-.6.18-.29.32-.67.43-1.15.1-.48.16-1.09.16-1.82zm10.9 0c0 .88-.09 1.65-.28 2.3a4.62 4.62 0 01-.78 1.61c-.34.43-.73.74-1.19.95-.45.21-.94.31-1.47.31-.52 0-1.01-.1-1.47-.3a3.2 3.2 0 01-1.17-.96 4.72 4.72 0 01-.77-1.6 8.46 8.46 0 01-.28-2.31c0-.89.09-1.65.28-2.3.18-.65.44-1.19.77-1.61.34-.43.72-.74 1.17-.95.46-.2.95-.31 1.47-.31.53 0 1.02.1 1.47.31.46.2.85.52 1.19.95.33.42.6.96.78 1.6.2.66.29 1.42.29 2.31zm-1.78 0c0-.73-.05-1.34-.16-1.82a3.6 3.6 0 00-.43-1.15 1.52 1.52 0 00-1.35-.77 1.55 1.55 0 00-1.33.77c-.17.29-.32.67-.42 1.15-.1.48-.16 1.09-.16 1.82s.05 1.34.16 1.82c.1.48.25.86.42 1.15.18.28.38.48.61.6a1.65 1.65 0 001.45 0c.23-.12.44-.32.62-.6.18-.29.32-.67.43-1.15.1-.48.16-1.09.16-1.82zm8.35-2.61a2.62 2.62 0 01-.7 1.83 2.25 2.25 0 01-1.64.67c-.34 0-.65-.06-.93-.18a2.2 2.2 0 01-.75-.5c-.2-.21-.36-.48-.48-.79-.12-.3-.17-.65-.17-1.03 0-.4.06-.75.17-1.07a2.14 2.14 0 011.22-1.3c.3-.13.6-.19.94-.19a2.35 2.35 0 011.68.69c.2.22.37.49.49.8.11.32.17.68.17 1.07zm-1.33 0c0-.27-.03-.5-.08-.68a1.17 1.17 0 00-.22-.44.73.73 0 00-.32-.24 1 1 0 00-.4-.08 1 1 0 00-.38.08.74.74 0 00-.32.24c-.08.11-.15.26-.2.44-.05.18-.08.4-.08.68 0 .26.03.48.08.66.05.17.12.3.2.42.09.1.2.18.31.23.13.04.26.07.4.07s.27-.03.39-.07a.75.75 0 00.32-.23c.1-.11.17-.25.22-.42.05-.18.08-.4.08-.66zm4.7-2.18l.2-.19c.1-.05.21-.08.36-.08h1.26l-7.52 9.86a.83.83 0 01-.22.2.62.62 0 01-.3.06h-1.3l7.52-9.85zm2.35 7.47a2.62 2.62 0 01-.7 1.83 2.34 2.34 0 01-3.32 0c-.2-.22-.36-.49-.48-.8a3.08 3.08 0 010-2.1 2.14 2.14 0 011.22-1.3c.29-.12.6-.18.94-.18a2.35 2.35 0 011.67.68c.2.22.37.49.49.8.12.32.18.68.18 1.07zm-1.34 0c0-.27-.02-.5-.07-.68a1.17 1.17 0 00-.22-.44.73.73 0 00-.32-.24 1 1 0 00-.4-.07 1 1 0 00-.39.07.74.74 0 00-.31.24c-.09.11-.16.26-.21.44-.05.18-.07.41-.07.68 0 .26.02.48.07.66.05.18.12.32.2.43.1.1.2.18.32.23.13.04.26.07.4.07s.27-.03.39-.07a.75.75 0 00.32-.23c.1-.11.17-.25.22-.43.05-.18.07-.4.07-.66z" fill="#5E78FF"/><path d="M190.02 66.65a.87.87 0 01-.62-.26.87.87 0 010-1.24.9.9 0 011.24 0c.16.16.26.38.26.62a.75.75 0 101.5 0 2.38 2.38 0 00-1.86-2.31l-.02-.47a.75.75 0 10-1.5 0v.63a2.37 2.37 0 001 4.51c.28 0 .55.11.75.31.2.2.3.47.3.75a1.04 1.04 0 01-.8 1.03h-.48a1.04 1.04 0 01-.82-1.13.75.75 0 00-1.49-.15 2.53 2.53 0 001.56 2.6.74.74 0 001.44.16 2.54 2.54 0 00-.46-5.05z" fill="#fff"/><path d="M199.39 71.44c-.2-2.23-1.17-9.42-5.5-12.12l.02-.03 1.5-3.99a1.49 1.49 0 00-1.4-2.01h-7.98a1.5 1.5 0 00-1.4 2.01l1.5 4 .01.02c-4.32 2.7-5.3 9.89-5.49 12.12a3.5 3.5 0 003.48 3.77h11.78a3.5 3.5 0 003.48-3.77zm-13.36-16.66h7.98l-1.5 3.99h-4.98l-1.5-3.99zm9.88 18.94h-11.78c-1.16 0-2.1-1-1.99-2.15.37-4.15 1.88-9.7 5.39-11.3h4.98c3.51 1.6 5.02 7.15 5.39 11.3a1.98 1.98 0 01-2 2.15z" fill="#fff"/><path d="M410.43 64.28c.34 0 .64-.04.9-.12.26-.1.47-.22.64-.38.17-.16.3-.36.38-.58a2.28 2.28 0 000-1.52c-.08-.22-.2-.4-.38-.56a1.64 1.64 0 00-.63-.35 2.93 2.93 0 00-.91-.12h-1.41v3.63h1.4zm0-5.09c.67 0 1.26.08 1.75.24.5.16.9.38 1.23.67.32.28.56.62.71 1.02a3.61 3.61 0 010 2.65c-.17.4-.41.76-.74 1.05-.33.3-.74.52-1.23.69-.5.16-1.07.24-1.72.24h-1.41v3.56h-1.88V59.2h3.29zm9.68 7.06c-.5.02-.92.07-1.26.13-.34.06-.62.14-.82.24-.2.1-.35.21-.44.34a.75.75 0 00-.14.43c0 .3.1.52.27.65.18.13.42.2.7.2.36 0 .67-.07.92-.2.27-.12.52-.32.77-.58v-1.21zm-3.97-3.12a4.26 4.26 0 012.99-1.13c.42 0 .8.07 1.12.2a2.31 2.31 0 011.36 1.46c.12.34.18.71.18 1.12v4.53h-.78a.83.83 0 01-.38-.07c-.09-.05-.16-.15-.2-.3l-.16-.51-.53.43a3.23 3.23 0 01-1.15.5 3.23 3.23 0 01-1.54-.05 1.9 1.9 0 01-.66-.37 1.66 1.66 0 01-.44-.61c-.1-.25-.15-.53-.15-.85a1.67 1.67 0 01.39-1.06c.14-.16.32-.31.54-.46.21-.14.48-.27.8-.38a10.73 10.73 0 012.58-.39v-.41c0-.48-.1-.84-.31-1.07-.2-.23-.5-.35-.9-.35a2.15 2.15 0 00-1.17.33l-.39.21a.74.74 0 01-.38.1.51.51 0 01-.3-.09.85.85 0 01-.2-.22l-.32-.56zm7.86-.22c.27-.26.6-.47 1.01-.64.4-.17.88-.25 1.44-.25.44 0 .84.05 1.19.16.34.1.63.25.86.43.24.18.42.38.54.61a1.47 1.47 0 01.13 1.15 1.65 1.65 0 01-.55.82c-.15.12-.34.22-.56.3.4.15.7.37.95.66.24.29.36.65.36 1.07 0 .35-.08.66-.24.93-.16.27-.38.5-.64.7a3.8 3.8 0 01-4.05-.04 2.97 2.97 0 01-.62-.57l.5-.63c.07-.1.17-.16.31-.16.1 0 .21.04.31.1l.34.23a1.94 1.94 0 001.13.32c.43 0 .76-.1.98-.3.22-.19.34-.43.34-.73a.78.78 0 00-.35-.67c-.23-.17-.6-.25-1.12-.25h-.82v-1.13h.82c.45 0 .8-.08 1.04-.23a.72.72 0 00.36-.63.7.7 0 00-.32-.6 1.58 1.58 0 00-.94-.22 2.24 2.24 0 00-1.07.24l-.31.16a.45.45 0 01-.44.04.61.61 0 01-.19-.2l-.39-.67zm9.45 4.54c.2.24.41.4.64.5a1.93 1.93 0 001.46 0c.21-.1.4-.24.54-.44.15-.2.26-.45.34-.76.08-.3.12-.67.12-1.08 0-.42-.04-.78-.1-1.07-.07-.3-.17-.53-.3-.71a1.14 1.14 0 00-.46-.4 1.41 1.41 0 00-.6-.13c-.36 0-.67.08-.92.24-.25.14-.5.36-.72.63v3.22zm-.09-4.34c.3-.33.63-.6 1-.8a2.69 2.69 0 012.4-.07c.32.17.6.4.83.72.24.3.42.69.55 1.15a5.67 5.67 0 01-.02 3.05c-.15.46-.36.85-.63 1.19-.26.33-.59.6-.97.79-.38.19-.8.28-1.27.28-.4 0-.75-.06-1.03-.18-.29-.13-.54-.3-.77-.52v2.94h-1.72v-9.53h1.05c.23 0 .37.1.44.32l.14.66zm11.1 3.14c-.5.02-.92.07-1.26.13-.34.06-.61.14-.82.24-.2.1-.35.21-.44.34a.74.74 0 00-.13.43c0 .3.09.52.26.65.19.13.42.2.71.2.36 0 .66-.07.92-.2.26-.12.51-.32.76-.58v-1.21zm-3.96-3.12a4.26 4.26 0 012.98-1.13c.42 0 .8.07 1.13.2a2.33 2.33 0 011.36 1.46c.12.34.18.71.18 1.12v4.53h-.78a.83.83 0 01-.38-.07c-.1-.05-.16-.15-.21-.3l-.16-.51c-.18.16-.36.3-.53.43a3.27 3.27 0 01-1.14.5 3.23 3.23 0 01-1.54-.05c-.26-.09-.48-.21-.67-.37a1.65 1.65 0 01-.43-.61 2.15 2.15 0 01-.06-1.39c.06-.18.16-.35.3-.52.13-.16.31-.31.53-.46.22-.14.49-.27.8-.38a10.73 10.73 0 012.58-.39v-.41c0-.48-.1-.84-.3-1.07-.21-.23-.5-.35-.9-.35a2.15 2.15 0 00-1.18.33l-.38.21a.74.74 0 01-.38.1.51.51 0 01-.3-.09.83.83 0 01-.21-.22l-.31-.56zm11.65 5.03c.6 0 1.04-.2 1.34-.57.3-.39.44-.95.44-1.68 0-.74-.14-1.3-.44-1.68-.28-.38-.72-.57-1.3-.57-.6 0-1.04.18-1.35.54-.3.36-.46.9-.46 1.62 0 .76.14 1.34.43 1.74.3.4.74.6 1.34.6zm.5-7.33c-.43.03-.8.11-1.12.26-.31.14-.57.33-.77.57-.2.24-.36.53-.46.86-.1.34-.17.7-.19 1.11a2.72 2.72 0 011-.89 3.09 3.09 0 011.5-.35c.48 0 .9.09 1.3.25.37.17.7.4.96.72.27.3.48.68.62 1.11a4.44 4.44 0 01-.04 2.9 3.12 3.12 0 01-1.84 1.8c-.44.17-.93.25-1.46.25-.52 0-1-.08-1.43-.25-.44-.17-.81-.44-1.13-.82a4.04 4.04 0 01-.74-1.47 9.75 9.75 0 01-.06-4.26c.13-.63.35-1.19.66-1.66.3-.47.71-.86 1.21-1.14.5-.3 1.12-.47 1.85-.52l2.55-.2.1.9c.01.19-.02.35-.09.49-.07.13-.2.2-.4.2l-2.02.14zm8.58 1.19c.53 0 1.01.09 1.45.26a3.15 3.15 0 011.84 1.9c.17.45.25.96.25 1.53 0 .57-.08 1.08-.25 1.54a3.1 3.1 0 01-1.84 1.91c-.44.17-.92.26-1.45.26-.54 0-1.03-.09-1.47-.26a3.16 3.16 0 01-1.84-1.91 4.44 4.44 0 01-.26-1.54c0-.57.09-1.08.26-1.53.17-.46.4-.85.72-1.17a3.2 3.2 0 011.12-.73c.44-.17.93-.26 1.47-.26zm0 6.07c.6 0 1.03-.2 1.32-.6a3 3 0 00.43-1.77c0-.77-.14-1.36-.43-1.77-.29-.4-.73-.6-1.32-.6-.61 0-1.06.2-1.35.6-.3.42-.44 1-.44 1.77s.15 1.36.44 1.77c.29.4.74.6 1.35.6zm11.81-4.68h-2.56v5.9h-1.73v-5.9h-2.55v-1.28h6.84v1.28zm6.31-.82a.96.96 0 01.8-.46h1.37l-1.68 2.67a2.4 2.4 0 01-.35.45c-.13.12-.27.2-.45.27.24.07.43.18.58.32.15.13.28.3.4.51l1.68 2.96h-1.2c-.3 0-.53-.05-.7-.15-.17-.1-.31-.25-.43-.44l-1.05-1.99a.95.95 0 00-.37-.38 1 1 0 00-.5-.13h-.66v3.1h-1.73v-7.19h1.73v2.96h.56a.9.9 0 00.47-.1.9.9 0 00.3-.34l1.23-2.06zm8.1 3.66c-.5.02-.91.07-1.25.13-.34.06-.62.14-.82.24-.2.1-.36.21-.44.34a.74.74 0 00-.14.43c0 .3.1.52.27.65.18.13.42.2.7.2.36 0 .67-.07.92-.2.26-.12.52-.32.77-.58v-1.21zm-3.96-3.12a4.26 4.26 0 012.99-1.13c.42 0 .8.07 1.12.2a2.33 2.33 0 011.36 1.46c.12.34.18.71.18 1.12v4.53h-.78a.83.83 0 01-.38-.07c-.09-.05-.16-.15-.2-.3l-.16-.51c-.19.16-.36.3-.54.43a3.27 3.27 0 01-1.14.5 3.23 3.23 0 01-1.54-.05c-.25-.09-.47-.21-.66-.37a1.65 1.65 0 01-.44-.61 2.15 2.15 0 01-.06-1.39c.06-.18.16-.35.3-.52.14-.16.32-.31.53-.46.22-.14.5-.27.81-.38a10.73 10.73 0 012.58-.39v-.41c0-.48-.1-.84-.31-1.07-.2-.23-.5-.35-.9-.35a2.15 2.15 0 00-1.17.33l-.39.21a.74.74 0 01-.38.1.51.51 0 01-.3-.09.83.83 0 01-.2-.22l-.32-.56z" fill="#5E78FF"/><circle cx="375.87" cy="64.25" r="21.24" fill="#5E78FF"/><path d="M375.87 61.76a2.5 2.5 0 110 4.98 2.5 2.5 0 010-4.98zm0-1.5a4 4 0 100 7.99 4 4 0 000-7.99z" fill="#fff"/><path d="M377.36 54.78v1.64c1.09.21 2.1.63 2.98 1.24l1.16-1.16 2.11 2.11-1.15 1.16c.6.88 1.02 1.9 1.23 2.98h1.64v3h-1.64c-.2 1.08-.63 2.1-1.23 2.98l1.15 1.15L381.5 72l-1.16-1.16c-.88.6-1.89 1.03-2.98 1.24v1.64h-2.99v-1.64c-1.1-.21-2.1-.64-2.99-1.24L370.24 72l-2.11-2.12 1.15-1.15a7.92 7.92 0 01-1.23-2.99h-1.64v-2.99h1.64c.2-1.09.63-2.1 1.23-2.98l-1.15-1.16 2.1-2.1 1.16 1.15c.89-.6 1.9-1.03 2.99-1.24v-1.64h2.99zm0-1.5h-2.99c-.83 0-1.5.67-1.5 1.5v.48c-.42.14-.84.32-1.25.52l-.34-.35a1.48 1.48 0 00-2.11 0l-2.12 2.12a1.5 1.5 0 000 2.11l.35.35c-.2.4-.38.82-.52 1.25h-.48c-.83 0-1.5.67-1.5 1.5v2.98c0 .83.67 1.5 1.5 1.5h.48c.14.43.31.85.51 1.25l-.34.34a1.5 1.5 0 000 2.12l2.11 2.1a1.48 1.48 0 002.12 0l.34-.34c.4.2.82.38 1.25.52v.49c0 .82.67 1.49 1.5 1.49h2.98c.83 0 1.5-.67 1.5-1.5v-.48c.43-.14.85-.31 1.25-.51l.34.34a1.48 1.48 0 002.12 0l2.1-2.11a1.5 1.5 0 000-2.11l-.34-.35c.2-.4.38-.81.52-1.25h.5c.82 0 1.49-.66 1.49-1.5v-2.98c0-.83-.67-1.5-1.5-1.5h-.48a9.39 9.39 0 00-.52-1.25l.35-.34a1.5 1.5 0 000-2.11l-2.11-2.12a1.48 1.48 0 00-2.12 0l-.34.35c-.4-.21-.83-.38-1.26-.52v-.49c0-.83-.66-1.5-1.5-1.5z" fill="#fff"/><circle cx="554.31" cy="64.25" r="21.24" fill="#5E78FF"/><path d="M590.9 66.16l-1.23-3.36a7.04 7.04 0 01-.38-1.2 14.2 14.2 0 01-.38 1.21l-1.23 3.35h3.23zm3.33 3.82h-1.46a.63.63 0 01-.4-.11.78.78 0 01-.23-.31l-.75-2.07h-4.2l-.75 2.07c-.04.1-.11.2-.22.3a.62.62 0 01-.4.12h-1.47l3.98-10.12h1.92l3.98 10.12zm6.03-6.72a.96.96 0 01.8-.46h1.37l-1.68 2.67a2.4 2.4 0 01-.36.45c-.12.12-.26.2-.44.27.24.07.43.18.58.32.15.13.28.3.4.51l1.68 2.96h-1.2c-.3 0-.53-.05-.7-.15-.17-.1-.31-.25-.43-.44l-1.05-1.99a.95.95 0 00-.37-.38 1 1 0 00-.5-.13h-.66V70h-1.73V62.8h1.73v2.96h.56a.9.9 0 00.47-.1.9.9 0 00.3-.34l1.23-2.06zm10.47.82h-2.56v5.9h-1.73v-5.9h-2.55V62.8h6.84v1.28z" fill="#5E78FF"/><path d="M562.66 53.29h-12c-.57 0-1.06.3-1.33.74l-4.2 4.2c-.44.27-.74.76-.74 1.32v14.1c0 .86.7 1.56 1.56 1.56h16.7c.87 0 1.57-.7 1.57-1.57V54.85c0-.86-.7-1.56-1.56-1.56zm-13.57 3.2v1.5h-1.5l1.5-1.5zm13.57 17.15h-16.7V59.6l.02-.02.04-.03h4.63v-4.63l.03-.04.02-.03h11.96v18.8z" fill="#fff"/><path d="M559.53 65.3h-10.44a.78.78 0 100 1.56h10.44a.78.78 0 100-1.57zM557.96 68.95h-8.87a.78.78 0 100 1.56h8.87a.78.78 0 100-1.56zM555.87 63.2H559c.87 0 1.57-.7 1.57-1.56V58.5c0-.87-.7-1.57-1.57-1.57h-3.13c-.87 0-1.56.7-1.56 1.57v3.13c0 .87.7 1.56 1.56 1.56zm0-4.7H559v3.14h-3.13V58.5z" fill="#fff"/><path d="M134.06 64.25h22.41" stroke="#5E78FF" stroke-width="2"/><path d="M154.24 61.33l2.9 2.92-2.9 2.91" stroke="#5E78FF" stroke-width="2" stroke-linecap="round"/><path d="M498.94 64.25h22.41" stroke="#5E78FF" stroke-width="2"/><path d="M519.12 61.33l2.9 2.92-2.9 2.91" stroke="#5E78FF" stroke-width="2" stroke-linecap="round"/><path d="M320.5 64.25h22.41" stroke="#5E78FF" stroke-width="2"/><path d="M340.68 61.33l2.9 2.92-2.9 2.91" stroke="#5E78FF" stroke-width="2" stroke-linecap="round"/><path d="M288.02 309.08h-2.44v-11.15h-5.65v11.15h-2.43v-13.01h10.52v13zm9.21-5.68c0-.29-.04-.56-.13-.81-.07-.26-.2-.48-.36-.67-.16-.2-.37-.35-.62-.46a2.04 2.04 0 00-.86-.17c-.64 0-1.15.19-1.52.55-.37.37-.6.89-.7 1.56h4.19zm-4.24 1.34c.04.47.12.89.25 1.23.13.35.3.63.52.86.22.22.48.39.77.5.3.11.63.17.99.17s.67-.05.93-.13.49-.18.68-.28l.51-.28c.15-.08.3-.13.44-.13.18 0 .32.07.41.21l.64.81a3.8 3.8 0 01-1.8 1.2 7.19 7.19 0 01-2.02.31 5 5 0 01-1.78-.31 4.09 4.09 0 01-2.4-2.5 6.03 6.03 0 01-.05-3.9 4.16 4.16 0 012.27-2.43 4.63 4.63 0 011.86-.37c.59 0 1.12.1 1.62.28a3.48 3.48 0 012.1 2.13c.2.52.3 1.11.3 1.78 0 .33-.04.56-.11.68-.07.11-.21.17-.41.17h-5.72zm11.13 1.94c.25.31.52.53.82.65a2.48 2.48 0 001.88 0c.27-.12.5-.31.68-.57.2-.26.34-.58.44-.97.1-.4.16-.87.16-1.4 0-.54-.05-1-.14-1.37a2.6 2.6 0 00-.37-.92c-.16-.23-.36-.4-.6-.5a1.8 1.8 0 00-.77-.17c-.47 0-.86.1-1.18.3-.33.19-.63.46-.92.81v4.14zm-.12-5.57c.38-.43.8-.78 1.29-1.04a3.46 3.46 0 013.07-.08c.42.2.78.51 1.08.92.3.4.54.88.7 1.47a7.25 7.25 0 01-.03 3.93c-.18.58-.45 1.1-.8 1.53a3.65 3.65 0 01-2.89 1.38c-.51 0-.95-.08-1.32-.24a3.3 3.3 0 01-.98-.67v3.78h-2.22v-12.24h1.36c.28 0 .47.13.56.4l.18.86zm15.06 2.29c0-.29-.04-.56-.13-.81-.08-.26-.2-.48-.36-.67-.16-.2-.37-.35-.62-.46a2.04 2.04 0 00-.86-.17c-.64 0-1.15.19-1.52.55-.37.37-.6.89-.7 1.56h4.19zm-4.24 1.34c.04.47.12.89.25 1.23.13.35.3.63.52.86.22.22.47.39.77.5.3.11.63.17.99.17s.67-.05.92-.13c.27-.08.5-.18.69-.28l.51-.28c.15-.08.3-.13.43-.13.19 0 .33.07.42.21l.64.81a3.8 3.8 0 01-1.8 1.2 7.19 7.19 0 01-2.02.31 5 5 0 01-1.78-.31 4.09 4.09 0 01-2.4-2.5 6.03 6.03 0 01-.05-3.9 4.16 4.16 0 012.27-2.43 4.63 4.63 0 011.86-.37c.58 0 1.12.1 1.61.28a3.48 3.48 0 012.1 2.13c.2.52.3 1.11.3 1.78 0 .33-.03.56-.1.68-.07.11-.21.17-.42.17h-5.71zm17 4.34h-2.13a.6.6 0 01-.4-.13c-.1-.08-.18-.18-.24-.28l-1.96-3.22-.1.29-.13.25-1.73 2.68c-.06.1-.15.2-.24.28a.53.53 0 01-.36.13h-2l3.18-4.76-3.04-4.47h2.14a.7.7 0 01.36.07c.07.04.14.11.2.21l1.94 3.08c.06-.2.16-.4.28-.6l1.56-2.43c.13-.22.3-.33.5-.33h2.05l-3.03 4.37 3.16 4.86zm5.83-9.38a5 5 0 011.87.33 4.04 4.04 0 012.36 2.44c.22.6.33 1.25.33 1.97 0 .74-.11 1.4-.33 1.98a3.98 3.98 0 01-2.37 2.46 5 5 0 01-1.86.33 5.1 5.1 0 01-1.88-.33 4.07 4.07 0 01-2.38-2.46 5.71 5.71 0 01-.32-1.98c0-.72.1-1.38.32-1.97.23-.59.54-1.08.93-1.5.4-.4.89-.71 1.45-.94a5.1 5.1 0 011.88-.33zm0 7.8c.77 0 1.34-.25 1.7-.77.38-.52.56-1.27.56-2.27s-.19-1.75-.56-2.27c-.36-.53-.93-.79-1.7-.79-.78 0-1.36.27-1.73.8a3.88 3.88 0 00-.56 2.26c0 1 .18 1.75.56 2.27.37.52.95.77 1.73.77zm13.14 0v-5.95h-2.26c-.06.77-.14 1.47-.23 2.1-.09.61-.2 1.16-.31 1.65-.12.49-.26.9-.4 1.27-.14.36-.29.67-.45.93h3.65zm3.86-.07v4.08c0 .2-.06.37-.18.49a.6.6 0 01-.45.18h-1.39v-3.1h-6.91v2.47a.7.7 0 01-.16.43c-.1.13-.24.2-.45.2h-1.4v-4.69h.25c.21 0 .42-.02.62-.08s.38-.18.56-.36c.19-.18.36-.43.52-.77.17-.34.32-.8.45-1.36.14-.57.25-1.27.35-2.1.1-.82.18-1.82.24-2.97h6.25v7.58h1.7zm-100.9 23a1.24 1.24 0 011.03-.58h1.75l-2.15 3.42c-.15.24-.3.44-.46.59-.16.14-.35.26-.57.34.3.1.55.23.74.4.2.18.37.4.52.67l2.16 3.8h-1.54c-.39 0-.7-.06-.9-.19-.22-.13-.4-.32-.56-.57l-1.36-2.55a1.2 1.2 0 00-1.12-.66h-.84v3.98h-2.22v-9.23h2.22v3.8h.72c.26 0 .46-.04.6-.13.16-.1.3-.24.4-.44l1.58-2.65zM271 331.8l-.2.2c-.06.04-.15.07-.27.07a.63.63 0 01-.34-.1l-.38-.24a2.52 2.52 0 00-1.3-.34c-.4 0-.74.07-1.03.22-.3.14-.54.34-.74.6-.2.27-.34.59-.43.97a5.13 5.13 0 000 2.58c.11.38.27.7.46.97.2.26.44.46.72.6.29.13.6.2.96.2a2.4 2.4 0 001.41-.42l.39-.29a.6.6 0 01.38-.13c.18 0 .31.06.4.2l.64.81a4.14 4.14 0 01-2.66 1.44c-.32.05-.64.07-.97.07a3.86 3.86 0 01-2.93-1.25c-.38-.4-.68-.9-.9-1.5a5.9 5.9 0 01-.32-2.02c0-.67.1-1.3.28-1.88.2-.58.49-1.08.87-1.5.38-.43.84-.76 1.4-1 .56-.24 1.2-.36 1.93-.36.69 0 1.29.11 1.8.33.53.23 1 .54 1.41.96l-.58.8zm11.63 7.28h-2.22v-7.53h-2.27a25.66 25.66 0 01-.33 2.93c-.15.82-.33 1.5-.54 2.08-.2.57-.44 1.03-.7 1.38-.25.34-.52.6-.8.8-.3.19-.59.31-.9.38-.3.06-.61.1-.92.1-.33 0-.58-.04-.73-.1-.15-.05-.23-.13-.23-.23v-1.39h.53c.2 0 .4-.03.6-.09.2-.06.39-.18.57-.37.19-.18.37-.44.54-.79.16-.35.32-.8.45-1.37.15-.56.27-1.26.38-2.08.11-.82.2-1.8.25-2.95h6.32v9.23zm9.14-5.68c0-.29-.04-.56-.13-.81a1.64 1.64 0 00-.98-1.13 2.04 2.04 0 00-.86-.17c-.64 0-1.15.19-1.52.55-.37.37-.6.89-.7 1.56h4.2zm-4.24 1.34c.04.47.12.89.25 1.23.14.35.31.63.53.86.21.22.47.39.76.5.3.11.63.17 1 .17.35 0 .66-.05.92-.13s.49-.18.68-.28l.51-.28c.15-.08.3-.13.44-.13.18 0 .32.07.41.21l.64.81a3.8 3.8 0 01-1.8 1.2 7.19 7.19 0 01-2.02.31 5 5 0 01-1.78-.31 4.09 4.09 0 01-2.4-2.5 6.03 6.03 0 01-.05-3.9 4.16 4.16 0 012.27-2.43 4.63 4.63 0 011.87-.37c.58 0 1.11.1 1.6.28a3.48 3.48 0 012.1 2.13c.2.52.3 1.11.3 1.78 0 .33-.03.56-.1.68-.07.11-.2.17-.41.17h-5.72zm15.03 2.75v-5.94h-2.27c-.06.77-.14 1.47-.23 2.1-.08.61-.19 1.16-.31 1.65s-.25.9-.4 1.27c-.13.36-.28.67-.45.93h3.66zm3.85-.06v4.08c0 .2-.06.37-.18.49a.6.6 0 01-.45.18h-1.39v-3.1h-6.9v2.47a.7.7 0 01-.16.43c-.1.13-.25.2-.46.2h-1.4v-4.69h.26c.2 0 .41-.02.6-.08.2-.06.4-.18.58-.36.18-.18.36-.43.52-.77.17-.34.32-.8.45-1.36.13-.57.24-1.27.34-2.1.1-.82.18-1.82.24-2.97h6.26v7.58h1.69zm10.3-7.58l-5.03 11.77a.8.8 0 01-.27.35c-.1.08-.26.12-.47.12h-1.66l1.73-3.7-3.74-8.54h1.96c.17 0 .3.04.4.12.1.08.18.18.23.29l1.96 4.79a11.91 11.91 0 01.3.98 48.45 48.45 0 01.34-1l1.85-4.77a.65.65 0 01.61-.41h1.79zm10.44 7.65c.72 0 1.25-.25 1.6-.77.34-.52.5-1.27.5-2.27s-.16-1.75-.5-2.27c-.35-.53-.88-.79-1.6-.79-.72 0-1.25.27-1.59.8a4.15 4.15 0 00-.51 2.26c0 1 .16 1.75.5 2.27.34.52.88.77 1.6.77zm-4.28-3.9c.07-.6.22-1.14.45-1.62a3.82 3.82 0 012.19-2c.5-.19 1.04-.28 1.64-.28.67 0 1.27.11 1.81.33a3.93 3.93 0 012.28 2.44c.2.6.31 1.25.31 1.97 0 .74-.1 1.4-.32 1.98a3.96 3.96 0 01-2.3 2.46c-.54.22-1.13.33-1.78.33-.62 0-1.19-.09-1.69-.27a3.77 3.77 0 01-2.18-2.07 5.37 5.37 0 01-.42-1.69h-1.83v3.9h-2.22v-9.23h2.22v3.76h1.84zm25.83 3.83v4.08c0 .2-.06.37-.18.49a.6.6 0 01-.44.18h-1.4v-3.1h-12.44v-9.23h2.22v7.58h3.06v-7.58h2.22v7.58h3.05v-7.58h2.22v7.58h1.7zm8.2-4.03c0-.29-.04-.56-.12-.81-.08-.26-.2-.48-.36-.67-.16-.2-.37-.35-.62-.46a2.04 2.04 0 00-.87-.17c-.64 0-1.14.19-1.52.55-.36.37-.6.89-.7 1.56h4.2zm-4.23 1.34c.03.47.12.89.25 1.23.13.35.3.63.52.86.22.22.47.39.76.5.3.11.63.17 1 .17.36 0 .66-.05.92-.13.27-.08.5-.18.69-.28.2-.1.37-.2.5-.28.16-.08.3-.13.44-.13.19 0 .32.07.42.21l.63.81a3.8 3.8 0 01-1.79 1.2 7.19 7.19 0 01-2.02.31 5 5 0 01-1.78-.31 4.09 4.09 0 01-2.4-2.5 6.03 6.03 0 01-.05-3.9 4.16 4.16 0 012.27-2.43 4.63 4.63 0 011.86-.37c.58 0 1.12.1 1.61.28a3.48 3.48 0 012.1 2.13c.2.52.3 1.11.3 1.78 0 .33-.03.56-.1.68-.08.11-.22.17-.42.17h-5.71zm19.6-4.91v9.25h-2v-5.15c0-.2 0-.45.02-.71.03-.26.06-.51.11-.74l-2.72 4.99a.66.66 0 01-.63.38h-.23a.66.66 0 01-.63-.38l-2.75-5.02a8.1 8.1 0 01.14 1.48v5.15h-2v-9.25h1.83c.15 0 .3.03.46.1.15.06.28.2.38.4l2.18 3.88a6.4 6.4 0 01.5 1.18l.23-.61c.08-.2.17-.4.27-.57l2.16-3.89a.8.8 0 01.39-.4c.15-.06.3-.1.46-.1h1.83zm11.6.02l-5.04 11.77a.8.8 0 01-.26.35c-.1.08-.26.12-.48.12h-1.65l1.73-3.7-3.74-8.54h1.95c.18 0 .31.04.4.12.11.08.19.18.23.29l1.97 4.79a11.91 11.91 0 01.3.98 48.45 48.45 0 01.33-1l1.86-4.77a.65.65 0 01.61-.41h1.78zm-93.68 31.14c.41-.42.88-.73 1.4-.96a4.61 4.61 0 011.8-.33c.74 0 1.38.12 1.94.36a4.1 4.1 0 012.27 2.5c.2.58.29 1.2.29 1.88 0 .76-.11 1.44-.33 2.03a4.4 4.4 0 01-.9 1.5 3.86 3.86 0 01-2.93 1.24 6.8 6.8 0 01-.98-.07 4.7 4.7 0 01-1.85-.71c-.3-.2-.56-.44-.8-.73l.6-.75c.1-.13.23-.2.41-.2.1 0 .18.03.25.07a3.28 3.28 0 01.52.32 3.2 3.2 0 00.81.32c.18.04.39.06.63.06.62 0 1.13-.2 1.55-.61.41-.41.67-1.01.76-1.8h-3.91v-1.5h3.9a2.86 2.86 0 00-.77-1.63 2.14 2.14 0 00-1.59-.59 3.2 3.2 0 00-1.32.3l-.4.22a.68.68 0 01-.33.09.47.47 0 01-.28-.08 1.21 1.21 0 01-.19-.2l-.55-.73zm18.05.5h-3.29v7.59h-2.22v-7.59h-3.29v-1.64h8.8v1.64zm7.14 3.65c-.64.03-1.19.08-1.62.17a4.2 4.2 0 00-1.06.3c-.26.13-.45.28-.56.44a.96.96 0 00-.17.55c0 .4.11.67.34.84.23.17.54.25.9.25.46 0 .86-.08 1.19-.24.33-.17.66-.42.98-.76v-1.55zm-5.1-4a5.48 5.48 0 013.84-1.47c.54 0 1.02.1 1.45.27a2.99 2.99 0 011.74 1.87c.16.44.24.92.24 1.44v5.83h-1.01c-.21 0-.37-.03-.49-.1-.11-.06-.2-.19-.27-.38l-.2-.66c-.23.2-.46.4-.68.55a4.2 4.2 0 01-1.47.64 4.16 4.16 0 01-1.98-.06c-.33-.1-.61-.27-.85-.48a2.12 2.12 0 01-.56-.78 2.78 2.78 0 01-.08-1.78c.08-.24.2-.46.38-.67.18-.2.4-.4.69-.6a4.5 4.5 0 011.04-.48c.4-.14.89-.25 1.44-.33.54-.1 1.17-.14 1.87-.16v-.54c0-.62-.13-1.08-.4-1.37-.26-.3-.64-.45-1.14-.45a2.76 2.76 0 00-1.52.41l-.5.28a.95.95 0 01-.48.13.66.66 0 01-.4-.12c-.1-.08-.2-.18-.26-.29l-.4-.7zm18.4 7.94h-2.22v-7.59h-3.6v7.59h-2.22v-9.23h8.05v9.23zm11.6-9.23l-5.03 11.77a.8.8 0 01-.27.35c-.1.08-.26.12-.47.12h-1.66l1.73-3.7-3.74-8.54h1.96c.17 0 .3.04.4.12.1.08.18.18.23.29l1.96 4.79a11.91 11.91 0 01.3.98 48.45 48.45 0 01.34-1l1.85-4.77a.65.65 0 01.61-.41h1.79z" fill="#5E78FF"/><path d="M315.5 249a84.25 84.25 0 1028.98 5.12" stroke="#5E78FF" stroke-width="2" stroke-dasharray="5.5 5.5"/><path d="M314.82 246.1l2.9 2.9-2.91 2.9" stroke="#5E78FF" stroke-width="2" stroke-linecap="round"/></svg>