<svg width="199" height="830" fill="none" xmlns="http://www.w3.org/2000/svg"><path d="M101.14 548.28v76.5" stroke="#5E78FF" stroke-width="2"/><path d="M105.39 621.52l-4.25 4.24-4.26-4.24" stroke="#5E78FF" stroke-width="2" stroke-linecap="round"/><path d="M73.66 720.27h-2.44v-11.15h-5.65v11.15h-2.43v-13.01h10.52v13.01zm9.2-5.68c0-.29-.04-.56-.12-.8-.08-.27-.2-.5-.36-.68-.16-.2-.37-.35-.62-.45a2.04 2.04 0 00-.86-.17c-.65 0-1.15.18-1.53.54-.36.37-.6.89-.7 1.56h4.2zm-4.23 1.34c.03.48.12.89.25 1.24.13.34.3.62.52.85.22.22.47.4.77.5.3.11.63.17.99.17s.67-.05.92-.13c.27-.08.5-.18.69-.28l.51-.28c.15-.08.3-.12.43-.12.19 0 .33.07.42.2l.64.81a3.8 3.8 0 01-1.8 1.2 7.19 7.19 0 01-2.02.31 5 5 0 01-1.78-.3 4.09 4.09 0 01-2.4-2.5 6.03 6.03 0 01-.05-3.92 4.16 4.16 0 012.27-2.43 4.63 4.63 0 011.86-.36c.58 0 1.12.1 1.61.28a3.48 3.48 0 012.1 2.13c.2.52.3 1.11.3 1.78 0 .33-.03.56-.1.68-.08.12-.21.17-.42.17h-5.71zm11.13 1.95c.25.3.52.52.81.64a2.48 2.48 0 001.89 0c.27-.12.5-.31.68-.57.2-.26.34-.58.44-.97.1-.4.15-.86.15-1.4 0-.54-.04-1-.13-1.37a2.6 2.6 0 00-.37-.91c-.16-.24-.36-.4-.6-.52a1.8 1.8 0 00-.78-.16c-.46 0-.85.1-1.18.3-.32.19-.63.46-.91.82v4.14zm-.12-5.58c.38-.43.8-.77 1.29-1.04a3.46 3.46 0 013.06-.08c.42.21.78.52 1.08.92.31.4.54.89.7 1.48a7.25 7.25 0 01-.02 3.92c-.19.59-.45 1.1-.8 1.53-.34.43-.76.77-1.25 1.02-.49.24-1.03.36-1.64.36-.52 0-.96-.08-1.32-.24a3.3 3.3 0 01-.98-.66v3.78h-2.23v-12.25h1.36c.29 0 .48.13.57.4l.18.86zm15.05 2.3c0-.3-.04-.57-.12-.82-.08-.26-.2-.48-.36-.67-.16-.2-.37-.35-.62-.45a2.04 2.04 0 00-.87-.17c-.64 0-1.14.18-1.52.54-.36.37-.6.89-.7 1.56h4.2zm-4.23 1.33c.03.48.12.89.25 1.24.13.34.3.62.52.85.22.22.47.4.77.5a3.01 3.01 0 001.92.04c.26-.08.48-.18.68-.28.2-.1.37-.2.5-.28.16-.08.3-.12.44-.12.19 0 .32.07.41.2l.64.81a3.8 3.8 0 01-1.79 1.2 7.19 7.19 0 01-2.02.31 5 5 0 01-1.78-.3 4.1 4.1 0 01-2.4-2.5 6.03 6.03 0 01-.05-3.92 4.16 4.16 0 012.27-2.43 4.63 4.63 0 011.86-.36c.58 0 1.12.1 1.61.28a3.48 3.48 0 012.1 2.13c.2.52.3 1.11.3 1.78 0 .33-.03.56-.1.68-.08.12-.22.17-.42.17h-5.71zm17 4.34h-2.14a.6.6 0 01-.4-.13c-.09-.08-.17-.17-.24-.28l-1.95-3.22-.1.3-.13.24-1.73 2.68c-.07.1-.15.2-.24.28a.53.53 0 01-.36.13h-2l3.17-4.76-3.04-4.47h2.14a.7.7 0 01.36.07c.08.04.15.11.21.22l1.94 3.07c.06-.2.16-.4.27-.6l1.56-2.43c.13-.22.3-.33.52-.33h2.04l-3.03 4.37 3.15 4.86zm5.83-9.38a5 5 0 011.86.34 4.04 4.04 0 012.37 2.43c.22.6.32 1.25.32 1.98s-.1 1.39-.32 1.98a3.98 3.98 0 01-2.37 2.46 5 5 0 01-1.86.33 5.1 5.1 0 01-1.88-.34 4.07 4.07 0 01-2.38-2.45 5.71 5.71 0 01-.32-1.98c0-.73.1-1.39.32-1.98a4.13 4.13 0 012.38-2.44 5.1 5.1 0 011.88-.33zm0 7.8c.77 0 1.33-.25 1.7-.77.37-.51.56-1.27.56-2.27s-.19-1.75-.56-2.27c-.37-.52-.93-.79-1.7-.79-.78 0-1.36.27-1.74.8a3.88 3.88 0 00-.56 2.26c0 1 .19 1.75.56 2.27.38.52.96.78 1.74.78zm13.14 0v-5.95h-2.27c-.06.77-.13 1.47-.22 2.1-.1.61-.2 1.16-.32 1.65s-.25.91-.4 1.27c-.13.36-.28.67-.44.93h3.65zm3.85-.07v4.08c0 .2-.06.37-.18.49a.6.6 0 01-.45.18h-1.38v-3.1h-6.92v2.47a.7.7 0 01-.15.43c-.1.13-.25.2-.46.2h-1.4v-4.68h.26c.21 0 .41-.03.61-.08.2-.06.39-.18.57-.36.19-.18.36-.44.52-.78.17-.34.32-.8.45-1.36.13-.57.25-1.27.34-2.1.1-.82.19-1.81.25-2.97h6.25v7.58h1.7zm-100.9 23a1.24 1.24 0 011.04-.58h1.74l-2.15 3.43c-.15.24-.3.43-.46.58-.15.15-.34.26-.56.34.3.1.54.23.74.4.19.18.36.4.52.67l2.16 3.81h-1.54c-.4 0-.7-.06-.91-.2-.22-.13-.4-.32-.55-.56l-1.36-2.56a1.2 1.2 0 00-1.12-.66h-.84v3.98h-2.22v-9.23h2.22v3.8h.72c.25 0 .45-.04.6-.13.16-.1.3-.24.4-.43l1.57-2.66zM56.63 743c-.06.08-.13.15-.2.2-.06.05-.15.07-.27.07a.63.63 0 01-.33-.1l-.39-.23a2.52 2.52 0 00-1.3-.34c-.4 0-.73.07-1.03.21-.3.14-.54.34-.73.6-.2.27-.34.59-.44.97-.1.37-.14.8-.14 1.27 0 .49.05.93.15 1.31.11.38.26.7.46.97.2.26.44.46.72.6.28.13.6.2.96.2a2.4 2.4 0 001.4-.42c.16-.1.29-.2.4-.29a.6.6 0 01.37-.13c.18 0 .32.07.4.2l.65.81a4.14 4.14 0 01-2.66 1.44c-.32.05-.65.08-.97.08a3.86 3.86 0 01-2.93-1.25c-.38-.41-.68-.91-.9-1.5a5.9 5.9 0 01-.33-2.02c0-.68.1-1.3.29-1.88.2-.59.49-1.09.86-1.5.38-.43.85-.77 1.4-1 .57-.25 1.2-.37 1.93-.37a4.42 4.42 0 013.21 1.29l-.58.81zm11.64 7.28h-2.22v-7.53h-2.27a25.66 25.66 0 01-.34 2.93c-.15.82-.33 1.51-.54 2.08-.2.57-.43 1.03-.69 1.38-.25.34-.52.6-.8.8-.3.2-.6.32-.9.38-.3.06-.61.1-.93.1-.33 0-.57-.03-.73-.1-.15-.05-.22-.13-.22-.23v-1.38h.53c.2 0 .4-.03.6-.1.2-.05.38-.18.57-.36.19-.19.36-.45.53-.8.17-.34.32-.8.46-1.36.14-.57.27-1.27.38-2.1.1-.81.2-1.8.25-2.94h6.32v9.23zm9.14-5.68c0-.29-.04-.56-.13-.8-.08-.27-.2-.5-.36-.68-.16-.2-.37-.35-.62-.45a2.04 2.04 0 00-.86-.17c-.65 0-1.15.18-1.52.54-.37.37-.6.89-.7 1.56h4.19zm-4.24 1.34c.03.48.12.89.25 1.24.13.34.3.62.52.85.22.22.47.4.77.5.3.11.63.17.99.17s.67-.05.92-.13c.27-.08.5-.18.69-.28l.51-.28c.15-.08.3-.12.43-.12.19 0 .33.07.42.2l.64.81a3.8 3.8 0 01-1.8 1.2 7.19 7.19 0 01-2.02.31 5 5 0 01-1.78-.3 4.09 4.09 0 01-2.4-2.5 6.03 6.03 0 01-.05-3.92 4.16 4.16 0 012.27-2.43 4.63 4.63 0 011.86-.36c.58 0 1.12.1 1.61.28a3.48 3.48 0 012.1 2.13c.2.52.3 1.11.3 1.78 0 .33-.03.56-.1.68s-.21.17-.42.17h-5.71zm15.02 2.76v-5.95h-2.26c-.06.77-.14 1.47-.23 2.1-.09.61-.2 1.16-.31 1.65-.12.49-.26.91-.4 1.27s-.29.67-.45.93h3.65zm3.86-.07v4.08c0 .2-.06.37-.18.49a.6.6 0 01-.45.18h-1.39v-3.1h-6.91v2.47a.7.7 0 01-.15.43c-.1.13-.25.2-.46.2h-1.4v-4.68h.25c.21 0 .42-.03.62-.08.2-.06.38-.18.56-.36.19-.18.36-.44.52-.78.17-.34.32-.8.45-1.36.14-.57.25-1.27.35-2.1.1-.82.18-1.81.24-2.97h6.25v7.58h1.7zm10.3-7.58L97.3 752.8a.8.8 0 01-.26.35c-.1.08-.26.13-.48.13h-1.65l1.73-3.71-3.74-8.54h1.95c.18 0 .31.04.4.12.11.09.19.18.23.3l1.97 4.78a11.91 11.91 0 01.3.98 48.45 48.45 0 01.33-.99l1.86-4.78a.65.65 0 01.61-.41h1.78zm10.44 7.66c.72 0 1.25-.26 1.6-.78.33-.51.5-1.27.5-2.27s-.17-1.75-.5-2.27c-.35-.52-.88-.79-1.6-.79-.72 0-1.25.27-1.6.8a4.15 4.15 0 00-.5 2.26c0 1 .16 1.76.5 2.27.34.52.87.78 1.6.78zm-4.28-3.9c.07-.6.22-1.15.45-1.63a3.82 3.82 0 012.19-2c.5-.19 1.04-.28 1.64-.28.67 0 1.27.11 1.8.34a3.93 3.93 0 012.29 2.43c.2.6.31 1.25.31 1.98s-.1 1.39-.32 1.98a3.96 3.96 0 01-2.3 2.46c-.55.21-1.14.33-1.78.33-.62 0-1.19-.1-1.7-.28a3.77 3.77 0 01-2.17-2.07 5.37 5.37 0 01-.42-1.69h-1.83v3.9h-2.22v-9.23h2.22v3.76h1.84zm25.83 3.82v4.08c0 .2-.06.37-.18.49a.6.6 0 01-.45.18h-1.39v-3.1h-12.44v-9.23h2.22v7.58h3.05v-7.58h2.22v7.58h3.06v-7.58h2.22v7.58h1.7zm8.2-4.03c0-.29-.04-.56-.12-.8-.08-.27-.2-.5-.36-.68-.17-.2-.37-.35-.63-.45a2.04 2.04 0 00-.86-.17c-.64 0-1.15.18-1.52.54-.37.37-.6.89-.7 1.56h4.2zm-4.24 1.34c.04.48.12.89.25 1.24.14.34.31.62.53.85.21.22.47.4.76.5.3.11.63.17 1 .17.35 0 .66-.05.92-.13s.5-.18.68-.28l.52-.28c.15-.08.29-.12.43-.12.18 0 .32.07.41.2l.64.81a3.8 3.8 0 01-1.79 1.2 7.19 7.19 0 01-2.02.31 5 5 0 01-1.79-.3 4.09 4.09 0 01-2.4-2.5 6.03 6.03 0 01-.04-3.92 4.16 4.16 0 012.27-2.43 4.63 4.63 0 011.86-.36c.58 0 1.12.1 1.6.28a3.48 3.48 0 012.1 2.13c.2.52.31 1.11.31 1.78 0 .33-.04.56-.1.68-.08.12-.22.17-.42.17h-5.72zm19.61-4.91v9.25h-2v-5.15c0-.2 0-.44.02-.7.02-.27.06-.52.1-.75l-2.71 4.99a.66.66 0 01-.63.39h-.23a.66.66 0 01-.63-.39l-2.76-5.01a8.1 8.1 0 01.15 1.47v5.15h-2.01v-9.25h1.83c.16 0 .31.03.46.1.16.06.29.2.4.4l2.17 3.88a6.4 6.4 0 01.5 1.18l.23-.61c.08-.2.17-.4.27-.57l2.16-3.89a.8.8 0 01.39-.4c.14-.06.3-.1.45-.1h1.84zm11.59.02l-5.03 11.77a.8.8 0 01-.26.35c-.1.08-.26.13-.48.13h-1.66l1.73-3.71-3.73-8.54h1.95c.17 0 .3.04.4.12.1.09.18.18.23.3l1.96 4.78a11.91 11.91 0 01.3.98 48.45 48.45 0 01.34-.99l1.85-4.78a.65.65 0 01.61-.41h1.79zm-93.68 31.14c.42-.41.88-.73 1.4-.95a4.61 4.61 0 011.82-.34c.72 0 1.36.12 1.92.36a4.1 4.1 0 012.27 2.5c.2.58.3 1.2.3 1.89 0 .75-.11 1.43-.34 2.02a4.4 4.4 0 01-.89 1.5 3.86 3.86 0 01-2.93 1.25 6.8 6.8 0 01-.98-.08 4.7 4.7 0 01-1.85-.71c-.3-.2-.56-.44-.8-.73l.6-.74c.1-.13.23-.2.41-.2.09 0 .17.02.25.06a3.28 3.28 0 01.52.32c.1.07.22.13.35.19a3.1 3.1 0 001.08.2c.62 0 1.14-.21 1.55-.62.42-.41.67-1 .77-1.79h-3.92v-1.51h3.9a2.86 2.86 0 00-.77-1.63 2.14 2.14 0 00-1.58-.58 3.2 3.2 0 00-1.32.3l-.4.2a.68.68 0 01-.33.1.47.47 0 01-.28-.07 1.21 1.21 0 01-.19-.2l-.56-.74zm18.06.5h-3.3v7.6h-2.22v-7.6h-3.28v-1.64h8.8v1.64zm7.13 3.65c-.64.03-1.18.09-1.62.17a4.2 4.2 0 00-1.05.3c-.26.13-.45.28-.57.45a.96.96 0 00-.17.55c0 .39.12.67.35.83.23.17.53.25.9.25.46 0 .85-.08 1.18-.24.34-.17.67-.42.98-.75v-1.56zm-5.09-4a5.48 5.48 0 013.83-1.46c.54 0 1.03.09 1.45.27a2.99 2.99 0 011.75 1.86c.16.44.23.92.23 1.44v5.83h-1c-.22 0-.38-.03-.5-.09-.1-.06-.2-.2-.26-.39l-.2-.66c-.23.2-.46.4-.68.56a4.22 4.22 0 01-1.47.63 4.16 4.16 0 01-1.98-.06c-.33-.1-.61-.26-.85-.48a2.12 2.12 0 01-.56-.78 2.78 2.78 0 01-.08-1.78c.07-.23.2-.46.37-.67.18-.2.42-.4.7-.59a4.5 4.5 0 011.03-.49c.42-.13.9-.25 1.44-.33.55-.09 1.17-.14 1.87-.16v-.54c0-.62-.13-1.08-.4-1.37-.26-.3-.64-.45-1.13-.45a2.76 2.76 0 00-1.53.41l-.5.28a.95.95 0 01-.48.13.66.66 0 01-.4-.12c-.1-.08-.19-.18-.25-.29l-.4-.7zm18.4 7.94h-2.22v-7.59h-3.6v7.6h-2.22v-9.24h8.04v9.23zm11.6-9.23l-5.04 11.77a.8.8 0 01-.26.35c-.1.08-.26.13-.48.13h-1.65l1.73-3.71-3.74-8.54h1.95c.18 0 .31.04.4.12.11.09.19.18.23.3l1.97 4.78a11.91 11.91 0 01.3.98 48.45 48.45 0 01.34-.99l1.85-4.78a.65.65 0 01.61-.41h1.78z" fill="#5E78FF"/><path d="M101.14 660.2a84.25 84.25 0 1028.97 5.1" stroke="#5E78FF" stroke-width="2" stroke-dasharray="5.5 5.5"/><path d="M100.45 657.28l2.9 2.91-2.9 2.9" stroke="#5E78FF" stroke-width="2" stroke-linecap="round"/><path d="M83.18 81.32c0 .74-.13 1.43-.37 2.07a4.8 4.8 0 01-4.76 3.1 5.5 5.5 0 01-2.09-.38 4.84 4.84 0 01-2.67-2.72 5.64 5.64 0 01-.37-2.07c0-.74.13-1.43.37-2.06a4.76 4.76 0 012.67-2.72 5.58 5.58 0 014.79.3A4.67 4.67 0 0183 79.9c.11.45.17.92.17 1.41zm-1.93 0c0-.55-.07-1.05-.22-1.49a3.2 3.2 0 00-.64-1.13c-.27-.3-.61-.54-1-.7-.4-.17-.84-.25-1.34-.25-.5 0-.94.08-1.33.25a2.8 2.8 0 00-1.65 1.83c-.15.44-.22.94-.22 1.5 0 .55.07 1.05.22 1.49a2.84 2.84 0 001.64 1.82c.4.16.85.24 1.34.24.5 0 .94-.08 1.33-.24.4-.16.74-.4 1.01-.7.28-.3.49-.68.64-1.12.15-.44.22-.94.22-1.5zm11.77 3.78v3.17c0 .16-.05.29-.14.38-.1.1-.22.14-.36.14h-1.08v-2.4h-6V79.2h1.72v5.9h2.8v-5.9h1.73v5.9h1.33zm6.59-3.13c0-.23-.04-.44-.1-.63-.06-.2-.15-.38-.28-.53a1.28 1.28 0 00-.48-.35c-.2-.09-.42-.13-.68-.13-.5 0-.89.14-1.18.42a2.1 2.1 0 00-.54 1.22h3.26zM96.3 83c.03.37.1.69.2.96a2 2 0 00.4.66c.17.18.37.3.6.4.23.08.49.12.77.12s.52-.03.72-.1c.2-.06.38-.13.53-.21l.4-.22c.12-.07.23-.1.33-.1.15 0 .26.05.33.16l.5.63c-.2.23-.41.41-.65.57a3.83 3.83 0 01-1.54.55 5.6 5.6 0 01-.78.06c-.5 0-.96-.08-1.39-.25a3.18 3.18 0 01-1.87-1.94 4.69 4.69 0 01-.03-3.04 3.24 3.24 0 011.76-1.89 3.6 3.6 0 011.45-.28c.45 0 .87.07 1.25.22a2.7 2.7 0 011.63 1.65c.16.4.24.87.24 1.38 0 .27-.03.44-.08.54-.06.08-.17.13-.33.13h-4.44zm13.4-3.8v7.17H108V83.2h-2.8v3.18h-1.73V79.2h1.73v2.72h2.8V79.2h1.73zm7.01.45a.97.97 0 01.8-.46h1.36l-1.67 2.67c-.12.18-.23.34-.36.45-.12.11-.27.2-.44.27.24.07.43.17.58.31.15.14.28.31.4.52l1.68 2.96h-1.2c-.3 0-.53-.05-.7-.15a1.3 1.3 0 01-.43-.44l-1.06-1.99a.93.93 0 00-.87-.51h-.65v3.1h-1.73V79.2h1.73v2.96h.56a.9.9 0 00.47-.1.9.9 0 00.3-.34l1.23-2.06zm8.1 3.66c-.5.02-.91.06-1.25.13-.35.06-.62.14-.82.24-.2.1-.36.21-.44.34a.74.74 0 00-.14.43c0 .3.1.52.27.65.18.13.42.2.7.2.36 0 .67-.07.92-.2.26-.12.52-.32.77-.58v-1.21zm-3.96-3.12a4.26 4.26 0 012.98-1.13c.42 0 .8.07 1.13.2a2.33 2.33 0 011.36 1.46c.12.34.18.71.18 1.12v4.53h-.78a.83.83 0 01-.38-.07c-.09-.05-.16-.15-.21-.3l-.15-.52c-.19.17-.36.31-.54.44a3.27 3.27 0 01-1.14.5 3.23 3.23 0 01-1.54-.05c-.25-.09-.47-.21-.66-.38a1.65 1.65 0 01-.44-.6 2.15 2.15 0 01-.06-1.39c.06-.18.16-.35.3-.52.14-.16.31-.32.53-.46.22-.14.5-.27.8-.38a10.73 10.73 0 012.58-.38v-.42c0-.48-.1-.84-.3-1.07-.2-.23-.5-.35-.9-.35a2.15 2.15 0 00-1.18.32l-.38.22a.74.74 0 01-.38.1.51.51 0 01-.3-.1.83.83 0 01-.2-.22l-.32-.55z" fill="#5E78FF"/><circle cx="99.84" cy="42.82" r="21.24" fill="#5E78FF"/><path d="M110.8 43.04v-.22a10.9 10.9 0 00-.6-3.62 10.97 10.97 0 00-21.31 3.61c-.01 6.05 4.9 10.97 10.95 10.97 5.95 0 10.8-4.77 10.96-10.68v-.06zM104 46.18l5.13-5.13c.1.56.16 1.12.17 1.7l-4.36 4.36-.94-.93zm-3.67-8.3c.01 0 .02 0 .03-.02l3.49-3.48c.03-.03.04-.07.06-.1.42.2.83.42 1.21.69l-4.79 4.8v-1.89zm0-2.1v-2.4c.71.03 1.4.14 2.07.33l-2.07 2.07zm.03 6.07l5.93-5.93c.33.3.63.62.91.96l-6.25 6.25-.62-.62v-.64l.03-.02zm7.7-3.71c.23.4.43.83.6 1.27l-5.71 5.71-.94-.93 6.05-6.05zm-17.7 4.68c0-4.9 3.72-8.92 8.48-9.42v9.42c0 .2.08.39.21.52l6.8 6.8a9.47 9.47 0 01-15.48-7.31zm16.55 6.27l-.91-.92 2.99-3a9.46 9.46 0 01-2.08 3.92z" fill="#fff"/><path d="M99.84 106.27v22.42" stroke="#5E78FF" stroke-width="2"/><path d="M102.76 126.45l-2.92 2.91-2.91-2.9" stroke="#5E78FF" stroke-width="2" stroke-linecap="round"/><path d="M99.84 251.62v22.41" stroke="#5E78FF" stroke-width="2"/><path d="M102.76 271.8l-2.92 2.9-2.91-2.9" stroke="#5E78FF" stroke-width="2" stroke-linecap="round"/><path d="M99.84 379.78v22.4" stroke="#5E78FF" stroke-width="2"/><path d="M102.76 399.95l-2.92 2.91-2.91-2.9" stroke="#5E78FF" stroke-width="2" stroke-linecap="round"/><path d="M64.61 214.62h-1.9v-8.67h-4.39v8.67h-1.89V204.5h8.18v10.12zm4.6-1.86c.2.24.4.4.64.5a1.93 1.93 0 001.46 0c.2-.1.39-.24.53-.44.15-.2.26-.46.34-.76.08-.3.12-.67.12-1.08 0-.42-.03-.78-.1-1.07-.07-.3-.16-.53-.29-.71a1.14 1.14 0 00-.46-.4 1.4 1.4 0 00-.61-.13c-.36 0-.66.08-.92.23a2.7 2.7 0 00-.71.64v3.22zm-.1-4.34c.3-.33.64-.6 1-.8a2.68 2.68 0 012.4-.07c.32.17.6.4.84.72.23.3.42.69.54 1.14a5.64 5.64 0 01-.02 3.06c-.14.45-.35.85-.62 1.19-.27.33-.6.6-.97.79-.38.18-.8.28-1.28.28-.4 0-.74-.06-1.03-.18-.28-.13-.54-.3-.76-.52v2.94h-1.73v-9.53h1.06c.22 0 .37.1.44.32l.14.66zm11.94 1.79c0-.23-.03-.44-.1-.63-.06-.2-.15-.38-.28-.53a1.27 1.27 0 00-.48-.35c-.2-.09-.42-.13-.67-.13-.5 0-.9.14-1.19.43a2.1 2.1 0 00-.54 1.2h3.26zm-3.3 1.04c.03.37.1.69.2.96a2 2 0 00.4.66c.17.17.37.3.6.4.23.08.5.12.77.12.28 0 .52-.03.72-.1.2-.06.38-.13.53-.21l.4-.22c.12-.07.23-.1.34-.1.14 0 .25.05.32.16l.5.63a2.96 2.96 0 01-1.4.93 4.26 4.26 0 01-1.56.25c-.5 0-.97-.08-1.4-.25a3.18 3.18 0 01-1.87-1.94 4.69 4.69 0 01-.03-3.04 3.23 3.23 0 011.76-1.89 3.6 3.6 0 011.45-.28c.46 0 .87.07 1.26.22a2.7 2.7 0 011.63 1.66c.16.4.23.86.23 1.37 0 .26-.02.44-.08.54-.06.08-.16.13-.32.13h-4.45zm11.91 2.14v-4.63H87.9c-.05.6-.1 1.15-.18 1.64-.07.47-.15.9-.24 1.28a7.55 7.55 0 01-.66 1.71h2.84zm3-.05v3.17c0 .16-.05.29-.14.38-.09.1-.2.14-.35.14h-1.08v-2.4h-5.38v1.91c0 .12-.03.23-.11.34-.08.1-.2.15-.36.15h-1.1v-3.64h.21c.16 0 .32-.02.48-.06.15-.05.3-.14.44-.28s.28-.34.4-.6c.13-.27.25-.62.35-1.06.1-.44.2-.99.27-1.63.08-.65.14-1.42.19-2.32h4.86v5.9h1.32zm5.14-6.01c.53 0 1.02.08 1.45.26a3.12 3.12 0 011.84 1.9c.17.45.25.96.25 1.53 0 .57-.08 1.08-.25 1.54a3.1 3.1 0 01-1.84 1.91 3.9 3.9 0 01-1.45.26c-.53 0-1.02-.09-1.46-.26a3.17 3.17 0 01-1.85-1.91 4.45 4.45 0 01-.25-1.54c0-.57.08-1.08.25-1.53.17-.46.41-.85.72-1.17a3.2 3.2 0 011.13-.73c.44-.18.93-.26 1.46-.26zm0 6.07c.6 0 1.04-.2 1.33-.6a3 3 0 00.43-1.77c0-.77-.14-1.36-.43-1.77-.29-.4-.73-.6-1.33-.6-.6 0-1.05.2-1.35.6-.29.41-.43 1-.43 1.77s.14 1.36.43 1.77c.3.4.75.6 1.35.6zm12.12 1.22h-1.73v-5.9h-2.8v5.9h-1.73v-7.18h6.26v7.18zm9.38 0h-1.73v-5.86h-1.76c-.06.89-.15 1.65-.26 2.29-.12.63-.26 1.17-.42 1.61-.16.45-.34.8-.54 1.07s-.4.48-.63.63c-.23.15-.46.24-.7.3-.23.04-.47.07-.72.07a1.7 1.7 0 01-.56-.07c-.12-.04-.18-.1-.18-.18v-1.08h.42c.15 0 .3-.03.46-.07.15-.05.3-.15.44-.29.15-.14.29-.35.42-.61.13-.28.25-.63.35-1.07.12-.44.22-.98.3-1.62.08-.64.15-1.4.2-2.3h4.9v7.18zm6.5-3.06c-.5.02-.92.06-1.26.13-.35.06-.62.14-.82.24-.2.1-.36.21-.44.34a.74.74 0 00-.14.43c0 .3.1.52.27.65.18.13.42.2.7.2a2.06 2.06 0 001.69-.78v-1.21zm-3.97-3.12a4.26 4.26 0 012.99-1.13c.42 0 .8.07 1.12.2a2.32 2.32 0 011.36 1.46c.12.34.18.71.18 1.12v4.53h-.78a.83.83 0 01-.38-.07c-.09-.05-.16-.15-.2-.3l-.16-.52a3.34 3.34 0 01-1.07.74 3.28 3.28 0 01-2.14.14 1.65 1.65 0 01-1.1-.98 2.16 2.16 0 01-.07-1.38c.06-.18.16-.35.3-.52.14-.16.31-.32.54-.46.21-.15.48-.27.8-.38a10.71 10.71 0 012.58-.38v-.42c0-.48-.1-.84-.31-1.07-.2-.23-.5-.35-.9-.35a2.12 2.12 0 00-1.17.33l-.39.21a.74.74 0 01-.38.1.52.52 0 01-.3-.1.84.84 0 01-.2-.22l-.32-.55zm14.32.28h-2.56v5.9h-1.73v-5.9h-2.56v-1.28h6.85v1.28zm5.77 2.84c-.5.02-.92.06-1.26.13-.34.06-.62.14-.82.24-.2.1-.35.21-.44.34a.74.74 0 00-.13.43c0 .3.08.52.26.65s.42.2.7.2a2.06 2.06 0 001.69-.78v-1.21zm-3.96-3.12a4.26 4.26 0 012.98-1.13c.42 0 .8.07 1.13.2a2.32 2.32 0 011.35 1.46c.13.34.19.71.19 1.12v4.53h-.79a.83.83 0 01-.38-.07c-.09-.05-.16-.15-.2-.3l-.16-.52a3.34 3.34 0 01-1.07.74 3.28 3.28 0 01-2.14.14 1.65 1.65 0 01-1.1-.98 2.16 2.16 0 01-.06-1.38c.05-.18.15-.35.29-.52.14-.16.32-.32.54-.46.22-.15.49-.27.8-.38a10.71 10.71 0 012.58-.38v-.42c0-.48-.1-.84-.3-1.07-.22-.23-.51-.35-.9-.35a2.12 2.12 0 00-1.18.33l-.39.21a.74.74 0 01-.37.1.52.52 0 01-.31-.1.84.84 0 01-.2-.22l-.31-.55zm-50.29 21.89v1.3h-5.6v-1.3h2.05v-5.9c0-.24 0-.48.02-.72l-1.45 1.21a.65.65 0 01-.26.13.64.64 0 01-.42-.07.45.45 0 01-.12-.12l-.55-.75 3.09-2.62h1.42v8.84h1.82zm9.65-3.77c0 .88-.1 1.65-.3 2.3a4.64 4.64 0 01-.77 1.61 3.17 3.17 0 01-2.66 1.27 3.2 3.2 0 01-2.64-1.26 4.71 4.71 0 01-.77-1.62 8.43 8.43 0 01-.28-2.3c0-.88.09-1.65.28-2.3a4.7 4.7 0 01.77-1.61c.33-.43.72-.74 1.17-.95.45-.2.94-.31 1.47-.31s1.02.1 1.47.31c.46.2.85.52 1.19.95.33.42.6.96.78 1.6.2.66.29 1.43.29 2.31zm-1.79 0c0-.73-.05-1.34-.16-1.82a3.6 3.6 0 00-.43-1.15 1.52 1.52 0 00-1.35-.77 1.54 1.54 0 00-1.33.77c-.18.29-.32.67-.42 1.15-.1.48-.16 1.09-.16 1.82s.05 1.34.16 1.82c.1.48.24.87.42 1.15.18.28.38.48.61.6a1.65 1.65 0 001.45 0c.23-.12.44-.32.62-.6.18-.28.32-.67.43-1.15.1-.48.16-1.09.16-1.82zm10.9 0c0 .88-.09 1.65-.28 2.3a4.63 4.63 0 01-.78 1.61 3.17 3.17 0 01-2.66 1.27 3.21 3.21 0 01-2.64-1.26 4.72 4.72 0 01-.77-1.62 8.43 8.43 0 01-.28-2.3c0-.88.1-1.65.28-2.3a4.7 4.7 0 01.77-1.61c.34-.43.73-.74 1.17-.95.46-.2.95-.31 1.47-.31.53 0 1.02.1 1.47.31.46.2.85.52 1.19.95.33.42.6.96.78 1.6.2.66.29 1.43.29 2.31zm-1.78 0a8.5 8.5 0 00-.16-1.82c-.1-.48-.25-.86-.43-1.15a1.51 1.51 0 00-1.35-.77 1.54 1.54 0 00-1.33.77c-.17.29-.32.67-.42 1.15-.1.48-.16 1.09-.16 1.82s.05 1.34.16 1.82c.1.48.25.87.42 1.15.18.28.38.48.61.6a1.65 1.65 0 001.45 0c.23-.12.44-.32.62-.6.18-.28.32-.67.43-1.15.1-.48.16-1.09.16-1.82zm8.35-2.6a2.62 2.62 0 01-.7 1.82 2.27 2.27 0 01-1.64.67 2.2 2.2 0 01-1.67-.67c-.21-.22-.37-.49-.49-.8-.11-.3-.17-.65-.17-1.03 0-.4.06-.75.17-1.06a2.13 2.13 0 011.23-1.3 2.34 2.34 0 012.61.5c.2.21.37.48.49.8.11.31.17.67.17 1.06zm-1.33 0c0-.28-.03-.5-.08-.69a1.17 1.17 0 00-.22-.44.72.72 0 00-.32-.24.98.98 0 00-.4-.07.99.99 0 00-.38.07.74.74 0 00-.32.24c-.08.11-.15.26-.2.44-.05.18-.08.41-.08.68 0 .26.03.48.08.66.05.17.12.31.2.42.09.1.2.18.32.23a1.1 1.1 0 00.78 0 .75.75 0 00.32-.23c.1-.1.17-.25.22-.42.05-.18.08-.4.08-.66zm4.7-2.19c.06-.07.13-.13.21-.19.08-.05.2-.08.35-.08h1.26l-7.52 9.86a.86.86 0 01-.22.2.63.63 0 01-.3.06h-1.3l7.52-9.85zm2.35 7.47a2.62 2.62 0 01-.7 1.83 2.36 2.36 0 01-1.64.68 2.3 2.3 0 01-1.67-.68c-.21-.22-.37-.48-.49-.8-.11-.3-.17-.65-.17-1.03 0-.39.06-.74.17-1.06a2.13 2.13 0 011.22-1.3 2.34 2.34 0 012.6.5c.22.21.38.48.5.8.12.32.18.67.18 1.06zm-1.33 0c0-.27-.03-.5-.08-.68a1.17 1.17 0 00-.22-.44.72.72 0 00-.32-.24.98.98 0 00-.4-.07.99.99 0 00-.39.07.74.74 0 00-.31.24c-.09.12-.16.26-.21.44-.05.19-.07.41-.07.68 0 .26.02.48.07.66.05.18.12.32.21.43.09.1.2.18.31.23a1.1 1.1 0 00.79 0 .75.75 0 00.32-.23c.1-.11.17-.25.22-.43.05-.18.08-.4.08-.66z" fill="#5E78FF"/><circle cx="99.84" cy="171.36" r="21.24" fill="#5E78FF"/><path d="M99.84 173.76a.88.88 0 01-.62-1.5.9.9 0 011.24 0c.16.16.26.38.26.62a.75.75 0 101.5 0 2.38 2.38 0 00-1.86-2.31l-.02-.46a.75.75 0 10-1.5 0v.62a2.37 2.37 0 001 4.51 1.05 1.05 0 011.06 1.06 1.05 1.05 0 01-.81 1.03h-.47a1.05 1.05 0 01-.83-1.13.75.75 0 00-1.48-.15 2.53 2.53 0 001.55 2.6.75.75 0 001.44.16 2.54 2.54 0 00-.46-5.05z" fill="#fff"/><path d="M109.21 178.56c-.2-2.24-1.17-9.43-5.5-12.13l.02-.03 1.5-3.98a1.49 1.49 0 00-1.4-2.02h-7.97a1.5 1.5 0 00-1.4 2.02l1.5 3.98v.03c-4.32 2.7-5.29 9.89-5.48 12.13a3.5 3.5 0 003.48 3.77h11.77a3.5 3.5 0 003.48-3.77zM95.86 161.9h7.97l-1.5 3.98h-4.98l-1.5-3.98zm9.87 18.93H93.95c-1.16 0-2.09-.99-1.98-2.14.36-4.15 1.87-9.7 5.38-11.31h4.98c3.52 1.61 5.03 7.16 5.39 11.3a1.98 1.98 0 01-1.99 2.15z" fill="#fff"/><path d="M62.3 355.43c.35 0 .65-.04.9-.13.26-.09.48-.21.64-.37.18-.16.3-.36.39-.59a2.28 2.28 0 000-1.5c-.08-.23-.21-.41-.38-.57a1.64 1.64 0 00-.63-.35 2.94 2.94 0 00-.91-.13H60.9v3.64h1.4zm0-5.1c.68 0 1.27.09 1.76.25.5.16.9.38 1.23.66.32.29.56.63.71 1.02a3.63 3.63 0 010 2.65c-.17.41-.41.76-.74 1.06-.33.3-.74.52-1.23.68-.5.17-1.07.25-1.73.25h-1.4v3.56h-1.88v-10.12h3.28zM72 357.4c-.5.03-.92.07-1.26.14-.35.06-.62.14-.82.24-.2.1-.36.2-.44.34a.75.75 0 00-.14.43c0 .3.1.52.27.65.18.13.42.2.7.2.36 0 .67-.07.92-.2.26-.13.52-.32.77-.58v-1.22zm-3.97-3.11a4.26 4.26 0 012.99-1.13c.42 0 .8.07 1.12.2a2.32 2.32 0 011.36 1.45c.12.35.18.72.18 1.13v4.53h-.78a.82.82 0 01-.38-.07c-.09-.05-.16-.15-.21-.3l-.15-.52c-.19.17-.36.31-.54.44a3.3 3.3 0 01-1.14.5 3.21 3.21 0 01-1.54-.06 1.9 1.9 0 01-.66-.37 1.64 1.64 0 01-.44-.6 2.16 2.16 0 01-.06-1.4c.06-.17.16-.35.3-.51.14-.16.31-.32.53-.46.22-.15.5-.27.8-.38a10.72 10.72 0 012.58-.38v-.43c0-.48-.1-.83-.3-1.06-.2-.23-.5-.35-.9-.35a2.15 2.15 0 00-1.17.32l-.39.22a.74.74 0 01-.38.1.51.51 0 01-.3-.1.83.83 0 01-.2-.22l-.32-.55zm7.86-.22c.27-.26.6-.48 1-.64.41-.17.9-.25 1.45-.25a4 4 0 011.18.16c.35.1.64.24.87.43.24.17.42.38.54.61a1.47 1.47 0 01.13 1.15 1.64 1.64 0 01-.55.82c-.16.12-.34.22-.56.3.4.15.7.37.95.66.24.29.36.64.36 1.07 0 .35-.08.66-.25.93-.15.27-.37.5-.63.7a3 3 0 01-.92.42 3.8 3.8 0 01-3.13-.46 2.97 2.97 0 01-.62-.57l.5-.63c.07-.1.17-.16.31-.16.1 0 .21.03.3.1l.34.23a1.95 1.95 0 001.13.32c.44 0 .76-.1.99-.3.22-.19.33-.44.33-.73a.78.78 0 00-.35-.68c-.22-.16-.6-.24-1.12-.24h-.8v-1.13h.8c.46 0 .8-.08 1.05-.24a.72.72 0 00.36-.63.7.7 0 00-.32-.59 1.58 1.58 0 00-.94-.23 2.25 2.25 0 00-1.08.25 3.1 3.1 0 00-.3.16.45.45 0 01-.44.03.61.61 0 01-.19-.2l-.39-.66zm9.45 4.54c.2.24.41.4.64.5a1.93 1.93 0 001.46 0c.21-.1.39-.24.53-.45.15-.2.27-.45.35-.75.08-.3.12-.67.12-1.09 0-.42-.04-.77-.1-1.06-.07-.3-.17-.53-.3-.71a1.14 1.14 0 00-.46-.4 1.4 1.4 0 00-.6-.13c-.37 0-.67.08-.92.23-.26.15-.5.36-.72.64v3.22zm-.09-4.34c.3-.33.63-.6 1-.8a2.7 2.7 0 012.39-.07c.33.16.6.4.84.72.24.3.42.69.55 1.14a5.64 5.64 0 01-.03 3.06c-.14.45-.35.85-.62 1.19-.26.33-.59.6-.97.79-.38.18-.8.28-1.28.28-.4 0-.74-.06-1.02-.19-.29-.12-.54-.3-.77-.51v2.94H83.6v-9.53h1.06c.22 0 .37.1.44.31l.14.67zm11.1 3.13c-.5.03-.92.07-1.26.14-.34.06-.61.14-.82.24-.2.1-.35.2-.44.34a.75.75 0 00-.13.43c0 .3.09.52.26.65.19.13.42.2.71.2.36 0 .66-.07.92-.2s.51-.32.76-.58v-1.22zm-3.96-3.11a4.26 4.26 0 012.98-1.13c.42 0 .8.07 1.13.2a2.32 2.32 0 011.36 1.45c.12.35.18.72.18 1.13v4.53h-.79a.82.82 0 01-.37-.07c-.1-.05-.16-.15-.21-.3l-.16-.52c-.18.17-.36.31-.53.44a3.3 3.3 0 01-1.14.5 3.21 3.21 0 01-1.54-.06 1.9 1.9 0 01-.67-.37 1.64 1.64 0 01-.43-.6 2.16 2.16 0 01-.06-1.4c.06-.17.16-.35.3-.51.13-.16.31-.32.53-.46.22-.15.49-.27.8-.38a10.72 10.72 0 012.58-.38v-.43c0-.48-.1-.83-.3-1.06-.21-.23-.5-.35-.9-.35a2.15 2.15 0 00-1.18.32l-.38.22a.74.74 0 01-.38.1.51.51 0 01-.31-.1.83.83 0 01-.2-.22l-.31-.55zm11.65 5.03c.6 0 1.04-.2 1.34-.58.3-.38.44-.94.44-1.68 0-.73-.15-1.29-.44-1.67-.28-.38-.72-.57-1.3-.57-.6 0-1.04.18-1.35.54-.3.36-.46.9-.46 1.62 0 .76.14 1.34.43 1.74.3.4.74.6 1.34.6zm.5-7.33c-.44.02-.81.11-1.12.26-.31.14-.57.33-.77.57-.2.24-.36.52-.47.86-.1.33-.16.7-.18 1.1a2.71 2.71 0 011-.89 3.1 3.1 0 011.5-.34c.48 0 .9.08 1.29.25.38.17.7.4.97.71.27.31.48.68.62 1.12a4.44 4.44 0 01-.04 2.89 3.12 3.12 0 01-1.84 1.81 4.15 4.15 0 01-2.9 0 2.75 2.75 0 01-1.12-.82 4.03 4.03 0 01-.74-1.48 9.75 9.75 0 01-.06-4.26c.13-.63.35-1.18.66-1.65.3-.48.71-.86 1.2-1.15a4.3 4.3 0 011.86-.52l2.55-.2.1.9c.01.2-.02.36-.1.5-.07.13-.2.2-.39.2l-2.02.14zm8.58 1.19c.53 0 1.01.08 1.45.26a3.16 3.16 0 011.84 1.9c.16.45.25.96.25 1.53 0 .56-.09 1.08-.25 1.54-.17.45-.41.84-.73 1.17-.3.32-.68.56-1.11.74-.44.17-.92.26-1.45.26-.54 0-1.03-.09-1.47-.26a3.16 3.16 0 01-1.84-1.91 4.44 4.44 0 01-.26-1.54c0-.57.09-1.08.25-1.54a3.21 3.21 0 011.85-1.9c.44-.17.93-.25 1.47-.25zm0 6.07c.6 0 1.03-.2 1.32-.6a3 3 0 00.43-1.77c0-.77-.14-1.37-.43-1.77-.29-.4-.73-.61-1.32-.61-.61 0-1.06.2-1.36.62-.28.4-.43.99-.43 1.76s.15 1.36.44 1.76c.29.4.74.6 1.35.6zm11.81-4.68h-2.56v5.9h-1.73v-5.9h-2.55v-1.28h6.84v1.28zm6.31-.83a.98.98 0 01.8-.45h1.36l-1.67 2.67c-.12.18-.23.33-.36.45-.12.11-.27.2-.44.27.24.07.43.17.58.31.15.14.28.31.4.52l1.68 2.96h-1.2c-.3 0-.53-.05-.7-.15a1.3 1.3 0 01-.43-.44l-1.06-2a.93.93 0 00-.87-.5h-.65v3.1h-1.73v-7.2h1.73v2.97h.56a.9.9 0 00.47-.1.9.9 0 00.3-.34l1.23-2.07zm8.1 3.66c-.5.03-.92.07-1.26.14-.34.06-.6.14-.81.24-.21.1-.36.2-.44.34a.74.74 0 00-.14.43c0 .3.09.52.27.65.18.13.42.2.7.2a2.06 2.06 0 001.69-.78v-1.22zm-3.96-3.11a4.26 4.26 0 012.98-1.13c.43 0 .8.07 1.13.2a2.33 2.33 0 011.36 1.45c.12.35.18.72.18 1.13v4.53h-.78a.82.82 0 01-.38-.07c-.09-.05-.16-.15-.21-.3l-.15-.52c-.19.17-.36.31-.54.44a2.76 2.76 0 01-1.14.5 3.22 3.22 0 01-1.54-.06c-.25-.08-.48-.2-.66-.37a1.63 1.63 0 01-.44-.6 2.16 2.16 0 01-.06-1.4c.06-.17.16-.35.3-.51.14-.16.31-.32.53-.46.22-.15.5-.27.8-.38a10.71 10.71 0 012.58-.38v-.43c0-.48-.1-.83-.3-1.06-.2-.23-.5-.35-.9-.35a2.15 2.15 0 00-1.17.32l-.39.22a.74.74 0 01-.38.1.5.5 0 01-.3-.1.83.83 0 01-.2-.22l-.32-.55z" fill="#5E78FF"/><circle cx="99.84" cy="316.2" r="21.24" fill="#5E78FF"/><path d="M99.84 313.7a2.5 2.5 0 110 5 2.5 2.5 0 010-5zm0-1.49a4 4 0 10.01 7.99 4 4 0 000-7.99z" fill="#fff"/><path d="M101.34 306.73v1.64c1.09.21 2.1.63 2.98 1.24l1.16-1.16 2.11 2.12-1.16 1.15c.6.88 1.03 1.9 1.24 2.98h1.64v3h-1.64a7.93 7.93 0 01-1.24 2.98l1.16 1.15-2.11 2.12-1.16-1.16c-.88.6-1.9 1.03-2.98 1.24v1.64h-3v-1.64a7.93 7.93 0 01-2.98-1.24l-1.15 1.16-2.12-2.12 1.16-1.15a7.92 7.92 0 01-1.24-2.99h-1.63v-2.99H92c.21-1.09.64-2.1 1.24-2.98l-1.16-1.16 2.12-2.1 1.15 1.15c.88-.6 1.9-1.03 2.99-1.24v-1.64h2.99zm0-1.5h-3c-.82 0-1.49.68-1.49 1.5v.49a9.4 9.4 0 00-1.25.51l-.34-.34a1.48 1.48 0 00-2.11 0l-2.12 2.11a1.5 1.5 0 000 2.12l.35.34c-.2.4-.38.82-.52 1.25h-.48c-.83 0-1.5.67-1.5 1.5v2.99c0 .82.67 1.49 1.5 1.49h.48c.14.43.31.85.51 1.25l-.34.34a1.5 1.5 0 000 2.12l2.11 2.1a1.48 1.48 0 002.11 0l.35-.33c.4.2.81.37 1.25.5v.5c0 .82.67 1.5 1.5 1.5h2.98c.83 0 1.5-.68 1.5-1.5v-.49c.42-.14.84-.31 1.25-.51l.34.34a1.48 1.48 0 002.11 0l2.12-2.1a1.5 1.5 0 000-2.12l-.35-.35c.2-.4.38-.81.52-1.25h.49c.83 0 1.5-.66 1.5-1.49v-2.99c0-.83-.67-1.5-1.5-1.5h-.48a9.38 9.38 0 00-.52-1.25l.35-.34a1.5 1.5 0 000-2.11l-2.12-2.11a1.48 1.48 0 00-2.1 0l-.35.34c-.41-.21-.83-.38-1.26-.52v-.49c0-.82-.67-1.5-1.5-1.5z" fill="#fff"/><path d="M93.07 484.33l-1.23-3.37a7.17 7.17 0 01-.38-1.2 13.52 13.52 0 01-.38 1.22l-1.23 3.35h3.22zm3.33 3.82h-1.46a.63.63 0 01-.4-.11.78.78 0 01-.23-.31l-.75-2.07h-4.2l-.75 2.07c-.04.1-.11.2-.22.3a.61.61 0 01-.4.12h-1.47l3.98-10.12h1.92l3.98 10.12zm6.03-6.72a.98.98 0 01.8-.46h1.36l-1.67 2.67a2.3 2.3 0 01-.36.45c-.12.12-.27.2-.44.27.24.07.43.18.58.31.15.14.28.31.4.52l1.68 2.96h-1.2c-.3 0-.53-.05-.7-.15-.17-.1-.31-.25-.43-.44l-1.06-1.99a.94.94 0 00-.87-.51h-.65v3.1h-1.73v-7.19h1.73v2.96h.56a.9.9 0 00.47-.1.89.89 0 00.3-.34l1.23-2.06zm10.47.82h-2.56v5.9h-1.73v-5.9h-2.55v-1.28h6.84v1.28z" fill="#5E78FF"/><circle cx="99.84" cy="444.94" r="21.24" fill="#5E78FF"/><path d="M108.2 433.98H96.18c-.56 0-1.05.3-1.33.74l-4.2 4.2c-.44.27-.74.76-.74 1.32v14.1c0 .86.7 1.56 1.57 1.56h16.7c.87 0 1.57-.7 1.57-1.56v-18.8c0-.86-.7-1.56-1.57-1.56zm-13.58 3.2v1.5h-1.5l1.5-1.5zm13.57 17.15H91.5V440.3c.01 0 .02 0 .03-.02l.03-.03h4.64v-4.63l.03-.04.02-.03h11.95v18.8z" fill="#fff"/><path d="M105.06 445.98H94.62a.78.78 0 100 1.57h10.44a.78.78 0 100-1.57zM103.5 449.64h-8.88a.78.78 0 100 1.56h8.88a.78.78 0 100-1.56zM101.4 443.9h3.14c.87 0 1.57-.7 1.57-1.57v-3.13c0-.87-.7-1.57-1.57-1.57h-3.13c-.87 0-1.57.7-1.57 1.57v3.13c0 .87.7 1.57 1.57 1.57zm0-4.7h3.14v3.13h-3.13v-3.13z" fill="#fff"/><path d="M1.84 99.07c0-54.12 43.88-98 98-98 54.13 0 98 43.88 98 98v320.95c0 54.13-43.87 98-98 98-54.12 0-98-43.88-98-98V99.07z" stroke="#5E78FF" stroke-width="2"/></svg>