<svg width="1215" height="153" fill="none" xmlns="http://www.w3.org/2000/svg"><path d="M166.52 80.42h76.5" stroke="#5E78FF" stroke-width="2"/><path d="M240.1 76.16l4.24 4.26-4.25 4.25" stroke="#5E78FF" stroke-width="2" stroke-linecap="round"/><path d="M432.85 80.42h76.5" stroke="#5E78FF" stroke-width="2"/><path d="M506.43 76.16l4.24 4.26-4.24 4.25" stroke="#5E78FF" stroke-width="2" stroke-linecap="round"/><path d="M701.25 80.42h76.5" stroke="#5E78FF" stroke-width="2"/><path d="M774.83 76.16l4.24 4.26-4.24 4.25" stroke="#5E78FF" stroke-width="2" stroke-linecap="round"/><path d="M970.07 80.42h76.5" stroke="#5E78FF" stroke-width="2"/><path d="M1043.65 76.16l4.24 4.26-4.24 4.25" stroke="#5E78FF" stroke-width="2" stroke-linecap="round"/><circle cx="339.35" cy="80.42" r="71.5" stroke="#5E78FF" stroke-width="2"/><path d="M309.28 66.44c.45-.39.98-.69 1.6-.9.61-.21 1.3-.32 2.05-.32.62 0 1.19.08 1.69.23.5.14.93.36 1.28.63a2.73 2.73 0 011.1 2.17 2.74 2.74 0 01-1.5 2.54 3.73 3.73 0 011.3 1.04 2.4 2.4 0 01.5 1.46c0 .53-.1 1.01-.3 1.47-.18.45-.47.85-.84 1.18-.37.34-.82.6-1.36.8a6.32 6.32 0 01-5.96-1.23l.63-1.03a.76.76 0 01.21-.19.52.52 0 01.28-.08c.14 0 .3.06.46.17.16.1.36.23.6.36a3.77 3.77 0 002 .53c.72 0 1.27-.16 1.67-.46.4-.31.59-.79.59-1.43a1.5 1.5 0 00-.62-1.23c-.2-.14-.43-.25-.72-.33a3.34 3.34 0 00-.92-.12h-1.64v-1.73h1.48c.67 0 1.2-.13 1.56-.39.38-.27.57-.65.57-1.15 0-.44-.18-.8-.53-1.06-.36-.26-.87-.4-1.54-.4a3.51 3.51 0 00-1.74.41l-.52.27a.74.74 0 01-.37.13c-.1 0-.2-.03-.27-.08a.78.78 0 01-.21-.24l-.53-1.02zm14.88 6.97c-.58.03-1.06.08-1.44.16-.4.06-.7.16-.94.27-.23.1-.4.24-.5.39a.85.85 0 00-.16.49c0 .34.1.6.3.74.22.15.48.23.82.23.4 0 .75-.08 1.04-.22.3-.15.6-.37.88-.67V73.4zm-4.53-3.56a4.87 4.87 0 013.4-1.3c.49 0 .92.09 1.3.25a2.66 2.66 0 011.55 1.65c.13.4.2.82.2 1.28v5.19h-.9a.94.94 0 01-.42-.08c-.1-.06-.19-.18-.24-.35l-.18-.59c-.2.19-.41.35-.6.5a3.78 3.78 0 01-1.31.57 3.7 3.7 0 01-1.76-.06c-.3-.1-.55-.24-.76-.42a1.87 1.87 0 01-.5-.7 2.46 2.46 0 01-.07-1.58c.07-.21.18-.41.34-.6.16-.18.36-.36.61-.52.25-.17.56-.31.92-.44.37-.12.8-.22 1.28-.3.49-.07 1.04-.12 1.67-.14v-.48c0-.55-.12-.95-.36-1.21-.23-.27-.57-.4-1.01-.4a2.45 2.45 0 00-1.35.37l-.44.24a.84.84 0 01-.44.12.58.58 0 01-.35-.1.94.94 0 01-.23-.26l-.35-.64zm13.6 2.56V70h-1.08c-.25 0-.46.03-.62.1-.17.08-.3.17-.4.29a.96.96 0 00-.23.38c-.04.15-.06.29-.06.43 0 .38.13.67.38.89.25.2.6.32 1.02.32h.99zm1.88-3.7v8.2h-1.88v-3.29h-.35c-.16 0-.3.02-.4.05a.78.78 0 00-.45.3l-.15.25-1.31 2.02c-.06.11-.13.2-.2.3a.98.98 0 01-.58.34c-.13.02-.28.04-.45.04h-1.37l2.07-2.9a1.65 1.65 0 01.92-.78 3.39 3.39 0 01-.98-.32 2.36 2.36 0 01-.65-.51 2.08 2.08 0 01-.47-1.3 2.07 2.07 0 01.75-1.66c.26-.22.6-.4 1-.53.42-.14.91-.21 1.49-.21h3zm6.31 6.86c.42 0 .75-.1.99-.3.24-.21.36-.49.36-.84 0-.15-.02-.29-.06-.42a.75.75 0 00-.2-.34c-.11-.1-.25-.17-.42-.22a2.25 2.25 0 00-.66-.08h-1.48v2.2h1.47zM339.95 70v2.15h1.3a1.34 1.34 0 00.94-.32c.12-.1.2-.23.27-.37a1.15 1.15 0 00.03-.83.76.76 0 00-.21-.32c-.1-.1-.24-.17-.41-.22a1.9 1.9 0 00-.62-.1h-1.3zm1.35-1.29c.52 0 .96.05 1.34.15.38.1.69.24.93.42a1.66 1.66 0 01.72 1.41c0 .18-.02.36-.07.56a1.8 1.8 0 01-.7 1.02c-.2.14-.45.26-.75.34.27.05.52.14.74.24.22.1.42.24.58.4.16.15.28.33.36.55a2.12 2.12 0 01-.82 2.54c-.29.2-.62.34-1 .43-.39.1-.78.15-1.2.15h-3.36V68.7h3.23zm10.72.52a1.1 1.1 0 01.92-.52h1.55l-1.91 3.05a2.7 2.7 0 01-.4.52c-.15.13-.31.23-.51.3.26.08.48.2.65.36.18.16.33.35.47.6l1.92 3.38h-1.37c-.35 0-.62-.06-.8-.18-.2-.12-.36-.28-.5-.5l-1.2-2.27a1.07 1.07 0 00-1-.59h-.75v3.54h-1.97V68.7h1.97v3.38h.64c.23 0 .4-.04.54-.12.14-.08.25-.21.35-.38l1.4-2.36zm12.16-.52v8.2h-1.98v-4.78a5.26 5.26 0 01.08-.85 3.9 3.9 0 01-.52.87 154.5 154.5 0 01-.88 1.25 151.2 151.2 0 00-2.16 3.04c-.08.1-.18.22-.3.33a.59.59 0 01-.4.16h-1.22v-8.21h1.98v4.79c0 .12 0 .26-.02.4l-.05.45a4.16 4.16 0 01.5-.87 46.16 46.16 0 00.89-1.24l.58-.83 1.59-2.22c.07-.12.17-.23.3-.33.12-.1.25-.16.41-.16h1.2zm-66 18.87c.6 0 1.16.1 1.65.3a3.6 3.6 0 012.1 2.17c.2.52.3 1.1.3 1.75 0 .65-.1 1.23-.3 1.76a3.54 3.54 0 01-2.1 2.18c-.5.2-1.04.3-1.65.3-.62 0-1.17-.1-1.67-.3a3.62 3.62 0 01-2.12-2.18c-.19-.53-.28-1.11-.28-1.76 0-.65.1-1.23.28-1.75a3.67 3.67 0 012.11-2.17c.5-.2 1.06-.3 1.68-.3zm0 6.94c.68 0 1.19-.23 1.51-.7.33-.45.5-1.12.5-2 0-.9-.17-1.57-.5-2.03-.32-.46-.83-.7-1.51-.7-.7 0-1.21.24-1.55.7-.33.47-.5 1.14-.5 2.02 0 .88.17 1.56.5 2.02.34.46.86.69 1.55.69zm13.36-5.35h-2.93v6.75h-1.98v-6.75h-2.92v-1.46h7.83v1.46zm11.96-.94a1.1 1.1 0 01.92-.52h1.55l-1.91 3.05a2.7 2.7 0 01-.41.52c-.14.13-.3.23-.5.3.26.08.48.2.65.36.17.16.33.35.46.6l1.93 3.38h-1.37c-.35 0-.62-.06-.81-.18-.2-.12-.36-.28-.49-.5l-1.2-2.27a1.07 1.07 0 00-1-.59h-.75v3.54h-1.98V87.7h1.98v3.38h.64c.22 0 .4-.04.54-.12.13-.08.25-.21.35-.38l1.4-2.36zm12.4 7.69h-1.98v-6.7h-2.02c-.06 1.01-.16 1.88-.3 2.6-.13.73-.29 1.35-.47 1.86-.18.5-.39.91-.62 1.22-.22.3-.46.54-.72.71-.25.17-.52.29-.79.34a3.9 3.9 0 01-.82.09c-.3 0-.51-.03-.65-.08-.13-.05-.2-.12-.2-.21v-1.23h.47c.18 0 .35-.03.53-.08.17-.06.35-.17.51-.33.17-.17.32-.4.47-.7.15-.31.29-.72.41-1.22.13-.5.24-1.13.34-1.86.1-.73.17-1.6.22-2.62h5.62v8.2zm10.32-8.21v8.2h-1.98v-4.78a5.26 5.26 0 01.07-.85 3.9 3.9 0 01-.5.87 154.5 154.5 0 01-.9 1.25 151.2 151.2 0 00-2.16 3.04c-.07.1-.17.22-.3.33a.59.59 0 01-.4.16h-1.2v-8.21h1.97v4.79c0 .12 0 .26-.02.4l-.05.45a4.16 4.16 0 01.5-.87 46.16 46.16 0 00.89-1.24l.58-.83 1.59-2.22c.07-.12.17-.23.3-.33.12-.1.25-.16.4-.16h1.2zm8.24 3.16c0-.26-.04-.5-.11-.72a1.66 1.66 0 00-.32-.6c-.15-.17-.33-.3-.55-.4-.22-.1-.48-.15-.77-.15-.57 0-1.02.16-1.35.49-.33.32-.54.78-.63 1.38h3.73zm-3.77 1.2c.03.41.1.78.23 1.09a1.9 1.9 0 001.14 1.2c.27.1.56.15.88.15.32 0 .6-.04.82-.11.24-.08.44-.16.61-.25l.46-.25a.78.78 0 01.38-.11c.17 0 .29.06.37.18l.57.72a3.39 3.39 0 01-1.6 1.07 6.4 6.4 0 01-1.8.28c-.56 0-1.09-.1-1.58-.28a3.64 3.64 0 01-2.13-2.22 5.36 5.36 0 01-.05-3.48 3.7 3.7 0 012.02-2.16c.5-.21 1.04-.32 1.66-.32.51 0 1 .08 1.43.25a3.1 3.1 0 011.86 1.9c.18.45.28.98.28 1.57 0 .3-.04.5-.1.6-.06.11-.19.16-.37.16h-5.08zm15.18-4.36v8.2h-1.98V92.3h-3.2v3.63h-1.97V87.7h1.97v3.11h3.2v-3.11h1.98zm10 1.46h-2.93v6.75h-1.98v-6.75h-2.92v-1.46h7.83v1.46zm6.45 3.24c-.57.03-1.05.08-1.44.16-.39.06-.7.16-.94.27-.23.1-.4.24-.5.39a.85.85 0 00-.15.49c0 .34.1.6.3.74.21.15.48.23.81.23.4 0 .75-.08 1.05-.22.3-.15.59-.37.87-.67V92.4zm-4.53-3.56a4.87 4.87 0 013.41-1.3c.48 0 .9.09 1.29.25a2.66 2.66 0 011.55 1.65c.14.4.2.82.2 1.28v5.19h-.89a.94.94 0 01-.43-.08c-.1-.06-.18-.18-.24-.35l-.18-.59a3.78 3.78 0 01-1.91 1.06 3.7 3.7 0 01-1.76-.05c-.3-.1-.54-.24-.76-.42a1.87 1.87 0 01-.5-.7 2.46 2.46 0 01-.07-1.58c.07-.21.19-.41.34-.6.16-.18.37-.36.62-.52.25-.17.55-.31.92-.44.36-.12.79-.22 1.28-.3.48-.07 1.04-.12 1.66-.14v-.48c0-.55-.12-.95-.35-1.21-.24-.27-.58-.4-1.02-.4a2.45 2.45 0 00-1.35.37l-.44.24a.84.84 0 01-.43.12.58.58 0 01-.35-.1.94.94 0 01-.24-.26l-.35-.64z" fill="#5E78FF"/><circle cx="73.02" cy="80.42" r="71.5" stroke="#5E78FF" stroke-width="2"/><path d="M33.4 76.92h-2.17V67h-5.02v9.9h-2.16V65.36h9.35v11.57zm5.11-2.13c.22.27.47.46.73.58a2.2 2.2 0 001.67 0c.24-.12.44-.29.6-.52.18-.23.3-.51.4-.86a5 5 0 00.14-1.24c0-.48-.04-.89-.12-1.22a2.3 2.3 0 00-.33-.81 1.3 1.3 0 00-.53-.46 1.6 1.6 0 00-.7-.14c-.4 0-.76.09-1.04.26-.3.17-.56.41-.82.73v3.68zm-.1-4.96c.33-.38.71-.69 1.14-.92a3.07 3.07 0 012.73-.07c.37.18.7.46.96.81.27.36.48.8.62 1.32a6.45 6.45 0 01-.02 3.48c-.17.53-.4.98-.71 1.36a3.24 3.24 0 01-2.57 1.22 3 3 0 01-1.18-.2 2.94 2.94 0 01-.87-.6v3.37h-1.98V68.7h1.21c.26 0 .43.12.5.36l.17.76zm13.49 2.04c0-.26-.04-.5-.11-.72a1.66 1.66 0 00-.32-.6c-.15-.17-.33-.3-.55-.4a1.8 1.8 0 00-.77-.15c-.57 0-1.02.16-1.35.49a2.4 2.4 0 00-.63 1.38h3.73zm-3.77 1.2c.03.41.1.78.23 1.09a1.9 1.9 0 001.14 1.2c.27.1.56.15.88.15.32 0 .6-.04.82-.11.24-.08.44-.16.61-.25l.46-.25a.79.79 0 01.38-.11c.17 0 .29.06.37.18l.57.72a3.38 3.38 0 01-1.6 1.07 6.4 6.4 0 01-1.8.28c-.56 0-1.09-.1-1.58-.28a3.64 3.64 0 01-2.13-2.22 5.36 5.36 0 01-.04-3.48 3.7 3.7 0 012.02-2.16c.48-.21 1.03-.32 1.65-.32.52 0 1 .08 1.43.25a3.1 3.1 0 011.86 1.9c.19.45.28.98.28 1.57 0 .3-.04.5-.1.6-.06.11-.19.16-.37.16h-5.08zM61.6 75.5v-5.29h-2.02c-.05.69-.12 1.31-.2 1.87-.08.54-.17 1.04-.28 1.47-.1.43-.22.8-.35 1.13-.12.32-.25.59-.4.82h3.25zm3.42-.06v3.63c0 .18-.05.32-.16.43-.1.1-.23.16-.4.16h-1.23v-2.75H57.1v2.19c0 .14-.05.27-.14.38-.08.12-.22.18-.4.18H55.3v-4.16h.23c.18 0 .37-.02.54-.07.18-.06.35-.16.5-.32.17-.16.33-.4.47-.7.15-.3.28-.7.4-1.2s.22-1.13.3-1.86c.1-.74.17-1.62.22-2.65h5.56v6.74h1.5zm5.74-6.87c.6 0 1.16.1 1.66.3a3.59 3.59 0 012.1 2.17c.2.52.29 1.1.29 1.75 0 .65-.1 1.23-.29 1.76a3.54 3.54 0 01-2.1 2.18c-.5.2-1.05.3-1.66.3-.61 0-1.17-.1-1.67-.3a3.62 3.62 0 01-2.11-2.18c-.2-.53-.3-1.11-.3-1.76 0-.65.1-1.23.3-1.75.2-.53.47-.97.82-1.33.36-.37.79-.65 1.29-.84.5-.2 1.06-.3 1.67-.3zm0 6.94c.68 0 1.19-.23 1.51-.7.33-.45.5-1.12.5-2 0-.9-.17-1.57-.5-2.03-.32-.46-.83-.7-1.51-.7-.7 0-1.2.24-1.54.7-.33.47-.5 1.14-.5 2.02 0 .88.17 1.56.5 2.02.33.46.85.69 1.54.69zm13.7 1.4H82.5v-6.75h-3.2v6.75h-1.97V68.7h7.15v8.2zm10.58 0h-1.98v-6.7h-2.01c-.07 1.01-.16 1.88-.3 2.6-.13.73-.3 1.35-.48 1.86-.18.5-.38.91-.61 1.22-.23.3-.47.54-.72.71-.26.17-.52.29-.8.34a3.9 3.9 0 01-.82.09c-.3 0-.5-.03-.65-.08-.13-.05-.2-.12-.2-.21v-1.23h.47c.18 0 .36-.03.53-.08.18-.06.35-.17.51-.33.17-.17.33-.4.48-.7.15-.31.28-.72.4-1.22.13-.5.24-1.13.34-1.86.1-.73.17-1.6.22-2.62h5.62v8.2zm7.28-3.5c-.57.02-1.05.07-1.44.15-.39.06-.7.16-.93.27-.24.1-.4.24-.5.39a.85.85 0 00-.16.49c0 .34.1.6.3.74.21.15.48.23.81.23.4 0 .76-.08 1.05-.22.3-.15.6-.37.87-.67V73.4zm-4.52-3.57a4.87 4.87 0 013.4-1.3c.48 0 .91.09 1.3.25a2.65 2.65 0 011.54 1.65c.14.4.21.82.21 1.28v5.19h-.9a.95.95 0 01-.43-.08c-.1-.06-.18-.18-.24-.35l-.17-.59c-.21.19-.41.35-.61.5a3.7 3.7 0 01-1.3.57 3.7 3.7 0 01-1.76-.06c-.3-.1-.55-.24-.76-.42a1.89 1.89 0 01-.5-.7 2.47 2.47 0 01-.07-1.58c.07-.21.18-.41.33-.6.16-.18.37-.36.62-.52a4 4 0 01.92-.44c.37-.12.8-.22 1.28-.3.48-.07 1.04-.12 1.66-.14v-.48c0-.55-.11-.95-.35-1.21-.23-.27-.57-.4-1.02-.4a2.45 2.45 0 00-1.35.37l-.44.24a.84.84 0 01-.43.12.59.59 0 01-.35-.1.96.96 0 01-.23-.26l-.35-.64zm16.21.32h-2.93v6.75h-1.97v-6.75h-2.92v-1.46H114v1.46zm6.45 3.24c-.57.03-1.05.08-1.44.16-.38.06-.7.16-.93.27-.24.1-.4.24-.5.39a.85.85 0 00-.16.49c0 .34.1.6.3.74.21.15.48.23.81.23.4 0 .76-.08 1.05-.22.3-.15.6-.37.87-.67V73.4zm-4.52-3.56a4.87 4.87 0 013.4-1.3c.48 0 .91.09 1.3.25a2.65 2.65 0 011.54 1.65c.14.4.21.82.21 1.28v5.19h-.9a.94.94 0 01-.43-.08c-.1-.06-.18-.18-.24-.35l-.17-.59c-.21.19-.41.35-.61.5a3.74 3.74 0 01-1.3.57 3.7 3.7 0 01-1.76-.06c-.3-.1-.55-.24-.76-.42a1.89 1.89 0 01-.5-.7c-.12-.28-.18-.6-.18-.97a1.9 1.9 0 01.44-1.2c.16-.2.37-.37.62-.53.25-.17.56-.31.92-.44.37-.12.8-.22 1.28-.3.48-.07 1.04-.12 1.66-.14v-.48c0-.55-.11-.95-.35-1.21-.23-.27-.57-.4-1.01-.4a2.45 2.45 0 00-1.36.37l-.44.24a.84.84 0 01-.43.12.58.58 0 01-.35-.1.96.96 0 01-.23-.26l-.35-.64zM37.52 88.6c.31-.3.7-.54 1.15-.73.46-.2 1.01-.29 1.65-.29.51 0 .96.06 1.35.19.4.11.73.28 1 .48.27.2.47.44.61.7a1.68 1.68 0 01.15 1.32 1.88 1.88 0 01-.63.94c-.18.13-.39.24-.64.34.45.17.81.42 1.08.75.28.33.42.74.42 1.23 0 .4-.1.75-.28 1.06-.18.3-.43.57-.73.8a4.35 4.35 0 01-4.62-.04 3.4 3.4 0 01-.72-.66l.57-.72a.4.4 0 01.36-.18.6.6 0 01.35.12l.39.26a2.22 2.22 0 001.29.37c.5 0 .87-.12 1.12-.34.26-.23.39-.5.39-.84a.9.9 0 00-.4-.78c-.26-.19-.69-.28-1.28-.28h-.93v-1.29h.93c.52 0 .91-.09 1.2-.27a.83.83 0 00.4-.72.8.8 0 00-.36-.67 1.8 1.8 0 00-1.07-.26 2.55 2.55 0 00-1.24.28l-.35.18a.51.51 0 01-.5.04.7.7 0 01-.2-.23l-.46-.76zm13.02 3.81c-.57.03-1.05.08-1.44.16-.39.06-.7.16-.93.27-.24.1-.4.24-.5.39a.85.85 0 00-.16.49c0 .34.1.6.3.74.21.15.48.23.81.23.4 0 .76-.08 1.05-.22.3-.15.59-.37.87-.67V92.4zm-4.53-3.56a4.87 4.87 0 013.41-1.3c.48 0 .91.09 1.29.25a2.65 2.65 0 011.55 1.65c.14.4.21.82.21 1.28v5.19h-.9a.94.94 0 01-.43-.08c-.1-.06-.18-.18-.24-.35l-.17-.59c-.21.19-.41.35-.61.5a3.75 3.75 0 01-1.3.57 3.7 3.7 0 01-1.77-.06c-.29-.1-.54-.24-.76-.42a1.88 1.88 0 01-.5-.7 2.47 2.47 0 01-.06-1.58c.07-.21.18-.41.33-.6.16-.18.37-.36.62-.52.25-.17.56-.31.92-.44.37-.12.8-.22 1.28-.3.48-.07 1.04-.12 1.66-.14v-.48c0-.55-.12-.95-.35-1.21-.23-.27-.57-.4-1.02-.4a2.45 2.45 0 00-1.35.37l-.44.24a.84.84 0 01-.43.12.59.59 0 01-.35-.1.95.95 0 01-.23-.26l-.36-.64zm23.72-1.16v8.23h-1.78v-4.58c0-.19 0-.4.02-.63.02-.24.06-.45.1-.66l-2.42 4.44a.59.59 0 01-.56.34h-.2a.59.59 0 01-.56-.34l-2.45-4.46a7.2 7.2 0 01.13 1.31v4.58h-1.79v-8.23h1.63a1 1 0 01.41.1c.14.05.25.17.35.34l1.93 3.46a5.7 5.7 0 01.45 1.05l.2-.55c.07-.18.15-.35.24-.5l1.92-3.46c.1-.18.21-.3.34-.35a1 1 0 01.41-.09h1.63zm8.25 3.18c0-.26-.04-.5-.11-.72a1.67 1.67 0 00-.32-.6c-.15-.17-.33-.3-.56-.4-.21-.1-.47-.15-.76-.15-.57 0-1.03.16-1.36.49a2.4 2.4 0 00-.62 1.38h3.73zm-3.77 1.2c.03.41.1.78.22 1.09.12.3.28.55.47.76.19.2.42.34.68.45.27.1.56.14.88.14.32 0 .6-.04.82-.11.24-.08.44-.16.61-.25l.46-.25a.79.79 0 01.38-.11c.17 0 .29.06.37.18l.57.72a3.38 3.38 0 01-1.6 1.07 6.4 6.4 0 01-1.8.28c-.56 0-1.09-.1-1.58-.28a3.63 3.63 0 01-2.14-2.22 5.36 5.36 0 01-.04-3.48 3.7 3.7 0 012.02-2.16c.5-.21 1.04-.32 1.66-.32.51 0 1 .08 1.43.25a3.1 3.1 0 011.86 1.9c.18.45.27.98.27 1.57 0 .3-.03.5-.1.6-.06.11-.18.16-.36.16h-5.08zm13.9-2.62a.91.91 0 01-.17.17c-.05.04-.13.07-.24.07-.1 0-.2-.03-.3-.1a5.22 5.22 0 00-.82-.4c-.18-.07-.4-.1-.68-.1-.35 0-.65.06-.91.19-.26.12-.48.3-.66.53-.17.24-.3.52-.38.86-.09.33-.13.7-.13 1.13 0 .43.05.82.14 1.17.1.34.23.62.4.86.18.23.4.4.65.53.25.11.53.17.84.17a2.14 2.14 0 001.26-.36l.34-.26c.1-.08.22-.12.34-.12a.4.4 0 01.36.18l.57.72a3.68 3.68 0 01-2.36 1.28 5.9 5.9 0 01-.87.07 3.43 3.43 0 01-2.6-1.11c-.34-.37-.6-.81-.8-1.33a5.25 5.25 0 01-.3-1.8c0-.6.1-1.16.26-1.67.18-.52.44-.97.77-1.34.34-.38.75-.68 1.25-.89a4.3 4.3 0 011.71-.32 3.93 3.93 0 012.86 1.14l-.52.73zm7.13 1.96V89h-1.08c-.25 0-.45.03-.62.1-.17.08-.3.17-.4.29a.98.98 0 00-.22.38c-.05.15-.07.29-.07.43 0 .38.13.67.38.89.25.2.6.32 1.02.32h.99zm1.88-3.7v8.2h-1.88v-3.29h-.35c-.16 0-.3.02-.4.05a.8.8 0 00-.45.3l-.15.25-1.31 2.02c-.06.11-.13.2-.2.3a.97.97 0 01-.58.34c-.13.02-.28.04-.45.04h-1.37l2.07-2.9a1.66 1.66 0 01.92-.78 3.39 3.39 0 01-.98-.32 2.37 2.37 0 01-.65-.51 1.93 1.93 0 01-.47-1.3 2.08 2.08 0 01.75-1.66c.26-.22.6-.4 1-.53.42-.14.91-.21 1.49-.21h3zm11.63 6.74v3.63c0 .18-.06.32-.17.43-.1.1-.24.16-.4.16h-1.24v-2.75h-6.86V87.7h1.98v6.74h3.2v-6.74h1.97v6.74h1.52z" fill="#5E78FF"/><circle cx="605.75" cy="80.42" r="71.5" stroke="#5E78FF" stroke-width="2"/><path d="M579.86 53.13c0 .85-.15 1.64-.43 2.36a5.48 5.48 0 01-5.43 3.56c-.88 0-1.67-.15-2.4-.44a5.53 5.53 0 01-3.04-3.12 6.44 6.44 0 01-.42-2.36c0-.84.14-1.63.42-2.35a5.43 5.43 0 013.05-3.11c.72-.3 1.51-.45 2.39-.45a6.37 6.37 0 013.08.79 5.33 5.33 0 012.58 3.51c.13.51.2 1.05.2 1.61zm-2.2 0c0-.63-.09-1.2-.26-1.7s-.41-.94-.73-1.29c-.31-.35-.7-.62-1.15-.8a3.92 3.92 0 00-1.52-.29c-.57 0-1.08.1-1.53.28a3.2 3.2 0 00-1.88 2.1c-.17.5-.25 1.07-.25 1.7 0 .64.08 1.2.25 1.72a3.25 3.25 0 001.88 2.08c.45.18.96.28 1.53.28.56 0 1.07-.1 1.52-.28.45-.2.84-.46 1.15-.8.32-.36.56-.78.73-1.28.17-.51.25-1.08.25-1.72zm11.81-.96h-2.93v6.75h-1.97v-6.75h-2.92v-1.46h7.82v1.46zm8.65-1.46v8.2h-1.98V55.7c-.7.17-1.36.27-1.96.3-.6.02-1.13-.05-1.57-.22a2.14 2.14 0 01-1.03-.82 2.75 2.75 0 01-.37-1.51V50.7h1.98v2.42c0 .34.05.61.16.82.11.2.28.35.52.44.24.09.54.13.92.11.37-.01.82-.08 1.35-.18V50.7h1.98zm8.24 3.16c0-.26-.04-.5-.11-.72a1.67 1.67 0 00-.32-.6c-.14-.17-.33-.3-.55-.4-.22-.1-.48-.15-.77-.15-.57 0-1.02.16-1.35.49a2.4 2.4 0 00-.63 1.38h3.73zm-3.77 1.2c.04.41.11.78.23 1.09.11.3.27.55.46.76.2.2.42.34.68.45.27.1.56.14.88.14.32 0 .6-.04.83-.11.23-.08.43-.16.6-.25l.46-.25a.78.78 0 01.38-.11c.17 0 .3.06.37.18l.57.72a3.39 3.39 0 01-1.6 1.07 6.4 6.4 0 01-1.8.28c-.55 0-1.09-.1-1.58-.28a3.63 3.63 0 01-2.13-2.22 5.36 5.36 0 01-.04-3.48 3.69 3.69 0 012.02-2.16 4.1 4.1 0 011.65-.32c.52 0 1 .08 1.43.25a3.1 3.1 0 011.87 1.9c.18.45.27.98.27 1.57 0 .3-.03.5-.1.61-.06.1-.18.15-.37.15h-5.08zm15-2.9h-2.92v6.75h-1.98v-6.75h-2.92v-1.46h7.83v1.46zm14.21 6.75h-1.97v-6.75h-3.2v6.75h-1.98V50.7h7.15v8.2zm6.6-8.34c.6 0 1.15.1 1.65.3a3.6 3.6 0 012.1 2.17c.2.52.3 1.1.3 1.75 0 .65-.1 1.23-.3 1.76a3.54 3.54 0 01-2.1 2.18c-.5.2-1.05.3-1.66.3-.61 0-1.17-.1-1.67-.3a3.62 3.62 0 01-2.11-2.18c-.2-.53-.29-1.11-.29-1.76 0-.65.1-1.23.29-1.75.2-.53.47-.97.82-1.33.36-.37.79-.65 1.3-.84.5-.2 1.05-.3 1.66-.3zm0 6.94c.68 0 1.18-.23 1.5-.7.34-.45.5-1.12.5-2 0-.9-.16-1.57-.5-2.03-.32-.46-.82-.7-1.5-.7-.7 0-1.22.24-1.55.7-.33.47-.5 1.14-.5 2.02 0 .88.17 1.56.5 2.02.33.46.85.69 1.54.69zm-82.48 20.4h-1.97v-6.75h-3.2v6.75h-1.98V69.7h7.15v8.2zm4.93-2.13c.23.27.47.46.73.58a2.21 2.21 0 001.67 0c.24-.12.45-.29.61-.52.17-.23.3-.51.4-.86a5 5 0 00.13-1.24c0-.48-.04-.89-.12-1.22a2.3 2.3 0 00-.33-.81 1.3 1.3 0 00-.53-.46 1.6 1.6 0 00-.7-.14c-.4 0-.75.09-1.04.26-.29.17-.56.41-.82.73v3.68zm-.1-4.96c.34-.38.72-.69 1.14-.92a3.07 3.07 0 012.73-.07c.38.18.7.46.96.81.27.36.48.8.63 1.32a6.42 6.42 0 01-.03 3.48c-.16.53-.4.98-.71 1.36a3.24 3.24 0 01-2.57 1.22 3 3 0 01-1.17-.2 2.94 2.94 0 01-.88-.6v3.37h-1.97V69.7h1.2c.26 0 .43.12.51.36l.16.76zm11.84-1.25c.6 0 1.16.1 1.65.3a3.58 3.58 0 012.1 2.17c.2.52.3 1.1.3 1.75 0 .65-.1 1.23-.3 1.76a3.53 3.53 0 01-2.1 2.18c-.5.2-1.04.3-1.65.3-.62 0-1.17-.1-1.67-.3a3.63 3.63 0 01-2.12-2.18c-.19-.53-.28-1.11-.28-1.76 0-.65.1-1.23.28-1.75a3.68 3.68 0 012.11-2.17c.5-.2 1.07-.3 1.68-.3zm0 6.94c.68 0 1.18-.23 1.51-.7.33-.45.5-1.12.5-2 0-.9-.17-1.57-.5-2.03-.33-.46-.83-.7-1.51-.7-.7 0-1.21.24-1.55.7-.33.47-.5 1.14-.5 2.02 0 .88.17 1.56.5 2.02.34.46.86.69 1.55.69zm11.8-.01v-5.29h-2.02c-.06.69-.12 1.31-.2 1.87-.08.54-.18 1.04-.28 1.47-.11.43-.23.8-.36 1.13-.12.32-.25.59-.4.82h3.25zm3.42-.06v3.63c0 .18-.06.32-.16.43-.1.1-.24.16-.4.16H586v-2.75h-6.14v2.19c0 .14-.05.27-.14.38-.08.12-.22.18-.4.18h-1.25v-4.16h.23c.19 0 .37-.02.54-.07.18-.06.35-.16.5-.32.17-.16.33-.4.47-.7.15-.3.28-.7.4-1.2s.22-1.13.3-1.86c.1-.74.17-1.62.22-2.65h5.56v6.74h1.5zm7.39-3.58c0-.26-.04-.5-.11-.72a1.67 1.67 0 00-.32-.6c-.15-.17-.33-.3-.56-.4-.22-.1-.47-.15-.76-.15-.58 0-1.03.16-1.36.49a2.4 2.4 0 00-.62 1.38h3.73zm-3.77 1.2c.03.41.1.78.22 1.09.12.3.28.55.47.76.19.2.42.34.68.45.26.1.56.14.88.14.32 0 .6-.04.82-.11.24-.08.44-.16.61-.25l.46-.25a.78.78 0 01.38-.11c.16 0 .29.06.37.18l.57.72a3.39 3.39 0 01-1.6 1.07 6.4 6.4 0 01-1.8.28c-.56 0-1.09-.1-1.58-.28a3.63 3.63 0 01-2.14-2.22 5.36 5.36 0 01-.04-3.48 3.69 3.69 0 012.02-2.16 4.1 4.1 0 011.66-.32c.51 0 .99.08 1.43.25a3.1 3.1 0 011.86 1.9c.18.45.27.98.27 1.57 0 .3-.03.5-.1.6-.06.11-.18.16-.36.16h-5.08zm15.64 3.85h-1.97v-6.7h-2.02c-.06 1.01-.16 1.88-.3 2.6-.13.73-.29 1.35-.48 1.86-.18.5-.38.91-.61 1.22-.23.3-.47.54-.72.71-.26.17-.52.29-.8.34a3.9 3.9 0 01-.82.09c-.3 0-.5-.03-.65-.08-.13-.05-.2-.12-.2-.21v-1.23h.48c.17 0 .35-.03.52-.08.18-.06.35-.17.52-.33.16-.17.32-.4.47-.7.15-.31.28-.72.4-1.22.13-.5.25-1.13.34-1.86.1-.73.17-1.6.23-2.62h5.61v8.2zm7.28-3.5c-.57.02-1.05.07-1.44.15-.38.06-.7.16-.93.27-.24.1-.4.24-.5.39a.85.85 0 00-.16.49c0 .34.1.6.3.74.22.15.48.23.81.23.41 0 .76-.08 1.05-.22.3-.15.6-.37.88-.67V74.4zm-4.52-3.57a4.87 4.87 0 013.4-1.3c.49 0 .91.09 1.3.25a2.65 2.65 0 011.55 1.65c.13.4.2.82.2 1.28v5.19h-.9a.94.94 0 01-.42-.08c-.1-.06-.19-.18-.25-.35l-.17-.59c-.2.19-.41.35-.6.5a3.74 3.74 0 01-1.31.57 3.7 3.7 0 01-1.76-.06c-.3-.1-.55-.24-.76-.42a1.89 1.89 0 01-.5-.7c-.12-.28-.18-.6-.18-.97a1.9 1.9 0 01.45-1.2c.15-.2.36-.37.61-.53.25-.17.56-.31.92-.44.37-.12.8-.22 1.28-.3.49-.07 1.04-.12 1.66-.14v-.48c0-.55-.11-.95-.35-1.21-.23-.27-.57-.4-1.01-.4a2.45 2.45 0 00-1.36.37l-.43.24a.84.84 0 01-.44.12.58.58 0 01-.35-.1.96.96 0 01-.23-.26l-.35-.64zm16.47-1.14v8.2h-1.98V74.3h-3.2v3.63h-1.98V69.7h1.98v3.11h3.2v-3.11h1.98zm10.1 0v8.2h-1.97V74.3h-3.2v3.63h-1.98V69.7h1.98v3.11h3.2v-3.11h1.98zm6.32 6.8c.44 0 .78-.12 1-.34.22-.23.33-.52.33-.87a1.2 1.2 0 00-.31-.8c-.1-.1-.25-.19-.42-.25-.17-.06-.37-.1-.61-.1h-1.47v2.35h1.48zm-.02-3.76c.57 0 1.05.07 1.45.2.4.15.71.33.96.57.24.23.42.5.52.81a2.75 2.75 0 01-.03 2.03c-.14.32-.34.6-.6.83-.27.23-.59.4-.97.54-.38.12-.82.19-1.3.19h-3.37V69.7h1.88v3.04h1.46zm6.57-3.04v8.2h-1.97v-8.2h1.98zm12.46-.02v8.23h-1.78v-4.58c0-.19 0-.4.02-.63.02-.24.06-.45.1-.66l-2.42 4.44a.59.59 0 01-.56.34h-.2a.59.59 0 01-.56-.34l-2.45-4.46a7.2 7.2 0 01.13 1.31v4.58h-1.79v-8.23h1.63a1 1 0 01.41.1c.14.05.25.17.35.34l1.93 3.46a5.88 5.88 0 01.45 1.05l.2-.55c.07-.18.15-.35.24-.5l1.92-3.46c.1-.18.21-.3.34-.35a1 1 0 01.41-.09h1.63zm-90.15 25.1c.22.27.47.46.73.58a2.21 2.21 0 001.67 0c.24-.12.44-.29.6-.52.18-.23.31-.51.4-.86a5 5 0 00.14-1.24c0-.48-.04-.89-.12-1.22-.08-.33-.19-.6-.33-.81a1.3 1.3 0 00-.53-.46c-.2-.1-.43-.14-.7-.14-.4 0-.76.09-1.04.26-.3.17-.56.41-.82.73v3.68zm-.1-4.96c.33-.38.71-.69 1.14-.92a3.07 3.07 0 012.73-.07c.37.18.7.46.96.81.27.36.48.8.62 1.32a6.46 6.46 0 01-.02 3.48c-.17.53-.4.98-.71 1.36a3.24 3.24 0 01-2.57 1.22 3 3 0 01-1.18-.2 2.94 2.94 0 01-.87-.6v3.37h-1.98V88.7h1.21c.26 0 .43.12.5.36l.17.76zm12.54 3.58c-.57.03-1.05.08-1.44.16-.39.06-.7.16-.94.27-.23.1-.4.24-.5.39a.85.85 0 00-.15.49c0 .34.1.6.3.74.2.15.48.23.8.23.41 0 .76-.08 1.06-.22.3-.15.59-.37.87-.67V93.4zm-4.53-3.56a4.87 4.87 0 013.4-1.3c.49 0 .92.09 1.3.25a2.65 2.65 0 011.55 1.65c.14.4.2.82.2 1.28v5.19h-.89a.94.94 0 01-.43-.08c-.1-.06-.18-.18-.24-.35l-.18-.59a3.74 3.74 0 01-1.91 1.06 3.7 3.7 0 01-1.76-.05c-.3-.1-.55-.24-.76-.42a1.89 1.89 0 01-.5-.7c-.11-.28-.17-.6-.17-.97a1.9 1.9 0 01.44-1.2c.16-.2.36-.37.62-.53.25-.17.55-.31.92-.44.36-.12.79-.22 1.27-.3.49-.07 1.04-.12 1.67-.14v-.48c0-.55-.12-.95-.35-1.21-.24-.27-.58-.4-1.02-.4a2.45 2.45 0 00-1.35.37l-.44.24a.84.84 0 01-.43.12.58.58 0 01-.35-.1.96.96 0 01-.24-.26l-.35-.64zm13.17 5.75c.69 0 1.2-.22 1.53-.66.34-.44.5-1.08.5-1.92 0-.84-.16-1.47-.49-1.91-.33-.44-.82-.66-1.5-.66-.67 0-1.18.21-1.53.63-.35.4-.53 1.02-.53 1.85 0 .86.16 1.53.5 1.99.33.45.84.68 1.52.68zm.58-8.38c-.5.03-.93.13-1.29.3-.35.16-.64.38-.88.65-.23.28-.4.6-.53.99-.11.38-.18.8-.2 1.26.13-.2.3-.4.48-.57a3.5 3.5 0 012.37-.85c.55 0 1.04.1 1.47.3.44.19.81.46 1.12.8.3.36.54.79.7 1.28a5.1 5.1 0 01-.05 3.3 3.57 3.57 0 01-2.1 2.08c-.5.18-1.06.28-1.67.28-.59 0-1.13-.1-1.64-.3-.5-.18-.92-.5-1.28-.93a4.6 4.6 0 01-.85-1.68 11.1 11.1 0 01-.07-4.87c.15-.72.4-1.35.76-1.89.35-.54.8-.98 1.38-1.3a4.92 4.92 0 012.11-.6l2.92-.22.1 1.02c.03.22 0 .4-.09.56-.09.15-.24.23-.46.24l-2.3.15zm9.65 1.36c.61 0 1.16.1 1.66.3a3.6 3.6 0 012.1 2.17c.2.52.3 1.1.3 1.75 0 .65-.1 1.23-.3 1.76a3.54 3.54 0 01-2.1 2.18c-.5.2-1.05.3-1.66.3-.61 0-1.17-.1-1.67-.3a3.62 3.62 0 01-2.11-2.18c-.2-.53-.29-1.11-.29-1.76 0-.65.1-1.23.29-1.75.2-.53.47-.97.82-1.33.36-.37.79-.65 1.3-.84.5-.2 1.05-.3 1.66-.3zm0 6.94c.69 0 1.19-.23 1.51-.7.34-.45.5-1.12.5-2 0-.9-.16-1.57-.5-2.03-.32-.46-.82-.7-1.5-.7-.7 0-1.22.24-1.55.7-.33.47-.5 1.14-.5 2.02 0 .88.17 1.56.5 2.02.33.46.85.69 1.54.69zm13.36-5.35h-2.92v6.75h-1.98v-6.75h-2.92v-1.46h7.82v1.46zm6.46 3.24c-.57.03-1.05.08-1.44.16-.4.06-.7.16-.94.27-.23.1-.4.24-.5.39a.85.85 0 00-.16.49c0 .34.1.6.3.74.22.15.49.23.82.23.4 0 .75-.08 1.05-.22.3-.15.58-.37.87-.67V93.4zm-4.53-3.56a4.87 4.87 0 013.4-1.3c.49 0 .92.09 1.3.25a2.66 2.66 0 011.55 1.65c.14.4.2.82.2 1.28v5.19h-.9a.94.94 0 01-.42-.08c-.1-.06-.18-.18-.24-.35l-.18-.59c-.2.19-.41.35-.6.5a3.78 3.78 0 01-1.31.57 3.7 3.7 0 01-1.76-.06c-.3-.1-.55-.24-.76-.42a1.87 1.87 0 01-.5-.7 2.46 2.46 0 01-.07-1.58c.07-.21.18-.41.34-.6.16-.18.36-.36.61-.52.25-.17.56-.31.92-.44.37-.12.8-.22 1.28-.3.49-.07 1.04-.12 1.67-.14v-.48c0-.55-.12-.95-.36-1.21-.23-.27-.57-.4-1.01-.4a2.45 2.45 0 00-1.35.37l-.44.24a.84.84 0 01-.43.12.58.58 0 01-.36-.1.94.94 0 01-.23-.26l-.35-.64zM637 88.7v8.23h-1.79v-4.58l.03-.63c.02-.24.05-.45.1-.66l-2.42 4.44a.59.59 0 01-.56.34h-.21a.59.59 0 01-.56-.34l-2.45-4.46a7.55 7.55 0 01.13 1.31v4.58h-1.78v-8.23h1.63a1 1 0 01.4.1c.14.05.26.17.35.34l1.94 3.46a5.88 5.88 0 01.44 1.05l.2-.55.24-.5 1.92-3.46c.1-.18.21-.3.35-.35a1 1 0 01.4-.09h1.64zm-66.75 19.9c.3-.3.7-.53 1.15-.72.46-.2 1-.29 1.65-.29.5 0 .96.06 1.35.19a3 3 0 011 .48c.26.2.47.44.6.7a1.69 1.69 0 01.15 1.32 1.89 1.89 0 01-.63.94c-.17.13-.38.24-.63.34.45.17.8.42 1.08.75.27.33.41.74.41 1.23 0 .4-.09.75-.28 1.06-.18.3-.42.57-.72.8a4.35 4.35 0 01-4.62-.04c-.27-.19-.5-.4-.72-.66l.57-.72a.4.4 0 01.36-.18.6.6 0 01.35.12l.38.26a2.2 2.2 0 001.29.37c.5 0 .87-.12 1.13-.34.26-.23.38-.5.38-.84a.9.9 0 00-.4-.78c-.26-.19-.68-.28-1.28-.28h-.92v-1.29h.92c.52 0 .92-.09 1.2-.27a.83.83 0 00.41-.72.8.8 0 00-.37-.67 1.8 1.8 0 00-1.07-.27 2.57 2.57 0 00-1.23.28l-.35.19a.51.51 0 01-.5.04.69.69 0 01-.21-.23l-.45-.76zm13.02 3.82c-.57.03-1.05.08-1.44.16-.4.07-.7.16-.94.27-.23.1-.4.24-.5.39a.86.86 0 00-.15.49c0 .34.1.6.3.74.2.15.48.23.8.23.41 0 .76-.08 1.05-.22.3-.15.6-.37.88-.67v-1.39zm-4.53-3.56a4.87 4.87 0 013.4-1.3c.49 0 .92.09 1.3.25a2.66 2.66 0 011.55 1.65c.14.4.2.82.2 1.28v5.19h-.9a.93.93 0 01-.42-.08c-.1-.06-.18-.18-.24-.35l-.18-.59c-.2.19-.41.35-.6.5a3.71 3.71 0 01-1.31.56 3.66 3.66 0 01-1.76-.05c-.3-.1-.55-.24-.76-.42a1.87 1.87 0 01-.5-.7c-.11-.28-.17-.6-.17-.97a1.9 1.9 0 01.44-1.2c.16-.2.36-.37.61-.54.25-.16.56-.3.92-.43.37-.12.8-.22 1.28-.3.49-.07 1.04-.12 1.67-.14v-.48c0-.55-.12-.95-.36-1.21-.23-.27-.57-.4-1.01-.4a2.47 2.47 0 00-1.35.36l-.44.25a.84.84 0 01-.44.11.58.58 0 01-.35-.1.95.95 0 01-.23-.25l-.35-.64zm23.72-1.16v8.23h-1.79v-4.58l.03-.63c.02-.23.05-.45.1-.66l-2.42 4.44a.59.59 0 01-.56.34h-.21a.59.59 0 01-.56-.34l-2.45-4.46a6.88 6.88 0 01.13 1.31v4.58h-1.78v-8.23h1.63c.14 0 .27.03.4.1a.7.7 0 01.35.34l1.94 3.46a5.4 5.4 0 01.44 1.05l.2-.55.24-.5 1.92-3.46c.1-.18.21-.3.35-.35.13-.06.27-.09.4-.09h1.64zm8.24 3.18c0-.26-.03-.5-.1-.72a1.67 1.67 0 00-.33-.6c-.14-.17-.33-.3-.55-.4-.22-.1-.48-.15-.77-.15-.57 0-1.02.16-1.35.48-.33.33-.53.8-.63 1.39h3.73zm-3.76 1.2c.03.41.1.78.22 1.09.12.3.27.56.46.76.2.2.42.34.68.44.27.1.56.15.88.15.32 0 .6-.04.83-.11.23-.08.44-.16.6-.25l.46-.25a.8.8 0 01.38-.11c.17 0 .3.06.37.18l.57.72c-.22.26-.46.48-.74.65a4.31 4.31 0 01-1.75.63c-.3.05-.6.07-.9.07-.56 0-1.1-.1-1.59-.28a3.64 3.64 0 01-2.13-2.22 5.36 5.36 0 01-.04-3.48 3.72 3.72 0 012.02-2.16c.49-.21 1.04-.32 1.65-.32.52 0 1 .08 1.43.25a3.1 3.1 0 011.87 1.9c.18.45.27.98.27 1.57 0 .3-.03.5-.1.6-.06.11-.18.16-.37.16h-5.07zm13.9-2.63a.89.89 0 01-.17.18c-.06.04-.14.06-.24.06-.1 0-.2-.02-.3-.08l-.34-.21a2.24 2.24 0 00-1.16-.3c-.35 0-.65.06-.92.19-.26.12-.48.3-.65.53-.17.24-.3.52-.39.86-.08.33-.12.7-.12 1.13 0 .44.04.82.13 1.17.1.34.23.63.41.86a1.78 1.78 0 001.49.7 2.13 2.13 0 001.25-.36l.35-.26c.1-.08.21-.12.33-.12a.4.4 0 01.36.18l.57.72a3.69 3.69 0 01-2.36 1.28c-.29.05-.57.07-.86.07a3.42 3.42 0 01-2.6-1.11 4 4 0 01-.81-1.33 5.25 5.25 0 01-.29-1.8c0-.6.09-1.16.26-1.67.17-.52.43-.97.77-1.34a3.5 3.5 0 011.24-.89 4.3 4.3 0 011.72-.32 3.94 3.94 0 012.86 1.14l-.53.72zm7.12 1.97V109h-1.07c-.25 0-.46.03-.63.1-.16.08-.3.17-.4.29a.99.99 0 00-.22.38c-.04.15-.06.29-.06.43 0 .38.12.67.37.88.26.22.6.33 1.03.33h.98zm1.88-3.7v8.2h-1.88v-3.29h-.34c-.16 0-.3.02-.4.05a.77.77 0 00-.45.3l-.15.25-1.31 2.02-.21.3a.94.94 0 01-.25.2c-.1.06-.2.1-.33.14-.12.02-.27.04-.45.04h-1.37l2.08-2.9c.1-.2.24-.36.39-.49.15-.12.32-.22.53-.3a3.38 3.38 0 01-.99-.31 2.36 2.36 0 01-.64-.52 1.94 1.94 0 01-.48-1.3 2.1 2.1 0 01.75-1.66c.27-.21.6-.39 1.01-.52.41-.14.9-.21 1.48-.21h3.01zm11.63 6.74v3.63c0 .18-.05.32-.16.43-.1.1-.24.16-.4.16h-1.24v-2.75h-6.86v-8.21h1.97v6.74h3.2v-6.74h1.98v6.74h1.51z" fill="#5E78FF"/><circle cx="874.57" cy="80.42" r="71.5" stroke="#5E78FF" stroke-width="2"/><path d="M854.42 77.42h-2.17V67.5h-5.02v9.9h-2.16V65.86h9.35v11.57zm6.64-8.34c.61 0 1.16.1 1.66.3a3.6 3.6 0 012.1 2.17c.2.52.29 1.1.29 1.75 0 .65-.1 1.23-.29 1.76a3.54 3.54 0 01-2.1 2.18c-.5.2-1.05.3-1.66.3-.61 0-1.17-.1-1.67-.3a3.62 3.62 0 01-2.11-2.18c-.2-.53-.29-1.11-.29-1.76 0-.65.1-1.23.29-1.75.2-.53.47-.97.82-1.33.36-.37.79-.65 1.29-.84.5-.2 1.06-.3 1.67-.3zm0 6.94c.69 0 1.19-.23 1.51-.7.33-.45.5-1.12.5-2 0-.9-.17-1.57-.5-2.03-.32-.46-.83-.7-1.5-.7-.7 0-1.22.24-1.55.7-.33.47-.5 1.14-.5 2.02 0 .88.17 1.56.5 2.02.33.46.85.69 1.54.69zm13.97 1.4h-1.98v-6.7h-2.01c-.07 1.01-.16 1.88-.3 2.6-.13.73-.3 1.35-.48 1.86-.18.5-.38.91-.61 1.22-.23.3-.47.54-.72.71-.26.17-.52.29-.8.34a3.9 3.9 0 01-.82.09c-.3 0-.5-.03-.65-.08-.13-.05-.2-.12-.2-.21v-1.23h.47c.18 0 .36-.03.53-.08.18-.06.35-.17.51-.33.17-.17.33-.4.48-.7.15-.31.28-.72.4-1.22.13-.5.24-1.13.34-1.86.1-.73.17-1.6.22-2.62h5.62v8.2zm10.1-8.21v8.2h-1.98V73.8h-3.2v3.63h-1.97V69.2h1.97v3.11h3.2v-3.11h1.98zm7.3 4.7c-.58.03-1.06.08-1.45.16-.39.06-.7.16-.93.27-.24.1-.4.24-.5.39a.85.85 0 00-.16.49c0 .34.1.6.3.74.21.15.48.23.81.23.4 0 .76-.08 1.05-.22.3-.15.59-.37.87-.67V73.9zm-4.54-3.56a4.87 4.87 0 013.41-1.3c.48 0 .91.09 1.29.25a2.65 2.65 0 011.55 1.65c.14.4.21.82.21 1.28v5.19h-.9a.95.95 0 01-.43-.08c-.1-.06-.18-.18-.24-.35l-.17-.59c-.21.19-.41.35-.61.5a3.7 3.7 0 01-1.3.57 3.7 3.7 0 01-1.77-.06 1.9 1.9 0 01-1.26-1.12c-.1-.28-.17-.6-.17-.97a1.9 1.9 0 01.44-1.2c.16-.2.37-.37.62-.53a4 4 0 01.92-.44c.37-.12.8-.22 1.28-.3.48-.07 1.04-.12 1.66-.14v-.48c0-.55-.12-.95-.35-1.21-.23-.27-.57-.4-1.02-.4a2.45 2.45 0 00-1.35.37l-.44.24a.84.84 0 01-.43.12.59.59 0 01-.35-.1.96.96 0 01-.23-.26l-.36-.64zm13.6 2.56V70.5h-1.07c-.25 0-.46.03-.63.1-.16.08-.3.17-.4.29a.99.99 0 00-.22.38c-.04.15-.06.29-.06.43 0 .38.12.67.37.89.26.2.6.32 1.03.32h.98zm1.88-3.7v8.2h-1.88v-3.29h-.34c-.16 0-.3.02-.4.05a.8.8 0 00-.45.3l-.15.25-1.31 2.02a1.8 1.8 0 01-.21.3.96.96 0 01-.58.34c-.12.02-.27.04-.45.04h-1.37l2.08-2.9a1.66 1.66 0 01.92-.78 3.39 3.39 0 01-.99-.32 2.4 2.4 0 01-.64-.51 1.95 1.95 0 01-.48-1.3 2.1 2.1 0 01.75-1.66c.27-.22.6-.4 1.01-.53.41-.14.9-.21 1.48-.21h3.01zm-52.75 18.87c.6 0 1.16.1 1.65.3a3.6 3.6 0 012.1 2.17c.2.52.3 1.1.3 1.75 0 .65-.1 1.23-.3 1.76a3.54 3.54 0 01-2.1 2.18c-.5.2-1.04.3-1.65.3-.62 0-1.17-.1-1.67-.3a3.6 3.6 0 01-2.12-2.18c-.19-.53-.29-1.11-.29-1.76 0-.65.1-1.23.3-1.75.19-.53.46-.97.82-1.33.35-.37.78-.65 1.29-.84.5-.2 1.05-.3 1.67-.3zm0 6.94c.68 0 1.18-.23 1.5-.7.34-.45.5-1.12.5-2 0-.9-.16-1.57-.5-2.03-.32-.46-.82-.7-1.5-.7-.7 0-1.21.24-1.55.7-.33.47-.5 1.14-.5 2.02 0 .88.17 1.56.5 2.02.34.46.85.69 1.55.69zm13.7 1.4h-1.97v-6.75h-3.2v6.75h-1.98V88.2h7.15v8.2zm10.58 0h-1.98v-6.7h-2.01c-.07 1.01-.17 1.88-.3 2.6-.13.73-.3 1.35-.48 1.86-.18.5-.39.91-.62 1.22-.22.3-.46.54-.72.71-.25.17-.52.29-.79.34a3.9 3.9 0 01-.82.09c-.3 0-.51-.03-.65-.08-.13-.05-.2-.12-.2-.21v-1.23h.47c.18 0 .35-.03.53-.08.18-.06.35-.17.51-.33.17-.17.32-.4.47-.7.15-.31.29-.72.41-1.22.13-.5.24-1.13.34-1.86.1-.73.17-1.6.22-2.62h5.62v8.2zm7.28-3.5c-.57.02-1.05.07-1.44.15-.39.06-.7.16-.94.27-.23.1-.4.24-.5.39a.85.85 0 00-.15.49c0 .34.1.6.3.74.21.15.48.23.81.23.4 0 .75-.08 1.05-.22.3-.15.59-.37.87-.67V92.9zm-4.53-3.57a4.87 4.87 0 013.41-1.3c.48 0 .9.09 1.29.25a2.65 2.65 0 011.55 1.65c.14.4.2.82.2 1.28v5.19h-.89a.94.94 0 01-.43-.08c-.1-.06-.18-.18-.24-.35l-.18-.59a3.74 3.74 0 01-1.91 1.06 3.7 3.7 0 01-1.76-.05c-.3-.1-.55-.24-.76-.42a1.89 1.89 0 01-.5-.7c-.11-.28-.17-.6-.17-.97a1.9 1.9 0 01.44-1.2c.16-.2.37-.37.62-.53.25-.17.55-.31.92-.44.36-.12.8-.22 1.28-.3.48-.07 1.04-.12 1.66-.14v-.48c0-.55-.12-.95-.35-1.21-.24-.27-.58-.4-1.02-.4a2.45 2.45 0 00-1.35.37l-.44.24a.84.84 0 01-.43.12.58.58 0 01-.35-.1.96.96 0 01-.24-.26l-.35-.64zm16.22.32h-2.93v6.75h-1.98v-6.75h-2.92v-1.46h7.83v1.46zm6.45 3.24c-.57.03-1.05.08-1.44.16-.39.06-.7.16-.93.27-.24.1-.4.24-.5.39a.85.85 0 00-.16.49c0 .34.1.6.3.74.21.15.48.23.81.23.4 0 .75-.08 1.05-.22.3-.15.59-.37.87-.67V92.9zm-4.53-3.56a4.87 4.87 0 013.41-1.3c.48 0 .91.09 1.29.25a2.66 2.66 0 011.55 1.65c.14.4.2.82.2 1.28v5.19h-.89a.94.94 0 01-.43-.08c-.1-.06-.18-.18-.24-.35l-.17-.59c-.21.19-.42.35-.61.5a3.78 3.78 0 01-1.3.57 3.7 3.7 0 01-1.77-.06c-.3-.1-.54-.24-.76-.42a1.87 1.87 0 01-.5-.7 2.46 2.46 0 01-.07-1.58c.07-.21.19-.41.34-.6.16-.18.37-.36.62-.52.25-.17.55-.31.92-.44.37-.12.8-.22 1.28-.3.48-.07 1.04-.12 1.66-.14v-.48c0-.55-.12-.95-.35-1.21-.24-.27-.58-.4-1.02-.4a2.45 2.45 0 00-1.35.37l-.44.24a.84.84 0 01-.43.12.58.58 0 01-.35-.1.94.94 0 01-.24-.26l-.35-.64z" fill="#5E78FF"/><path d="M1142.16 6.13a71.27 71.27 0 1024.51 4.32" stroke="#5E78FF" stroke-width="2" stroke-dasharray="5.5 5.5"/><path d="M1139.27 1.88l4.23 4.26-4.24 4.24" stroke="#5E78FF" stroke-width="2" stroke-linecap="round"/><path d="M1103.73 67.42h-2.17V57.5h-5.02v9.9h-2.16V55.86h9.35v11.57zm10.7 0h-1.98v-6.7h-2.01c-.07 1.01-.17 1.88-.3 2.61a10.7 10.7 0 01-.48 1.85c-.18.5-.39.91-.61 1.22-.23.3-.47.54-.72.71-.26.17-.52.29-.8.34-.27.06-.54.09-.82.09-.29 0-.51-.03-.65-.08-.13-.05-.2-.12-.2-.21v-1.23h.47c.18 0 .36-.03.53-.08.18-.06.35-.17.51-.33.17-.17.33-.4.48-.7.14-.31.28-.72.4-1.22.13-.5.24-1.13.34-1.86.1-.73.17-1.6.22-2.62h5.62v8.2zm7.28-3.5c-.57.02-1.05.07-1.44.15-.39.06-.7.16-.93.27a1.2 1.2 0 00-.51.39.86.86 0 00-.15.49c0 .34.1.6.3.74.21.15.48.23.81.23.41 0 .76-.08 1.05-.22.3-.15.59-.37.87-.67V63.9zm-4.53-3.57a4.88 4.88 0 013.41-1.3c.48 0 .91.09 1.29.25a2.63 2.63 0 011.55 1.65c.14.4.21.82.21 1.28v5.19h-.9a.95.95 0 01-.43-.08c-.1-.06-.18-.18-.24-.35l-.17-.59a7.7 7.7 0 01-.61.5 3.62 3.62 0 01-3.07.5c-.29-.09-.54-.23-.76-.41a1.94 1.94 0 01-.49-.7c-.12-.28-.18-.6-.18-.97a1.92 1.92 0 01.44-1.2c.16-.2.37-.37.62-.53.25-.17.56-.31.92-.44.37-.12.79-.22 1.28-.3.48-.07 1.04-.12 1.66-.14v-.48c0-.55-.12-.95-.35-1.21-.23-.27-.57-.4-1.02-.4a2.48 2.48 0 00-1.35.37l-.44.24a.84.84 0 01-.43.12.56.56 0 01-.35-.1.78.78 0 01-.23-.26l-.36-.64zm16.47-1.14v8.2h-1.97V63.8h-3.2v3.63h-1.98V59.2h1.98v3.11h3.2v-3.11h1.97zm9.83 6.08c.22.27.46.46.72.58a2.25 2.25 0 001.68 0c.24-.12.44-.29.6-.52.18-.23.31-.51.4-.86.09-.35.13-.77.13-1.24 0-.48-.04-.89-.12-1.22-.07-.33-.18-.6-.33-.81-.14-.21-.32-.36-.52-.46-.21-.1-.44-.14-.7-.14-.41 0-.76.09-1.05.26-.29.17-.56.41-.81.73v3.68zm-.11-4.96c.34-.38.72-.69 1.15-.92.42-.24.92-.35 1.5-.35a2.62 2.62 0 012.18 1.1c.28.35.48.78.63 1.3a6.43 6.43 0 01-.03 3.5c-.16.52-.4.97-.71 1.35a3.2 3.2 0 01-2.57 1.23c-.45 0-.85-.07-1.17-.21a2.8 2.8 0 01-.87-.6v3.37h-1.98V59.2h1.21c.25 0 .42.12.5.36l.16.76zm12.54 3.58c-.57.03-1.05.08-1.44.16-.38.06-.7.16-.93.27-.24.1-.4.24-.51.39a.86.86 0 00-.15.49c0 .34.1.6.31.74.2.15.47.23.8.23.41 0 .76-.08 1.05-.22.3-.15.59-.37.87-.67V63.9zm-4.52-3.56a4.86 4.86 0 013.4-1.3c.48 0 .91.09 1.29.25a2.63 2.63 0 011.55 1.65c.14.4.21.82.21 1.28v5.19h-.89a1 1 0 01-.44-.08c-.1-.06-.18-.18-.24-.35l-.17-.59a7.7 7.7 0 01-.61.5 3.62 3.62 0 01-3.06.5c-.3-.09-.55-.23-.76-.41a1.85 1.85 0 01-.5-.7c-.12-.28-.18-.6-.18-.97a1.92 1.92 0 01.44-1.2c.16-.2.37-.37.62-.53.25-.17.56-.31.92-.44.37-.12.8-.22 1.28-.3.49-.07 1.04-.12 1.66-.14v-.48c0-.55-.11-.95-.35-1.21-.23-.27-.57-.4-1.01-.4a2.43 2.43 0 00-1.36.37l-.44.24a.81.81 0 01-.43.12.58.58 0 01-.35-.1.9.9 0 01-.23-.26l-.35-.64zm13.17 5.75c.68 0 1.19-.22 1.53-.66.33-.44.5-1.08.5-1.92 0-.84-.16-1.47-.49-1.91-.33-.44-.83-.66-1.5-.66s-1.18.21-1.54.63c-.35.4-.52 1.02-.52 1.85 0 .86.16 1.53.49 1.99.34.45.85.68 1.53.68zm.58-8.38c-.51.03-.93.13-1.29.3-.35.16-.65.38-.88.65-.23.28-.41.6-.53.99-.12.38-.19.8-.21 1.26a3.02 3.02 0 011.15-1.01 3.45 3.45 0 011.71-.4c.54 0 1.03.1 1.47.28.44.2.81.47 1.11.82.31.35.55.78.71 1.27a5.24 5.24 0 01-.05 3.3 3.52 3.52 0 01-2.11 2.08 4.7 4.7 0 01-1.66.28c-.59 0-1.14-.1-1.64-.3-.5-.18-.93-.5-1.29-.93-.36-.43-.64-.99-.85-1.68a11.44 11.44 0 01-.07-4.87 5.7 5.7 0 01.76-1.89c.35-.54.82-.98 1.39-1.3a4.9 4.9 0 012.11-.6l2.92-.22.1 1.02a1 1 0 01-.09.56c-.09.15-.24.23-.46.24l-2.3.15zm9.65 1.36c.61 0 1.16.1 1.66.3.5.2.92.47 1.28.84.35.36.63.8.82 1.33.19.52.29 1.1.29 1.75 0 .65-.1 1.23-.29 1.76a3.62 3.62 0 01-2.1 2.18c-.5.2-1.05.3-1.66.3-.61 0-1.17-.1-1.67-.3a3.66 3.66 0 01-2.11-2.18 4.9 4.9 0 01-.29-1.76c0-.65.09-1.23.29-1.75.19-.53.47-.97.82-1.33.36-.37.79-.65 1.29-.84.5-.2 1.06-.3 1.67-.3zm0 6.94c.68 0 1.19-.23 1.51-.7.33-.45.5-1.12.5-2 0-.9-.17-1.57-.5-2.03-.32-.46-.83-.7-1.51-.7-.69 0-1.21.24-1.54.7-.34.47-.5 1.14-.5 2.02 0 .88.16 1.56.5 2.02.33.46.85.69 1.54.69zm13.36-5.35h-2.93v6.75h-1.97v-6.75h-2.92v-1.46h7.82v1.46zm-98.19 17.54v8.2h-1.98V82.8h-3.2v3.63h-1.97V78.2h1.97v3.11h3.2v-3.11h1.98zm7.29 4.7c-.57.03-1.05.08-1.44.16-.39.06-.7.16-.94.27-.23.1-.4.24-.5.39a.86.86 0 00-.15.49c0 .34.1.6.3.74.21.15.48.23.81.23.41 0 .76-.08 1.05-.22.3-.15.59-.37.87-.67V82.9zm-4.53-3.56a4.88 4.88 0 013.41-1.3c.48 0 .91.09 1.29.25a2.63 2.63 0 011.55 1.65c.14.4.21.82.21 1.28v5.19h-.9a.95.95 0 01-.43-.08c-.1-.06-.18-.18-.24-.35l-.18-.59c-.2.19-.41.35-.6.5-.2.14-.41.25-.62.35a3.65 3.65 0 01-2.45.16c-.29-.1-.54-.24-.76-.42a1.83 1.83 0 01-.49-.7 2.42 2.42 0 01-.08-1.58c.07-.21.19-.41.34-.6a3.84 3.84 0 011.54-.96c.36-.12.79-.22 1.28-.3.48-.07 1.04-.12 1.66-.14v-.48c0-.55-.12-.95-.35-1.21-.24-.27-.57-.4-1.02-.4a2.48 2.48 0 00-1.35.37l-.44.24a.84.84 0 01-.43.12.56.56 0 01-.35-.1.95.95 0 01-.24-.26l-.35-.64zm20.09.6a.93.93 0 01-.18.17c-.05.04-.13.07-.24.07-.1 0-.2-.03-.29-.1a4.86 4.86 0 00-.83-.4c-.18-.07-.4-.1-.68-.1-.34 0-.65.06-.91.19-.26.12-.48.3-.65.53-.17.24-.3.52-.39.86a4.79 4.79 0 00.01 2.3c.1.34.23.62.41.86a1.75 1.75 0 001.49.7c.31 0 .56-.03.76-.1.19-.09.36-.17.49-.26l.35-.26c.1-.08.21-.12.33-.12a.4.4 0 01.36.18l.57.72a3.9 3.9 0 01-1.51 1.07 5.95 5.95 0 01-1.71.28 3.43 3.43 0 01-2.61-1.11 4 4 0 01-.8-1.33 5.3 5.3 0 01-.29-1.8c0-.6.09-1.16.26-1.67a3.58 3.58 0 012.01-2.22c.5-.22 1.07-.33 1.71-.33a3.89 3.89 0 012.86 1.14l-.52.73zm10.46 6.47h-1.98v-6.7h-2.02c-.06 1.01-.16 1.88-.29 2.6-.14.73-.3 1.35-.48 1.86-.18.5-.39.91-.62 1.22-.22.3-.46.54-.72.71-.25.17-.52.29-.79.34a3.9 3.9 0 01-.82.09c-.3 0-.51-.03-.65-.08s-.2-.12-.2-.21v-1.23h.47c.18 0 .35-.03.53-.08.17-.06.34-.17.51-.33.16-.17.32-.4.47-.7.15-.31.29-.72.41-1.22.13-.5.24-1.13.34-1.86.09-.73.17-1.6.22-2.62h5.62v8.2zm8.23-5.05c0-.26-.04-.5-.11-.72a1.54 1.54 0 00-.87-1c-.22-.1-.48-.15-.77-.15-.57 0-1.02.16-1.35.49-.33.32-.54.78-.63 1.38h3.73zm-3.77 1.2c.03.41.11.78.23 1.09.11.3.27.55.46.76.19.2.42.34.68.45.27.1.56.14.88.14.32 0 .59-.04.82-.11.24-.08.44-.16.61-.25l.46-.25a.77.77 0 01.38-.11c.17 0 .29.06.37.18l.57.72a3.48 3.48 0 01-1.59 1.07 4.93 4.93 0 01-1.8.28c-.57 0-1.1-.1-1.59-.28a3.62 3.62 0 01-2.13-2.22 5.3 5.3 0 01-.04-3.48c.18-.5.44-.92.77-1.29a3.74 3.74 0 012.9-1.19 4 4 0 011.43.25 3.12 3.12 0 011.86 1.9c.19.45.28.98.28 1.57 0 .3-.04.5-.1.6-.06.11-.19.16-.37.16h-5.08zM1141.2 85v-5.29h-2.02c-.05.69-.12 1.31-.2 1.87a14.53 14.53 0 01-.63 2.6c-.12.32-.25.59-.4.82h3.25zm3.42-.06v3.63c0 .18-.05.32-.16.43-.1.1-.23.16-.4.16h-1.23v-2.75h-6.14v2.19c0 .14-.05.27-.14.38-.08.12-.22.18-.41.18h-1.24v-4.16h.23c.18 0 .37-.02.54-.07.18-.06.35-.16.51-.32.16-.16.32-.4.46-.7.15-.3.28-.7.4-1.2s.22-1.13.3-1.86c.09-.74.17-1.62.22-2.65h5.56v6.74h1.5zm9.27-6.74l-4.48 10.46a.63.63 0 01-.23.32c-.09.07-.23.1-.42.1h-1.47l1.53-3.29-3.32-7.59h1.74c.15 0 .27.04.36.11.09.08.16.16.2.26l1.74 4.25.15.44.12.44a6.37 6.37 0 01.3-.88l1.65-4.25c.04-.1.11-.2.21-.27.1-.07.21-.1.33-.1h1.59zm9.39 6.8c.64 0 1.12-.22 1.42-.68.3-.46.46-1.13.46-2.02 0-.88-.16-1.56-.46-2.02-.3-.46-.78-.7-1.42-.7-.64 0-1.11.24-1.41.7a3.63 3.63 0 00-.46 2.02c0 .89.15 1.56.45 2.02.3.46.78.69 1.42.69zm-3.8-3.46c.06-.54.19-1.02.4-1.44a3.38 3.38 0 011.94-1.79c.44-.16.93-.24 1.46-.24.6 0 1.13.1 1.61.3.48.2.89.47 1.23.84.35.36.61.8.8 1.33a5.35 5.35 0 01-.01 3.5 3.55 3.55 0 01-2.05 2.18 4.32 4.32 0 01-3.08.05 3.32 3.32 0 01-1.94-1.83 4.89 4.89 0 01-.37-1.5h-1.63v3.47h-1.97V78.2h1.97v3.34h1.64zm23.07 3.4v3.63c0 .18-.05.32-.16.43-.1.1-.23.16-.4.16h-1.23v-2.75h-11.06V78.2h1.97v6.74h2.71v-6.74h1.98v6.74h2.71v-6.74h1.98v6.74h1.5zm9.63-6.74v8.2h-1.97v-4.78l.01-.4.06-.45a4.93 4.93 0 01-.51.87 19.83 19.83 0 00-.89 1.25l-.59.81-1.57 2.23a2 2 0 01-.3.33.59.59 0 01-.41.16h-1.2v-8.21h1.97V83l-.02.4-.05.45a4.17 4.17 0 01.5-.87l.37-.52.52-.72.59-.83 1.58-2.22c.07-.12.17-.23.3-.33a.6.6 0 01.41-.16h1.2zm10.33 0v8.2h-1.98v-4.78l.02-.4.06-.45c-.11.24-.23.46-.36.65l-.16.22-.37.52-.51.73-.59.81-1.57 2.23a2 2 0 01-.3.33.59.59 0 01-.41.16h-1.21v-8.21h1.98V83l-.02.4-.05.45a4.17 4.17 0 01.5-.87l.37-.52.52-.72.58-.83 1.59-2.22c.07-.12.17-.23.29-.33.13-.1.27-.16.42-.16h1.2zm-3.58-2.08c.2 0 .37-.02.5-.06a.69.69 0 00.32-.21.9.9 0 00.17-.4c.03-.17.05-.37.05-.61h1.16c.14 0 .24.06.31.18.07.1.1.23.1.37 0 .27-.06.52-.18.75-.12.21-.3.4-.53.56-.23.14-.5.26-.82.35a4.46 4.46 0 01-2.15 0c-.32-.09-.59-.2-.82-.35a1.62 1.62 0 01-.53-.56 1.55 1.55 0 01-.18-.75c0-.14.03-.26.09-.37a.35.35 0 01.31-.18h1.17c0 .24.02.44.05.6.03.17.09.3.17.4.08.1.18.17.31.22.13.04.3.06.5.06zm-70.17 21.06v8.23h-1.78v-4.58l.02-.63c.02-.24.06-.45.1-.66l-2.42 4.44a.58.58 0 01-.56.34h-.21a.6.6 0 01-.56-.34l-2.44-4.46a10.36 10.36 0 01.12 1.31v4.58h-1.78v-8.23h1.63a1 1 0 01.41.1.7.7 0 01.34.34l1.94 3.46c.09.16.17.33.24.51l.21.54.2-.55c.07-.18.15-.35.24-.5l1.92-3.46a.7.7 0 01.34-.35c.14-.06.27-.09.41-.09h1.63zm8.25 3.18c0-.26-.04-.5-.11-.72a1.5 1.5 0 00-.88-1c-.22-.1-.47-.15-.76-.15-.58 0-1.03.16-1.36.49-.32.32-.53.78-.62 1.38h3.73zm-3.77 1.2c.03.41.11.78.22 1.09.12.3.28.56.47.76.19.2.42.34.68.44.26.1.56.15.88.15.32 0 .59-.04.82-.11a8.6 8.6 0 001.07-.5.78.78 0 01.38-.11c.16 0 .29.06.37.18l.57.72a3.48 3.48 0 01-1.6 1.07 6.3 6.3 0 01-1.79.28c-.57 0-1.1-.1-1.59-.28a3.62 3.62 0 01-2.14-2.22 5.54 5.54 0 01-.04-3.48 3.7 3.7 0 013.68-2.48c.51 0 .99.08 1.43.25.43.16.81.4 1.13.73.31.31.56.7.73 1.17.18.45.27.98.27 1.57 0 .3-.03.5-.09.6-.07.11-.19.16-.37.16h-5.08zm13.91-2.62a.93.93 0 01-.18.17c-.05.04-.13.07-.24.07-.1 0-.2-.03-.3-.1a4.45 4.45 0 00-.82-.4c-.18-.07-.41-.1-.68-.1-.35 0-.65.06-.91.19-.26.12-.48.3-.66.53-.17.24-.3.52-.38.86a4.58 4.58 0 00.01 2.3c.09.34.23.63.4.86.18.23.39.4.64.53.26.11.54.17.85.17a2.1 2.1 0 001.26-.36l.34-.26c.1-.08.22-.12.34-.12a.4.4 0 01.36.18l.57.72a3.64 3.64 0 01-1.52 1.07 5.92 5.92 0 01-1.71.28 3.46 3.46 0 01-2.61-1.11c-.33-.37-.6-.81-.8-1.33a5.3 5.3 0 01-.28-1.8c0-.6.08-1.16.25-1.67.18-.52.43-.97.77-1.34.34-.38.75-.68 1.25-.89a4.29 4.29 0 011.71-.32c.61 0 1.15.1 1.61.3a4 4 0 011.25.85l-.52.72zm7.12 1.95v-2.4h-1.08c-.25 0-.46.03-.62.1-.17.08-.3.17-.41.29a.95.95 0 00-.21.38c-.05.15-.07.29-.07.43 0 .38.13.67.38.88.25.22.59.33 1.02.33h.99zm1.88-3.69v8.2h-1.88v-3.29h-.35c-.16 0-.29.02-.4.05a.76.76 0 00-.26.12.91.91 0 00-.19.18l-.15.25-1.31 2.02-.21.3a.9.9 0 01-.25.2c-.09.06-.2.1-.32.14-.13.02-.28.04-.45.04h-1.37l2.07-2.9a1.63 1.63 0 01.92-.78 3.37 3.37 0 01-.98-.32 2.25 2.25 0 01-.65-.52 1.95 1.95 0 01-.47-1.3c0-.3.06-.59.17-.88.13-.29.32-.54.58-.77.26-.22.6-.4 1.01-.53.41-.14.9-.21 1.48-.21h3.01zm11.62 6.74v3.63c0 .18-.05.32-.16.43-.1.1-.24.16-.4.16h-1.24v-2.75h-6.86V97.2h1.98v6.74h3.2v-6.74h1.97v6.74h1.51z" fill="#5E78FF"/></svg>