<svg width="1148" height="367" fill="none" xmlns="http://www.w3.org/2000/svg"><circle cx="573.49" cy="124.22" r="122.24" fill="#fff" stroke="#5E78FF" stroke-width="2"/><path d="M98.92 95.36v2.22h-9.6v-2.22h3.51V85.25c0-.4.01-.82.04-1.24l-2.5 2.09a1.1 1.1 0 01-.43.21 1.1 1.1 0 01-.72-.12.76.76 0 01-.22-.2l-.93-1.28 5.29-4.5h2.44v15.15h3.12zm9.96-8.57a5.93 5.93 0 011.86-1.27c.7-.3 1.5-.44 2.42-.44.97 0 1.83.16 2.57.48a5.46 5.46 0 013.02 3.34c.27.76.4 1.6.4 2.5 0 1.01-.15 1.91-.45 2.7a5.87 5.87 0 01-1.18 2 5.14 5.14 0 01-3.91 1.66c-.44 0-.87-.03-1.31-.1a6.43 6.43 0 01-1.29-.32 5.52 5.52 0 01-2.26-1.6l.81-.99a.64.64 0 01.55-.26.7.7 0 01.34.08c.1.05.21.1.32.18l.38.25a4.27 4.27 0 001.08.43c.23.05.5.08.82.08.83 0 1.52-.28 2.07-.82.55-.55.89-1.35 1.02-2.39h-5.22V90.3h5.2a3.82 3.82 0 00-1.03-2.18 2.85 2.85 0 00-2.1-.78 4.26 4.26 0 00-1.76.4c-.21.1-.39.2-.54.29a.9.9 0 01-.44.12.62.62 0 01-.38-.1 1.62 1.62 0 01-.25-.26l-.74-.99zm23.74.68h-4.4v10.11h-2.95V87.47h-4.38v-2.2h11.73v2.2zm9.18 4.86c-.86.04-1.58.11-2.16.22a5.6 5.6 0 00-1.4.41c-.36.17-.6.37-.76.59-.15.22-.23.47-.23.73 0 .52.15.9.46 1.12.3.22.71.33 1.2.33.62 0 1.14-.1 1.58-.32.45-.22.88-.56 1.3-1v-2.08zm-6.8-5.34a7.3 7.3 0 015.12-1.95c.72 0 1.36.12 1.93.36a3.98 3.98 0 012.33 2.49c.2.58.31 1.22.31 1.92v7.77h-1.34c-.28 0-.5-.04-.65-.12-.15-.09-.27-.26-.36-.51l-.27-.9c-.3.29-.61.54-.9.75a4.7 4.7 0 01-1.96.85 5.54 5.54 0 01-2.64-.08 3.24 3.24 0 01-1.14-.64 2.83 2.83 0 01-.75-1.04 3.7 3.7 0 01-.1-2.38c.1-.3.27-.6.5-.88.24-.28.55-.55.92-.8a6 6 0 011.38-.64c.56-.19 1.2-.34 1.92-.45.73-.12 1.56-.19 2.5-.21v-.72c0-.83-.18-1.44-.53-1.83-.35-.4-.86-.6-1.52-.6a3.67 3.67 0 00-2.03.55l-.66.38c-.2.1-.4.16-.65.16a.88.88 0 01-.53-.15 1.43 1.43 0 01-.34-.39L135 87zm24.21 10.6h-2.96V87.46h-4.8v10.11h-2.97V85.27h10.73v12.31z" fill="#5E78FF"/><path d="M102.71 127.78c0 .97-.15 1.85-.45 2.66a5.84 5.84 0 01-3.31 3.44 6.8 6.8 0 01-2.6.48 6.8 6.8 0 01-2.6-.48 5.85 5.85 0 01-3.3-3.44c-.3-.8-.45-1.7-.45-2.66 0-.97.15-1.85.46-2.66.3-.8.73-1.5 1.3-2.08a5.8 5.8 0 012-1.37 6.7 6.7 0 012.59-.49c.95 0 1.81.16 2.6.49a5.78 5.78 0 013.3 3.45c.31.8.46 1.7.46 2.66zm-1.79 0c0-.8-.1-1.5-.32-2.13a4.46 4.46 0 00-.92-1.6c-.4-.43-.88-.77-1.44-1a4.89 4.89 0 00-1.89-.36c-.69 0-1.32.12-1.88.36a4.04 4.04 0 00-2.37 2.6 6.55 6.55 0 00-.32 2.13c0 .8.1 1.5.32 2.13a4.1 4.1 0 002.37 2.6c.56.22 1.2.34 1.88.34a5 5 0 001.9-.34 4.01 4.01 0 002.35-2.6c.22-.63.32-1.34.32-2.13zm14 5.23v3.86c0 .16-.05.28-.14.36a.43.43 0 01-.33.14h-.98v-3.15h-7.81v-9.11h1.6v7.9h4.38v-7.9h1.61v7.9h1.67zm8.56-4.34c0-.37-.05-.71-.16-1.02a2.16 2.16 0 00-2.17-1.5c-.77 0-1.38.22-1.83.67a3.13 3.13 0 00-.82 1.85h4.98zm1.3 4.28c-.2.24-.44.45-.71.63a4.53 4.53 0 01-1.87.68c-.33.06-.67.09-1 .09-.63 0-1.2-.1-1.74-.31a3.95 3.95 0 01-2.28-2.47 6.2 6.2 0 01-.03-3.87c.2-.55.48-1.03.84-1.43.37-.41.82-.73 1.34-.96a4.35 4.35 0 013.3-.07 3.54 3.54 0 012 2.07c.2.5.3 1.08.3 1.73 0 .25-.04.42-.09.5-.05.09-.16.13-.3.13h-6.1c.02.58.1 1.08.24 1.5.14.43.34.79.59 1.07.25.29.55.5.9.64s.74.21 1.17.21a3.5 3.5 0 001.8-.44c.2-.1.38-.2.51-.3a.7.7 0 01.37-.14c.13 0 .24.05.3.15l.46.59zm10.7-7.84v9.11h-1.6v-4.26h-4.38v4.26h-1.61v-9.11h1.61v3.63h4.38v-3.63h1.6zm9.09.45c.08-.14.2-.24.33-.33a.83.83 0 01.44-.12h1.25l-2.36 3.47c-.15.22-.3.4-.45.55-.16.14-.35.25-.58.32.29.08.53.2.73.37.2.17.37.38.53.63l2.4 3.77h-1.12c-.29 0-.51-.04-.67-.14-.15-.1-.29-.23-.4-.41l-1.78-2.84c-.28-.47-.7-.7-1.26-.7h-.99v4.1h-1.6v-9.12h1.6v3.94h.87c.48 0 .85-.2 1.12-.61l1.94-2.88zm9.72 4.56c-.74.02-1.37.08-1.89.18-.52.09-.94.21-1.27.36a1.8 1.8 0 00-.71.53c-.14.2-.22.43-.22.69 0 .24.04.44.12.62.08.17.18.31.32.43.13.1.3.19.47.24a3.44 3.44 0 001.37 0 3.48 3.48 0 001.25-.64c.2-.16.38-.33.56-.52v-1.89zm-5.17-3.73a5.03 5.03 0 013.56-1.45c.5 0 .96.09 1.36.26a2.79 2.79 0 011.6 1.79c.15.42.22.9.22 1.4v5.83h-.72a.73.73 0 01-.35-.07c-.09-.05-.16-.15-.2-.3l-.18-.87c-.24.22-.48.42-.7.6a3.88 3.88 0 01-1.53.7 4.15 4.15 0 01-1.95-.06 2.18 2.18 0 01-1.37-1.2c-.13-.3-.2-.66-.2-1.07 0-.36.1-.7.3-1.04.2-.33.52-.63.97-.89a6.23 6.23 0 011.73-.63 13 13 0 012.63-.29v-.7c0-.72-.15-1.25-.46-1.61-.3-.37-.75-.55-1.34-.55a2.84 2.84 0 00-1.7.49l-.5.33a.72.72 0 01-.41.14c-.1 0-.2-.02-.28-.08a.85.85 0 01-.2-.21l-.28-.52zm-53.28 37.83h-1.6v-7.89h-4.38v7.9h-1.61v-9.12h7.6v9.11zm5.16-2.2c.3.4.62.68.97.84.34.17.73.25 1.17.25.85 0 1.5-.3 1.96-.91.45-.6.68-1.47.68-2.6 0-.59-.05-1.1-.16-1.52-.1-.43-.25-.78-.45-1.05s-.44-.47-.73-.6a2.42 2.42 0 00-.98-.19c-.52 0-.98.12-1.38.36-.39.24-.75.58-1.08 1.02v4.4zm-.08-5.5c.39-.47.83-.86 1.33-1.14.5-.3 1.08-.44 1.73-.44.53 0 1 .1 1.43.31.43.2.8.5 1.1.9.3.38.52.87.68 1.45a7.5 7.5 0 01-.02 3.89 4.53 4.53 0 01-.79 1.5c-.33.42-.75.75-1.24 1-.48.24-1.03.36-1.64.36a3.4 3.4 0 01-1.44-.28c-.4-.2-.75-.45-1.06-.8v4.04h-1.6v-12.2h.95c.23 0 .37.1.43.33l.14 1.08zm13.39-1.56c.66 0 1.26.11 1.8.34a3.86 3.86 0 012.23 2.43c.2.57.3 1.22.3 1.93 0 .72-.1 1.37-.3 1.94a3.86 3.86 0 01-2.23 2.42c-.54.22-1.14.33-1.8.33-.68 0-1.28-.1-1.82-.32a3.86 3.86 0 01-2.24-2.43c-.2-.57-.3-1.22-.3-1.94 0-.71.1-1.36.3-1.93a3.86 3.86 0 012.24-2.43 4.74 4.74 0 011.82-.34zm0 8.14c.9 0 1.57-.3 2.01-.9.45-.6.67-1.45.67-2.53 0-1.09-.22-1.93-.67-2.54-.44-.6-1.11-.9-2.01-.9-.46 0-.86.07-1.2.23-.34.15-.62.38-.85.67-.22.3-.39.66-.5 1.1-.1.42-.16.9-.16 1.44 0 1.08.22 1.92.66 2.53.45.6 1.13.9 2.05.9zm13.47-4.43c0-.37-.06-.71-.16-1.02a2.16 2.16 0 00-2.17-1.5c-.77 0-1.38.22-1.83.67a3.13 3.13 0 00-.83 1.85h4.99zm1.3 4.28c-.2.24-.44.45-.72.63a4.53 4.53 0 01-1.86.68c-.34.06-.67.09-1 .09-.63 0-1.21-.1-1.75-.31a3.95 3.95 0 01-2.27-2.47 6.2 6.2 0 01-.04-3.87c.2-.55.48-1.03.85-1.43.36-.41.81-.73 1.34-.96a4.35 4.35 0 013.3-.07 3.54 3.54 0 012 2.07c.2.5.29 1.08.29 1.73 0 .25-.03.42-.08.5-.06.09-.16.13-.3.13h-6.1c.02.58.1 1.08.23 1.5.15.43.34.79.6 1.07.25.29.55.5.9.64.34.14.73.21 1.17.21a3.5 3.5 0 001.79-.44c.2-.1.38-.2.52-.3a.7.7 0 01.37-.14c.13 0 .23.05.3.15l.45.59zm8.64-7.4c.09-.13.2-.23.33-.32a.83.83 0 01.44-.12h1.26l-2.37 3.47c-.14.22-.3.4-.45.55-.16.14-.35.25-.58.32.3.08.53.2.73.37.2.17.38.38.53.63l2.4 3.77h-1.12c-.29 0-.5-.04-.66-.14-.16-.1-.3-.23-.41-.41l-1.77-2.84c-.29-.47-.7-.7-1.27-.7h-.98v4.1h-1.61v-9.12h1.6v3.94h.87c.48 0 .86-.2 1.13-.61l1.93-2.88zm12.36.78h-3.5v7.9h-1.6v-7.9h-3.5v-1.22h8.6v1.22zm7.38 3.79c-.74.02-1.37.08-1.89.18-.51.09-.94.21-1.27.36a1.8 1.8 0 00-.7.53c-.15.2-.22.43-.22.69 0 .24.03.44.11.62.08.17.19.31.32.43.13.1.3.19.47.24a3.44 3.44 0 001.37 0 3.48 3.48 0 001.25-.64c.2-.16.38-.33.56-.52v-1.89zm-5.17-3.73a5.03 5.03 0 013.56-1.45c.51 0 .96.09 1.36.26a2.79 2.79 0 011.61 1.79c.14.42.2.9.2 1.4v5.83h-.7a.73.73 0 01-.36-.07c-.09-.05-.15-.15-.2-.3l-.18-.87c-.24.22-.48.42-.7.6a3.88 3.88 0 01-1.53.7 4.15 4.15 0 01-1.95-.06 2.18 2.18 0 01-1.37-1.2c-.13-.3-.2-.66-.2-1.07 0-.36.1-.7.3-1.04.2-.33.52-.63.97-.89a6.23 6.23 0 011.73-.63 13 13 0 012.63-.29v-.7c0-.72-.15-1.25-.46-1.61-.3-.37-.75-.55-1.34-.55a2.84 2.84 0 00-1.7.49l-.5.33a.72.72 0 01-.4.14c-.12 0-.21-.02-.29-.08a.85.85 0 01-.2-.21l-.28-.52z" fill="#414141"/><path d="M323.01 94.82c.32 0 .57.1.76.28.19.17.29.41.29.7v1.78h-11.9v-.98a1.67 1.67 0 01.53-1.22l5.26-5.29c.44-.44.83-.87 1.17-1.28.36-.4.65-.81.88-1.21.23-.4.4-.8.53-1.21.13-.42.19-.86.19-1.31 0-.42-.06-.78-.18-1.1-.12-.31-.3-.58-.52-.8a2 2 0 00-.79-.48c-.3-.11-.65-.17-1.03-.17a3.02 3.02 0 00-1.78.58 2.56 2.56 0 00-.94 1.42c-.14.36-.32.6-.53.73-.22.12-.53.15-.94.08l-1.56-.27c.12-.84.35-1.56.7-2.19a5.2 5.2 0 013.06-2.52 7.02 7.02 0 014.35.04 4.54 4.54 0 012.8 2.56c.28.6.4 1.28.4 2.02 0 .64-.09 1.23-.28 1.78a7.02 7.02 0 01-.76 1.56c-.3.5-.68.97-1.1 1.44-.42.46-.87.93-1.33 1.41l-3.91 4a8.26 8.26 0 012.18-.35h4.45zm10.61-8.03a5.93 5.93 0 011.86-1.27c.7-.3 1.5-.44 2.42-.44.97 0 1.83.16 2.57.48a5.46 5.46 0 013.02 3.34c.27.76.4 1.6.4 2.5 0 1.01-.14 1.91-.44 2.7a5.87 5.87 0 01-1.19 2 5.14 5.14 0 01-3.91 1.66c-.43 0-.87-.03-1.3-.1a6.43 6.43 0 01-1.3-.32 5.52 5.52 0 01-2.26-1.6l.81-.99a.64.64 0 01.56-.26.7.7 0 01.33.08c.1.05.21.1.33.18l.37.25a4.27 4.27 0 001.08.43c.23.05.5.08.83.08.82 0 1.5-.28 2.06-.82.55-.55.9-1.35 1.02-2.39h-5.22V90.3h5.2a3.82 3.82 0 00-1.02-2.18 2.85 2.85 0 00-2.11-.78 4.26 4.26 0 00-1.76.4l-.54.29a.9.9 0 01-.44.12.62.62 0 01-.37-.1 1.62 1.62 0 01-.25-.26l-.75-.99zm23.75.68h-4.4v10.11h-2.96V87.47h-4.38v-2.2h11.74v2.2zm9.17 4.86c-.85.04-1.57.11-2.16.22a5.6 5.6 0 00-1.4.41c-.35.17-.6.37-.76.59-.15.22-.22.47-.22.73 0 .52.15.9.45 1.12.31.22.72.33 1.21.33.61 0 1.14-.1 1.58-.32.44-.22.88-.56 1.3-1v-2.08zm-6.79-5.34a7.3 7.3 0 015.11-1.95c.72 0 1.37.12 1.94.36a3.98 3.98 0 012.32 2.49c.21.58.32 1.22.32 1.92v7.77h-1.35c-.28 0-.5-.04-.65-.12-.15-.09-.27-.26-.36-.51l-.26-.9c-.31.29-.62.54-.91.75a4.7 4.7 0 01-1.96.85 5.54 5.54 0 01-2.64-.08 3.24 3.24 0 01-1.14-.64 2.83 2.83 0 01-.74-1.04 3.7 3.7 0 01-.11-2.38c.1-.3.27-.6.5-.88.24-.28.55-.55.93-.8a6 6 0 011.38-.64c.55-.19 1.19-.34 1.92-.45.73-.12 1.56-.19 2.5-.21v-.72c0-.83-.18-1.44-.53-1.83-.36-.4-.86-.6-1.53-.6a3.67 3.67 0 00-2.03.55l-.66.38c-.19.1-.4.16-.64.16a.88.88 0 01-.53-.15 1.43 1.43 0 01-.35-.39l-.53-.94zm24.2 10.6H381V87.46h-4.8v10.11h-2.96V85.27h10.72v12.31z" fill="#5E78FF"/><path d="M272.57 134.22h-1.76V122.7h-6.44v11.52h-1.75v-12.9h9.95v12.9zm5.38-2.2c.3.4.62.68.97.84.34.17.73.25 1.16.25.86 0 1.51-.3 1.97-.91.45-.6.68-1.47.68-2.6 0-.59-.05-1.1-.16-1.52-.1-.43-.25-.78-.45-1.05s-.44-.47-.73-.6a2.42 2.42 0 00-.98-.19c-.52 0-.98.12-1.38.36-.39.24-.75.58-1.08 1.02v4.4zm-.08-5.5c.38-.47.83-.85 1.33-1.14.5-.3 1.08-.44 1.73-.44.53 0 1 .1 1.43.31.43.2.8.5 1.1.9.3.38.52.87.68 1.45a7.5 7.5 0 01-.02 3.89 4.53 4.53 0 01-.79 1.5c-.33.42-.75.75-1.24 1-.48.24-1.03.36-1.64.36a3.4 3.4 0 01-1.44-.28c-.4-.2-.75-.45-1.06-.8v4.04h-1.6v-12.2h.95c.23 0 .37.1.43.33l.14 1.08zm13.39-1.56c.66 0 1.26.11 1.8.34a3.86 3.86 0 012.23 2.43c.2.57.3 1.22.3 1.93 0 .72-.1 1.37-.3 1.94a3.86 3.86 0 01-2.23 2.42c-.54.22-1.14.33-1.8.33-.68 0-1.28-.1-1.82-.32a3.86 3.86 0 01-2.24-2.43c-.2-.57-.3-1.22-.3-1.94 0-.71.1-1.36.3-1.93a3.86 3.86 0 012.24-2.43 4.74 4.74 0 011.82-.34zm0 8.14c.9 0 1.57-.3 2.01-.9.45-.6.67-1.45.67-2.53 0-1.09-.22-1.93-.67-2.54-.44-.6-1.11-.9-2.01-.9-.46 0-.86.07-1.2.23-.34.15-.62.38-.85.67-.22.3-.39.66-.5 1.1-.1.42-.16.9-.16 1.44 0 1.08.22 1.92.66 2.53.45.6 1.13.9 2.05.9zm14.57-6.77h-3.5v7.9h-1.6v-7.9h-3.5v-1.22h8.6v1.22zm6-1.37c.67 0 1.27.11 1.8.34a3.86 3.86 0 012.24 2.43c.2.57.3 1.22.3 1.93 0 .72-.1 1.37-.3 1.94a3.86 3.86 0 01-2.23 2.42c-.54.22-1.14.33-1.8.33-.68 0-1.28-.1-1.82-.32a3.86 3.86 0 01-2.24-2.43c-.2-.57-.3-1.22-.3-1.94 0-.71.1-1.36.3-1.93a3.86 3.86 0 012.24-2.43 4.74 4.74 0 011.82-.34zm0 8.14c.9 0 1.58-.3 2.02-.9.45-.6.67-1.45.67-2.53 0-1.09-.22-1.93-.67-2.54-.44-.6-1.11-.9-2.01-.9-.46 0-.86.07-1.2.23-.34.15-.62.38-.85.67-.22.3-.39.66-.5 1.1-.1.42-.16.9-.16 1.44 0 1.08.22 1.92.66 2.53.45.6 1.13.9 2.05.9zm14.59-6.77h-3.5v7.9h-1.6v-7.9h-3.5v-1.22h8.6v1.22zm10.34-1.22v9.11h-1.6v-6.19a4.48 4.48 0 01.06-.8 5.8 5.8 0 01-.33.61l-4.4 5.99c-.07.1-.15.19-.25.28-.1.08-.2.12-.33.12h-.97v-9.11h1.61v6.19a4.4 4.4 0 01-.06.78 5.08 5.08 0 01.32-.6l4.4-5.98c.07-.1.16-.18.26-.27a.5.5 0 01.33-.13h.96zm11.13 9.11h-1.6v-7.89h-4.38v7.9h-1.61v-9.12h7.6v9.11zm11.37-9.11v9.11h-1.6v-6.19a4.48 4.48 0 01.06-.8 5.8 5.8 0 01-.33.61l-4.4 5.99c-.07.1-.15.19-.26.28-.1.08-.2.12-.32.12h-.97v-9.11h1.6v6.19a4.4 4.4 0 01-.05.78 5.08 5.08 0 01.32-.6l4.4-5.98c.07-.1.15-.18.25-.27a.5.5 0 01.34-.13h.96zm5.14 6.92c.3.4.62.67.97.84.34.16.73.24 1.17.24.85 0 1.5-.3 1.96-.91.45-.6.68-1.47.68-2.6 0-.59-.05-1.1-.16-1.52-.1-.43-.25-.78-.45-1.05s-.44-.47-.73-.6a2.42 2.42 0 00-.98-.19c-.52 0-.98.12-1.38.36-.39.24-.75.58-1.08 1.02v4.4zm-.08-5.51c.39-.47.83-.85 1.33-1.14.5-.3 1.08-.44 1.73-.44.53 0 1 .1 1.43.31.43.2.8.5 1.1.9.3.38.52.87.69 1.45a7.5 7.5 0 01-.03 3.89 4.53 4.53 0 01-.78 1.5 3.67 3.67 0 01-2.89 1.36 3.4 3.4 0 01-1.44-.28c-.4-.2-.75-.45-1.06-.8v4.04h-1.6v-12.2h.95c.23 0 .37.1.43.33l.14 1.08zm13.39-1.56c.66 0 1.26.11 1.8.34a3.86 3.86 0 012.23 2.43c.2.57.3 1.22.3 1.93 0 .72-.1 1.37-.3 1.94a3.86 3.86 0 01-2.23 2.42c-.54.22-1.14.33-1.8.33-.67 0-1.28-.1-1.82-.32a3.86 3.86 0 01-2.24-2.43c-.2-.57-.3-1.22-.3-1.94 0-.71.1-1.36.3-1.93a3.86 3.86 0 012.24-2.43 4.74 4.74 0 011.82-.34zm0 8.14c.9 0 1.57-.3 2.01-.9.45-.6.67-1.45.67-2.53 0-1.09-.22-1.93-.67-2.54-.44-.6-1.11-.9-2.01-.9-.46 0-.86.07-1.2.23-.34.15-.62.38-.85.67-.22.3-.39.66-.5 1.1-.1.42-.16.9-.16 1.44 0 1.08.22 1.92.66 2.53.45.6 1.13.9 2.05.9zm10.87 0c.6 0 1.07-.14 1.42-.41.35-.29.52-.67.52-1.16 0-.21-.03-.4-.1-.58a1.14 1.14 0 00-.32-.47 1.54 1.54 0 00-.6-.3c-.25-.08-.55-.11-.91-.11h-1.97v3.03h1.96zm-1.96-6.91v2.86h1.75c.26 0 .5-.04.73-.1.23-.09.42-.2.58-.32.17-.14.3-.3.38-.49a1.47 1.47 0 00.05-1.12 1 1 0 00-.3-.42 1.53 1.53 0 00-.57-.3 2.76 2.76 0 00-.87-.11h-1.75zm1.8-1.08c.56 0 1.04.05 1.44.17.4.11.74.27 1 .47.25.19.44.42.56.68.12.26.18.55.18.85 0 .2-.03.4-.08.62a2.05 2.05 0 01-.84 1.16c-.22.15-.51.28-.86.37.7.12 1.23.36 1.61.73.38.36.57.83.57 1.43 0 .44-.1.83-.27 1.16-.18.32-.42.6-.73.82-.3.22-.67.38-1.08.5-.42.1-.86.15-1.33.15h-3.51v-9.11h3.34zm11.53 5.01c-.74.02-1.37.08-1.9.18-.5.09-.93.21-1.26.36a1.8 1.8 0 00-.71.53c-.15.2-.22.43-.22.69 0 .24.04.44.12.62.08.17.18.31.31.43.14.1.3.19.48.24a3.44 3.44 0 001.37 0 3.48 3.48 0 001.25-.64c.2-.16.38-.33.56-.52v-1.89zm-5.18-3.73a5.03 5.03 0 013.56-1.45c.52 0 .97.09 1.37.26a2.79 2.79 0 011.6 1.79c.14.42.21.9.21 1.4v5.83h-.7a.73.73 0 01-.37-.07c-.08-.05-.15-.15-.2-.3l-.18-.87c-.24.22-.47.42-.7.6a3.88 3.88 0 01-1.53.7 4.15 4.15 0 01-1.94-.06 2.18 2.18 0 01-1.37-1.2c-.13-.3-.2-.66-.2-1.07 0-.36.1-.7.3-1.04.2-.33.52-.63.96-.89a6.23 6.23 0 011.74-.63 13 13 0 012.63-.29v-.7c0-.72-.15-1.25-.46-1.61-.3-.37-.75-.55-1.34-.55a2.84 2.84 0 00-1.7.49l-.5.33a.72.72 0 01-.41.14c-.11 0-.2-.02-.28-.08a.85.85 0 01-.2-.21l-.29-.52zm17.78-1.28v9.11h-1.61v-4.26h-4.38v4.26h-1.6v-9.11h1.6v3.63h4.38v-3.63h1.61zm11.37 0v9.11h-1.6v-6.19a4.48 4.48 0 01.06-.8 5.8 5.8 0 01-.33.61l-4.4 5.99c-.07.1-.16.19-.26.28-.1.08-.2.12-.32.12h-.97v-9.11h1.6v6.19a4.4 4.4 0 01-.06.78 5.08 5.08 0 01.33-.6l4.4-5.98c.06-.1.15-.18.25-.27a.5.5 0 01.33-.13h.97zm9.63 3.56c0-.37-.05-.71-.16-1.02a2.16 2.16 0 00-2.17-1.5c-.77 0-1.38.22-1.83.67a3.13 3.13 0 00-.82 1.85h4.98zm1.3 4.28c-.2.24-.44.45-.71.63a4.53 4.53 0 01-1.87.68c-.33.06-.66.09-1 .09-.63 0-1.2-.1-1.74-.31a3.95 3.95 0 01-2.28-2.47 6.2 6.2 0 01-.03-3.87c.2-.55.48-1.03.84-1.43.37-.41.81-.73 1.34-.96a4.35 4.35 0 013.3-.07 3.54 3.54 0 012 2.07c.2.5.3 1.08.3 1.73 0 .25-.04.42-.09.5-.05.09-.16.13-.3.13h-6.1c.02.58.1 1.08.24 1.5.14.43.34.79.59 1.07.25.29.55.5.9.64s.74.21 1.17.21a3.5 3.5 0 001.8-.44c.2-.1.38-.2.51-.3a.7.7 0 01.37-.14c.13 0 .24.05.3.15l.46.59zM316.94 155.1v9.11h-1.6v-6.19a4.48 4.48 0 01.06-.8 5.8 5.8 0 01-.33.61l-4.4 5.99c-.07.1-.15.19-.26.28-.1.08-.2.12-.32.12h-.97v-9.11h1.6v6.19a4.4 4.4 0 01-.05.78 5.08 5.08 0 01.32-.6l4.4-5.98c.07-.1.15-.18.25-.27a.5.5 0 01.34-.13h.96zm15.42 7.94v-6.68h-2.89c-.06.93-.14 1.76-.25 2.48-.11.72-.24 1.35-.38 1.9-.14.54-.3 1-.47 1.38a4.5 4.5 0 01-.53.92h4.52zm3.22-.04v3.86c0 .16-.04.28-.13.36a.43.43 0 01-.34.14h-.98v-3.15h-7.67v2.69c0 .11-.03.22-.1.31-.07.1-.18.15-.34.15h-1v-4.32h.3a1.55 1.55 0 001.22-.51c.19-.2.37-.49.54-.85.17-.37.33-.85.46-1.44.14-.58.26-1.3.36-2.14a45 45 0 00.25-3h5.77v7.9h1.66zm10.44-7.9v9.11h-1.6v-6.19a4.48 4.48 0 01.07-.8 5.8 5.8 0 01-.34.61l-4.4 5.99c-.06.1-.15.19-.25.28-.1.08-.2.12-.32.12h-.98v-9.11h1.62v6.19a4.4 4.4 0 01-.07.78 5.08 5.08 0 01.33-.6l4.4-5.98c.06-.1.15-.18.25-.27a.5.5 0 01.33-.13h.96zm2.96.93c.34-.32.76-.58 1.24-.78.5-.2 1.09-.3 1.78-.3.55 0 1.03.07 1.45.21.42.13.78.3 1.06.53.29.22.5.48.64.77a1.85 1.85 0 01.14 1.44c-.05.2-.15.4-.28.57a2.41 2.41 0 01-1.3.88c.59.18 1.04.46 1.37.84.34.39.5.86.5 1.41 0 .42-.09.8-.28 1.15-.2.33-.45.62-.78.86-.32.23-.7.41-1.13.54a4.7 4.7 0 01-2.24.1 4.61 4.61 0 01-1.7-.68 3.2 3.2 0 01-.68-.63l.45-.59c.08-.1.18-.15.31-.15.1 0 .22.05.34.14.13.1.28.2.46.3.18.12.4.23.66.32a3 3 0 00.96.14c.33 0 .63-.04.88-.12.27-.08.49-.2.67-.34a1.48 1.48 0 00.56-1.16c0-.45-.2-.81-.57-1.1-.37-.27-.94-.4-1.7-.4h-1.04v-1.07h1.04c.33 0 .63-.03.89-.1s.49-.16.68-.28c.18-.12.32-.27.42-.44a1.14 1.14 0 00-.35-1.49 1.93 1.93 0 00-.62-.29c-.24-.07-.53-.1-.86-.1a3.38 3.38 0 00-1.96.57c-.1.07-.2.1-.28.1a.4.4 0 01-.2-.04.6.6 0 01-.16-.19l-.37-.62zm14.6 4.08c-.73.02-1.36.08-1.89.18-.51.09-.94.21-1.26.36a1.8 1.8 0 00-.72.53c-.14.2-.21.43-.21.69 0 .24.04.44.12.62.07.17.18.31.31.43.14.1.3.19.48.24a3.44 3.44 0 001.37 0 3.48 3.48 0 001.25-.64c.19-.16.37-.33.55-.52v-1.89zm-5.17-3.73a5.03 5.03 0 013.56-1.45c.51 0 .97.09 1.36.26a2.79 2.79 0 011.61 1.79c.14.42.21.9.21 1.4v5.83h-.71a.73.73 0 01-.36-.07c-.08-.05-.15-.15-.2-.3l-.18-.87c-.24.22-.47.42-.7.6a3.88 3.88 0 01-1.53.7 4.15 4.15 0 01-1.94-.06 2.18 2.18 0 01-1.37-1.2c-.13-.3-.2-.66-.2-1.07 0-.36.1-.7.3-1.04.2-.33.51-.63.96-.89a6.23 6.23 0 011.74-.63 13 13 0 012.62-.29v-.7c0-.72-.15-1.25-.45-1.61-.31-.37-.76-.55-1.35-.55a2.84 2.84 0 00-1.69.49l-.5.33a.72.72 0 01-.42.14c-.1 0-.2-.02-.28-.08a.85.85 0 01-.2-.21l-.28-.52zm18-1.28v9.11h-1.6v-6.19a4.48 4.48 0 01.06-.8 5.8 5.8 0 01-.33.61l-4.4 5.99c-.07.1-.15.19-.25.28-.1.08-.2.12-.33.12h-.97v-9.11h1.61v6.19a4.4 4.4 0 01-.06.78 5.08 5.08 0 01.32-.6l4.4-5.98c.07-.1.15-.18.26-.27a.5.5 0 01.33-.13h.96zm-3.8-2.2c.24 0 .45-.03.62-.09a.9.9 0 00.4-.28c.1-.12.19-.29.24-.48.04-.2.07-.44.07-.73h.93c.12 0 .2.05.26.15.06.1.1.21.1.33a1.78 1.78 0 01-.7 1.43c-.23.17-.5.3-.83.4a4.1 4.1 0 01-1.1.13c-.4 0-.77-.05-1.1-.14-.32-.09-.6-.22-.82-.39a1.79 1.79 0 01-.7-1.43c0-.12.04-.23.1-.33.06-.1.14-.15.26-.15h.93c0 .28.03.53.08.73.04.2.12.36.22.48.1.13.25.22.41.28.17.06.38.08.63.08zm14.93 2.2v9.11h-1.61v-4.26h-4.38v4.26h-1.6v-9.11h1.6v3.63h4.38v-3.63h1.61z" fill="#414141"/><path d="M537.7 85.39c.12-.83.35-1.56.7-2.19a5.2 5.2 0 013.05-2.52 7.02 7.02 0 014.32.03c.65.22 1.2.54 1.66.95a4.2 4.2 0 011.42 3.18c0 .55-.07 1.04-.2 1.46a3.15 3.15 0 01-1.4 1.88c-.33.22-.72.4-1.15.54 1.04.33 1.81.83 2.32 1.5.52.68.77 1.52.77 2.54a4.99 4.99 0 01-3.67 5c-.71.22-1.47.34-2.27.34-.87 0-1.63-.1-2.28-.3a4.95 4.95 0 01-2.91-2.33 9.72 9.72 0 01-.87-1.97l1.31-.54c.34-.14.66-.18.96-.1.3.06.52.22.66.47.14.28.3.56.47.83a3.16 3.16 0 001.46 1.25c.33.13.72.19 1.17.19a2.87 2.87 0 002.82-1.76c.12-.33.19-.66.19-.99 0-.41-.05-.8-.13-1.13a1.68 1.68 0 00-.56-.87 3 3 0 00-1.2-.57 8.62 8.62 0 00-2.1-.2v-2.11a7.5 7.5 0 001.8-.2c.48-.13.86-.31 1.14-.53.3-.24.5-.51.6-.83.12-.32.17-.67.17-1.06 0-.81-.23-1.43-.68-1.86a2.57 2.57 0 00-1.83-.63 2.91 2.91 0 00-1.77.57 2.56 2.56 0 00-.95 1.42c-.14.37-.32.6-.54.73-.22.12-.52.15-.92.08l-1.56-.27zm21.08 1.73a5.93 5.93 0 011.86-1.28c.7-.3 1.5-.44 2.43-.44.96 0 1.82.16 2.56.48a5.46 5.46 0 013.02 3.34c.27.76.4 1.6.4 2.5 0 1.01-.14 1.91-.44 2.7a5.87 5.87 0 01-1.19 2 5.14 5.14 0 01-3.91 1.66c-.43 0-.87-.03-1.3-.1a6.43 6.43 0 01-1.3-.32 5.52 5.52 0 01-2.26-1.6l.82-.99a.64.64 0 01.55-.26.7.7 0 01.33.08c.1.05.22.1.33.18l.37.25a4.27 4.27 0 001.08.43c.23.05.5.08.83.08.82 0 1.51-.27 2.06-.82.55-.55.9-1.35 1.02-2.39h-5.22v-2.01h5.2a3.82 3.82 0 00-1.02-2.17 2.85 2.85 0 00-2.11-.78c-.41 0-.76.04-1.04.13-.28.08-.52.17-.73.27l-.53.28a.9.9 0 01-.44.12.62.62 0 01-.37-.1 1.62 1.62 0 01-.25-.26l-.75-.98zm23.75.67h-4.4V97.9h-2.96V87.8h-4.38v-2.2h11.74v2.2zm9.17 4.86c-.85.04-1.57.11-2.16.23a5.6 5.6 0 00-1.4.4c-.35.17-.6.37-.76.6-.15.22-.22.46-.22.72 0 .52.15.9.45 1.12.31.22.72.34 1.21.34.61 0 1.14-.11 1.58-.33.44-.22.88-.56 1.3-1v-2.08zm-6.79-5.34a7.3 7.3 0 015.11-1.95c.72 0 1.37.12 1.94.36a3.98 3.98 0 012.32 2.49c.21.58.32 1.22.32 1.92v7.77h-1.35c-.28 0-.5-.04-.65-.12-.15-.08-.27-.26-.36-.51l-.26-.9c-.31.29-.62.54-.91.75a4.7 4.7 0 01-1.96.85 5.54 5.54 0 01-2.64-.08 3.24 3.24 0 01-1.14-.63 2.83 2.83 0 01-.74-1.05 3.7 3.7 0 01-.11-2.37c.1-.32.27-.61.5-.9.24-.27.55-.54.93-.78a6 6 0 011.38-.65c.55-.19 1.19-.33 1.92-.45s1.56-.19 2.5-.21v-.72c0-.83-.18-1.43-.53-1.83-.36-.4-.86-.6-1.53-.6a3.67 3.67 0 00-2.03.56l-.66.37c-.19.1-.4.17-.64.17a.88.88 0 01-.53-.16 1.43 1.43 0 01-.35-.38l-.53-.95zm24.2 10.6h-2.96V87.78h-4.8V97.9h-2.96V85.6h10.73v12.3z" fill="#5E78FF"/><path d="M543.15 133.16c.5 0 .92-.06 1.28-.17.36-.12.66-.28.89-.48.23-.2.4-.45.5-.74.12-.28.17-.6.17-.94 0-.67-.24-1.2-.71-1.58-.48-.39-1.19-.58-2.13-.58h-2.8v4.49h2.8zm-2.8-10.13v4.4h2.31c.5 0 .92-.06 1.28-.17.36-.1.66-.25.9-.45.24-.19.41-.42.53-.69.11-.28.17-.58.17-.9 0-.76-.23-1.32-.68-1.66-.46-.36-1.17-.53-2.13-.53h-2.37zm2.38-1.38c.8 0 1.48.08 2.04.23.58.16 1.05.38 1.42.67.37.29.64.64.82 1.06a3.6 3.6 0 01.1 2.32c-.1.29-.24.56-.44.81s-.45.48-.75.69c-.3.2-.66.36-1.06.48.94.18 1.65.52 2.13 1.02s.72 1.14.72 1.94c0 .55-.1 1.05-.3 1.5-.2.45-.5.83-.89 1.16-.38.32-.86.57-1.42.75-.57.18-1.2.26-1.93.26h-4.55v-12.9h4.11zm14.1 7.34c0-.37-.05-.7-.15-1.02a2.16 2.16 0 00-2.17-1.5c-.77 0-1.38.22-1.83.67a3.13 3.13 0 00-.83 1.85h4.99zm1.3 4.28c-.2.24-.43.45-.7.63a4.53 4.53 0 01-1.87.68 4.73 4.73 0 01-2.75-.22 3.95 3.95 0 01-2.27-2.47 6.2 6.2 0 01-.04-3.87c.2-.55.48-1.03.85-1.43.37-.4.81-.73 1.34-.95a4.35 4.35 0 013.3-.08 3.54 3.54 0 012 2.07c.2.5.29 1.08.29 1.73 0 .25-.03.42-.08.5-.06.09-.16.13-.3.13h-6.1c.02.58.1 1.08.23 1.5.15.43.35.79.6 1.07.25.29.55.5.9.64s.74.21 1.17.21a3.5 3.5 0 001.79-.44c.2-.1.38-.2.52-.3a.7.7 0 01.37-.14c.13 0 .23.05.3.15l.46.59zm4.73-.92c.3.4.61.67.96.84.35.16.74.24 1.17.24.85 0 1.5-.3 1.96-.91.46-.6.69-1.47.69-2.6 0-.59-.06-1.1-.16-1.52-.1-.43-.26-.78-.46-1.05s-.44-.47-.72-.6a2.42 2.42 0 00-.98-.19c-.53 0-.99.12-1.38.36-.4.24-.75.58-1.08 1.02v4.4zm-.08-5.5c.38-.48.83-.86 1.33-1.15.5-.29 1.08-.43 1.73-.43.52 0 1 .1 1.43.3.42.2.79.5 1.09.9.3.38.53.87.69 1.45a7.5 7.5 0 01-.03 3.89 4.53 4.53 0 01-.78 1.5c-.34.42-.75.75-1.24 1-.49.24-1.04.36-1.65.36a3.4 3.4 0 01-1.44-.28c-.4-.19-.75-.45-1.05-.79v4.03h-1.61v-12.2h.96c.23 0 .37.1.42.33l.15 1.08zm15.88.2a.72.72 0 01-.14.15.32.32 0 01-.2.05.55.55 0 01-.3-.1 4.11 4.11 0 00-.99-.5 2.64 2.64 0 00-.84-.12c-.45 0-.85.09-1.19.25-.34.15-.63.38-.86.68-.23.3-.4.67-.52 1.1-.12.42-.18.9-.18 1.42 0 .55.07 1.05.2 1.48.12.42.3.78.52 1.08.24.29.52.5.84.66.33.15.7.23 1.1.23.4 0 .72-.05.97-.14.25-.1.46-.2.62-.31l.42-.3c.11-.1.22-.15.33-.15.13 0 .23.05.3.15l.46.59c-.2.24-.43.45-.68.63a4.29 4.29 0 01-1.73.69 5.8 5.8 0 01-.97.08 3.66 3.66 0 01-2.86-1.22c-.36-.4-.64-.9-.85-1.48a6 6 0 01-.3-1.99c0-.68.09-1.3.28-1.88.19-.57.46-1.07.82-1.48.37-.42.82-.75 1.34-.98a4.53 4.53 0 011.84-.36c.64 0 1.2.1 1.7.32.48.2.92.5 1.3.87l-.43.58zm10.83-.4H586v7.9h-1.6v-7.9h-3.5v-1.22h8.6v1.22zm8.06-.77c.09-.13.2-.24.34-.33a.83.83 0 01.44-.12h1.25l-2.37 3.47c-.14.22-.3.4-.45.55-.15.14-.35.25-.57.33.28.07.53.2.73.36.2.17.37.38.53.63l2.4 3.77h-1.13c-.28 0-.5-.04-.66-.14-.16-.1-.3-.23-.4-.41l-1.78-2.84c-.28-.47-.7-.7-1.27-.7h-.98v4.1h-1.61v-9.12h1.61v3.94h.87c.48 0 .85-.2 1.12-.61l1.93-2.88zm9.73 4.56c-.74.03-1.37.09-1.9.18-.5.1-.93.21-1.26.36a1.8 1.8 0 00-.71.53c-.15.2-.22.43-.22.69 0 .24.04.44.12.62.08.17.18.31.31.43.14.1.3.19.48.24a3.44 3.44 0 001.37 0 3.48 3.48 0 001.25-.64c.2-.16.38-.33.56-.52v-1.89zm-5.18-3.72a5.03 5.03 0 013.56-1.45c.52 0 .97.08 1.37.25a2.79 2.79 0 011.6 1.79c.14.42.21.9.21 1.4v5.83h-.7a.73.73 0 01-.37-.07c-.08-.05-.15-.15-.2-.3l-.18-.87c-.24.22-.47.42-.7.6a3.88 3.88 0 01-1.53.7 4.15 4.15 0 01-1.94-.06c-.31-.1-.59-.25-.82-.44-.23-.2-.41-.45-.55-.75-.13-.3-.2-.67-.2-1.08 0-.36.1-.7.3-1.04.2-.33.52-.63.96-.89a6.23 6.23 0 011.74-.63 13 13 0 012.63-.29v-.7c0-.72-.15-1.25-.46-1.6-.3-.38-.75-.56-1.34-.56a2.84 2.84 0 00-1.7.49l-.5.33a.72.72 0 01-.41.15c-.11 0-.2-.03-.28-.09a.85.85 0 01-.2-.21l-.29-.52zm-115.89 28.7v9.13h-1.6v-6.2a4.48 4.48 0 01.06-.8 5.8 5.8 0 01-.33.61l-4.4 5.99c-.07.1-.15.19-.25.28-.1.08-.2.12-.33.12h-.97v-9.11H480v6.19a4.4 4.4 0 01-.06.78 5.08 5.08 0 01.32-.6l4.4-5.98c.07-.1.15-.18.25-.27a.5.5 0 01.34-.13h.96zm16.73 9.13h-1.6v-7.9h-4.38v7.9h-1.61v-9.12h7.6v9.11zm5.16-2.2c.3.4.62.67.96.84.35.16.74.24 1.18.24.85 0 1.5-.3 1.96-.91.45-.6.68-1.47.68-2.6 0-.59-.05-1.1-.16-1.52-.1-.43-.25-.78-.45-1.05s-.44-.47-.73-.6a2.42 2.42 0 00-.98-.19c-.52 0-.98.12-1.38.36-.39.24-.75.58-1.08 1.02v4.4zm-.08-5.5c.38-.48.83-.86 1.33-1.15.5-.29 1.08-.43 1.73-.43.53 0 1 .1 1.43.3.43.2.8.5 1.1.9.3.38.52.87.68 1.45a7.5 7.5 0 01-.02 3.89 4.53 4.53 0 01-.79 1.5c-.33.42-.75.75-1.24 1-.48.24-1.03.36-1.64.36a3.4 3.4 0 01-1.45-.28c-.4-.19-.74-.45-1.05-.79v4.03h-1.6v-12.2h.95c.23 0 .37.1.43.33l.14 1.08zm13.39-1.57c.66 0 1.26.12 1.8.34a3.86 3.86 0 012.23 2.43c.2.57.3 1.22.3 1.93 0 .72-.1 1.37-.3 1.95a3.86 3.86 0 01-2.23 2.42c-.54.21-1.14.32-1.8.32-.68 0-1.28-.1-1.82-.32a3.86 3.86 0 01-2.24-2.42c-.2-.58-.3-1.23-.3-1.95 0-.71.1-1.36.3-1.93a3.86 3.86 0 012.24-2.43 4.74 4.74 0 011.82-.34zm0 8.14c.9 0 1.57-.3 2.01-.9.45-.6.67-1.45.67-2.53 0-1.09-.22-1.93-.67-2.54-.44-.6-1.11-.9-2.01-.9-.46 0-.86.07-1.2.23-.34.15-.62.38-.85.67-.22.3-.39.66-.5 1.1-.1.42-.16.9-.16 1.44 0 1.08.22 1.92.66 2.53.45.6 1.13.9 2.05.9zm13.28-6.77h-4.3v7.9h-1.61v-9.12h5.9v1.22zm4.13 5.7c.3.4.62.67.97.84.34.16.73.24 1.17.24.85 0 1.5-.3 1.96-.91.45-.6.68-1.47.68-2.6 0-.59-.05-1.1-.16-1.52-.1-.43-.25-.78-.45-1.05s-.44-.47-.73-.6a2.42 2.42 0 00-.98-.19c-.52 0-.98.12-1.38.36-.39.24-.75.58-1.08 1.02v4.4zm-.08-5.5c.39-.48.83-.86 1.33-1.15.5-.29 1.08-.43 1.73-.43.53 0 1 .1 1.43.3.43.2.8.5 1.1.9.3.38.52.87.68 1.45a7.5 7.5 0 01-.02 3.89 4.53 4.53 0 01-.78 1.5 3.67 3.67 0 01-2.89 1.36 3.4 3.4 0 01-1.44-.28c-.4-.19-.75-.45-1.06-.79v4.03h-1.6v-12.2h.95c.23 0 .37.1.43.33l.14 1.08zm14.49 3.6c-.74.02-1.37.08-1.9.17-.51.1-.93.21-1.26.36a1.8 1.8 0 00-.72.53c-.14.2-.21.43-.21.69 0 .24.04.44.12.62.07.17.18.31.31.43.14.1.3.19.48.24a3.44 3.44 0 001.37 0 3.48 3.48 0 001.25-.64c.19-.16.37-.33.55-.52v-1.89zm-5.18-3.73a5.03 5.03 0 013.56-1.45c.51 0 .97.08 1.36.25a2.79 2.79 0 011.61 1.79c.14.43.21.9.21 1.4v5.83h-.71a.73.73 0 01-.36-.07c-.08-.05-.15-.15-.2-.3l-.18-.87c-.24.22-.47.42-.7.6a3.88 3.88 0 01-1.53.7 4.15 4.15 0 01-1.94-.06c-.32-.1-.59-.25-.82-.44-.23-.2-.41-.45-.55-.75-.13-.3-.2-.67-.2-1.08 0-.36.1-.7.3-1.04.2-.33.52-.63.96-.89a6.23 6.23 0 011.74-.63 13 13 0 012.63-.29v-.7c0-.72-.16-1.25-.46-1.6-.31-.38-.76-.56-1.35-.56a2.84 2.84 0 00-1.69.49l-.5.33a.72.72 0 01-.41.15c-.11 0-.2-.03-.28-.09a.85.85 0 01-.2-.21l-.29-.51zm20.34-1.32v9.14h-1.45v-6.05a6.4 6.4 0 01.12-1.15l-3.17 5.56a.6.6 0 01-.19.21.46.46 0 01-.27.08h-.18a.5.5 0 01-.28-.08.6.6 0 01-.19-.21l-3.22-5.57a11.06 11.06 0 01.12 1.16v6.05h-1.45v-9.14h1.29c.11 0 .22.03.33.08.1.05.2.14.28.28l2.84 4.75c.14.28.26.57.37.88.1-.32.23-.61.36-.88l2.8-4.75a.62.62 0 01.27-.29c.11-.04.22-.07.34-.07h1.28zm13.7 0v9.14h-1.46v-6.05a6.4 6.4 0 01.12-1.15l-3.17 5.56a.6.6 0 01-.19.21.46.46 0 01-.26.08h-.18a.5.5 0 01-.28-.08.6.6 0 01-.2-.21l-3.22-5.57a11.06 11.06 0 01.12 1.16v6.05h-1.45v-9.14h1.29c.11 0 .22.03.33.08.11.05.2.14.28.28l2.85 4.75c.13.28.26.57.37.88.1-.32.22-.61.36-.88l2.78-4.75a.62.62 0 01.28-.29c.11-.04.22-.07.34-.07h1.28zm11.34.03v9.11h-1.6v-6.19a4.48 4.48 0 01.07-.8 5.8 5.8 0 01-.34.61l-4.4 5.99c-.06.1-.15.19-.25.28-.1.08-.2.12-.32.12h-.98v-9.11h1.62v6.19a4.4 4.4 0 01-.07.78 5.08 5.08 0 01.33-.6l4.4-5.98c.06-.1.15-.18.25-.27a.5.5 0 01.33-.13h.96zm5.15 6.92c.3.4.61.67.96.84.35.16.74.24 1.17.24.85 0 1.5-.3 1.96-.91.46-.6.69-1.47.69-2.6 0-.59-.06-1.1-.16-1.52-.1-.43-.26-.78-.46-1.05s-.44-.47-.72-.6a2.42 2.42 0 00-.99-.19c-.52 0-.98.12-1.37.36-.4.24-.75.58-1.08 1.02v4.4zm-.08-5.5c.38-.48.83-.86 1.33-1.15.5-.29 1.08-.43 1.73-.43.53 0 1 .1 1.43.3.42.2.79.5 1.09.9.3.38.53.87.69 1.45a7.5 7.5 0 01-.03 3.89 4.53 4.53 0 01-.78 1.5c-.34.42-.75.75-1.24 1-.49.24-1.04.36-1.65.36a3.4 3.4 0 01-1.44-.28c-.4-.19-.75-.45-1.05-.79v4.03h-1.61v-12.2h.96c.23 0 .37.1.42.33l.15 1.08zm13.38-1.57c.67 0 1.27.12 1.8.34a3.86 3.86 0 012.24 2.43c.2.57.3 1.22.3 1.93 0 .72-.1 1.37-.3 1.95a3.86 3.86 0 01-2.23 2.42c-.54.21-1.14.32-1.8.32-.68 0-1.28-.1-1.82-.32a3.86 3.86 0 01-2.25-2.42c-.2-.58-.3-1.23-.3-1.95 0-.71.1-1.36.3-1.93a3.86 3.86 0 012.24-2.43 4.74 4.74 0 011.82-.34zm0 8.14c.9 0 1.58-.3 2.02-.9.44-.6.67-1.45.67-2.53 0-1.09-.23-1.93-.67-2.54-.44-.6-1.12-.9-2.02-.9-.45 0-.85.07-1.2.23-.33.15-.61.38-.84.67-.22.3-.39.66-.5 1.1-.11.42-.17.9-.17 1.44 0 1.08.23 1.92.67 2.53.45.6 1.13.9 2.04.9zm10.87 0c.6 0 1.08-.14 1.43-.41.34-.29.52-.67.52-1.16 0-.21-.04-.4-.1-.58a1.14 1.14 0 00-.33-.47 1.54 1.54 0 00-.6-.3c-.24-.08-.55-.11-.9-.11h-1.98v3.03h1.96zm-1.96-6.91v2.86h1.76c.26 0 .5-.04.73-.1.22-.09.42-.2.58-.32.16-.14.29-.3.38-.49a1.47 1.47 0 00.04-1.12 1 1 0 00-.3-.42 1.53 1.53 0 00-.57-.3 2.76 2.76 0 00-.86-.11h-1.76zm1.8-1.08c.57 0 1.05.06 1.45.17.4.11.73.27 1 .47.25.19.44.42.56.68.12.26.18.55.18.85 0 .2-.03.4-.08.62-.06.21-.15.42-.3.62-.12.2-.3.38-.54.54-.23.16-.52.28-.86.37.7.12 1.23.36 1.6.73.38.36.57.83.57 1.43 0 .44-.09.83-.27 1.16-.17.32-.41.6-.73.82-.3.22-.66.39-1.07.5-.42.1-.86.16-1.34.16h-3.5v-9.12h3.33zm11.53 5.01c-.74.03-1.37.09-1.89.18-.51.1-.94.21-1.27.36a1.8 1.8 0 00-.7.53c-.15.2-.22.43-.22.69 0 .24.04.44.11.62.08.17.19.31.32.43.14.1.3.19.48.24a3.44 3.44 0 001.37 0 3.48 3.48 0 001.25-.64c.19-.16.37-.33.55-.52v-1.89zm-5.17-3.72a5.03 5.03 0 013.56-1.45c.51 0 .97.08 1.36.25a2.79 2.79 0 011.61 1.79c.14.43.2.9.2 1.4v5.83h-.7a.73.73 0 01-.36-.07c-.09-.05-.15-.15-.2-.3l-.18-.87c-.24.22-.47.42-.7.6a3.88 3.88 0 01-1.53.7 4.15 4.15 0 01-1.95-.06c-.3-.1-.58-.25-.81-.44-.23-.2-.42-.45-.55-.75-.14-.3-.2-.67-.2-1.08 0-.36.1-.7.3-1.04.2-.33.51-.63.96-.89a6.23 6.23 0 011.74-.63 13 13 0 012.62-.29v-.7c0-.72-.15-1.25-.46-1.6-.3-.38-.75-.56-1.34-.56a2.84 2.84 0 00-1.69.49c-.2.12-.36.23-.5.33a.72.72 0 01-.42.15c-.1 0-.2-.03-.28-.09a.85.85 0 01-.2-.21l-.28-.51zm17.78-1.3v9.13h-1.62v-4.27h-4.37v4.26h-1.61v-9.11h1.61v3.63h4.38v-3.63h1.6zm11.36 0v9.13h-1.6v-6.2a4.48 4.48 0 01.06-.8 5.8 5.8 0 01-.33.61l-4.4 5.99c-.07.1-.15.19-.25.28-.1.08-.2.12-.33.12h-.97v-9.11h1.61v6.19a4.4 4.4 0 01-.06.78 5.08 5.08 0 01.32-.6l4.4-5.98c.07-.1.16-.18.26-.27a.5.5 0 01.33-.13h.96zm9.64 3.57c0-.37-.06-.7-.16-1.02a2.16 2.16 0 00-2.17-1.5c-.77 0-1.38.22-1.83.67a3.13 3.13 0 00-.83 1.85h4.99zm1.3 4.28c-.2.24-.44.45-.72.63a4.53 4.53 0 01-1.86.68 4.73 4.73 0 01-2.75-.22 3.95 3.95 0 01-2.27-2.47 6.2 6.2 0 01-.04-3.87c.2-.55.48-1.03.85-1.43.36-.4.81-.73 1.34-.96a4.35 4.35 0 013.3-.07 3.54 3.54 0 012 2.07c.2.5.29 1.08.29 1.73 0 .25-.03.42-.08.5-.06.09-.16.13-.3.13h-6.1c.02.58.1 1.08.23 1.5.15.43.34.79.6 1.07.25.29.55.5.9.64.34.14.73.21 1.17.21a3.5 3.5 0 001.79-.44c.2-.1.38-.2.52-.3a.7.7 0 01.37-.14c.13 0 .23.05.3.15l.45.59z" fill="#414141"/><path d="M769.97 91.04v-5.67c0-.54.03-1.13.1-1.78l-5.38 7.45h5.28zm4.76 0v1.72c0 .16-.05.3-.15.42-.1.11-.26.17-.45.17h-1.58v4.23h-2.58v-4.23h-7.32a.83.83 0 01-.53-.18.83.83 0 01-.29-.47l-.31-1.5 8.22-10.98h2.8v10.82h2.2zm9.07-4.25a5.93 5.93 0 011.87-1.27c.7-.3 1.5-.44 2.42-.44.97 0 1.82.16 2.57.48a5.46 5.46 0 013.02 3.34c.27.76.4 1.6.4 2.5 0 1.01-.15 1.91-.45 2.7a5.87 5.87 0 01-1.18 2 5.14 5.14 0 01-3.92 1.66c-.43 0-.87-.03-1.3-.1a6.43 6.43 0 01-1.29-.32 5.52 5.52 0 01-2.26-1.6l.8-.99a.64.64 0 01.56-.26.7.7 0 01.34.08c.1.05.2.1.32.18l.37.25a4.27 4.27 0 001.08.43c.24.05.51.08.83.08.82 0 1.51-.28 2.06-.82.56-.55.9-1.35 1.03-2.39h-5.23V90.3h5.2a3.82 3.82 0 00-1.02-2.18 2.85 2.85 0 00-2.11-.78 4.26 4.26 0 00-1.76.4l-.53.29a.9.9 0 01-.45.12.62.62 0 01-.37-.1 1.62 1.62 0 01-.25-.26l-.75-.99zm23.75.68h-4.4v10.11h-2.96V87.47h-4.38v-2.2h11.74v2.2zm9.18 4.86c-.86.04-1.58.11-2.16.22a5.6 5.6 0 00-1.4.41c-.36.17-.61.37-.76.59-.15.22-.23.47-.23.73 0 .52.15.9.46 1.12.3.22.71.33 1.2.33.62 0 1.14-.1 1.58-.32.45-.22.88-.56 1.3-1v-2.08zm-6.8-5.34a7.3 7.3 0 015.12-1.95c.72 0 1.36.12 1.93.36a3.98 3.98 0 012.33 2.49c.2.58.3 1.22.3 1.92v7.77h-1.34c-.27 0-.5-.04-.64-.12-.15-.09-.27-.26-.36-.51l-.27-.9c-.3.29-.61.54-.9.75a4.7 4.7 0 01-1.96.85 5.54 5.54 0 01-2.64-.08 3.24 3.24 0 01-1.14-.64 2.83 2.83 0 01-.75-1.04 3.7 3.7 0 01-.1-2.38c.1-.3.26-.6.5-.88s.54-.55.92-.8a6 6 0 011.38-.64c.55-.19 1.2-.34 1.92-.45.73-.12 1.56-.19 2.5-.21v-.72c0-.83-.18-1.44-.53-1.83-.35-.4-.86-.6-1.53-.6a3.67 3.67 0 00-2.02.55l-.66.38c-.2.1-.41.16-.65.16a.88.88 0 01-.53-.15 1.43 1.43 0 01-.35-.39l-.53-.94zm24.2 10.6h-2.96V87.46h-4.8v10.11h-2.96V85.27h10.73v12.31z" fill="#5E78FF"/><path d="M751.98 122.8h-4.18v11.42h-1.74V122.8h-4.18v-1.46h10.1v1.46zm6.44 5.87c0-.37-.06-.71-.16-1.02a2.16 2.16 0 00-2.17-1.5c-.77 0-1.38.22-1.83.67a3.13 3.13 0 00-.83 1.85h4.99zm1.3 4.28c-.2.24-.44.45-.72.63a4.53 4.53 0 01-1.86.68c-.34.06-.67.09-1 .09-.63 0-1.21-.1-1.75-.31a3.95 3.95 0 01-2.27-2.47 6.2 6.2 0 01-.04-3.87c.2-.55.48-1.03.85-1.43.36-.41.81-.73 1.34-.96a4.35 4.35 0 013.3-.07 3.54 3.54 0 012 2.07c.2.5.29 1.08.29 1.73 0 .25-.03.42-.08.5-.06.09-.16.13-.31.13h-6.1c.02.58.1 1.08.24 1.5.14.43.34.79.6 1.07.25.29.55.5.9.64a3.5 3.5 0 002.96-.23c.2-.1.38-.2.52-.3a.7.7 0 01.37-.14c.13 0 .23.05.3.15l.45.59zm9.45-6.22a.72.72 0 01-.14.15.32.32 0 01-.2.05.55.55 0 01-.3-.1 4.11 4.11 0 00-.99-.5 2.64 2.64 0 00-.84-.12c-.46 0-.85.09-1.2.25-.34.15-.62.38-.86.68-.23.3-.4.66-.52 1.09-.11.43-.17.9-.17 1.43 0 .55.06 1.05.19 1.48.13.42.3.78.53 1.08.23.28.51.5.84.66.33.15.7.23 1.1.23.4 0 .72-.05.97-.14.25-.1.46-.2.62-.31l.41-.3c.12-.1.23-.15.34-.15.13 0 .23.05.3.15l.45.59c-.2.24-.42.45-.67.63a4.29 4.29 0 01-1.73.69 5.8 5.8 0 01-.97.08 3.66 3.66 0 01-2.86-1.22c-.37-.4-.65-.9-.85-1.48a6 6 0 01-.3-1.99c0-.68.08-1.3.27-1.88.2-.58.47-1.07.83-1.48.37-.42.81-.75 1.34-.99a4.53 4.53 0 011.84-.35c.64 0 1.2.1 1.69.32.49.2.93.5 1.3.87l-.42.58zm10.83-.4h-3.5v7.9h-1.6v-7.9h-3.5v-1.22h8.6v1.22zm10.35-1.22v9.11h-1.6v-6.19a4.48 4.48 0 01.06-.8 5.8 5.8 0 01-.33.61l-4.4 5.99c-.07.1-.16.19-.26.28-.1.08-.2.12-.32.12h-.97v-9.11h1.6v6.19a4.4 4.4 0 01-.06.78 5.08 5.08 0 01.33-.6l4.4-5.98c.07-.1.15-.18.25-.27a.5.5 0 01.33-.13h.97zm5.14 6.92c.3.4.62.67.96.84.35.16.74.24 1.17.24.86 0 1.51-.3 1.97-.91.45-.6.68-1.47.68-2.6 0-.59-.05-1.1-.16-1.52-.1-.43-.25-.78-.45-1.05s-.44-.47-.73-.6a2.42 2.42 0 00-.98-.19c-.52 0-.98.12-1.38.36-.39.24-.75.58-1.08 1.02v4.4zm-.08-5.51c.38-.47.83-.85 1.33-1.14.5-.3 1.08-.44 1.73-.44.53 0 1 .1 1.43.31.43.2.79.5 1.09.9.3.38.53.87.7 1.45a7.5 7.5 0 01-.03 3.89 4.53 4.53 0 01-.79 1.5c-.33.42-.75.75-1.24 1-.49.24-1.03.36-1.65.36a3.4 3.4 0 01-1.44-.28c-.4-.2-.74-.45-1.05-.8v4.04h-1.61v-12.2h.96c.23 0 .37.1.43.33l.14 1.08zm13.38-1.56c.67 0 1.27.11 1.8.34a3.86 3.86 0 012.24 2.43c.2.57.3 1.22.3 1.93 0 .72-.1 1.37-.3 1.94a3.86 3.86 0 01-2.23 2.42c-.54.22-1.14.33-1.8.33-.68 0-1.28-.1-1.82-.32a3.86 3.86 0 01-2.24-2.43c-.2-.57-.3-1.22-.3-1.94 0-.71.1-1.36.3-1.93a3.86 3.86 0 012.24-2.43 4.74 4.74 0 011.81-.34zm0 8.14c.9 0 1.58-.3 2.02-.9.45-.6.67-1.45.67-2.53 0-1.09-.23-1.93-.67-2.54-.44-.6-1.11-.9-2.01-.9-.46 0-.86.07-1.2.23-.34.15-.62.38-.85.67-.22.3-.39.66-.5 1.1-.11.42-.16.9-.16 1.44 0 1.08.22 1.92.66 2.53.45.6 1.13.9 2.04.9zm10.88 0c.6 0 1.07-.14 1.42-.41.35-.29.52-.67.52-1.16 0-.21-.03-.4-.1-.58a1.14 1.14 0 00-.32-.47 1.54 1.54 0 00-.6-.3c-.25-.08-.56-.11-.92-.11h-1.97v3.03h1.97zm-1.97-6.91v2.86h1.76c.26 0 .5-.04.73-.1.23-.09.42-.2.58-.32.16-.14.3-.3.38-.49a1.47 1.47 0 00.05-1.12 1 1 0 00-.31-.42 1.53 1.53 0 00-.57-.3 2.76 2.76 0 00-.86-.11h-1.76zm1.8-1.08c.57 0 1.05.05 1.45.17.4.11.73.27 1 .47.25.19.44.42.56.68.12.26.18.55.18.85 0 .2-.03.4-.08.62a2.05 2.05 0 01-.84 1.16c-.23.15-.51.28-.86.37.7.12 1.23.36 1.6.73.39.36.58.83.58 1.43 0 .44-.1.83-.27 1.16-.18.32-.42.6-.73.82-.3.22-.67.38-1.08.5-.42.1-.86.15-1.34.15h-3.5v-9.11h3.33zm11.53 5.01c-.73.02-1.36.08-1.88.18-.52.09-.94.21-1.27.36a1.8 1.8 0 00-.72.53c-.14.2-.21.43-.21.69 0 .24.04.44.12.62.07.17.18.31.31.43.14.1.3.19.48.24a3.44 3.44 0 001.37 0 3.48 3.48 0 001.25-.64c.19-.16.38-.33.55-.52v-1.89zm-5.17-3.73a5.03 5.03 0 013.56-1.45c.51 0 .97.09 1.36.26a2.79 2.79 0 011.61 1.79c.14.42.21.9.21 1.4v5.83h-.71a.73.73 0 01-.36-.07c-.08-.05-.15-.15-.2-.3l-.18-.87c-.24.22-.47.42-.7.6a3.88 3.88 0 01-1.53.7 4.15 4.15 0 01-1.94-.06 2.18 2.18 0 01-1.37-1.2c-.13-.3-.2-.66-.2-1.07 0-.36.1-.7.3-1.04.2-.33.52-.63.96-.89a6.23 6.23 0 011.74-.63 13 13 0 012.63-.29v-.7c0-.72-.16-1.25-.46-1.61-.31-.37-.76-.55-1.35-.55a2.84 2.84 0 00-1.69.49l-.5.33a.72.72 0 01-.41.14c-.11 0-.2-.02-.28-.08a.85.85 0 01-.2-.21l-.29-.52zm17.78-1.28v9.11h-1.61v-4.26h-4.38v4.26h-1.6v-9.11h1.6v3.63h4.38v-3.63h1.6zm9.65 3.56c0-.37-.06-.71-.17-1.02a2.16 2.16 0 00-2.16-1.5c-.77 0-1.38.22-1.83.67a3.13 3.13 0 00-.83 1.85h4.99zm1.3 4.28c-.2.24-.44.45-.72.63a4.53 4.53 0 01-1.86.68c-.34.06-.67.09-1 .09-.63 0-1.21-.1-1.75-.31a3.95 3.95 0 01-2.27-2.47 6.2 6.2 0 01-.04-3.87c.2-.55.48-1.03.85-1.43.36-.41.8-.73 1.34-.96a4.35 4.35 0 013.3-.07 3.54 3.54 0 012 2.07c.19.5.29 1.08.29 1.73 0 .25-.03.42-.09.5-.05.09-.15.13-.3.13h-6.1c.02.58.1 1.08.24 1.5.14.43.34.79.6 1.07.25.29.55.5.9.64a3.5 3.5 0 002.96-.23c.2-.1.38-.2.52-.3a.7.7 0 01.37-.14c.13 0 .23.05.3.15l.45.59z" fill="#414141"/><path d="M991.7 86.53a9.75 9.75 0 012.12-.23c.91 0 1.72.14 2.41.41a4.72 4.72 0 012.82 2.82 6.3 6.3 0 01-.13 4.6 5.7 5.7 0 01-3.4 3.2 7.21 7.21 0 01-4.11.28 8.19 8.19 0 01-2.57-1.1c-.36-.24-.68-.5-.97-.78l.91-1.26c.2-.27.45-.4.76-.4.2 0 .4.06.6.19l.72.42a4.03 4.03 0 002.27.61c.54 0 1.02-.09 1.44-.26.41-.18.75-.42 1.03-.74s.49-.7.62-1.12c.14-.44.22-.92.22-1.43 0-.95-.28-1.68-.83-2.21-.54-.54-1.35-.8-2.43-.8a7.6 7.6 0 00-2.53.45l-1.85-.53 1.45-8.42h8.56v1.26c0 .42-.13.77-.4 1.03-.26.27-.7.4-1.34.4h-4.76l-.61 3.61zm17.51.26a5.88 5.88 0 011.86-1.27c.69-.3 1.5-.44 2.42-.44.97 0 1.83.16 2.57.48a5.4 5.4 0 013.02 3.34c.27.76.4 1.6.4 2.5 0 1.01-.15 1.91-.44 2.7a5.97 5.97 0 01-1.19 2 5.15 5.15 0 01-3.91 1.66c-.44 0-.87-.03-1.31-.1a6.55 6.55 0 01-1.29-.32 5.42 5.42 0 01-2.25-1.6l.8-.99a.64.64 0 01.55-.26.7.7 0 01.34.08c.1.05.21.1.32.18l.38.25c.13.09.29.17.46.24.18.07.38.14.62.2.23.04.5.07.82.07.83 0 1.52-.28 2.07-.82.55-.55.89-1.35 1.02-2.39h-5.22V90.3h5.19a3.8 3.8 0 00-1.02-2.18 2.85 2.85 0 00-2.11-.78 4.3 4.3 0 00-1.76.4l-.53.29a.88.88 0 01-.44.12.66.66 0 01-.38-.1 1.7 1.7 0 01-.25-.26l-.74-.99zm23.74.68h-4.39v10.11h-2.97V87.47h-4.38v-2.2h11.74v2.2zm9.18 4.86c-.86.04-1.58.11-2.16.22a5.6 5.6 0 00-1.4.41 1.8 1.8 0 00-.76.59 1.3 1.3 0 00-.23.73c0 .52.15.9.46 1.12.31.22.71.33 1.21.33.61 0 1.13-.1 1.57-.32.45-.22.89-.56 1.31-1v-2.08zm-6.79-5.34a7.3 7.3 0 015.11-1.95c.72 0 1.36.12 1.93.36a3.95 3.95 0 012.33 2.49c.21.58.31 1.22.31 1.92v7.77h-1.34c-.28 0-.5-.04-.65-.12-.15-.09-.27-.26-.36-.51l-.26-.9c-.32.29-.62.54-.92.75a5.34 5.34 0 01-4.59.77 3.24 3.24 0 01-1.14-.64 2.89 2.89 0 01-.75-1.04c-.17-.42-.26-.9-.26-1.45 0-.31.05-.62.16-.93.1-.3.27-.6.5-.88.24-.28.55-.55.92-.8.38-.24.84-.46 1.38-.64.56-.19 1.2-.34 1.92-.45.73-.12 1.56-.19 2.5-.21v-.72c0-.83-.18-1.44-.53-1.83-.35-.4-.86-.6-1.52-.6a3.67 3.67 0 00-2.03.55l-.66.38c-.19.1-.41.16-.65.16a.9.9 0 01-.53-.15 1.34 1.34 0 01-.34-.39l-.53-.94zm24.2 10.6h-2.96V87.46h-4.8v10.11h-2.97V85.27h10.73v12.31z" fill="#5E78FF"/><path d="M1002.97 128.01a4 4 0 001.31-.2c.38-.13.7-.3.96-.54.27-.24.46-.53.6-.86.13-.33.19-.7.19-1.09 0-.82-.25-1.46-.76-1.92-.5-.47-1.27-.7-2.3-.7h-2.07v5.31h2.07zm0-6.68a7 7 0 012.12.28c.61.2 1.11.46 1.5.8.4.35.69.77.88 1.27.2.49.3 1.04.3 1.64 0 .6-.1 1.15-.31 1.65s-.52.93-.93 1.29c-.4.36-.9.64-1.5.84-.6.2-1.28.3-2.06.3h-2.07v4.82h-1.74v-12.9h3.81zm13.25 7.34c0-.37-.06-.71-.16-1.02a2.34 2.34 0 00-.46-.8c-.2-.22-.44-.4-.73-.52a2.45 2.45 0 00-.98-.19c-.77 0-1.38.23-1.83.68a3.17 3.17 0 00-.83 1.85h4.99zm1.29 4.28c-.19.24-.43.45-.71.63a5.11 5.11 0 01-1.86.68c-.34.06-.67.09-1 .09-.63 0-1.21-.1-1.74-.31a3.95 3.95 0 01-2.28-2.47 6.1 6.1 0 01-.04-3.87c.2-.55.48-1.03.85-1.43.36-.41.81-.73 1.34-.96a4.35 4.35 0 013.29-.07 3.54 3.54 0 012.01 2.07c.19.5.29 1.08.29 1.73 0 .25-.03.42-.08.5-.06.09-.16.13-.31.13h-6.09c.02.58.09 1.08.23 1.5.15.43.34.79.6 1.07.25.29.55.5.9.64.34.14.73.21 1.17.21a3.48 3.48 0 001.79-.44c.21-.1.38-.2.52-.3a.7.7 0 01.37-.14c.13 0 .23.05.3.15l.45.59zm11.11 1.27h-1.6v-7.85h-2.88a29.27 29.27 0 01-.33 3 14 14 0 01-.52 2.15c-.2.6-.42 1.07-.67 1.44-.25.37-.51.66-.79.86-.27.2-.55.34-.84.41-.29.08-.58.11-.87.11-.51 0-.76-.08-.76-.24v-1.02h.47c.2 0 .41-.04.62-.1.21-.08.41-.22.61-.42.2-.2.4-.49.58-.86.19-.37.36-.85.51-1.44.15-.59.29-1.3.39-2.15.12-.84.2-1.85.26-3h5.82v9.11zm11.36-9.11v9.11h-1.61v-6.19l.02-.39.05-.4-.16.32-.18.28-4.4 5.99c-.06.1-.15.19-.25.28a.46.46 0 01-.32.12h-.97v-9.11h1.61v6.19l-.02.38-.05.4.17-.31c.05-.1.1-.2.16-.28l4.4-5.99c.06-.1.15-.18.25-.27.1-.09.21-.13.33-.13h.97zm2.95.93c.34-.32.76-.58 1.24-.78.5-.2 1.09-.3 1.78-.3.55 0 1.04.07 1.46.21.42.13.77.3 1.05.53.29.22.5.48.65.77a1.85 1.85 0 01.13 1.45c-.05.2-.15.38-.28.56a2.35 2.35 0 01-1.29.88 2.8 2.8 0 011.36.84c.34.39.51.86.51 1.41 0 .42-.1.8-.29 1.15a2.8 2.8 0 01-.77.86 3.8 3.8 0 01-1.14.54 4.66 4.66 0 01-2.24.1 4.63 4.63 0 01-1.7-.68 3.03 3.03 0 01-.67-.63l.45-.59c.07-.1.17-.15.3-.15.11 0 .22.05.34.14.13.1.28.2.46.3.18.12.4.23.66.32.26.1.58.14.96.14a3 3 0 00.88-.12c.27-.08.49-.2.67-.34.18-.15.32-.32.41-.51.1-.2.15-.42.15-.65 0-.45-.19-.81-.57-1.1-.37-.27-.94-.4-1.7-.4h-1.03v-1.07h1.03c.33 0 .63-.03.89-.1.27-.07.49-.16.68-.28.18-.12.32-.27.42-.44a1.14 1.14 0 00-.35-1.5 1.96 1.96 0 00-.61-.28c-.25-.07-.54-.1-.87-.1a3.44 3.44 0 00-1.96.57c-.11.07-.2.1-.28.1a.42.42 0 01-.2-.04.72.72 0 01-.16-.19l-.37-.62z" fill="#414141"/><circle cx="123.59" cy="124.22" r="122.24" stroke="#5E78FF" stroke-width="2" stroke-dasharray="5.5 5.5"/><circle cx="348.33" cy="124.22" r="122.24" stroke="#5E78FF" stroke-width="2" stroke-dasharray="5.5 5.5"/><circle cx="798.52" cy="124.22" r="122.24" stroke="#5E78FF" stroke-width="2" stroke-dasharray="5.5 5.5"/><circle cx="1023.92" cy="124.22" r="122.24" stroke="#5E78FF" stroke-width="2" stroke-dasharray="5.5 5.5"/><path d="M573.75 287.49v76.5" stroke="#5E78FF" stroke-width="2"/><path d="M578 360.73l-4.25 4.24-4.25-4.24" stroke="#5E78FF" stroke-width="2" stroke-linecap="round"/></svg>