<svg width="833" height="135" fill="none" xmlns="http://www.w3.org/2000/svg"><path d="M136.12 70.61h30.1" stroke="#5E78FF" stroke-width="2"/><path d="M163.87 66.88l3.73 3.73-3.73 3.74" stroke="#5E78FF" stroke-width="2" stroke-linecap="round"/><path d="M311.37 70.61h30.1" stroke="#5E78FF" stroke-width="2"/><path d="M339.13 66.88l3.73 3.73-3.73 3.74" stroke="#5E78FF" stroke-width="2" stroke-linecap="round"/><path d="M487.9 70.61H518" stroke="#5E78FF" stroke-width="2"/><path d="M515.65 66.88l3.73 3.73-3.73 3.74" stroke="#5E78FF" stroke-width="2" stroke-linecap="round"/><path d="M664.43 70.61h30.1" stroke="#5E78FF" stroke-width="2"/><path d="M692.18 66.88l3.73 3.73-3.73 3.74" stroke="#5E78FF" stroke-width="2" stroke-linecap="round"/><circle cx="63.73" cy="70.62" r="62.73" stroke="#5E78FF" stroke-width="2"/><path d="M24.05 54.52a2.8 2.8 0 002.58-1.84 3.24 3.24 0 00-.57-3.26 2.73 2.73 0 00-2-.9v6zm-2.04-6a2.76 2.76 0 00-2.58 1.86 3.36 3.36 0 000 2.31 2.82 2.82 0 002.58 1.84V48.5zm2.04-1.66c.72.02 1.39.16 1.99.4a4.88 4.88 0 012.57 2.48 4.42 4.42 0 01-1.02 5.03c-.43.42-.95.76-1.55 1-.6.26-1.27.4-1.99.42v1.37h-2.04V56.2a5.17 5.17 0 01-3.54-1.42 4.6 4.6 0 01-1.38-3.26 4.34 4.34 0 011.39-3.23c.44-.42.96-.75 1.56-1 .6-.26 1.26-.4 1.97-.42V45.5h2.04v1.35zm10.92 2.37c.61 0 1.16.1 1.66.3a3.59 3.59 0 012.1 2.16c.2.52.29 1.1.29 1.75 0 .65-.1 1.24-.29 1.76a3.54 3.54 0 01-2.1 2.18c-.5.2-1.05.3-1.66.3-.61 0-1.17-.1-1.67-.3a3.61 3.61 0 01-2.11-2.18c-.2-.52-.29-1.1-.29-1.76 0-.64.1-1.23.29-1.75.2-.52.47-.96.82-1.33.36-.36.79-.64 1.29-.84.5-.2 1.06-.3 1.67-.3zm0 6.93c.68 0 1.19-.23 1.51-.68.33-.46.5-1.14.5-2.02 0-.89-.17-1.56-.5-2.02-.32-.47-.83-.7-1.5-.7-.7 0-1.22.23-1.55.7-.33.47-.5 1.14-.5 2.02 0 .88.17 1.55.5 2.02.33.45.85.68 1.54.68zm8.53-.72c.23.27.47.46.73.57a2.2 2.2 0 001.67 0c.24-.11.45-.28.61-.51.17-.23.3-.52.4-.87.08-.35.13-.76.13-1.23 0-.48-.04-.89-.12-1.22a2.3 2.3 0 00-.33-.82 1.3 1.3 0 00-.53-.45 1.6 1.6 0 00-.7-.15c-.4 0-.75.1-1.04.27-.29.17-.56.41-.82.73v3.68zm-.1-4.96c.34-.38.72-.69 1.14-.92a3.07 3.07 0 012.73-.08c.37.19.7.46.96.82.27.35.48.79.63 1.31a6.45 6.45 0 01-.03 3.49c-.16.52-.4.98-.71 1.36a3.24 3.24 0 01-2.57 1.22 3 3 0 01-1.17-.2 2.93 2.93 0 01-.88-.6v3.36h-1.97V49.35h1.2c.26 0 .43.13.5.37l.17.76zm17.72-1.14v8.22h-1.79V53l.03-.64c.02-.23.05-.45.1-.65l-2.42 4.43a.59.59 0 01-.56.34h-.21a.59.59 0 01-.56-.34l-2.45-4.46A7.2 7.2 0 0153.4 53v4.57H51.6v-8.22h1.63a1 1 0 01.4.09c.14.06.26.17.35.35l1.94 3.45a5.72 5.72 0 01.44 1.05l.2-.54.24-.5 1.92-3.46c.1-.18.21-.3.35-.35a1 1 0 01.4-.1h1.64zm10.33.01v8.21h-1.98v-4.79a5.48 5.48 0 01.08-.85 3.88 3.88 0 01-.52.88 195.7 195.7 0 01-.88 1.24 188.77 188.77 0 00-2.16 3.04c-.08.12-.18.22-.3.33a.59.59 0 01-.4.16h-1.22v-8.2h1.98v4.79c0 .12 0 .25-.02.4l-.05.44a4.18 4.18 0 01.5-.86 49.35 49.35 0 00.89-1.24l.58-.83 1.59-2.23c.07-.11.17-.22.3-.33.12-.1.26-.16.41-.16h1.2zm4.93 6.09c.22.27.46.46.73.57a2.2 2.2 0 001.67 0c.24-.11.44-.28.6-.51.18-.23.3-.52.4-.87.09-.35.13-.76.13-1.23 0-.48-.04-.89-.12-1.22a2.3 2.3 0 00-.32-.82 1.3 1.3 0 00-.53-.45 1.6 1.6 0 00-.7-.15c-.4 0-.76.1-1.05.27-.28.17-.56.41-.81.73v3.68zm-.1-4.96c.33-.38.71-.69 1.14-.92a3.07 3.07 0 012.73-.08c.37.19.69.46.96.82.27.35.48.79.62 1.31a6.45 6.45 0 01-.02 3.49c-.17.52-.4.98-.72 1.36-.3.38-.67.68-1.1.9-.44.22-.93.32-1.46.32a3 3 0 01-1.18-.2 2.93 2.93 0 01-.87-.6v3.36H74.4V49.35h1.21c.26 0 .42.13.5.37l.16.76zm11.83-1.25c.61 0 1.16.1 1.66.3a3.59 3.59 0 012.1 2.16c.2.52.29 1.1.29 1.75 0 .65-.1 1.24-.29 1.76a3.54 3.54 0 01-2.1 2.18c-.5.2-1.05.3-1.66.3-.61 0-1.17-.1-1.67-.3a3.62 3.62 0 01-2.11-2.18c-.2-.52-.29-1.1-.29-1.76 0-.64.1-1.23.29-1.75.2-.52.47-.96.82-1.33.36-.36.79-.64 1.29-.84.5-.2 1.06-.3 1.67-.3zm0 6.93c.68 0 1.19-.23 1.51-.68.33-.46.5-1.14.5-2.02 0-.89-.17-1.56-.5-2.02-.32-.47-.83-.7-1.5-.7-.7 0-1.22.23-1.55.7-.33.47-.5 1.14-.5 2.02 0 .88.17 1.55.5 2.02.33.45.85.68 1.54.68zm9.91.05c.42 0 .74-.1.98-.3.25-.2.37-.48.37-.83 0-.15-.02-.3-.06-.42a.74.74 0 00-.21-.34c-.1-.1-.24-.18-.42-.23a2.25 2.25 0 00-.65-.08h-1.48v2.2h1.47zm-1.47-5.57v2.16h1.3a1.33 1.33 0 00.94-.32c.11-.11.2-.23.27-.37a1.15 1.15 0 00.03-.84.76.76 0 00-.21-.32c-.1-.1-.24-.17-.41-.22a1.89 1.89 0 00-.63-.09h-1.3zm1.35-1.29c.52 0 .96.06 1.34.16.37.1.69.24.93.41a1.66 1.66 0 01.72 1.42c0 .17-.02.36-.07.55a1.8 1.8 0 01-.7 1.02c-.2.15-.45.26-.76.34.28.06.52.14.75.25.22.1.41.23.57.4.16.15.29.33.37.54a2.12 2.12 0 01-.82 2.54c-.29.2-.63.34-1.01.44-.38.1-.78.14-1.2.14h-3.35v-8.2h3.23zm10.15 4.7c-.57.04-1.05.09-1.44.16-.39.07-.7.16-.94.27-.23.12-.4.25-.5.4a.85.85 0 00-.15.48c0 .35.1.6.3.75.21.15.48.22.81.22.4 0 .76-.07 1.05-.21.3-.15.59-.38.87-.68v-1.38zm-4.53-3.55a4.87 4.87 0 013.41-1.3c.48 0 .91.08 1.29.24a2.66 2.66 0 011.55 1.66c.14.39.2.81.2 1.28v5.18h-.89a.94.94 0 01-.43-.08c-.1-.06-.18-.17-.24-.34l-.17-.6c-.21.2-.42.36-.61.5a3.78 3.78 0 01-1.3.57 3.7 3.7 0 01-1.77-.05c-.3-.1-.54-.24-.76-.43a1.87 1.87 0 01-.5-.7 2.46 2.46 0 01-.06-1.58c.06-.2.18-.4.33-.6.16-.18.37-.35.62-.52.25-.16.55-.3.92-.43.36-.12.8-.22 1.28-.3.48-.08 1.04-.13 1.66-.14v-.48c0-.55-.12-.96-.35-1.22-.24-.26-.58-.4-1.02-.4a2.45 2.45 0 00-1.35.37l-.44.25a.84.84 0 01-.43.11.58.58 0 01-.35-.1.94.94 0 01-.23-.26l-.36-.63zM24.8 68.36v8.2H22.8v-3.63h-3.2v3.63h-1.97v-8.2h1.97v3.1h3.2v-3.1h1.98zm10.33 0v8.2h-1.97v-4.79a5.48 5.48 0 01.07-.85 3.88 3.88 0 01-.51.88 195.7 195.7 0 01-.9 1.24 188.77 188.77 0 00-2.15 3.04c-.08.11-.18.22-.3.33a.59.59 0 01-.4.16h-1.21v-8.2h1.97v4.78c0 .13 0 .26-.02.41l-.05.44a4.18 4.18 0 01.5-.86 49.35 49.35 0 00.9-1.24l.58-.83 1.58-2.23c.07-.11.17-.22.3-.33.12-.1.26-.16.41-.16h1.2zm8.24 3.16c0-.26-.04-.5-.11-.72a1.67 1.67 0 00-.32-.6c-.14-.18-.33-.3-.55-.4-.22-.1-.48-.16-.77-.16-.57 0-1.02.17-1.35.5a2.4 2.4 0 00-.63 1.38h3.73zM39.6 72.7c.04.42.11.78.23 1.1.12.3.27.55.46.75.2.2.42.35.68.45.27.1.56.14.88.14.32 0 .6-.03.83-.1.23-.08.43-.16.6-.25l.46-.25a.79.79 0 01.38-.11c.17 0 .3.06.37.18l.57.72a3.38 3.38 0 01-1.6 1.06 6.38 6.38 0 01-1.8.28c-.55 0-1.09-.09-1.58-.28a3.64 3.64 0 01-2.13-2.21 5.36 5.36 0 01-.04-3.48 3.7 3.7 0 012.02-2.16c.48-.22 1.04-.32 1.65-.32.52 0 1 .08 1.43.24a3.1 3.1 0 011.87 1.9c.18.46.27.98.27 1.58 0 .3-.03.5-.1.6-.06.1-.18.16-.37.16H39.6zm12.44-3.47c.31-.3.7-.54 1.15-.72.46-.2 1.01-.3 1.65-.3.5 0 .96.07 1.35.2.4.1.73.27 1 .48.27.2.47.44.61.7a1.68 1.68 0 01.15 1.32 1.87 1.87 0 01-.63.94c-.18.12-.39.24-.64.33.45.18.8.43 1.08.76s.42.74.42 1.22c0 .4-.1.76-.28 1.06-.18.31-.43.58-.73.8a4.35 4.35 0 01-4.62-.04 3.4 3.4 0 01-.72-.65l.57-.72a.4.4 0 01.36-.19.6.6 0 01.35.13l.39.25a2.22 2.22 0 001.29.37c.5 0 .87-.11 1.12-.34.26-.22.39-.5.39-.84a.9.9 0 00-.4-.77c-.26-.19-.7-.28-1.28-.28h-.93v-1.3h.93c.51 0 .91-.08 1.19-.26a.83.83 0 00.42-.72.8.8 0 00-.37-.67 1.8 1.8 0 00-1.07-.27 2.55 2.55 0 00-1.24.28c-.14.06-.25.13-.35.18a.51.51 0 01-.5.04.7.7 0 01-.21-.23l-.45-.76zm13.02 3.82c-.57.03-1.05.08-1.44.15-.39.07-.7.16-.94.27-.23.11-.4.25-.5.4a.85.85 0 00-.15.48c0 .35.1.6.3.75.21.15.48.22.81.22.4 0 .76-.07 1.05-.22.3-.14.59-.37.87-.67v-1.38zm-4.53-3.56a4.87 4.87 0 013.41-1.3c.48 0 .91.08 1.29.24a2.65 2.65 0 011.55 1.66c.14.39.2.82.2 1.28v5.18h-.89a.94.94 0 01-.43-.08c-.1-.06-.18-.17-.24-.34l-.18-.6a3.74 3.74 0 01-1.91 1.06 3.7 3.7 0 01-1.76-.05c-.3-.1-.54-.23-.76-.42a1.88 1.88 0 01-.5-.7 2.47 2.47 0 01-.07-1.58c.07-.2.19-.4.34-.6.16-.18.37-.35.62-.52a4 4 0 01.92-.43c.36-.12.8-.22 1.28-.3.48-.08 1.04-.13 1.66-.14v-.48c0-.55-.12-.96-.35-1.22-.24-.26-.57-.4-1.02-.4a2.45 2.45 0 00-1.35.37l-.44.25a.84.84 0 01-.43.11.59.59 0 01-.35-.1.95.95 0 01-.24-.26l-.35-.63zm13.6 2.55v-2.4h-1.07c-.25 0-.46.03-.63.1-.16.07-.3.17-.4.28a.98.98 0 00-.22.39c-.04.14-.06.28-.06.42 0 .38.12.68.37.9.26.2.6.31 1.03.31h.98zm1.88-3.7v8.21h-1.88v-3.3h-.34c-.16 0-.3.02-.4.05a.8.8 0 00-.45.3l-.15.26-1.32 2.01c-.06.12-.13.21-.2.3a.97.97 0 01-.58.34c-.12.03-.27.04-.45.04h-1.37l2.08-2.9a1.66 1.66 0 01.92-.78 3.38 3.38 0 01-.99-.32 2.37 2.37 0 01-.65-.5 1.93 1.93 0 01-.47-1.3 2.08 2.08 0 01.75-1.66c.26-.22.6-.4 1.01-.54.41-.14.9-.2 1.48-.2H76zm6.32 6.86c.41 0 .74-.1.98-.3.25-.2.37-.48.37-.83 0-.15-.02-.3-.07-.42a.74.74 0 00-.2-.34c-.1-.1-.24-.18-.42-.23a2.25 2.25 0 00-.66-.08h-1.48v2.2h1.48zm-1.48-5.57v2.16h1.3a1.33 1.33 0 00.94-.32c.12-.11.21-.23.28-.37a1.15 1.15 0 00.03-.83.76.76 0 00-.22-.33c-.1-.1-.23-.17-.4-.22a1.89 1.89 0 00-.63-.09h-1.3zm1.36-1.28c.51 0 .96.05 1.33.15.38.1.7.24.94.41a1.66 1.66 0 01.72 1.42c0 .17-.03.36-.07.55a1.79 1.79 0 01-.7 1.02c-.2.15-.46.26-.76.34.27.06.52.14.74.25.23.1.42.23.58.4.16.15.28.33.37.54.09.21.13.45.13.7a2.12 2.12 0 01-.96 1.84c-.28.2-.62.34-1 .44-.38.1-.78.14-1.2.14h-3.36v-8.2h3.24zm9.44-.13c.61 0 1.16.1 1.66.3a3.59 3.59 0 012.1 2.16c.2.52.3 1.1.3 1.75 0 .65-.1 1.24-.3 1.76a3.54 3.54 0 01-2.1 2.18c-.5.2-1.05.3-1.66.3-.61 0-1.17-.1-1.67-.3a3.62 3.62 0 01-2.11-2.18c-.2-.52-.29-1.1-.29-1.76 0-.64.1-1.23.29-1.75.2-.52.47-.96.82-1.33.36-.36.79-.64 1.3-.84.5-.2 1.05-.3 1.66-.3zm0 6.93c.69 0 1.19-.23 1.52-.69.33-.45.5-1.13.5-2.01 0-.89-.17-1.56-.5-2.02-.33-.47-.83-.7-1.52-.7-.69 0-1.2.23-1.54.7-.33.47-.5 1.14-.5 2.02 0 .88.17 1.55.5 2.02.34.45.85.68 1.54.68zm11.46-6.28a1.1 1.1 0 01.92-.52h1.56l-1.92 3.04c-.13.22-.27.39-.4.52-.14.13-.31.23-.5.3.26.09.48.2.65.37.17.15.32.35.46.59l1.92 3.38h-1.37c-.34 0-.61-.06-.8-.17-.2-.12-.36-.29-.5-.5l-1.2-2.28a1.07 1.07 0 00-1-.58h-.75v3.53H98.2v-8.2h1.97v3.38h.64c.23 0 .4-.04.54-.12.14-.09.26-.21.35-.39l1.4-2.36zM22.56 87.22c.6 0 1.16.1 1.65.3a3.59 3.59 0 012.1 2.16c.2.52.3 1.1.3 1.75 0 .65-.1 1.24-.3 1.76a3.54 3.54 0 01-2.1 2.18c-.5.2-1.04.3-1.65.3-.62 0-1.17-.1-1.67-.3a3.62 3.62 0 01-2.12-2.18c-.19-.52-.28-1.1-.28-1.76 0-.64.1-1.23.28-1.75a3.67 3.67 0 012.11-2.17c.5-.2 1.06-.3 1.68-.3zm0 6.93c.68 0 1.18-.23 1.51-.69.33-.45.5-1.13.5-2.01 0-.89-.17-1.56-.5-2.02-.33-.47-.83-.7-1.51-.7-.7 0-1.21.23-1.55.7-.33.47-.5 1.14-.5 2.02 0 .88.17 1.55.5 2.02.34.45.85.68 1.55.68zm13.36-5.34h-2.93v6.74h-1.98v-6.74H28.1v-1.46h7.83v1.46zm11.96-.94a1.1 1.1 0 01.92-.52h1.55l-1.91 3.04c-.14.22-.27.39-.41.52-.14.13-.3.23-.5.3.26.09.48.2.65.37.17.15.33.35.46.59l1.92 3.38H49.2c-.35 0-.62-.06-.81-.17-.2-.12-.36-.29-.49-.5l-1.2-2.28a1.07 1.07 0 00-1-.58h-.75v3.53h-1.98v-8.2h1.98v3.38h.64c.22 0 .4-.04.53-.12.14-.09.26-.21.36-.39l1.4-2.36zm12.4 7.68H58.3v-6.7h-2.02c-.06 1.02-.16 1.88-.3 2.61-.13.73-.29 1.35-.47 1.85-.18.51-.39.92-.62 1.23-.22.3-.46.54-.72.7-.25.18-.52.3-.79.34a3.9 3.9 0 01-.82.1c-.3 0-.51-.03-.65-.09-.14-.04-.2-.11-.2-.2v-1.24h.47c.18 0 .35-.02.53-.08.17-.05.34-.16.51-.33.17-.16.32-.4.47-.7.15-.3.29-.71.41-1.22.13-.5.24-1.12.34-1.85.1-.73.17-1.6.22-2.63h5.62v8.21zm10.32-8.2v8.2h-1.98v-4.79a5.42 5.42 0 01.07-.85 3.88 3.88 0 01-.5.88 195.7 195.7 0 01-.9 1.24 180.52 180.52 0 00-2.16 3.04c-.07.11-.17.22-.3.33a.59.59 0 01-.4.16h-1.2v-8.2h1.97v4.78l-.03.41c0 .15-.02.3-.04.44a4.17 4.17 0 01.5-.86 49.35 49.35 0 00.89-1.24l.58-.83 1.59-2.23c.07-.11.17-.22.3-.33.12-.1.25-.16.4-.16h1.2zm8.24 3.16c0-.26-.04-.5-.11-.72a1.67 1.67 0 00-.32-.6c-.15-.18-.33-.3-.56-.4-.21-.1-.47-.16-.76-.16-.57 0-1.02.17-1.36.5a2.4 2.4 0 00-.62 1.38h3.73zm-3.77 1.19c.03.42.1.78.22 1.1.12.3.28.55.47.75.2.2.42.35.68.45.27.1.56.14.88.14.32 0 .6-.03.82-.1.24-.08.44-.16.61-.25l.46-.25a.79.79 0 01.38-.11c.17 0 .29.06.37.18l.57.72a3.38 3.38 0 01-1.6 1.06 6.38 6.38 0 01-1.8.28c-.56 0-1.09-.09-1.58-.28a3.64 3.64 0 01-2.14-2.21 5.36 5.36 0 01-.04-3.48 3.7 3.7 0 012.02-2.16c.5-.22 1.04-.32 1.66-.32.51 0 1 .08 1.43.24a3.1 3.1 0 011.86 1.9c.18.46.27.98.27 1.58 0 .3-.03.5-.1.6-.06.1-.18.16-.36.16h-5.08zm15.18-4.35v8.2h-1.98v-3.63h-3.2v3.63H83.1v-8.2h1.97v3.1h3.2v-3.1h1.98zm10 1.46h-2.93v6.74h-1.98v-6.74h-2.92v-1.46h7.83v1.46zm6.45 3.24c-.57.03-1.05.08-1.44.15-.39.07-.7.16-.94.27-.23.11-.4.25-.5.4a.85.85 0 00-.15.48c0 .35.1.6.3.75.2.15.48.22.8.22.41 0 .76-.07 1.06-.22.3-.14.59-.37.87-.67v-1.38zm-4.53-3.56a4.87 4.87 0 013.4-1.3c.49 0 .92.08 1.3.24a2.65 2.65 0 011.55 1.66c.14.39.2.82.2 1.28v5.18h-.89a.94.94 0 01-.43-.08c-.1-.06-.18-.17-.24-.34l-.18-.6c-.2.2-.4.36-.6.5a3.74 3.74 0 01-1.3.57 3.7 3.7 0 01-1.77-.05c-.3-.1-.55-.24-.76-.43a1.89 1.89 0 01-.5-.7c-.11-.27-.17-.6-.17-.96a1.9 1.9 0 01.44-1.21c.16-.19.36-.36.61-.53a4 4 0 01.92-.43c.37-.12.8-.22 1.28-.3.49-.08 1.05-.13 1.67-.14v-.48c0-.55-.12-.96-.35-1.22-.24-.26-.58-.4-1.02-.4a2.45 2.45 0 00-1.35.37l-.44.25a.84.84 0 01-.43.11.58.58 0 01-.36-.1.96.96 0 01-.23-.26l-.35-.63z" fill="#5E78FF"/><circle cx="239.7" cy="70.62" r="62.73" stroke="#5E78FF" stroke-width="2"/><path d="M204.64 67.35h-2.16v-9.9h-5.03v9.9h-2.16V55.8h9.35v11.56zm5.11-2.12c.23.27.47.46.73.57a2.2 2.2 0 001.67 0c.24-.11.44-.28.61-.51.17-.23.3-.52.4-.86.08-.36.13-.77.13-1.24 0-.48-.04-.89-.12-1.22-.08-.34-.19-.6-.33-.82a1.3 1.3 0 00-.53-.45c-.2-.1-.43-.15-.7-.15-.4 0-.75.1-1.04.27-.29.17-.56.41-.82.73v3.68zm-.1-4.96c.33-.38.72-.69 1.14-.92a3.07 3.07 0 012.73-.08c.37.19.7.46.96.82.27.35.48.79.62 1.31a6.46 6.46 0 01-.02 3.49c-.17.52-.4.98-.71 1.36a3.25 3.25 0 01-2.57 1.22c-.46 0-.85-.07-1.18-.2a2.93 2.93 0 01-.87-.6v3.36h-1.97V59.15h1.2c.26 0 .43.12.5.36l.17.76zm13.5 2.04c0-.26-.05-.5-.12-.72a1.66 1.66 0 00-.32-.6c-.14-.18-.33-.3-.55-.4-.22-.1-.48-.16-.77-.16-.57 0-1.02.17-1.35.5-.33.32-.53.78-.63 1.38h3.73zm-3.78 1.19c.04.42.11.78.23 1.1.12.3.27.55.46.75.2.2.42.35.68.45.27.1.56.15.88.15.32 0 .6-.04.83-.12.23-.07.43-.15.6-.24l.46-.25a.79.79 0 01.38-.11c.17 0 .3.06.37.18l.57.72a3.39 3.39 0 01-1.6 1.06 6.38 6.38 0 01-1.8.28c-.56 0-1.09-.09-1.58-.28a3.64 3.64 0 01-2.13-2.21 5.36 5.36 0 01-.04-3.48 3.7 3.7 0 012.02-2.16c.49-.22 1.04-.32 1.65-.32.52 0 1 .08 1.43.25a3.1 3.1 0 011.87 1.9c.18.45.27.98.27 1.57 0 .3-.03.5-.1.6-.06.1-.19.16-.37.16h-5.08zm13.47 2.45v-5.3h-2.01c-.06.7-.12 1.32-.2 1.87-.08.55-.18 1.04-.28 1.47-.11.44-.23.81-.36 1.13-.12.32-.25.6-.4.83h3.25zm3.43-.06v3.62c0 .18-.06.33-.16.44-.1.1-.24.16-.4.16h-1.24v-2.76h-6.14v2.2c0 .13-.05.26-.14.38-.08.12-.22.18-.4.18h-1.25v-4.16h.23c.19 0 .37-.03.54-.08.18-.05.35-.16.5-.32.17-.16.33-.39.47-.68.15-.3.28-.71.4-1.21s.22-1.13.3-1.87c.1-.73.17-1.62.22-2.64h5.56v6.74h1.5zm5.73-6.87c.61 0 1.16.1 1.66.3a3.6 3.6 0 012.1 2.16c.2.52.29 1.1.29 1.75 0 .65-.1 1.24-.29 1.76a3.54 3.54 0 01-2.1 2.18c-.5.2-1.05.3-1.66.3-.61 0-1.17-.1-1.67-.3a3.6 3.6 0 01-2.11-2.18c-.2-.52-.29-1.1-.29-1.76 0-.64.1-1.23.29-1.75.2-.52.47-.96.82-1.33.36-.36.79-.64 1.29-.84.5-.2 1.06-.3 1.67-.3zm0 6.93c.68 0 1.19-.23 1.51-.68.33-.46.5-1.14.5-2.02 0-.89-.17-1.56-.5-2.02-.32-.47-.83-.7-1.5-.7-.7 0-1.22.23-1.55.7-.33.47-.5 1.14-.5 2.02 0 .88.17 1.55.5 2.02.33.45.85.68 1.54.68zm13.7 1.4h-1.97v-6.74h-3.2v6.74h-1.97v-8.2h7.15v8.2zm10.58 0h-1.97v-6.7h-2.02c-.06 1.02-.16 1.88-.3 2.62-.13.72-.29 1.34-.48 1.84-.18.51-.38.92-.61 1.23-.23.3-.47.54-.72.7-.26.18-.52.3-.8.35-.27.05-.54.08-.82.08-.3 0-.5-.02-.65-.08-.13-.04-.2-.11-.2-.2v-1.24h.48c.17 0 .35-.02.52-.08.18-.05.35-.16.52-.32.16-.17.32-.4.47-.7.15-.32.28-.72.4-1.22.13-.51.25-1.13.34-1.86.1-.73.17-1.6.23-2.62h5.61v8.2zm7.29-3.5c-.58.03-1.06.08-1.44.15-.4.07-.7.16-.94.27-.24.12-.4.25-.5.4a.85.85 0 00-.16.48c0 .35.1.6.3.75.22.15.48.22.81.22.41 0 .76-.07 1.05-.21.3-.15.6-.38.88-.68v-1.38zm-4.53-3.56a4.87 4.87 0 013.4-1.3c.49 0 .91.08 1.3.24a2.65 2.65 0 011.55 1.66c.13.39.2.82.2 1.28v5.18h-.9a.94.94 0 01-.42-.08c-.1-.06-.19-.17-.25-.34l-.17-.6c-.2.2-.41.36-.6.5a3.74 3.74 0 01-1.31.57 3.7 3.7 0 01-1.76-.05c-.3-.1-.55-.24-.76-.43a1.88 1.88 0 01-.5-.7c-.12-.27-.18-.6-.18-.96a1.9 1.9 0 01.44-1.21c.17-.19.37-.36.62-.53a4 4 0 01.92-.43c.37-.12.8-.22 1.28-.3.49-.08 1.04-.12 1.67-.14v-.48c0-.55-.12-.96-.36-1.22-.23-.26-.57-.4-1.01-.4a2.45 2.45 0 00-1.35.37l-.45.25a.84.84 0 01-.43.11.58.58 0 01-.35-.1.96.96 0 01-.23-.26l-.35-.63zm16.21.32h-2.93v6.74h-1.97v-6.74h-2.92v-1.46h7.82v1.46zm-64.08 22.24c-.57.03-1.05.08-1.44.15-.4.07-.7.16-.94.27-.23.12-.4.25-.5.4a.85.85 0 00-.16.48c0 .35.1.6.3.75.22.15.49.22.82.22.4 0 .75-.07 1.04-.21.3-.15.6-.38.88-.68v-1.38zm-4.53-3.56a4.87 4.87 0 013.4-1.3c.49 0 .92.08 1.3.24a2.65 2.65 0 011.55 1.66c.14.39.2.82.2 1.28v5.18h-.9a.95.95 0 01-.42-.08c-.1-.06-.19-.17-.24-.34l-.18-.6c-.2.2-.41.36-.6.5a3.7 3.7 0 01-1.31.57 3.69 3.69 0 01-1.76-.05c-.3-.1-.55-.24-.76-.43a1.9 1.9 0 01-.5-.7c-.11-.27-.17-.6-.17-.96a1.9 1.9 0 01.44-1.21c.16-.19.36-.36.61-.53.25-.16.56-.3.92-.43.37-.12.8-.22 1.28-.3.49-.08 1.04-.12 1.67-.14v-.48c0-.55-.12-.96-.36-1.22-.23-.26-.57-.4-1.01-.4a2.45 2.45 0 00-1.35.37l-.44.25a.84.84 0 01-.44.11.59.59 0 01-.35-.1.96.96 0 01-.23-.26l-.35-.63zm16.48-.3a6.51 6.51 0 011.41-.16c.61 0 1.15.1 1.61.28a3.14 3.14 0 011.88 1.88 4.19 4.19 0 01-.09 3.06 3.8 3.8 0 01-2.26 2.14 4.8 4.8 0 01-2.74.18 5.46 5.46 0 01-1.72-.73 5.4 5.4 0 01-.64-.52l.6-.84c.13-.18.3-.27.5-.27.14 0 .28.04.42.13l.47.28c.18.1.39.2.63.28.25.08.54.13.88.13.36 0 .68-.06.96-.18.28-.12.5-.28.69-.49.19-.21.32-.46.41-.75.1-.3.15-.61.15-.95 0-.63-.19-1.12-.55-1.47-.37-.36-.9-.54-1.62-.54-.55 0-1.11.1-1.69.3l-1.23-.35.96-5.61h5.71v.84c0 .28-.09.5-.26.68-.18.18-.48.27-.9.27h-3.17l-.41 2.4zm15.91 1.58c0 1-.1 1.88-.33 2.63a5.28 5.28 0 01-.9 1.84c-.37.49-.82.85-1.34 1.09-.52.23-1.08.35-1.69.35a3.66 3.66 0 01-3.02-1.44 5.4 5.4 0 01-.88-1.84 9.65 9.65 0 01-.32-2.63c0-1.01.1-1.9.32-2.63a5.4 5.4 0 01.89-1.84c.38-.49.82-.85 1.34-1.08a3.95 3.95 0 011.68-.36c.6 0 1.16.12 1.68.36.52.23.97.6 1.35 1.08.38.48.68 1.1.9 1.84.21.74.32 1.62.32 2.63zm-2.04 0c0-.84-.06-1.53-.18-2.08a4.1 4.1 0 00-.5-1.31 1.73 1.73 0 00-1.53-.88c-.29 0-.56.06-.83.2-.26.13-.5.35-.7.68-.2.32-.36.76-.48 1.3-.12.56-.18 1.25-.18 2.09 0 .84.06 1.53.18 2.08s.28.99.48 1.31c.2.33.44.56.7.69a1.89 1.89 0 001.66 0c.26-.13.5-.36.7-.69.2-.32.38-.76.5-1.31s.18-1.24.18-2.08zm9.4-2.98a3 3 0 01-.8 2.08 2.6 2.6 0 01-1.88.77c-.38 0-.74-.07-1.06-.2-.33-.13-.6-.32-.85-.57a2.7 2.7 0 01-.55-.9 3.3 3.3 0 01-.2-1.18c0-.45.06-.86.2-1.22a2.44 2.44 0 011.4-1.5c.32-.14.68-.2 1.06-.2a2.69 2.69 0 011.92.78c.24.25.43.56.56.92.14.36.2.77.2 1.22zm-1.52 0c0-.31-.03-.57-.1-.78-.05-.2-.14-.38-.24-.5a.84.84 0 00-.37-.28 1.14 1.14 0 00-.45-.08c-.16 0-.3.02-.45.08a.84.84 0 00-.35.28c-.1.12-.18.3-.24.5s-.08.47-.08.78c0 .3.02.54.08.75.06.2.14.35.24.48.1.12.22.2.35.26.14.05.3.08.45.08.16 0 .31-.03.45-.08a.86.86 0 00.37-.26c.1-.13.19-.29.25-.48.06-.2.1-.46.1-.75zm5.37-2.5c.07-.07.15-.14.24-.2.1-.07.23-.1.4-.1h1.44l-8.6 11.27a.97.97 0 01-.24.21.72.72 0 01-.35.08h-1.47l8.58-11.25zm2.69 8.54a3 3 0 01-.8 2.1 2.7 2.7 0 01-1.88.77 2.59 2.59 0 01-1.91-.78 2.7 2.7 0 01-.55-.9 3.3 3.3 0 01-.2-1.19c0-.44.06-.85.2-1.21a2.44 2.44 0 011.4-1.5c.32-.14.68-.2 1.06-.2a2.69 2.69 0 011.91.78c.24.25.43.55.56.92.14.36.2.77.2 1.21zm-1.53 0c0-.3-.03-.56-.09-.77-.06-.21-.14-.38-.25-.5a.84.84 0 00-.36-.28 1.14 1.14 0 00-.45-.09c-.16 0-.31.03-.45.1a.84.84 0 00-.36.26c-.1.13-.18.3-.24.5-.05.22-.08.47-.08.78 0 .3.03.55.08.76.06.2.14.36.24.48.1.13.22.21.36.27.14.05.29.08.45.08.16 0 .3-.03.45-.08a.86.86 0 00.37-.27c.1-.12.18-.28.24-.48.06-.2.1-.46.1-.76z" fill="#5E78FF"/><circle cx="415.38" cy="70.62" r="62.73" stroke="#5E78FF" stroke-width="2"/><path d="M389.48 41.87c0 .85-.14 1.63-.43 2.36a5.5 5.5 0 01-3.03 3.1 6.3 6.3 0 01-2.4.45c-.87 0-1.67-.15-2.39-.44a5.53 5.53 0 01-3.05-3.11 6.44 6.44 0 01-.42-2.36c0-.85.14-1.63.42-2.35a5.43 5.43 0 013.05-3.11c.72-.3 1.52-.45 2.4-.45a6.38 6.38 0 013.07.78 5.36 5.36 0 012.58 3.51c.13.51.2 1.05.2 1.62zm-2.2 0c0-.64-.09-1.2-.26-1.7-.17-.51-.41-.94-.72-1.3-.32-.35-.7-.62-1.16-.8a3.92 3.92 0 00-1.52-.28c-.56 0-1.07.1-1.52.28a3.2 3.2 0 00-1.89 2.1c-.17.5-.25 1.06-.25 1.7 0 .63.08 1.2.25 1.7a3.24 3.24 0 001.88 2.08c.46.2.97.29 1.53.29.57 0 1.07-.1 1.52-.28.46-.19.84-.45 1.16-.8.3-.35.55-.78.72-1.28.17-.5.26-1.08.26-1.71zm11.82-.96h-2.93v6.74h-1.98v-6.74h-2.92v-1.47h7.83v1.47zm8.64-1.47v8.21h-1.98v-3.22c-.7.17-1.35.27-1.96.3-.6.01-1.12-.06-1.56-.22a2.13 2.13 0 01-1.04-.83 2.74 2.74 0 01-.36-1.5v-2.74h1.97v2.43c0 .33.06.6.16.81.11.2.29.35.52.44.24.1.55.13.92.12.38-.02.83-.08 1.35-.19v-3.6h1.98zm8.25 3.16c0-.25-.04-.5-.12-.72a1.66 1.66 0 00-.32-.6c-.14-.17-.32-.3-.55-.4a1.8 1.8 0 00-.77-.15c-.57 0-1.02.16-1.35.49-.32.32-.53.79-.62 1.38h3.73zm-3.77 1.2c.03.42.1.78.22 1.1.12.3.27.55.46.75.2.2.42.35.69.45.26.1.56.14.88.14.31 0 .59-.03.82-.1a9.97 9.97 0 001.06-.5.8.8 0 01.39-.12c.16 0 .28.06.37.19l.56.72c-.22.25-.46.47-.73.65a4.36 4.36 0 01-1.76.63c-.3.04-.6.06-.9.06-.56 0-1.1-.1-1.58-.28a3.64 3.64 0 01-2.14-2.21 5.36 5.36 0 01-.04-3.48 3.7 3.7 0 012.02-2.16c.49-.22 1.04-.32 1.65-.32.52 0 1 .08 1.44.24a3.08 3.08 0 011.86 1.9c.18.46.27.98.27 1.58 0 .3-.03.5-.1.6-.06.1-.18.16-.36.16h-5.08zm15-2.9h-2.93v6.75h-1.97v-6.74h-2.92v-1.47h7.82v1.47zm14.2 6.75h-1.97v-6.74h-3.2v6.74h-1.98v-8.2h7.16v8.2zm6.6-8.33c.6 0 1.16.1 1.65.3a3.6 3.6 0 012.1 2.16c.2.52.3 1.1.3 1.75 0 .65-.1 1.24-.3 1.76a3.54 3.54 0 01-2.1 2.18c-.5.2-1.05.3-1.65.3-.62 0-1.17-.1-1.67-.3a3.6 3.6 0 01-2.12-2.18c-.19-.52-.29-1.1-.29-1.76 0-.64.1-1.23.3-1.75.19-.52.46-.97.82-1.33.35-.36.78-.64 1.29-.84.5-.2 1.05-.3 1.67-.3zm0 6.93c.68 0 1.18-.23 1.5-.69.34-.46.5-1.13.5-2.01 0-.89-.16-1.56-.5-2.03-.32-.46-.82-.7-1.5-.7-.7 0-1.21.24-1.55.71-.33.47-.5 1.14-.5 2.02 0 .88.17 1.55.5 2.01.34.46.85.7 1.55.7zm-82.47 20.4h-1.98v-6.74h-3.2v6.74h-1.98v-8.2h7.16v8.2zm4.93-2.13c.22.28.46.47.73.58a2.21 2.21 0 001.67 0c.24-.11.44-.28.6-.51.18-.23.3-.52.4-.87a5 5 0 00.13-1.24c0-.48-.04-.88-.12-1.21-.07-.34-.18-.61-.32-.82a1.3 1.3 0 00-.53-.45 1.97 1.97 0 00-1.74.12c-.3.17-.57.4-.82.72v3.68zm-.1-4.96c.33-.38.71-.68 1.14-.92a3.07 3.07 0 012.73-.07c.37.19.69.46.96.82.27.35.48.79.62 1.3a6.46 6.46 0 01-.02 3.5c-.17.52-.4.97-.72 1.36-.3.38-.67.68-1.1.9-.44.21-.93.32-1.46.32-.46 0-.85-.07-1.18-.2a2.94 2.94 0 01-.87-.6v3.36h-1.98V58.44h1.21c.26 0 .42.12.5.36l.16.76zm11.83-1.24c.61 0 1.16.1 1.66.3a3.6 3.6 0 012.1 2.16c.2.52.29 1.1.29 1.75 0 .65-.1 1.24-.29 1.76a3.54 3.54 0 01-2.1 2.18c-.5.2-1.05.3-1.66.3-.61 0-1.17-.1-1.67-.3a3.62 3.62 0 01-2.11-2.18c-.2-.52-.29-1.1-.29-1.76 0-.64.1-1.23.29-1.75.2-.52.47-.97.82-1.33.36-.36.79-.64 1.29-.84.5-.2 1.06-.3 1.67-.3zm0 6.93c.69 0 1.19-.23 1.51-.69.33-.46.5-1.13.5-2.01 0-.89-.17-1.56-.5-2.03-.32-.46-.83-.7-1.5-.7-.7 0-1.22.24-1.55.71-.33.47-.5 1.14-.5 2.02 0 .88.17 1.55.5 2.01.33.46.85.7 1.54.7zm11.8 0v-5.3h-2.02c-.05.7-.12 1.31-.2 1.87a15.4 15.4 0 01-.28 1.47 8.54 8.54 0 01-.75 1.95H394zm3.42-.06v3.62c0 .18-.05.33-.16.43-.1.11-.23.16-.4.16h-1.23v-2.75h-6.15v2.2c0 .13-.04.26-.13.38-.09.11-.22.17-.41.17h-1.25v-4.16h.23c.19 0 .37-.02.55-.07.17-.05.34-.16.5-.32.17-.16.32-.39.46-.69.16-.3.29-.7.4-1.2.12-.51.22-1.13.3-1.87.1-.73.17-1.62.23-2.65h5.56v6.75h1.5zm7.4-3.59c0-.25-.05-.5-.12-.72a1.66 1.66 0 00-.32-.6c-.14-.17-.33-.3-.55-.4a1.8 1.8 0 00-.77-.15c-.57 0-1.02.16-1.35.49-.33.32-.54.79-.63 1.38h3.73zm-3.78 1.2c.03.42.11.78.23 1.1.12.3.27.55.46.75.2.2.42.35.68.45.27.1.56.14.88.14.32 0 .6-.03.82-.1a9.97 9.97 0 001.06-.5.8.8 0 01.4-.12c.16 0 .28.06.36.19l.57.72c-.22.25-.46.47-.74.65a4.36 4.36 0 01-1.76.63c-.3.04-.6.06-.88.06-.57 0-1.1-.1-1.6-.28a3.64 3.64 0 01-2.13-2.21 5.36 5.36 0 01-.04-3.48 3.7 3.7 0 012.02-2.16c.48-.22 1.04-.32 1.65-.32.52 0 1 .08 1.43.24a3.08 3.08 0 011.87 1.9c.18.46.27.98.27 1.58 0 .3-.04.5-.1.6-.06.1-.19.16-.37.16h-5.08zm15.65 3.85h-1.98v-6.7h-2.02c-.06 1.01-.16 1.88-.3 2.61-.13.73-.28 1.34-.47 1.85-.18.5-.39.92-.62 1.23-.22.3-.46.54-.72.7-.25.18-.52.29-.79.34a3.9 3.9 0 01-.82.1c-.3 0-.51-.04-.65-.09-.13-.05-.2-.12-.2-.2v-1.24h.47c.18 0 .35-.03.53-.08.17-.05.35-.16.51-.33.17-.16.32-.4.47-.7.15-.31.29-.72.41-1.22.13-.5.24-1.12.34-1.85.1-.73.17-1.6.22-2.63h5.62v8.21zm7.28-3.5c-.57.02-1.05.07-1.44.15-.4.07-.7.16-.94.27-.23.11-.4.24-.5.4a.85.85 0 00-.15.48c0 .35.1.6.3.75.2.14.48.22.8.22.41 0 .76-.07 1.06-.22.3-.15.59-.37.87-.67v-1.38zm-4.53-3.56a4.87 4.87 0 013.4-1.3c.49 0 .92.08 1.3.24a2.67 2.67 0 011.55 1.66c.14.39.2.81.2 1.28v5.18h-.89a.94.94 0 01-.43-.08c-.1-.06-.18-.17-.24-.34l-.18-.6a3.78 3.78 0 01-1.91 1.06 3.7 3.7 0 01-1.76-.05c-.3-.1-.55-.23-.76-.42a1.87 1.87 0 01-.5-.7 2.46 2.46 0 01-.07-1.58c.07-.2.18-.4.34-.6.16-.18.36-.36.62-.52.25-.17.55-.31.92-.43.36-.13.79-.22 1.27-.3.49-.08 1.05-.13 1.67-.14v-.48c0-.55-.12-.96-.35-1.22-.24-.27-.58-.4-1.02-.4a2.45 2.45 0 00-1.35.37l-.44.25a.84.84 0 01-.43.1.58.58 0 01-.35-.1.94.94 0 01-.24-.25l-.35-.63zm16.47-1.15v8.21h-1.98v-3.63h-3.2v3.63h-1.97v-8.2h1.97v3.1h3.2v-3.1h1.98zm10.1 0v8.21h-1.97v-3.63h-3.2v3.63h-1.97v-8.2h1.97v3.1h3.2v-3.1h1.98zm6.32 6.8c.45 0 .78-.12 1-.34.22-.22.33-.51.33-.86a1.18 1.18 0 00-.3-.8c-.11-.11-.25-.2-.42-.25-.17-.07-.38-.1-.62-.1h-1.46v2.35h1.47zm-.02-3.76c.57 0 1.06.07 1.45.21.4.14.72.33.96.56.25.24.42.5.53.82a2.75 2.75 0 01-.04 2.02c-.14.32-.34.6-.6.83-.26.23-.59.41-.97.54-.38.13-.81.2-1.3.2h-3.36v-8.22h1.88v3.04h1.45zm6.58-3.04v8.21h-1.98v-8.2h1.98zm12.46-.01v8.22h-1.79v-4.57l.03-.64c.02-.23.05-.45.1-.65l-2.42 4.43a.59.59 0 01-.56.34h-.21a.59.59 0 01-.56-.34l-2.45-4.46a7.56 7.56 0 01.13 1.32v4.57h-1.78v-8.22h1.63c.14 0 .27.03.4.09.14.05.26.17.35.35l1.94 3.45a5.9 5.9 0 01.44 1.05 4.67 4.67 0 01.44-1.05l1.92-3.45c.1-.18.21-.3.35-.35a1 1 0 01.4-.1h1.64zm-90.16 25.1c.23.27.47.46.73.57a2.2 2.2 0 001.68 0c.24-.11.44-.28.6-.51.17-.23.3-.52.4-.87.08-.35.13-.76.13-1.24s-.04-.88-.12-1.21c-.07-.34-.18-.61-.33-.82a1.3 1.3 0 00-.53-.45c-.2-.1-.43-.15-.7-.15-.4 0-.75.09-1.04.27-.29.17-.56.4-.81.72v3.68zm-.1-4.97c.34-.38.72-.68 1.14-.92a3.07 3.07 0 012.73-.07c.38.19.7.46.96.82.27.35.48.79.63 1.3a6.46 6.46 0 01-.03 3.5c-.16.52-.4.97-.7 1.36a3.25 3.25 0 01-2.57 1.22c-.47 0-.86-.07-1.18-.2a2.93 2.93 0 01-.88-.6v3.36h-1.97V77.44h1.2c.26 0 .43.12.51.36l.16.76zm12.54 3.59c-.57.02-1.05.07-1.44.15-.39.07-.7.16-.93.27-.24.11-.4.24-.5.4a.85.85 0 00-.16.48c0 .35.1.6.3.75.21.14.48.22.81.22.4 0 .76-.07 1.05-.22.3-.15.59-.37.87-.67v-1.38zm-4.52-3.56a4.87 4.87 0 013.4-1.3c.48 0 .91.08 1.3.24a2.67 2.67 0 011.54 1.66c.14.39.21.81.21 1.28v5.18h-.9a.94.94 0 01-.43-.08c-.1-.06-.18-.17-.24-.34l-.17-.6c-.21.2-.41.36-.61.5a3.78 3.78 0 01-1.3.57 3.7 3.7 0 01-1.77-.06c-.29-.1-.54-.23-.75-.42a1.87 1.87 0 01-.5-.7 2.46 2.46 0 01-.07-1.58c.07-.2.18-.4.33-.6.16-.18.37-.36.62-.52.25-.17.56-.31.92-.43.37-.13.8-.22 1.28-.3.48-.08 1.04-.13 1.66-.14v-.48c0-.55-.12-.96-.35-1.22-.23-.27-.57-.4-1.02-.4a2.45 2.45 0 00-1.35.37l-.44.25a.84.84 0 01-.43.1.58.58 0 01-.35-.1.94.94 0 01-.23-.25l-.36-.63zm13.17 5.74c.68 0 1.19-.22 1.53-.65.33-.44.5-1.08.5-1.92 0-.84-.17-1.48-.5-1.92-.32-.43-.82-.65-1.5-.65-.66 0-1.18.2-1.53.62-.35.41-.53 1.03-.53 1.85 0 .87.17 1.53.5 2 .34.44.85.67 1.53.67zm.57-8.37c-.5.03-.93.13-1.28.3-.36.15-.65.37-.88.65-.23.27-.41.6-.53.98a5 5 0 00-.21 1.27 3.1 3.1 0 011.14-1.02 3.5 3.5 0 011.72-.4c.54 0 1.03.1 1.47.29.44.19.8.46 1.11.81.3.36.54.78.7 1.28a5.1 5.1 0 01-.04 3.3 3.57 3.57 0 01-2.1 2.07c-.51.19-1.06.28-1.67.28-.6 0-1.14-.1-1.64-.29-.5-.19-.93-.5-1.29-.93-.36-.43-.65-1-.85-1.68a11.1 11.1 0 01-.07-4.87c.15-.72.4-1.35.76-1.9.35-.54.81-.97 1.38-1.3a4.92 4.92 0 012.12-.6l2.92-.22.1 1.02c.02.22-.01.4-.1.56-.08.15-.23.23-.45.24l-2.3.16zm9.66 1.36c.6 0 1.16.1 1.65.3a3.6 3.6 0 012.1 2.16c.2.52.3 1.1.3 1.75 0 .65-.1 1.24-.3 1.76a3.54 3.54 0 01-2.1 2.18c-.5.2-1.05.3-1.65.3-.62 0-1.17-.1-1.67-.3a3.6 3.6 0 01-2.12-2.18c-.19-.52-.29-1.1-.29-1.76 0-.64.1-1.23.3-1.75.19-.52.46-.97.82-1.33.35-.36.78-.64 1.29-.84.5-.2 1.05-.3 1.67-.3zm0 6.93c.68 0 1.18-.23 1.5-.69.34-.46.5-1.13.5-2.01 0-.89-.16-1.56-.5-2.03-.32-.46-.82-.7-1.5-.7-.7 0-1.21.24-1.55.71-.33.47-.5 1.14-.5 2.02 0 .88.17 1.55.5 2.01.34.46.85.7 1.55.7zm13.36-5.34h-2.93v6.74h-1.98v-6.74h-2.92v-1.47h7.83v1.47zm6.45 3.24c-.57.02-1.05.07-1.44.15-.39.07-.7.16-.94.27-.23.11-.4.24-.5.4a.85.85 0 00-.15.48c0 .35.1.6.3.75.21.14.48.22.81.22.4 0 .75-.07 1.05-.22.3-.15.59-.37.87-.67v-1.38zm-4.53-3.56a4.87 4.87 0 013.41-1.3c.48 0 .91.08 1.29.24a2.65 2.65 0 011.55 1.66c.14.39.2.81.2 1.28v5.18h-.89a.95.95 0 01-.43-.08c-.1-.06-.18-.17-.24-.34l-.18-.6c-.2.2-.4.36-.6.5a3.7 3.7 0 01-1.3.57 3.69 3.69 0 01-1.77-.06c-.3-.1-.54-.23-.76-.42a1.9 1.9 0 01-.5-.7c-.11-.27-.17-.6-.17-.96a1.9 1.9 0 01.44-1.21c.16-.19.37-.37.62-.53.25-.17.55-.31.92-.43.36-.13.8-.22 1.28-.3.48-.08 1.04-.13 1.66-.14v-.48c0-.55-.12-.96-.35-1.22-.24-.27-.58-.4-1.02-.4a2.45 2.45 0 00-1.35.37l-.44.25a.84.84 0 01-.43.1.59.59 0 01-.35-.1.96.96 0 01-.24-.25l-.35-.63zm18.83-1.16v8.22h-1.78v-4.57c0-.2 0-.4.02-.64a6 6 0 01.1-.65l-2.42 4.43a.59.59 0 01-.56.34h-.2a.59.59 0 01-.57-.34l-2.45-4.46a6.87 6.87 0 01.13 1.32v4.57h-1.78v-8.22h1.63a1 1 0 01.4.09.7.7 0 01.35.35l1.94 3.45a5.36 5.36 0 01.45 1.05l.2-.54c.07-.18.15-.35.24-.5l1.92-3.46c.1-.18.2-.3.34-.35.14-.06.27-.1.4-.1h1.64zm-66.75 19.9c.31-.3.7-.54 1.15-.73.46-.19 1.01-.28 1.65-.28.5 0 .96.06 1.35.18.4.12.73.28 1 .49.27.2.47.43.61.7a1.68 1.68 0 01.15 1.31 1.86 1.86 0 01-.63.94 2.4 2.4 0 01-.64.34c.45.17.8.42 1.08.75.28.34.42.74.42 1.23 0 .4-.1.75-.28 1.06-.18.31-.43.58-.73.8a4.35 4.35 0 01-4.62-.04c-.27-.18-.5-.4-.72-.65l.57-.72a.4.4 0 01.36-.19.6.6 0 01.35.12l.39.26a2.21 2.21 0 001.29.37c.5 0 .87-.12 1.12-.34.26-.22.39-.5.39-.84a.9.9 0 00-.4-.78c-.26-.18-.7-.28-1.28-.28h-.93v-1.28h.93c.52 0 .91-.1 1.19-.27a.83.83 0 00.42-.72.8.8 0 00-.37-.68 1.8 1.8 0 00-1.07-.26 2.56 2.56 0 00-1.24.28l-.35.18a.52.52 0 01-.5.04.7.7 0 01-.21-.23l-.45-.76zm13.02 3.82c-.57.02-1.05.07-1.44.15-.39.07-.7.16-.94.27-.23.11-.4.24-.5.4a.85.85 0 00-.15.48c0 .35.1.6.3.74.21.16.48.23.81.23.4 0 .75-.07 1.05-.22.3-.15.59-.37.87-.67v-1.38zm-4.53-3.56a4.87 4.87 0 013.41-1.3c.48 0 .91.08 1.29.24a2.67 2.67 0 011.55 1.66c.14.39.2.81.2 1.28v5.18h-.89a.93.93 0 01-.43-.08c-.1-.06-.18-.17-.24-.34l-.18-.6a3.76 3.76 0 01-1.91 1.06 3.66 3.66 0 01-1.76-.05c-.3-.1-.54-.23-.76-.42a1.86 1.86 0 01-.5-.7 2.46 2.46 0 01-.06-1.58c.06-.2.18-.4.33-.6.16-.18.37-.36.62-.52a4 4 0 01.92-.43c.37-.13.8-.22 1.28-.3.48-.08 1.04-.13 1.66-.14v-.48c0-.55-.12-.96-.35-1.22-.24-.27-.57-.4-1.02-.4a2.45 2.45 0 00-1.35.37l-.44.25a.84.84 0 01-.43.1.58.58 0 01-.35-.1.94.94 0 01-.23-.25l-.36-.63zm23.72-1.16v8.22h-1.78v-4.58a5.55 5.55 0 01.12-1.29l-2.42 4.44a.59.59 0 01-.56.34h-.2a.59.59 0 01-.57-.34l-2.44-4.46a7.2 7.2 0 01.12 1.31v4.58h-1.78v-8.22h1.63a1 1 0 01.41.09c.14.05.25.17.34.35l1.94 3.45a5.93 5.93 0 01.45 1.05l.2-.54c.07-.18.15-.35.24-.5l1.92-3.46c.1-.18.2-.3.34-.35a1 1 0 01.41-.1h1.63zm8.25 3.17c0-.25-.04-.5-.11-.72a1.66 1.66 0 00-.33-.6c-.14-.17-.32-.3-.55-.4-.22-.1-.47-.15-.77-.15-.57 0-1.02.16-1.35.49-.32.32-.53.79-.62 1.38h3.73zm-3.77 1.2c.03.42.1.78.22 1.1.12.3.27.55.47.75.19.2.42.35.68.45.26.1.56.14.88.14.32 0 .6-.03.82-.1a9.16 9.16 0 001.06-.5.8.8 0 01.39-.12c.16 0 .29.06.37.19l.56.72a3.39 3.39 0 01-1.59 1.06 6.34 6.34 0 01-1.8.28c-.56 0-1.09-.1-1.58-.28a3.64 3.64 0 01-2.14-2.21 5.36 5.36 0 01-.04-3.48 3.7 3.7 0 012.02-2.16c.49-.22 1.04-.32 1.66-.32.51 0 .99.08 1.43.24a3.1 3.1 0 011.86 1.9c.18.46.27.98.27 1.58 0 .3-.03.5-.1.6-.06.1-.18.16-.36.16h-5.08zm13.9-2.62a.94.94 0 01-.17.18c-.05.04-.13.06-.24.06-.1 0-.2-.03-.3-.09-.1-.06-.2-.13-.34-.2a2.27 2.27 0 00-1.16-.31c-.35 0-.65.06-.91.2-.26.11-.48.3-.66.53-.17.23-.3.52-.38.85-.09.33-.13.71-.13 1.13 0 .44.05.83.14 1.17.1.34.23.63.4.86a1.78 1.78 0 001.5.7 2.13 2.13 0 001.25-.36l.34-.26c.1-.08.21-.12.34-.12a.4.4 0 01.36.19l.57.72a3.69 3.69 0 01-2.36 1.28c-.3.04-.58.06-.87.06a3.42 3.42 0 01-2.6-1.11 4 4 0 01-.8-1.33 5.25 5.25 0 01-.3-1.8c0-.6.1-1.16.26-1.67.18-.52.43-.96.77-1.34.34-.38.75-.67 1.25-.88a4.3 4.3 0 011.71-.32 3.93 3.93 0 012.86 1.14l-.52.72zm7.13 1.96v-2.4h-1.08c-.25 0-.46.03-.62.1-.17.07-.3.17-.4.28a.96.96 0 00-.23.39c-.04.14-.06.28-.06.42 0 .38.13.68.38.89.25.21.6.32 1.02.32h.99zm1.88-3.7v8.21h-1.88v-3.3h-.35c-.16 0-.3.02-.4.05a.8.8 0 00-.45.3l-.15.25-1.31 2.02c-.06.11-.13.21-.2.3a.95.95 0 01-.26.21c-.09.06-.2.1-.33.13-.12.03-.27.04-.44.04h-1.37l2.07-2.9a1.66 1.66 0 01.92-.78 3.38 3.38 0 01-.98-.32 2.36 2.36 0 01-.65-.51 2.08 2.08 0 01-.47-1.3 2.07 2.07 0 01.75-1.66c.26-.22.6-.4 1-.53.42-.14.91-.2 1.49-.2h3zm11.62 6.75v3.62c0 .18-.05.33-.16.43-.1.11-.24.16-.4.16h-1.24v-2.75h-6.86v-8.2h1.98v6.74h3.2v-6.75h1.97v6.75h1.51z" fill="#5E78FF"/><circle cx="591.9" cy="70.62" r="62.73" stroke="#5E78FF" stroke-width="2"/><path d="M558.92 63.87a2.8 2.8 0 002.58-1.84 3.24 3.24 0 000-2.3 2.73 2.73 0 00-2.58-1.86v6zm-2.04-6a2.76 2.76 0 00-2.58 1.86 3.37 3.37 0 000 2.31 2.82 2.82 0 002.58 1.84v-6.01zm2.04-1.66c.72.02 1.38.16 1.99.4a4.87 4.87 0 012.57 2.48 4.42 4.42 0 01-1.02 5.03c-.43.42-.95.76-1.55 1.01-.6.25-1.27.39-1.99.4v1.38h-2.04v-1.37a5.16 5.16 0 01-3.54-1.42 4.6 4.6 0 01-1.38-3.25 4.35 4.35 0 011.39-3.24c.43-.42.95-.75 1.56-1 .6-.26 1.26-.4 1.97-.42v-1.35h2.04v1.35zm14.65 2.5v8.2h-1.98v-4.79a5.26 5.26 0 01.08-.85 3.9 3.9 0 01-.52.88 154.5 154.5 0 01-.88 1.24 151.2 151.2 0 00-2.16 3.04c-.08.12-.18.22-.3.33a.59.59 0 01-.4.16h-1.22v-8.2h1.98v4.79c0 .12 0 .25-.02.4l-.05.44a4.16 4.16 0 01.5-.86 46.16 46.16 0 00.89-1.24l.58-.83 1.59-2.23c.07-.11.17-.22.3-.32.12-.11.25-.16.41-.16h1.2zm10.1 0v8.2h-1.97v-3.63h-3.2v3.63h-1.98v-8.2h1.98v3.1h3.2v-3.1h1.97zm7.3 4.7c-.57.03-1.05.08-1.44.15-.4.07-.7.16-.94.27-.23.12-.4.25-.5.4a.85.85 0 00-.16.48c0 .35.1.6.3.75.22.15.49.22.82.22.4 0 .75-.07 1.05-.21.3-.15.58-.38.87-.68v-1.38zm-4.53-3.56a4.87 4.87 0 013.4-1.3c.49 0 .92.08 1.3.24a2.65 2.65 0 011.55 1.66c.14.39.2.82.2 1.28v5.18h-.9a.95.95 0 01-.42-.08c-.1-.06-.18-.17-.24-.34l-.18-.6c-.2.2-.4.36-.6.5a3.7 3.7 0 01-1.31.57 3.7 3.7 0 01-1.76-.05c-.3-.1-.55-.24-.76-.43a1.9 1.9 0 01-.5-.7c-.11-.27-.17-.6-.17-.96a1.9 1.9 0 01.44-1.21c.16-.19.36-.36.61-.53a4 4 0 01.92-.43c.37-.12.8-.22 1.28-.3.49-.08 1.04-.12 1.67-.14v-.48c0-.55-.12-.96-.36-1.22-.23-.26-.57-.4-1.01-.4a2.45 2.45 0 00-1.35.37l-.44.25a.84.84 0 01-.43.11.59.59 0 01-.36-.1.96.96 0 01-.23-.26l-.35-.63zm16.93 7.06h-1.97v-6.7h-2.02c-.06 1.02-.16 1.88-.3 2.62-.13.72-.29 1.34-.48 1.84-.18.51-.38.92-.61 1.23-.23.3-.47.54-.72.71-.26.17-.52.28-.8.34a3.9 3.9 0 01-.82.08c-.3 0-.5-.02-.65-.08-.13-.04-.2-.11-.2-.2V65.5h.48c.17 0 .35-.02.52-.08.18-.05.35-.16.52-.32.16-.17.32-.4.47-.7.15-.32.28-.72.4-1.22.13-.51.25-1.13.34-1.86.1-.73.17-1.6.23-2.62h5.61v8.2zm6.3-1.41c.45 0 .78-.11 1-.34.23-.22.34-.51.34-.86a1.2 1.2 0 00-.31-.8c-.11-.1-.25-.2-.42-.25-.17-.06-.38-.1-.62-.1h-1.46v2.35h1.47zm-.01-3.75c.57 0 1.05.06 1.44.2.4.14.72.33.96.56.25.24.42.51.53.82a2.75 2.75 0 01-.04 2.02c-.13.32-.33.6-.6.84-.26.22-.58.4-.97.53-.38.13-.81.2-1.3.2h-3.36V58.7h1.88v3.04h1.45zm12.58-3.04v8.2h-1.98v-3.63h-3.2v3.63h-1.97v-8.2h1.97v3.1h3.2v-3.1h1.98zm7.29 4.7c-.57.03-1.05.08-1.44.15-.39.07-.7.16-.94.27-.23.12-.4.25-.5.4a.85.85 0 00-.15.48c0 .35.1.6.3.75.21.15.48.22.81.22.4 0 .75-.07 1.05-.21.3-.15.59-.38.87-.68v-1.38zM625 59.85a4.87 4.87 0 013.41-1.3c.48 0 .9.08 1.29.24a2.65 2.65 0 011.55 1.66c.14.39.2.82.2 1.28v5.18h-.89a.94.94 0 01-.43-.08c-.1-.06-.18-.17-.24-.34l-.18-.6a3.74 3.74 0 01-1.91 1.06 3.7 3.7 0 01-1.76-.04c-.3-.1-.54-.24-.76-.43a1.89 1.89 0 01-.5-.7c-.11-.27-.17-.6-.17-.96a1.9 1.9 0 01.44-1.21c.16-.19.37-.36.62-.53.25-.16.55-.3.92-.43.36-.12.8-.22 1.28-.3.48-.08 1.04-.12 1.66-.14v-.48c0-.55-.12-.96-.35-1.22-.24-.26-.57-.4-1.02-.4a2.45 2.45 0 00-1.35.37l-.44.25a.84.84 0 01-.43.11.58.58 0 01-.35-.1.96.96 0 01-.24-.26l-.35-.63zM561.6 81.4V79h-1.08c-.25 0-.46.03-.63.1-.16.07-.3.17-.4.29a.99.99 0 00-.22.38c-.04.14-.06.28-.06.42 0 .38.12.68.37.9.26.2.6.31 1.03.31h.98zm1.87-3.7v8.21h-1.88v-3.3h-.34c-.16 0-.3.02-.4.06a.8.8 0 00-.45.3l-.15.25-1.32 2.01a1.8 1.8 0 01-.2.3.96.96 0 01-.58.34c-.12.03-.27.04-.45.04h-1.37l2.08-2.9a1.66 1.66 0 01.92-.78 3.39 3.39 0 01-.99-.32 2.36 2.36 0 01-.64-.5 1.95 1.95 0 01-.48-1.3 2.1 2.1 0 01.75-1.66c.27-.22.6-.4 1.01-.54.41-.14.9-.2 1.48-.2h3.01zm11.49-.12c.6 0 1.16.1 1.65.3a3.6 3.6 0 012.1 2.16c.2.52.3 1.1.3 1.75 0 .65-.1 1.24-.3 1.76a3.54 3.54 0 01-2.1 2.18c-.5.2-1.04.3-1.65.3-.62 0-1.17-.1-1.67-.3a3.6 3.6 0 01-2.12-2.18c-.19-.52-.28-1.1-.28-1.76 0-.64.1-1.23.28-1.75a3.66 3.66 0 012.11-2.17c.5-.2 1.07-.3 1.68-.3zm0 6.93c.68 0 1.18-.23 1.51-.68.33-.46.5-1.14.5-2.02 0-.89-.17-1.56-.5-2.02-.33-.47-.83-.7-1.51-.7-.7 0-1.2.23-1.55.7-.33.47-.5 1.14-.5 2.02 0 .88.17 1.55.5 2.02.34.45.86.68 1.55.68zm13.7 1.4h-1.97v-6.74h-3.2v6.74h-1.98v-8.2h7.16v8.2zm10.58 0h-1.98v-6.7h-2.01c-.07 1.02-.16 1.88-.3 2.62-.13.72-.3 1.34-.48 1.84-.18.51-.38.92-.61 1.23-.23.3-.47.54-.72.71-.26.17-.52.28-.8.34a3.9 3.9 0 01-.82.08c-.3 0-.51-.02-.65-.08-.13-.04-.2-.11-.2-.2V84.5h.47c.18 0 .36-.02.53-.08.18-.05.35-.16.51-.32.17-.17.33-.4.48-.7.14-.32.28-.72.4-1.22.13-.51.24-1.13.34-1.86.1-.73.17-1.6.22-2.62h5.62v8.2zm7.28-3.5c-.57.03-1.05.08-1.44.15-.39.07-.7.16-.93.27-.24.12-.4.25-.5.4a.85.85 0 00-.16.48c0 .35.1.6.3.75.21.15.48.22.81.22.4 0 .76-.07 1.05-.21.3-.15.59-.38.87-.68v-1.38zM602 78.85a4.87 4.87 0 013.41-1.3c.48 0 .91.08 1.29.24a2.65 2.65 0 011.55 1.66c.14.39.21.82.21 1.28v5.18h-.9a.94.94 0 01-.43-.08c-.1-.06-.18-.17-.24-.34l-.17-.6c-.21.2-.42.36-.61.5a3.74 3.74 0 01-1.3.57 3.7 3.7 0 01-1.77-.05c-.29-.1-.54-.24-.76-.43a1.89 1.89 0 01-.5-.7c-.1-.27-.17-.6-.17-.96a1.9 1.9 0 01.44-1.21c.16-.19.37-.36.62-.53.25-.16.56-.3.92-.43.37-.12.8-.22 1.28-.3.48-.08 1.04-.12 1.66-.14v-.48c0-.55-.12-.96-.35-1.22-.24-.26-.57-.4-1.02-.4a2.45 2.45 0 00-1.35.37l-.44.25a.84.84 0 01-.43.11.58.58 0 01-.35-.1.96.96 0 01-.23-.26l-.36-.63zm16.22.32h-2.93v6.74h-1.97v-6.74h-2.92v-1.46h7.82v1.46zm6.45 3.24c-.57.03-1.05.08-1.44.15-.39.07-.7.16-.93.27-.24.12-.4.25-.5.4a.85.85 0 00-.16.48c0 .35.1.6.3.75.21.15.48.22.81.22.4 0 .76-.07 1.05-.21.3-.15.59-.38.87-.68v-1.38zm-4.52-3.56a4.87 4.87 0 013.4-1.3c.48 0 .91.08 1.3.24a2.66 2.66 0 011.54 1.66c.14.39.21.82.21 1.28v5.18h-.9a.94.94 0 01-.43-.08c-.1-.06-.18-.17-.24-.34l-.17-.6c-.21.2-.41.36-.61.5a3.78 3.78 0 01-1.3.57 3.7 3.7 0 01-1.77-.05c-.29-.1-.54-.24-.75-.43a1.87 1.87 0 01-.5-.7 2.46 2.46 0 01-.07-1.58c.07-.2.18-.4.33-.59.16-.19.37-.36.62-.53.25-.16.56-.3.92-.43.37-.12.8-.22 1.28-.3.48-.08 1.04-.12 1.66-.14v-.48c0-.55-.12-.96-.35-1.22-.23-.26-.57-.4-1.01-.4a2.45 2.45 0 00-1.36.37l-.44.25a.84.84 0 01-.43.11.58.58 0 01-.35-.1.94.94 0 01-.23-.26l-.36-.63z" fill="#5E78FF"/><path d="M769.35 5.31a62.65 62.65 0 1021.55 3.8" stroke="#5E78FF" stroke-width="2" stroke-dasharray="5.5 5.5"/><path d="M766.81 1.58l3.72 3.74-3.73 3.73" stroke="#5E78FF" stroke-width="2" stroke-linecap="round"/><path d="M730.8 48.12h-2.17v-9.9h-5.02v9.9h-2.16V36.56h9.35v11.56zm10.7 0h-1.97v-6.7h-2.02c-.06 1.02-.16 1.88-.3 2.62-.13.72-.29 1.34-.48 1.84-.18.51-.38.92-.61 1.23-.23.3-.47.54-.72.7-.26.18-.52.3-.8.35a3.9 3.9 0 01-.82.08c-.3 0-.5-.02-.65-.08-.13-.04-.2-.11-.2-.2v-1.24h.48c.17 0 .35-.02.52-.08.18-.05.35-.16.52-.32.16-.17.32-.4.47-.7.15-.32.28-.72.4-1.22.13-.51.25-1.13.34-1.86.1-.73.17-1.6.23-2.62h5.61v8.2zm7.28-3.5c-.57.03-1.05.08-1.43.15-.4.07-.7.16-.94.27-.24.12-.4.25-.5.4a.85.85 0 00-.16.48c0 .35.1.6.3.75.22.15.48.22.82.22.4 0 .75-.07 1.04-.21.3-.15.6-.38.88-.68v-1.38zm-4.52-3.56a4.87 4.87 0 013.4-1.3c.49 0 .91.08 1.3.24a2.66 2.66 0 011.54 1.66c.14.39.21.82.21 1.28v5.18h-.9a.94.94 0 01-.42-.08c-.1-.06-.19-.17-.25-.34l-.17-.6a3.78 3.78 0 01-1.91 1.06 3.7 3.7 0 01-1.76-.04c-.3-.1-.55-.24-.76-.43a1.87 1.87 0 01-.5-.7 2.46 2.46 0 01-.07-1.58c.07-.2.18-.4.33-.6.17-.18.37-.35.62-.52.25-.16.56-.3.92-.43.37-.12.8-.22 1.28-.3.49-.08 1.04-.12 1.66-.14v-.48c0-.55-.11-.96-.35-1.22-.23-.26-.57-.4-1.01-.4a2.45 2.45 0 00-1.35.37l-.45.25a.84.84 0 01-.43.11.58.58 0 01-.35-.1.94.94 0 01-.23-.26l-.35-.63zm16.47-1.14v8.2h-1.98V44.5h-3.2v3.63h-1.98v-8.2h1.98v3.1h3.2v-3.1h1.98zm9.82 6.08c.22.27.47.46.73.57a2.2 2.2 0 001.67 0c.24-.11.44-.28.6-.51.18-.23.3-.52.4-.86.09-.36.14-.77.14-1.24 0-.48-.04-.89-.12-1.22-.08-.34-.19-.6-.33-.82a1.3 1.3 0 00-.53-.45 1.97 1.97 0 00-1.74.12c-.3.17-.56.41-.82.73V46zm-.1-4.96c.33-.38.71-.69 1.14-.92a3.07 3.07 0 012.73-.08c.37.19.7.46.96.82.27.35.48.79.62 1.31a6.46 6.46 0 01-.02 3.49c-.17.52-.4.98-.71 1.36a3.25 3.25 0 01-2.57 1.22c-.46 0-.85-.07-1.18-.2a2.93 2.93 0 01-.87-.6v3.36h-1.98V39.92h1.21c.26 0 .43.12.5.36l.17.76zm12.54 3.58c-.57.03-1.05.08-1.44.15-.4.07-.7.16-.94.27-.23.12-.4.25-.5.4a.85.85 0 00-.15.48c0 .35.1.6.3.75.2.15.48.22.8.22.41 0 .76-.07 1.06-.21.3-.15.59-.38.87-.68v-1.38zm-4.53-3.56a4.87 4.87 0 013.4-1.3c.49 0 .92.08 1.3.24a2.66 2.66 0 011.55 1.66c.14.39.2.82.2 1.28v5.18h-.89a.94.94 0 01-.43-.08c-.1-.06-.18-.17-.24-.34l-.18-.6a3.78 3.78 0 01-1.91 1.06 3.7 3.7 0 01-1.76-.04c-.3-.1-.55-.24-.76-.43a1.87 1.87 0 01-.5-.7 2.46 2.46 0 01-.07-1.58c.07-.2.18-.4.34-.6.16-.18.36-.35.61-.52.25-.16.56-.3.92-.43.37-.12.8-.22 1.28-.3.49-.08 1.04-.12 1.67-.14v-.48c0-.55-.12-.96-.35-1.22-.24-.26-.58-.4-1.02-.4a2.45 2.45 0 00-1.35.37l-.44.25a.84.84 0 01-.43.11.58.58 0 01-.36-.1.94.94 0 01-.23-.26l-.35-.63zm13.17 5.74c.69 0 1.2-.22 1.53-.65.34-.44.5-1.08.5-1.92 0-.84-.16-1.48-.5-1.91-.32-.44-.81-.66-1.49-.66-.67 0-1.18.2-1.53.62-.36.41-.53 1.03-.53 1.85 0 .87.16 1.53.5 2 .33.45.84.67 1.52.67zm.58-8.37c-.5.03-.93.13-1.29.3-.35.15-.64.37-.88.65-.23.27-.4.6-.53.98a5 5 0 00-.2 1.27c.13-.21.3-.4.48-.57a3.5 3.5 0 012.37-.85c.54 0 1.03.1 1.47.29.44.2.81.46 1.12.82.3.35.54.77.7 1.27a5.1 5.1 0 01-.05 3.3 3.57 3.57 0 01-2.1 2.07c-.5.19-1.06.28-1.67.28-.59 0-1.14-.1-1.64-.28-.5-.2-.92-.5-1.28-.94-.37-.43-.65-1-.85-1.68a11.1 11.1 0 01-.07-4.87c.15-.72.4-1.35.75-1.9.36-.53.82-.97 1.39-1.3a4.91 4.91 0 012.11-.6l2.92-.22.1 1.03c.03.21 0 .4-.1.56-.08.14-.23.22-.45.24l-2.3.15zm9.65 1.36c.61 0 1.16.1 1.66.3a3.6 3.6 0 012.1 2.16c.2.52.29 1.1.29 1.75 0 .65-.1 1.24-.29 1.76a3.54 3.54 0 01-2.1 2.18c-.5.2-1.05.3-1.66.3-.61 0-1.17-.1-1.67-.3a3.62 3.62 0 01-2.11-2.18c-.2-.52-.29-1.1-.29-1.76 0-.64.1-1.23.29-1.75.2-.52.47-.96.82-1.33.36-.36.79-.64 1.29-.84.5-.2 1.06-.3 1.67-.3zm0 6.93c.68 0 1.19-.23 1.51-.68.34-.46.5-1.14.5-2.02 0-.89-.16-1.56-.5-2.02-.32-.47-.83-.7-1.5-.7-.7 0-1.22.23-1.55.7-.33.47-.5 1.14-.5 2.02 0 .88.17 1.55.5 2.02.33.45.85.68 1.54.68zm13.36-5.34h-2.93v6.74h-1.97v-6.74h-2.92v-1.46h7.82v1.46zm-46.48 17.54v8.2h-1.98V63.5h-3.2v3.63h-1.97v-8.2h1.98v3.1h3.2v-3.1h1.97zm7.3 4.7c-.58.03-1.06.08-1.44.15-.4.07-.7.16-.94.27-.24.12-.4.25-.5.4a.85.85 0 00-.16.48c0 .35.1.6.3.75.22.15.48.22.82.22.4 0 .75-.07 1.04-.21.3-.15.6-.38.88-.68v-1.38zm-4.53-3.56a4.87 4.87 0 013.4-1.3c.49 0 .91.08 1.3.24a2.66 2.66 0 011.54 1.66c.14.39.21.82.21 1.28v5.18h-.9a.94.94 0 01-.42-.08c-.1-.06-.19-.17-.25-.34l-.17-.6a3.78 3.78 0 01-1.91 1.06 3.7 3.7 0 01-1.76-.04c-.3-.1-.55-.24-.76-.43a1.87 1.87 0 01-.5-.7 2.46 2.46 0 01-.07-1.58c.07-.2.18-.4.33-.6.17-.18.37-.35.62-.52.25-.16.56-.3.92-.43.37-.12.8-.22 1.28-.3.49-.08 1.04-.12 1.66-.14v-.48c0-.55-.11-.96-.35-1.22-.23-.26-.57-.4-1.01-.4a2.45 2.45 0 00-1.35.37l-.45.25a.84.84 0 01-.43.11.58.58 0 01-.35-.1.94.94 0 01-.23-.26l-.35-.63zm-43.69 19.6a.94.94 0 01-.18.17c-.05.04-.13.06-.24.06-.1 0-.2-.03-.3-.09-.09-.06-.2-.13-.34-.2a2.27 2.27 0 00-1.15-.3c-.35 0-.66.06-.92.18-.26.13-.48.3-.65.54-.17.23-.3.52-.39.86-.08.33-.13.7-.13 1.12 0 .44.05.83.14 1.17.1.34.23.63.4.87.19.22.4.4.65.52s.53.18.85.18a2.14 2.14 0 001.25-.37l.35-.25c.1-.08.21-.12.33-.12a.4.4 0 01.36.18l.57.72a3.69 3.69 0 01-2.36 1.28c-.29.04-.57.06-.86.06a3.43 3.43 0 01-2.6-1.11 4 4 0 01-.81-1.33 5.25 5.25 0 01-.29-1.8c0-.6.09-1.16.26-1.67a3.48 3.48 0 012.02-2.22 4.3 4.3 0 011.7-.32 3.93 3.93 0 012.86 1.14l-.52.72zm10.46 6.46h-1.98v-6.7h-2.02c-.06 1.02-.16 1.88-.3 2.62-.13.72-.29 1.34-.47 1.84-.18.51-.39.92-.62 1.23-.22.3-.46.54-.72.7-.25.18-.52.3-.79.35a3.9 3.9 0 01-.82.08c-.3 0-.51-.02-.65-.08-.14-.04-.2-.11-.2-.2v-1.24h.47c.18 0 .35-.02.53-.08.17-.05.34-.16.51-.32.16-.17.32-.4.47-.7.15-.32.29-.72.41-1.22.13-.51.24-1.13.34-1.86.1-.73.17-1.6.22-2.62h5.62v8.2zm8.23-5.04c0-.26-.04-.5-.11-.72a1.66 1.66 0 00-.32-.6c-.15-.18-.33-.3-.55-.4-.22-.1-.48-.16-.77-.16-.57 0-1.02.17-1.35.5-.33.32-.54.78-.63 1.38h3.73zm-3.77 1.19c.03.42.1.78.23 1.1.11.3.27.55.46.75.2.2.42.35.68.45.27.1.56.15.88.15.32 0 .6-.04.82-.12.24-.07.44-.15.61-.24l.46-.25a.78.78 0 01.38-.11c.17 0 .29.06.37.18l.57.72a3.39 3.39 0 01-1.6 1.06 6.38 6.38 0 01-1.8.28c-.56 0-1.09-.09-1.58-.28a3.64 3.64 0 01-2.13-2.21 5.36 5.36 0 01-.04-3.48 3.7 3.7 0 012.02-2.16c.48-.22 1.03-.32 1.65-.32.51 0 1 .08 1.43.25a3.1 3.1 0 011.86 1.9c.19.45.28.98.28 1.57 0 .3-.04.5-.1.6-.06.1-.19.16-.37.16h-5.08zm13.47 2.45v-5.3h-2.02c-.05.7-.12 1.32-.2 1.87-.08.55-.17 1.04-.28 1.47-.1.44-.22.81-.35 1.13-.12.32-.25.6-.4.83h3.25zm3.42-.06v3.62c0 .18-.05.33-.16.44-.1.1-.23.16-.4.16h-1.23v-2.76h-6.14v2.2c0 .13-.05.26-.14.38-.08.12-.22.18-.4.18h-1.25v-4.16h.23c.18 0 .37-.03.54-.08.18-.05.35-.16.5-.32.17-.16.33-.39.47-.68.15-.3.28-.71.4-1.21s.22-1.13.3-1.87c.1-.73.17-1.62.22-2.64h5.56v6.74h1.5zm9.27-6.74l-4.48 10.46a.72.72 0 01-.23.31c-.09.08-.23.11-.42.11h-1.47l1.53-3.3-3.32-7.58h1.74c.15 0 .27.03.36.1.09.08.16.17.2.26l1.74 4.26c.06.14.1.29.15.43l.12.44a43.34 43.34 0 01.3-.88l1.65-4.25a.59.59 0 01.54-.36h1.59zm9.4 6.8c.63 0 1.1-.23 1.41-.68.3-.46.46-1.14.46-2.02a3.7 3.7 0 00-.46-2.02c-.3-.47-.78-.7-1.42-.7-.64 0-1.1.23-1.41.7-.3.47-.46 1.14-.46 2.02 0 .88.15 1.56.45 2.02.3.45.78.68 1.42.68zm-3.81-3.46c.06-.54.2-1.02.4-1.45a3.4 3.4 0 011.94-1.78c.44-.16.93-.24 1.46-.24.6 0 1.13.1 1.61.3a3.49 3.49 0 012.03 2.16c.18.52.28 1.1.28 1.75 0 .65-.1 1.24-.3 1.76a3.51 3.51 0 01-2.05 2.18 4.32 4.32 0 01-3.08.05 3.37 3.37 0 01-1.93-1.83 4.8 4.8 0 01-.37-1.5h-1.63v3.46h-1.97v-8.2h1.97v3.34h1.64zm23.07 3.4v3.62c0 .18-.05.33-.16.44-.1.1-.23.16-.4.16h-1.23v-2.76h-11.06v-8.2h1.97v6.74h2.71v-6.74h1.98v6.74h2.71v-6.74h1.98v6.74h1.5zm9.63-6.74v8.2h-1.97v-4.79a5.26 5.26 0 01.07-.85 3.9 3.9 0 01-.51.88l-.38.52-.51.72-.59.82-1.57 2.22a1.7 1.7 0 01-.3.33.59.59 0 01-.4.16h-1.21v-8.2h1.97v4.79c0 .12 0 .25-.02.4l-.05.44a4.09 4.09 0 01.5-.86l.37-.52.52-.72.59-.83 1.58-2.23c.07-.11.17-.22.3-.32.12-.11.26-.16.41-.16h1.2zm10.33 0v8.2h-1.98v-4.79a5.26 5.26 0 01.08-.85 3.9 3.9 0 01-.52.88 144.82 144.82 0 01-.88 1.24 159.58 159.58 0 00-2.16 3.04c-.08.12-.18.22-.3.33a.59.59 0 01-.4.16h-1.22v-8.2h1.98v4.79c0 .12 0 .25-.02.4l-.05.44a4.17 4.17 0 01.5-.86 45.25 45.25 0 00.89-1.24l.58-.83 1.59-2.23c.07-.11.17-.22.3-.32.12-.11.25-.16.41-.16h1.2zm-3.58-2.08c.2 0 .37-.03.5-.07a.67.67 0 00.32-.2c.08-.1.14-.24.17-.4.03-.17.05-.37.05-.61h1.16c.14 0 .24.05.3.17.08.11.11.24.11.38a1.52 1.52 0 01-.71 1.3c-.23.15-.5.27-.82.35-.32.08-.68.12-1.08.12s-.75-.04-1.07-.12c-.32-.08-.6-.2-.82-.35a1.52 1.52 0 01-.71-1.3c0-.14.03-.27.1-.38a.34.34 0 01.3-.17h1.17c0 .24.02.44.05.6.03.17.09.3.17.4.08.1.18.17.31.21.13.04.3.07.5.07zm-58.1 21.06v8.22h-1.79v-4.57l.03-.63c.02-.24.05-.46.1-.66l-2.42 4.43a.59.59 0 01-.56.34h-.21a.59.59 0 01-.56-.34l-2.45-4.45a7.56 7.56 0 01.13 1.3v4.58h-1.79V96.9h1.64a1 1 0 01.4.09c.14.06.26.17.35.35l1.93 3.45a5.93 5.93 0 01.45 1.05l.2-.54.24-.5 1.92-3.46c.1-.18.21-.3.35-.35a1 1 0 01.4-.1h1.64zm8.24 3.17c0-.25-.04-.5-.11-.71a1.66 1.66 0 00-.32-.6c-.15-.18-.33-.3-.55-.4a1.8 1.8 0 00-.77-.16c-.57 0-1.02.17-1.35.5-.33.32-.54.78-.63 1.38h3.73zm-3.77 1.2c.03.42.1.78.23 1.1.11.3.27.55.46.75.2.2.42.35.68.45.27.1.56.15.88.15.32 0 .6-.04.82-.12.24-.07.44-.15.61-.24l.46-.25a.8.8 0 01.38-.11c.17 0 .29.06.37.18l.57.72c-.22.25-.47.47-.74.65a4.31 4.31 0 01-1.76.63c-.3.04-.6.06-.89.06-.57 0-1.1-.09-1.59-.28a3.64 3.64 0 01-2.13-2.21 5.36 5.36 0 01-.04-3.48 3.7 3.7 0 012.02-2.16c.48-.22 1.03-.32 1.65-.32.52 0 1 .08 1.43.25a3.08 3.08 0 011.86 1.9c.19.45.28.98.28 1.57 0 .3-.04.5-.1.6-.06.1-.19.16-.37.16h-5.08zm13.9-2.62a.89.89 0 01-.17.18c-.05.04-.13.06-.24.06-.1 0-.2-.03-.3-.09a5.1 5.1 0 00-.82-.41c-.18-.07-.4-.1-.68-.1-.34 0-.65.07-.9.2-.27.12-.49.3-.67.53-.16.23-.3.52-.38.86a4.59 4.59 0 000 2.3c.1.33.24.62.42.85a1.78 1.78 0 001.49.7 2.13 2.13 0 001.25-.36l.34-.26c.1-.08.22-.11.34-.11a.4.4 0 01.36.18l.57.72a3.66 3.66 0 01-2.36 1.28c-.29.04-.58.06-.87.06a3.42 3.42 0 01-2.6-1.11c-.34-.36-.6-.8-.8-1.33a5.25 5.25 0 01-.3-1.8c0-.6.1-1.16.26-1.67.18-.52.44-.96.77-1.33.34-.38.75-.68 1.25-.9a4.3 4.3 0 011.71-.31 3.93 3.93 0 012.86 1.14l-.52.72zm7.13 1.96v-2.4h-1.07c-.25 0-.46.03-.63.1-.16.07-.3.17-.4.29a.99.99 0 00-.22.38c-.04.14-.07.28-.07.42 0 .38.13.68.38.9.26.2.6.31 1.02.31h.99zm1.88-3.7v8.21h-1.88v-3.3h-.35c-.16 0-.29.02-.4.06a.77.77 0 00-.45.3l-.15.25-1.3 2.01c-.07.12-.14.21-.22.3a.94.94 0 01-.24.22c-.1.05-.2.1-.33.12-.13.03-.27.04-.45.04h-1.37l2.07-2.9c.12-.2.25-.36.4-.48.15-.12.32-.22.52-.3a3.38 3.38 0 01-.98-.32 2.36 2.36 0 01-.65-.5 1.94 1.94 0 01-.47-1.3 2.1 2.1 0 01.75-1.66c.26-.22.6-.4 1.01-.54.41-.14.9-.2 1.48-.2h3zm11.63 6.75v3.62c0 .19-.06.33-.16.44-.11.1-.25.16-.41.16h-1.23v-2.76h-6.87v-8.2h1.98v6.74h3.2v-6.74h1.98v6.74h1.5z" fill="#5E78FF"/></svg>