<svg width="629" height="452" fill="none" xmlns="http://www.w3.org/2000/svg"><path d="M89.27 81v1.67h-7.2v-1.66h2.64v-7.59c0-.3 0-.6.03-.93l-1.88 1.57a.82.82 0 01-.32.16.82.82 0 01-.54-.09.57.57 0 01-.16-.15l-.7-.96 3.96-3.38h1.83v11.37h2.34zm7.97-6.42c.42-.41.88-.73 1.4-.95a4.61 4.61 0 011.82-.34c.72 0 1.36.12 1.92.36a4.1 4.1 0 012.27 2.5c.2.58.3 1.2.3 1.89 0 .75-.11 1.43-.34 2.02a4.4 4.4 0 01-.89 1.5 3.86 3.86 0 01-2.93 1.25 6.8 6.8 0 01-.98-.07 4.7 4.7 0 01-1.85-.71c-.3-.2-.56-.45-.8-.73l.6-.75c.1-.13.23-.2.41-.2.09 0 .17.02.25.06a3.28 3.28 0 01.52.32c.1.07.22.13.36.19.13.05.28.1.45.14.18.04.39.06.63.06.61 0 1.13-.2 1.54-.62.42-.41.67-1 .77-1.79h-3.92V77.2h3.9a2.86 2.86 0 00-.77-1.63 2.14 2.14 0 00-1.58-.58 3.2 3.2 0 00-1.32.3l-.4.2a.68.68 0 01-.33.1.47.47 0 01-.28-.07 1.21 1.21 0 01-.19-.2l-.56-.74zm18.06.5H112v7.6h-2.22v-7.6h-3.28v-1.64h8.8v1.65zm7.14 3.65c-.65.03-1.19.09-1.63.17a4.2 4.2 0 00-1.05.3c-.26.13-.45.28-.57.45a.96.96 0 00-.17.55c0 .39.12.67.35.83.23.17.53.26.9.26.46 0 .85-.08 1.18-.25.34-.16.67-.42.98-.75v-1.56zm-5.1-4a5.48 5.48 0 013.83-1.46c.55 0 1.03.09 1.45.27a2.99 2.99 0 011.75 1.86c.16.44.23.92.23 1.44v5.83h-1c-.21 0-.38-.03-.49-.09-.11-.06-.2-.2-.27-.38l-.2-.67c-.23.2-.46.4-.68.56a4.2 4.2 0 01-1.47.64 4.16 4.16 0 01-1.98-.07c-.33-.1-.61-.26-.85-.47a2.12 2.12 0 01-.56-.79 2.78 2.78 0 01-.08-1.78c.08-.23.2-.45.38-.66.17-.21.4-.41.69-.6a4.5 4.5 0 011.03-.48c.42-.14.9-.25 1.44-.34.55-.09 1.17-.14 1.88-.16v-.54c0-.62-.14-1.07-.4-1.37-.27-.3-.65-.45-1.14-.45a2.76 2.76 0 00-1.53.42l-.49.28a.95.95 0 01-.49.12.66.66 0 01-.4-.12c-.1-.08-.19-.18-.25-.28l-.4-.71zm18.4 7.94h-2.22V75.1h-3.6v7.58h-2.22v-9.23h8.04v9.23z" fill="#5E78FF"/><path d="M60.07 117.43c0 .75-.12 1.45-.36 2.08a4.55 4.55 0 01-2.58 2.67 5.3 5.3 0 01-2.01.37 5.3 5.3 0 01-2.02-.37 4.56 4.56 0 01-2.57-2.67 5.82 5.82 0 01-.35-2.08c0-.75.11-1.44.35-2.06a4.72 4.72 0 012.57-2.69 5.2 5.2 0 012.02-.38c.73 0 1.4.13 2.01.38a4.48 4.48 0 012.58 2.69c.24.62.36 1.31.36 2.06zm-1.4 0a5.1 5.1 0 00-.25-1.66c-.17-.48-.4-.9-.71-1.23-.31-.35-.68-.6-1.12-.79a3.8 3.8 0 00-1.47-.27c-.54 0-1.03.09-1.47.27a3.14 3.14 0 00-1.84 2.03 5.1 5.1 0 00-.25 1.65c0 .62.09 1.17.25 1.66a3.19 3.19 0 001.84 2.02c.44.18.93.27 1.47.27a3.9 3.9 0 001.47-.27 3.12 3.12 0 001.83-2.02 5.1 5.1 0 00.25-1.66zm11.11 4.07v3c0 .13-.03.22-.1.28a.34.34 0 01-.26.1h-.77v-2.43h-6.07v-7.1h1.25v6.15h3.4v-6.14h1.26v6.14h1.3zm6.88-3.37c0-.3-.04-.56-.12-.8a1.67 1.67 0 00-1.69-1.17c-.6 0-1.07.17-1.42.53-.35.34-.56.82-.64 1.44h3.87zm1.01 3.32c-.15.19-.34.35-.55.5a3.57 3.57 0 01-1.45.52c-.26.05-.52.07-.78.07-.49 0-.94-.08-1.35-.24a3.08 3.08 0 01-1.78-1.92 4.83 4.83 0 01-.02-3c.15-.44.37-.81.65-1.12.29-.32.64-.57 1.05-.74a3.39 3.39 0 012.56-.06 2.75 2.75 0 011.56 1.61c.15.4.22.84.22 1.34 0 .2-.02.33-.06.4-.04.06-.12.1-.24.1h-4.74c.02.44.08.83.19 1.16.1.33.26.61.46.84.2.22.43.38.7.5.27.1.57.15.9.15a2.72 2.72 0 001.4-.34c.16-.08.3-.16.4-.23.12-.07.21-.11.3-.11.1 0 .18.04.23.12l.35.45zm8.55-6.1v7.1h-1.25v-3.32h-3.4v3.32H80.3v-7.1h1.26v2.83h3.4v-2.83h1.25zm7.29.36c.06-.1.15-.2.26-.26.1-.06.22-.1.34-.1h.97l-1.84 2.7c-.11.18-.23.32-.35.43-.12.11-.27.2-.45.26.23.06.42.15.57.28.16.13.3.3.41.5l1.87 2.93h-.87a1 1 0 01-.52-.12 1 1 0 01-.31-.32l-1.38-2.2a1.08 1.08 0 00-1-.55h-.75v3.2H89.2v-7.1h1.26v3.06h.67a1 1 0 00.87-.48l1.5-2.23zm7.78 3.54c-.57.02-1.06.07-1.47.14-.4.07-.73.17-.98.28-.26.12-.44.26-.56.42a.9.9 0 00-.17.53c0 .19.03.35.1.48.06.14.14.25.24.34.1.08.23.14.37.19a2.68 2.68 0 001.06 0 2.77 2.77 0 00.97-.5c.16-.12.3-.26.44-.4v-1.48zm-4.02-2.9a3.9 3.9 0 012.77-1.13c.4 0 .75.07 1.06.2a2.15 2.15 0 011.25 1.4c.1.33.16.7.16 1.09v4.54h-.55a.57.57 0 01-.28-.06c-.07-.04-.12-.12-.16-.24l-.14-.67a8.1 8.1 0 01-.54.46 3.08 3.08 0 01-1.93.62c-.27 0-.53-.04-.77-.11a1.7 1.7 0 01-1.06-.93c-.11-.24-.16-.52-.16-.84 0-.29.07-.55.23-.81a2 2 0 01.75-.7c.34-.2.8-.36 1.35-.48.55-.13 1.23-.2 2.04-.23v-.55c0-.55-.12-.97-.35-1.25-.24-.28-.59-.42-1.05-.42-.3 0-.56.04-.77.12-.21.07-.39.16-.54.25l-.4.26a.57.57 0 01-.32.12.37.37 0 01-.21-.07.67.67 0 01-.16-.17l-.22-.4zm18.63 6.1h-1.25v-6.14h-3.4v6.14h-1.26v-7.1h5.9v7.1zm4.23-1.71c.23.3.48.52.75.65s.58.19.91.19a1.8 1.8 0 001.53-.7 3.3 3.3 0 00.53-2.02c0-.47-.04-.86-.13-1.2-.08-.33-.2-.6-.35-.8a1.36 1.36 0 00-.56-.48c-.23-.1-.48-.14-.77-.14-.4 0-.76.09-1.07.28-.3.18-.58.45-.84.79v3.43zm-.06-4.29c.3-.37.64-.66 1.04-.89.39-.22.83-.33 1.34-.33.41 0 .78.08 1.11.24.33.15.62.38.85.69.23.3.41.68.54 1.13a5.83 5.83 0 01-.02 3.03c-.14.45-.35.84-.61 1.17a2.86 2.86 0 01-2.25 1.06c-.43 0-.8-.08-1.12-.22a2.7 2.7 0 01-.82-.62v3.14h-1.25v-9.5h.75c.18 0 .29.1.33.26l.1.84zm10.63-1.2c.52 0 .99.08 1.4.25a2.98 2.98 0 011.74 1.9c.16.44.24.94.24 1.5a4.5 4.5 0 01-.24 1.5 3 3 0 01-1.74 1.88 3.7 3.7 0 01-1.4.26c-.52 0-1-.08-1.41-.25a3.01 3.01 0 01-1.74-1.88 4.63 4.63 0 01-.24-1.51c0-.56.08-1.06.23-1.5a2.99 2.99 0 011.74-1.89c.43-.18.9-.27 1.42-.27zm0 6.32c.7 0 1.23-.23 1.57-.7.35-.47.52-1.13.52-1.97 0-.84-.17-1.5-.52-1.97-.34-.47-.87-.7-1.57-.7-.35 0-.66.05-.93.17-.26.13-.48.3-.66.53-.17.23-.3.51-.39.85-.08.33-.13.7-.13 1.12 0 .84.18 1.5.52 1.97.35.47.88.7 1.6.7zm10.7-3.44c0-.3-.04-.56-.12-.8a1.69 1.69 0 00-1.69-1.17c-.6 0-1.07.17-1.42.53-.35.34-.56.82-.64 1.44h3.87zm1.01 3.32c-.15.19-.34.35-.55.5a3.58 3.58 0 01-1.45.52c-.26.05-.52.07-.78.07-.49 0-.94-.08-1.36-.24a3.07 3.07 0 01-1.77-1.92 4.83 4.83 0 01-.03-3c.16-.44.38-.81.66-1.12.29-.32.63-.57 1.05-.74a3.38 3.38 0 012.56-.06 2.76 2.76 0 011.56 1.61c.15.4.22.84.22 1.34 0 .2-.02.33-.06.4-.04.06-.12.1-.24.1h-4.74c.02.44.08.83.19 1.16.1.33.26.61.46.84.2.22.43.38.7.5.27.1.57.15.9.15a2.72 2.72 0 001.4-.34c.16-.08.3-.16.4-.23.12-.07.21-.11.3-.11.1 0 .17.04.23.12l.35.45zm6.95-5.75c.06-.1.15-.18.26-.25.1-.06.22-.1.34-.1h.97l-1.84 2.7c-.11.18-.23.32-.35.43-.12.11-.27.2-.45.26.23.06.42.15.57.28.15.13.3.3.41.5l1.87 2.93h-.87a1 1 0 01-.52-.12 1 1 0 01-.31-.32l-1.38-2.2a1.08 1.08 0 00-1-.55h-.75v3.2h-1.26v-7.1h1.26v3.06h.67a1 1 0 00.87-.48l1.5-2.23zm9.83.6h-2.72v6.15h-1.25v-6.14h-2.72v-.95h6.7v.95zm5.97 2.95c-.58.02-1.07.07-1.47.14-.4.07-.73.17-1 .28-.24.12-.43.26-.54.42a.9.9 0 00-.17.53c0 .19.03.35.09.48.06.14.14.25.24.34.11.08.23.14.38.19a2.68 2.68 0 001.06 0 2.77 2.77 0 00.97-.5c.15-.12.3-.26.44-.4v-1.48zm-4.03-2.9a3.9 3.9 0 012.77-1.13c.4 0 .75.07 1.06.2a2.15 2.15 0 011.25 1.4c.11.33.16.7.16 1.09v4.54h-.55a.57.57 0 01-.28-.06c-.06-.04-.12-.12-.15-.24l-.14-.67a8.1 8.1 0 01-.55.46 3.08 3.08 0 01-1.92.62c-.28 0-.54-.04-.78-.11a1.69 1.69 0 01-1.06-.93 2.1 2.1 0 01-.16-.84c0-.29.08-.55.23-.81a2 2 0 01.75-.7c.35-.2.8-.36 1.35-.48.56-.13 1.24-.2 2.05-.23v-.55c0-.55-.12-.97-.36-1.25s-.59-.42-1.04-.42c-.31 0-.57.04-.78.12-.2.07-.39.16-.54.25l-.4.26a.57.57 0 01-.31.12.37.37 0 01-.22-.07.67.67 0 01-.16-.17l-.22-.4z" fill="#414141"/><circle cx="108.4" cy="108.66" r="106.83" stroke="#5E78FF" stroke-width="2" stroke-dasharray="5.5 5.5"/><circle cx="520.6" cy="108.66" r="106.83" stroke="#5E78FF" stroke-width="2" stroke-dasharray="5.5 5.5"/><path d="M293.92 80.46c.24 0 .43.06.57.2.14.13.21.31.21.53v1.34h-8.93v-.74c0-.15.03-.3.1-.47.06-.17.16-.32.3-.45l3.95-3.96c.33-.34.63-.66.88-.96.27-.31.49-.61.66-.91.17-.3.3-.6.4-.91.1-.31.14-.64.14-.98 0-.31-.05-.59-.13-.82a1.6 1.6 0 00-.4-.6 1.5 1.5 0 00-.59-.36 2.23 2.23 0 00-.77-.13 2.27 2.27 0 00-1.33.43 1.92 1.92 0 00-.71 1.06c-.1.28-.24.46-.4.55-.16.1-.4.11-.7.07l-1.17-.21c.09-.63.26-1.17.52-1.64a3.9 3.9 0 012.3-1.89 5.26 5.26 0 013.26.03 3.4 3.4 0 012.1 1.92 3.98 3.98 0 01.08 2.85c-.13.4-.32.8-.56 1.17a7.6 7.6 0 01-.82 1.08l-1 1.06-2.94 3a6.2 6.2 0 011.64-.26h3.34zm8.46-6.03c.41-.41.88-.73 1.4-.95a4.61 4.61 0 011.8-.33c.74 0 1.38.12 1.94.36a4.1 4.1 0 012.27 2.5c.2.58.29 1.2.29 1.88 0 .76-.11 1.43-.33 2.03a4.4 4.4 0 01-.9 1.49 3.86 3.86 0 01-2.93 1.25 6.8 6.8 0 01-.98-.07 4.7 4.7 0 01-1.85-.71c-.3-.2-.56-.44-.8-.73l.6-.75c.1-.13.23-.2.41-.2.1 0 .18.02.25.07a3.28 3.28 0 01.52.32 3.2 3.2 0 00.81.32c.18.04.39.06.63.06.62 0 1.13-.2 1.55-.61.41-.42.67-1.01.76-1.8h-3.91v-1.5h3.9a2.86 2.86 0 00-.77-1.64 2.14 2.14 0 00-1.59-.58 3.2 3.2 0 00-1.32.3l-.4.21a.68.68 0 01-.33.1.47.47 0 01-.28-.08 1.21 1.21 0 01-.19-.2l-.55-.74zm18.05.5h-3.29v7.6h-2.22v-7.6h-3.29V73.3h8.8v1.65zm7.14 3.65c-.64.03-1.18.09-1.62.17a4.2 4.2 0 00-1.06.31c-.26.13-.45.27-.56.44a.96.96 0 00-.17.55c0 .39.11.67.34.84.23.17.54.25.9.25.46 0 .86-.08 1.19-.24.33-.17.66-.42.98-.76v-1.56zm-5.1-4a5.48 5.48 0 013.84-1.46c.54 0 1.02.09 1.45.27a2.99 2.99 0 011.74 1.86c.16.44.24.92.24 1.44v5.84h-1.01c-.21 0-.37-.03-.49-.1-.11-.06-.2-.19-.27-.38l-.2-.67c-.23.21-.46.4-.68.56a4.2 4.2 0 01-1.47.64 4.16 4.16 0 01-1.98-.06c-.33-.11-.61-.27-.85-.48a2.12 2.12 0 01-.56-.78 2.78 2.78 0 01-.08-1.79c.08-.23.2-.45.38-.66.18-.21.4-.41.7-.6a4.5 4.5 0 011.03-.48c.41-.14.89-.25 1.44-.33.54-.1 1.17-.15 1.87-.17v-.54c0-.61-.13-1.07-.4-1.36-.26-.3-.64-.45-1.14-.45a2.76 2.76 0 00-1.52.4l-.5.29a.95.95 0 01-.48.12.66.66 0 01-.4-.11c-.1-.09-.2-.18-.26-.3l-.4-.7zm18.4 7.95h-2.22v-7.6h-3.6v7.6h-2.22v-9.24h8.05v9.24z" fill="#5E78FF"/><path d="M252.94 122.3h-1.37v-8.96h-5v8.96h-1.36v-10.03h7.73v10.03zm4.4-1.7c.24.3.49.52.76.64.27.13.57.2.9.2a1.8 1.8 0 001.53-.72 3.3 3.3 0 00.54-2.01c0-.46-.05-.86-.13-1.2-.08-.32-.2-.6-.35-.8a1.36 1.36 0 00-.57-.47c-.22-.1-.47-.15-.76-.15-.4 0-.76.1-1.07.28-.3.19-.58.45-.84.8v3.42zm-.05-4.3c.3-.36.64-.66 1.03-.88.4-.23.84-.34 1.35-.34.4 0 .78.08 1.1.24.34.15.62.39.86.7.23.3.4.67.54 1.13a5.83 5.83 0 01-.03 3.02c-.14.45-.34.84-.6 1.17-.27.33-.59.58-.97.78-.38.18-.8.28-1.28.28-.44 0-.8-.08-1.12-.22a2.7 2.7 0 01-.82-.62v3.14h-1.25v-9.5h.75c.17 0 .28.1.32.27l.12.84zm10.63-1.2c.52 0 .98.08 1.4.26a2.99 2.99 0 011.74 1.89c.15.44.23.94.23 1.5a4.5 4.5 0 01-.24 1.51 3.01 3.01 0 01-1.74 1.88 3.7 3.7 0 01-1.4.26c-.51 0-.99-.09-1.4-.26a3.01 3.01 0 01-1.75-1.88 4.63 4.63 0 01-.23-1.51c0-.56.08-1.06.23-1.5a2.99 2.99 0 011.74-1.89c.43-.18.9-.26 1.42-.26zm0 6.32c.7 0 1.22-.23 1.57-.7.34-.47.51-1.12.51-1.96 0-.85-.17-1.5-.51-1.98-.35-.47-.87-.7-1.57-.7-.36 0-.67.06-.93.18s-.48.3-.66.52c-.17.23-.3.51-.4.85-.08.33-.12.7-.12 1.13 0 .84.18 1.5.52 1.96.35.47.88.7 1.59.7zm11.56-5.26h-2.72v6.14h-1.25v-6.14h-2.72v-.95h6.69v.95zm4.89-1.06c.52 0 .99.08 1.4.26a2.98 2.98 0 011.74 1.89c.16.44.23.94.23 1.5a4.5 4.5 0 01-.23 1.51 3 3 0 01-1.74 1.88 3.7 3.7 0 01-1.4.26c-.52 0-1-.09-1.41-.26a3.01 3.01 0 01-1.75-1.88 4.63 4.63 0 01-.23-1.51c0-.56.08-1.06.23-1.5a2.99 2.99 0 011.74-1.89c.43-.18.9-.26 1.42-.26zm0 6.32c.7 0 1.22-.23 1.57-.7.34-.47.52-1.12.52-1.96 0-.85-.18-1.5-.52-1.98-.35-.47-.87-.7-1.57-.7-.35 0-.67.06-.93.18s-.48.3-.66.52c-.17.23-.3.51-.4.85-.07.33-.12.7-.12 1.13 0 .84.18 1.5.52 1.96.35.47.88.7 1.59.7zm11.56-5.26h-2.72v6.14h-1.25v-6.14h-2.72v-.95h6.7v.95zm8.27-.95v7.09h-1.24v-4.82a3.22 3.22 0 01.05-.62 4.86 4.86 0 01-.26.48l-3.43 4.65c-.05.08-.11.15-.2.22a.38.38 0 01-.24.1h-.76v-7.1h1.25v4.82a3.58 3.58 0 01-.05.61 3.68 3.68 0 01.26-.46l3.42-4.66a.99.99 0 01.2-.2c.07-.08.16-.11.25-.11h.75zm8.88 7.09h-1.25v-6.14h-3.4v6.14h-1.26v-7.1h5.91v7.1zm9.06-7.1v7.1h-1.24v-4.82a3.6 3.6 0 01.05-.62 4.86 4.86 0 01-.26.48l-3.43 4.65c-.05.08-.11.15-.2.22a.38.38 0 01-.24.1h-.76v-7.1h1.25v4.82a3.58 3.58 0 01-.05.61 3.68 3.68 0 01.26-.46l3.42-4.66c.05-.07.12-.14.2-.2.07-.08.16-.11.25-.11h.75zm4.23 5.4a2 2 0 00.75.64c.27.13.57.2.9.2a1.8 1.8 0 001.53-.72 3.3 3.3 0 00.53-2.01c0-.46-.04-.86-.12-1.2-.08-.32-.2-.6-.35-.8a1.36 1.36 0 00-.57-.47c-.22-.1-.48-.15-.76-.15-.4 0-.76.1-1.07.28-.3.19-.59.45-.84.8v3.42zm-.07-4.3c.3-.36.65-.66 1.04-.88.4-.23.84-.34 1.34-.34.41 0 .78.08 1.12.24.33.15.61.39.84.7.24.3.42.67.54 1.13a5.83 5.83 0 01-.02 3.02c-.14.45-.34.84-.6 1.17-.27.33-.6.58-.97.78-.38.18-.8.28-1.28.28-.44 0-.81-.08-1.12-.22a2.7 2.7 0 01-.82-.62v3.14h-1.26v-9.5h.75c.18 0 .29.1.33.27l.11.84zm10.64-1.2c.51 0 .98.08 1.4.26a2.99 2.99 0 011.73 1.89c.16.44.24.94.24 1.5s-.08 1.06-.24 1.51a3.01 3.01 0 01-1.74 1.88 3.7 3.7 0 01-1.4.26c-.52 0-.99-.09-1.4-.26a3 3 0 01-1.75-1.88 4.63 4.63 0 01-.23-1.51c0-.56.08-1.06.23-1.5a2.98 2.98 0 011.74-1.89c.42-.18.9-.26 1.42-.26zm0 6.32c.7 0 1.22-.23 1.56-.7.35-.47.52-1.12.52-1.96 0-.85-.17-1.5-.51-1.98-.35-.47-.87-.7-1.57-.7-.36 0-.67.06-.93.18-.27.12-.49.3-.66.52-.18.23-.3.51-.4.85-.08.33-.12.7-.12 1.13 0 .84.17 1.5.52 1.96.35.47.88.7 1.59.7zm8.67 0c.47 0 .84-.1 1.11-.32.27-.22.4-.52.4-.9 0-.16-.02-.31-.07-.45a.87.87 0 00-.25-.36 1.2 1.2 0 00-.47-.24c-.2-.06-.43-.09-.7-.09h-1.54v2.36h1.52zm-1.52-5.37v2.22h1.36c.2 0 .4-.02.57-.08.18-.06.33-.14.46-.25.12-.1.22-.23.29-.37a1.14 1.14 0 00.03-.87.78.78 0 00-.23-.33 1.2 1.2 0 00-.44-.23c-.19-.06-.41-.1-.68-.1h-1.36zm1.4-.84c.44 0 .81.04 1.13.13.3.09.56.21.76.36.2.15.35.33.45.54.09.2.14.42.14.66a2 2 0 01-.07.48 1.6 1.6 0 01-.65.9c-.18.12-.4.22-.67.29.54.1.96.28 1.25.57.3.28.44.65.44 1.1 0 .35-.07.65-.2.91-.14.25-.33.46-.57.64-.24.17-.52.3-.84.38-.33.09-.67.13-1.04.13h-2.73v-7.1h2.6zm9.19 3.9c-.57.02-1.06.06-1.47.14-.4.07-.73.16-.99.28-.25.11-.43.25-.55.41a.9.9 0 00-.17.53c0 .19.03.35.1.48.05.14.13.25.24.34.1.08.23.15.37.19.14.04.3.06.46.06a2.32 2.32 0 001.11-.26 3.82 3.82 0 00.9-.7v-1.47zm-4.03-2.9c.4-.38.82-.66 1.27-.85a3.9 3.9 0 011.5-.28c.4 0 .75.07 1.06.2a2.15 2.15 0 011.26 1.4c.1.32.16.69.16 1.08v4.54h-.56a.58.58 0 01-.28-.06c-.06-.04-.11-.12-.15-.23l-.14-.68c-.19.17-.37.33-.55.47a3.08 3.08 0 01-1.93.62c-.27 0-.53-.05-.77-.12a1.71 1.71 0 01-1.06-.93c-.1-.24-.16-.52-.16-.84 0-.28.08-.55.24-.8a2 2 0 01.74-.7c.35-.2.8-.36 1.36-.49.55-.13 1.23-.2 2.04-.22v-.56c0-.55-.12-.96-.36-1.24-.24-.29-.58-.43-1.04-.43-.3 0-.57.04-.78.12-.2.07-.38.16-.54.26l-.39.26a.56.56 0 01-.32.1.37.37 0 01-.22-.05.69.69 0 01-.15-.17l-.23-.4zm14.05-1v7.09h-1.25v-3.32h-3.4v3.32h-1.25v-7.1h1.25v2.84h3.4v-2.83h1.25zm9.07 0v7.09h-1.25v-4.82a3.6 3.6 0 01.05-.62 4.86 4.86 0 01-.26.48l-3.42 4.65c-.05.08-.12.15-.2.22a.38.38 0 01-.25.1h-.76v-7.1h1.26v4.82a3.58 3.58 0 01-.05.61 3.68 3.68 0 01.25-.46l3.42-4.66c.05-.07.12-.14.2-.2.08-.08.17-.11.26-.11h.75zm7.71 2.77c0-.29-.04-.55-.12-.8a1.69 1.69 0 00-1.69-1.17c-.6 0-1.07.18-1.42.53-.35.34-.56.82-.64 1.44h3.87zm1.01 3.33c-.15.18-.34.34-.55.48a3.58 3.58 0 01-1.45.54c-.26.04-.52.07-.78.07-.49 0-.94-.09-1.36-.25a3.07 3.07 0 01-1.77-1.92 4.83 4.83 0 01-.02-3c.15-.44.37-.8.65-1.12.29-.32.64-.56 1.05-.74a3.38 3.38 0 012.56-.06 2.76 2.76 0 011.56 1.61c.15.4.22.84.22 1.35 0 .2-.02.32-.06.39-.04.06-.12.1-.24.1h-4.74c.02.44.08.83.19 1.17.1.33.26.6.46.83.2.22.43.38.7.5a2.72 2.72 0 002.3-.18l.4-.24c.12-.07.21-.1.3-.1.1 0 .17.03.23.11l.35.46zm-94.15 13.9v7.09h-1.25v-4.82a3.6 3.6 0 01.05-.62 4.86 4.86 0 01-.26.48l-3.42 4.65c-.05.07-.12.15-.2.22a.37.37 0 01-.25.1h-.75v-7.1h1.25v4.82a3.19 3.19 0 01-.05.61 3.68 3.68 0 01.25-.46l3.43-4.66c.05-.07.11-.14.2-.2.07-.08.16-.11.25-.11h.75zm12.44 6.18v-5.2h-2.25a23.3 23.3 0 01-.2 1.93 14 14 0 01-.29 1.48c-.1.42-.23.77-.36 1.07-.13.3-.27.53-.42.72h3.52zm2.5-.04v3c0 .13-.03.22-.1.29a.34.34 0 01-.26.1h-.76v-2.44h-5.97v2.08a.4.4 0 01-.08.25c-.05.07-.14.11-.26.11h-.79v-3.35h.24c.16 0 .32-.03.48-.08.16-.06.32-.17.47-.32.15-.16.29-.38.42-.67.13-.28.25-.65.36-1.1.1-.47.2-1.02.28-1.67.08-.66.14-1.44.2-2.34h4.48v6.14h1.3zm8.35-6.14v7.09h-1.25v-4.82a3.6 3.6 0 01.05-.62 4.86 4.86 0 01-.26.48l-3.42 4.65c-.05.07-.12.15-.2.22a.37.37 0 01-.25.1h-.75v-7.1h1.25v4.82a3.19 3.19 0 01-.05.61 3.68 3.68 0 01.25-.46l3.42-4.66c.06-.07.12-.14.2-.2.08-.08.17-.11.26-.11h.75zm2.52.73c.27-.26.59-.46.97-.61a3.7 3.7 0 011.38-.23c.42 0 .8.05 1.13.16.33.1.6.24.82.41.22.17.39.37.5.6a1.44 1.44 0 01.1 1.12c-.04.16-.1.3-.21.44a1.9 1.9 0 01-1 .69c.45.13.8.35 1.06.65.26.3.39.67.39 1.1 0 .32-.08.62-.23.89-.14.26-.35.48-.6.67-.25.18-.54.32-.88.42a3.66 3.66 0 01-1.74.08 3.64 3.64 0 01-1.33-.54 2.5 2.5 0 01-.52-.48l.35-.46a.27.27 0 01.24-.12c.08 0 .17.04.26.11l.36.24c.14.09.31.17.51.25.2.07.46.1.75.1.26 0 .49-.03.69-.09.2-.07.37-.15.51-.27a1.15 1.15 0 00.44-.9 1 1 0 00-.44-.85c-.3-.21-.73-.32-1.33-.32h-.8v-.82h.8c.26 0 .5-.03.7-.08.2-.06.38-.13.52-.22a.88.88 0 00.06-1.5 1.5 1.5 0 00-.48-.23 2.4 2.4 0 00-.67-.08 2.63 2.63 0 00-1.53.45.41.41 0 01-.21.08.32.32 0 01-.16-.03.5.5 0 01-.12-.15l-.29-.48zm11.58 3.17c-.57.01-1.06.06-1.47.14-.4.07-.73.16-.99.28-.25.11-.43.25-.55.41a.9.9 0 00-.17.53c0 .19.03.35.1.49.05.13.14.24.24.33.1.09.23.15.37.19.14.04.3.06.46.06a2.34 2.34 0 001.11-.26 3.91 3.91 0 00.9-.7v-1.47zm-4.03-2.9a3.9 3.9 0 012.77-1.13c.4 0 .76.07 1.06.2a2.15 2.15 0 011.26 1.4c.1.32.16.69.16 1.08v4.54h-.56a.58.58 0 01-.27-.06c-.07-.04-.12-.12-.16-.24l-.14-.67a8.1 8.1 0 01-.55.46 3.08 3.08 0 01-1.92.62c-.27 0-.53-.04-.78-.11a1.7 1.7 0 01-1.06-.93 2.1 2.1 0 01-.15-.84c0-.28.07-.55.23-.8a2 2 0 01.75-.7c.34-.2.8-.36 1.35-.49s1.23-.2 2.04-.22v-.56c0-.55-.12-.96-.36-1.24-.24-.29-.58-.43-1.04-.43-.3 0-.57.04-.78.12-.2.07-.38.16-.54.26l-.39.26a.57.57 0 01-.32.1.37.37 0 01-.22-.05.67.67 0 01-.15-.17l-.23-.4zm14.23-1v7.09h-1.25v-4.82a3.6 3.6 0 01.05-.62 4.86 4.86 0 01-.26.48l-3.42 4.65c-.05.07-.12.15-.2.22a.38.38 0 01-.25.1h-.75v-7.1h1.25v4.82a3.58 3.58 0 01-.05.61 3.68 3.68 0 01.25-.46l3.43-4.66c.05-.07.11-.14.2-.2.07-.08.16-.11.25-.11h.75zm-2.96-1.72c.19 0 .35-.02.48-.06a.7.7 0 00.32-.22c.08-.1.14-.22.18-.38.04-.15.05-.34.05-.56h.73c.1 0 .16.04.2.12a.5.5 0 01.07.26c0 .23-.04.44-.13.63-.1.18-.23.34-.41.48a1.9 1.9 0 01-.64.3c-.25.07-.53.1-.85.1-.32 0-.6-.03-.86-.1a1.97 1.97 0 01-.64-.3c-.17-.14-.3-.3-.4-.48a1.4 1.4 0 01-.14-.63c0-.1.02-.18.07-.26a.22.22 0 01.2-.12h.73c0 .22.02.41.06.56.03.16.1.28.17.38.09.1.2.17.32.22.14.04.3.06.49.06zm11.84 1.72v7.09h-1.26v-3.32h-3.4v3.32h-1.25v-7.1h1.25v2.84h3.4v-2.83h1.26z" fill="#414141"/><path d="M493.13 73.28c.09-.62.26-1.17.52-1.63a3.9 3.9 0 012.3-1.9 5.26 5.26 0 013.23.02c.49.17.9.41 1.25.72a3.15 3.15 0 011.06 2.38c0 .41-.05.78-.15 1.1a2.37 2.37 0 01-1.04 1.41c-.26.16-.55.3-.87.4a3.4 3.4 0 011.74 1.13c.39.5.58 1.14.58 1.9a3.74 3.74 0 01-2.75 3.74 5.82 5.82 0 01-3.41.04 3.71 3.71 0 01-2.2-1.75 7.29 7.29 0 01-.64-1.47l.98-.4c.26-.11.5-.14.72-.09.23.05.4.17.5.36.1.21.22.42.35.62a2.37 2.37 0 001.1.94c.24.1.53.14.87.14a2.15 2.15 0 002.11-1.32c.1-.25.14-.5.14-.74 0-.3-.03-.6-.1-.84-.06-.26-.2-.48-.4-.66a2.25 2.25 0 00-.92-.42c-.39-.1-.91-.16-1.57-.16v-1.58c.54 0 1-.06 1.36-.15.36-.1.64-.23.85-.4.22-.17.37-.38.45-.62.09-.24.13-.5.13-.8 0-.6-.17-1.07-.51-1.39-.35-.32-.8-.47-1.37-.47a2.19 2.19 0 00-1.33.43 1.92 1.92 0 00-.72 1.06c-.1.28-.23.46-.4.55-.16.09-.4.11-.7.06l-1.16-.2zm16.31 1.3c.41-.41.88-.73 1.4-.95a4.61 4.61 0 011.81-.34c.73 0 1.37.12 1.93.36a4.1 4.1 0 012.27 2.5c.2.58.3 1.2.3 1.89 0 .75-.12 1.43-.34 2.02a4.4 4.4 0 01-.89 1.5 3.86 3.86 0 01-2.93 1.25 6.8 6.8 0 01-.99-.08 4.7 4.7 0 01-1.85-.71c-.29-.2-.55-.44-.8-.73l.6-.74c.1-.13.24-.2.42-.2.09 0 .17.02.25.06a3.28 3.28 0 01.52.32c.1.07.22.13.35.19a3.1 3.1 0 001.08.2c.62 0 1.14-.2 1.55-.62.41-.41.67-1 .76-1.79h-3.91V77.2h3.9a2.86 2.86 0 00-.77-1.63 2.14 2.14 0 00-1.58-.58 3.2 3.2 0 00-1.32.3l-.4.2a.68.68 0 01-.33.1.47.47 0 01-.28-.07 1.21 1.21 0 01-.2-.2l-.55-.74zm18.06.5h-3.3v7.6h-2.22v-7.6h-3.28v-1.64h8.8v1.64zm7.13 3.65c-.64.03-1.18.09-1.62.17a4.2 4.2 0 00-1.05.3c-.26.13-.45.28-.57.45a.96.96 0 00-.17.55c0 .39.12.67.34.83.24.17.54.26.91.26.46 0 .85-.09 1.18-.25.34-.17.66-.42.98-.75v-1.56zm-5.1-4a5.48 5.48 0 013.84-1.46c.54 0 1.02.09 1.45.27a2.99 2.99 0 011.75 1.86c.15.44.23.92.23 1.44v5.83h-1c-.22 0-.38-.03-.5-.09-.1-.06-.2-.2-.26-.39l-.2-.66c-.24.2-.46.4-.69.56a4.2 4.2 0 01-1.46.64 4.16 4.16 0 01-1.98-.07 2.12 2.12 0 01-1.41-1.26 2.78 2.78 0 01-.09-1.78c.08-.23.2-.46.38-.67.18-.2.41-.4.7-.59a4.5 4.5 0 011.03-.49c.41-.13.9-.24 1.44-.33.55-.09 1.17-.14 1.87-.16v-.54c0-.62-.13-1.07-.4-1.37-.26-.3-.64-.45-1.14-.45a2.76 2.76 0 00-1.52.42c-.18.1-.34.2-.5.27a.95.95 0 01-.48.13.66.66 0 01-.4-.12c-.1-.08-.19-.18-.26-.28l-.4-.72zm18.41 7.94h-2.22v-7.59h-3.6v7.6h-2.23v-9.24h8.05v9.23z" fill="#5E78FF"/><path d="M489.01 122.44c.39 0 .72-.04 1-.13s.51-.21.69-.37c.18-.16.31-.36.4-.58.08-.22.12-.46.12-.73 0-.52-.18-.93-.55-1.22-.37-.3-.92-.46-1.66-.46h-2.17v3.5h2.17zm-2.17-7.88v3.42h1.8c.38 0 .7-.04.99-.12.28-.09.51-.2.7-.35.18-.15.32-.33.41-.54.09-.22.13-.45.13-.7 0-.6-.17-1.02-.53-1.3-.35-.27-.9-.4-1.65-.4h-1.85zm1.85-1.07c.62 0 1.14.06 1.59.18.45.12.81.3 1.1.52.29.22.5.5.63.83a2.78 2.78 0 01.09 1.8c-.08.23-.2.44-.35.63-.15.2-.35.38-.58.53-.24.16-.51.28-.83.38a3 3 0 011.66.8c.37.38.56.88.56 1.5 0 .43-.08.82-.24 1.17-.15.35-.38.65-.68.9-.3.25-.67.45-1.11.59-.44.13-.94.2-1.5.2h-3.54V113.5h3.2zm11.2 5.71c0-.29-.05-.55-.13-.79a1.7 1.7 0 00-.93-1.03c-.22-.1-.47-.14-.76-.14-.6 0-1.07.17-1.42.52-.35.35-.56.83-.64 1.44h3.87zm1 3.33c-.15.18-.34.35-.55.49a4.07 4.07 0 01-1.45.53 4.4 4.4 0 01-.78.07c-.49 0-.94-.08-1.36-.25a3.06 3.06 0 01-1.77-1.91 4.82 4.82 0 01-.02-3.01c.15-.43.37-.8.65-1.12.29-.31.64-.56 1.05-.74a3.38 3.38 0 012.56-.06 2.77 2.77 0 011.56 1.61c.15.4.22.84.22 1.35 0 .2-.02.33-.06.4-.04.06-.12.09-.24.09h-4.74c.02.45.08.84.19 1.17.1.33.26.6.46.83.2.22.43.39.7.5a2.72 2.72 0 002.3-.18c.16-.09.3-.16.4-.23.12-.08.21-.12.3-.12.1 0 .18.04.23.12l.35.46zm3.9-.72c.23.31.48.53.75.65.27.13.57.2.9.2a1.8 1.8 0 001.53-.71 3.3 3.3 0 00.53-2.02c0-.46-.04-.86-.12-1.19-.08-.33-.2-.6-.35-.81a1.37 1.37 0 00-.57-.47c-.22-.1-.48-.15-.76-.15-.4 0-.76.1-1.07.28-.3.19-.59.45-.84.8v3.42zm-.07-4.28c.3-.37.65-.67 1.04-.89.4-.22.84-.34 1.34-.34.41 0 .79.08 1.12.24.33.16.61.39.84.7.24.3.42.68.54 1.13a5.84 5.84 0 01-.02 3.02c-.14.45-.34.84-.6 1.17a2.84 2.84 0 01-3.37.84c-.31-.15-.59-.35-.82-.61v3.13h-1.26v-9.49h.75c.18 0 .29.09.33.26l.11.84zm12.58.16a.52.52 0 01-.1.12.25.25 0 01-.16.04.43.43 0 01-.23-.08 3.33 3.33 0 00-.77-.39c-.18-.06-.4-.09-.66-.09-.35 0-.66.06-.93.19-.26.12-.49.3-.67.53-.17.24-.31.52-.4.85a4.34 4.34 0 00.01 2.26c.1.33.24.61.41.84.19.22.4.4.65.52.26.11.55.17.87.17.3 0 .55-.03.74-.1.2-.08.36-.16.49-.25.13-.08.24-.16.32-.23a.41.41 0 01.26-.12c.1 0 .18.04.24.12l.35.46c-.16.19-.33.35-.53.49a3.27 3.27 0 01-1.34.54c-.25.04-.5.06-.76.06-.44 0-.86-.08-1.24-.25-.38-.16-.7-.4-.99-.7-.27-.31-.5-.7-.65-1.15a4.68 4.68 0 01-.24-1.55c0-.53.07-1.01.22-1.46a2.96 2.96 0 011.69-1.92c.4-.18.88-.27 1.42-.27a3.1 3.1 0 012.33.92l-.33.45zm8.65-.3h-2.73v6.13h-1.24v-6.14h-2.72v-.95h6.69v.95zm6.5-.61a.8.8 0 01.25-.25c.1-.07.22-.1.34-.1h.98l-1.85 2.7c-.1.18-.22.32-.34.43-.13.1-.28.2-.45.25.22.06.41.16.56.29.16.12.3.29.42.49l1.86 2.93h-.87a.99.99 0 01-.52-.11.97.97 0 01-.31-.32l-1.38-2.2a1.08 1.08 0 00-.99-.55h-.76v3.19h-1.25v-7.1h1.25v3.07h.67a1 1 0 00.88-.48l1.5-2.24zm7.77 3.55c-.57.02-1.06.06-1.47.14-.4.07-.73.16-.98.28a1.4 1.4 0 00-.55.41.9.9 0 00-.17.53c0 .2.03.35.09.49.06.13.14.24.24.33.11.09.23.15.37.2a2.68 2.68 0 001.06 0 2.71 2.71 0 00.97-.5c.16-.13.3-.26.44-.41v-1.47zm-4.02-2.9c.4-.38.81-.66 1.27-.85.45-.18.95-.28 1.5-.28.4 0 .75.07 1.06.2a2.18 2.18 0 011.25 1.4c.1.32.16.69.16 1.08v4.54h-.55a.56.56 0 01-.28-.05c-.07-.05-.12-.13-.15-.24l-.14-.67-.55.46a2.96 2.96 0 01-1.19.54 3.19 3.19 0 01-1.51-.04 1.69 1.69 0 01-1.06-.93 2.1 2.1 0 01-.16-.84c0-.28.08-.55.23-.8.15-.27.4-.5.75-.7.34-.2.8-.36 1.35-.49.56-.13 1.24-.2 2.05-.22v-.56c0-.55-.12-.96-.36-1.24s-.59-.43-1.04-.43a2.22 2.22 0 00-1.32.38l-.4.26a.56.56 0 01-.32.11.37.37 0 01-.21-.06.63.63 0 01-.16-.17l-.22-.4zm18.8-1v7.1h-1.24v-4.83a3.65 3.65 0 01.05-.62 4.21 4.21 0 01-.26.48l-3.42 4.65c-.05.08-.12.15-.2.22a.37.37 0 01-.25.1h-.76v-7.1h1.26v4.82a3.54 3.54 0 01-.05.61 4.25 4.25 0 01.25-.46l3.42-4.66c.05-.07.12-.14.2-.2.08-.08.16-.11.26-.11h.75zm-97.53 27.1h-1.26v-6.15h-3.4v6.14h-1.25v-7.09h5.9v7.1zm4.23-1.72c.23.31.48.53.75.65.27.13.57.2.9.2a1.8 1.8 0 001.53-.71 3.3 3.3 0 00.54-2.02c0-.46-.05-.86-.13-1.19-.08-.33-.2-.6-.35-.81a1.37 1.37 0 00-.57-.47c-.22-.1-.48-.15-.76-.15-.4 0-.76.1-1.07.28-.3.19-.58.45-.84.8v3.42zm-.06-4.28c.3-.37.64-.67 1.03-.89.4-.22.84-.34 1.35-.34.4 0 .78.08 1.1.24.34.16.62.39.86.7.23.3.4.68.53 1.13a5.84 5.84 0 01-.02 3.02c-.14.45-.34.84-.6 1.17a2.84 2.84 0 01-3.37.84c-.31-.15-.58-.35-.82-.61v3.13h-1.25v-9.49h.75c.17 0 .28.09.32.26l.12.84zm10.63-1.21c.52 0 .98.09 1.4.26a3 3 0 011.73 1.89c.16.44.24.95.24 1.5a4.5 4.5 0 01-.24 1.51 2.98 2.98 0 01-1.74 1.88 3.7 3.7 0 01-1.4.26c-.51 0-.99-.09-1.4-.25a2.99 2.99 0 01-1.75-1.89 4.63 4.63 0 01-.23-1.5c0-.56.08-1.06.23-1.51a3.01 3.01 0 011.74-1.89c.42-.18.9-.26 1.42-.26zm0 6.33c.7 0 1.22-.24 1.57-.7.34-.47.52-1.13.52-1.97 0-.84-.18-1.5-.52-1.97-.35-.48-.87-.71-1.57-.71-.35 0-.67.06-.93.18s-.48.3-.66.53c-.17.22-.3.5-.4.84-.08.33-.12.7-.12 1.13 0 .84.17 1.5.52 1.97.35.46.88.7 1.59.7zm10.55-5.27h-3.34v6.14h-1.26v-7.09h4.6v.95zm3.44 4.43c.23.31.48.53.75.65.27.13.57.2.9.2a1.8 1.8 0 001.53-.71 3.3 3.3 0 00.54-2.02c0-.46-.05-.86-.13-1.19-.08-.33-.2-.6-.35-.81a1.37 1.37 0 00-.57-.47c-.22-.1-.47-.15-.76-.15-.4 0-.76.1-1.07.28-.3.19-.58.45-.84.8v3.42zm-.06-4.28c.3-.37.64-.67 1.03-.89.4-.22.84-.34 1.35-.34.4 0 .78.08 1.11.24.33.16.61.39.85.7.23.3.41.68.54 1.13a5.84 5.84 0 01-.02 3.02c-.14.45-.35.84-.61 1.17a2.84 2.84 0 01-3.37.84c-.3-.15-.58-.35-.82-.61v3.13h-1.25v-9.49h.75c.17 0 .28.09.32.26l.12.84zm11.48 2.8c-.57.02-1.06.06-1.47.14-.4.07-.73.16-.98.28a1.4 1.4 0 00-.56.41.9.9 0 00-.16.53c0 .2.03.35.09.49.06.13.14.25.24.33.1.09.23.15.37.2a2.68 2.68 0 001.06 0 2.71 2.71 0 00.97-.5c.16-.13.3-.26.44-.41v-1.47zm-4.02-2.9c.4-.38.81-.66 1.27-.85.45-.18.95-.28 1.5-.28.4 0 .75.07 1.06.2a2.18 2.18 0 011.25 1.4c.1.32.16.69.16 1.09v4.53h-.55a.56.56 0 01-.28-.06c-.07-.04-.12-.12-.15-.23l-.15-.67c-.18.17-.36.32-.54.46a2.96 2.96 0 01-1.19.54 3.19 3.19 0 01-1.51-.04 1.69 1.69 0 01-1.06-.93 2.1 2.1 0 01-.16-.84c0-.28.08-.55.23-.8.15-.27.4-.5.75-.7.34-.2.8-.36 1.35-.49.56-.13 1.24-.2 2.04-.22v-.55c0-.56-.12-.97-.35-1.25-.24-.28-.59-.43-1.05-.43a2.22 2.22 0 00-1.31.38l-.4.26a.56.56 0 01-.32.11.37.37 0 01-.21-.06.63.63 0 01-.16-.17l-.22-.4zm16.04-1.02v7.11h-1.12v-4.71a5 5 0 01.09-.89l-2.47 4.32a.46.46 0 01-.14.17.36.36 0 01-.21.06h-.14a.4.4 0 01-.22-.06.46.46 0 01-.15-.17l-2.5-4.33a9.34 9.34 0 01.09.9v4.71h-1.13v-7.11h1c.09 0 .18.02.26.06a.5.5 0 01.22.22l2.2 3.7c.12.21.21.44.3.67.08-.24.17-.47.28-.68l2.17-3.7a.49.49 0 01.21-.22.64.64 0 01.26-.05h1zm10.87 0v7.11h-1.12v-4.71a5 5 0 01.09-.89l-2.47 4.32a.46.46 0 01-.14.17.36.36 0 01-.21.06h-.14a.4.4 0 01-.22-.06.46.46 0 01-.15-.17l-2.5-4.33a9.34 9.34 0 01.09.9v4.71h-1.13v-7.11h1c.1 0 .18.02.26.06a.5.5 0 01.22.22l2.21 3.7.29.67c.08-.24.17-.47.28-.68l2.17-3.7a.49.49 0 01.21-.22.64.64 0 01.26-.05h1zm9.05.02v7.1h-1.24v-4.82a3.65 3.65 0 01.05-.63 4.21 4.21 0 01-.26.48l-3.42 4.65c-.05.08-.12.15-.2.22a.37.37 0 01-.25.1h-.76v-7.1h1.25v4.82a3.54 3.54 0 01-.04.61 4.25 4.25 0 01.25-.46l3.42-4.66c.05-.07.12-.14.2-.2.08-.07.16-.11.26-.11h.75zm4.23 5.38a2 2 0 00.75.65c.27.13.57.2.9.2a1.8 1.8 0 001.53-.71 3.3 3.3 0 00.54-2.02c0-.46-.05-.86-.13-1.19-.08-.33-.2-.6-.35-.81a1.37 1.37 0 00-.57-.47c-.22-.1-.48-.15-.76-.15-.4 0-.76.1-1.07.28-.3.19-.59.45-.84.8v3.42zm-.07-4.28c.3-.37.65-.67 1.04-.89.4-.22.84-.34 1.34-.34.42 0 .79.08 1.12.24.33.16.61.39.85.7.23.3.4.68.53 1.13a5.84 5.84 0 01-.02 3.02c-.14.45-.34.84-.6 1.17a2.85 2.85 0 01-2.25 1.06c-.44 0-.81-.07-1.12-.22-.31-.15-.58-.35-.82-.61v3.13h-1.25v-9.49h.74c.18 0 .3.09.33.26l.12.84zm10.64-1.21c.52 0 .98.09 1.4.26a3.01 3.01 0 011.73 1.89c.16.44.24.95.24 1.5 0 .56-.08 1.07-.24 1.51a2.99 2.99 0 01-1.74 1.88 3.7 3.7 0 01-1.4.26c-.51 0-.99-.09-1.4-.25a2.98 2.98 0 01-1.07-.74c-.3-.31-.52-.7-.68-1.15a4.63 4.63 0 01-.23-1.5c0-.56.08-1.06.23-1.51a3 3 0 011.74-1.89c.42-.18.9-.26 1.42-.26zm0 6.33c.7 0 1.22-.24 1.57-.7.34-.47.51-1.13.51-1.97 0-.84-.17-1.5-.51-1.97-.35-.48-.87-.71-1.57-.71-.36 0-.67.06-.93.18s-.48.3-.66.53c-.17.22-.3.5-.4.84-.08.33-.12.7-.12 1.13 0 .84.17 1.5.52 1.97.35.46.88.7 1.59.7zm8.68 0c.46 0 .83-.11 1.1-.33.27-.22.4-.51.4-.9 0-.16-.02-.31-.07-.45a.88.88 0 00-.25-.36c-.12-.1-.27-.18-.47-.24-.2-.06-.43-.08-.7-.08h-1.54v2.36h1.52zm-1.53-5.38v2.23h1.36c.2 0 .4-.03.57-.09a1.14 1.14 0 00.75-.62 1.14 1.14 0 00.03-.87.78.78 0 00-.23-.33 1.2 1.2 0 00-.44-.23c-.19-.06-.41-.09-.68-.09h-1.36zm1.4-.84c.44 0 .81.04 1.13.13.3.1.56.21.77.37.2.15.34.32.44.53.09.2.14.42.14.66a2 2 0 01-.07.48 1.6 1.6 0 01-.65.9c-.17.13-.4.22-.67.29.54.1.96.28 1.25.57.3.28.45.65.45 1.11a1.84 1.84 0 01-.78 1.54c-.24.17-.52.3-.84.39-.32.08-.67.12-1.04.12h-2.73v-7.09h2.6zm9.19 3.9c-.57.02-1.06.06-1.47.14-.4.07-.73.16-.99.28a1.4 1.4 0 00-.55.41.9.9 0 00-.17.53c0 .2.03.35.1.49.05.13.14.25.24.33.1.09.23.15.37.2a2.67 2.67 0 001.06 0 2.64 2.64 0 00.97-.5c.16-.13.3-.26.44-.41v-1.47zm-4.02-2.9c.39-.38.81-.66 1.26-.85.46-.18.96-.28 1.5-.28.4 0 .76.07 1.06.2a2.18 2.18 0 011.26 1.4c.1.32.16.69.16 1.09v4.53h-.55a.57.57 0 01-.29-.06c-.06-.04-.11-.12-.15-.23l-.14-.67c-.18.17-.37.32-.54.46a2.96 2.96 0 01-1.19.54 3.19 3.19 0 01-1.52-.04 1.7 1.7 0 01-1.06-.93c-.1-.24-.16-.52-.16-.84 0-.28.08-.55.24-.8.15-.27.4-.5.75-.7.34-.2.8-.36 1.35-.49s1.23-.2 2.04-.22v-.55c0-.56-.12-.97-.36-1.25-.23-.28-.58-.43-1.04-.43a2.22 2.22 0 00-1.32.38l-.39.26a.56.56 0 01-.32.11.37.37 0 01-.22-.06.65.65 0 01-.15-.17l-.23-.4zm14.04-1v7.1h-1.25v-3.33h-3.4v3.32h-1.25v-7.09h1.25v2.83h3.4v-2.83h1.25zm9.07 0v7.1H580v-4.82a3.65 3.65 0 01.05-.63 4.21 4.21 0 01-.26.48l-3.42 4.65c-.05.08-.12.15-.2.22a.37.37 0 01-.25.1h-.75v-7.1h1.25v4.82a3.54 3.54 0 01-.05.61 4.25 4.25 0 01.25-.46l3.42-4.66c.06-.07.12-.14.2-.2.08-.07.17-.11.26-.11h.75zm7.71 2.77c0-.29-.04-.55-.12-.79a1.68 1.68 0 00-1.69-1.17c-.6 0-1.07.17-1.42.52-.35.35-.56.83-.64 1.44h3.87zm1.01 3.33c-.15.18-.34.35-.55.49a4.07 4.07 0 01-1.45.53c-.26.05-.52.07-.78.07-.49 0-.94-.08-1.36-.25a3.06 3.06 0 01-1.77-1.91 4.82 4.82 0 01-.02-3.01 2.97 2.97 0 011.7-1.85 3.39 3.39 0 012.56-.07 2.76 2.76 0 011.56 1.61c.15.4.22.84.22 1.35 0 .2-.02.33-.06.4-.04.06-.12.09-.24.09h-4.74c.02.45.08.84.19 1.17.1.33.26.6.46.83.2.22.43.39.7.5a2.72 2.72 0 002.3-.18c.16-.09.3-.16.4-.23.12-.08.21-.12.3-.12.1 0 .18.04.23.12l.35.46z" fill="#414141"/><circle cx="313.54" cy="108.66" r="106.83" stroke="#5E78FF" stroke-width="2" stroke-dasharray="5.5 5.5"/><path d="M188.93 268.35v-4.26c0-.4.03-.85.08-1.33l-4.04 5.59h3.96zm3.57 0v1.28c0 .12-.03.23-.11.32-.08.08-.2.12-.34.12h-1.18v3.18h-1.94v-3.18h-5.49a.62.62 0 01-.4-.13.62.62 0 01-.21-.35l-.24-1.13 6.17-8.23h2.1v8.12h1.64zm7.3-3.19c.42-.41.89-.73 1.4-.95a4.61 4.61 0 011.82-.34c.73 0 1.37.12 1.93.36a4.1 4.1 0 012.27 2.5c.2.58.3 1.2.3 1.89 0 .75-.12 1.43-.34 2.02a4.4 4.4 0 01-.9 1.5 3.86 3.86 0 01-2.93 1.25 6.8 6.8 0 01-.98-.08 4.7 4.7 0 01-1.85-.71c-.29-.2-.56-.44-.8-.73l.6-.74c.1-.13.24-.2.42-.2.09 0 .17.02.25.06a3.28 3.28 0 01.52.32c.1.07.22.13.35.19a3.1 3.1 0 001.08.2c.62 0 1.13-.21 1.55-.62.41-.41.67-1 .76-1.79h-3.91v-1.51h3.9a2.86 2.86 0 00-.77-1.63 2.14 2.14 0 00-1.58-.58 3.2 3.2 0 00-1.32.3l-.4.2a.68.68 0 01-.33.1.47.47 0 01-.28-.07 1.21 1.21 0 01-.2-.2l-.55-.74zm18.07.5h-3.3v7.6h-2.22v-7.6h-3.28v-1.64h8.8v1.64zm7.13 3.65c-.64.03-1.18.09-1.62.17a4.2 4.2 0 00-1.05.3c-.27.13-.46.28-.57.45a.96.96 0 00-.17.55c0 .39.11.67.34.83.24.17.54.25.91.25.46 0 .85-.08 1.18-.24.34-.17.66-.42.98-.75v-1.56zm-5.1-4a5.48 5.48 0 013.84-1.46c.54 0 1.02.09 1.45.27a2.99 2.99 0 011.75 1.86c.15.44.23.92.23 1.44v5.83h-1c-.22 0-.38-.03-.5-.09-.1-.06-.2-.2-.26-.39l-.2-.66c-.24.2-.46.4-.69.56a4.2 4.2 0 01-1.46.63 4.16 4.16 0 01-1.98-.06c-.33-.1-.62-.26-.86-.48a2.12 2.12 0 01-.56-.78 2.78 2.78 0 01-.08-1.78c.08-.23.2-.46.38-.67.18-.2.41-.4.7-.59a4.5 4.5 0 011.03-.49c.41-.13.9-.25 1.44-.33.55-.09 1.17-.14 1.87-.16v-.54c0-.62-.13-1.07-.4-1.37-.26-.3-.64-.45-1.14-.45a2.76 2.76 0 00-1.52.41l-.5.28a.95.95 0 01-.48.13.66.66 0 01-.4-.12c-.1-.08-.2-.18-.26-.29l-.4-.7zm18.4 7.94h-2.21v-7.59h-3.6v7.6h-2.23v-9.24h8.05v9.23z" fill="#5E78FF"/><path d="M178.27 304.33h-2.78v7.62h-1.16v-7.62h-2.79v-.98h6.73v.98zm4.63 3.92c0-.25-.03-.48-.1-.68a1.44 1.44 0 00-1.45-1.01c-.51 0-.92.15-1.22.45-.3.3-.48.7-.55 1.24h3.32zm.86 2.85c-.13.16-.28.3-.47.42a3.02 3.02 0 01-1.24.45c-.23.04-.45.06-.67.06a2.64 2.64 0 01-2.68-1.85 4.14 4.14 0 01-.02-2.58c.13-.37.32-.69.56-.96.25-.27.54-.48.9-.63a2.9 2.9 0 012.2-.05 2.36 2.36 0 011.34 1.38c.12.34.18.72.18 1.15 0 .17-.02.28-.05.34-.04.05-.1.08-.2.08h-4.07c.01.39.06.72.16 1 .1.29.23.53.4.72.16.19.36.33.6.42.23.1.49.14.77.14a2.33 2.33 0 001.2-.3c.14-.06.25-.13.34-.19.1-.06.18-.1.25-.1.09 0 .16.04.2.1l.3.4zm6.64-4.15a.48.48 0 01-.1.1.22.22 0 01-.13.04.37.37 0 01-.2-.07 2.74 2.74 0 00-.65-.33 1.76 1.76 0 00-.57-.08c-.3 0-.56.05-.79.16-.23.1-.42.26-.58.46-.15.2-.26.44-.34.72-.08.29-.12.6-.12.96s.05.7.13.98.2.52.35.72c.16.2.34.34.56.44.22.1.47.15.74.15.26 0 .47-.03.64-.09.17-.06.3-.13.41-.2l.28-.21c.08-.06.15-.1.22-.1.1 0 .16.04.2.1l.3.4c-.13.16-.28.3-.44.42a2.86 2.86 0 01-1.16.46c-.2.03-.42.05-.64.05a2.44 2.44 0 01-1.9-.82c-.25-.26-.44-.59-.57-.98a4 4 0 01-.2-1.32c0-.46.05-.87.18-1.26.13-.38.3-.71.55-.99.24-.28.54-.5.9-.65.35-.16.76-.24 1.22-.24a2.66 2.66 0 012 .8l-.29.38zm7.56-.26h-2.34v5.26h-1.07v-5.26h-2.33v-.82h5.74v.82zm7.23-.82v6.08h-1.07v-4.13a2.99 2.99 0 01.04-.53 3.87 3.87 0 01-.22.4l-2.93 4-.17.18a.32.32 0 01-.22.08h-.65v-6.07h1.08V310a2.93 2.93 0 01-.04.53 3.38 3.38 0 01.21-.4l2.94-3.99.16-.18a.33.33 0 01.23-.09h.64zm3.76 4.61c.2.27.41.45.64.56.23.11.5.16.78.16.57 0 1-.2 1.31-.6.3-.4.46-.98.46-1.73 0-.4-.04-.74-.11-1.02a1.93 1.93 0 00-.3-.7c-.13-.18-.3-.31-.49-.4-.19-.08-.4-.12-.65-.12-.35 0-.66.08-.92.24-.26.16-.5.38-.72.67v2.94zm-.05-3.67c.25-.31.55-.57.88-.76.34-.2.72-.29 1.16-.29.35 0 .67.07.95.2.28.14.53.34.73.6.2.26.35.58.46.97a5 5 0 01-.02 2.6c-.12.38-.3.71-.52 1a2.45 2.45 0 01-1.93.9c-.37 0-.69-.06-.96-.18a2.3 2.3 0 01-.7-.53V314h-1.07v-8.14h.64c.15 0 .24.07.28.22l.1.72zm9.25-1.04c.45 0 .85.08 1.2.23a2.57 2.57 0 011.5 1.62c.13.38.2.81.2 1.29s-.07.9-.2 1.3c-.14.38-.33.7-.59.98-.25.27-.55.48-.9.63-.36.14-.76.21-1.2.21-.45 0-.86-.07-1.22-.21a2.57 2.57 0 01-1.5-1.62c-.13-.38-.2-.81-.2-1.3 0-.47.07-.9.2-1.28.14-.4.34-.72.59-1 .25-.27.56-.48.91-.62.36-.15.77-.23 1.21-.23zm0 5.43c.6 0 1.05-.2 1.35-.6.3-.4.44-.97.44-1.69s-.15-1.29-.44-1.69c-.3-.4-.75-.6-1.35-.6-.3 0-.57.05-.8.15-.22.1-.4.25-.56.45-.15.2-.26.44-.33.73-.08.28-.11.6-.11.96 0 .72.15 1.28.44 1.69.3.4.75.6 1.36.6zm7.58 0c.4 0 .72-.1.95-.28a.94.94 0 00.35-.77c0-.14-.02-.27-.07-.39a.76.76 0 00-.21-.3c-.1-.1-.24-.16-.4-.21a2.19 2.19 0 00-.61-.07h-1.31v2.02h1.3zm-1.3-4.61v1.9h1.17c.17 0 .33-.02.48-.06.15-.06.28-.13.4-.21.1-.1.18-.2.24-.33a.98.98 0 00.03-.74.66.66 0 00-.2-.28c-.1-.09-.22-.15-.38-.2a1.84 1.84 0 00-.57-.08h-1.17zm1.2-.72c.37 0 .7.04.96.11.27.08.49.18.66.32.17.12.3.28.38.45.08.18.12.37.12.57 0 .13-.02.27-.05.41-.04.14-.1.28-.2.41-.08.14-.2.26-.36.36-.15.1-.35.19-.58.25.47.08.82.24 1.08.49.25.24.37.55.37.95 0 .3-.06.55-.18.77-.11.22-.27.4-.48.55-.2.15-.45.26-.72.33-.28.07-.57.1-.89.1h-2.34v-6.07h2.23zm8.02 3.34c-.5.02-.91.06-1.26.12s-.63.14-.85.24c-.22.1-.37.22-.47.36a.77.77 0 00-.15.45c0 .16.03.3.08.42.05.11.12.2.21.28.1.08.2.13.32.17a2.3 2.3 0 00.91 0 2.32 2.32 0 00.83-.43c.13-.1.26-.22.38-.35v-1.26zm-3.45-2.48c.33-.33.7-.57 1.08-.73.4-.16.82-.24 1.3-.24.33 0 .63.06.9.17a1.86 1.86 0 011.07 1.2c.1.28.14.59.14.93v3.89h-.47a.49.49 0 01-.24-.05c-.06-.04-.1-.1-.13-.2l-.13-.58a6.5 6.5 0 01-.46.4c-.16.1-.31.2-.48.28a2.77 2.77 0 01-1.84.14 1.45 1.45 0 01-.91-.8 1.8 1.8 0 01-.13-.71c0-.24.06-.47.2-.69.13-.22.34-.42.64-.6.3-.17.68-.3 1.16-.41a8.66 8.66 0 011.75-.2v-.47c0-.47-.1-.83-.3-1.07-.21-.24-.51-.36-.9-.36a1.9 1.9 0 00-1.13.32l-.34.22c-.09.07-.18.1-.27.1a.32.32 0 01-.19-.06.57.57 0 01-.13-.14l-.2-.34zm12.18-.86v6.08h-1.07v-2.85h-2.92v2.85h-1.07v-6.08h1.07v2.42h2.92v-2.42h1.07zm6.77 2.38c0-.25-.04-.48-.11-.68a1.44 1.44 0 00-1.45-1.01c-.5 0-.91.15-1.22.45-.3.3-.47.7-.55 1.24h3.33zm.86 2.85c-.13.16-.29.3-.47.42a3.02 3.02 0 01-1.25.45c-.22.04-.44.06-.66.06a2.64 2.64 0 01-2.68-1.85 4.14 4.14 0 01-.03-2.58c.14-.37.32-.69.57-.96.24-.27.54-.48.9-.63a2.9 2.9 0 012.19-.05 2.36 2.36 0 011.34 1.38c.12.34.19.72.19 1.15 0 .17-.02.28-.06.34-.03.05-.1.08-.2.08h-4.06c0 .39.06.72.15 1 .1.29.23.53.4.72.17.19.37.33.6.42.23.1.5.14.78.14a2.33 2.33 0 001.2-.3c.13-.06.25-.13.34-.19.1-.06.18-.1.25-.1.09 0 .15.04.2.1l.3.4z" fill="#414141"/><circle cx="210.97" cy="286.62" r="106.83" stroke="#5E78FF" stroke-width="2" stroke-dasharray="5.5 5.5"/><path d="M392.28 265.32a7.31 7.31 0 011.59-.17c.68 0 1.29.1 1.8.3a3.54 3.54 0 012.12 2.11 4.72 4.72 0 01-.1 3.45 4.27 4.27 0 01-2.54 2.41 5.41 5.41 0 01-3.09.21 6.14 6.14 0 01-1.93-.82 6.1 6.1 0 01-.73-.58l.69-.95c.14-.2.33-.3.57-.3.15 0 .3.04.45.14l.54.31a3.02 3.02 0 001.7.46c.4 0 .76-.06 1.08-.2.3-.13.57-.31.77-.54.21-.24.37-.53.47-.85.1-.33.16-.69.16-1.07 0-.7-.2-1.26-.62-1.66-.4-.4-1.01-.6-1.82-.6a5.7 5.7 0 00-1.9.34l-1.38-.4 1.08-6.31h6.42v.94c0 .32-.1.58-.3.78-.2.2-.53.3-1 .3h-3.57l-.46 2.7zm13.63.2c.41-.41.88-.73 1.4-.95a4.61 4.61 0 011.81-.34c.73 0 1.37.12 1.93.36a4.1 4.1 0 012.27 2.5c.2.58.3 1.2.3 1.89 0 .75-.12 1.43-.34 2.02a4.4 4.4 0 01-.9 1.5 3.86 3.86 0 01-2.93 1.25 6.8 6.8 0 01-.98-.07 4.7 4.7 0 01-1.85-.71c-.29-.2-.56-.45-.8-.74l.6-.74c.1-.13.23-.2.41-.2.1 0 .18.02.26.06a3.28 3.28 0 01.52.32c.1.07.22.13.35.19a3.1 3.1 0 001.08.2c.62 0 1.13-.2 1.55-.62.41-.41.67-1 .76-1.79h-3.91v-1.51h3.9a2.86 2.86 0 00-.77-1.63 2.14 2.14 0 00-1.58-.58 3.2 3.2 0 00-1.32.3l-.4.2a.68.68 0 01-.34.1.47.47 0 01-.28-.07 1.21 1.21 0 01-.18-.2l-.56-.74zm18.06.5h-3.3v7.6h-2.22v-7.6h-3.29v-1.64h8.8v1.64zm7.13 3.65c-.64.03-1.18.09-1.62.17a4.2 4.2 0 00-1.05.3c-.27.13-.46.28-.57.45a.96.96 0 00-.17.55c0 .39.11.67.34.83.24.17.54.26.91.26.46 0 .85-.09 1.18-.25.33-.17.66-.42.98-.75v-1.56zm-5.1-4a5.48 5.48 0 013.84-1.46c.54 0 1.02.09 1.45.27a2.99 2.99 0 011.75 1.86c.15.44.23.92.23 1.44v5.83h-1c-.22 0-.38-.03-.5-.09-.1-.06-.2-.2-.26-.38l-.2-.67c-.24.2-.46.4-.69.56a4.2 4.2 0 01-1.46.64 4.16 4.16 0 01-1.98-.07 2.12 2.12 0 01-1.41-1.26 2.78 2.78 0 01-.09-1.78c.08-.23.2-.45.38-.67.18-.2.41-.4.7-.59a4.5 4.5 0 011.03-.49c.41-.13.9-.24 1.44-.33.54-.09 1.17-.14 1.87-.16v-.54c0-.62-.13-1.07-.4-1.37-.26-.3-.64-.45-1.14-.45a2.76 2.76 0 00-1.52.42l-.5.27a.95.95 0 01-.48.13.66.66 0 01-.4-.12c-.1-.08-.2-.18-.26-.28l-.4-.71zm18.4 7.94h-2.21v-7.59h-3.6v7.6h-2.23v-9.24h8.05v9.23z" fill="#5E78FF"/><path d="M401.38 309.01c.36 0 .67-.05.95-.14.28-.1.5-.23.7-.4.18-.17.33-.38.42-.62.1-.24.15-.5.15-.78 0-.6-.19-1.06-.56-1.4-.36-.33-.92-.5-1.66-.5h-1.5v3.84h1.5zm0-4.83c.59 0 1.1.07 1.53.2.44.14.8.33 1.09.59.28.25.5.55.63.9.15.36.22.76.22 1.2 0 .43-.08.83-.23 1.19-.15.36-.37.67-.67.93a3.1 3.1 0 01-1.08.6 4.7 4.7 0 01-1.5.22h-1.49v3.49h-1.25v-9.32h2.75zm9.85 5.3c0-.27-.04-.5-.12-.73a1.55 1.55 0 00-.86-.96c-.2-.09-.44-.13-.7-.13-.56 0-1 .16-1.32.48-.33.33-.53.77-.6 1.34h3.6zm.93 3.1c-.14.17-.31.32-.51.45a3.36 3.36 0 01-1.34.5c-.25.03-.49.06-.73.06-.45 0-.87-.08-1.26-.23a2.85 2.85 0 01-1.64-1.78 4.48 4.48 0 01-.03-2.8c.15-.4.35-.74.61-1.03.27-.3.59-.53.97-.69a3.15 3.15 0 012.38-.05 2.56 2.56 0 011.45 1.5c.14.36.2.77.2 1.24 0 .18-.01.3-.05.37-.04.06-.11.09-.22.09h-4.4c.01.41.07.77.17 1.08.1.3.24.57.43.77.18.2.4.36.65.47.25.1.53.15.84.15a2.52 2.52 0 001.3-.32l.37-.22c.1-.07.2-.1.27-.1.1 0 .17.03.22.1l.32.43zm8.3.92h-1.16v-5.68h-2.08c-.05.84-.13 1.56-.23 2.17-.1.6-.23 1.13-.38 1.56-.14.42-.3.77-.49 1.03-.17.27-.36.48-.56.62-.2.15-.4.25-.61.3-.2.05-.42.08-.63.08-.36 0-.55-.06-.55-.18v-.73h.34c.15 0 .3-.03.45-.08.15-.05.3-.15.44-.3.15-.15.29-.35.42-.62.14-.26.26-.61.37-1.04.11-.42.2-.94.28-1.55.09-.61.15-1.33.2-2.17h4.2v6.58zm8.48-6.59v6.58h-1.15v-4.47a3.12 3.12 0 01.04-.58 4.21 4.21 0 01-.24.45l-3.18 4.32c-.05.07-.1.14-.18.2a.34.34 0 01-.24.1h-.7v-6.6h1.17v4.48a3.05 3.05 0 01-.05.56 3.65 3.65 0 01.23-.43l3.18-4.32c.05-.07.11-.13.19-.2.07-.06.15-.09.24-.09h.7zm2.42.68c.24-.24.54-.43.9-.57.35-.14.77-.21 1.27-.21.4 0 .75.05 1.06.15.3.1.55.22.76.38.2.16.36.34.46.55a1.34 1.34 0 01.1 1.05c-.04.14-.1.28-.2.4a1.74 1.74 0 01-.94.65c.42.12.75.32 1 .6.24.28.36.62.36 1.02 0 .3-.07.58-.21.82-.14.25-.33.46-.56.63-.24.17-.5.3-.82.39a3.4 3.4 0 01-2.85-.42 2.33 2.33 0 01-.49-.46l.33-.42a.25.25 0 01.22-.11.4.4 0 01.25.1l.33.22c.13.09.29.16.47.23.2.07.43.1.7.1.24 0 .45-.03.64-.09s.35-.14.48-.24a1.06 1.06 0 00.4-.84.93.93 0 00-.4-.79c-.28-.2-.69-.3-1.24-.3h-.75v-.76h.75c.24 0 .46-.03.65-.07.19-.06.35-.13.48-.21a.82.82 0 00.32-1.09.8.8 0 00-.26-.3 1.39 1.39 0 00-.45-.21 2.23 2.23 0 00-.62-.08 2.44 2.44 0 00-1.42.42.38.38 0 01-.2.07.29.29 0 01-.14-.03.46.46 0 01-.12-.13l-.26-.45z" fill="#414141"/><circle cx="417.07" cy="286.62" r="106.83" stroke="#5E78FF" stroke-width="2" stroke-dasharray="5.5 5.5"/><path d="M314.5 372.83v76.5" stroke="#5E78FF" stroke-width="2"/><path d="M318.75 446.07l-4.25 4.25-4.25-4.25" stroke="#5E78FF" stroke-width="2" stroke-linecap="round"/></svg>