<svg width="830" height="288" fill="none" xmlns="http://www.w3.org/2000/svg"><circle cx="414.81" cy="89.86" r="88.2" fill="#fff" stroke="#5E78FF" stroke-width="2"/><path d="M70.07 66.22v1.66h-7.2v-1.66h2.63v-7.59l.03-.93-1.87 1.57a.82.82 0 01-.32.16.82.82 0 01-.54-.09.57.57 0 01-.17-.15l-.7-.96 3.97-3.38h1.83v11.37h2.34zm7.97-6.43c.41-.41.88-.73 1.4-.95a4.61 4.61 0 011.81-.33c.73 0 1.37.12 1.93.36a4.1 4.1 0 012.27 2.5c.2.57.3 1.2.3 1.88 0 .75-.12 1.43-.34 2.02a4.4 4.4 0 01-.9 1.5 3.86 3.86 0 01-2.93 1.25 6.8 6.8 0 01-.98-.07 4.7 4.7 0 01-1.85-.71c-.29-.2-.56-.45-.8-.73l.6-.75c.1-.13.24-.2.42-.2.09 0 .17.02.25.06a3.28 3.28 0 01.52.32c.1.07.22.13.35.19a3.1 3.1 0 001.08.2c.62 0 1.14-.2 1.55-.62.41-.41.67-1 .76-1.79h-3.91v-1.5h3.9a2.86 2.86 0 00-.77-1.64 2.14 2.14 0 00-1.58-.58 3.2 3.2 0 00-1.32.3c-.16.08-.29.14-.4.21a.68.68 0 01-.34.09.47.47 0 01-.27-.07 1.21 1.21 0 01-.2-.2l-.55-.74zm18.06.5h-3.3v7.6h-2.22v-7.6h-3.29v-1.64h8.8v1.65zm7.13 3.65c-.64.03-1.18.09-1.62.17a4.2 4.2 0 00-1.05.3c-.27.13-.45.28-.57.45a.96.96 0 00-.17.55c0 .39.11.67.34.84.24.16.54.25.91.25.46 0 .85-.08 1.18-.25.34-.16.66-.42.98-.75v-1.56zm-5.1-4a5.48 5.48 0 013.84-1.46c.54 0 1.02.09 1.45.27a2.99 2.99 0 011.75 1.86c.15.44.23.92.23 1.44v5.83h-1c-.22 0-.38-.03-.5-.09-.1-.06-.2-.2-.26-.38l-.2-.67c-.24.21-.46.4-.69.56a4.2 4.2 0 01-1.46.64 4.16 4.16 0 01-1.98-.07 2.12 2.12 0 01-1.41-1.26 2.78 2.78 0 01-.09-1.78c.08-.23.2-.45.38-.66.18-.21.41-.41.7-.6a4.5 4.5 0 011.03-.48c.41-.14.9-.25 1.44-.34.55-.09 1.17-.14 1.87-.16v-.54c0-.62-.13-1.07-.4-1.37-.26-.3-.64-.45-1.14-.45a2.76 2.76 0 00-1.52.42l-.5.28a.95.95 0 01-.48.12.66.66 0 01-.4-.11c-.1-.09-.2-.18-.26-.3l-.4-.7zm18.4 7.94h-2.21V60.3h-3.6v7.58h-2.23v-9.23h8.05v9.23z" fill="#5E78FF"/><path d="M73.29 94.75c0 .7-.11 1.34-.33 1.92a4.21 4.21 0 01-2.4 2.48c-.56.23-1.18.35-1.87.35-.68 0-1.3-.11-1.87-.34a4.23 4.23 0 01-2.39-2.49 5.4 5.4 0 01-.33-1.92c0-.7.11-1.34.33-1.92a4.4 4.4 0 012.39-2.5 4.83 4.83 0 011.87-.35c.69 0 1.31.12 1.87.35a4.17 4.17 0 012.4 2.5c.22.58.33 1.22.33 1.92zm-1.3 0c0-.57-.07-1.09-.23-1.54a3.22 3.22 0 00-.66-1.15 2.86 2.86 0 00-1.04-.73c-.41-.17-.87-.25-1.37-.25-.5 0-.95.08-1.36.25a2.92 2.92 0 00-1.7 1.88c-.16.45-.24.97-.24 1.54 0 .57.08 1.08.23 1.54a2.96 2.96 0 001.7 1.87c.42.17.87.25 1.37.25.5 0 .96-.08 1.37-.25a2.9 2.9 0 001.7-1.87c.16-.46.23-.97.23-1.54zm10.39 3.77v2.8c0 .1-.03.2-.1.25a.31.31 0 01-.24.1h-.7V99.4h-5.65v-6.58h1.16v5.7h3.16v-5.7h1.17v5.7h1.2zm6.46-3.13c0-.27-.04-.51-.11-.73a1.56 1.56 0 00-1.57-1.1c-.56 0-1 .17-1.32.5-.32.31-.52.76-.6 1.33h3.6zm.94 3.09c-.14.17-.32.32-.52.45a3.27 3.27 0 01-1.34.5 4.1 4.1 0 01-.72.06c-.46 0-.88-.07-1.26-.22a2.85 2.85 0 01-1.65-1.79 4.48 4.48 0 01-.02-2.79c.14-.4.34-.74.6-1.03.27-.3.6-.53.98-.7a3.14 3.14 0 012.37-.04c.34.13.63.32.88.57.24.24.44.55.57.92.14.36.21.78.21 1.25 0 .18-.02.3-.06.36-.04.06-.1.1-.22.1h-4.4c.02.4.07.77.17 1.08.1.3.25.56.43.77.18.2.4.36.65.46.25.1.53.15.85.15a2.52 2.52 0 001.29-.32c.15-.07.28-.14.38-.21.1-.07.19-.1.26-.1.1 0 .17.03.22.1l.33.43zm8-5.66v6.58h-1.15v-3.08h-3.16v3.08H92.3v-6.58h1.17v2.62h3.16v-2.62h1.16zm6.85.32c.06-.1.14-.17.24-.23.1-.06.2-.1.31-.1h.9l-1.7 2.52c-.1.16-.21.29-.33.4-.1.1-.25.17-.41.23.2.05.38.14.53.26.14.12.27.27.38.46l1.73 2.72h-.8a.92.92 0 01-.49-.1.91.91 0 01-.3-.3l-1.27-2.05a1 1 0 00-.92-.5h-.7v2.96h-1.17v-6.6h1.16v2.85h.63c.34 0 .61-.14.8-.44l1.4-2.08zm7.3 3.3c-.54.02-1 .06-1.37.13-.37.06-.68.15-.92.26-.23.1-.4.23-.5.38a.84.84 0 00-.17.5c0 .17.03.32.09.44.05.13.13.23.23.32.1.07.21.13.34.17a2.49 2.49 0 00.99 0 2.56 2.56 0 00.9-.46c.14-.11.28-.24.4-.38v-1.36zm-3.74-2.7c.36-.34.75-.6 1.17-.78.42-.17.9-.26 1.4-.26.37 0 .7.06.98.18a2.01 2.01 0 011.17 1.3c.1.3.15.64.15 1.01v4.21h-.52a.53.53 0 01-.26-.05c-.06-.04-.1-.11-.14-.22l-.13-.62c-.17.16-.34.3-.5.42a2.8 2.8 0 01-1.1.5 3 3 0 01-1.42-.03 1.57 1.57 0 01-.99-.86c-.09-.22-.14-.48-.14-.78 0-.26.08-.51.22-.75s.37-.46.7-.64a4.5 4.5 0 011.25-.46c.51-.12 1.15-.19 1.9-.2v-.52c0-.51-.12-.9-.34-1.16-.22-.26-.54-.4-.96-.4a2.06 2.06 0 00-1.23.36c-.14.08-.26.16-.36.24-.1.07-.2.1-.3.1a.35.35 0 01-.2-.06.62.62 0 01-.14-.15l-.21-.37zM68.33 119.4h-1.17v-5.7H64v5.7h-1.16v-6.58h5.49v6.58zm4-1.58c.21.28.44.48.7.6.25.12.53.18.84.18.61 0 1.09-.22 1.42-.66.33-.44.49-1.06.49-1.87 0-.43-.04-.8-.12-1.1-.07-.31-.18-.57-.32-.76-.14-.2-.32-.35-.53-.44-.2-.09-.44-.13-.7-.13-.38 0-.72.08-1 .26-.28.17-.54.41-.78.73v3.19zm-.06-3.98c.28-.34.6-.62.96-.83.37-.2.78-.3 1.25-.3.38 0 .73.07 1.03.21.31.14.57.36.79.64.22.29.38.64.5 1.06a5.43 5.43 0 01-.02 2.8c-.13.42-.32.78-.56 1.1a2.65 2.65 0 01-3.13.77 2.5 2.5 0 01-.76-.57v2.91h-1.16v-8.81h.7c.16 0 .26.08.3.24l.1.78zm9.95-1.13c.48 0 .9.08 1.3.24a2.8 2.8 0 011.6 1.76c.15.42.23.88.23 1.4 0 .52-.08.98-.22 1.4a2.78 2.78 0 01-1.61 1.75c-.4.16-.82.23-1.3.23a3.5 3.5 0 01-1.32-.23 2.78 2.78 0 01-1.62-1.75 4.3 4.3 0 01-.21-1.4c0-.52.07-.98.21-1.4a2.8 2.8 0 011.62-1.76c.4-.16.83-.24 1.32-.24zm0 5.88c.65 0 1.13-.22 1.45-.65.32-.44.48-1.05.48-1.83s-.16-1.4-.48-1.83c-.32-.44-.8-.66-1.45-.66-.33 0-.62.06-.87.17-.24.12-.45.28-.61.49-.16.21-.28.47-.36.79-.08.3-.12.65-.12 1.04 0 .78.16 1.4.48 1.83.32.43.82.65 1.48.65zm10-3.2c0-.27-.04-.51-.11-.73a1.55 1.55 0 00-1.57-1.1c-.56 0-1 .17-1.32.5-.32.31-.52.76-.6 1.33h3.6zm.94 3.09c-.14.17-.32.32-.51.45a3.74 3.74 0 01-1.35.5c-.24.04-.48.06-.72.06a3.4 3.4 0 01-1.26-.22 2.85 2.85 0 01-1.65-1.78 4.48 4.48 0 01-.02-2.8 2.76 2.76 0 011.58-1.72 3.14 3.14 0 012.38-.05 2.56 2.56 0 011.45 1.5c.13.35.2.77.2 1.24 0 .18-.02.3-.06.36-.03.06-.1.1-.22.1h-4.4c.02.4.07.77.17 1.08.1.3.25.56.43.77.18.2.4.36.65.46.25.1.53.15.85.15a2.52 2.52 0 001.29-.31l.38-.22c.1-.07.19-.1.26-.1.1 0 .17.03.22.1l.33.43zm6.52-5.34c.06-.1.14-.17.24-.23.1-.06.2-.1.32-.1h.9l-1.7 2.52c-.11.16-.22.29-.33.4-.11.1-.25.17-.42.23.21.05.39.14.53.26s.27.27.38.46l1.73 2.72h-.8a.92.92 0 01-.48-.1.92.92 0 01-.3-.3l-1.28-2.05a1 1 0 00-.91-.5h-.71v2.96h-1.17v-6.6h1.17v2.86h.62c.35 0 .62-.15.81-.45l1.4-2.08zm9.2.56h-2.52v5.7h-1.16v-5.7h-2.53v-.88h6.22v.88zm5.61 2.74a9.5 9.5 0 00-1.36.13c-.37.06-.68.15-.92.26-.23.1-.4.23-.51.38a.84.84 0 00-.16.5c0 .17.03.32.09.44.05.13.13.23.22.32.1.07.22.13.35.17a2.48 2.48 0 00.99 0 2.5 2.5 0 00.9-.46c.14-.11.27-.24.4-.38v-1.36zm-3.73-2.7c.36-.34.75-.6 1.17-.78.42-.17.89-.26 1.4-.26.37 0 .7.06.98.18a2 2 0 011.16 1.3c.1.3.15.64.15 1.01v4.21h-.5a.53.53 0 01-.27-.05c-.06-.04-.1-.11-.14-.22l-.13-.63c-.17.17-.34.3-.5.43a2.74 2.74 0 01-1.1.5 2.99 2.99 0 01-1.42-.03 1.58 1.58 0 01-.99-.86c-.1-.22-.14-.48-.14-.78 0-.26.07-.51.21-.75.15-.24.38-.46.7-.64.32-.19.74-.34 1.25-.46a9.4 9.4 0 011.9-.2v-.52c0-.51-.1-.9-.33-1.16-.22-.26-.54-.4-.97-.4a2.07 2.07 0 00-1.22.36l-.36.24c-.1.07-.2.1-.3.1a.34.34 0 01-.2-.06.6.6 0 01-.15-.15l-.2-.37z" fill="#414141"/><path d="M232.24 65.58c.24 0 .43.07.56.2.15.14.22.32.22.54v1.33h-8.93v-.74c0-.15.03-.3.1-.46.06-.17.16-.32.3-.45l3.95-3.96c.33-.34.62-.66.88-.97.27-.3.49-.6.66-.9.17-.3.3-.61.4-.92.1-.3.14-.63.14-.98 0-.3-.05-.58-.14-.82a1.6 1.6 0 00-.38-.6 1.5 1.5 0 00-.6-.36 2.23 2.23 0 00-.77-.12 2.27 2.27 0 00-1.33.43 1.92 1.92 0 00-.71 1.06c-.1.28-.24.46-.4.55-.16.09-.4.1-.7.06l-1.17-.2c.09-.63.26-1.18.52-1.64a3.9 3.9 0 012.3-1.9 5.26 5.26 0 013.26.03 3.4 3.4 0 012.1 1.92 3.98 3.98 0 01.08 2.85c-.13.41-.32.8-.56 1.17a7.6 7.6 0 01-.83 1.08c-.31.35-.65.7-1 1.07l-2.93 3a6.2 6.2 0 011.64-.27h3.34zm8.45-6.02c.42-.41.88-.73 1.4-.95a4.61 4.61 0 011.82-.34c.72 0 1.37.12 1.92.36a4.1 4.1 0 012.27 2.5c.2.58.3 1.2.3 1.89 0 .75-.11 1.43-.33 2.02a4.4 4.4 0 01-.9 1.5 3.86 3.86 0 01-2.93 1.25 6.8 6.8 0 01-.98-.08 4.7 4.7 0 01-1.85-.71c-.3-.2-.56-.44-.8-.73l.6-.74c.1-.13.23-.2.41-.2.1 0 .18.02.25.06a3.28 3.28 0 01.52.32c.1.07.22.13.36.19a3.1 3.1 0 001.08.2c.61 0 1.13-.21 1.54-.62.42-.41.67-1 .77-1.79h-3.91v-1.51h3.9a2.86 2.86 0 00-.77-1.63 2.14 2.14 0 00-1.59-.58 3.2 3.2 0 00-1.32.3l-.4.2a.68.68 0 01-.33.1.47.47 0 01-.28-.07 1.21 1.21 0 01-.19-.2l-.56-.74zm18.06.5h-3.3v7.6h-2.21v-7.6h-3.29v-1.64h8.8v1.64zm7.14 3.65c-.65.03-1.19.09-1.62.17a4.2 4.2 0 00-1.06.3c-.26.13-.45.28-.56.45a.96.96 0 00-.17.55c0 .39.1.67.34.83.23.17.53.26.9.26.46 0 .85-.09 1.18-.25.34-.17.67-.42.99-.75V63.7zm-5.1-4a5.48 5.48 0 013.84-1.46c.54 0 1.02.09 1.44.27a2.99 2.99 0 011.75 1.86c.16.44.24.92.24 1.44v5.83h-1.01c-.21 0-.38-.03-.49-.09-.11-.06-.2-.2-.27-.39l-.2-.66c-.23.2-.46.4-.68.56a4.2 4.2 0 01-1.47.64 4.16 4.16 0 01-1.98-.07c-.33-.1-.61-.26-.85-.47a2.12 2.12 0 01-.56-.79 2.78 2.78 0 01-.08-1.78c.08-.23.2-.46.38-.67.18-.2.4-.4.69-.59a4.5 4.5 0 011.03-.49c.42-.13.9-.24 1.44-.33.55-.09 1.17-.14 1.88-.16v-.54c0-.62-.14-1.07-.4-1.37-.26-.3-.64-.45-1.14-.45a2.76 2.76 0 00-1.52.42l-.5.27a.95.95 0 01-.48.13.66.66 0 01-.4-.12c-.1-.08-.2-.18-.26-.28l-.4-.72zm18.4 7.94h-2.22v-7.59h-3.6v7.6h-2.22v-9.24h8.05v9.23z" fill="#5E78FF"/><path d="M195.05 99.17h-1.27v-8.32h-4.65v8.32h-1.26v-9.31h7.18v9.31zm4.17-1.59c.2.29.44.5.7.6.24.13.53.18.84.18.61 0 1.09-.21 1.41-.65.33-.44.5-1.06.5-1.87 0-.43-.04-.8-.12-1.1a2.1 2.1 0 00-.32-.76c-.15-.2-.32-.35-.53-.44-.2-.09-.44-.14-.7-.14-.39 0-.72.1-1 .26a2.9 2.9 0 00-.78.74v3.18zm-.06-3.97c.28-.35.6-.62.96-.83.36-.2.78-.31 1.25-.31.38 0 .72.07 1.03.22.3.14.57.36.79.64.22.29.38.64.5 1.06a5.42 5.42 0 01-.02 2.8c-.13.42-.32.78-.57 1.09a2.64 2.64 0 01-3.12.78 2.5 2.5 0 01-.76-.57v2.91h-1.17v-8.81h.7c.16 0 .26.08.3.24l.1.78zm9.94-1.13c.48 0 .92.08 1.3.24a2.8 2.8 0 011.61 1.76c.15.41.23.88.23 1.4 0 .51-.08.98-.23 1.4a2.8 2.8 0 01-1.61 1.75c-.38.15-.82.23-1.3.23a3.5 3.5 0 01-1.31-.23 2.78 2.78 0 01-1.62-1.75 4.3 4.3 0 01-.21-1.4c0-.52.07-.99.21-1.4a2.78 2.78 0 011.62-1.76c.39-.16.83-.24 1.31-.24zm0 5.88c.65 0 1.14-.22 1.46-.65.32-.44.48-1.05.48-1.83s-.16-1.4-.48-1.83c-.32-.44-.8-.66-1.46-.66-.33 0-.61.06-.86.17-.24.11-.45.28-.61.49-.16.21-.28.47-.37.78-.07.31-.11.66-.11 1.05 0 .78.16 1.39.48 1.83.32.43.81.65 1.47.65zm10.81-4.89h-2.53v5.7h-1.16v-5.7h-2.52v-.88h6.21v.88zm4.61-.99c.48 0 .92.08 1.3.24a2.8 2.8 0 011.61 1.76c.15.41.22.88.22 1.4 0 .51-.07.98-.22 1.4a2.8 2.8 0 01-1.61 1.75c-.38.15-.82.23-1.3.23a3.5 3.5 0 01-1.31-.23 2.78 2.78 0 01-1.62-1.75 4.3 4.3 0 01-.21-1.4c0-.52.07-.99.21-1.4a2.78 2.78 0 011.62-1.76c.39-.16.83-.24 1.31-.24zm0 5.88c.65 0 1.14-.22 1.46-.65.32-.44.48-1.05.48-1.83s-.16-1.4-.48-1.83c-.32-.44-.8-.66-1.46-.66-.33 0-.62.06-.86.17-.25.11-.45.28-.61.49-.16.21-.29.47-.37.78-.08.31-.12.66-.12 1.05 0 .78.17 1.39.49 1.83.32.43.81.65 1.47.65zm10.8-4.89h-2.52v5.7h-1.16v-5.7h-2.52v-.88h6.2v.88zm7.76-.88v6.58h-1.16V94.7a3.53 3.53 0 01.05-.58 4.19 4.19 0 01-.24.44l-3.18 4.32c-.05.07-.1.14-.18.2a.35.35 0 01-.24.1h-.7v-6.59h1.16v4.47a3.04 3.04 0 01-.04.57 3.67 3.67 0 01.23-.43l3.18-4.32c.05-.07.11-.14.18-.2.08-.06.16-.1.25-.1h.69zm8.31 6.58h-1.16v-5.7h-3.16v5.7h-1.16v-6.58h5.49v6.58zm8.5-6.58v6.58h-1.16V94.7a3.1 3.1 0 01.04-.58 4.19 4.19 0 01-.24.44l-3.18 4.32c-.04.07-.1.14-.18.2a.35.35 0 01-.23.1h-.7v-6.59h1.16v4.47a3.04 3.04 0 01-.05.57 3.67 3.67 0 01.24-.43l3.17-4.32c.05-.07.11-.14.19-.2.07-.06.15-.1.24-.1h.7zm3.99 5c.2.28.44.48.7.6.24.12.52.17.84.17.61 0 1.08-.21 1.41-.65.33-.44.5-1.06.5-1.87 0-.43-.04-.8-.12-1.1a2.1 2.1 0 00-.32-.76c-.15-.2-.32-.35-.53-.44-.2-.09-.45-.14-.71-.14-.38 0-.7.1-1 .26-.28.18-.54.42-.77.74v3.18zm-.06-3.98c.27-.35.6-.62.96-.83.36-.2.78-.31 1.25-.31.38 0 .72.07 1.03.22.3.14.57.36.79.64.21.29.38.64.5 1.06a5.42 5.42 0 01-.02 2.8c-.13.42-.32.78-.57 1.09a2.65 2.65 0 01-2.09.98c-.4 0-.74-.07-1.03-.2a2.5 2.5 0 01-.76-.57v2.91h-1.17v-8.81h.7c.16 0 .26.08.3.24l.1.78zm9.94-1.13c.48 0 .92.08 1.3.24a2.78 2.78 0 011.61 1.76c.15.41.22.88.22 1.4 0 .51-.07.98-.22 1.4a2.78 2.78 0 01-1.61 1.75c-.38.15-.82.23-1.3.23-.48 0-.92-.08-1.31-.23a2.78 2.78 0 01-1.62-1.75 4.3 4.3 0 01-.21-1.4c0-.52.07-.99.21-1.4a2.78 2.78 0 011.62-1.76c.39-.16.83-.24 1.31-.24zm0 5.88c.65 0 1.14-.22 1.46-.65.32-.44.48-1.05.48-1.83s-.16-1.4-.48-1.83c-.32-.44-.8-.66-1.46-.66-.33 0-.62.06-.86.17-.25.11-.45.28-.61.49-.16.21-.29.47-.37.78-.07.31-.11.66-.11 1.05 0 .78.16 1.39.48 1.83.32.43.81.65 1.47.65zm8.13 0c.43 0 .78-.1 1.03-.3.25-.2.38-.48.38-.83 0-.16-.03-.3-.08-.43a.81.81 0 00-.23-.33 1.1 1.1 0 00-.44-.22c-.17-.06-.4-.08-.65-.08h-1.43v2.19h1.42zm-1.42-5v2.07h1.27c.2 0 .37-.02.53-.08a1.07 1.07 0 00.7-.58 1.06 1.06 0 00.03-.8.72.72 0 00-.23-.3c-.1-.1-.24-.17-.4-.22a2 2 0 00-.63-.08h-1.27zm1.3-.77c.41 0 .76.04 1.05.12.3.08.53.2.72.34.18.14.32.3.4.5.1.18.13.39.13.6 0 .15-.01.3-.05.45a1.47 1.47 0 01-.6.84c-.17.11-.38.2-.63.27.5.08.89.26 1.16.52.27.26.41.6.41 1.04a1.71 1.71 0 01-.72 1.43 2.3 2.3 0 01-.78.35c-.3.08-.62.12-.96.12h-2.54v-6.58h2.41zm8.61 3.62c-.53.01-.99.06-1.37.13-.37.06-.67.15-.91.26-.24.1-.4.23-.52.38a.84.84 0 00-.15.5c0 .17.03.32.08.44.06.13.14.23.23.31.1.08.22.14.35.18a2.5 2.5 0 00.99 0 2.49 2.49 0 00.9-.46c.14-.12.27-.24.4-.38v-1.36zm-3.74-2.7a3.64 3.64 0 012.57-1.05c.38 0 .7.07.99.2a2.01 2.01 0 011.16 1.28c.1.31.15.65.15 1.02v4.21H291a.53.53 0 01-.26-.05c-.06-.04-.11-.11-.14-.22l-.14-.63c-.17.16-.34.3-.5.43a2.8 2.8 0 01-1.1.5 3 3 0 01-1.41-.03 1.57 1.57 0 01-.99-.86c-.1-.23-.14-.49-.14-.78 0-.26.07-.51.21-.75.15-.24.38-.46.7-.65a4.5 4.5 0 011.25-.45 9.4 9.4 0 011.9-.2v-.52c0-.51-.11-.9-.33-1.16-.22-.26-.55-.4-.97-.4-.29 0-.53.04-.72.12-.2.06-.36.14-.5.24a8 8 0 00-.37.24c-.1.07-.2.1-.3.1a.34.34 0 01-.2-.06.6.6 0 01-.14-.15l-.2-.37zm13.12-.92v6.58h-1.16v-3.08h-3.16v3.08h-1.17v-6.58h1.17v2.62h3.16V92.6h1.16zm8.49 0v6.58h-1.16V94.7a3.53 3.53 0 01.05-.58 4.19 4.19 0 01-.25.44l-3.17 4.32c-.05.07-.11.14-.19.2a.35.35 0 01-.23.1h-.7v-6.59h1.16v4.47a3.04 3.04 0 01-.04.57 3.67 3.67 0 01.23-.43l3.18-4.32c.05-.07.1-.14.18-.2.07-.06.15-.1.24-.1h.7zm7.23 2.57c0-.27-.04-.51-.11-.73a1.55 1.55 0 00-1.57-1.1c-.56 0-1 .17-1.32.5-.32.31-.52.76-.6 1.33h3.6zm.94 3.09c-.14.17-.31.32-.51.45s-.42.23-.65.31a4.1 4.1 0 01-1.42.25c-.46 0-.88-.07-1.26-.23a2.86 2.86 0 01-1.65-1.78 4.48 4.48 0 01-.02-2.8 2.75 2.75 0 011.58-1.72 3.14 3.14 0 012.38-.05 2.55 2.55 0 011.45 1.5c.13.36.2.78.2 1.25 0 .18-.02.3-.06.36-.03.06-.1.1-.22.1h-4.4c.02.4.07.77.17 1.08.1.3.25.56.43.77.18.2.4.36.65.46.25.1.53.15.85.15a2.52 2.52 0 001.29-.32l.38-.21c.1-.07.19-.1.26-.1.1 0 .17.03.22.1l.33.43zm-88.21 14.34v6.58h-1.16v-4.47a3.54 3.54 0 01.05-.58 3.87 3.87 0 01-.25.44l-3.17 4.32c-.05.07-.11.14-.19.2a.35.35 0 01-.23.1h-.7v-6.59h1.16v4.47a3.02 3.02 0 01-.04.57 4 4 0 01.23-.43l3.18-4.32a1 1 0 01.18-.2c.07-.06.16-.1.24-.1h.7zm11.69 5.73v-4.82h-2.09c-.04.67-.1 1.27-.18 1.79-.08.52-.17.98-.27 1.37-.1.4-.21.72-.34 1-.12.27-.25.5-.38.67h3.26zm2.33-.03v2.8c0 .1-.04.2-.1.25a.31.31 0 01-.24.1h-.71v-2.27h-5.54v1.94c0 .08-.02.16-.08.22-.04.07-.12.1-.24.1h-.72v-3.1h.21c.15 0 .3-.03.45-.08.15-.06.3-.15.43-.3.14-.14.27-.35.4-.61.12-.27.23-.61.33-1.04.1-.42.19-.94.26-1.54.08-.61.13-1.34.18-2.17h4.16v5.7h1.2zm7.82-5.7v6.58h-1.16v-4.47a3.12 3.12 0 01.05-.58 3.87 3.87 0 01-.25.44l-3.17 4.32c-.05.07-.11.14-.19.2a.35.35 0 01-.23.1h-.7v-6.59h1.16v4.47a3.02 3.02 0 01-.04.57 4 4 0 01.23-.43l3.18-4.32c.05-.07.1-.14.18-.2.07-.06.15-.1.24-.1h.7zm2.41.67c.25-.23.55-.42.9-.56.35-.15.78-.22 1.28-.22.4 0 .75.05 1.05.15.3.1.56.23.76.39.2.16.37.34.47.55a1.34 1.34 0 01-.1 1.45 1.73 1.73 0 01-.94.64c.42.13.75.33.99.6.24.28.36.62.36 1.02 0 .3-.07.58-.2.83-.15.24-.33.45-.57.63-.23.16-.5.3-.81.39a3.4 3.4 0 01-1.62.07 3.35 3.35 0 01-1.23-.5 2.28 2.28 0 01-.49-.45l.33-.42a.25.25 0 01.22-.12.4.4 0 01.24.1c.1.07.2.15.34.23.13.08.28.16.47.23.19.06.42.1.7.1.23 0 .45-.03.63-.09.2-.06.35-.14.48-.25a1.06 1.06 0 00.4-.84.93.93 0 00-.4-.78c-.27-.2-.68-.3-1.23-.3h-.75v-.77h.75c.24 0 .45-.02.64-.07.2-.05.36-.12.49-.2a.82.82 0 00.05-1.4 1.4 1.4 0 00-.44-.2 2.23 2.23 0 00-.63-.08 2.44 2.44 0 00-1.41.41.38.38 0 01-.2.08.29.29 0 01-.15-.03.42.42 0 01-.11-.14l-.27-.45zm10.82 2.95a9.5 9.5 0 00-1.36.13c-.37.06-.68.15-.92.26-.23.1-.4.23-.51.38a.84.84 0 00-.16.5c0 .17.03.32.09.44.05.13.13.23.22.31.1.08.22.14.35.18a2.48 2.48 0 00.99 0 2.5 2.5 0 00.9-.46c.14-.12.27-.24.4-.38v-1.36zm-3.73-2.7c.36-.35.75-.6 1.17-.78.42-.17.89-.26 1.4-.26.37 0 .7.06.98.18a2 2 0 011.17 1.3c.1.3.15.64.15 1v4.22h-.52a.53.53 0 01-.26-.05c-.06-.04-.1-.11-.14-.22l-.13-.63c-.17.16-.34.3-.5.43a2.74 2.74 0 01-1.1.5 2.99 2.99 0 01-1.42-.03 1.58 1.58 0 01-.99-.86c-.09-.23-.14-.48-.14-.78 0-.26.07-.51.22-.75.14-.24.37-.46.7-.64.31-.2.73-.34 1.25-.46a9.4 9.4 0 011.9-.2v-.52c0-.51-.12-.9-.34-1.16-.22-.26-.54-.4-.97-.4a2.07 2.07 0 00-1.22.36c-.14.08-.26.16-.36.24-.1.07-.2.1-.3.1a.34.34 0 01-.2-.06.6.6 0 01-.14-.15l-.21-.38zm13.28-.92v6.58h-1.16v-4.47a3.54 3.54 0 01.04-.58 3.87 3.87 0 01-.24.44l-3.17 4.32c-.05.07-.11.14-.19.2a.34.34 0 01-.23.1h-.7v-6.59h1.16v4.47a3.02 3.02 0 01-.04.57 4 4 0 01.23-.43l3.18-4.32a1 1 0 01.18-.2c.07-.06.15-.1.24-.1h.7zm-2.75-1.6c.18 0 .32-.02.44-.05a.64.64 0 00.3-.2c.08-.1.13-.21.17-.36.03-.14.05-.32.05-.52h.67a.2.2 0 01.2.1c.04.08.06.16.06.25a1.27 1.27 0 01-.5 1.03c-.17.12-.37.21-.6.28-.23.06-.5.1-.8.1-.29 0-.55-.04-.79-.1a1.8 1.8 0 01-.6-.28 1.31 1.31 0 01-.37-.45 1.3 1.3 0 01-.13-.58c0-.09.03-.17.07-.24a.2.2 0 01.19-.11h.68c0 .2.01.38.05.52a.9.9 0 00.16.35c.08.1.18.16.3.2.12.04.27.06.45.06zm11.06 1.6v6.58h-1.16v-3.08h-3.16v3.08h-1.17v-6.58h1.17v2.62h3.16v-2.62h1.16z" fill="#414141"/><path d="M387.34 58.5c.09-.63.26-1.17.52-1.64a3.9 3.9 0 012.3-1.9 5.26 5.26 0 013.23.03c.5.16.9.4 1.25.7a3.15 3.15 0 011.06 2.38c0 .43-.05.8-.14 1.11a2.37 2.37 0 01-1.04 1.41c-.27.17-.56.3-.88.4a3.4 3.4 0 011.74 1.13c.39.5.58 1.14.58 1.9a3.74 3.74 0 01-2.75 3.74 5.82 5.82 0 01-3.41.04 3.71 3.71 0 01-2.2-1.74 7.29 7.29 0 01-.64-1.48l.98-.4c.26-.11.5-.14.72-.09.23.05.4.17.5.36.1.21.22.42.35.63a2.37 2.37 0 001.1.94c.24.09.53.14.87.14a2.15 2.15 0 002.12-1.32c.09-.25.14-.5.14-.75 0-.3-.04-.59-.1-.84-.07-.26-.2-.48-.42-.66a2.25 2.25 0 00-.9-.42c-.4-.1-.92-.15-1.58-.15v-1.59c.55 0 1-.06 1.36-.15.36-.1.64-.23.85-.4.22-.17.37-.38.45-.62.09-.24.13-.5.13-.8 0-.6-.17-1.07-.51-1.39-.34-.31-.8-.47-1.37-.47a2.19 2.19 0 00-1.33.43 1.92 1.92 0 00-.71 1.06c-.1.28-.24.46-.4.55-.17.09-.4.11-.7.06l-1.17-.2zm16.31 1.3c.42-.42.88-.74 1.4-.96a4.61 4.61 0 011.82-.33c.72 0 1.36.12 1.92.36a4.1 4.1 0 012.27 2.5c.2.57.3 1.2.3 1.88 0 .75-.11 1.43-.34 2.02a4.4 4.4 0 01-.89 1.5 3.86 3.86 0 01-2.93 1.25 6.8 6.8 0 01-.98-.07 4.7 4.7 0 01-1.85-.71c-.3-.2-.56-.45-.8-.73l.6-.75c.1-.13.23-.2.41-.2.09 0 .17.02.25.06a3.28 3.28 0 01.52.32c.1.07.22.13.36.19.13.05.28.1.45.14.18.04.38.06.63.06.61 0 1.13-.2 1.54-.62.42-.41.67-1 .77-1.79h-3.92v-1.5h3.9a2.86 2.86 0 00-.76-1.64 2.14 2.14 0 00-1.59-.58 3.2 3.2 0 00-1.32.3l-.4.21a.68.68 0 01-.33.09.47.47 0 01-.28-.07 1.21 1.21 0 01-.19-.2l-.56-.74zm18.06.5h-3.3v7.58h-2.22V60.3h-3.28v-1.65h8.8v1.65zm7.13 3.64c-.64.03-1.18.09-1.62.17a4.2 4.2 0 00-1.05.3c-.26.13-.45.28-.57.45a.96.96 0 00-.17.55c0 .39.12.67.34.84.24.16.54.25.91.25.46 0 .85-.08 1.18-.25.34-.16.67-.42.98-.75v-1.56zm-5.09-4a5.48 5.48 0 013.83-1.46c.54 0 1.03.09 1.45.27a2.99 2.99 0 011.75 1.86c.16.44.23.92.23 1.44v5.83h-1c-.21 0-.38-.03-.5-.09-.1-.06-.2-.2-.26-.38l-.2-.67c-.23.21-.46.4-.68.56a4.2 4.2 0 01-1.47.64 4.16 4.16 0 01-1.98-.07 2.12 2.12 0 01-1.41-1.26 2.78 2.78 0 01-.08-1.78c.07-.23.2-.45.37-.66.18-.21.41-.41.7-.6a4.5 4.5 0 011.03-.48c.42-.14.9-.25 1.44-.34.55-.09 1.17-.14 1.87-.16v-.54c0-.62-.13-1.07-.4-1.37-.26-.3-.64-.45-1.13-.45a2.76 2.76 0 00-1.53.42l-.5.28a.95.95 0 01-.48.12.66.66 0 01-.4-.11c-.1-.09-.19-.18-.25-.3l-.4-.7zm18.4 7.94h-2.22V60.3h-3.6v7.58h-2.22v-9.23h8.04v9.23z" fill="#5E78FF"/><path d="M385.16 98.17c.36 0 .67-.04.93-.12.26-.09.47-.2.64-.35.16-.15.29-.33.37-.53.07-.21.11-.44.11-.68 0-.49-.17-.86-.51-1.14-.34-.28-.86-.42-1.54-.42h-2.02v3.24h2.02zm-2.02-7.32v3.18h1.67c.35 0 .66-.04.92-.12.26-.08.48-.18.65-.32.17-.14.3-.3.38-.5.09-.2.13-.42.13-.65 0-.55-.17-.95-.5-1.2-.33-.26-.84-.39-1.53-.39h-1.72zm1.72-1c.57 0 1.06.06 1.47.17.42.12.76.28 1.03.49.26.2.46.46.59.76.12.3.19.64.19 1.02a2 2 0 01-.43 1.24c-.15.19-.33.35-.55.5a3 3 0 01-.77.35c.69.13 1.2.37 1.54.73.35.36.52.83.52 1.4 0 .4-.07.76-.22 1.09-.14.32-.35.6-.63.84-.28.23-.62.41-1.03.54-.4.13-.87.19-1.4.19h-3.28v-9.31h2.97zm10.47 5.31c0-.27-.04-.51-.12-.73a1.55 1.55 0 00-1.57-1.1c-.55 0-1 .17-1.32.5-.32.31-.52.76-.6 1.33h3.6zm.93 3.09c-.14.17-.31.32-.51.45s-.42.23-.64.31a4.1 4.1 0 01-1.42.25c-.46 0-.88-.07-1.27-.23a2.86 2.86 0 01-1.64-1.78 4.48 4.48 0 01-.03-2.8c.14-.4.35-.74.61-1.03.26-.29.59-.52.97-.68a3.15 3.15 0 012.38-.06 2.56 2.56 0 011.45 1.5c.14.36.2.78.2 1.25 0 .18-.01.3-.05.36s-.12.1-.22.1h-4.4c0 .4.06.77.17 1.08.1.3.24.56.42.77.19.2.4.36.65.46.25.1.54.15.85.15a2.52 2.52 0 001.3-.32l.37-.21c.1-.07.2-.1.27-.1.1 0 .16.03.22.1l.32.43zm3.7-.67c.2.29.44.5.69.6.25.13.53.18.84.18.62 0 1.09-.21 1.42-.65.33-.44.5-1.06.5-1.87 0-.43-.05-.8-.13-1.1a2.1 2.1 0 00-.32-.76c-.14-.2-.32-.35-.53-.44-.2-.09-.44-.14-.7-.14-.38 0-.71.1-1 .26-.28.18-.54.42-.78.74v3.18zm-.07-3.97c.28-.35.6-.62.96-.83.37-.2.78-.31 1.25-.31.38 0 .73.07 1.04.22.3.14.56.36.78.64.22.29.39.64.5 1.06a5.42 5.42 0 01-.02 2.8c-.13.42-.31.78-.56 1.09a2.65 2.65 0 01-2.09.98c-.4 0-.75-.07-1.04-.2a2.5 2.5 0 01-.76-.57v2.91h-1.16v-8.81h.7c.16 0 .26.08.3.24l.1.78zm11.75.15a.52.52 0 01-.1.1.23.23 0 01-.14.05.4.4 0 01-.22-.08 2.96 2.96 0 00-.71-.36 1.9 1.9 0 00-.61-.08c-.33 0-.62.05-.86.17-.25.11-.46.28-.63.5-.16.21-.29.47-.37.78a4.02 4.02 0 00.01 2.1c.1.3.22.57.38.78.17.2.37.37.6.48.25.11.51.16.8.16.29 0 .52-.03.7-.1.19-.06.33-.14.45-.22l.3-.22c.08-.07.16-.1.24-.1.1 0 .17.03.22.1l.33.43c-.15.18-.3.33-.49.45a3.08 3.08 0 01-1.25.5 4.2 4.2 0 01-.7.06c-.41 0-.8-.07-1.15-.23a2.64 2.64 0 01-.92-.65 3.12 3.12 0 01-.6-1.07c-.16-.42-.23-.9-.23-1.44 0-.48.07-.94.2-1.35.14-.42.34-.78.6-1.08.26-.3.59-.54.97-.7.39-.17.83-.26 1.33-.26a2.88 2.88 0 012.16.86l-.3.42zm8.1-.29h-2.53v5.7h-1.15v-5.7h-2.53v-.88h6.21v.88zm6.1-.56c.06-.1.14-.17.24-.23.1-.06.2-.1.32-.1h.9l-1.7 2.51c-.1.17-.22.3-.33.4-.11.1-.25.18-.41.24.2.05.38.14.52.26s.27.27.38.46l1.73 2.72h-.8a.92.92 0 01-.48-.1.91.91 0 01-.3-.3l-1.28-2.05a1 1 0 00-.91-.5H423v2.96h-1.16v-6.6H423v2.85h.62c.35 0 .62-.14.82-.44l1.4-2.08zm7.3 3.3c-.53.01-.99.06-1.36.13-.38.06-.68.15-.92.26-.23.1-.4.23-.51.38a.84.84 0 00-.16.5c0 .17.03.32.09.44.05.13.13.23.22.31.1.08.22.14.35.18a2.49 2.49 0 00.99 0 2.57 2.57 0 00.9-.46c.14-.12.27-.24.4-.38v-1.36zm-3.74-2.7a3.63 3.63 0 012.57-1.05c.38 0 .7.07 1 .2a2.01 2.01 0 011.15 1.28c.1.31.15.65.15 1.02v4.21h-.51a.53.53 0 01-.26-.05c-.06-.04-.1-.11-.14-.22l-.13-.63-.51.43a2.8 2.8 0 01-1.1.5 3 3 0 01-1.4-.03 1.57 1.57 0 01-.99-.86c-.1-.23-.15-.49-.15-.78 0-.26.07-.51.22-.75.14-.24.37-.46.69-.65a4.5 4.5 0 011.25-.45c.52-.12 1.15-.2 1.9-.2v-.52c0-.51-.1-.9-.33-1.16-.22-.26-.54-.4-.97-.4a2.06 2.06 0 00-1.22.36c-.14.08-.26.16-.36.24-.1.07-.2.1-.3.1a.35.35 0 01-.2-.06.62.62 0 01-.15-.15l-.2-.37zm17.61-.92v6.58h-1.16V94.7a3.1 3.1 0 01.05-.58 4.19 4.19 0 01-.24.44l-3.18 4.32c-.05.07-.1.14-.18.2a.34.34 0 01-.24.1h-.7v-6.59h1.17v4.47a3.47 3.47 0 01-.05.57 3.67 3.67 0 01.23-.43l3.18-4.32c.05-.07.11-.14.19-.2.07-.06.15-.1.24-.1h.7zm-91.36 26.58h-1.16v-5.7h-3.16v5.7h-1.16v-6.58h5.48v6.58zm4-1.59c.22.29.45.5.7.6.25.13.53.18.84.18.62 0 1.1-.21 1.42-.65.33-.44.5-1.06.5-1.87 0-.43-.04-.8-.12-1.1-.07-.32-.18-.57-.33-.76-.14-.2-.31-.35-.52-.44-.21-.09-.45-.14-.71-.14-.38 0-.7.1-1 .27-.28.17-.54.41-.78.73v3.18zm-.05-3.97c.27-.35.6-.62.96-.83.36-.2.78-.31 1.25-.31.38 0 .72.07 1.03.22.3.14.57.36.79.64.21.28.38.64.5 1.06a5.43 5.43 0 01-.02 2.8c-.13.42-.32.78-.57 1.09a2.64 2.64 0 01-2.09.98c-.4 0-.75-.07-1.03-.2a2.5 2.5 0 01-.77-.57v2.91h-1.16v-8.81h.7c.16 0 .26.08.3.24l.1.78zm9.94-1.13c.48 0 .91.08 1.3.24a2.79 2.79 0 011.61 1.76c.15.41.22.88.22 1.4 0 .52-.07.98-.22 1.4a2.77 2.77 0 01-1.61 1.75c-.38.15-.82.23-1.3.23-.48 0-.92-.08-1.31-.23a2.77 2.77 0 01-1.62-1.75 4.3 4.3 0 01-.22-1.4c0-.52.08-.99.22-1.4a2.79 2.79 0 011.62-1.76c.39-.16.83-.24 1.31-.24zm0 5.88c.65 0 1.14-.22 1.46-.65.32-.44.48-1.05.48-1.83s-.16-1.4-.48-1.83c-.32-.44-.8-.66-1.46-.66-.33 0-.62.06-.86.17-.25.11-.45.28-.61.49-.17.21-.29.47-.37.78-.08.31-.12.66-.12 1.05 0 .78.17 1.39.49 1.83.32.43.81.65 1.47.65zm9.87-4.89h-3.1v5.7h-1.17v-6.58h4.27v.88zm3.26 4.11c.22.29.45.5.7.6.25.13.53.18.85.18.61 0 1.08-.21 1.41-.65.33-.44.5-1.06.5-1.87 0-.43-.04-.8-.12-1.1-.07-.32-.18-.57-.32-.76-.15-.2-.32-.35-.53-.44-.21-.09-.45-.14-.71-.14-.38 0-.7.1-1 .27-.28.17-.54.41-.77.73v3.18zm-.05-3.97c.27-.35.6-.62.96-.83.36-.2.78-.31 1.25-.31.38 0 .72.07 1.03.22.3.14.57.36.79.64.21.28.38.64.5 1.06a5.43 5.43 0 01-.02 2.8c-.13.42-.32.78-.57 1.09a2.64 2.64 0 01-2.09.98c-.4 0-.74-.07-1.03-.2a2.5 2.5 0 01-.76-.57v2.91h-1.17v-8.81h.7c.16 0 .26.08.3.24l.1.78zm10.74 2.6a9.5 9.5 0 00-1.37.13c-.37.06-.68.15-.92.26-.23.1-.4.23-.51.38a.84.84 0 00-.16.5c0 .17.03.32.09.44.05.13.13.23.23.31.1.08.21.14.34.18a2.48 2.48 0 00.99 0 2.58 2.58 0 00.9-.46c.14-.12.28-.24.4-.38v-1.36zm-3.74-2.7a3.64 3.64 0 012.57-1.05c.37 0 .7.07.98.2a2 2 0 011.17 1.28c.1.31.15.65.15 1.02v4.21h-.52a.53.53 0 01-.26-.05c-.06-.04-.1-.11-.14-.22l-.13-.63c-.17.16-.34.3-.5.43a2.74 2.74 0 01-1.1.5 2.98 2.98 0 01-1.42-.03 1.57 1.57 0 01-.99-.86c-.09-.23-.14-.48-.14-.78 0-.26.07-.51.22-.75.14-.24.37-.46.7-.64.31-.2.73-.34 1.25-.46.51-.12 1.15-.2 1.9-.2v-.52c0-.51-.12-.9-.34-1.16-.22-.26-.54-.4-.96-.4a2.07 2.07 0 00-1.23.36c-.14.08-.26.16-.36.24-.1.07-.2.1-.3.1a.35.35 0 01-.2-.06.6.6 0 01-.15-.15l-.2-.38zm14.97-.94v6.6h-1.05v-4.37a4.6 4.6 0 01.08-.83l-2.28 4.01a.43.43 0 01-.14.16.33.33 0 01-.2.05h-.13a.37.37 0 01-.2-.05.44.44 0 01-.13-.16l-2.33-4.02a7.39 7.39 0 01.08.84v4.37h-1.04v-6.6h.93c.08 0 .16.02.24.06.08.03.14.1.2.2l2.05 3.43c.1.2.2.4.27.63a4 4 0 01.26-.63l2.01-3.43c.06-.1.13-.18.2-.21a.6.6 0 01.25-.05h.93zm10.16 0v6.6h-1.04v-4.37a4.6 4.6 0 01.08-.83l-2.29 4.01a.43.43 0 01-.13.16.33.33 0 01-.2.05h-.13a.37.37 0 01-.2-.05.44.44 0 01-.14-.16l-2.32-4.02a7.39 7.39 0 01.08.84v4.37h-1.05v-6.6h.93c.09 0 .17.02.24.06.08.03.15.1.2.2l2.06 3.43c.1.2.19.4.27.63a4 4 0 01.26-.63l2.01-3.43c.06-.1.12-.18.2-.21a.6.6 0 01.24-.05h.93zm8.48.02v6.58h-1.16v-4.47a3.54 3.54 0 01.05-.58 3.87 3.87 0 01-.24.44l-3.18 4.32c-.05.07-.11.14-.18.2a.34.34 0 01-.24.1h-.7v-6.59h1.16v4.47a3.02 3.02 0 01-.04.57 4 4 0 01.23-.43l3.18-4.32a1 1 0 01.18-.2c.08-.06.16-.1.24-.1h.7zm4 5c.2.28.44.48.69.6.25.12.53.17.84.17.62 0 1.09-.21 1.42-.65.33-.44.5-1.06.5-1.87 0-.43-.05-.8-.12-1.1-.08-.32-.19-.57-.33-.76-.14-.2-.32-.35-.53-.44-.2-.09-.44-.14-.7-.14-.38 0-.71.1-1 .27-.28.17-.54.41-.78.73v3.18zm-.07-3.98c.28-.35.6-.62.96-.83.37-.2.78-.31 1.25-.31.38 0 .73.07 1.04.22.3.14.57.36.78.64.22.28.39.64.5 1.06a5.43 5.43 0 01-.02 2.8c-.13.42-.31.78-.56 1.09a2.64 2.64 0 01-2.09.98c-.4 0-.75-.07-1.04-.2a2.5 2.5 0 01-.76-.57v2.91h-1.16v-8.81h.7c.16 0 .26.08.3.24l.1.78zm9.95-1.13c.48 0 .91.08 1.3.24a2.79 2.79 0 011.6 1.76c.16.41.23.88.23 1.4 0 .52-.07.98-.22 1.4-.14.41-.35.77-.63 1.06-.27.3-.6.53-.98.69-.39.15-.82.23-1.3.23-.49 0-.93-.08-1.32-.23a2.78 2.78 0 01-1.61-1.75 4.3 4.3 0 01-.22-1.4c0-.52.07-.99.22-1.4a2.8 2.8 0 011.62-1.76c.38-.16.82-.24 1.3-.24zm0 5.88c.65 0 1.13-.22 1.45-.65.32-.44.48-1.05.48-1.83s-.16-1.4-.48-1.83c-.32-.44-.8-.66-1.45-.66-.33 0-.62.06-.87.17-.24.11-.44.28-.6.49-.17.21-.29.47-.37.78-.08.31-.12.66-.12 1.05 0 .78.16 1.39.48 1.83.33.43.82.65 1.48.65zm8.13 0c.43 0 .77-.1 1.02-.3.25-.2.38-.48.38-.83 0-.16-.02-.3-.07-.43a.83.83 0 00-.24-.33c-.1-.1-.25-.17-.43-.22-.18-.06-.4-.08-.66-.08h-1.42v2.19h1.42zm-1.42-5v2.07h1.27c.19 0 .36-.02.52-.08.17-.05.3-.13.43-.22.11-.1.2-.22.27-.35a1.06 1.06 0 00.03-.81.72.72 0 00-.22-.3 1.1 1.1 0 00-.4-.22 2 2 0 00-.63-.08h-1.27zm1.3-.77c.4 0 .76.04 1.05.12.29.08.52.2.71.34.19.14.32.3.41.5.09.18.13.39.13.6 0 .14-.02.3-.06.45-.04.16-.1.3-.2.45-.1.14-.23.27-.4.39-.17.11-.38.2-.63.27.5.08.9.26 1.17.52.27.26.4.6.4 1.04 0 .32-.06.6-.19.83-.12.24-.3.44-.52.6-.23.16-.49.27-.79.35-.3.08-.62.12-.96.12h-2.53v-6.58h2.4zm8.6 3.62a9.5 9.5 0 00-1.36.13c-.37.06-.68.15-.92.26-.23.1-.4.23-.5.38a.84.84 0 00-.17.5c0 .17.03.32.09.44.06.13.13.23.23.31.1.08.21.14.34.18a2.48 2.48 0 00.99 0 2.58 2.58 0 00.9-.46c.14-.12.28-.24.4-.38v-1.36zm-3.73-2.7a3.64 3.64 0 012.57-1.05c.37 0 .7.07.98.2a2 2 0 011.17 1.28c.1.31.15.65.15 1.02v4.21h-.52a.53.53 0 01-.26-.05c-.06-.04-.1-.11-.14-.22l-.13-.63c-.17.16-.34.3-.5.43a2.74 2.74 0 01-1.1.5 2.98 2.98 0 01-1.42-.03 1.57 1.57 0 01-.99-.86c-.09-.23-.14-.48-.14-.78 0-.26.07-.51.22-.75.14-.24.37-.46.7-.64.31-.2.73-.34 1.25-.46.51-.12 1.15-.2 1.9-.2v-.52c0-.51-.12-.9-.34-1.16-.22-.26-.54-.4-.96-.4a2.07 2.07 0 00-1.23.36c-.13.08-.26.16-.36.24-.1.07-.2.1-.3.1a.35.35 0 01-.2-.06.6.6 0 01-.14-.15l-.21-.38zm13.12-.92v6.58h-1.17v-3.08h-3.16v3.08h-1.16v-6.58h1.16v2.62h3.16v-2.62h1.17zm8.48 0v6.58h-1.15v-4.47a3.12 3.12 0 01.04-.58 3.87 3.87 0 01-.24.44l-3.18 4.32c-.05.07-.1.14-.18.2a.34.34 0 01-.23.1h-.7v-6.59h1.16v4.47a3.44 3.44 0 01-.05.57 4 4 0 01.24-.43l3.18-4.32c.04-.07.1-.14.18-.2.07-.06.15-.1.24-.1h.7zm7.24 2.57c0-.27-.04-.51-.12-.73a1.55 1.55 0 00-.86-.96c-.2-.1-.44-.14-.7-.14-.56 0-1 .17-1.32.5-.32.31-.52.76-.6 1.33h3.6zm.94 3.09c-.15.17-.32.32-.52.45s-.41.23-.64.31a4.04 4.04 0 01-1.42.25c-.46 0-.88-.07-1.27-.23a2.85 2.85 0 01-1.64-1.78 4.48 4.48 0 01-.03-2.8c.15-.4.35-.73.61-1.03.27-.29.6-.52.97-.69a3.15 3.15 0 012.38-.05c.34.13.63.32.87.57.25.25.44.56.58.93.14.36.2.78.2 1.25 0 .18-.01.3-.05.36s-.11.1-.22.1h-4.4c.01.4.07.77.17 1.08.1.3.25.56.43.77.18.2.4.36.65.46.25.1.53.15.84.15a2.52 2.52 0 001.3-.32l.37-.21c.1-.07.2-.1.27-.1.1 0 .17.03.22.1l.32.43z" fill="#414141"/><path d="M555.63 62.75v-4.26c0-.4.03-.85.08-1.33l-4.04 5.59h3.96zm3.58 0v1.28c0 .12-.04.23-.12.32-.08.08-.19.12-.33.12h-1.2v3.18h-1.93v-3.18h-5.49a.62.62 0 01-.4-.13.62.62 0 01-.2-.35l-.24-1.13 6.16-8.23h2.1v8.12h1.65zm7.3-3.19c.41-.41.88-.73 1.4-.95a4.61 4.61 0 011.81-.34c.73 0 1.37.12 1.93.36a4.1 4.1 0 012.27 2.5c.2.58.3 1.2.3 1.89 0 .75-.12 1.43-.34 2.02a4.4 4.4 0 01-.89 1.5 3.86 3.86 0 01-2.93 1.25 6.8 6.8 0 01-.98-.08 4.7 4.7 0 01-1.85-.71c-.3-.2-.56-.44-.8-.73l.6-.74c.09-.13.23-.2.4-.2.1 0 .18.02.26.06a3.28 3.28 0 01.52.32c.1.07.22.13.35.19a3.1 3.1 0 001.08.2c.62 0 1.14-.21 1.55-.62.41-.41.67-1 .77-1.79h-3.92v-1.51h3.9a2.86 2.86 0 00-.77-1.63 2.14 2.14 0 00-1.58-.58 3.2 3.2 0 00-1.32.3l-.4.2a.68.68 0 01-.33.1.47.47 0 01-.28-.07 1.21 1.21 0 01-.2-.2l-.55-.74zm18.06.5h-3.3v7.6h-2.22v-7.6h-3.28v-1.64h8.8v1.64zm7.13 3.65c-.64.03-1.18.09-1.62.17a4.2 4.2 0 00-1.05.3c-.26.13-.45.28-.57.45a.96.96 0 00-.17.55c0 .39.12.67.34.83.24.17.54.26.91.26.46 0 .85-.09 1.18-.25.34-.17.66-.42.98-.75V63.7zm-5.1-4a5.48 5.48 0 013.84-1.46c.54 0 1.03.09 1.45.27a2.99 2.99 0 011.75 1.86c.15.44.23.92.23 1.44v5.83h-1c-.22 0-.38-.03-.5-.09-.1-.06-.2-.2-.26-.39l-.2-.66c-.23.2-.46.4-.68.56a4.2 4.2 0 01-1.47.64 4.16 4.16 0 01-1.98-.07 2.12 2.12 0 01-1.41-1.26 2.78 2.78 0 01-.09-1.78c.08-.23.2-.46.38-.67.18-.2.41-.4.7-.59a4.5 4.5 0 011.03-.49c.41-.13.9-.24 1.44-.33.55-.09 1.17-.14 1.87-.16v-.54c0-.62-.13-1.07-.4-1.37-.26-.3-.64-.45-1.14-.45a2.76 2.76 0 00-1.52.42l-.5.27a.95.95 0 01-.48.13.66.66 0 01-.4-.12c-.1-.08-.19-.18-.25-.28l-.4-.72zm18.41 7.94h-2.22v-7.59h-3.6v7.6h-2.22v-9.24H605v9.23z" fill="#5E78FF"/><path d="M542.67 90.92h-3.02v8.25h-1.25v-8.25h-3.02v-1.06h7.29v1.06zm4.93 4.24c0-.27-.04-.51-.12-.73a1.55 1.55 0 00-1.57-1.1c-.55 0-.99.17-1.31.5-.33.31-.52.76-.6 1.33h3.6zm.93 3.09c-.14.17-.31.32-.5.45a3.78 3.78 0 01-1.35.5 4.1 4.1 0 01-.73.06c-.45 0-.87-.07-1.26-.23a2.86 2.86 0 01-1.64-1.78 4.48 4.48 0 01-.03-2.8c.14-.4.35-.74.61-1.03.27-.29.6-.52.97-.68a3.14 3.14 0 012.38-.06 2.55 2.55 0 011.45 1.5c.14.36.2.78.2 1.25 0 .18-.01.3-.05.36s-.11.1-.22.1h-4.4c.01.4.07.77.17 1.08.1.3.24.56.43.77.18.2.4.36.65.46.25.1.53.15.84.15a2.52 2.52 0 001.3-.32l.37-.21c.1-.07.2-.1.27-.1.1 0 .17.03.22.1l.32.43zm7.11-4.5a.52.52 0 01-.1.12.23.23 0 01-.14.04.4.4 0 01-.22-.08 2.99 2.99 0 00-.71-.36 1.91 1.91 0 00-.62-.08c-.32 0-.6.05-.85.17-.25.11-.46.28-.63.5-.16.21-.29.47-.37.78-.09.3-.13.65-.13 1.03 0 .4.05.76.14 1.07.09.3.22.57.38.78.17.2.37.37.6.48.25.11.51.16.8.16.29 0 .52-.03.7-.1.18-.06.33-.14.45-.22l.3-.22c.08-.07.16-.1.24-.1.1 0 .17.03.22.1l.33.43a3.1 3.1 0 01-1.74.96 4.2 4.2 0 01-.7.05c-.41 0-.8-.07-1.15-.23a2.64 2.64 0 01-.92-.65 3.12 3.12 0 01-.61-1.07c-.15-.42-.22-.9-.22-1.44 0-.48.07-.94.2-1.35.14-.42.34-.78.6-1.08.26-.3.59-.54.97-.7.38-.17.82-.26 1.32-.26a2.89 2.89 0 012.16.86l-.3.42zm8.1-.28h-2.53v5.7h-1.16v-5.7h-2.52v-.88h6.21v.88zm7.75-.88v6.58h-1.15V94.7a3.53 3.53 0 01.04-.58 4.19 4.19 0 01-.24.44l-3.18 4.32c-.05.07-.1.14-.18.2a.35.35 0 01-.23.1h-.7v-6.59H567v4.47a3.04 3.04 0 01-.05.57 3.67 3.67 0 01.24-.43l3.17-4.32c.05-.07.11-.14.19-.2.07-.06.15-.1.24-.1h.7zm4 5c.2.28.44.48.69.6.25.12.53.17.85.17.61 0 1.08-.21 1.41-.65.33-.44.5-1.06.5-1.87 0-.43-.04-.8-.12-1.1-.07-.32-.18-.57-.33-.76-.14-.2-.31-.35-.52-.44-.21-.09-.45-.14-.71-.14-.38 0-.7.1-1 .26-.28.18-.54.42-.77.74v3.18zm-.06-3.98c.27-.35.6-.62.96-.83.36-.2.78-.31 1.25-.31.38 0 .72.07 1.03.22.3.14.57.36.79.64.21.29.38.64.5 1.06a5.42 5.42 0 01-.02 2.8c-.13.42-.32.78-.57 1.09a2.65 2.65 0 01-2.09.98c-.4 0-.74-.07-1.03-.2a2.5 2.5 0 01-.76-.57v2.91h-1.17v-8.81h.7c.16 0 .26.08.3.24l.1.78zm9.94-1.13c.48 0 .92.08 1.3.24a2.78 2.78 0 011.61 1.76c.15.41.22.88.22 1.4 0 .51-.07.98-.22 1.4a2.78 2.78 0 01-1.61 1.75c-.38.15-.82.23-1.3.23-.48 0-.92-.08-1.31-.23a2.8 2.8 0 01-1.62-1.75 4.3 4.3 0 01-.22-1.4c0-.52.08-.99.22-1.4a2.8 2.8 0 011.62-1.76c.39-.16.83-.24 1.31-.24zm0 5.88c.65 0 1.14-.22 1.46-.65.32-.44.48-1.05.48-1.83s-.16-1.4-.48-1.83c-.32-.44-.8-.66-1.46-.66-.33 0-.62.06-.86.17-.25.11-.45.28-.61.49-.16.21-.29.47-.37.78-.08.31-.12.66-.12 1.05 0 .78.17 1.39.49 1.83.32.43.81.65 1.47.65zm8.13 0c.43 0 .78-.1 1.03-.3.25-.2.37-.48.37-.83 0-.16-.02-.3-.07-.43a.83.83 0 00-.23-.33c-.11-.1-.25-.17-.44-.22-.17-.06-.4-.08-.65-.08h-1.43v2.19h1.42zm-1.42-5v2.07h1.27c.2 0 .37-.02.53-.08a1.07 1.07 0 00.7-.58 1.06 1.06 0 00.03-.8.72.72 0 00-.23-.3 1.1 1.1 0 00-.4-.22 2 2 0 00-.63-.08h-1.27zm1.3-.77c.41 0 .76.04 1.05.12.29.08.53.2.72.34.18.14.32.3.4.5.1.18.13.39.13.6 0 .15-.01.3-.05.45a1.5 1.5 0 01-.6.84c-.17.11-.38.2-.63.27.5.08.89.26 1.16.52.27.26.41.6.41 1.04a1.72 1.72 0 01-.72 1.43 2.3 2.3 0 01-.78.35c-.3.08-.62.12-.96.12h-2.54v-6.58h2.41zm8.6 3.62c-.52.01-.98.06-1.36.13-.37.06-.67.15-.91.26-.24.1-.4.23-.52.38a.84.84 0 00-.15.5c0 .17.03.32.08.44.06.13.13.23.23.31.1.08.22.14.35.18a2.49 2.49 0 00.99 0 2.49 2.49 0 00.9-.46c.14-.12.27-.24.4-.38v-1.36zm-3.73-2.7a3.64 3.64 0 012.57-1.05c.37 0 .7.07.99.2a2.01 2.01 0 011.16 1.28c.1.31.15.65.15 1.02v4.21h-.51a.53.53 0 01-.26-.05c-.06-.04-.11-.11-.15-.22l-.13-.63c-.17.16-.34.3-.5.43a2.8 2.8 0 01-1.1.5 3 3 0 01-1.41-.03 1.59 1.59 0 01-.99-.86c-.1-.23-.14-.49-.14-.78 0-.26.07-.51.21-.75.14-.24.38-.46.7-.65a4.5 4.5 0 011.25-.45 9.4 9.4 0 011.9-.2v-.52c0-.51-.11-.9-.33-1.16-.22-.26-.55-.4-.97-.4-.29 0-.53.04-.72.12-.2.06-.36.14-.5.24a8 8 0 00-.37.24c-.1.07-.2.1-.3.1a.34.34 0 01-.2-.06.62.62 0 01-.14-.15l-.2-.37zm13.12-.92v6.58h-1.16v-3.08h-3.16v3.08h-1.17v-6.58h1.17v2.62h3.16V92.6h1.16zm7.25 2.57c0-.27-.04-.51-.12-.73a1.55 1.55 0 00-1.57-1.1c-.55 0-1 .17-1.32.5-.32.31-.52.76-.6 1.33h3.6zm.93 3.09c-.14.17-.31.32-.51.45s-.42.23-.65.31a4.1 4.1 0 01-1.42.25c-.46 0-.88-.07-1.26-.23a2.86 2.86 0 01-1.64-1.78 4.48 4.48 0 01-.03-2.8c.14-.4.35-.74.61-1.03.26-.29.59-.52.97-.68a3.15 3.15 0 012.38-.06 2.56 2.56 0 011.45 1.5c.14.36.2.78.2 1.25 0 .18-.01.3-.05.36s-.12.1-.23.1h-4.4c.02.4.07.77.17 1.08.1.3.25.56.43.77.18.2.4.36.65.46.25.1.54.15.85.15a2.52 2.52 0 001.3-.32l.37-.21c.1-.07.2-.1.26-.1.1 0 .17.03.23.1l.32.43z" fill="#414141"/><path d="M716.01 59.36a7.31 7.31 0 011.6-.17c.68 0 1.28.1 1.8.3a3.54 3.54 0 012.12 2.12 4.72 4.72 0 01-.1 3.45 4.27 4.27 0 01-2.55 2.4 5.41 5.41 0 01-3.08.2 6.14 6.14 0 01-1.93-.81 6.1 6.1 0 01-.73-.58l.69-.95c.14-.2.33-.3.56-.3.15 0 .3.04.46.14l.53.31a3.02 3.02 0 001.7.46c.41 0 .77-.06 1.08-.2.32-.13.57-.31.78-.54.2-.24.36-.53.46-.85.11-.33.17-.69.17-1.07 0-.71-.21-1.26-.62-1.66-.41-.4-1.02-.6-1.82-.6a5.7 5.7 0 00-1.9.34l-1.39-.4 1.08-6.31h6.43v.94c0 .32-.1.58-.3.78-.2.2-.53.3-1 .3h-3.58l-.46 2.7zm13.63.2c.42-.41.88-.73 1.4-.95a4.61 4.61 0 011.82-.34c.72 0 1.37.12 1.92.36a4.1 4.1 0 012.27 2.5c.2.58.3 1.2.3 1.89 0 .75-.11 1.43-.34 2.02a4.4 4.4 0 01-.89 1.5 3.86 3.86 0 01-2.93 1.25 6.8 6.8 0 01-.98-.08 4.7 4.7 0 01-1.85-.71c-.3-.2-.56-.44-.8-.73l.6-.74c.1-.13.23-.2.41-.2.1 0 .17.02.25.06a3.28 3.28 0 01.52.32c.1.07.22.13.36.19.13.05.28.1.45.14.18.04.39.05.63.05.61 0 1.13-.2 1.54-.6.42-.42.67-1.02.77-1.8h-3.92v-1.51h3.9a2.86 2.86 0 00-.76-1.63 2.14 2.14 0 00-1.59-.58 3.2 3.2 0 00-1.32.3l-.4.2a.68.68 0 01-.33.1.47.47 0 01-.28-.07 1.21 1.21 0 01-.19-.2l-.56-.74zm18.06.5h-3.3v7.6h-2.22v-7.6h-3.28v-1.64h8.8v1.64zm7.14 3.65c-.65.03-1.19.09-1.62.17a4.2 4.2 0 00-1.06.3c-.26.13-.45.28-.56.45a.96.96 0 00-.18.55c0 .39.12.67.35.83.23.17.53.26.9.26.46 0 .86-.09 1.19-.25.33-.17.66-.42.98-.75V63.7zm-5.1-4a5.48 5.48 0 013.84-1.46c.54 0 1.02.09 1.44.27a2.99 2.99 0 011.75 1.86c.16.44.24.92.24 1.44v5.83H756c-.21 0-.38-.03-.49-.09-.11-.06-.2-.2-.27-.39l-.2-.66c-.23.2-.46.4-.68.56a4.2 4.2 0 01-1.47.64 4.16 4.16 0 01-1.98-.07c-.33-.1-.61-.26-.85-.47a2.12 2.12 0 01-.56-.79 2.78 2.78 0 01-.08-1.78c.08-.23.2-.46.38-.67.18-.2.4-.4.69-.59a4.5 4.5 0 011.03-.49c.42-.13.9-.24 1.44-.33.55-.09 1.17-.14 1.88-.16v-.54c0-.62-.14-1.07-.4-1.37-.26-.3-.65-.45-1.14-.45a2.76 2.76 0 00-1.52.42l-.5.27a.95.95 0 01-.49.13.66.66 0 01-.4-.12c-.1-.08-.19-.18-.25-.28l-.4-.72zm18.4 7.94h-2.22v-7.59h-3.6v7.6h-2.22v-9.24h8.04v9.23z" fill="#5E78FF"/><path d="M725.12 94.69c.35 0 .67-.05.94-.15.28-.1.51-.23.7-.4.19-.17.33-.37.43-.61.1-.24.14-.5.14-.79 0-.6-.18-1.06-.55-1.39-.37-.33-.92-.5-1.66-.5h-1.5v3.84h1.5zm0-4.83c.58 0 1.1.07 1.53.2.44.14.8.33 1.08.58.29.25.5.56.64.91.14.36.22.75.22 1.2 0 .43-.08.82-.23 1.18-.15.36-.38.67-.67.93-.3.26-.65.46-1.09.61a4.7 4.7 0 01-1.49.22h-1.49v3.48h-1.25v-9.31h2.75zm9.84 5.3c0-.27-.04-.51-.11-.73a1.57 1.57 0 00-1.57-1.1c-.55 0-1 .17-1.32.5-.32.31-.52.76-.6 1.33h3.6zm.94 3.09c-.14.17-.31.32-.51.45a3.28 3.28 0 01-1.35.5 4.1 4.1 0 01-.72.06c-.46 0-.88-.07-1.26-.23a2.85 2.85 0 01-1.65-1.78 4.48 4.48 0 01-.02-2.8c.14-.4.35-.74.6-1.03a3.14 3.14 0 013.35-.74 2.56 2.56 0 011.45 1.5c.14.36.21.78.21 1.25 0 .18-.01.3-.05.36s-.12.1-.23.1h-4.4c.02.4.07.77.17 1.08.1.3.25.56.43.77.18.2.4.36.65.46.25.1.53.15.85.15a2.53 2.53 0 001.3-.32l.37-.21c.1-.07.19-.1.26-.1.1 0 .17.03.23.1l.32.43zm8.3.92h-1.16V93.5h-2.08c-.05.83-.13 1.56-.23 2.17-.1.6-.23 1.12-.38 1.55-.14.43-.3.77-.49 1.04-.18.26-.36.47-.56.62-.2.15-.4.24-.62.3-.2.05-.41.07-.62.07-.37 0-.55-.05-.55-.17v-.74h.34a1.14 1.14 0 00.89-.38c.14-.14.28-.35.42-.61.13-.27.25-.61.36-1.04.12-.43.21-.95.29-1.55a27 27 0 00.19-2.17h4.2v6.58zm8.48-6.58v6.58h-1.16V94.7a3.53 3.53 0 01.05-.58 4.19 4.19 0 01-.24.44l-3.18 4.32c-.05.07-.11.14-.18.2a.35.35 0 01-.24.1h-.7v-6.59h1.16v4.47a3.04 3.04 0 01-.04.57 3.67 3.67 0 01.23-.43l3.18-4.32c.05-.07.1-.14.18-.2.08-.06.16-.1.24-.1h.7zm2.41.67c.25-.23.55-.42.9-.56.35-.15.78-.22 1.28-.22.4 0 .75.05 1.05.15.3.1.56.22.76.38.21.17.37.35.47.56a1.33 1.33 0 01.1 1.04c-.04.15-.1.28-.2.41a1.75 1.75 0 01-.94.64c.42.13.75.33.99.6.24.28.36.62.36 1.03 0 .3-.07.57-.2.82a2 2 0 01-.56.62c-.24.17-.51.3-.82.4a3.39 3.39 0 01-1.62.07 3.33 3.33 0 01-1.23-.5 2.3 2.3 0 01-.49-.45l.33-.43a.25.25 0 01.22-.1.4.4 0 01.25.1l.33.22c.13.08.28.16.47.23.2.06.42.1.7.1.24 0 .45-.03.63-.09.2-.06.35-.14.48-.25a1.06 1.06 0 00.4-.84.93.93 0 00-.4-.78c-.27-.2-.68-.3-1.23-.3h-.75v-.77h.75c.24 0 .45-.02.64-.07.2-.05.36-.12.49-.2.13-.1.24-.2.3-.32a.83.83 0 00-.25-1.08 1.4 1.4 0 00-.44-.2 2.22 2.22 0 00-.62-.08 2.44 2.44 0 00-1.42.41.38.38 0 01-.2.08.29.29 0 01-.14-.03.42.42 0 01-.12-.14l-.27-.45z" fill="#414141"/><circle cx="89.2" cy="89.86" r="88.2" stroke="#5E78FF" stroke-width="2" stroke-dasharray="5.5 5.5"/><circle cx="251.85" cy="89.86" r="88.2" stroke="#5E78FF" stroke-width="2" stroke-dasharray="5.5 5.5"/><circle cx="577.67" cy="89.86" r="88.2" stroke="#5E78FF" stroke-width="2" stroke-dasharray="5.5 5.5"/><circle cx="740.8" cy="89.86" r="88.2" stroke="#5E78FF" stroke-width="2" stroke-dasharray="5.5 5.5"/><path d="M414.81 209.05v76.5" stroke="#5E78FF" stroke-width="2"/><path d="M419.06 282.3l-4.25 4.24-4.25-4.25" stroke="#5E78FF" stroke-width="2" stroke-linecap="round"/></svg>