<svg width="1176" height="247" fill="none" xmlns="http://www.w3.org/2000/svg"><circle cx="587.74" cy="123.64" r="122.24" fill="#fff" stroke="#5E78FF" stroke-width="2" stroke-dasharray="5.5 5.5"/><path d="M102.62 109.13c0 .95-.16 1.84-.47 2.66a6.18 6.18 0 01-3.41 3.5 7.1 7.1 0 01-2.7.5c-.99 0-1.89-.17-2.7-.5a6.22 6.22 0 01-3.42-3.5 7.25 7.25 0 01-.48-2.66c0-.95.16-1.84.48-2.65a6.11 6.11 0 013.43-3.5c.8-.33 1.7-.5 2.69-.5a7.17 7.17 0 013.46.88 6 6 0 012.9 3.95c.15.58.22 1.18.22 1.82zm-2.47 0c0-.71-.1-1.35-.29-1.92a4.11 4.11 0 00-.82-1.45 3.5 3.5 0 00-1.3-.9 4.41 4.41 0 00-1.7-.32c-.64 0-1.21.1-1.72.31a3.6 3.6 0 00-2.12 2.36c-.19.57-.29 1.2-.29 1.92 0 .71.1 1.36.3 1.93a3.65 3.65 0 002.12 2.34c.5.2 1.07.31 1.7.31.64 0 1.21-.1 1.72-.31.5-.21.94-.51 1.3-.9.35-.4.62-.88.81-1.44.2-.57.29-1.22.29-1.93zm14.84 4.86v4.08c0 .2-.06.36-.18.48a.62.62 0 01-.46.18h-1.39v-3.1h-7.72v-9.23h2.22V114h3.6v-7.59h2.23V114h1.7zm8.19-4.03c0-.29-.05-.56-.13-.81-.08-.26-.2-.48-.36-.68-.16-.19-.37-.34-.62-.45a2.04 2.04 0 00-.86-.17c-.65 0-1.15.19-1.53.55-.36.37-.6.89-.7 1.56h4.2zm-4.24 1.34c.03.47.12.88.25 1.23.13.34.3.63.52.86.22.22.47.39.77.5.3.1.63.16.99.16s.67-.04.92-.12c.27-.09.5-.18.69-.28l.51-.28c.15-.09.3-.13.43-.13.19 0 .33.07.42.21l.64.81a3.8 3.8 0 01-1.8 1.2 7.19 7.19 0 01-2.02.32 5 5 0 01-1.78-.32 4.09 4.09 0 01-2.4-2.5 6.03 6.03 0 01-.05-3.91 4.16 4.16 0 012.27-2.43 4.63 4.63 0 011.86-.36c.58 0 1.12.1 1.61.28a3.48 3.48 0 012.1 2.13c.2.52.3 1.1.3 1.77 0 .34-.03.57-.1.69-.08.11-.21.17-.42.17h-5.71zm16.95-4.9v9.24h-2.22v-4.09h-3.6v4.09h-2.23v-9.24h2.22v3.5h3.6v-3.5h2.23zm8.72.59a1.24 1.24 0 011.03-.59h1.75l-2.15 3.43c-.15.24-.3.44-.46.59-.16.14-.35.25-.57.34.3.09.55.22.74.4.2.18.37.4.52.67l2.16 3.8h-1.54c-.39 0-.7-.06-.9-.2-.22-.12-.4-.31-.56-.56l-1.35-2.55a1.2 1.2 0 00-1.13-.66h-.84v3.98h-2.22v-9.24h2.22v3.81h.72c.25 0 .46-.04.6-.13.16-.1.3-.25.4-.44l1.58-2.65zm10.13 4.7c-.64.03-1.18.1-1.62.18a4.2 4.2 0 00-1.05.3c-.26.13-.45.27-.57.44a.96.96 0 00-.17.55c0 .4.11.67.34.84.24.17.54.25.91.25.46 0 .85-.08 1.18-.24.34-.17.66-.42.98-.76v-1.56zm-5.1-4a5.48 5.48 0 013.84-1.46c.54 0 1.03.1 1.45.27a2.99 2.99 0 011.75 1.86c.15.44.23.92.23 1.45v5.83h-1c-.22 0-.38-.03-.5-.1-.1-.06-.2-.19-.26-.38l-.2-.67c-.23.21-.46.4-.69.56a4.2 4.2 0 01-1.46.64 4.16 4.16 0 01-1.98-.06c-.33-.11-.62-.27-.86-.48a2.12 2.12 0 01-.56-.78 2.78 2.78 0 01-.08-1.78c.08-.24.2-.46.38-.67.18-.21.41-.4.7-.6a4.5 4.5 0 011.03-.48c.41-.14.9-.25 1.44-.33.55-.1 1.17-.15 1.87-.17v-.53c0-.62-.13-1.08-.4-1.37-.26-.3-.64-.45-1.14-.45a2.76 2.76 0 00-1.52.41l-.5.28a.95.95 0 01-.48.13.66.66 0 01-.4-.12c-.1-.08-.19-.18-.26-.29l-.4-.71zm-53.91 37.95H93.5v-7.59h-3.6v7.59h-2.23v-9.24h8.05v9.24zm5.42-2.4c.25.3.53.52.82.65a2.48 2.48 0 001.88 0c.27-.13.5-.32.69-.57.19-.26.34-.59.44-.98.1-.4.15-.86.15-1.4 0-.53-.04-.99-.13-1.36a2.6 2.6 0 00-.37-.92c-.16-.23-.36-.4-.6-.51a1.8 1.8 0 00-.78-.16c-.46 0-.86.1-1.18.3-.32.19-.63.46-.92.81v4.14zm-.11-5.58c.37-.42.8-.77 1.28-1.03a3.46 3.46 0 013.07-.08c.42.2.78.51 1.08.91.3.4.54.9.7 1.48a7.25 7.25 0 01-.02 3.93c-.19.58-.46 1.1-.8 1.53a3.65 3.65 0 01-2.89 1.38c-.52 0-.96-.09-1.33-.24a3.3 3.3 0 01-.98-.67v3.78h-2.22V136.4h1.36c.29 0 .48.14.57.4l.18.86zm13.19-1.4a5 5 0 011.86.33 4.04 4.04 0 012.37 2.44c.22.59.32 1.25.32 1.97 0 .73-.1 1.4-.32 1.98a3.98 3.98 0 01-2.37 2.46 5 5 0 01-1.86.33 5.1 5.1 0 01-1.88-.33 4.07 4.07 0 01-2.38-2.46 5.71 5.71 0 01-.32-1.98c0-.72.1-1.38.32-1.97a4.13 4.13 0 012.38-2.44 5.1 5.1 0 011.88-.33zm0 7.8c.77 0 1.33-.26 1.7-.77.37-.52.56-1.27.56-2.27s-.19-1.76-.56-2.28c-.37-.52-.93-.78-1.7-.78-.78 0-1.36.26-1.74.8a3.88 3.88 0 00-.56 2.26c0 .99.19 1.75.56 2.27.38.51.96.77 1.74.77zm13.2-4.1c0-.29-.04-.56-.13-.81-.08-.26-.2-.49-.36-.68-.16-.19-.37-.34-.62-.45a2.04 2.04 0 00-.86-.17c-.64 0-1.15.19-1.52.55-.37.37-.6.89-.7 1.56h4.19zm-4.24 1.34c.03.47.12.88.25 1.23.13.34.3.63.52.86.22.22.47.39.77.5.3.1.63.16.99.16s.67-.04.92-.12c.27-.09.5-.18.69-.28l.51-.28c.15-.09.3-.13.43-.13.19 0 .33.07.42.21l.64.81a3.8 3.8 0 01-1.8 1.2 7.19 7.19 0 01-2.02.31 5 5 0 01-1.78-.31 4.09 4.09 0 01-2.4-2.5 6.03 6.03 0 01-.05-3.91 4.16 4.16 0 012.27-2.43 4.63 4.63 0 011.86-.36c.58 0 1.12.1 1.61.28a3.48 3.48 0 012.1 2.13c.2.52.3 1.1.3 1.77 0 .34-.03.57-.1.69-.07.11-.21.17-.42.17h-5.71zm14.42-4.31a1.24 1.24 0 011.04-.59h1.74l-2.15 3.43c-.15.24-.3.44-.46.59-.15.14-.34.26-.56.34.3.09.54.22.73.4.2.18.37.4.53.67l2.16 3.8h-1.54c-.4 0-.7-.06-.91-.2-.22-.12-.4-.31-.55-.56l-1.36-2.55a1.2 1.2 0 00-1.13-.66h-.83v3.98h-2.23v-9.24h2.23v3.81h.72c.25 0 .45-.05.6-.14.16-.1.29-.23.4-.43l1.57-2.65zm13.18 1.06h-3.3v7.59h-2.22v-7.59H142v-1.65h8.8v1.65zm7.13 3.64c-.64.03-1.18.1-1.62.18a4.2 4.2 0 00-1.05.3c-.26.13-.45.28-.57.44a.96.96 0 00-.17.55c0 .4.12.67.34.84.24.17.54.25.91.25.46 0 .85-.08 1.18-.24.34-.17.66-.42.98-.76v-1.56zm-5.1-4a5.48 5.48 0 013.84-1.46c.54 0 1.03.1 1.45.27a2.99 2.99 0 011.75 1.87c.15.43.23.91.23 1.44v5.83h-1c-.22 0-.38-.03-.5-.1-.1-.06-.2-.19-.26-.38l-.2-.67c-.23.21-.46.4-.69.56a4.2 4.2 0 01-1.46.64 4.16 4.16 0 01-1.98-.06c-.33-.11-.62-.27-.86-.48a2.12 2.12 0 01-.55-.78 2.78 2.78 0 01-.09-1.78c.08-.24.2-.46.38-.67.18-.21.41-.4.7-.6a4.5 4.5 0 011.03-.48c.41-.14.9-.25 1.44-.33.55-.1 1.17-.15 1.87-.16v-.54c0-.62-.13-1.08-.4-1.37-.26-.3-.64-.45-1.14-.45a2.76 2.76 0 00-1.52.41l-.5.28a.95.95 0 01-.48.13.66.66 0 01-.4-.12c-.1-.09-.19-.18-.26-.29l-.4-.71zM278.97 119.64h-2.44v-11.15h-5.65v11.15h-2.43v-13.02h10.52v13.02zm5.62-2.4c.26.3.53.53.82.65a2.48 2.48 0 001.88 0c.27-.13.5-.32.69-.58.19-.25.34-.58.44-.97.1-.4.15-.86.15-1.4 0-.53-.04-.99-.13-1.36a2.6 2.6 0 00-.37-.92c-.17-.23-.36-.4-.6-.51a1.8 1.8 0 00-.78-.16c-.46 0-.86.1-1.18.3-.32.19-.63.46-.92.81v4.14zm-.11-5.58c.37-.42.8-.77 1.28-1.03a3.46 3.46 0 013.07-.08c.42.2.78.51 1.08.92.3.4.54.88.7 1.47a7.25 7.25 0 01-.02 3.92c-.19.6-.46 1.1-.8 1.53-.35.44-.76.78-1.25 1.02-.5.24-1.04.36-1.64.36-.52 0-.96-.08-1.33-.23a3.3 3.3 0 01-.98-.67v3.78h-2.22V110.4h1.36c.29 0 .48.14.57.4l.18.86zm13.19-1.4a5 5 0 011.86.33 4.04 4.04 0 012.37 2.44c.22.59.32 1.25.32 1.97 0 .73-.1 1.4-.32 1.98a3.98 3.98 0 01-2.37 2.46 5 5 0 01-1.86.33 5.1 5.1 0 01-1.88-.33 4.07 4.07 0 01-2.38-2.46 5.71 5.71 0 01-.32-1.98c0-.72.1-1.38.32-1.97a4.13 4.13 0 012.38-2.44 5.1 5.1 0 011.88-.33zm0 7.8c.77 0 1.33-.26 1.7-.77.37-.52.56-1.27.56-2.27s-.19-1.75-.56-2.28c-.37-.52-.93-.78-1.7-.78-.78 0-1.36.26-1.74.8a3.88 3.88 0 00-.56 2.26c0 .99.19 1.75.56 2.27.38.51.96.77 1.74.77zm14.9-6.01h-3.29v7.59h-2.22v-7.59h-3.29v-1.65h8.8v1.65zm6.14-1.8a5 5 0 011.86.34 4.04 4.04 0 012.37 2.44c.21.59.32 1.25.32 1.97 0 .73-.1 1.4-.32 1.98a3.98 3.98 0 01-2.37 2.46 5 5 0 01-1.86.33 5.1 5.1 0 01-1.88-.33 4.07 4.07 0 01-2.38-2.46 5.71 5.71 0 01-.32-1.98c0-.72.1-1.38.32-1.97a4.13 4.13 0 012.38-2.44 5.1 5.1 0 011.88-.33zm0 7.81c.76 0 1.33-.26 1.7-.77.37-.52.55-1.27.55-2.27s-.18-1.75-.55-2.28c-.37-.52-.94-.78-1.7-.78-.78 0-1.36.26-1.74.8a3.88 3.88 0 00-.56 2.26c0 .99.19 1.75.56 2.27.38.51.96.77 1.74.77zm14.9-6.01h-3.3v7.59h-2.21v-7.59h-3.29v-1.65h8.8v1.65zm10.6-1.65v9.24H342v-5.4a6.12 6.12 0 01.08-.95 4.36 4.36 0 01-.58.98 229.12 229.12 0 01-1 1.4 201.81 201.81 0 00-2.43 3.43c-.08.12-.2.25-.33.37a.66.66 0 01-.46.18h-1.36v-9.24h2.22v5.4c0 .13 0 .28-.02.45l-.06.5a4.69 4.69 0 01.57-.98 56.08 56.08 0 001-1.39l.66-.94 1.78-2.5c.08-.13.2-.25.33-.37a.7.7 0 01.47-.18h1.35zm11.25 9.24h-2.22v-7.59h-3.6v7.59h-2.22v-9.24h8.04v9.24zm11.5-9.24v9.24h-2.22v-5.4a6.12 6.12 0 01.08-.95 4.36 4.36 0 01-.58.98 229.12 229.12 0 01-1 1.4 201.81 201.81 0 00-2.43 3.43c-.08.12-.2.25-.33.37a.66.66 0 01-.46.18h-1.36v-9.24h2.23v5.4l-.03.45-.06.5a4.69 4.69 0 01.57-.98 56.08 56.08 0 001-1.39l.66-.94 1.78-2.5c.08-.13.2-.25.33-.37a.7.7 0 01.47-.18h1.35zm5.42 6.84c.25.3.52.53.82.65a2.48 2.48 0 001.88 0c.27-.13.5-.32.68-.58.2-.25.34-.58.44-.97.1-.4.16-.86.16-1.4 0-.53-.05-.99-.14-1.36a2.6 2.6 0 00-.37-.92c-.16-.23-.36-.4-.59-.51a1.8 1.8 0 00-.78-.16c-.47 0-.86.1-1.18.3-.33.19-.63.46-.92.81v4.14zm-.12-5.58c.38-.42.81-.77 1.29-1.03a3.46 3.46 0 013.07-.08c.42.2.78.51 1.08.92.3.4.54.88.7 1.47a7.25 7.25 0 01-.03 3.92c-.18.6-.45 1.1-.8 1.53-.34.44-.76.78-1.25 1.02-.48.24-1.03.36-1.64.36-.51 0-.95-.08-1.32-.23a3.3 3.3 0 01-.98-.67v3.78h-2.22V110.4h1.36c.28 0 .47.14.56.4l.18.86zm13.2-1.4a5 5 0 011.86.33 4.04 4.04 0 012.37 2.44c.21.59.32 1.25.32 1.97 0 .73-.1 1.4-.32 1.98a3.98 3.98 0 01-2.37 2.46 5 5 0 01-1.86.33 5.1 5.1 0 01-1.88-.33 4.07 4.07 0 01-2.38-2.46 5.71 5.71 0 01-.32-1.98c0-.72.1-1.38.32-1.97a4.13 4.13 0 012.38-2.44 5.1 5.1 0 011.88-.33zm0 7.8c.76 0 1.33-.26 1.7-.77.37-.52.55-1.27.55-2.27s-.18-1.75-.55-2.28c-.37-.52-.94-.78-1.7-.78-.78 0-1.36.26-1.74.8a3.88 3.88 0 00-.56 2.26c0 .99.19 1.75.56 2.27.38.51.96.77 1.74.77zm11.02.06c.46 0 .83-.12 1.1-.35.28-.22.42-.54.42-.93 0-.17-.03-.33-.07-.47a.83.83 0 00-.24-.39c-.11-.1-.27-.19-.47-.25-.19-.06-.43-.09-.73-.09h-1.67v2.48h1.66zm-1.66-6.27v2.42h1.46a1.5 1.5 0 001.06-.36c.13-.12.24-.26.3-.41a1.3 1.3 0 00.04-.94.85.85 0 00-.24-.36c-.11-.1-.27-.19-.46-.25s-.42-.1-.7-.1h-1.46zm1.52-1.45c.58 0 1.09.06 1.5.17.43.12.78.27 1.06.47a1.86 1.86 0 01.8 1.6c0 .2-.02.4-.07.62a2.01 2.01 0 01-.8 1.15c-.22.16-.5.29-.84.38.3.06.58.15.84.27.25.12.46.27.64.45a1.96 1.96 0 01.57 1.41 2.38 2.38 0 01-1.08 2.06c-.32.22-.7.39-1.13.5-.43.1-.88.16-1.34.16h-3.78v-9.24h3.63zm11.3 5.3c-.65.02-1.19.08-1.62.17a4.2 4.2 0 00-1.06.3c-.26.13-.45.27-.56.44a.96.96 0 00-.17.55c0 .4.1.67.34.84.23.17.53.25.9.25.46 0 .85-.08 1.18-.24.34-.17.67-.42.99-.76v-1.56zm-5.1-4.01a5.48 5.48 0 013.84-1.46c.54 0 1.02.1 1.44.27a2.99 2.99 0 011.75 1.86c.16.44.24.92.24 1.45v5.83h-1.01c-.21 0-.38-.03-.49-.1-.11-.06-.2-.19-.27-.38l-.2-.67c-.23.21-.46.4-.68.56a4.2 4.2 0 01-1.47.64 4.16 4.16 0 01-1.98-.06c-.33-.11-.61-.27-.85-.48a2.12 2.12 0 01-.56-.78 2.78 2.78 0 01-.08-1.78c.08-.24.2-.46.38-.67.18-.21.4-.4.69-.6a4.5 4.5 0 011.03-.48c.42-.14.9-.25 1.44-.33.55-.1 1.17-.15 1.88-.17v-.53c0-.62-.14-1.08-.4-1.37-.26-.3-.64-.45-1.14-.45a2.76 2.76 0 00-1.52.41l-.5.28a.95.95 0 01-.48.13.66.66 0 01-.4-.12c-.1-.08-.2-.18-.26-.29l-.4-.71zm18.4-1.29v9.24h-2.22v-4.09h-3.6v4.09h-2.22v-9.24h2.22v3.5h3.6v-3.5h2.22zm11.5 0v9.24h-2.22v-5.4a6.12 6.12 0 01.08-.95 4.36 4.36 0 01-.57.98 229.12 229.12 0 01-1 1.4 201.81 201.81 0 00-2.43 3.43c-.09.12-.2.25-.34.37a.66.66 0 01-.45.18h-1.36v-9.24h2.22v5.4c0 .13 0 .28-.03.45 0 .16-.03.33-.05.5a4.69 4.69 0 01.57-.98 56.08 56.08 0 001-1.39l.65-.94 1.78-2.5c.09-.13.2-.25.34-.37a.7.7 0 01.47-.18h1.34zm9.15 3.56c0-.29-.04-.56-.13-.81-.07-.26-.2-.48-.36-.68-.16-.19-.37-.34-.62-.45a2.04 2.04 0 00-.86-.17c-.64 0-1.15.19-1.52.55-.37.37-.6.89-.7 1.56h4.19zm-4.24 1.34c.04.47.12.88.25 1.23.13.34.3.63.52.86.22.22.48.39.77.5.3.1.63.16.99.16s.67-.04.93-.12c.26-.09.49-.18.68-.28l.51-.28c.15-.09.3-.13.44-.13.18 0 .32.07.41.21l.64.81a3.8 3.8 0 01-1.8 1.2 7.19 7.19 0 01-2.02.32 5 5 0 01-1.78-.32 4.09 4.09 0 01-2.4-2.5 6.03 6.03 0 01-.05-3.91 4.16 4.16 0 012.27-2.43 4.63 4.63 0 011.86-.36c.59 0 1.12.1 1.62.28a3.48 3.48 0 012.1 2.13c.2.52.3 1.1.3 1.77 0 .34-.04.57-.11.69-.07.11-.21.17-.41.17h-5.72zM324.1 140.4v9.24h-2.23v-5.4a6.12 6.12 0 01.08-.95 4.36 4.36 0 01-.57.98 229.12 229.12 0 01-1 1.4 201.81 201.81 0 00-2.43 3.43c-.09.12-.2.25-.33.37a.66.66 0 01-.46.18h-1.36v-9.24h2.22v5.4c0 .13 0 .28-.03.45 0 .16-.03.33-.05.5a4.69 4.69 0 01.57-.97 56.08 56.08 0 001-1.4l.65-.94 1.78-2.5c.09-.13.2-.25.34-.37a.7.7 0 01.47-.18h1.35zm14.72 7.65v-5.95h-2.26c-.06.78-.14 1.48-.23 2.1-.09.62-.2 1.17-.31 1.66-.12.48-.25.9-.4 1.27-.14.36-.29.66-.45.92h3.65zm3.86-.06v4.08c0 .2-.06.36-.18.48a.6.6 0 01-.45.18h-1.39v-3.1h-6.91v2.47a.7.7 0 01-.15.44c-.1.13-.25.2-.46.2h-1.4v-4.69h.25c.21 0 .42-.02.62-.08s.38-.18.56-.36c.19-.18.36-.44.52-.77.17-.34.32-.8.45-1.36.14-.57.25-1.27.35-2.1.1-.83.18-1.82.24-2.98h6.25V148h1.7zm10.7-7.59v9.24h-2.23v-5.4a6.12 6.12 0 01.08-.95 4.36 4.36 0 01-.57.98 229.12 229.12 0 01-1 1.4 201.81 201.81 0 00-2.43 3.43c-.09.12-.2.25-.34.37a.66.66 0 01-.45.18h-1.36v-9.24h2.22v5.4c0 .13 0 .28-.03.45 0 .16-.03.33-.05.5a4.69 4.69 0 01.57-.97 56.08 56.08 0 001-1.4l.65-.94 1.78-2.5c.09-.13.2-.25.34-.37a.7.7 0 01.46-.18h1.36zm2.65 1c.35-.33.78-.6 1.3-.82a4.79 4.79 0 011.85-.32c.57 0 1.08.07 1.52.2.45.14.82.32 1.12.55.3.23.54.5.7.8a1.9 1.9 0 01.15 1.47 2.1 2.1 0 01-.71 1.05c-.19.16-.43.28-.7.4.5.19.9.47 1.2.84.32.37.47.83.47 1.38 0 .45-.1.84-.31 1.2-.2.34-.48.64-.82.88-.34.24-.74.43-1.18.55a4.9 4.9 0 01-4.02-.6c-.3-.19-.56-.43-.8-.72l.64-.81c.09-.14.22-.2.4-.2.14 0 .27.04.4.13l.43.29a2.5 2.5 0 001.45.41c.56 0 .98-.13 1.27-.38.29-.25.43-.56.43-.94a1 1 0 00-.45-.88c-.3-.2-.77-.31-1.44-.31h-1.05v-1.45h1.05c.58 0 1.03-.1 1.34-.3.31-.21.47-.48.47-.82a.9.9 0 00-.42-.75c-.27-.2-.67-.3-1.2-.3a2.87 2.87 0 00-1.39.32l-.4.2a.58.58 0 01-.57.04.79.79 0 01-.22-.25l-.5-.86zm14.52 4.3c-.64.03-1.18.08-1.62.17a4.2 4.2 0 00-1.05.3c-.26.13-.45.28-.57.44a.96.96 0 00-.17.55c0 .4.12.67.34.84.24.17.54.25.91.25.46 0 .85-.08 1.18-.24.34-.17.66-.42.98-.76v-1.56zm-5.1-4.01a5.48 5.48 0 013.84-1.46c.54 0 1.02.1 1.45.27a2.99 2.99 0 011.75 1.87c.15.43.23.91.23 1.44v5.83h-1c-.22 0-.38-.03-.5-.1-.1-.06-.2-.19-.26-.38l-.2-.67c-.24.21-.46.4-.69.56a4.2 4.2 0 01-1.46.64 4.16 4.16 0 01-1.98-.06c-.33-.11-.62-.27-.86-.48a2.12 2.12 0 01-.56-.78 2.78 2.78 0 01-.08-1.78c.08-.24.2-.46.38-.67.18-.21.41-.4.7-.6a4.5 4.5 0 011.03-.48c.41-.14.9-.25 1.44-.33.55-.1 1.17-.15 1.87-.16v-.54c0-.62-.13-1.08-.4-1.37-.26-.3-.64-.45-1.14-.45a2.76 2.76 0 00-1.52.41l-.5.28a.95.95 0 01-.48.13.66.66 0 01-.4-.12c-.1-.09-.19-.18-.26-.29l-.4-.71zm18.66-1.29v9.24h-2.22v-5.4a6.12 6.12 0 01.08-.95 4.36 4.36 0 01-.58.98 229.12 229.12 0 01-1 1.4 201.81 201.81 0 00-2.42 3.43c-.09.12-.2.25-.34.37a.66.66 0 01-.46.18h-1.36v-9.24h2.23v5.4l-.03.45-.05.5a4.69 4.69 0 01.56-.97 56.08 56.08 0 001-1.4l.66-.94 1.78-2.5c.09-.13.2-.25.34-.37a.7.7 0 01.46-.18h1.35zm-4.02-2.34c.22 0 .4-.02.56-.07a.76.76 0 00.36-.23c.09-.12.15-.27.19-.45.03-.19.05-.42.05-.69h1.31c.16 0 .27.07.35.2.07.13.11.27.11.42a1.71 1.71 0 01-.8 1.47c-.26.17-.56.3-.92.4-.36.09-.77.13-1.21.13-.44 0-.85-.04-1.2-.13a3.2 3.2 0 01-.93-.4 1.71 1.71 0 01-.8-1.47c0-.15.03-.3.1-.42.08-.13.2-.2.36-.2h1.3c0 .27.03.5.06.69.04.18.1.33.2.45.08.1.2.18.34.23.15.05.34.07.57.07zm15.27 2.34v9.24h-2.23v-4.09h-3.6v4.09h-2.22v-9.24h2.22v3.5h3.6v-3.5h2.23zM556.88 113.75c.45 0 .83-.06 1.13-.17.3-.1.55-.25.73-.43.19-.18.32-.39.4-.63a2.3 2.3 0 00-.01-1.52 1.39 1.39 0 00-.43-.57c-.19-.17-.44-.29-.74-.37-.3-.09-.67-.13-1.1-.13h-2.43v3.82h2.45zm-2.45-9.25v3.76h1.93c.82 0 1.45-.15 1.87-.45.42-.3.64-.78.64-1.43 0-.68-.2-1.16-.58-1.45-.38-.3-.98-.44-1.8-.44h-2.06zm2.06-1.88c.85 0 1.58.08 2.19.25.6.16 1.1.39 1.48.69.4.3.68.66.86 1.09a3.67 3.67 0 01.13 2.32c-.09.28-.23.54-.42.78-.19.24-.43.46-.72.66s-.63.37-1.04.5c1.8.4 2.69 1.37 2.69 2.9 0 .55-.1 1.06-.32 1.53-.2.47-.51.88-.92 1.22-.4.33-.9.6-1.48.79-.59.2-1.26.29-2.02.29h-4.91v-13.02h4.48zm13.82 7.34c0-.29-.04-.56-.12-.81-.08-.26-.2-.48-.36-.68-.17-.19-.37-.34-.62-.45a2.04 2.04 0 00-.87-.17c-.64 0-1.15.19-1.52.55-.37.37-.6.89-.7 1.56h4.2zm-4.24 1.34c.04.47.12.88.26 1.23.13.34.3.63.52.86.21.22.47.39.76.5.3.1.63.16 1 .16.35 0 .66-.04.92-.12.26-.09.5-.18.68-.28l.52-.28c.15-.09.3-.13.43-.13.19 0 .32.07.41.21l.64.81a3.8 3.8 0 01-1.79 1.2 7.19 7.19 0 01-2.02.32 5 5 0 01-1.79-.32 4.09 4.09 0 01-2.4-2.5 6.03 6.03 0 01-.04-3.91 4.16 4.16 0 012.27-2.43 4.63 4.63 0 011.86-.36c.58 0 1.12.1 1.6.28a3.48 3.48 0 012.1 2.13c.2.52.31 1.1.31 1.77 0 .34-.03.57-.1.69-.08.11-.22.17-.42.17h-5.72zm11.13 1.94c.25.3.53.53.82.65a2.48 2.48 0 001.88 0c.27-.13.5-.32.69-.58.19-.25.33-.58.44-.97.1-.4.15-.86.15-1.4 0-.53-.04-.99-.13-1.36a2.6 2.6 0 00-.37-.92c-.17-.23-.36-.4-.6-.51a1.8 1.8 0 00-.78-.16c-.46 0-.86.1-1.18.3-.32.19-.63.46-.92.81v4.14zm-.12-5.58c.38-.42.81-.77 1.3-1.03a3.46 3.46 0 013.06-.08c.42.2.78.51 1.08.92.3.4.54.88.7 1.47a7.25 7.25 0 01-.02 3.92c-.19.6-.46 1.1-.8 1.53a3.65 3.65 0 01-2.89 1.38c-.52 0-.96-.08-1.33-.23a3.3 3.3 0 01-.98-.67v3.78h-2.22V106.4h1.36c.29 0 .48.14.56.4l.19.86zm15.73.7c-.07.08-.13.15-.2.2-.06.04-.15.07-.27.07a.63.63 0 01-.33-.1c-.11-.08-.24-.15-.4-.24a2.52 2.52 0 00-1.3-.34c-.39 0-.73.07-1.02.22-.3.14-.54.34-.74.6-.2.26-.34.59-.43.96-.1.38-.15.8-.15 1.27 0 .5.05.93.16 1.32.1.38.26.7.46.97.2.26.43.45.72.6.28.12.6.19.95.19a2.4 2.4 0 001.41-.41c.15-.11.28-.2.39-.3a.6.6 0 01.38-.13c.18 0 .31.07.4.21l.64.81a4.14 4.14 0 01-2.65 1.44c-.33.05-.65.07-.98.07a3.86 3.86 0 01-2.93-1.25c-.38-.4-.68-.9-.9-1.5a5.9 5.9 0 01-.32-2.02c0-.68.1-1.3.28-1.88.2-.58.5-1.08.87-1.5.38-.43.85-.76 1.4-1 .56-.24 1.2-.36 1.93-.36.69 0 1.3.11 1.8.33.53.22 1 .54 1.41.96l-.58.8zm10.99-.31h-3.3v7.59h-2.22v-7.59h-3.29v-1.65h8.8v1.65zm7.82-1.06a1.24 1.24 0 011.04-.59h1.74l-2.15 3.43c-.15.24-.3.44-.46.59-.15.14-.34.25-.56.34.3.09.54.22.73.4.2.18.37.4.52.67l2.16 3.8h-1.53c-.4 0-.7-.06-.91-.2-.22-.12-.4-.31-.55-.56l-1.36-2.55a1.2 1.2 0 00-1.13-.66h-.83v3.98h-2.23v-9.24h2.23v3.81h.72c.25 0 .45-.04.6-.13.16-.1.29-.25.4-.44l1.57-2.65zm10.14 4.7c-.65.03-1.19.1-1.62.18a4.2 4.2 0 00-1.06.3c-.26.13-.45.27-.56.44a.96.96 0 00-.17.55c0 .4.1.67.34.84.23.17.53.25.9.25.46 0 .86-.08 1.18-.24.34-.17.67-.42.99-.76v-1.56zm-5.1-4a5.48 5.48 0 013.84-1.46c.54 0 1.02.1 1.45.27a2.99 2.99 0 011.74 1.86c.16.44.23.92.23 1.45v5.83h-1c-.21 0-.38-.03-.49-.1-.11-.06-.2-.19-.27-.38l-.2-.67c-.23.21-.46.4-.68.56a4.2 4.2 0 01-1.47.64 4.16 4.16 0 01-1.98-.06c-.33-.11-.61-.27-.85-.48a2.12 2.12 0 01-.56-.78 2.78 2.78 0 01-.08-1.78c.08-.24.2-.46.38-.67.18-.21.4-.4.69-.6a4.5 4.5 0 011.03-.48c.42-.14.9-.25 1.44-.33.55-.1 1.17-.15 1.88-.17v-.53c0-.62-.14-1.08-.4-1.37-.26-.3-.64-.45-1.14-.45a2.76 2.76 0 00-1.52.41l-.5.28a.95.95 0 01-.49.13.66.66 0 01-.4-.12c-.1-.08-.19-.18-.25-.29l-.4-.71zM499.64 136.4v9.24h-2.23v-5.4a6.12 6.12 0 01.08-.95 4.36 4.36 0 01-.57.98 229.12 229.12 0 01-1 1.4 201.81 201.81 0 00-2.43 3.43c-.08.12-.2.25-.33.37a.66.66 0 01-.46.18h-1.36v-9.24h2.22v5.4c0 .13 0 .28-.02.45l-.06.5a4.69 4.69 0 01.57-.97 56.08 56.08 0 001-1.4l.65-.94 1.79-2.5c.08-.13.2-.25.33-.37a.7.7 0 01.47-.18h1.35zm16.62 9.24h-2.23v-7.59h-3.6v7.59h-2.22v-9.24h8.05v9.24zm5.42-2.4c.25.3.53.52.82.65a2.48 2.48 0 001.88 0c.27-.13.5-.32.69-.57.19-.26.33-.59.44-.98.1-.4.15-.86.15-1.4 0-.53-.04-.99-.13-1.36a2.6 2.6 0 00-.37-.92c-.17-.23-.36-.4-.6-.51a1.8 1.8 0 00-.78-.16c-.46 0-.86.1-1.18.3-.32.19-.63.46-.92.81v4.14zm-.11-5.58c.37-.42.8-.77 1.28-1.03a3.46 3.46 0 013.07-.08c.42.2.78.51 1.08.91.3.4.54.9.7 1.48a7.25 7.25 0 01-.02 3.93c-.19.58-.46 1.1-.8 1.53a3.65 3.65 0 01-2.89 1.38c-.52 0-.96-.09-1.33-.24a3.3 3.3 0 01-.98-.67v3.78h-2.22V136.4h1.36c.29 0 .47.14.56.4l.19.86zm13.19-1.4a5 5 0 011.86.33 4.04 4.04 0 012.37 2.44c.21.59.32 1.25.32 1.97 0 .73-.1 1.4-.32 1.98a3.98 3.98 0 01-2.37 2.46 5 5 0 01-1.86.33 5.1 5.1 0 01-1.88-.33 4.07 4.07 0 01-2.38-2.46 5.71 5.71 0 01-.32-1.98c0-.72.1-1.38.32-1.97a4.13 4.13 0 012.38-2.44 5.1 5.1 0 011.88-.33zm0 7.8c.76 0 1.33-.26 1.7-.77.37-.52.56-1.27.56-2.27s-.19-1.76-.56-2.28c-.37-.52-.94-.78-1.7-.78-.78 0-1.36.26-1.74.8a3.88 3.88 0 00-.56 2.26c0 .99.19 1.75.56 2.27.38.51.96.77 1.74.77zm13.5-6.01h-4.03v7.59h-2.22v-9.24h6.25v1.65zm4.55 5.2c.25.3.52.51.82.64a2.48 2.48 0 001.88 0c.27-.13.5-.32.68-.57.2-.26.34-.59.44-.98.1-.4.15-.86.15-1.4 0-.53-.04-.99-.13-1.36a2.6 2.6 0 00-.37-.92c-.16-.23-.36-.4-.6-.51a1.8 1.8 0 00-.78-.16c-.46 0-.85.1-1.17.3-.33.19-.63.46-.92.81v4.14zm-.12-5.59c.38-.42.8-.77 1.29-1.03a3.46 3.46 0 013.07-.08c.42.2.78.51 1.08.91.3.4.54.9.7 1.48a7.25 7.25 0 01-.03 3.93c-.18.58-.45 1.1-.8 1.53a3.65 3.65 0 01-2.89 1.38c-.51 0-.96-.09-1.32-.24a3.3 3.3 0 01-.98-.67v3.78h-2.23V136.4h1.36c.3 0 .48.14.57.4l.18.86zm13.98 4.03c-.64.03-1.18.1-1.62.18a4.2 4.2 0 00-1.05.3c-.26.13-.45.28-.57.44a.96.96 0 00-.17.55c0 .4.12.67.35.84.23.17.53.25.9.25.46 0 .85-.08 1.18-.24.34-.17.67-.42.98-.76v-1.56zm-5.09-4a5.48 5.48 0 013.83-1.46c.54 0 1.03.1 1.45.27a2.99 2.99 0 011.75 1.87c.15.43.23.91.23 1.44v5.83h-1c-.22 0-.38-.03-.5-.1-.1-.06-.2-.19-.26-.38l-.2-.67c-.23.21-.46.4-.68.56a4.2 4.2 0 01-1.47.64 4.16 4.16 0 01-1.98-.06c-.33-.11-.62-.27-.86-.48a2.12 2.12 0 01-.55-.78 2.78 2.78 0 01-.08-1.78c.07-.24.2-.46.37-.67.18-.21.41-.4.7-.6a4.5 4.5 0 011.03-.48c.42-.14.9-.25 1.44-.33.55-.1 1.17-.15 1.87-.16v-.54c0-.62-.13-1.08-.4-1.37-.26-.3-.64-.45-1.13-.45a2.76 2.76 0 00-1.53.41l-.5.28a.95.95 0 01-.48.13.66.66 0 01-.4-.12c-.1-.09-.19-.18-.25-.29l-.4-.71zm21.06-1.3v9.25h-2v-5.15c0-.21 0-.45.02-.71.02-.27.06-.51.1-.74l-2.71 4.99a.66.66 0 01-.63.38h-.24a.66.66 0 01-.63-.38L573.8 139a8.1 8.1 0 01.14 1.48v5.15h-2v-9.25h1.83c.16 0 .31.03.46.1.16.06.29.2.39.39l2.18 3.89a6.4 6.4 0 01.5 1.18l.23-.61c.08-.2.17-.4.27-.57l2.16-3.89a.8.8 0 01.38-.4c.15-.06.3-.1.46-.1h1.84zm13.9 0v9.25h-2v-5.15c0-.21 0-.45.02-.71.02-.27.06-.51.1-.74l-2.71 4.99a.66.66 0 01-.63.38h-.23a.66.66 0 01-.63-.38L587.7 139a8.1 8.1 0 01.15 1.48v5.15h-2.01v-9.25h1.83c.16 0 .31.03.46.1.16.06.29.2.4.39l2.17 3.89a6.4 6.4 0 01.5 1.18l.23-.61c.08-.2.17-.4.27-.57l2.16-3.89a.8.8 0 01.38-.4c.15-.06.3-.1.46-.1h1.84zm11.5.01v9.24h-2.22v-5.4a6.12 6.12 0 01.08-.95 4.36 4.36 0 01-.58.98 229.12 229.12 0 01-1 1.4 201.81 201.81 0 00-2.43 3.43c-.08.12-.2.25-.33.37a.66.66 0 01-.46.18h-1.36v-9.24h2.23v5.4l-.03.45-.06.5a4.69 4.69 0 01.57-.97 56.08 56.08 0 001-1.4l.66-.94 1.78-2.5c.08-.13.2-.25.33-.37a.7.7 0 01.47-.18h1.35zm5.42 6.84c.25.3.52.52.82.65a2.48 2.48 0 001.88 0c.27-.13.5-.32.68-.57.2-.26.34-.59.44-.98.1-.4.16-.86.16-1.4 0-.53-.05-.99-.14-1.36a2.6 2.6 0 00-.37-.92c-.16-.23-.36-.4-.6-.51a1.8 1.8 0 00-.77-.16c-.47 0-.86.1-1.18.3-.33.19-.63.46-.92.81v4.14zm-.12-5.58c.38-.42.8-.77 1.29-1.03a3.46 3.46 0 013.07-.08c.42.2.78.51 1.08.91.3.4.54.9.7 1.48a7.25 7.25 0 01-.03 3.93c-.18.58-.45 1.1-.8 1.53a3.65 3.65 0 01-2.89 1.38c-.51 0-.95-.09-1.32-.24a3.3 3.3 0 01-.98-.67v3.78h-2.22V136.4h1.36c.28 0 .47.14.56.4l.18.86zm13.2-1.4a5 5 0 011.86.33 4.04 4.04 0 012.37 2.44c.21.59.32 1.25.32 1.97 0 .73-.1 1.4-.33 1.98a3.98 3.98 0 01-2.37 2.46 5 5 0 01-1.86.33 5.1 5.1 0 01-1.88-.33 4.07 4.07 0 01-2.37-2.46 5.71 5.71 0 01-.33-1.98c0-.72.11-1.38.33-1.97a4.13 4.13 0 012.38-2.44 5.1 5.1 0 011.87-.33zm0 7.8c.76 0 1.33-.26 1.7-.77.37-.52.55-1.27.55-2.27s-.18-1.76-.55-2.28c-.37-.52-.94-.78-1.7-.78-.78 0-1.36.26-1.74.8a3.88 3.88 0 00-.56 2.26c0 .99.19 1.75.56 2.27.38.51.96.77 1.74.77zm11.02.06c.46 0 .83-.12 1.1-.35.28-.22.42-.54.42-.93 0-.17-.03-.33-.08-.47a.83.83 0 00-.23-.39c-.11-.1-.27-.19-.47-.25-.19-.06-.43-.09-.73-.09h-1.67v2.48h1.66zm-1.66-6.27v2.42h1.46a1.5 1.5 0 001.06-.36c.13-.12.23-.25.3-.41a1.3 1.3 0 00.04-.94.85.85 0 00-.24-.36c-.12-.1-.27-.19-.46-.25s-.42-.1-.7-.1h-1.46zm1.52-1.45c.58 0 1.08.06 1.5.17.43.12.78.27 1.06.47a1.86 1.86 0 01.8 1.6c0 .2-.02.4-.07.62a2.01 2.01 0 01-.8 1.15c-.22.16-.5.29-.84.38.3.06.58.16.83.28.26.1.47.26.65.44a1.96 1.96 0 01.57 1.41 2.38 2.38 0 01-1.08 2.06c-.32.22-.7.39-1.13.5-.43.1-.88.16-1.34.16h-3.79v-9.24h3.64zm11.3 5.3c-.65.03-1.19.08-1.62.17a4.2 4.2 0 00-1.06.3c-.26.13-.45.28-.56.44a.96.96 0 00-.18.55c0 .4.12.67.35.84.23.17.53.25.9.25.46 0 .86-.08 1.19-.24.33-.17.66-.42.98-.76v-1.56zm-5.1-4.01a5.48 5.48 0 013.84-1.46c.54 0 1.02.1 1.44.27a2.99 2.99 0 011.75 1.87c.16.43.24.91.24 1.44v5.83h-1.01c-.21 0-.38-.03-.49-.1-.11-.06-.2-.19-.27-.38l-.2-.67c-.23.21-.46.4-.68.56a4.2 4.2 0 01-1.47.64 4.16 4.16 0 01-1.98-.06c-.33-.11-.61-.27-.85-.48a2.12 2.12 0 01-.56-.78 2.78 2.78 0 01-.08-1.78c.08-.24.2-.46.38-.67.18-.21.4-.4.69-.6a4.5 4.5 0 011.03-.48c.42-.14.9-.25 1.44-.33.55-.1 1.17-.15 1.88-.16v-.54c0-.62-.14-1.08-.4-1.37-.26-.3-.65-.45-1.14-.45a2.76 2.76 0 00-1.52.41l-.5.28a.95.95 0 01-.49.13.66.66 0 01-.4-.12c-.1-.09-.19-.18-.25-.29l-.4-.71zm18.4-1.29v9.24h-2.22v-4.09h-3.6v4.09h-2.22v-9.24h2.22v3.5h3.6v-3.5h2.22zm11.5 0v9.24h-2.22v-5.4a6.12 6.12 0 01.08-.95 4.36 4.36 0 01-.57.98 229.12 229.12 0 01-1 1.4 201.81 201.81 0 00-2.43 3.43c-.09.12-.2.25-.34.37a.66.66 0 01-.45.18h-1.36v-9.24h2.22v5.4l-.03.45-.05.5a4.69 4.69 0 01.56-.97 56.08 56.08 0 001-1.4l.66-.94 1.78-2.5c.09-.13.2-.25.34-.37a.7.7 0 01.46-.18h1.35zm9.15 3.56c0-.29-.04-.56-.13-.81-.07-.26-.2-.49-.36-.68-.16-.19-.37-.34-.62-.45a2.04 2.04 0 00-.86-.17c-.64 0-1.15.19-1.52.55-.37.37-.6.89-.7 1.56h4.19zm-4.24 1.34c.04.47.12.88.25 1.23.13.34.3.63.52.86.22.22.47.39.77.5.3.1.63.16.99.16s.67-.04.93-.12c.26-.09.49-.18.68-.28l.51-.28c.15-.09.3-.13.43-.13.2 0 .33.07.42.21l.64.81a3.8 3.8 0 01-1.8 1.2 7.19 7.19 0 01-2.02.31 5 5 0 01-1.78-.31 4.09 4.09 0 01-2.4-2.5 6.03 6.03 0 01-.05-3.91 4.16 4.16 0 012.27-2.43 4.63 4.63 0 011.86-.36c.59 0 1.12.1 1.61.28a3.48 3.48 0 012.1 2.13c.2.52.3 1.1.3 1.77 0 .34-.03.57-.1.69-.07.11-.21.17-.41.17h-5.72zM772.67 119.61h-3.92v11.03h-2.42V119.6h-3.93v-1.99h10.27v2zm6.14 5.35c0-.29-.04-.56-.12-.81-.08-.26-.2-.48-.36-.68-.17-.19-.37-.34-.63-.45a2.04 2.04 0 00-.86-.17c-.64 0-1.15.19-1.52.55-.37.37-.6.89-.7 1.56h4.2zm-4.24 1.34c.04.47.12.88.25 1.23.14.34.31.63.53.86.21.22.47.39.76.5.3.1.63.16 1 .16.35 0 .66-.04.92-.12.26-.09.5-.18.68-.28l.52-.28c.15-.09.29-.13.43-.13.18 0 .32.07.41.21l.64.81a3.8 3.8 0 01-1.79 1.2 7.19 7.19 0 01-2.02.31 5 5 0 01-1.79-.31 4.09 4.09 0 01-2.4-2.5 6.03 6.03 0 01-.05-3.91 4.16 4.16 0 012.27-2.43 4.63 4.63 0 011.87-.36c.58 0 1.12.1 1.6.28a3.48 3.48 0 012.1 2.13c.2.52.31 1.1.31 1.77 0 .34-.04.57-.1.69-.08.11-.22.17-.42.17h-5.72zm15.52-2.94c-.06.08-.13.15-.2.2-.05.04-.14.07-.26.07a.63.63 0 01-.34-.1c-.1-.08-.24-.15-.38-.24a2.52 2.52 0 00-1.31-.34c-.39 0-.73.07-1.03.22-.29.14-.54.34-.73.6-.2.26-.34.59-.44.96-.1.38-.14.8-.14 1.27 0 .5.05.93.15 1.32.11.38.26.7.46.97.2.26.44.45.72.6.28.12.6.19.96.19a2.4 2.4 0 001.4-.41c.16-.11.29-.2.4-.3a.6.6 0 01.37-.13c.18 0 .32.07.4.21l.65.81a4.14 4.14 0 01-2.66 1.44c-.32.05-.64.07-.97.07a3.86 3.86 0 01-2.93-1.25c-.38-.4-.68-.9-.9-1.5a5.9 5.9 0 01-.33-2.02c0-.68.1-1.3.3-1.88.19-.58.48-1.08.86-1.5.37-.43.84-.76 1.4-1 .56-.24 1.2-.36 1.93-.36.68 0 1.29.11 1.8.33.53.22 1 .54 1.4.96l-.58.8zm11-.31h-3.3v7.59h-2.22v-7.59h-3.29v-1.65h8.8v1.65zm10.6-1.65v9.24h-2.23v-5.4a6.12 6.12 0 01.09-.95 4.36 4.36 0 01-.58.98 229.12 229.12 0 01-1 1.4 201.81 201.81 0 00-2.43 3.43c-.08.12-.2.25-.33.37a.66.66 0 01-.46.18h-1.36v-9.24h2.22v5.4c0 .13 0 .28-.02.45l-.06.5a4.69 4.69 0 01.57-.98 56.08 56.08 0 001-1.39l.65-.94 1.79-2.5c.08-.13.2-.25.33-.37a.7.7 0 01.47-.18h1.35zm5.42 6.84c.25.3.52.52.82.65a2.48 2.48 0 001.88 0c.27-.13.5-.32.68-.57.2-.26.34-.59.44-.98.1-.4.16-.86.16-1.4 0-.53-.05-.99-.14-1.36a2.6 2.6 0 00-.37-.92c-.16-.23-.36-.4-.6-.51a1.8 1.8 0 00-.78-.16c-.46 0-.85.1-1.18.3-.32.19-.63.46-.91.81v4.14zm-.12-5.58c.38-.42.8-.77 1.29-1.03a3.46 3.46 0 013.07-.08c.42.2.78.51 1.08.92.3.4.54.88.7 1.47a7.25 7.25 0 01-.03 3.92c-.19.6-.45 1.1-.8 1.54a3.65 3.65 0 01-2.89 1.38c-.51 0-.96-.09-1.32-.24a3.3 3.3 0 01-.98-.67v3.78h-2.23V121.4h1.36c.3 0 .48.14.57.4l.18.86zm13.2-1.4a5 5 0 011.86.33 4.04 4.04 0 012.36 2.44c.22.59.33 1.25.33 1.97 0 .73-.11 1.4-.33 1.98a3.98 3.98 0 01-2.37 2.46 5 5 0 01-1.86.33 5.1 5.1 0 01-1.88-.33 4.07 4.07 0 01-2.37-2.46 5.71 5.71 0 01-.33-1.98c0-.72.11-1.38.33-1.97.22-.59.53-1.09.92-1.5.4-.4.89-.72 1.45-.94a5.1 5.1 0 011.88-.33zm0 7.8c.76 0 1.33-.26 1.7-.77.37-.52.55-1.27.55-2.27s-.18-1.75-.56-2.28c-.36-.52-.93-.78-1.7-.78-.78 0-1.36.26-1.73.8a3.88 3.88 0 00-.56 2.26c0 .99.18 1.75.56 2.27.37.51.95.77 1.73.77zm11.01.06c.47 0 .84-.12 1.11-.35.28-.22.42-.54.42-.93 0-.17-.03-.33-.08-.47a.83.83 0 00-.23-.39c-.12-.1-.27-.19-.47-.25-.2-.06-.44-.09-.74-.09h-1.66v2.48h1.65zm-1.65-6.27v2.42H841a1.5 1.5 0 001.06-.36c.13-.12.23-.26.3-.41a1.3 1.3 0 00.04-.94.85.85 0 00-.24-.36c-.12-.1-.27-.19-.46-.25s-.42-.1-.7-.1h-1.46zm1.52-1.45c.58 0 1.08.06 1.5.17.43.12.78.27 1.05.47a1.86 1.86 0 01.81 1.6c0 .2-.02.4-.08.62-.04.2-.13.41-.27.6-.12.2-.3.39-.52.55-.22.16-.5.29-.84.38.3.06.58.15.83.27.25.12.47.27.65.45a1.96 1.96 0 01.57 1.41 2.38 2.38 0 01-1.08 2.06c-.33.22-.7.39-1.14.5-.42.1-.87.16-1.34.16h-3.78v-9.24h3.64zm11.3 5.3c-.65.02-1.19.08-1.63.17a4.2 4.2 0 00-1.05.3c-.26.13-.45.27-.57.44a.96.96 0 00-.17.55c0 .4.12.67.34.84.24.17.54.25.91.25.46 0 .85-.08 1.18-.24.34-.17.67-.42.98-.76v-1.56zm-5.1-4.01a5.48 5.48 0 013.83-1.46c.54 0 1.03.1 1.45.27a2.99 2.99 0 011.75 1.86c.16.44.23.92.23 1.45v5.83h-1c-.21 0-.38-.03-.5-.1-.1-.06-.2-.19-.26-.38l-.2-.67c-.23.21-.46.4-.68.56a4.2 4.2 0 01-1.47.64 4.16 4.16 0 01-1.98-.06c-.33-.11-.62-.27-.86-.48a2.12 2.12 0 01-.55-.78 2.78 2.78 0 01-.08-1.78c.07-.24.2-.46.37-.67.18-.21.41-.4.7-.6a4.5 4.5 0 011.03-.48c.42-.14.9-.25 1.44-.33.55-.1 1.17-.15 1.87-.17v-.53c0-.62-.13-1.08-.4-1.37-.26-.3-.64-.45-1.13-.45a2.76 2.76 0 00-1.53.41l-.5.28a.95.95 0 01-.48.13.66.66 0 01-.4-.12c-.1-.08-.19-.18-.25-.29l-.4-.71zm18.4-1.29v9.24h-2.22v-4.09h-3.6v4.09h-2.22v-9.24h2.22v3.5h3.6v-3.5h2.22zm9.15 3.56c0-.29-.04-.56-.12-.81-.08-.26-.2-.48-.36-.68-.16-.19-.37-.34-.62-.45a2.04 2.04 0 00-.87-.17c-.64 0-1.15.19-1.52.55-.36.37-.6.89-.7 1.56h4.2zm-4.24 1.34c.04.47.13.88.26 1.23.13.34.3.63.52.86.22.22.47.39.76.5.3.1.63.16 1 .16.35 0 .66-.04.92-.12.26-.09.5-.18.69-.28.2-.1.36-.2.5-.28.16-.09.3-.13.44-.13.19 0 .32.07.41.21l.64.81a3.8 3.8 0 01-1.79 1.2 7.19 7.19 0 01-2.02.31 5 5 0 01-1.78-.31 4.09 4.09 0 01-2.4-2.5 6.03 6.03 0 01-.05-3.91 4.16 4.16 0 012.27-2.43 4.63 4.63 0 011.86-.36c.58 0 1.12.1 1.6.28a3.48 3.48 0 012.1 2.13c.21.52.31 1.1.31 1.77 0 .34-.03.57-.1.69-.08.11-.22.17-.42.17h-5.71zM1031 124.17c.44 0 .83-.06 1.16-.17.33-.11.6-.27.82-.47.22-.21.38-.47.49-.76.11-.3.16-.63.16-1 0-.35-.05-.66-.16-.94a1.95 1.95 0 00-.48-.72c-.22-.2-.49-.35-.82-.45-.33-.11-.72-.16-1.17-.16h-1.81v4.67h1.81zm0-6.55c.87 0 1.62.1 2.26.3.63.21 1.16.5 1.57.86.42.37.72.8.92 1.32a4.66 4.66 0 01-.01 3.41c-.21.52-.52.97-.94 1.35-.42.38-.95.67-1.59.88-.63.21-1.37.32-2.21.32h-1.81v4.58h-2.42v-13.02h4.23zm13.09 7.34a2.39 2.39 0 00-.49-1.49c-.16-.19-.37-.34-.62-.45a2.03 2.03 0 00-.86-.17c-.65 0-1.15.19-1.52.55-.37.37-.6.89-.71 1.56h4.2zm-4.24 1.34c.03.47.12.88.25 1.23a2.13 2.13 0 001.29 1.36c.3.1.63.16.99.16s.67-.04.92-.12c.27-.09.5-.18.69-.28l.51-.28a.9.9 0 01.43-.13c.19 0 .33.07.42.21l.64.81a4.06 4.06 0 01-1.79 1.2 7.22 7.22 0 01-2.02.31c-.64 0-1.24-.1-1.79-.31a4.13 4.13 0 01-2.4-2.5 5.9 5.9 0 01-.05-3.91 4.2 4.2 0 012.27-2.43 4.6 4.6 0 011.86-.36c.58 0 1.12.1 1.61.28a3.47 3.47 0 012.1 2.13c.2.52.31 1.1.31 1.77 0 .34-.04.57-.11.69-.07.11-.21.17-.42.17h-5.71zm17.47 4.34h-2.22v-7.54h-2.27a25.28 25.28 0 01-.33 2.94c-.15.81-.33 1.5-.54 2.08a5.83 5.83 0 01-.69 1.37c-.26.35-.53.61-.81.8-.29.2-.59.32-.9.38-.3.07-.61.1-.92.1-.33 0-.58-.03-.73-.09-.15-.05-.23-.13-.23-.23v-1.39h.53c.2 0 .4-.03.6-.09.2-.06.39-.18.57-.37.19-.18.37-.45.54-.79.16-.35.32-.8.45-1.37.15-.57.27-1.26.38-2.08.11-.83.19-1.81.25-2.96h6.32v9.24zm11.49-9.24v9.24h-2.22v-5.4l.01-.44.07-.5a3.98 3.98 0 01-.58.97l-.42.59-.58.82-.65.91-1.78 2.5c-.08.13-.19.26-.33.38a.67.67 0 01-.46.18h-1.36v-9.24h2.22v5.4c0 .13 0 .28-.02.45l-.06.5c.14-.3.27-.54.4-.73l.17-.25.41-.58.59-.81.66-.94 1.78-2.5c.08-.13.19-.25.33-.37s.3-.18.47-.18h1.35zm2.66 1c.34-.33.78-.6 1.29-.82a4.84 4.84 0 011.86-.32c.57 0 1.07.07 1.52.2.44.14.81.32 1.11.56.31.22.54.49.7.79a1.91 1.91 0 01.16 1.47c-.05.19-.13.37-.25.55a2.3 2.3 0 01-1.17.9c.5.19.9.47 1.21.84.31.37.47.83.47 1.38 0 .45-.11.84-.32 1.2-.2.34-.47.64-.82.88-.34.24-.73.43-1.17.55a4.95 4.95 0 01-4.03-.6c-.29-.19-.56-.43-.8-.72l.64-.81c.09-.14.23-.2.41-.2.13 0 .27.04.39.13l.43.29a2.48 2.48 0 001.45.41c.56 0 .98-.13 1.27-.38.29-.25.43-.56.43-.94a1 1 0 00-.45-.88c-.29-.2-.77-.31-1.44-.31h-1.04v-1.45h1.04c.59 0 1.03-.1 1.34-.3a.92.92 0 00.06-1.57c-.27-.2-.67-.3-1.21-.3a2.85 2.85 0 00-1.38.32l-.4.2a.6.6 0 01-.31.1.6.6 0 01-.26-.05.77.77 0 01-.23-.26l-.5-.86z" fill="#5E78FF"/><circle cx="123.83" cy="123.64" r="122.24" stroke="#5E78FF" stroke-width="2" stroke-dasharray="5.5 5.5"/><circle cx="355.58" cy="123.64" r="122.24" stroke="#5E78FF" stroke-width="2" stroke-dasharray="5.5 5.5"/><circle cx="819.76" cy="123.64" r="122.24" stroke="#5E78FF" stroke-width="2" stroke-dasharray="5.5 5.5"/><circle cx="1052.16" cy="123.64" r="122.24" stroke="#5E78FF" stroke-width="2" stroke-dasharray="5.5 5.5"/></svg>