<svg width="607" height="383" fill="none" xmlns="http://www.w3.org/2000/svg"><circle cx="501.63" cy="106.16" r="104.2" fill="#fff" stroke="#5E78FF" stroke-width="2" stroke-dasharray="5.5 5.5"/><path d="M56.64 106.3c0 .73-.12 1.42-.37 2.06a4.8 4.8 0 01-4.75 3.1 5.5 5.5 0 01-2.1-.38 4.84 4.84 0 01-2.66-2.72 5.64 5.64 0 01-.37-2.07c0-.74.12-1.43.37-2.06a4.76 4.76 0 012.67-2.72c.63-.26 1.33-.39 2.1-.39a5.6 5.6 0 012.69.69 4.69 4.69 0 012.26 3.07c.1.45.16.92.16 1.41zm-1.92 0c0-.56-.07-1.06-.22-1.5a3.2 3.2 0 00-.64-1.13c-.28-.3-.61-.54-1-.7-.4-.16-.84-.25-1.34-.25-.5 0-.94.09-1.34.25a2.8 2.8 0 00-1.64 1.83c-.15.44-.23.94-.23 1.5 0 .55.08 1.05.23 1.5a2.83 2.83 0 001.65 1.82c.39.16.84.24 1.33.24.5 0 .94-.08 1.33-.25.4-.16.73-.4 1-.7.28-.3.5-.68.65-1.12.15-.44.22-.94.22-1.5zm11.76 3.77v3.17a.5.5 0 01-.14.38c-.09.1-.2.14-.35.14H64.9v-2.4h-6v-7.19h1.72v5.9h2.8v-5.9h1.73v5.9h1.32zm6.6-3.13c0-.23-.04-.44-.1-.63-.06-.2-.16-.38-.28-.53a1.28 1.28 0 00-.49-.35 1.6 1.6 0 00-.67-.13c-.5 0-.9.14-1.18.43a2.1 2.1 0 00-.55 1.2h3.26zm-3.3 1.04c.03.37.1.69.2.96a2 2 0 00.4.66c.17.18.37.3.6.4.23.08.48.12.76.12s.52-.03.73-.1c.2-.06.38-.13.53-.21l.4-.22a.7.7 0 01.33-.1c.15 0 .25.06.32.16l.5.63a2.96 2.96 0 01-1.4.93 5.49 5.49 0 01-1.57.25c-.49 0-.95-.08-1.38-.25a3.18 3.18 0 01-1.87-1.93 4.69 4.69 0 01-.04-3.05 3.24 3.24 0 011.76-1.89c.44-.19.92-.28 1.46-.28.45 0 .87.07 1.25.22a2.71 2.71 0 011.63 1.66c.16.4.24.86.24 1.38 0 .26-.03.43-.09.53-.05.09-.16.13-.32.13h-4.44zm13.4-3.8v7.17h-1.73v-3.17h-2.8v3.17h-1.72v-7.18h1.72v2.72h2.8v-2.72h1.73zm7 .45a.97.97 0 01.81-.46h1.36l-1.67 2.67c-.12.19-.24.34-.36.45-.12.12-.27.2-.44.27.23.07.42.17.57.31.15.14.29.31.4.52l1.69 2.96h-1.2c-.3 0-.54-.05-.7-.15-.17-.1-.31-.25-.43-.44l-1.06-1.99a.94.94 0 00-.87-.51h-.65v3.1H85.9v-7.19h1.73v2.96h.56a.9.9 0 00.46-.1.9.9 0 00.31-.34l1.23-2.06zm8.11 3.66c-.5.02-.92.07-1.26.13-.34.06-.61.14-.82.24-.2.1-.35.21-.44.34a.75.75 0 00-.13.43c0 .3.09.52.27.65.18.13.41.2.7.2.36 0 .66-.07.92-.2.26-.12.51-.32.76-.58v-1.21zm-3.96-3.12a4.26 4.26 0 012.98-1.13c.42 0 .8.07 1.13.2a2.33 2.33 0 011.36 1.46c.12.34.18.71.18 1.12v4.53h-.79a.82.82 0 01-.37-.07c-.1-.05-.16-.15-.21-.3l-.16-.52c-.18.17-.36.31-.53.44a3.22 3.22 0 01-1.14.5 3.21 3.21 0 01-1.54-.05c-.26-.09-.48-.21-.66-.37a1.65 1.65 0 01-.44-.61 2.16 2.16 0 01-.06-1.39c.06-.18.16-.35.3-.52.13-.16.31-.31.53-.46.22-.14.49-.27.8-.38a10.72 10.72 0 012.58-.39v-.41c0-.48-.1-.84-.3-1.07-.21-.23-.5-.35-.9-.35a2.15 2.15 0 00-1.18.33l-.38.21a.73.73 0 01-.38.1.51.51 0 01-.3-.09.83.83 0 01-.21-.22l-.31-.56zm18.94 6.18h-1.73v-5.9h-2.8v5.9h-1.73v-7.18h6.26v7.18zm4.44-1.86c.2.24.41.4.64.5a1.94 1.94 0 001.46 0c.21-.1.39-.24.53-.44.15-.2.27-.45.35-.76.08-.3.12-.67.12-1.08 0-.42-.04-.78-.11-1.07-.06-.3-.16-.53-.29-.71a1.14 1.14 0 00-.46-.4 1.4 1.4 0 00-.6-.13c-.37 0-.67.08-.92.23-.26.16-.5.37-.72.64v3.22zm-.09-4.34c.3-.33.63-.6 1-.8a2.7 2.7 0 012.39-.07c.32.17.6.4.84.72.24.3.42.69.54 1.15a5.63 5.63 0 01-.02 3.05c-.14.46-.35.85-.62 1.19-.27.33-.59.6-.97.79-.38.19-.8.28-1.28.28-.4 0-.74-.06-1.03-.18-.28-.13-.53-.3-.76-.52v2.94h-1.73v-9.53h1.06c.22 0 .37.1.44.32l.14.66zm10.48-1.09c.54 0 1.02.09 1.45.26a3.16 3.16 0 011.84 1.9c.17.45.26.97.26 1.53 0 .57-.09 1.08-.26 1.54a3.1 3.1 0 01-1.84 1.91c-.43.17-.91.26-1.45.26-.53 0-1.02-.09-1.46-.26a3.15 3.15 0 01-1.85-1.91 4.44 4.44 0 01-.25-1.54c0-.56.08-1.08.25-1.53.17-.46.42-.85.72-1.17.32-.31.7-.56 1.13-.73.44-.17.93-.26 1.46-.26zm0 6.07c.6 0 1.04-.2 1.33-.6a3 3 0 00.43-1.77c0-.77-.14-1.36-.43-1.77-.29-.4-.73-.6-1.33-.6-.6 0-1.05.2-1.35.6-.29.42-.43 1-.43 1.77s.14 1.36.43 1.77c.3.4.75.6 1.35.6zm10.5-3.2c0-.22-.04-.43-.1-.62-.07-.2-.16-.38-.29-.53a1.28 1.28 0 00-.48-.35 1.6 1.6 0 00-.67-.13c-.5 0-.9.14-1.18.43a2.1 2.1 0 00-.55 1.2h3.26zm-3.3 1.05c.02.37.09.69.2.96a2 2 0 00.4.66c.16.18.36.3.6.4.22.08.48.12.76.12s.52-.03.72-.1c.2-.06.39-.13.53-.21.16-.08.3-.15.4-.22a.7.7 0 01.34-.1c.15 0 .25.06.32.16l.5.63c-.2.23-.4.42-.64.57a3.78 3.78 0 01-1.55.55c-.26.04-.52.06-.77.06-.5 0-.97-.08-1.4-.25a3.18 3.18 0 01-1.86-1.93 4.69 4.69 0 01-.04-3.05 3.24 3.24 0 011.76-1.89 3.6 3.6 0 011.45-.28c.46 0 .87.07 1.26.22a2.7 2.7 0 011.63 1.66c.16.4.24.86.24 1.38 0 .26-.03.43-.09.53-.05.09-.16.13-.32.13h-4.45zm11.43-3.35a.98.98 0 01.8-.46h1.37l-1.68 2.67a2.3 2.3 0 01-.35.45c-.12.12-.27.2-.44.27.23.07.42.17.57.31.15.14.28.31.4.52l1.69 2.96h-1.2c-.3 0-.54-.05-.7-.15-.18-.1-.32-.25-.44-.44l-1.05-1.99a.94.94 0 00-.88-.51h-.65v3.1h-1.73v-7.19h1.73v2.96h.56a.9.9 0 00.47-.1.89.89 0 00.3-.34l1.23-2.06zm10.48.82h-2.57v5.9h-1.73v-5.9h-2.55v-1.28h6.84v1.28zm5.77 2.84c-.5.02-.92.07-1.26.13-.34.06-.62.14-.82.24-.2.1-.36.21-.44.34a.74.74 0 00-.14.43c0 .3.1.52.27.65.18.13.42.2.7.2a2.06 2.06 0 001.69-.78v-1.21zm-3.97-3.12a4.26 4.26 0 012.99-1.13c.42 0 .8.07 1.12.2a2.34 2.34 0 011.36 1.46c.12.34.18.71.18 1.12v4.53h-.78a.82.82 0 01-.38-.07c-.09-.05-.16-.15-.2-.3l-.16-.52c-.18.17-.36.31-.53.44a3.26 3.26 0 01-1.15.5 3.22 3.22 0 01-1.54-.05c-.25-.09-.47-.21-.66-.37a1.63 1.63 0 01-.44-.61 2.15 2.15 0 01-.06-1.39c.06-.18.16-.35.3-.52.14-.16.31-.31.53-.46.22-.14.5-.27.81-.38a10.71 10.71 0 012.58-.39v-.41c0-.48-.1-.84-.31-1.07-.2-.23-.5-.35-.9-.35a2.15 2.15 0 00-1.17.33l-.39.21a.73.73 0 01-.38.1.5.5 0 01-.3-.09.83.83 0 01-.2-.22l-.32-.56zM242.21 99.96h-1.9V91.3h-4.4v8.67h-1.88V89.84h8.18v10.12zm4.6-1.86c.2.24.4.4.63.5a1.93 1.93 0 001.47 0c.2-.1.38-.24.53-.44.15-.2.26-.46.34-.76.08-.3.12-.67.12-1.08 0-.42-.03-.78-.1-1.07-.07-.3-.17-.53-.3-.71a1.14 1.14 0 00-.45-.4 1.41 1.41 0 00-.61-.13c-.36 0-.67.08-.92.23-.25.15-.49.37-.71.64v3.22zm-.1-4.34c.3-.33.63-.6 1-.8a2.69 2.69 0 012.4-.07c.32.17.6.4.83.72.24.3.42.69.55 1.14a5.67 5.67 0 01-.02 3.06c-.15.45-.35.85-.62 1.19a2.84 2.84 0 01-2.25 1.07c-.4 0-.75-.06-1.03-.18-.28-.13-.54-.3-.76-.52v2.94h-1.73v-9.53h1.05c.23 0 .38.1.45.32l.14.66zm10.49-1.1c.53 0 1.01.1 1.45.27a3.14 3.14 0 011.84 1.9c.17.45.25.96.25 1.53 0 .57-.08 1.08-.25 1.54a3.1 3.1 0 01-1.84 1.91c-.44.17-.92.26-1.45.26-.54 0-1.02-.09-1.46-.26a3.16 3.16 0 01-1.85-1.91 4.44 4.44 0 01-.25-1.54c0-.57.08-1.08.25-1.54.17-.45.41-.84.72-1.16.31-.31.69-.56 1.13-.73.44-.17.92-.26 1.46-.26zm0 6.08c.6 0 1.04-.2 1.32-.6a3 3 0 00.44-1.77c0-.77-.15-1.36-.44-1.77-.28-.4-.72-.6-1.32-.6-.6 0-1.06.2-1.35.6-.3.41-.44 1-.44 1.77s.15 1.36.44 1.77c.3.4.74.6 1.35.6zM269 94.06h-2.56v5.9h-1.73v-5.9h-2.55v-1.28H269v1.28zm5-1.4c.53 0 1.01.1 1.44.27a3.15 3.15 0 011.85 1.9c.16.45.25.96.25 1.53 0 .57-.09 1.08-.25 1.54-.17.46-.41.84-.73 1.17-.3.32-.68.57-1.12.74-.43.17-.91.26-1.44.26-.54 0-1.03-.09-1.47-.26a3.16 3.16 0 01-1.85-1.91 4.44 4.44 0 01-.25-1.54c0-.57.09-1.08.25-1.54a3.2 3.2 0 011.85-1.9c.44-.16.93-.25 1.47-.25zm0 6.08c.6 0 1.03-.2 1.32-.6a3 3 0 00.43-1.77c0-.77-.14-1.36-.43-1.77-.29-.4-.73-.6-1.32-.6-.61 0-1.06.2-1.36.6-.28.41-.43 1-.43 1.77s.14 1.36.43 1.77c.3.4.75.6 1.36.6zm11.81-4.68h-2.56v5.9h-1.73v-5.9h-2.55v-1.28h6.84v1.28zm8.47-1.28v7.18h-1.73v-4.19a4.95 4.95 0 01.07-.74 3.37 3.37 0 01-.45.76l-.33.46-.45.63a182.92 182.92 0 00-1.89 2.66c-.06.1-.15.2-.26.29-.1.1-.22.14-.35.14h-1.06v-7.18h1.73v4.2c0 .1 0 .22-.02.35l-.05.38a3.73 3.73 0 01.45-.75l.32-.46.45-.63.51-.73a411 411 0 011.39-1.94c.07-.1.15-.2.26-.29.1-.1.23-.14.36-.14h1.05zm8.97 7.18h-1.73v-5.9h-2.8v5.9H297v-7.18h6.26v7.18zm9.17-7.18v7.18h-1.73v-4.19a4.95 4.95 0 01.06-.74 3.37 3.37 0 01-.45.76l-.33.46a267.39 267.39 0 01-2.34 3.3c-.06.1-.15.19-.25.28-.1.1-.23.14-.36.14h-1.06v-7.18h1.73v4.2c0 .1 0 .22-.02.35 0 .12-.02.25-.04.38a3.64 3.64 0 01.44-.75l.32-.46.46-.63.5-.73a411 411 0 011.4-1.94c.06-.1.14-.2.25-.29.1-.1.23-.14.37-.14h1.05zm4.43 5.32c.2.24.41.4.64.5a1.94 1.94 0 001.46 0c.21-.1.4-.24.54-.44s.26-.46.34-.76c.08-.3.12-.67.12-1.08 0-.42-.04-.78-.1-1.07-.07-.3-.17-.53-.3-.71a1.14 1.14 0 00-.46-.4 1.4 1.4 0 00-.6-.13c-.37 0-.67.08-.92.23-.25.15-.5.37-.72.64v3.22zm-.09-4.34c.3-.33.63-.6 1-.8a2.7 2.7 0 012.39-.07c.33.17.6.4.84.72.24.3.42.69.55 1.14a5.63 5.63 0 01-.03 3.06 3.6 3.6 0 01-.62 1.19c-.26.33-.59.6-.97.79-.38.18-.8.28-1.28.28-.4 0-.74-.06-1.02-.18-.29-.13-.54-.3-.77-.52v2.94h-1.73v-9.53h1.06c.23 0 .37.1.44.32l.14.66zm10.49-1.1c.53 0 1.01.1 1.44.27a3.15 3.15 0 011.85 1.9c.16.45.25.96.25 1.53 0 .57-.09 1.08-.25 1.54-.17.46-.41.84-.73 1.17-.3.32-.68.57-1.12.74-.43.17-.91.26-1.44.26-.54 0-1.03-.09-1.47-.26a3.16 3.16 0 01-1.85-1.91 4.44 4.44 0 01-.25-1.54c0-.57.09-1.08.25-1.54a3.2 3.2 0 011.85-1.9c.44-.16.93-.25 1.47-.25zm0 6.08c.6 0 1.03-.2 1.32-.6a3 3 0 00.43-1.77c0-.77-.14-1.36-.43-1.77-.29-.4-.73-.6-1.32-.6-.61 0-1.06.2-1.36.6-.28.41-.43 1-.43 1.77s.14 1.36.43 1.77c.3.4.75.6 1.36.6zm8.79.04c.36 0 .65-.09.86-.27a.9.9 0 00.32-.72c0-.13-.02-.26-.05-.37a.66.66 0 00-.19-.3.9.9 0 00-.36-.2 1.97 1.97 0 00-.57-.07h-1.3v1.93h1.29zm-1.29-4.87v1.88h1.14a1.17 1.17 0 00.83-.28 1 1 0 00.23-.32 1 1 0 00.03-.73.68.68 0 00-.2-.28.9.9 0 00-.35-.2 1.66 1.66 0 00-.54-.07h-1.14zm1.19-1.13c.45 0 .84.05 1.16.13.33.1.6.21.82.37a1.46 1.46 0 01.63 1.24 2 2 0 01-.06.48 1.58 1.58 0 01-.62.9c-.17.12-.39.22-.65.29.23.05.45.12.65.22.2.09.36.2.5.34s.25.3.32.48a1.85 1.85 0 01-.72 2.22c-.25.17-.54.3-.88.39-.33.08-.68.12-1.04.12h-2.94v-7.18h2.82zm9 4.12c-.5.02-.92.06-1.26.13-.34.06-.61.14-.82.24-.2.1-.35.21-.44.34a.74.74 0 00-.13.43c0 .3.09.52.26.65.19.13.42.2.71.2a2.06 2.06 0 001.68-.78V96.9zM341 93.78a4.26 4.26 0 012.98-1.13c.42 0 .8.07 1.13.2a2.33 2.33 0 011.36 1.46c.12.34.18.71.18 1.12v4.53h-.78a.82.82 0 01-.38-.07c-.1-.05-.16-.15-.21-.3l-.16-.52a3.31 3.31 0 01-1.67.93 3.22 3.22 0 01-1.54-.04c-.26-.09-.48-.21-.66-.38a1.64 1.64 0 01-.44-.6 2.15 2.15 0 01-.06-1.39c.06-.18.16-.35.3-.52.13-.16.31-.32.53-.46.22-.14.49-.27.8-.38a10.71 10.71 0 012.58-.38v-.42c0-.48-.1-.84-.3-1.07-.21-.23-.5-.35-.9-.35a2.14 2.14 0 00-1.18.32l-.38.22a.74.74 0 01-.38.1.51.51 0 01-.3-.1.83.83 0 01-.21-.22l-.31-.55zm14.53-1v7.18h-1.72v-3.18H351v3.18h-1.73v-7.18H351v2.72h2.8v-2.72h1.72zm9.17 0v7.18h-1.73v-4.19a4.42 4.42 0 01.07-.74 3.44 3.44 0 01-.45.76l-.33.46a267.39 267.39 0 01-2.34 3.3c-.06.1-.15.19-.26.28-.1.1-.22.14-.35.14h-1.06v-7.18h1.73v4.2l-.02.35-.05.38a3.56 3.56 0 01.45-.75l.32-.46.45-.63.51-.73a411 411 0 011.39-1.94c.06-.1.15-.2.26-.29.1-.1.23-.14.36-.14h1.05zm7.34 2.77c0-.23-.04-.44-.1-.63-.06-.2-.16-.38-.28-.53a1.28 1.28 0 00-.48-.35c-.2-.09-.42-.13-.68-.13-.5 0-.89.14-1.18.42a2.1 2.1 0 00-.55 1.22h3.27zm-3.3 1.04c.03.37.1.69.2.96a2 2 0 00.4.66c.17.18.37.3.6.4.23.08.49.12.77.12s.52-.03.72-.1c.2-.06.38-.13.53-.21l.4-.22a.7.7 0 01.33-.1c.15 0 .26.05.33.16l.5.63c-.2.23-.41.41-.65.57a3.84 3.84 0 01-1.54.55c-.27.04-.52.06-.78.06-.5 0-.96-.08-1.39-.25a3.18 3.18 0 01-1.87-1.94 4.69 4.69 0 01-.03-3.04 3.24 3.24 0 011.76-1.89 3.6 3.6 0 011.45-.28c.45 0 .87.07 1.25.22a2.7 2.7 0 011.63 1.65c.16.4.24.87.24 1.38 0 .27-.03.44-.08.54-.06.08-.17.13-.32.13h-4.45zm-90.53 20.2v7.17h-1.73v-4.19a4.42 4.42 0 01.06-.74 3.42 3.42 0 01-.45.76l-.32.46a217.55 217.55 0 01-2.34 3.3c-.07.1-.16.19-.26.28-.1.1-.22.14-.36.14h-1.06v-7.18h1.73v4.2c0 .1 0 .22-.02.35 0 .12-.02.25-.04.38a3.54 3.54 0 01.44-.75l.32-.46.46-.63.5-.73 1.4-1.94c.06-.1.15-.2.25-.29.11-.1.23-.14.37-.14h1.05zm11.9 5.94v-4.63h-1.77c-.04.6-.1 1.15-.17 1.64-.07.48-.15.9-.25 1.28a7.5 7.5 0 01-.65 1.71h2.84zm3-.05v3.17c0 .16-.05.29-.15.38-.08.1-.2.14-.35.14h-1.07v-2.4h-5.38v1.91c0 .12-.04.23-.12.34-.07.1-.2.15-.36.15h-1.09v-3.64h.2c.17 0 .33-.02.48-.06.16-.05.3-.14.44-.28.15-.14.28-.34.4-.6.14-.27.25-.62.36-1.06.1-.44.19-.99.26-1.63.08-.65.15-1.42.2-2.32h4.86v5.9h1.31zm8.54-5.9v7.18h-1.73v-4.19a4.96 4.96 0 01.06-.74 3.34 3.34 0 01-.45.76l-.33.46a217.55 217.55 0 01-2.33 3.3c-.07.1-.16.19-.26.28-.1.1-.23.14-.36.14h-1.06v-7.18h1.73v4.2c0 .1 0 .22-.02.35 0 .12-.02.25-.04.38a3.62 3.62 0 01.44-.75l.32-.46.46-.63.5-.73 1.4-1.94c.06-.1.15-.2.25-.29.11-.1.23-.14.37-.14h1.05zm2.29.78c.27-.26.6-.48 1-.64.4-.17.88-.25 1.44-.25a4 4 0 011.19.16c.34.1.63.25.87.43.23.17.41.38.53.61a1.47 1.47 0 01.13 1.15 1.6 1.6 0 01-.55.82 2.1 2.1 0 01-.55.3c.39.15.7.37.94.66.24.29.36.64.36 1.07 0 .35-.08.66-.24.93-.16.27-.37.5-.64.7a3 3 0 01-.92.42 3.8 3.8 0 01-3.12-.46 3 3 0 01-.63-.57l.5-.63c.07-.1.18-.16.31-.16.11 0 .21.04.31.1l.34.23a1.95 1.95 0 001.13.32c.43 0 .76-.1.98-.3.23-.19.34-.43.34-.73a.78.78 0 00-.35-.68c-.23-.16-.6-.24-1.12-.24h-.81v-1.13h.8c.46 0 .81-.08 1.05-.24a.72.72 0 00.37-.63.7.7 0 00-.33-.58 1.58 1.58 0 00-.93-.23 2.25 2.25 0 00-1.08.24l-.31.16a.45.45 0 01-.44.03.62.62 0 01-.18-.2l-.4-.66zm11.51 3.34c-.5.02-.92.06-1.26.13-.34.06-.61.14-.82.24-.2.1-.35.21-.44.34a.74.74 0 00-.13.43c0 .3.09.52.26.65.19.13.42.2.71.2.36 0 .66-.07.92-.2s.51-.32.76-.58v-1.21zm-3.96-3.12a4.26 4.26 0 012.98-1.13c.42 0 .8.07 1.13.2a2.33 2.33 0 011.36 1.46c.12.34.18.71.18 1.12v4.53h-.78a.82.82 0 01-.38-.07c-.1-.05-.16-.15-.21-.3l-.16-.52c-.18.17-.36.31-.53.44a3.3 3.3 0 01-1.14.5 3.21 3.21 0 01-1.54-.05 1.9 1.9 0 01-.66-.38 1.64 1.64 0 01-.44-.6 2.16 2.16 0 01-.06-1.39c.06-.18.16-.36.3-.52.13-.16.31-.31.53-.46.22-.14.49-.27.8-.38a10.73 10.73 0 012.58-.39v-.41c0-.48-.1-.84-.3-1.07-.21-.23-.5-.35-.9-.35a2.15 2.15 0 00-1.18.32l-.38.22a.74.74 0 01-.38.1.51.51 0 01-.3-.1.83.83 0 01-.21-.22l-.31-.55zm14.73-1v7.18h-1.73v-4.19a4.96 4.96 0 01.06-.74 3.34 3.34 0 01-.44.76l-.33.46-.45.63-.51.72-1.38 1.94c-.06.1-.15.2-.26.29-.1.1-.22.14-.36.14h-1.05v-7.18h1.73v4.2l-.03.35c0 .12-.02.25-.04.38a3.7 3.7 0 01.44-.75l.33-.46.45-.63.51-.73 1.39-1.94c.06-.1.15-.2.26-.29.1-.1.23-.14.36-.14h1.05zm-3.13-1.82c.18 0 .32-.02.44-.05.11-.04.2-.1.28-.19a.8.8 0 00.14-.35c.03-.14.05-.32.05-.53H325c.12 0 .2.05.26.16.06.1.1.2.1.32a1.33 1.33 0 01-.63 1.15c-.2.13-.44.23-.72.3-.28.07-.6.1-.94.1-.34 0-.66-.03-.94-.1a2.5 2.5 0 01-.72-.3 1.34 1.34 0 01-.62-1.14c0-.13.03-.24.08-.33a.3.3 0 01.28-.16h1.02c0 .21.01.39.04.53a.8.8 0 00.15.35c.07.09.16.15.27.19.12.03.26.05.44.05zm12.1 1.82v7.18h-1.73v-3.17h-2.8v3.17h-1.73v-7.18h1.73v2.72h2.8v-2.72h1.73zM476.96 98.08c.35 0 .64-.04.88-.13.24-.08.43-.2.57-.33.14-.14.25-.3.3-.5a1.77 1.77 0 000-1.18 1.07 1.07 0 00-.33-.44 1.5 1.5 0 00-.58-.3c-.23-.06-.52-.09-.85-.09h-1.9v2.97h1.9zm-1.9-7.2v2.93h1.5a2.5 2.5 0 001.45-.35c.33-.23.5-.6.5-1.11 0-.53-.15-.9-.45-1.13-.3-.23-.77-.34-1.4-.34h-1.6zm1.6-1.45c.66 0 1.23.06 1.7.19.47.12.86.3 1.15.53.3.24.53.52.67.85a2.85 2.85 0 01.1 1.8c-.07.22-.17.42-.32.62-.15.18-.34.35-.56.5-.23.16-.5.3-.81.4 1.4.31 2.09 1.06 2.09 2.25 0 .43-.08.83-.25 1.2-.16.36-.4.67-.71.94-.32.26-.7.47-1.16.61-.45.15-.98.23-1.57.23h-3.82V89.43h3.49zm10.97 5.7c0-.22-.03-.43-.1-.63-.06-.2-.15-.37-.28-.52a1.28 1.28 0 00-.48-.35c-.19-.1-.41-.14-.67-.14-.5 0-.9.15-1.18.43a2.1 2.1 0 00-.55 1.21h3.26zm-3.3 1.04c.03.37.1.7.2.96a2 2 0 00.4.67c.18.17.37.3.6.39.24.08.5.13.77.13.28 0 .52-.04.72-.1.2-.07.39-.14.54-.22l.4-.22a.7.7 0 01.33-.1c.14 0 .25.06.32.17l.5.63c-.2.22-.4.41-.65.56a3.83 3.83 0 01-1.53.56c-.27.03-.53.05-.78.05-.5 0-.97-.08-1.4-.24a3.18 3.18 0 01-1.86-1.94 4.69 4.69 0 01-.04-3.05 3.24 3.24 0 011.76-1.89 3.6 3.6 0 011.45-.28c.46 0 .87.08 1.26.22a2.7 2.7 0 011.63 1.66c.16.4.24.86.24 1.38 0 .26-.03.44-.09.53-.05.09-.16.13-.32.13h-4.44zm8.88 1.52c.2.23.41.4.64.5a1.94 1.94 0 001.46 0c.21-.1.39-.25.53-.45.15-.2.27-.45.35-.75.08-.31.12-.67.12-1.09 0-.42-.04-.77-.1-1.06-.07-.3-.17-.53-.3-.72a1.14 1.14 0 00-.46-.4 1.4 1.4 0 00-.6-.12c-.37 0-.67.08-.92.23-.26.15-.5.36-.72.64v3.22zm-.09-4.34c.3-.33.63-.6 1-.8a2.7 2.7 0 012.39-.07c.33.16.6.4.84.71.24.31.42.7.54 1.15a5.63 5.63 0 01-.02 3.05 3.6 3.6 0 01-.62 1.2 2.84 2.84 0 01-2.25 1.07c-.4 0-.74-.07-1.02-.19-.29-.12-.54-.3-.77-.52v2.94h-1.73v-9.52h1.06c.22 0 .37.1.44.31l.14.67zm12.45.54a.82.82 0 01-.15.15c-.05.04-.12.06-.21.06a.49.49 0 01-.26-.08 4.82 4.82 0 00-.72-.37 1.8 1.8 0 00-.6-.08c-.3 0-.57.06-.8.17-.22.1-.41.26-.57.47-.15.2-.26.45-.33.75a3.96 3.96 0 000 2c.09.3.2.56.36.76a1.56 1.56 0 001.3.62 1.87 1.87 0 001.1-.32l.3-.23c.09-.07.19-.1.3-.1.13 0 .24.05.31.16l.5.63a3.24 3.24 0 01-2.07 1.12c-.25.03-.5.05-.75.05a3 3 0 01-2.28-.97 3.5 3.5 0 01-.7-1.16 4.59 4.59 0 01-.26-1.58c0-.52.08-1.01.23-1.46.15-.45.37-.84.67-1.17.3-.33.66-.59 1.09-.78.43-.18.93-.28 1.5-.28.53 0 1 .1 1.4.26.41.18.77.42 1.1.75l-.46.63zm8.77-.24h-2.56v5.9h-1.73v-5.9h-2.56v-1.28h6.85v1.28zm6.3-.83a.97.97 0 01.81-.45h1.36l-1.67 2.66c-.12.19-.24.34-.36.46-.12.11-.27.2-.44.26.24.07.43.18.57.32.16.13.29.3.41.52l1.68 2.96h-1.2c-.3 0-.53-.05-.7-.16a1.3 1.3 0 01-.43-.44l-1.06-1.98a.93.93 0 00-.87-.52h-.65v3.1h-1.73v-7.18h1.73v2.96h.56a.9.9 0 00.47-.1.9.9 0 00.3-.34l1.23-2.07zm8.11 3.66c-.5.03-.91.07-1.26.14-.34.06-.61.14-.82.23-.2.1-.35.22-.44.35a.74.74 0 00-.13.42c0 .3.09.52.27.65.18.14.41.2.7.2.36 0 .66-.06.92-.19s.52-.33.76-.59v-1.2zm-3.96-3.11a4.26 4.26 0 012.98-1.14c.42 0 .8.07 1.13.21a2.33 2.33 0 011.36 1.45c.12.34.18.72.18 1.12v4.54h-.78a.83.83 0 01-.38-.07c-.09-.05-.16-.15-.21-.3l-.16-.52c-.18.16-.35.3-.53.43a3.27 3.27 0 01-1.14.5 3.23 3.23 0 01-1.54-.05c-.25-.08-.48-.2-.66-.37a1.65 1.65 0 01-.44-.6 2.15 2.15 0 01-.06-1.4c.06-.18.16-.35.3-.51.13-.17.31-.32.53-.46.22-.15.5-.28.8-.38a10.73 10.73 0 012.58-.39v-.42c0-.48-.1-.83-.3-1.06-.2-.23-.5-.35-.9-.35a2.15 2.15 0 00-1.18.32l-.38.22a.74.74 0 01-.38.1.51.51 0 01-.3-.1.83.83 0 01-.21-.22l-.3-.55zm-93.57 23v7.18h-1.73v-4.2a4.42 4.42 0 01.06-.74 3.42 3.42 0 01-.45.77 115.54 115.54 0 01-.77 1.09l-.51.71-1.38 1.95c-.07.1-.15.2-.26.29-.1.09-.22.14-.36.14h-1.06v-7.19h1.73v4.2c0 .1 0 .22-.02.35 0 .13-.02.26-.04.39a3.63 3.63 0 01.44-.76 38.57 38.57 0 00.78-1.08l.5-.73 1.4-1.95c.06-.1.15-.2.25-.28.11-.1.23-.14.37-.14h1.05zm13.37 7.18h-1.73v-5.9h-2.8v5.9h-1.73v-7.18h6.26v7.18zm4.44-1.86c.2.23.4.4.64.5a1.93 1.93 0 001.46 0c.21-.1.39-.25.53-.45.15-.2.26-.45.34-.75.08-.31.12-.67.12-1.09 0-.42-.03-.77-.1-1.06-.07-.3-.16-.53-.29-.72a1.14 1.14 0 00-.46-.4 1.41 1.41 0 00-.6-.12c-.37 0-.67.08-.93.23-.25.15-.49.36-.71.64v3.22zm-.1-4.34c.3-.33.64-.6 1.01-.8a2.7 2.7 0 012.39-.07c.32.16.6.4.84.71.23.31.42.7.54 1.15a5.67 5.67 0 01-.02 3.05c-.14.46-.35.86-.62 1.2a2.84 2.84 0 01-2.25 1.07c-.4 0-.74-.07-1.03-.19-.28-.13-.54-.3-.76-.52v2.94h-1.73v-9.52h1.06c.22 0 .37.1.44.31l.14.67zm10.5-1.1c.52 0 1 .1 1.44.26a3.15 3.15 0 011.84 1.9c.17.46.25.97.25 1.53 0 .57-.08 1.09-.25 1.54a3.08 3.08 0 01-1.84 1.91c-.43.18-.92.26-1.45.26-.54 0-1.02-.08-1.46-.26a3.16 3.16 0 01-1.85-1.9 4.44 4.44 0 01-.25-1.55c0-.56.08-1.07.25-1.53.17-.46.41-.84.72-1.16.31-.32.69-.56 1.13-.74.44-.17.93-.26 1.46-.26zm0 6.07c.59 0 1.03-.2 1.31-.6a3 3 0 00.44-1.76c0-.78-.15-1.37-.44-1.77-.28-.41-.72-.61-1.32-.61-.6 0-1.06.2-1.35.61-.29.4-.43 1-.43 1.77s.14 1.36.43 1.76c.3.4.75.6 1.35.6zm10.72-4.67H467v5.9h-1.73v-7.18h4.87v1.28zm3.75 4.04c.2.23.41.4.64.5a1.93 1.93 0 001.46 0c.21-.1.4-.25.54-.45.15-.2.26-.45.34-.75.08-.31.12-.67.12-1.09 0-.42-.04-.77-.1-1.06-.07-.3-.17-.53-.3-.72a1.14 1.14 0 00-.46-.4 1.41 1.41 0 00-.6-.12c-.36 0-.67.08-.92.23-.25.15-.5.36-.72.64v3.22zm-.09-4.34c.3-.33.63-.6 1-.8a2.7 2.7 0 012.4-.07c.32.16.6.4.83.71.24.31.42.7.55 1.15a5.67 5.67 0 01-.02 3.05c-.15.46-.36.86-.63 1.2a2.84 2.84 0 01-2.25 1.07c-.4 0-.74-.07-1.02-.19-.29-.13-.54-.3-.77-.52v2.94h-1.72v-9.52h1.05c.23 0 .37.1.44.31l.14.67zm11.1 3.13c-.5.03-.92.07-1.26.13-.34.07-.61.14-.82.24-.2.1-.35.22-.44.35a.74.74 0 00-.13.42c0 .3.09.52.27.65.18.14.41.2.7.2.36 0 .66-.06.92-.19s.52-.33.76-.59v-1.2zm-3.96-3.11a4.26 4.26 0 012.98-1.14c.42 0 .8.07 1.13.21a2.34 2.34 0 011.36 1.45c.12.34.18.72.18 1.12v4.54h-.78a.82.82 0 01-.38-.07c-.1-.05-.16-.15-.21-.3l-.16-.52c-.18.16-.36.3-.53.43a3.22 3.22 0 01-1.14.5 3.21 3.21 0 01-1.54-.05c-.26-.08-.48-.2-.66-.37a1.64 1.64 0 01-.44-.6 2.15 2.15 0 01-.06-1.4c.06-.18.16-.35.3-.51.13-.17.31-.32.53-.47.22-.14.49-.27.8-.37a10.73 10.73 0 012.58-.38V119c0-.48-.1-.83-.3-1.06-.21-.23-.5-.35-.9-.35a2.15 2.15 0 00-1.18.32l-.38.22a.73.73 0 01-.38.1.51.51 0 01-.3-.1.83.83 0 01-.21-.22l-.3-.55zm16.6-1.02v7.2H496v-4a8.23 8.23 0 01.1-1.13l-2.1 3.88c-.11.2-.27.3-.5.3h-.18a.51.51 0 01-.49-.3l-2.14-3.9a6.7 6.7 0 01.11 1.14v4h-1.56v-7.19h1.43c.12 0 .24.03.35.08.13.05.23.15.3.3l1.7 3.03a5.48 5.48 0 01.4.92c.05-.16.1-.32.17-.48.06-.16.13-.3.2-.44l1.69-3.02a.62.62 0 01.3-.31.88.88 0 01.35-.08h1.43zm11.04 0v7.2h-1.56v-4a8.23 8.23 0 01.1-1.13l-2.11 3.88c-.1.2-.27.3-.5.3h-.17a.51.51 0 01-.5-.3l-2.14-3.9a6.7 6.7 0 01.12 1.14v4h-1.57v-7.19h1.43c.12 0 .24.03.36.08s.22.15.3.3l1.7 3.03a5.48 5.48 0 01.39.92l.17-.48.21-.44 1.68-3.02a.62.62 0 01.3-.31.88.88 0 01.36-.08h1.43zm9.16.02v7.18h-1.73v-4.2a4.96 4.96 0 01.07-.74 3.34 3.34 0 01-.45.77 115.54 115.54 0 01-.78 1.09l-.5.71-1.39 1.95c-.06.1-.15.2-.26.29-.1.09-.22.14-.35.14h-1.06v-7.19h1.73v4.2c0 .1 0 .22-.02.35l-.04.39a3.71 3.71 0 01.44-.76 38.57 38.57 0 00.77-1.08l.51-.73 1.39-1.95c.06-.1.15-.2.26-.28.1-.1.23-.14.36-.14h1.05zm4.44 5.32c.2.23.4.4.64.5a1.93 1.93 0 001.46 0c.21-.1.39-.25.53-.45.15-.2.27-.45.34-.75.08-.31.12-.67.12-1.09 0-.42-.03-.77-.1-1.06-.07-.3-.16-.53-.29-.72a1.14 1.14 0 00-.46-.4 1.4 1.4 0 00-.6-.12c-.37 0-.67.08-.93.23-.25.15-.49.36-.71.64v3.22zm-.1-4.34c.3-.33.64-.6 1.01-.8a2.7 2.7 0 012.39-.07c.32.16.6.4.84.71.24.31.42.7.54 1.15a5.63 5.63 0 01-.02 3.05 3.6 3.6 0 01-.62 1.2 2.84 2.84 0 01-2.25 1.07c-.4 0-.74-.07-1.03-.19-.28-.13-.54-.3-.76-.52v2.94h-1.73v-9.52h1.06c.22 0 .37.1.44.31l.14.67zm10.5-1.1c.52 0 1 .1 1.44.26a3.15 3.15 0 011.84 1.9c.17.46.25.97.25 1.53 0 .57-.08 1.09-.25 1.54a3.08 3.08 0 01-1.84 1.91c-.43.18-.92.26-1.45.26-.53 0-1.02-.08-1.46-.26a3.16 3.16 0 01-1.85-1.9 4.44 4.44 0 01-.25-1.55c0-.56.08-1.07.25-1.53.17-.46.41-.84.72-1.16.31-.32.7-.56 1.13-.74.44-.17.93-.26 1.46-.26zm0 6.07c.59 0 1.03-.2 1.31-.6a3 3 0 00.44-1.76c0-.78-.14-1.37-.44-1.77-.28-.41-.72-.61-1.32-.61-.6 0-1.06.2-1.35.61-.29.4-.43 1-.43 1.77s.14 1.36.43 1.76c.3.4.75.6 1.35.6zm8.79.05c.36 0 .65-.1.86-.27a.9.9 0 00.32-.73c0-.13-.02-.25-.06-.36a.64.64 0 00-.18-.3.9.9 0 00-.36-.2 1.98 1.98 0 00-.58-.07h-1.3v1.92h1.3zm-1.3-4.88v1.89h1.14c.17 0 .32-.03.46-.07.14-.06.27-.13.37-.21.1-.1.18-.2.24-.33a1 1 0 00.02-.72.66.66 0 00-.18-.28.9.9 0 00-.36-.2 1.66 1.66 0 00-.55-.08h-1.13zm1.2-1.12c.44 0 .83.04 1.16.13.33.09.6.2.82.36.21.16.37.34.48.56.1.2.15.44.15.68a2 2 0 01-.06.48 1.56 1.56 0 01-.62.9c-.17.13-.4.22-.66.3.24.05.46.12.65.21.2.1.37.2.5.34a1.52 1.52 0 01.44 1.1 1.85 1.85 0 01-.83 1.6c-.25.18-.55.3-.88.4-.33.08-.68.12-1.05.12h-2.94v-7.18h2.83zm9 4.11c-.5.03-.92.07-1.26.13a3.3 3.3 0 00-.82.24c-.2.1-.35.22-.44.35a.75.75 0 00-.13.42c0 .3.08.52.26.65.18.14.42.2.7.2.36 0 .67-.06.92-.19.27-.13.52-.33.77-.59v-1.2zm-3.96-3.11a4.26 4.26 0 012.98-1.14c.42 0 .8.07 1.13.21a2.32 2.32 0 011.35 1.45c.13.34.19.72.19 1.12v4.54h-.79a.82.82 0 01-.38-.07c-.08-.05-.15-.15-.2-.3l-.16-.52c-.18.16-.36.3-.53.43a3.18 3.18 0 01-1.14.5 3.21 3.21 0 01-1.54-.05c-.26-.08-.48-.2-.67-.37a1.66 1.66 0 01-.43-.6c-.1-.25-.16-.53-.16-.86a1.68 1.68 0 01.39-1.05c.14-.17.32-.32.54-.47.22-.14.49-.27.8-.37a10.73 10.73 0 012.58-.38V119c0-.48-.1-.83-.31-1.06-.2-.23-.5-.35-.89-.35a2.15 2.15 0 00-1.18.32l-.39.22a.73.73 0 01-.38.1.51.51 0 01-.3-.1.84.84 0 01-.2-.22l-.31-.55zm14.53-1v7.18h-1.73v-3.18h-2.8v3.18h-1.73v-7.18h1.73v2.72h2.8v-2.72h1.73zm9.17 0v7.18h-1.73v-4.2a4.96 4.96 0 01.06-.74 3.34 3.34 0 01-.45.77l-.32.45-.45.64-.51.71-1.38 1.95c-.07.1-.15.2-.26.29a.5.5 0 01-.36.14h-1.06v-7.19h1.73v4.2c0 .1 0 .22-.02.35 0 .13-.02.26-.04.39a3.8 3.8 0 01.44-.76l.32-.45.46-.63.5-.73 1.4-1.95c.06-.1.15-.2.25-.28.11-.1.23-.14.37-.14h1.05zm7.33 2.76c0-.22-.03-.43-.1-.63a1.28 1.28 0 00-.76-.88 1.6 1.6 0 00-.67-.13c-.5 0-.9.15-1.18.43a2.1 2.1 0 00-.55 1.21h3.26zm-3.3 1.04c.04.37.1.7.2.96a1.64 1.64 0 001 1.06c.24.08.5.13.77.13.28 0 .52-.04.73-.1a7.91 7.91 0 00.93-.43c.11-.07.22-.1.33-.1.15 0 .25.05.32.16l.5.63a2.97 2.97 0 01-1.4.93 5.49 5.49 0 01-1.57.25c-.49 0-.95-.09-1.38-.25a3.17 3.17 0 01-1.87-1.94 4.69 4.69 0 01-.04-3.05 3.23 3.23 0 011.76-1.89 3.6 3.6 0 011.46-.28c.45 0 .87.08 1.25.22a2.72 2.72 0 011.63 1.66c.16.4.24.86.24 1.38 0 .26-.03.44-.09.53-.05.09-.16.13-.32.13h-4.44zM168.37 273.63h-3.05v8.58h-1.88v-8.58h-3.05v-1.54h7.98v1.54zm5 4.16c0-.22-.03-.43-.1-.63-.06-.2-.15-.37-.28-.52a1.28 1.28 0 00-.48-.35 1.6 1.6 0 00-.67-.14c-.5 0-.9.15-1.19.43a2.1 2.1 0 00-.54 1.21h3.26zm-3.3 1.04c.03.37.1.7.2.96a2 2 0 00.4.67c.17.17.37.3.6.4.23.07.49.12.77.12s.52-.04.72-.1a7.91 7.91 0 00.93-.43.7.7 0 01.34-.1c.14 0 .25.05.32.16l.5.63c-.2.22-.4.41-.65.56a3.78 3.78 0 01-1.54.56c-.26.04-.52.05-.77.05-.5 0-.97-.08-1.4-.24a3.18 3.18 0 01-1.87-1.94 4.69 4.69 0 01-.03-3.05 3.24 3.24 0 011.76-1.89 3.6 3.6 0 011.45-.27c.45 0 .87.07 1.25.21a2.7 2.7 0 011.64 1.66c.16.4.23.86.23 1.38 0 .26-.02.44-.08.53-.06.1-.16.13-.32.13h-4.45zm12.3-2.28a.8.8 0 01-.16.15c-.04.04-.11.06-.2.06a.48.48 0 01-.27-.08 5.13 5.13 0 00-.3-.18 2 2 0 00-1.81-.1c-.23.1-.42.26-.57.47-.15.2-.27.45-.34.75-.07.29-.11.62-.11.98 0 .39.04.73.12 1.03.08.3.2.55.35.75a1.56 1.56 0 001.3.62 1.86 1.86 0 001.1-.32 10 10 0 00.3-.23c.1-.07.2-.1.3-.1.14 0 .24.05.31.16l.5.63a3.24 3.24 0 01-2.06 1.12c-.26.04-.5.05-.76.05a3 3 0 01-2.28-.97c-.3-.32-.53-.7-.7-1.16a4.59 4.59 0 01-.25-1.58c0-.52.07-1.01.22-1.46.16-.45.38-.84.67-1.17.3-.33.66-.59 1.1-.78.43-.18.93-.27 1.5-.27.53 0 1 .08 1.4.25.4.18.77.42 1.1.75l-.46.63zm8.77-.24h-2.57v5.9h-1.72v-5.9h-2.56v-1.28h6.85v1.28zm8.47-1.28v7.18h-1.73V278a4.96 4.96 0 01.06-.74 3.34 3.34 0 01-.45.77l-.33.45-.44.64-.51.71-1.38 1.95c-.07.1-.16.2-.26.29a.5.5 0 01-.36.14h-1.06v-7.19h1.73v4.2c0 .1 0 .22-.02.35 0 .13-.02.26-.04.39a3.8 3.8 0 01.44-.76c.08-.11.2-.26.32-.45l.46-.63.5-.73 1.4-1.95c.06-.1.15-.2.25-.28.11-.1.23-.14.37-.14h1.05zm4.43 5.32c.2.23.41.4.64.5a1.94 1.94 0 001.46 0c.21-.1.4-.25.54-.45.15-.2.26-.45.34-.75.08-.31.12-.67.12-1.09 0-.42-.04-.77-.1-1.06-.07-.3-.17-.53-.3-.72a1.14 1.14 0 00-.46-.4 1.4 1.4 0 00-.6-.12c-.36 0-.67.08-.92.23-.25.15-.5.36-.72.64v3.22zm-.09-4.34c.3-.33.63-.6 1-.8a2.7 2.7 0 012.4-.07c.32.16.6.4.83.71.24.31.42.7.55 1.15a5.63 5.63 0 01-.02 3.05c-.15.46-.36.86-.63 1.2a2.83 2.83 0 01-2.25 1.07c-.4 0-.74-.07-1.02-.19-.29-.12-.54-.3-.77-.52v2.94h-1.72v-9.52h1.05c.23 0 .37.1.44.31l.14.67zm10.49-1.1c.53 0 1.01.1 1.45.26a3.16 3.16 0 011.84 1.9c.17.46.25.97.25 1.53 0 .57-.08 1.09-.25 1.54a3.1 3.1 0 01-1.84 1.91c-.44.18-.92.26-1.45.26-.54 0-1.03-.08-1.47-.25a3.15 3.15 0 01-1.84-1.92 4.44 4.44 0 01-.26-1.54c0-.56.09-1.07.26-1.53.17-.46.4-.84.72-1.16.3-.32.69-.56 1.12-.74.44-.17.93-.25 1.47-.25zm0 6.07c.6 0 1.03-.2 1.32-.6a3 3 0 00.43-1.76c0-.78-.14-1.37-.43-1.77-.28-.4-.73-.61-1.32-.61-.61 0-1.06.2-1.35.61-.3.41-.44 1-.44 1.77s.15 1.36.44 1.76c.29.4.74.6 1.35.6zm8.8.05c.35 0 .64-.1.85-.27a.9.9 0 00.32-.73c0-.13-.01-.25-.05-.36a.66.66 0 00-.18-.3.9.9 0 00-.37-.2 2 2 0 00-.57-.07h-1.3v1.93h1.3zm-1.3-4.88v1.89h1.14c.16 0 .32-.03.46-.07a1 1 0 00.6-.53 1 1 0 00.03-.73.68.68 0 00-.19-.28.91.91 0 00-.36-.2 1.66 1.66 0 00-.54-.08h-1.14zm1.19-1.12c.45 0 .84.04 1.16.13.34.09.6.21.82.36a1.46 1.46 0 01.63 1.24 2 2 0 01-.06.49c-.04.16-.1.32-.2.47-.1.16-.24.3-.41.42-.18.13-.4.23-.66.3.24.05.45.12.65.21.2.1.36.2.5.35a1.53 1.53 0 01.44 1.1 1.85 1.85 0 01-.84 1.6c-.25.17-.54.3-.88.38-.33.09-.68.13-1.04.13h-2.94v-7.18h2.83zm9 4.11c-.5.03-.92.07-1.26.14-.34.06-.61.14-.82.23-.2.1-.35.22-.44.35a.74.74 0 00-.13.42c0 .3.09.53.27.66.18.13.41.2.7.2a2.06 2.06 0 001.68-.79v-1.2zm-3.96-3.11a4.26 4.26 0 012.98-1.14c.42 0 .8.07 1.13.21a2.34 2.34 0 011.36 1.45c.12.34.18.72.18 1.12v4.54h-.78a.82.82 0 01-.38-.07c-.1-.05-.16-.15-.21-.3l-.16-.52c-.18.16-.36.3-.53.43a3.26 3.26 0 01-1.14.5 3.22 3.22 0 01-1.54-.05c-.26-.08-.48-.2-.66-.37a1.63 1.63 0 01-.44-.6 2.15 2.15 0 01-.06-1.4c.06-.18.16-.35.3-.51.13-.17.31-.32.53-.46.22-.15.49-.27.8-.38a10.71 10.71 0 012.58-.38v-.43c0-.48-.1-.83-.3-1.06-.21-.23-.5-.35-.9-.35a2.15 2.15 0 00-1.18.32l-.38.22a.73.73 0 01-.38.1.5.5 0 01-.3-.1.83.83 0 01-.21-.22l-.3-.55zm14.54-1v7.18h-1.73v-3.18h-2.8v3.18h-1.73v-7.18h1.73v2.72h2.8v-2.72h1.73zm7.34 2.76c0-.22-.04-.43-.1-.63-.06-.2-.16-.37-.28-.52a1.28 1.28 0 00-.48-.35 1.6 1.6 0 00-.68-.14c-.5 0-.9.15-1.18.43a2.1 2.1 0 00-.55 1.21h3.27zm-3.3 1.04c.03.37.1.7.2.96a2 2 0 00.4.67c.17.17.37.3.6.4.23.07.49.12.77.12s.52-.04.72-.1a7.91 7.91 0 00.93-.43.7.7 0 01.33-.1c.15 0 .26.05.33.16l.5.63c-.2.22-.41.41-.65.56a3.78 3.78 0 01-1.54.56c-.27.04-.53.05-.78.05-.5 0-.96-.08-1.4-.24a3.18 3.18 0 01-1.86-1.94 4.69 4.69 0 01-.04-3.05 3.24 3.24 0 011.76-1.89 3.6 3.6 0 011.46-.27c.45 0 .87.07 1.25.21a2.7 2.7 0 011.63 1.66c.16.4.24.86.24 1.38 0 .26-.03.44-.08.53-.06.1-.17.13-.33.13h-4.44zM387.57 277.32c.35 0 .65-.04.9-.13.26-.09.48-.21.64-.37.18-.16.3-.36.39-.59a2.29 2.29 0 000-1.5c-.08-.23-.21-.41-.38-.57a1.64 1.64 0 00-.63-.35 2.93 2.93 0 00-.92-.12h-1.4v3.63h1.4zm0-5.09c.68 0 1.27.08 1.76.24.5.16.9.38 1.23.66.32.29.56.63.71 1.02a3.61 3.61 0 010 2.65c-.17.41-.41.76-.74 1.06-.33.3-.74.52-1.23.68-.5.17-1.07.25-1.73.25h-1.4v3.56h-1.88v-10.12h3.28zm10.4 5.7c0-.22-.02-.43-.09-.63-.06-.2-.15-.37-.28-.52a1.27 1.27 0 00-.48-.35c-.2-.09-.42-.13-.67-.13-.5 0-.9.14-1.19.42-.28.29-.46.7-.54 1.21h3.26zm-3.29 1.05c.03.37.1.69.2.96.1.26.24.48.4.66.17.17.37.3.6.4.23.08.49.12.77.12s.52-.03.72-.1c.2-.06.38-.14.53-.21l.4-.22c.12-.07.23-.1.34-.1.14 0 .25.05.32.16l.5.63c-.2.23-.41.41-.65.57a3.87 3.87 0 01-1.54.55c-.26.04-.52.06-.77.06-.5 0-.97-.08-1.4-.25a3.19 3.19 0 01-1.87-1.94 4.69 4.69 0 01-.03-3.04 3.24 3.24 0 011.76-1.89 3.6 3.6 0 011.45-.28c.45 0 .87.07 1.25.21a2.7 2.7 0 011.63 1.66c.16.4.24.87.24 1.38 0 .26-.02.44-.08.54-.06.08-.16.13-.32.13h-4.45zm13.81 3.37h-1.72v-5.86H405c-.05.88-.14 1.64-.26 2.28-.11.64-.25 1.18-.42 1.62-.16.44-.34.8-.54 1.07s-.4.48-.63.63c-.22.15-.45.24-.69.29-.24.05-.48.08-.72.08a1.7 1.7 0 01-.57-.07c-.11-.04-.17-.1-.17-.19v-1.07h.41c.15 0 .3-.03.46-.07.16-.05.3-.15.45-.29.14-.14.28-.35.41-.62.13-.27.25-.62.36-1.06.11-.44.21-.98.3-1.62.08-.64.14-1.4.2-2.3h4.9v7.18zm9.16-7.18v7.18h-1.73v-4.2a4.94 4.94 0 01.07-.73 3.42 3.42 0 01-.45.76l-.33.45-.45.64-.51.72-1.38 1.94c-.06.1-.15.2-.26.29-.1.1-.22.14-.36.14h-1.05v-7.18h1.73v4.19l-.02.36-.05.38a3.62 3.62 0 01.44-.75l.33-.46.45-.63.51-.73 1.39-1.94c.06-.1.15-.2.26-.29.1-.1.23-.14.36-.14h1.05zm2.29.78c.27-.26.6-.48 1-.64.4-.17.89-.25 1.45-.25.44 0 .84.05 1.18.16.35.1.64.24.87.43.24.17.42.38.54.61a1.47 1.47 0 01.13 1.15 1.67 1.67 0 01-.55.82c-.16.12-.34.22-.56.3.4.15.7.37.94.66.25.29.37.64.37 1.07 0 .35-.08.66-.25.93-.16.27-.37.5-.63.7a3.8 3.8 0 01-4.05-.03 2.97 2.97 0 01-.62-.58l.5-.63c.06-.1.17-.16.31-.16.1 0 .21.03.3.1l.34.23a1.95 1.95 0 001.13.32c.43 0 .76-.1.99-.3.22-.19.33-.43.33-.73a.78.78 0 00-.35-.68c-.23-.16-.6-.24-1.12-.24h-.8v-1.13h.8c.46 0 .8-.08 1.05-.24a.72.72 0 00.36-.63.7.7 0 00-.32-.58 1.58 1.58 0 00-.94-.24 2.21 2.21 0 00-1.08.25c-.12.06-.22.1-.3.16a.45.45 0 01-.44.04.62.62 0 01-.19-.2l-.39-.67z" fill="#5E78FF"/><circle cx="105.65" cy="106.16" r="104.2" stroke="#5E78FF" stroke-width="2" stroke-dasharray="5.5 5.5"/><circle cx="303.46" cy="106.16" r="104.2" stroke="#5E78FF" stroke-width="2" stroke-dasharray="5.5 5.5"/><circle cx="206.11" cy="277.16" r="104.2" stroke="#5E78FF" stroke-width="2" stroke-dasharray="5.5 5.5"/><circle cx="404.48" cy="277.16" r="104.2" stroke="#5E78FF" stroke-width="2" stroke-dasharray="5.5 5.5"/></svg>