<svg width="921" height="194" fill="none" xmlns="http://www.w3.org/2000/svg"><circle cx="460.25" cy="96.61" r="95.43" fill="#fff" stroke="#5E78FF" stroke-width="2" stroke-dasharray="5.5 5.5"/><path d="M80.13 85.08c0 .74-.12 1.43-.37 2.06A4.8 4.8 0 0175 90.25a5.5 5.5 0 01-2.1-.39 4.84 4.84 0 01-2.66-2.72 5.64 5.64 0 01-.38-2.06c0-.75.13-1.43.38-2.06a4.76 4.76 0 012.67-2.72 5.58 5.58 0 014.79.3 4.67 4.67 0 012.26 3.07c.1.44.16.91.16 1.4zm-1.93 0c0-.56-.07-1.06-.22-1.5a3.2 3.2 0 00-.64-1.12c-.27-.3-.6-.54-1-.7-.4-.17-.84-.25-1.33-.25-.5 0-.95.08-1.34.24a2.8 2.8 0 00-1.65 1.84c-.15.43-.22.93-.22 1.49 0 .55.07 1.05.22 1.5a2.84 2.84 0 001.64 1.82c.4.16.85.24 1.35.24.49 0 .93-.08 1.33-.25.4-.16.73-.4 1-.7.28-.3.5-.68.64-1.12.15-.44.22-.94.22-1.5zm11.77 3.78v3.17c0 .16-.05.28-.14.38-.1.09-.21.14-.36.14H88.4v-2.41h-6v-7.18h1.73v5.9h2.8v-5.9h1.72v5.9h1.33zm6.59-3.14c0-.22-.03-.43-.1-.63-.06-.2-.15-.38-.28-.52a1.28 1.28 0 00-.48-.35c-.2-.1-.42-.14-.67-.14-.5 0-.9.14-1.19.43a2.1 2.1 0 00-.54 1.21h3.26zm-3.3 1.04c.03.37.1.7.2.96a2 2 0 00.4.67c.17.17.37.3.6.39.23.08.49.13.77.13s.52-.04.72-.1c.2-.07.38-.14.53-.22l.4-.22c.12-.06.23-.1.34-.1.14 0 .25.06.32.17l.5.63a2.96 2.96 0 01-1.4.93 5.6 5.6 0 01-1.57.25c-.5 0-.96-.09-1.39-.25a3.18 3.18 0 01-1.87-1.94 4.69 4.69 0 01-.03-3.05 3.24 3.24 0 011.76-1.89 3.6 3.6 0 011.45-.28c.45 0 .87.08 1.25.22a2.7 2.7 0 011.63 1.66c.16.4.24.86.24 1.38 0 .26-.03.44-.08.53-.06.09-.16.13-.32.13h-4.45zm13.4-3.8v7.18h-1.72v-3.18h-2.8v3.18h-1.73v-7.18h1.73v2.72h2.8v-2.72h1.73zm7.01.45a.96.96 0 01.8-.45h1.36l-1.67 2.66a2.4 2.4 0 01-.35.46c-.13.11-.27.2-.45.26.24.07.43.18.58.32.15.13.28.3.4.52l1.68 2.96h-1.2c-.3 0-.53-.05-.7-.16a1.3 1.3 0 01-.43-.44l-1.05-1.99a.94.94 0 00-.88-.5h-.65v3.09h-1.73v-7.18h1.73v2.96h.56a.9.9 0 00.47-.1.9.9 0 00.3-.34l1.23-2.07zm8.1 3.66c-.5.03-.91.07-1.25.13-.34.07-.62.14-.82.24-.2.1-.36.22-.44.35a.75.75 0 00-.14.42c0 .3.1.52.27.65.18.13.42.2.7.2.36 0 .67-.06.92-.19.27-.13.52-.33.77-.59v-1.2zm-3.96-3.11a4.26 4.26 0 012.99-1.14c.42 0 .8.07 1.12.21a2.31 2.31 0 011.36 1.45c.12.34.18.72.18 1.12v4.54h-.78a.83.83 0 01-.38-.07c-.09-.05-.16-.15-.2-.3l-.16-.52-.53.43a3.23 3.23 0 01-1.15.5 3.23 3.23 0 01-1.54-.05 1.9 1.9 0 01-.66-.37 1.66 1.66 0 01-.44-.6c-.1-.25-.15-.53-.15-.86a1.67 1.67 0 01.39-1.05c.14-.17.32-.32.53-.47.22-.14.5-.27.81-.37a10.73 10.73 0 012.58-.39v-.42c0-.48-.1-.83-.31-1.06-.2-.24-.5-.35-.9-.35a2.15 2.15 0 00-1.17.32l-.39.22a.74.74 0 01-.38.1.51.51 0 01-.3-.1.85.85 0 01-.2-.22l-.32-.55zm-43.04 30.18h-1.73v-5.9h-2.8v5.9H68.5v-7.18h6.26v7.18zm4.44-1.86c.2.23.4.4.63.5a1.93 1.93 0 001.47 0c.2-.1.38-.25.53-.45.15-.2.26-.45.34-.75.08-.31.12-.67.12-1.09 0-.42-.03-.77-.1-1.06-.07-.3-.16-.54-.29-.72a1.14 1.14 0 00-.46-.4 1.4 1.4 0 00-.61-.12c-.36 0-.67.08-.92.23a2.7 2.7 0 00-.71.64v3.22zm-.1-4.34c.3-.34.63-.6 1-.8a2.68 2.68 0 012.4-.07c.32.16.6.4.83.71.24.31.42.7.55 1.15a5.64 5.64 0 01-.02 3.05c-.15.46-.35.86-.62 1.2a2.85 2.85 0 01-2.25 1.07c-.4 0-.74-.07-1.03-.19-.28-.13-.54-.3-.76-.52v2.94h-1.73v-9.52h1.06c.22 0 .37.1.44.31l.14.67zm10.49-1.1c.53 0 1.01.09 1.45.26a3.12 3.12 0 011.84 1.9c.17.46.25.97.25 1.53 0 .57-.08 1.08-.25 1.54a3.1 3.1 0 01-1.84 1.91 3.9 3.9 0 01-1.45.26c-.54 0-1.02-.08-1.46-.26a3.17 3.17 0 01-1.85-1.9 4.45 4.45 0 01-.25-1.55c0-.56.08-1.07.25-1.53a3.2 3.2 0 011.85-1.9c.44-.17.92-.26 1.46-.26zm0 6.07c.6 0 1.04-.2 1.32-.6a3 3 0 00.44-1.76c0-.78-.15-1.37-.44-1.77-.28-.41-.72-.61-1.32-.61-.6 0-1.06.2-1.35.61-.29.4-.44 1-.44 1.77s.15 1.36.44 1.76c.3.4.74.6 1.35.6zm10.49-3.19c0-.22-.03-.43-.1-.63-.06-.2-.15-.38-.28-.52a1.27 1.27 0 00-.48-.35c-.2-.1-.42-.14-.67-.14-.5 0-.9.14-1.19.43a2.1 2.1 0 00-.54 1.21h3.26zm-3.3 1.04c.03.37.1.7.2.96a2 2 0 00.4.67c.17.17.37.3.6.39.23.08.49.13.77.13s.52-.04.72-.1c.2-.07.38-.14.53-.22l.4-.22c.12-.06.23-.1.34-.1.14 0 .25.06.32.17l.5.63c-.2.22-.41.41-.65.56a3.9 3.9 0 01-1.54.56c-.27.03-.52.05-.78.05-.5 0-.96-.08-1.39-.24a3.18 3.18 0 01-1.87-1.94 4.69 4.69 0 01-.03-3.05 3.23 3.23 0 011.76-1.89 3.6 3.6 0 011.45-.28c.45 0 .87.08 1.25.22a2.7 2.7 0 011.63 1.66c.16.4.24.86.24 1.38 0 .26-.03.44-.08.53-.06.09-.17.13-.32.13h-4.45zm11.44-3.35a.96.96 0 01.8-.45h1.36l-1.67 2.66c-.12.19-.23.34-.36.46-.12.11-.27.2-.44.26.24.07.43.18.58.32.15.13.28.3.4.52l1.68 2.96h-1.2c-.3 0-.53-.05-.7-.16a1.3 1.3 0 01-.43-.44l-1.06-1.98a.94.94 0 00-.87-.52h-.65v3.1h-1.73v-7.18h1.73v2.96h.56a.9.9 0 00.47-.1.9.9 0 00.3-.34l1.23-2.07zm10.47.83h-2.56v5.9h-1.73v-5.9h-2.55v-1.28h6.84v1.28zm5.77 2.83c-.5.03-.92.07-1.26.14-.34.06-.61.14-.82.23-.2.1-.35.22-.44.35a.74.74 0 00-.13.42c0 .3.09.52.27.65.18.13.41.2.7.2a2.06 2.06 0 001.68-.78v-1.2zm-3.96-3.11a4.26 4.26 0 012.98-1.14c.42 0 .8.07 1.13.21a2.32 2.32 0 011.36 1.45c.12.34.18.72.18 1.12v4.54h-.78a.83.83 0 01-.38-.07c-.1-.05-.16-.15-.21-.3l-.16-.52c-.18.16-.36.3-.53.43a2.76 2.76 0 01-1.14.5 3.28 3.28 0 01-1.54-.05c-.26-.08-.48-.2-.67-.37a1.65 1.65 0 01-.43-.6 2.16 2.16 0 01-.06-1.4c.06-.18.16-.35.3-.51.13-.17.31-.32.53-.47.22-.14.49-.27.8-.37a10.71 10.71 0 012.58-.38v-.43c0-.48-.1-.83-.3-1.06-.21-.24-.5-.35-.9-.35a2.12 2.12 0 00-1.18.32l-.38.22a.74.74 0 01-.38.1.52.52 0 01-.3-.1.84.84 0 01-.21-.22l-.31-.55zM217.36 90.27h-1.9v-8.68h-4.4v8.68h-1.89V80.15h8.19v10.12zm4.6-1.86c.19.23.4.4.63.5a1.94 1.94 0 001.46 0c.21-.1.39-.25.53-.45.15-.2.27-.45.35-.75.08-.31.12-.67.12-1.09 0-.42-.04-.77-.1-1.06-.07-.3-.17-.54-.3-.72a1.14 1.14 0 00-.46-.4 1.4 1.4 0 00-.6-.12c-.37 0-.67.07-.92.23-.26.15-.5.36-.72.64v3.22zm-.1-4.34c.3-.34.63-.6 1-.81a2.7 2.7 0 012.39-.06c.33.16.6.4.84.71.24.3.42.7.54 1.15a5.63 5.63 0 01-.02 3.05 3.6 3.6 0 01-.62 1.2 2.84 2.84 0 01-2.25 1.07c-.4 0-.74-.07-1.03-.19-.28-.13-.53-.3-.76-.52v2.94h-1.73V83.1h1.06c.22 0 .37.1.44.31l.14.67zm10.48-1.1c.54 0 1.02.09 1.45.26a3.15 3.15 0 011.84 1.9c.17.46.26.97.26 1.53 0 .57-.09 1.08-.25 1.54-.17.46-.41.85-.73 1.17-.3.32-.68.57-1.12.74-.43.18-.91.26-1.44.26-.54 0-1.03-.08-1.47-.26a3.16 3.16 0 01-1.85-1.9 4.44 4.44 0 01-.25-1.55c0-.56.09-1.07.25-1.53.18-.46.42-.85.72-1.16a3.2 3.2 0 011.13-.74c.44-.17.93-.26 1.47-.26zm0 6.07c.6 0 1.04-.2 1.33-.6a3 3 0 00.43-1.76c0-.78-.14-1.37-.43-1.77-.29-.41-.73-.61-1.32-.61-.61 0-1.06.2-1.36.61-.29.4-.43 1-.43 1.77s.14 1.35.43 1.76c.3.4.75.6 1.35.6zm11.82-4.67h-2.56v5.9h-1.73v-5.9h-2.56v-1.28h6.85v1.28zm5-1.4c.52 0 1 .09 1.44.26a3.14 3.14 0 011.84 1.9c.17.46.25.97.25 1.53 0 .57-.08 1.08-.25 1.54a3.1 3.1 0 01-1.84 1.91c-.43.18-.92.26-1.45.26-.53 0-1.02-.08-1.46-.26a3.17 3.17 0 01-1.85-1.9 4.44 4.44 0 01-.25-1.55c0-.56.08-1.07.25-1.53.17-.46.41-.85.72-1.16.31-.32.69-.57 1.13-.74.44-.17.93-.26 1.46-.26zm0 6.07c.59 0 1.03-.2 1.31-.6a3 3 0 00.44-1.76c0-.78-.15-1.37-.44-1.77-.28-.41-.72-.61-1.32-.61-.6 0-1.06.2-1.35.61-.29.4-.43 1-.43 1.77s.14 1.35.43 1.76c.3.4.74.6 1.35.6zm11.8-4.67h-2.56v5.9h-1.72v-5.9h-2.56v-1.28h6.85v1.28zm8.48-1.28v7.18h-1.73v-4.2a4.95 4.95 0 01.06-.74 3.37 3.37 0 01-.44.77l-.33.45a267.39 267.39 0 01-2.34 3.3c-.07.1-.15.2-.26.28-.1.1-.22.14-.36.14h-1.06V83.1h1.73v4.2c0 .1 0 .22-.02.35 0 .13-.02.26-.04.39a3.64 3.64 0 01.44-.76l.32-.45.46-.63.51-.73a411 411 0 011.39-1.95c.06-.1.15-.2.25-.28.11-.1.23-.14.37-.14h1.05zm8.96 7.18h-1.72v-5.9h-2.8v5.9h-1.73v-7.18h6.25v7.18zm9.17-7.18v7.18h-1.73v-4.2a4.95 4.95 0 01.07-.74 3.37 3.37 0 01-.45.77l-.33.45a267.39 267.39 0 01-2.34 3.3c-.06.1-.15.2-.26.28-.1.1-.22.14-.35.14h-1.06V83.1h1.73v4.2l-.02.35-.05.39a3.64 3.64 0 01.45-.76l.32-.45c.13-.2.28-.4.45-.63l.51-.73a411 411 0 011.39-1.95c.06-.1.15-.2.26-.28.1-.1.23-.14.36-.14h1.05zm4.44 5.32c.2.23.4.4.64.5a1.93 1.93 0 001.46 0c.2-.1.39-.25.53-.45.15-.2.26-.45.34-.75.08-.31.12-.67.12-1.09 0-.42-.03-.77-.1-1.06-.07-.3-.16-.54-.29-.72a1.14 1.14 0 00-.46-.4 1.4 1.4 0 00-.61-.12c-.36 0-.66.07-.92.23-.25.15-.49.36-.71.64v3.22zm-.1-4.34c.3-.34.64-.6 1-.81a2.69 2.69 0 012.4-.06c.32.16.6.4.84.71.23.3.42.7.54 1.15a5.63 5.63 0 01-.02 3.05c-.14.46-.35.86-.62 1.2a2.84 2.84 0 01-2.25 1.07c-.4 0-.74-.07-1.03-.19-.28-.13-.54-.3-.76-.52v2.94h-1.73V83.1h1.06c.22 0 .37.1.44.31l.14.67zm10.5-1.1c.52 0 1 .09 1.44.26a3.14 3.14 0 011.84 1.9c.17.46.25.97.25 1.53 0 .57-.08 1.08-.25 1.54a3.1 3.1 0 01-1.84 1.91c-.43.18-.92.26-1.45.26-.53 0-1.02-.08-1.46-.26a3.17 3.17 0 01-1.85-1.9 4.44 4.44 0 01-.25-1.55c0-.56.08-1.07.25-1.53.17-.46.41-.85.72-1.16.31-.32.69-.57 1.13-.74.44-.17.93-.26 1.46-.26zm0 6.07c.59 0 1.03-.2 1.31-.6a3 3 0 00.44-1.76c0-.78-.15-1.37-.44-1.77-.28-.41-.72-.61-1.32-.61-.6 0-1.06.2-1.35.61-.29.4-.43 1-.43 1.77s.14 1.35.43 1.76c.3.4.75.6 1.35.6zm8.78.04c.37 0 .66-.08.87-.26a.9.9 0 00.32-.73c0-.13-.02-.25-.06-.36a.64.64 0 00-.18-.3.9.9 0 00-.36-.2 1.96 1.96 0 00-.58-.07h-1.3v1.92h1.3zm-1.28-4.87v1.89h1.13c.17 0 .32-.03.46-.07.14-.06.26-.13.37-.21a1 1 0 00.24-.33 1 1 0 00.02-.72.66.66 0 00-.19-.28.9.9 0 00-.35-.2 1.65 1.65 0 00-.55-.08h-1.13zm1.18-1.12c.45 0 .84.04 1.17.13.33.09.6.2.82.36a1.54 1.54 0 01.63 1.24 2 2 0 01-.07.48c-.03.17-.1.33-.2.48-.1.15-.24.3-.41.42-.17.13-.4.22-.66.3.24.05.46.12.65.21.2.09.37.2.5.34a1.52 1.52 0 01.44 1.1 1.85 1.85 0 01-.83 1.6c-.25.18-.55.3-.88.4-.34.08-.68.12-1.05.12h-2.94v-7.18h2.83zm9 4.11c-.5.02-.91.07-1.25.13-.34.06-.62.14-.82.24-.2.1-.35.21-.44.35a.74.74 0 00-.13.42c0 .3.08.52.26.65s.42.2.7.2a2.06 2.06 0 001.69-.78v-1.2zm-3.95-3.11a4.26 4.26 0 012.98-1.14c.42 0 .8.07 1.13.21a2.33 2.33 0 011.35 1.45c.12.34.19.72.19 1.12v4.54H321a.82.82 0 01-.38-.07c-.09-.05-.16-.15-.2-.3l-.16-.52c-.18.16-.36.3-.53.43a3.31 3.31 0 01-1.14.5 3.24 3.24 0 01-1.54-.05c-.26-.08-.48-.2-.67-.37a1.64 1.64 0 01-.43-.61 2.15 2.15 0 01-.07-1.39c.06-.18.16-.35.3-.51.14-.17.32-.32.54-.47.22-.14.48-.27.8-.37a10.71 10.71 0 012.58-.39v-.42c0-.48-.1-.83-.31-1.06-.2-.24-.5-.35-.89-.35a2.14 2.14 0 00-1.18.32l-.39.22a.74.74 0 01-.38.1.51.51 0 01-.3-.1.83.83 0 01-.2-.22l-.31-.55zm14.53-1v7.18h-1.73v-3.18h-2.8v3.18h-1.73v-7.18h1.73v2.72h2.8v-2.72h1.73zm9.17 0v7.18h-1.73v-4.2a4.42 4.42 0 01.06-.74 3.44 3.44 0 01-.45.77l-.33.45a267.39 267.39 0 01-2.33 3.3c-.07.1-.16.2-.26.28-.1.1-.22.14-.36.14h-1.06V83.1h1.73v4.2c0 .1 0 .22-.02.35 0 .13-.02.26-.04.39a3.56 3.56 0 01.44-.76l.32-.45.46-.63.5-.73a411 411 0 011.4-1.95c.06-.1.15-.2.25-.28.11-.1.23-.14.37-.14h1.05zm7.33 2.76c0-.22-.03-.43-.1-.63a1.28 1.28 0 00-.76-.88c-.19-.08-.41-.13-.67-.13-.5 0-.9.14-1.18.43a2.1 2.1 0 00-.55 1.21h3.26zm-3.3 1.04c.03.37.1.7.2.96a1.65 1.65 0 001 1.06c.24.08.5.13.77.13.28 0 .52-.04.72-.1.2-.07.39-.14.54-.22l.4-.22c.11-.06.22-.1.33-.1.15 0 .25.06.32.17l.5.63a2.97 2.97 0 01-1.4.93 5.6 5.6 0 01-1.57.25c-.5 0-.95-.09-1.38-.25a3.17 3.17 0 01-1.87-1.94 4.69 4.69 0 01-.04-3.05 3.3 3.3 0 011.77-1.89 3.6 3.6 0 011.44-.28c.46 0 .88.08 1.26.22a2.72 2.72 0 011.63 1.66c.16.4.24.86.24 1.38 0 .26-.03.44-.09.53-.05.09-.16.13-.32.13h-4.44zm-90.53 20.2v7.18h-1.73v-4.2a4.96 4.96 0 01.07-.74 3.34 3.34 0 01-.45.77l-.33.45-.45.64-.5.71-1.39 1.95c-.06.1-.15.2-.26.28-.1.1-.22.14-.35.14h-1.06v-7.18h1.73v4.2c0 .1 0 .22-.02.35l-.04.39a3.7 3.7 0 01.44-.76l.32-.45c.13-.2.28-.4.45-.63l.51-.73 1.39-1.95c.07-.1.15-.2.26-.29.1-.09.23-.14.36-.14h1.05zm11.9 5.94v-4.62h-1.76c-.05.6-.1 1.14-.18 1.63-.06.48-.15.9-.24 1.29a7.5 7.5 0 01-.66 1.7h2.84zm3-.04v3.17c0 .16-.05.28-.14.38-.09.09-.2.13-.35.13h-1.08v-2.4h-5.37v1.92c0 .12-.04.23-.12.33-.08.1-.2.16-.36.16h-1.1v-3.65h.21c.16 0 .32-.02.48-.06.15-.05.3-.14.44-.28s.28-.34.4-.6c.13-.27.25-.62.35-1.06.1-.44.2-.98.27-1.63.08-.64.14-1.41.19-2.32h4.86v5.9h1.32zm8.54-5.9v7.18h-1.73v-4.2a4.96 4.96 0 01.07-.74 3.34 3.34 0 01-.45.77l-.33.45a217.55 217.55 0 01-2.34 3.3c-.06.1-.15.2-.26.28-.1.1-.22.14-.35.14h-1.06v-7.18h1.73v4.2c0 .1 0 .22-.02.35l-.05.39a3.62 3.62 0 01.45-.76l.32-.45c.13-.2.29-.4.45-.63l.51-.73 1.39-1.95c.06-.1.15-.2.26-.29.1-.09.23-.14.36-.14h1.05zm2.3.77c.26-.26.6-.47 1-.64.4-.16.88-.25 1.44-.25a4 4 0 011.18.16c.35.1.64.25.87.43.24.18.42.38.54.62a1.47 1.47 0 01.13 1.14 1.65 1.65 0 01-.55.82c-.15.12-.34.22-.56.3.4.15.7.37.95.66.24.3.36.65.36 1.07 0 .35-.08.66-.25.94-.15.27-.37.5-.63.69a3.8 3.8 0 01-4.05-.03 2.97 2.97 0 01-.62-.57l.5-.63c.07-.11.17-.16.31-.16.1 0 .21.03.3.1l.35.22a1.95 1.95 0 001.13.32c.43 0 .75-.1.98-.29.22-.2.34-.44.34-.73a.78.78 0 00-.36-.68c-.22-.16-.6-.25-1.12-.25h-.8v-1.12h.8c.46 0 .8-.08 1.05-.24a.72.72 0 00.36-.63.7.7 0 00-.32-.59 1.58 1.58 0 00-.94-.23 2.25 2.25 0 00-1.08.24l-.3.16a.45.45 0 01-.44.04.61.61 0 01-.19-.2l-.39-.67zm11.5 3.34c-.5.02-.91.07-1.25.13-.34.06-.62.14-.82.24-.2.1-.35.21-.44.35a.74.74 0 00-.13.42c0 .3.08.52.26.65s.42.2.7.2a2.06 2.06 0 001.69-.78v-1.2zm-3.95-3.11a4.26 4.26 0 012.98-1.14c.42 0 .8.07 1.13.21a2.33 2.33 0 011.35 1.45c.12.34.19.72.19 1.12v4.54h-.79a.82.82 0 01-.38-.07c-.09-.05-.16-.16-.2-.3l-.16-.52c-.18.16-.36.3-.53.43a2.76 2.76 0 01-1.14.5 3.22 3.22 0 01-1.54-.05c-.26-.08-.48-.2-.67-.37a1.63 1.63 0 01-.43-.61 2.16 2.16 0 01-.07-1.39c.06-.18.16-.35.3-.51.14-.17.32-.32.54-.47.22-.14.48-.27.8-.37a10.71 10.71 0 012.58-.39v-.42c0-.48-.1-.83-.31-1.06-.2-.24-.5-.35-.89-.35a2.15 2.15 0 00-1.18.32l-.39.22a.74.74 0 01-.38.1.5.5 0 01-.3-.1.83.83 0 01-.2-.22l-.31-.55zm14.73-1v7.18h-1.73v-4.2a4.96 4.96 0 01.06-.74 3.34 3.34 0 01-.45.77l-.33.45a217.55 217.55 0 01-2.33 3.3c-.07.1-.16.2-.26.28-.1.1-.22.14-.36.14h-1.06v-7.18h1.73v4.2c0 .1 0 .22-.02.35 0 .13-.02.26-.04.39a3.62 3.62 0 01.44-.76l.32-.45.46-.63.5-.73 1.4-1.95c.06-.1.15-.2.25-.29.11-.09.23-.14.37-.14h1.05zm-3.13-1.83c.17 0 .31-.01.43-.05s.21-.1.28-.18a.8.8 0 00.15-.35c.03-.15.04-.33.04-.54h1.02c.12 0 .21.06.27.16.06.1.09.2.09.33a1.34 1.34 0 01-.62 1.14c-.2.13-.44.23-.72.3a3.87 3.87 0 01-1.88 0 2.5 2.5 0 01-.72-.3 1.34 1.34 0 01-.62-1.14c0-.12.02-.23.08-.33a.3.3 0 01.27-.16h1.02c0 .22.02.4.05.54a.8.8 0 00.14.35c.07.08.17.14.28.18.11.04.26.06.44.06zm12.1 1.82v7.19h-1.74v-3.18h-2.8v3.18h-1.73v-7.19h1.73v2.73h2.8v-2.73h1.73zM435.58 88.67c.35 0 .64-.04.88-.13.24-.08.43-.2.57-.33.14-.14.25-.3.3-.5a1.77 1.77 0 000-1.18 1.07 1.07 0 00-.33-.45 1.5 1.5 0 00-.58-.28c-.24-.07-.52-.1-.85-.1h-1.9v2.97h1.9zm-1.9-7.2v2.93h1.5a2.5 2.5 0 001.45-.35c.33-.24.5-.6.5-1.12 0-.52-.15-.9-.45-1.12-.3-.23-.77-.34-1.4-.34h-1.6zm1.6-1.45c.66 0 1.23.06 1.7.18.47.13.85.31 1.15.54.3.24.53.52.67.85a2.85 2.85 0 01.1 1.8c-.07.22-.18.42-.33.62-.14.18-.33.35-.56.5-.22.16-.49.3-.8.4 1.39.31 2.09 1.06 2.09 2.25 0 .43-.09.83-.25 1.2-.16.36-.4.67-.71.94-.32.26-.7.46-1.16.61-.46.15-.98.23-1.57.23h-3.82V80.02h3.49zm10.97 5.7c0-.22-.03-.43-.1-.63-.06-.2-.15-.38-.28-.52a1.28 1.28 0 00-.48-.35c-.2-.1-.42-.14-.67-.14-.5 0-.9.14-1.19.43a2.1 2.1 0 00-.54 1.21h3.26zm-3.3 1.04c.03.37.1.7.2.96a1.65 1.65 0 001 1.06c.23.08.5.13.77.13.28 0 .52-.04.72-.1.2-.07.38-.14.53-.22.16-.08.3-.15.4-.22.12-.06.23-.1.34-.1.14 0 .25.06.32.17l.5.63a2.97 2.97 0 01-1.4.93 5.6 5.6 0 01-1.57.25c-.5 0-.96-.09-1.39-.25a3.17 3.17 0 01-1.87-1.94 4.69 4.69 0 01-.03-3.05 3.3 3.3 0 011.76-1.89 3.6 3.6 0 011.45-.28c.45 0 .87.08 1.26.22a2.72 2.72 0 011.63 1.66c.16.4.24.86.24 1.38 0 .26-.03.44-.09.53-.06.09-.16.13-.32.13h-4.45zm8.88 1.52c.2.23.41.4.64.5a1.94 1.94 0 001.46 0c.21-.1.39-.25.53-.45.15-.2.27-.45.35-.75.08-.31.12-.67.12-1.09 0-.42-.04-.77-.11-1.06-.06-.3-.16-.54-.29-.72a1.14 1.14 0 00-.46-.4 1.4 1.4 0 00-.6-.12c-.37 0-.67.07-.93.23-.25.15-.49.36-.7.64v3.22zm-.09-4.34c.3-.34.63-.6 1-.8a2.7 2.7 0 012.39-.07c.32.16.6.4.84.71.24.31.42.7.54 1.15a5.63 5.63 0 01-.02 3.05 3.6 3.6 0 01-.62 1.2 2.84 2.84 0 01-2.25 1.07c-.4 0-.74-.07-1.03-.19-.28-.13-.53-.3-.76-.52v2.94h-1.73v-9.52h1.06c.22 0 .37.1.44.31l.14.67zm12.45.53a.83.83 0 01-.15.16c-.05.04-.12.05-.21.05a.49.49 0 01-.26-.07 4.78 4.78 0 00-.72-.37 1.8 1.8 0 00-.6-.08c-.3 0-.57.06-.8.17-.22.1-.42.26-.57.47-.15.2-.26.45-.34.75-.07.28-.1.61-.1.98 0 .39.03.73.11 1.02.08.3.2.56.36.76a1.56 1.56 0 001.3.62 1.87 1.87 0 001.1-.33l.3-.22c.09-.07.19-.1.3-.1.13 0 .24.05.3.16l.5.63a3.24 3.24 0 01-2.06 1.12c-.25.03-.5.05-.75.05a3 3 0 01-2.28-.97 3.5 3.5 0 01-.7-1.16 4.59 4.59 0 01-.26-1.58c0-.52.07-1.01.22-1.46.16-.45.38-.84.68-1.17.3-.33.65-.59 1.09-.78.43-.18.93-.28 1.5-.28a3.44 3.44 0 012.5 1l-.46.63zm8.77-.23h-2.56v5.9h-1.73v-5.9h-2.56v-1.28h6.85v1.28zm6.3-.83a.97.97 0 01.81-.45h1.36l-1.67 2.66c-.12.19-.24.34-.36.46-.12.11-.27.2-.44.26.23.07.43.18.57.32.15.13.29.3.41.52l1.68 2.96h-1.2c-.3 0-.54-.05-.7-.16a1.3 1.3 0 01-.43-.44l-1.06-1.99a.93.93 0 00-.87-.5h-.65v3.09h-1.73v-7.18h1.73v2.96h.56a.9.9 0 00.47-.1.9.9 0 00.3-.34l1.23-2.07zm8.11 3.66c-.5.03-.92.07-1.26.13-.34.07-.61.14-.82.24-.2.1-.35.22-.44.35a.74.74 0 00-.13.42c0 .3.09.52.27.65.18.13.41.2.7.2.36 0 .66-.06.92-.19s.52-.33.76-.59v-1.2zm-3.96-3.11a4.26 4.26 0 012.98-1.14c.42 0 .8.07 1.13.21a2.33 2.33 0 011.36 1.45c.12.34.18.72.18 1.12v4.54h-.78a.83.83 0 01-.38-.07c-.1-.05-.16-.15-.21-.3l-.16-.52c-.18.16-.35.3-.53.43a3.27 3.27 0 01-1.14.5 3.23 3.23 0 01-1.54-.05c-.26-.08-.48-.2-.66-.37a1.65 1.65 0 01-.44-.6 2.15 2.15 0 01-.06-1.4c.06-.18.16-.35.3-.51.13-.17.31-.32.53-.47.22-.14.49-.27.8-.37a10.73 10.73 0 012.58-.39v-.42c0-.48-.1-.83-.3-1.06-.21-.24-.5-.35-.9-.35a2.15 2.15 0 00-1.18.32l-.38.22a.74.74 0 01-.38.1.51.51 0 01-.3-.1.83.83 0 01-.21-.22l-.3-.55zm-93.57 23v7.18h-1.73v-4.2a4.4 4.4 0 01.06-.74 3.5 3.5 0 01-.45.77l-.33.45-.44.64-.51.71-1.38 1.95c-.07.1-.16.2-.26.28-.1.1-.23.14-.36.14h-1.06v-7.18h1.73v4.2c0 .1 0 .22-.02.35 0 .13-.02.26-.04.39a3.54 3.54 0 01.44-.76l.32-.45.46-.63.5-.73 1.4-1.95c.06-.1.14-.2.25-.28.11-.1.23-.14.37-.14h1.05zm13.37 7.18h-1.73v-5.9h-2.8v5.9h-1.73v-7.18h6.26v7.18zm4.44-1.86c.2.23.4.4.64.5a1.93 1.93 0 001.46 0c.2-.1.39-.25.53-.45.15-.2.26-.45.34-.75.08-.31.12-.67.12-1.09 0-.42-.03-.77-.1-1.06-.07-.3-.16-.54-.29-.72a1.14 1.14 0 00-.46-.4 1.41 1.41 0 00-.61-.12c-.36 0-.66.08-.92.23a2.7 2.7 0 00-.71.64v3.22zm-.1-4.34c.3-.34.63-.6 1-.8a2.68 2.68 0 012.4-.07c.32.16.6.4.84.71.23.31.42.7.54 1.15a5.66 5.66 0 01-.02 3.05c-.14.46-.35.86-.62 1.2a2.85 2.85 0 01-2.25 1.07c-.4 0-.74-.07-1.03-.19-.28-.13-.54-.3-.76-.52v2.94h-1.73v-9.52h1.06c.22 0 .37.1.44.31l.14.67zm10.5-1.1c.52 0 1 .09 1.44.26a3.12 3.12 0 011.84 1.9c.17.46.25.97.25 1.53 0 .57-.08 1.08-.25 1.54a3.1 3.1 0 01-1.84 1.91 3.9 3.9 0 01-1.45.26c-.54 0-1.02-.08-1.46-.26a3.17 3.17 0 01-1.85-1.9 4.45 4.45 0 01-.25-1.55c0-.56.08-1.07.25-1.53a3.2 3.2 0 011.85-1.9c.44-.17.92-.26 1.46-.26zm0 6.07c.59 0 1.03-.2 1.31-.6a3 3 0 00.44-1.76c0-.78-.15-1.37-.44-1.77-.28-.41-.72-.61-1.32-.61-.6 0-1.06.2-1.35.61-.29.4-.43 1-.43 1.77s.14 1.36.43 1.76c.3.4.74.6 1.35.6zm10.72-4.67h-3.14v5.9h-1.73v-7.18h4.87v1.28zm3.75 4.04c.2.23.41.4.64.5a1.93 1.93 0 001.46 0c.21-.1.4-.25.54-.45s.26-.45.34-.75c.08-.31.12-.67.12-1.09 0-.42-.04-.77-.1-1.06-.07-.3-.17-.54-.3-.72a1.14 1.14 0 00-.46-.4 1.41 1.41 0 00-.6-.12c-.37 0-.67.08-.92.23a2.7 2.7 0 00-.72.64v3.22zm-.09-4.34c.3-.34.63-.6 1-.8a2.68 2.68 0 012.4-.07c.32.16.6.4.83.71.24.31.42.7.55 1.15a5.66 5.66 0 01-.02 3.05c-.15.46-.36.86-.63 1.2a2.85 2.85 0 01-2.25 1.07c-.4 0-.74-.07-1.02-.19-.29-.13-.54-.3-.77-.52v2.94h-1.72v-9.52h1.05c.23 0 .37.1.44.31l.14.67zm11.1 3.13c-.5.03-.92.07-1.26.14-.34.06-.61.14-.82.23-.2.1-.35.22-.44.35a.74.74 0 00-.13.42c0 .3.09.52.26.65.19.13.42.2.71.2.36 0 .66-.06.92-.19s.52-.33.76-.59v-1.2zm-3.96-3.11a4.26 4.26 0 012.98-1.14c.42 0 .8.07 1.13.21a2.32 2.32 0 011.36 1.45c.12.34.18.72.18 1.12v4.54h-.79a.84.84 0 01-.37-.07c-.1-.05-.16-.15-.21-.3l-.16-.52c-.18.16-.36.3-.53.43a3.3 3.3 0 01-1.14.5 3.27 3.27 0 01-1.54-.05 1.9 1.9 0 01-.67-.37 1.66 1.66 0 01-.43-.6 2.16 2.16 0 01-.06-1.4c.06-.18.16-.35.3-.51.13-.17.31-.32.53-.47.22-.14.49-.27.8-.37a10.73 10.73 0 012.58-.38v-.43c0-.48-.1-.83-.3-1.06-.21-.24-.5-.35-.9-.35a2.13 2.13 0 00-1.18.32l-.38.22a.74.74 0 01-.38.1.52.52 0 01-.3-.1.84.84 0 01-.21-.22l-.31-.55zm16.6-1.02v7.2h-1.56v-4a8.19 8.19 0 01.1-1.13l-2.11 3.88c-.1.2-.27.3-.49.3h-.18a.52.52 0 01-.5-.3l-2.13-3.9a5.96 5.96 0 01.1 1.14v4h-1.55v-7.19h1.42c.13 0 .25.03.36.08.12.05.22.15.3.3l1.7 3.03a4.77 4.77 0 01.39.92l.17-.48.21-.44 1.68-3.02c.09-.16.19-.27.3-.31a.87.87 0 01.36-.08h1.43zm11.04 0v7.2h-1.56v-4a8.19 8.19 0 01.1-1.13l-2.11 3.88c-.1.2-.27.3-.5.3h-.18a.51.51 0 01-.49-.3l-2.14-3.9a6.64 6.64 0 01.11 1.14v4h-1.56v-7.19h1.43c.12 0 .24.03.36.08s.22.15.3.3l1.7 3.03a5.33 5.33 0 01.38.92l.18-.48c.06-.16.13-.3.21-.44l1.68-3.02c.08-.16.18-.27.3-.31a.86.86 0 01.36-.08h1.43zm9.16.02v7.18h-1.73v-4.2a4.4 4.4 0 01.07-.74 3.5 3.5 0 01-.45.77l-.33.45-.45.64-.51.71-1.38 1.95c-.06.1-.15.2-.26.28-.1.1-.22.14-.35.14h-1.06v-7.18h1.73v4.2l-.02.35-.05.39a3.54 3.54 0 01.44-.76l.33-.45.45-.63.51-.73c.4-.58.87-1.22 1.39-1.95.06-.1.15-.2.26-.28.1-.1.23-.14.36-.14h1.05zm4.44 5.32c.2.23.4.4.64.5a1.93 1.93 0 001.46 0c.2-.1.39-.25.53-.45.15-.2.26-.45.34-.75.08-.31.12-.67.12-1.09 0-.42-.03-.77-.1-1.06-.07-.3-.16-.54-.29-.72a1.14 1.14 0 00-.46-.4 1.4 1.4 0 00-.61-.12c-.36 0-.67.08-.92.23a2.7 2.7 0 00-.71.64v3.22zm-.1-4.34c.3-.34.64-.6 1-.8a2.68 2.68 0 012.4-.07c.32.16.6.4.84.71.23.31.42.7.54 1.15a5.63 5.63 0 01-.02 3.05c-.14.46-.35.86-.62 1.2a2.85 2.85 0 01-2.25 1.07c-.4 0-.74-.07-1.03-.19-.28-.13-.54-.3-.76-.52v2.94h-1.73v-9.52h1.06c.22 0 .37.1.44.31l.14.67zm10.5-1.1c.52 0 1 .09 1.44.26a3.12 3.12 0 011.84 1.9c.17.46.25.97.25 1.53 0 .57-.08 1.08-.25 1.54a3.1 3.1 0 01-1.84 1.91 3.9 3.9 0 01-1.45.26c-.53 0-1.02-.08-1.46-.26a3.18 3.18 0 01-1.85-1.9 4.45 4.45 0 01-.25-1.55c0-.56.08-1.07.25-1.53a3.2 3.2 0 011.85-1.9c.44-.17.93-.26 1.46-.26zm0 6.07c.59 0 1.03-.2 1.31-.6a3 3 0 00.44-1.76c0-.78-.15-1.37-.44-1.77-.28-.41-.72-.61-1.32-.61-.6 0-1.06.2-1.35.61-.29.4-.43 1-.43 1.77s.14 1.36.43 1.76c.3.4.75.6 1.35.6zm8.79.05c.36 0 .65-.1.86-.27a.9.9 0 00.32-.73c0-.13-.02-.25-.06-.36a.64.64 0 00-.18-.3.89.89 0 00-.36-.2 1.95 1.95 0 00-.58-.07h-1.3v1.92h1.3zm-1.3-4.88v1.89h1.14a1.18 1.18 0 00.83-.28 1 1 0 00.23-.33 1 1 0 00.03-.72.65.65 0 00-.19-.28.88.88 0 00-.35-.2 1.63 1.63 0 00-.55-.08h-1.13zm1.19-1.12c.45 0 .84.04 1.17.13.33.09.6.2.82.36a1.53 1.53 0 01.63 1.24 2 2 0 01-.07.48c-.03.17-.1.33-.2.48-.1.16-.24.3-.41.42-.17.13-.4.23-.66.3.24.05.46.12.65.21.2.09.37.2.5.34a1.51 1.51 0 01.44 1.1 1.85 1.85 0 01-.83 1.6c-.25.18-.55.3-.88.4-.34.08-.68.12-1.05.12h-2.94v-7.18h2.83zm9 4.11c-.5.03-.91.07-1.25.14-.34.06-.62.14-.82.23-.2.1-.35.22-.44.35a.75.75 0 00-.14.42c0 .3.1.52.27.65.18.13.42.2.7.2.36 0 .67-.06.92-.19.27-.13.52-.33.77-.59v-1.2zm-3.95-3.11a4.26 4.26 0 012.98-1.14c.42 0 .8.07 1.12.21a2.3 2.3 0 011.36 1.45c.12.34.18.72.18 1.12v4.54h-.78a.84.84 0 01-.38-.07c-.09-.05-.16-.15-.2-.3l-.16-.52c-.18.16-.36.3-.53.43a3.25 3.25 0 01-1.14.5 3.27 3.27 0 01-1.54-.05 1.9 1.9 0 01-.67-.37 1.67 1.67 0 01-.43-.6c-.1-.25-.16-.53-.16-.86a1.67 1.67 0 01.39-1.05c.14-.17.32-.32.54-.47.22-.14.48-.27.8-.37a10.73 10.73 0 012.58-.38v-.43c0-.48-.1-.83-.31-1.06-.2-.24-.5-.35-.89-.35a2.13 2.13 0 00-1.18.32l-.39.22a.74.74 0 01-.38.1.52.52 0 01-.3-.1.86.86 0 01-.2-.22l-.31-.55zm14.53-1v7.18h-1.73v-3.18h-2.8v3.18h-1.73v-7.18h1.73v2.72h2.8v-2.72h1.73zm9.17 0v7.18h-1.73v-4.2a4.94 4.94 0 01.06-.74 3.42 3.42 0 01-.45.77l-.33.45a172.34 172.34 0 01-2.6 3.58c-.1.1-.21.14-.35.14h-1.06v-7.18h1.73v4.2c0 .1 0 .22-.02.35 0 .13-.02.26-.04.39a3.7 3.7 0 01.44-.76l.32-.45.46-.63.5-.73 1.4-1.95c.06-.1.15-.2.25-.28.11-.1.23-.14.37-.14h1.05zm7.33 2.76c0-.22-.03-.43-.1-.63-.06-.2-.15-.38-.28-.52a1.27 1.27 0 00-.48-.35c-.19-.1-.41-.14-.67-.14-.5 0-.9.14-1.18.43-.29.28-.47.69-.55 1.21h3.26zm-3.3 1.04c.03.37.1.7.2.96.1.27.24.49.4.67.18.17.37.3.6.39.24.08.5.13.77.13.28 0 .52-.04.72-.1.2-.07.39-.14.53-.22.16-.08.3-.15.4-.22.12-.06.23-.1.34-.1.14 0 .25.06.32.17l.5.63c-.2.22-.4.41-.65.56a3.87 3.87 0 01-1.53.56c-.27.03-.53.05-.78.05-.5 0-.97-.08-1.4-.24a3.19 3.19 0 01-1.86-1.94 4.69 4.69 0 01-.04-3.05 3.24 3.24 0 011.76-1.89 3.6 3.6 0 011.45-.28c.46 0 .88.08 1.26.22a2.7 2.7 0 011.63 1.66c.16.4.24.86.24 1.38 0 .26-.03.44-.09.53-.05.09-.16.13-.32.13h-4.45zM604.05 93.67h-3.06v8.57h-1.88v-8.57h-3.05v-1.55h7.99v1.55zm5 4.16c0-.23-.04-.44-.1-.63-.07-.2-.16-.38-.29-.53a1.28 1.28 0 00-.48-.35c-.19-.09-.41-.13-.67-.13-.5 0-.9.14-1.18.43-.29.28-.47.68-.55 1.2h3.26zm-3.3 1.04c.02.37.09.69.2.96a1.67 1.67 0 001 1.06c.23.08.48.12.76.12s.52-.03.72-.1c.21-.06.39-.13.54-.21l.4-.22c.11-.07.22-.1.33-.1.15 0 .25.06.32.16l.5.63c-.2.23-.4.42-.64.57a3.87 3.87 0 01-1.54.55c-.27.04-.53.06-.78.06-.5 0-.96-.08-1.4-.25a3.19 3.19 0 01-1.86-1.93 4.7 4.7 0 01-.04-3.05 3.24 3.24 0 011.76-1.89 3.6 3.6 0 011.45-.28c.46 0 .88.07 1.26.22a2.7 2.7 0 011.63 1.66c.16.4.24.86.24 1.37 0 .27-.03.44-.09.54-.05.09-.16.13-.32.13h-4.44zm12.29-2.29a.83.83 0 01-.15.15c-.05.04-.12.06-.21.06a.49.49 0 01-.26-.08 4.78 4.78 0 00-.72-.36 1.8 1.8 0 00-.6-.08c-.3 0-.57.05-.8.16-.23.11-.42.27-.57.47-.15.2-.26.46-.34.75-.07.3-.1.62-.1.99 0 .38.03.72.11 1.02.08.3.2.55.36.76.15.2.34.35.56.46.22.1.46.15.74.15.27 0 .5-.03.66-.1a2.39 2.39 0 00.74-.44c.09-.07.18-.1.3-.1.13 0 .24.05.3.15l.5.63a3.24 3.24 0 01-2.06 1.12c-.25.04-.5.06-.76.06a3 3 0 01-2.28-.97c-.3-.32-.53-.7-.7-1.17a4.6 4.6 0 01-.25-1.57c0-.53.07-1.02.22-1.46.16-.46.38-.85.68-1.17.29-.33.65-.6 1.09-.78.43-.19.93-.28 1.5-.28a3.43 3.43 0 012.5 1l-.46.63zm8.77-.24h-2.56v5.9h-1.73v-5.9h-2.56v-1.28h6.85v1.28zm8.47-1.28v7.18h-1.73v-4.19a4.95 4.95 0 01.06-.74 3.38 3.38 0 01-.44.76l-.33.46-.45.63a182.92 182.92 0 00-1.9 2.66c-.06.1-.14.2-.25.3-.1.08-.22.13-.36.13h-1.05v-7.18h1.72v4.2c0 .1 0 .22-.02.35 0 .12-.02.25-.04.38a3.72 3.72 0 01.44-.75l.33-.46.45-.63.51-.73a411 411 0 011.39-1.94c.06-.1.15-.2.26-.29.1-.1.23-.14.36-.14h1.05zm4.44 5.32c.2.24.4.4.63.5a1.94 1.94 0 001.47 0c.2-.1.38-.24.53-.44.15-.2.26-.45.34-.76.08-.3.12-.67.12-1.08 0-.42-.03-.78-.1-1.07-.07-.3-.17-.53-.3-.71a1.14 1.14 0 00-.45-.4 1.4 1.4 0 00-.61-.13c-.36 0-.67.08-.92.23-.25.15-.49.37-.71.64v3.22zm-.1-4.34c.3-.33.63-.6 1-.8a2.69 2.69 0 012.4-.07c.32.17.6.4.83.72.24.3.42.69.55 1.15a5.63 5.63 0 01-.02 3.05 3.6 3.6 0 01-.62 1.19 2.85 2.85 0 01-2.25 1.07c-.4 0-.75-.06-1.03-.18-.28-.13-.54-.3-.76-.52v2.94h-1.73v-9.53h1.05c.23 0 .38.1.45.32l.14.66zm10.49-1.09c.53 0 1.01.09 1.45.26a3.14 3.14 0 011.84 1.9c.17.45.25.96.25 1.53 0 .57-.08 1.08-.25 1.54a3.1 3.1 0 01-1.84 1.91 3.9 3.9 0 01-1.45.26c-.54 0-1.02-.09-1.46-.26a3.17 3.17 0 01-1.85-1.91 4.45 4.45 0 01-.25-1.54c0-.57.08-1.08.25-1.53.17-.46.41-.85.72-1.17a3.2 3.2 0 011.13-.73c.44-.17.92-.26 1.46-.26zm0 6.07c.6 0 1.04-.2 1.32-.6a3 3 0 00.44-1.77c0-.77-.15-1.36-.44-1.77-.28-.4-.72-.6-1.32-.6-.6 0-1.06.2-1.35.6-.29.41-.43 1-.43 1.77s.14 1.36.43 1.77c.3.4.74.6 1.35.6zm8.8.04c.36 0 .64-.09.86-.27a.9.9 0 00.32-.72c0-.13-.02-.26-.06-.37a.65.65 0 00-.18-.3.9.9 0 00-.37-.2 1.96 1.96 0 00-.57-.06h-1.3v1.92h1.3zm-1.3-4.87v1.88h1.14a1.17 1.17 0 00.83-.28 1 1 0 00.23-.32 1 1 0 00.03-.73.66.66 0 00-.19-.28.9.9 0 00-.35-.2 1.65 1.65 0 00-.55-.07h-1.13zm1.19-1.13c.45 0 .84.05 1.17.13.33.1.6.21.82.37a1.45 1.45 0 01.63 1.24 2 2 0 01-.07.48c-.03.16-.1.32-.2.48-.1.15-.24.3-.41.42-.17.12-.4.22-.66.3.24.04.45.11.65.2.2.1.37.21.5.35.14.14.25.3.33.48a1.85 1.85 0 01-.72 2.22c-.26.18-.55.3-.89.39-.33.08-.68.12-1.04.12h-2.94v-7.18h2.83zm9 4.12c-.5.02-.91.07-1.25.13-.34.06-.62.14-.82.24-.2.1-.36.21-.44.34a.74.74 0 00-.14.43c0 .3.1.52.27.65.18.13.42.2.7.2.36 0 .67-.07.92-.2.26-.12.52-.32.77-.58v-1.21zm-3.96-3.12a4.26 4.26 0 012.99-1.13c.42 0 .8.07 1.12.2a2.33 2.33 0 011.36 1.46c.12.34.18.71.18 1.12v4.53h-.78a.84.84 0 01-.38-.07c-.09-.05-.16-.15-.2-.3l-.16-.52c-.19.17-.36.31-.54.44a3.3 3.3 0 01-1.14.5 3.27 3.27 0 01-1.54-.05 1.9 1.9 0 01-.66-.37 1.66 1.66 0 01-.44-.61 2.16 2.16 0 01-.06-1.39c.06-.18.16-.35.3-.52.14-.16.32-.31.53-.46.22-.14.5-.27.81-.38a10.73 10.73 0 012.58-.38v-.42c0-.48-.1-.84-.31-1.07-.2-.23-.5-.35-.9-.35a2.14 2.14 0 00-1.17.33l-.39.21a.74.74 0 01-.38.1.51.51 0 01-.3-.09.83.83 0 01-.2-.22l-.32-.56zm14.54-1v7.18h-1.73v-3.17h-2.8v3.17h-1.73v-7.18h1.73v2.72h2.8v-2.72h1.73zm7.34 2.77c0-.23-.03-.44-.1-.63-.06-.2-.15-.38-.28-.53a1.28 1.28 0 00-.48-.35c-.2-.09-.42-.13-.67-.13-.5 0-.9.14-1.19.43a2.1 2.1 0 00-.54 1.2h3.26zm-3.3 1.04c.03.37.1.69.2.96s.24.49.4.66c.17.18.37.3.6.4.23.08.49.12.77.12s.52-.03.72-.1c.2-.06.38-.13.53-.21l.4-.22c.12-.07.23-.1.34-.1.14 0 .25.06.32.16l.5.63c-.2.23-.41.42-.65.57a3.9 3.9 0 01-1.54.55c-.26.04-.52.06-.77.06-.5 0-.97-.08-1.4-.25a3.18 3.18 0 01-1.87-1.93 4.7 4.7 0 01-.03-3.05 3.23 3.23 0 011.76-1.89 3.6 3.6 0 011.45-.28c.45 0 .87.07 1.25.22a2.7 2.7 0 011.63 1.66c.16.4.24.86.24 1.37 0 .27-.02.44-.08.54-.06.09-.16.13-.32.13h-4.45zM806.7 96.84c.35 0 .65-.04.9-.13.26-.08.48-.2.64-.37.18-.16.3-.36.39-.58a2.28 2.28 0 000-1.52c-.09-.22-.21-.4-.38-.56a1.64 1.64 0 00-.64-.35 2.93 2.93 0 00-.9-.12h-1.41v3.63h1.4zm0-5.09c.68 0 1.27.08 1.76.24.5.16.9.38 1.23.66.32.29.56.63.71 1.03a3.61 3.61 0 010 2.65c-.17.4-.41.76-.74 1.05-.33.3-.74.52-1.23.69-.5.16-1.07.24-1.73.24h-1.4v3.56h-1.89V91.75h3.3zm10.4 5.7c0-.22-.02-.43-.09-.62-.06-.2-.15-.38-.28-.53a1.28 1.28 0 00-.48-.35c-.2-.09-.42-.13-.67-.13-.5 0-.9.14-1.19.43-.28.28-.46.68-.54 1.2h3.26zm-3.29 1.05c.03.37.1.69.2.96a1.67 1.67 0 001 1.06c.23.08.49.12.77.12s.52-.03.72-.1c.2-.06.38-.13.53-.21l.4-.22c.12-.07.23-.1.34-.1.14 0 .25.05.32.16l.5.63c-.2.23-.41.42-.65.57a3.87 3.87 0 01-1.54.55c-.26.04-.52.06-.78.06-.5 0-.96-.08-1.39-.25a3.19 3.19 0 01-1.87-1.94 4.69 4.69 0 01-.03-3.04 3.24 3.24 0 011.76-1.89 3.6 3.6 0 011.45-.28c.45 0 .87.07 1.25.22a2.7 2.7 0 011.63 1.66c.16.4.24.86.24 1.37 0 .27-.03.44-.08.54-.06.09-.17.13-.32.13h-4.45zm13.81 3.37h-1.73v-5.86h-1.76c-.05.89-.14 1.65-.26 2.29a10 10 0 01-.42 1.61c-.16.45-.34.8-.54 1.08-.2.26-.4.47-.63.62-.22.15-.45.25-.69.3-.24.04-.48.07-.72.07a1.7 1.7 0 01-.57-.07c-.12-.04-.17-.1-.17-.18v-1.08h.41c.15 0 .3-.03.46-.07.16-.05.3-.14.45-.29.14-.14.28-.35.41-.61.13-.28.25-.63.36-1.07.11-.44.21-.98.3-1.62.08-.64.14-1.4.19-2.3h4.91v7.18zm9.16-7.18v7.18h-1.73v-4.19a4.95 4.95 0 01.07-.74 3.38 3.38 0 01-.45.76l-.33.46-.45.63-.51.72-1.38 1.94c-.07.1-.15.2-.26.3-.1.08-.22.13-.36.13h-1.05V94.7h1.73v4.2l-.02.35-.05.38a3.64 3.64 0 01.44-.75l.33-.46.45-.63.51-.73a411 411 0 011.39-1.94c.06-.1.15-.2.26-.29.1-.1.23-.14.36-.14h1.05zm2.29.78c.27-.26.6-.47 1-.64.4-.17.89-.25 1.45-.25.44 0 .84.05 1.18.16.35.1.64.25.87.43.24.17.42.38.54.61a1.47 1.47 0 01.13 1.15 1.66 1.66 0 01-.55.82c-.16.12-.34.22-.56.3.4.15.7.37.94.66.25.29.37.65.37 1.07 0 .35-.08.66-.25.93-.16.27-.37.5-.63.7a3.8 3.8 0 01-4.05-.03 2.97 2.97 0 01-.62-.58l.5-.63c.06-.1.17-.16.3-.16.12 0 .22.04.32.1l.33.23a1.95 1.95 0 001.13.32c.43 0 .76-.1.99-.3.22-.19.33-.43.33-.73a.78.78 0 00-.35-.68c-.23-.16-.6-.24-1.12-.24h-.8v-1.13h.8c.46 0 .8-.08 1.05-.24a.72.72 0 00.36-.63.7.7 0 00-.32-.58 1.58 1.58 0 00-.94-.23 2.24 2.24 0 00-1.08.24l-.3.16a.45.45 0 01-.44.03.61.61 0 01-.19-.2l-.4-.66z" fill="#5E78FF"/><circle cx="97.29" cy="96.61" r="95.43" stroke="#5E78FF" stroke-width="2" stroke-dasharray="5.5 5.5"/><circle cx="278.61" cy="96.61" r="95.43" stroke="#5E78FF" stroke-width="2" stroke-dasharray="5.5 5.5"/><circle cx="641.78" cy="96.61" r="95.43" stroke="#5E78FF" stroke-width="2" stroke-dasharray="5.5 5.5"/><circle cx="823.61" cy="96.61" r="95.43" stroke="#5E78FF" stroke-width="2" stroke-dasharray="5.5 5.5"/></svg>