<svg width="117" height="38" viewBox="0 0 117 38" fill="none" xmlns="http://www.w3.org/2000/svg">
<path fill-rule="evenodd" clip-rule="evenodd" d="M13.3384 26.3836L15.2318 19.3405L26.6282 22.337L24.7349 29.3801L13.3384 26.3836ZM2.69201 18.4262L0.0395508 11.6275L11.0335 7.42703L13.686 14.2257L2.69201 18.4262ZM24.3782 7.6624L17.9757 17.4575L24.1587 21.4136L30.5612 11.6185L24.3782 7.6624ZM22.741 9.69928L15.3049 0.646484L9.58841 5.2453L17.0245 14.2981L22.741 9.69928ZM5.22557 17.7382L5.86582 29.3891L13.2195 28.9908L12.5793 17.3398L5.22557 17.7382Z" fill="#2C2B2A"/>
<path fill-rule="evenodd" clip-rule="evenodd" d="M36.8447 8.35938H45.4515C47.1619 8.35938 48.4241 8.4318 49.2656 8.56759C50.107 8.71243 50.857 9.00212 51.5156 9.44571C52.1741 9.8893 52.7321 10.4777 53.1711 11.2201C53.6101 11.9624 53.8296 12.7952 53.8296 13.7096C53.8296 14.7054 53.5552 15.6197 53.0156 16.4435C52.476 17.2764 51.7351 17.892 50.8113 18.3084C52.1192 18.6886 53.1162 19.3314 53.8296 20.2457C54.5339 21.16 54.8815 22.2283 54.8815 23.4594C54.8815 24.4281 54.6528 25.3696 54.2046 26.293C53.7473 27.2073 53.1254 27.9406 52.3388 28.4928C51.5522 29.036 50.5827 29.3709 49.4211 29.5067C48.6985 29.5791 46.9515 29.6334 44.1802 29.6515H36.8539L36.8447 8.35938ZM41.2076 11.899V16.8056H44.0521C45.7442 16.8056 46.796 16.7785 47.1985 16.7332C47.9393 16.6517 48.5247 16.3983 48.9546 15.9728C49.3845 15.5473 49.5948 15.0041 49.5948 14.3161C49.5948 13.6553 49.4119 13.1302 49.0461 12.7138C48.6802 12.3064 48.1314 12.0529 47.4088 11.9714C46.979 11.9262 45.7442 11.899 43.7045 11.899H41.2076ZM41.2076 20.3543V26.0666H45.232C46.796 26.0666 47.793 26.0214 48.2137 25.9399C48.8631 25.8222 49.3845 25.5416 49.7961 25.0889C50.1985 24.6363 50.4089 24.0298 50.4089 23.2784C50.4089 22.6356 50.2534 22.0925 49.9424 21.6489C49.6314 21.2053 49.1741 20.8794 48.5887 20.6712C47.9942 20.472 46.7137 20.3634 44.7289 20.3634H41.2076V20.3543ZM58.6406 8.35938H74.7201V11.9624H63.0035V16.9052H68.8115C70.4121 16.9052 71.7383 17.0953 72.7902 17.4846C73.8511 17.8739 74.7475 18.589 75.4975 19.6301C76.2475 20.6712 76.6225 21.8933 76.6225 23.2965C76.6225 24.7359 76.2475 25.9671 75.4883 26.9991C74.7383 28.022 73.8786 28.7282 72.9091 29.0993C71.9487 29.4795 70.5767 29.6606 68.7932 29.6606H58.6406V8.35938ZM63.0035 26.0576H67.2291C68.5737 26.0576 69.5249 25.9942 70.0737 25.8675C70.6225 25.7407 71.0981 25.442 71.5097 24.9803C71.9121 24.5277 72.1133 23.9573 72.1133 23.2874C72.1133 22.3097 71.7566 21.6036 71.0523 21.16C70.3389 20.7164 69.1316 20.4992 67.4212 20.4992H63.0035V26.0576ZM80.1622 29.6606V8.35938H87.1317C89.7751 8.35938 91.4854 8.46801 92.2903 8.67622C93.5251 9.00212 94.5586 9.69014 95.3818 10.7674C96.2141 11.8356 96.6257 13.2207 96.6257 14.9136C96.6257 16.2263 96.3879 17.3216 95.9123 18.2088C95.4276 19.105 94.8239 19.8021 94.0922 20.3091C93.3513 20.816 92.6013 21.151 91.8422 21.3139C90.8086 21.5131 89.3086 21.6217 87.3421 21.6217H84.5159V29.6515L80.1622 29.6606ZM84.5159 11.9624V18.0278H86.8848C88.5952 18.0278 89.7293 17.9101 90.3056 17.6928C90.8818 17.4665 91.3299 17.1225 91.6592 16.6427C91.9885 16.1629 92.1531 15.6197 92.1531 14.986C92.1531 14.2075 91.9245 13.5647 91.4671 13.0578C91.0098 12.5508 90.4336 12.234 89.7202 12.1072C89.208 12.0167 88.1653 11.9624 86.6012 11.9624H84.5159ZM100.211 29.6606V8.35938H107.181C109.824 8.35938 111.534 8.46801 112.339 8.67622C113.574 9.00212 114.608 9.69014 115.431 10.7674C116.263 11.8356 116.675 13.2207 116.675 14.9136C116.675 16.2263 116.437 17.3216 115.961 18.2088C115.477 19.105 114.873 19.8021 114.141 20.3091C113.4 20.816 112.65 21.151 111.891 21.3139C110.858 21.5131 109.358 21.6217 107.391 21.6217H104.565V29.6515L100.211 29.6606ZM104.565 11.9624V18.0278H106.934C108.644 18.0278 109.778 17.9101 110.354 17.6928C110.931 17.4665 111.379 17.1225 111.708 16.6427C112.037 16.1629 112.202 15.6197 112.202 14.986C112.202 14.2075 111.973 13.5647 111.516 13.0578C111.059 12.5508 110.483 12.234 109.769 12.1072C109.257 12.0167 108.214 11.9624 106.65 11.9624H104.565Z" fill="#2C2B2A"/>
<path d="M115.718 34.3174H0.275879V37.066H115.718V34.3174Z" fill="#FECA0D"/>
</svg>
