<svg width="126" height="31" viewBox="0 0 126 31" fill="none" xmlns="http://www.w3.org/2000/svg">
<path d="M72.3402 15.3369C75.4056 10.4685 78.3007 5.68563 81.281 0.902712C81.3661 0.902712 81.3661 0.988121 81.4513 0.988121C80.8552 2.09844 80.3443 3.20876 79.7483 4.23367C77.5344 8.50413 75.3204 12.86 73.0214 17.1305C72.5956 17.9846 73.1065 18.6678 73.1917 19.6073C74.1283 17.8991 74.8947 16.4472 75.7462 14.9098C77.6195 11.5789 79.4077 8.33331 81.1958 5.00235C81.4513 4.57531 81.7067 4.40449 82.2176 4.40449C84.0058 4.40449 88.093 4.40449 88.4336 4.4899C88.2633 4.74613 79.9186 19.0949 75.8313 26.013C75.661 26.2692 75.3204 26.4401 75.065 26.4401C73.0214 26.4401 70.9778 26.4401 68.849 26.4401C68.3381 26.4401 68.1678 26.2692 68.0827 25.8422C66.4648 18.9241 63.0588 4.40449 63.0588 4.40449H68.7639C68.7639 4.40449 69.8708 4.4899 69.8708 5.25858C69.8708 5.34399 69.956 5.51481 70.0411 5.68563C71.3184 3.97744 72.5956 2.35467 73.8729 0.646484C73.8729 0.646484 73.958 0.646484 73.958 0.731894C73.8729 0.902712 73.8729 1.07353 73.7877 1.15894C72.8511 2.95253 71.9144 4.66072 70.8926 6.3689C70.552 7.05218 70.2966 7.65004 70.7223 8.50413C72.5105 5.94186 74.3838 3.29417 76.172 0.731894C76.2571 0.731894 76.2571 0.817303 76.3422 0.817303C75.7462 1.92762 75.1501 3.03794 74.6392 4.06285C73.6174 5.94186 72.5956 7.90627 71.5738 9.78527C71.2332 10.4685 71.2332 11.0664 71.5738 11.7497C73.958 8.07709 76.3422 4.4899 78.7265 0.817303C78.7265 0.817303 78.8116 0.817303 78.8116 0.902712C78.7265 1.07353 78.7264 1.15894 78.6413 1.32976C76.5977 5.25858 74.5541 9.18741 72.4253 13.1162C71.9144 13.8849 71.9996 14.5682 72.3402 15.3369Z" fill="#D42128"/>
<path d="M56.2467 22.3405C54.3734 24.9882 52.5853 27.5504 50.712 30.1981C50.712 30.1981 50.6268 30.1981 50.6268 30.1127C50.712 29.9419 50.7971 29.6857 50.8823 29.5149C52.415 26.6964 53.8625 23.8779 55.3952 21.0593C55.7358 20.3761 55.7358 19.7782 55.3952 19.0095C52.9259 22.6821 50.5417 26.3547 48.1575 30.0273L48.0723 29.9419C48.3278 29.4295 48.6684 28.8316 48.9238 28.3191C50.8823 24.6465 52.8407 20.9739 54.714 17.3013C54.9695 16.8743 54.7992 16.191 54.8843 15.5932C54.7992 15.5932 54.714 15.5077 54.6289 15.5077C51.7338 20.1198 48.8387 24.7319 46.0287 29.344C45.9435 29.344 45.9436 29.2586 45.8584 29.2586C45.9436 29.0024 46.0287 28.8316 46.199 28.5754C48.6684 23.7924 51.1377 19.0095 53.6922 14.2266C54.2883 13.2017 54.118 12.3476 53.6922 11.2373C52.8407 12.7747 52.0744 14.2266 51.2229 15.6786C49.4347 19.0095 47.5614 22.3405 45.7732 25.6714C45.5178 26.0985 45.2623 26.2693 44.7514 26.2693C42.9633 26.2693 41.1751 26.2693 39.3018 26.2693C39.0464 26.2693 38.8761 26.2693 38.5355 26.2693C38.6206 26.0131 38.7058 25.8423 38.7909 25.6714C42.8781 18.7533 46.9653 11.7497 51.0526 4.8316C51.308 4.40455 51.6486 4.14832 52.1595 4.23373C54.118 4.23373 56.0764 4.23373 58.0349 4.23373C58.4607 4.23373 58.7161 4.31914 58.8013 4.8316C60.4191 11.8352 62.1221 18.9241 63.8251 25.9277C63.8251 26.0131 63.8251 26.0985 63.9103 26.3547C63.5697 26.3547 63.3142 26.3547 62.9736 26.3547C61.3558 26.3547 59.7379 26.3547 58.1201 26.3547C57.4389 26.3547 57.0982 26.1839 57.0982 25.5006C57.0982 25.4152 57.0131 25.3298 56.9279 25.0736C55.6507 26.6964 54.4586 28.3191 53.2665 29.8565L53.1813 29.7711C53.2665 29.6003 53.3516 29.4295 53.4368 29.2586C54.2883 27.6359 55.2249 25.9277 56.1616 24.3049C56.5022 23.7924 56.6725 23.1946 56.2467 22.3405Z" fill="#D42128"/>
<path d="M105.123 4.40441C105.123 4.40441 104.612 7.73537 104.272 9.35815C104.272 9.52896 103.846 9.69978 103.59 9.69978C101.376 9.69978 99.2477 9.69978 97.0337 9.69978C96.5228 9.69978 96.1822 9.78519 96.1822 10.3831C96.0971 11.0663 95.9268 11.835 95.8416 12.6037C98.2259 12.6037 100.525 12.6037 102.994 12.6037C102.739 14.3119 102.398 15.9347 102.143 17.6428C100.355 17.6428 98.5664 17.6428 96.8634 17.6428C96.2674 17.6428 95.5862 17.6428 95.1604 17.9845C94.8198 18.2407 94.8198 18.8386 94.7347 19.4364C94.6495 19.9489 94.5644 20.4613 94.4792 21.0592C97.1189 21.0592 99.6734 21.0592 102.313 21.0592C102.058 22.4258 101.632 24.988 101.632 25.0734C101.376 26.6108 101.376 26.6108 99.8437 26.6108C95.7565 26.6108 86.4751 26.6108 86.4751 26.6108C86.4751 26.6108 89.1148 11.2371 90.1366 5.17309C90.2217 4.74605 90.3069 4.57523 90.7326 4.57523C95.4159 4.40441 105.123 4.40441 105.123 4.40441Z" fill="#D42128"/>
<path d="M19.8024 19.7782C19.4618 21.5718 19.2063 23.28 18.8657 25.0736C18.8657 25.2444 18.5251 25.5006 18.3548 25.5861C15.9706 26.7818 13.5012 27.2088 10.8616 27.038C9.15857 26.9526 7.45556 26.6964 5.8377 25.9277C2.94259 24.5611 1.32473 22.1697 0.984131 19.0095C0.558379 14.3974 1.83563 10.2978 5.3268 7.13766C7.96646 4.7462 11.2873 3.8067 14.7785 3.72129C17.1627 3.72129 19.4618 4.06293 21.5905 5.25866C22.0163 5.51489 22.1866 5.77111 22.1014 6.28357C21.846 7.73552 21.5905 9.27289 21.3351 10.7248C21.1648 11.4935 20.9093 11.5789 20.2281 11.1519C19.3766 10.6394 18.44 10.127 17.5033 9.78535C13.2458 8.4188 8.98827 10.6394 7.96646 14.7391C7.71101 15.9348 7.62586 17.1305 7.96646 18.3263C8.64766 20.2907 10.0952 21.3156 12.1388 21.5718C14.2676 21.828 16.226 21.2302 18.1845 20.2907C18.6954 20.0345 19.1212 19.8636 19.6321 19.6074C19.7172 19.6074 19.7172 19.6928 19.8024 19.7782Z" fill="#D42128"/>
<path d="M32.7452 4.48994C31.8085 10.0415 30.8719 15.5077 29.9352 21.0593C32.4897 21.0593 34.8739 21.0593 37.3433 21.0593C37.0879 22.7675 36.7473 24.3903 36.4918 26.0131C36.4067 26.5255 36.066 26.4401 35.7254 26.4401C32.3194 26.4401 28.9134 26.4401 25.4223 26.4401C24.2302 26.4401 23.1232 26.4401 21.8459 26.4401C22.1014 25.0736 22.2717 23.7924 22.5271 22.5113C23.6341 16.618 24.6559 10.8102 25.6777 4.91698C25.7629 4.57535 25.7629 4.31912 26.1886 4.31912C28.3174 4.31912 30.361 4.31912 32.4897 4.31912C32.5749 4.40453 32.66 4.40453 32.7452 4.48994Z" fill="#D42128"/>
<path d="M104.527 26.3546L108.188 4.40441H115.341L112.531 21.0592H119.939L119.088 26.3546H104.527Z" fill="#D42128"/>
<path d="M122.323 3.465C120.535 3.465 119.003 4.91696 119.003 6.79596C119.003 8.67496 120.45 10.1269 122.323 10.1269C124.112 10.1269 125.644 8.67496 125.644 6.79596C125.644 4.91696 124.112 3.465 122.323 3.465ZM122.323 9.18742C120.961 9.18742 119.854 8.0771 119.854 6.71055C119.854 5.344 120.961 4.23369 122.323 4.23369C123.686 4.23369 124.793 5.344 124.793 6.71055C124.793 8.0771 123.686 9.18742 122.323 9.18742Z" fill="#D42128"/>
<path d="M123.516 6.53968C123.601 6.36886 123.686 6.19805 123.686 6.02723C123.686 5.85641 123.686 5.68559 123.601 5.60018C123.516 5.51477 123.43 5.34395 123.345 5.34395C123.26 5.25854 123.09 5.25854 123.005 5.17314C122.834 5.17314 122.749 5.08773 122.579 5.08773H121.472V8.07705H122.153V6.96673H122.409L123.09 8.16246H123.941L123.175 6.88132C123.175 6.79591 123.345 6.7105 123.516 6.53968ZM122.409 6.45427H122.068V5.771H122.494C122.834 5.771 123.005 5.85641 123.005 6.11264C122.92 6.28346 122.749 6.45427 122.409 6.45427Z" fill="#D42128"/>
</svg>
