<svg width="172" height="31" viewBox="0 0 172 31" fill="none" xmlns="http://www.w3.org/2000/svg">
<path d="M23.208 14.6736C23.208 13.781 23.5651 12.7098 24.2792 11.9957L29.4564 5.74742C28.5638 4.67628 27.8497 3.60514 26.7785 2.71252C25.8859 1.8199 24.8148 0.927285 23.7436 0.213191L17.4953 5.21185C16.7812 5.74742 15.8886 6.10447 14.996 6.28299C14.996 6.28299 14.996 6.28299 14.8174 6.28299H14.6389H14.4604C14.4604 6.28299 14.4604 6.28299 14.2819 6.28299C13.3893 6.28299 12.4966 5.92594 11.7825 5.39037L5.71275 0.034668C4.64161 0.927285 3.57047 1.8199 2.49933 2.71252C1.60671 3.60514 0.714094 4.67628 0 5.74742L5.17718 11.9957C5.89127 12.7098 6.0698 13.781 6.24832 14.6736C6.24832 15.5662 5.89127 16.6374 5.17718 17.3514L0 23.7783C0.714094 24.8494 1.60671 25.9206 2.49933 26.8132C3.39195 27.7058 4.46309 28.5984 5.53423 29.3125L11.7825 24.1353C12.6752 23.5998 13.5678 23.2427 14.2819 23.2427C14.2819 23.2427 14.2819 23.2427 14.4604 23.2427H14.6389H14.8174C14.8174 23.2427 14.8174 23.2427 14.996 23.2427C15.8886 23.2427 16.7812 23.5998 17.4953 24.1353L23.7436 29.3125C24.8148 28.5984 25.8859 27.7058 26.7785 26.8132C27.6711 25.9206 28.5638 24.8494 29.2778 23.7783L24.1007 17.53C23.5651 16.6374 23.3866 15.7447 23.208 14.6736ZM14.6389 19.3152C12.1396 19.3152 9.99731 17.1729 9.99731 14.6736C9.99731 12.1743 12.1396 10.032 14.6389 10.032C17.1383 10.032 19.2805 12.1743 19.2805 14.6736C19.2805 17.1729 17.3168 19.3152 14.6389 19.3152Z" fill="#AABDBB"/>
<path d="M54.4496 25.2069C56.4133 25.2069 57.4845 25.2069 58.9127 24.4928L60.3409 17.3518H54.8066L55.6993 12.8888H65.8751L63.0187 27.7062C60.1623 29.3129 57.1274 30.027 53.7355 30.027C50.165 30.027 47.3086 28.9559 45.1664 26.6351C43.0241 24.3143 42.1315 21.2794 42.1315 17.5304C42.31 12.5317 43.5597 8.42567 46.7731 5.03372C52.1288 -0.679029 61.7691 -0.321982 68.0174 0.392112L67.3033 4.8552C65.518 4.67668 55.1637 3.78406 50.8791 8.42567C48.9154 10.568 47.3087 13.6029 47.3087 16.9948C47.1301 19.4941 48.0227 21.6364 49.2724 23.2431C50.5221 24.8498 51.9503 25.2069 54.4496 25.2069Z" fill="#3F8FFC"/>
<path d="M90.8686 29.313H85.6914L84.4417 20.5653H76.0511L71.588 29.313H66.5894L81.5853 0.213623H86.584L90.8686 29.313ZM84.2632 16.2807L82.835 6.64047L78.0149 16.4593L84.2632 16.2807Z" fill="#3F8FFC"/>
<path d="M171.026 29.313H165.849L164.599 20.5653H156.208L151.745 29.313H146.747L161.743 0.213623H166.741L171.026 29.313ZM164.42 16.2807L162.992 6.64047L158.172 16.4593L164.42 16.2807Z" fill="#3F8FFC"/>
<path d="M109.971 29.313H94.4392L99.9734 0.213623H104.437L99.7949 24.8499H110.863L109.971 29.313Z" fill="#3F8FFC"/>
<path d="M119.611 29.313H115.148L120.682 0.213623H125.145L119.611 29.313Z" fill="#3F8FFC"/>
<path d="M145.14 29.313H139.248L132.107 14.674H131.929L129.43 29.313H124.252L129.787 0.213623H134.964L132.107 13.0673H132.286L143.712 0.213623H149.781L137.999 13.9599L145.14 29.313Z" fill="#3F8FFC"/>
</svg>
