<svg width="125" height="59" viewBox="0 0 125 59" fill="none" xmlns="http://www.w3.org/2000/svg">
<path d="M102.377 35.8925C101.898 35.8925 101.515 35.5137 101.515 35.0402V21.2135V21.1188V21.0241C101.61 20.6453 101.898 20.2665 102.377 20.2665C102.857 20.2665 103.24 20.5506 103.24 21.0241V21.1188V21.2135V35.0402C103.24 35.5137 102.857 35.8925 102.377 35.8925ZM104.007 17.8042H100.748C97.9678 17.8042 97.7761 20.0771 97.7761 21.4976V34.7561C97.7761 36.1766 97.9678 38.4495 100.748 38.4495H104.007C106.787 38.4495 106.979 36.1766 106.979 34.7561V21.4976C107.074 20.0771 106.883 17.8042 104.007 17.8042Z" fill="#0079C1"/>
<path d="M41.6986 17.8042H49.2715V20.3612H45.6288V38.4495H41.6986V17.8042Z" fill="#0079C1"/>
<path d="M49.8466 38.4495H53.7768L54.1603 32.9567H56.0774L56.4609 38.4495H60.3911L58.2822 17.8989H51.9555L49.8466 38.4495ZM54.352 30.6838L55.023 20.3612H55.2147L55.8857 30.6838H54.352Z" fill="#0079C1"/>
<path d="M66.0468 31.252V35.1349C66.0468 35.7031 66.4302 35.7978 66.7178 35.7978C67.1012 35.7978 67.3888 35.5137 67.3888 35.1349V30.305C67.3888 29.6421 67.2929 28.9792 65.7592 28.9792H64.1296V26.7063H65.855C67.0054 26.7063 67.3888 26.4222 67.3888 25.191V21.1188C67.3888 20.74 67.1012 20.4559 66.7178 20.4559C66.5261 20.4559 66.0468 20.6453 66.0468 21.1188V24.4334H62.0207V21.4976C62.0207 20.0771 62.2124 17.8042 64.9923 17.8042H68.3474C71.1273 17.8042 71.319 20.0771 71.319 21.4976V24.8122C71.319 27.0851 69.7853 27.6533 68.635 27.5586V27.748C71.319 27.6533 71.319 29.8315 71.319 30.5891V34.7561C71.319 36.1766 71.1273 38.4495 68.3474 38.4495H64.9923C62.2124 38.4495 62.0207 36.1766 62.0207 34.7561V31.252H66.0468Z" fill="#0079C1"/>
<path d="M74.0031 17.8042H83.2055V38.4495H79.467V20.3612H77.7416V38.4495H74.0031V17.8042Z" fill="#0079C1"/>
<path d="M86.1772 38.4495H90.1074V31.4414H92.408C95.1879 31.4414 95.6672 29.1686 95.6672 27.748V21.4976C95.6672 20.0771 95.1879 17.8042 92.408 17.8042H86.0813V38.4495H86.1772ZM90.1074 29.1686V20.3612H91.1618C91.6411 20.3612 91.9287 20.74 91.9287 21.4029V28.1268C91.9287 28.7898 91.6411 29.1686 91.1618 29.1686H90.1074Z" fill="#0079C1"/>
<path d="M119.824 17.8042H125V38.4495H120.974V25.4751H120.878L118.769 38.4495H115.606L113.497 25.4751H113.401V38.4495H109.375V17.8042H114.551L117.14 32.2938L119.824 17.8042Z" fill="#0079C1"/>
<path d="M33.1672 19.8876C33.0713 21.9711 32.8796 24.1493 32.592 25.4751C32.6879 23.2022 32.4003 19.9823 31.921 17.5201C31.3459 15.0578 29.908 10.8909 28.6618 8.90209C27.6074 10.7014 26.1695 14.3949 25.4985 17.5201C24.8275 20.6453 24.7316 24.4334 24.7316 25.5698C24.5399 24.6228 24.0606 21.2135 24.2523 17.8042C24.3482 14.9631 25.0192 12.0273 25.4026 10.7014C26.8405 6.2504 28.3742 3.40931 28.6618 2.93579C28.9494 3.40931 30.9624 6.91332 32.0169 10.6067C32.9755 14.3002 33.1672 17.8042 33.1672 19.8876ZM28.6618 35.8925C27.9908 34.756 27.0322 32.5778 26.9364 29.1685C26.9364 25.8539 28.2784 23.0128 28.6618 22.4446C29.0453 23.0128 30.1956 25.4751 30.2914 28.8844C30.3873 32.1043 29.237 34.756 28.6618 35.8925ZM33.5506 10.6067C32.2086 5.20867 29.0453 0.757624 28.6618 0C27.9908 1.04173 25.4026 4.92456 24.1565 9.2809C22.7186 14.2055 22.5269 18.4671 23.0061 22.7287C23.4854 26.9904 25.3068 31.3467 25.3068 31.3467C26.2654 33.6196 27.7032 36.0819 28.6618 37.313C30.0038 35.5136 33.1672 30.305 34.2216 23.3917C34.7009 19.5088 34.7968 16.0995 33.5506 10.6067Z" fill="#0079C1"/>
<path d="M20.8972 38.4495V44.8893C23.1979 42.6164 26.9363 42.6164 29.237 44.8893C31.5376 47.1622 31.5376 50.7609 29.237 53.0338C26.9363 55.3067 23.9647 56.3484 20.9931 56.3484C18.0215 56.3484 15.0498 55.212 12.7492 52.9391C8.72316 48.9616 8.24387 42.8059 11.3113 38.3548C11.6948 37.7866 12.1741 37.2184 12.7492 36.6502C15.0498 34.3773 18.0215 33.2408 20.9931 33.2408V17.9937C9.39417 17.9937 0 27.1798 0 38.4495C0 49.8139 9.39417 59.0001 20.8972 59.0001C26.9363 59.0001 32.3044 56.5378 36.1388 52.4656V38.4495H20.8972Z" fill="#0079C1"/>
<path d="M121.261 54.1702C121.261 56.1589 120.399 56.443 118.098 56.443H115.989V47.5409H118.098V50.9502H118.482C120.59 50.9502 121.357 51.4238 121.357 53.2231V54.1702H121.261ZM103.623 49.1509H101.994V56.443H99.9808V49.1509H98.2554V47.4462H103.623V49.1509ZM87.4233 53.2231C87.4233 55.0225 86.4647 55.496 84.3558 55.496V56.3483H82.3428V55.496C80.2339 55.496 79.2753 55.0225 79.2753 53.2231V50.4767C79.2753 48.6774 80.138 48.2039 82.3428 48.2039V47.5409H84.3558V48.2039C86.4647 48.2039 87.4233 48.6774 87.4233 50.4767V53.2231ZM68.2515 49.1509H65.3758V50.9502H67.9639V52.6549H65.3758V54.7384H68.2515V56.443H63.171V47.4462H68.2515V49.1509ZM50.7093 56.443H48.6004V52.5602H47.546V56.443H45.4371V47.5409H47.546V50.9502H48.6004V47.5409H50.7093V56.443ZM125 45.2681H41.6986V59H125V45.2681ZM118.577 52.5602H118.098V54.9278H118.577C119.057 54.9278 119.153 54.8331 119.153 54.2649V53.2231C119.153 52.6549 119.057 52.5602 118.577 52.5602ZM81.3842 50.382V53.2231C81.3842 53.7913 81.5759 53.886 82.0552 53.886H82.3428V49.7191H82.0552C81.48 49.7191 81.3842 49.9085 81.3842 50.382ZM84.7393 49.7191H84.3558V53.886H84.6434C85.1227 53.886 85.3144 53.7913 85.3144 53.2231V50.382C85.3144 49.8138 85.1227 49.7191 84.7393 49.7191Z" fill="#0079C1"/>
</svg>
