<svg width="167" height="34" viewBox="0 0 167 34" fill="none" xmlns="http://www.w3.org/2000/svg">
<path d="M62.7888 0.485352H0.0395508V33.8367H62.7888V0.485352Z" fill="#033662"/>
<path d="M166.101 0.485352H62.5869V33.8367H166.101V0.485352Z" fill="#DB681A"/>
<path d="M19.8398 7.65234H12.1236C9.50294 7.65234 7.31909 9.84651 7.31909 12.6258V26.5222C7.31909 26.6685 7.46468 26.8147 7.61027 26.8147H10.6677C10.8132 26.8147 10.9588 26.6685 10.9588 26.5222V12.6258C10.9588 11.8944 11.5412 11.4556 12.1236 11.4556H19.8398C20.131 11.4556 20.2766 11.3093 20.2766 11.0167V8.09118C20.2766 7.9449 20.131 7.65234 19.8398 7.65234Z" fill="white"/>
<path d="M37.165 7.79862H34.1076C33.962 7.79862 33.8164 7.9449 33.8164 8.09118V16.5753H29.0119C27.556 16.5753 26.3913 15.4051 26.3913 13.9423V8.23745C26.3913 7.9449 26.1001 7.65234 25.8089 7.65234H23.1883C22.8971 7.65234 22.606 7.9449 22.606 8.23745V13.796C22.606 17.3067 25.3722 20.086 28.8663 20.086H33.6708V26.2296C33.6708 26.3759 33.8164 26.5222 33.962 26.5222H37.0194C37.165 26.5222 37.3105 26.3759 37.3105 26.2296V8.09118C37.4561 7.9449 37.3105 7.79862 37.165 7.79862Z" fill="white"/>
<path d="M54.7813 7.79883H41.9694C41.387 7.79883 40.8047 8.38394 40.8047 8.96905V26.0836C40.8047 26.3761 41.0959 26.6687 41.387 26.6687H43.8621C44.1533 26.6687 44.4444 26.3761 44.4444 26.0836V11.4558H52.1607V26.0836C52.1607 26.3761 52.4519 26.6687 52.7431 26.6687H55.2181C55.5093 26.6687 55.8004 26.3761 55.8004 26.0836V8.96905C55.8004 8.38394 55.3637 7.79883 54.7813 7.79883Z" fill="white"/>
<path d="M86.318 9.26172H83.9886L73.5061 22.2804V9.26172H69.5752V25.4986H70.8855H73.5061H76.1267L86.318 12.9187V25.4986H90.249V9.26172H89.2298H86.318Z" fill="white"/>
<path d="M106.701 15.2591H96.8007V9.26172H93.0154V25.4986H96.8007V18.7698H106.701V25.4986H110.632V9.26172H106.701V15.2591Z" fill="white"/>
<path d="M133.781 10.2862H127.52V8.96973H123.589V10.2862H117.329C114.854 10.2862 112.816 12.3341 112.816 14.8208V19.3555C112.816 21.8422 114.854 23.8901 117.329 23.8901H123.589V25.6454H127.52V23.8901H133.781C136.256 23.8901 138.294 21.8422 138.294 19.3555V14.6746C138.294 12.3341 136.256 10.2862 133.781 10.2862ZM118.348 20.5257C117.475 20.5257 116.747 19.7943 116.747 18.9166V15.1134C116.747 14.2357 117.475 13.5043 118.348 13.5043H123.589V20.5257H118.348ZM134.363 18.9166C134.363 19.7943 133.635 20.5257 132.762 20.5257H127.52V13.5043H132.762C133.635 13.5043 134.363 14.2357 134.363 15.1134V18.9166Z" fill="white"/>
<path d="M155.473 8.96973H145.428C142.953 8.96973 140.914 11.0176 140.914 13.5043V20.9645C140.914 23.4512 142.953 25.4991 145.428 25.4991H155.473C157.948 25.4991 159.987 23.4512 159.987 20.9645V13.3581C159.841 10.8713 157.948 8.96973 155.473 8.96973ZM155.91 20.672C155.91 21.5496 155.182 22.281 154.309 22.281H146.447C145.573 22.281 144.845 21.5496 144.845 20.672V13.7969C144.845 12.9192 145.573 12.1878 146.447 12.1878H154.309C155.182 12.1878 155.91 12.9192 155.91 13.7969V20.672Z" fill="white"/>
</svg>
