<svg width="143" height="38" viewBox="0 0 143 38" fill="none" xmlns="http://www.w3.org/2000/svg">
<path d="M37.436 0.951172H0.535156V37.3708H37.436V0.951172Z" fill="#E42442"/>
<path d="M27.3292 9.88245H29.2095C29.6796 9.88245 30.0322 9.53449 30.0322 9.07054C30.0322 8.6066 29.6796 8.25864 29.2095 8.25864H25.0964C24.6263 8.25864 24.2738 8.6066 24.2738 9.07054C24.2738 9.4185 24.3913 9.65047 24.7438 9.76646C28.0343 11.6222 30.0322 14.9858 30.0322 18.6974C30.0322 21.597 28.7395 24.2647 26.7416 26.1205L18.7504 18.1175L24.0387 12.8981C24.3913 12.5501 24.3913 12.0862 24.0387 11.8542C23.6862 11.5063 23.2161 11.5063 22.981 11.8542L16.0474 18.5814V8.49061C16.0474 8.02667 15.6949 7.67871 15.2248 7.67871C15.1073 7.67871 14.8723 7.67871 14.7547 7.7947C10.289 9.65047 7.35107 13.942 7.35107 18.6974C7.35107 25.1926 12.7569 30.528 19.338 30.528C25.919 30.528 31.3249 25.1926 31.3249 18.6974C31.3249 15.3338 29.7971 12.0862 27.3292 9.88245ZM8.87882 18.8134C8.87882 14.9858 10.9942 11.5063 14.4022 9.76646V27.9763C11.1117 26.1205 8.87882 22.7569 8.87882 18.8134ZM15.9299 28.5562V20.9011L17.5752 19.2773L25.4489 27.1644C23.6862 28.3242 21.6883 29.0202 19.4555 29.0202C18.1628 29.1361 16.9876 28.9042 15.9299 28.5562Z" fill="white"/>
<path d="M50.7157 15.5653H52.4785L55.5339 20.5527H59.7646L55.5339 13.8255L59.7646 7.44629H55.769L52.596 12.5497H50.7157V7.44629H46.9551V20.5527H50.7157V15.5653Z" fill="#242C43"/>
<path d="M70.6937 7.44629H66.9331L61.0571 20.6687H64.9352L65.9929 18.117H71.6338L72.6915 20.6687H76.6871L70.6937 7.44629ZM67.0506 15.3333L68.8134 11.1578L70.5761 15.3333H67.0506Z" fill="#242C43"/>
<path d="M84.3259 17.0731C84.5609 15.9133 84.6784 14.4055 84.7959 12.4337L84.9135 10.23H88.7916V20.4367H92.5522V7.44629H81.7405L81.5054 12.6657C81.5054 13.8255 81.3879 14.6374 81.2704 15.3333C81.1529 16.0293 80.9178 16.6092 80.6828 16.9572C80.4477 17.3051 79.9777 17.5371 79.5076 17.5371C79.2726 17.5371 79.1551 17.5371 79.0375 17.5371L78.8025 20.5527C79.3901 20.6687 79.9777 20.7847 80.5653 20.7847C81.6229 20.7847 82.5631 20.4367 83.1507 19.8568C83.7383 19.1609 84.0908 18.349 84.3259 17.0731Z" fill="#242C43"/>
<path d="M100.779 15.1014V7.44629H97.0181V20.5527H100.661L106.185 12.8976V20.5527H109.828V7.44629H106.302L100.779 15.1014Z" fill="#242C43"/>
<path d="M125.223 19.5088C126.163 18.8129 126.633 17.7691 126.633 16.3772C126.633 15.1014 126.163 14.1735 125.34 13.4776C124.518 12.7817 123.225 12.4337 121.58 12.4337H118.171V10.23H125.575V7.44629H114.411V20.6687H121.109C122.872 20.5527 124.282 20.2048 125.223 19.5088ZM118.171 17.885V14.9854H120.874C122.167 14.9854 122.872 15.4493 122.872 16.3772C122.872 16.8412 122.755 17.1891 122.402 17.4211C122.05 17.6531 121.58 17.7691 120.992 17.7691H118.171V17.885Z" fill="#242C43"/>
<path d="M141.675 9.6498C141.205 8.95388 140.5 8.37395 139.56 7.91001C138.62 7.56205 137.562 7.33008 136.387 7.33008H130.276V20.5525H134.036V17.0729H136.387C137.562 17.0729 138.62 16.8409 139.56 16.493C140.5 16.145 141.088 15.5651 141.675 14.7532C142.145 14.0573 142.38 13.1294 142.38 12.2015C142.38 11.2736 142.145 10.4617 141.675 9.6498ZM138.032 13.7093C137.68 14.0573 137.092 14.1733 136.269 14.1733H134.154V10.3457H136.269C137.092 10.3457 137.68 10.4617 138.032 10.8097C138.385 11.1576 138.62 11.6216 138.62 12.2015C138.62 12.8974 138.385 13.3614 138.032 13.7093Z" fill="#242C43"/>
<path d="M47.1902 27.7432H48.2478V30.2949H48.7179V27.7432H49.7756V27.2793H47.1902V27.7432Z" fill="#242C43"/>
<path d="M50.8334 29.0191H52.3611V28.5551H50.8334V27.7432H52.4786V27.2793H50.3633V30.2949H52.5961V29.831H50.8334V29.0191Z" fill="#242C43"/>
<path d="M55.1813 27.3953C54.9463 27.2793 54.7112 27.2793 54.4762 27.2793H53.301V30.1789H53.8886V29.367H54.5937C54.8288 29.367 55.0638 29.367 55.2988 29.2511C55.5339 29.1351 55.6514 29.0191 55.7689 28.9031C55.7689 28.7871 55.7689 28.5551 55.7689 28.3232C55.7689 28.0912 55.7689 27.9752 55.6514 27.7432C55.5339 27.6273 55.4164 27.5113 55.1813 27.3953ZM55.0638 28.7871C54.9463 28.9031 54.7112 28.9031 54.4762 28.9031H53.7711V27.7432H54.4762C54.7112 27.7432 54.9463 27.7432 55.0638 27.8592C55.1813 27.9752 55.2988 28.0912 55.2988 28.3232C55.2988 28.5551 55.1813 28.6711 55.0638 28.7871Z" fill="#242C43"/>
<path d="M58.3544 27.3953C58.1194 27.2793 57.8843 27.2793 57.6493 27.2793H56.4741V30.1789H56.9442V29.367H57.6493C57.8843 29.367 58.1194 29.367 58.3544 29.2511C58.5895 29.1351 58.707 29.0191 58.8245 28.9031C58.942 28.7871 58.942 28.5551 58.942 28.3232C58.942 28.0912 58.942 27.9752 58.8245 27.7432C58.707 27.6273 58.5895 27.5113 58.3544 27.3953ZM58.2369 28.7871C58.1194 28.9031 57.8843 28.9031 57.6493 28.9031H56.9442V27.7432H57.6493C57.8843 27.7432 58.1194 27.7432 58.2369 27.8592C58.3544 27.9752 58.4719 28.0912 58.4719 28.3232C58.4719 28.5551 58.3544 28.6711 58.2369 28.7871Z" fill="#242C43"/>
<path d="M60.1171 29.367V27.2793H59.5295V30.2949H60.1171L61.6449 28.2072V30.2949H62.2325V27.2793H61.7624L60.1171 29.367Z" fill="#242C43"/>
<path d="M62.8201 27.7432H63.7602V30.2949H64.3478V27.7432H65.4055V27.2793H62.8201V27.7432Z" fill="#242C43"/>
<path d="M68.1085 27.5113C67.8735 27.3953 67.6384 27.2793 67.2859 27.2793C66.9333 27.2793 66.6983 27.3953 66.4632 27.5113C66.2282 27.6273 65.9932 27.8592 65.8757 28.0912C65.7581 28.3232 65.6406 28.5551 65.6406 28.9031C65.6406 29.1351 65.7581 29.483 65.8757 29.715C65.9932 29.947 66.2282 30.1789 66.4632 30.2949C66.6983 30.4109 66.9333 30.5269 67.2859 30.5269C67.6384 30.5269 67.8735 30.4109 68.1085 30.2949C68.3435 30.1789 68.5786 29.947 68.6961 29.715C68.8136 29.483 68.9311 29.2511 68.9311 28.9031C68.9311 28.5551 68.8136 28.3232 68.6961 28.0912C68.5786 27.7432 68.3435 27.6273 68.1085 27.5113ZM68.226 29.367C68.1085 29.483 67.991 29.599 67.8735 29.715C67.7559 29.831 67.5209 29.831 67.2859 29.831C67.0508 29.831 66.9333 29.831 66.6983 29.715C66.5808 29.599 66.4632 29.483 66.3457 29.367C66.2282 29.2511 66.2282 29.0191 66.2282 28.7871C66.2282 28.5551 66.2282 28.4392 66.3457 28.2072C66.4632 28.0912 66.5808 27.9752 66.6983 27.8592C66.8158 27.7432 67.0508 27.7432 67.2859 27.7432C67.5209 27.7432 67.6384 27.7432 67.8735 27.8592C67.991 27.9752 68.1085 28.0912 68.226 28.2072C68.3435 28.3232 68.3435 28.5551 68.3435 28.7871C68.3435 29.0191 68.3435 29.1351 68.226 29.367Z" fill="#242C43"/>
<path d="M71.5165 27.3953C71.2815 27.2793 71.0465 27.2793 70.8114 27.2793H69.6362V30.1789H70.2238V29.367H70.9289C71.164 29.367 71.399 29.367 71.634 29.2511C71.8691 29.1351 71.9866 29.0191 72.1041 28.9031C72.2216 28.7871 72.2216 28.5551 72.2216 28.3232C72.2216 28.0912 72.2216 27.9752 72.1041 27.7432C71.8691 27.6273 71.7516 27.5113 71.5165 27.3953ZM71.399 28.7871C71.2815 28.9031 71.0465 28.9031 70.8114 28.9031H70.1063V27.7432H70.8114C71.0465 27.7432 71.2815 27.7432 71.399 27.8592C71.5165 27.9752 71.634 28.0912 71.634 28.3232C71.634 28.5551 71.5165 28.6711 71.399 28.7871Z" fill="#242C43"/>
<path d="M73.2792 29.367V27.2793H72.8091V30.2949H73.2792L74.9244 28.2072V30.2949H75.3945V27.2793H74.9244L73.2792 29.367Z" fill="#242C43"/>
<path d="M76.6874 27.3953C76.4524 27.5113 76.3349 27.6273 76.2174 27.7432C76.0999 27.8592 76.0999 28.0912 76.0999 28.3232C76.0999 28.5551 76.0999 28.7871 76.2174 28.9031C76.3349 29.0191 76.4524 29.1351 76.6874 29.2511L76.0999 30.1789H76.6874L77.275 29.367H77.3926H78.0977V30.1789H78.6853V27.2793H77.3926C77.1575 27.2793 76.9225 27.3953 76.6874 27.3953ZM78.0977 27.7432V29.0191H77.3926C77.1575 29.0191 77.04 29.0191 76.9225 28.9031C76.805 28.7871 76.805 28.6711 76.805 28.4392C76.805 28.2072 76.9225 28.0912 77.04 27.9752C77.1575 27.8592 77.3926 27.8592 77.5101 27.8592H78.0977V27.7432Z" fill="#242C43"/>
<path d="M82.3283 28.4392H81.3881V27.7432H83.1509V27.2793H80.8005V30.1789H82.0932C82.4458 30.1789 82.7984 30.063 82.9159 29.947C83.1509 29.831 83.2684 29.599 83.2684 29.2511C83.2684 29.0191 83.1509 28.7871 83.0334 28.5551C82.9159 28.5551 82.6808 28.4392 82.3283 28.4392ZM82.6808 29.715C82.5633 29.831 82.4458 29.831 82.2108 29.831H81.3881V28.9031H82.2108C82.6808 28.9031 82.9159 29.0191 82.9159 29.367C82.7984 29.483 82.7984 29.599 82.6808 29.715Z" fill="#242C43"/>
<path d="M84.6787 29.367V27.2793H84.0911V30.2949H84.6787L86.2064 28.2072V30.2949H86.794V27.2793H86.3239L84.6787 29.367Z" fill="#242C43"/>
<path d="M89.2618 28.6711C89.3793 28.5551 89.4969 28.5551 89.6144 28.4392C89.7319 28.3232 89.7319 28.2072 89.7319 28.0912C89.7319 27.9752 89.7319 27.7432 89.6144 27.6273C89.4969 27.5113 89.3793 27.3953 89.1443 27.3953C88.9093 27.2793 88.7917 27.2793 88.5567 27.2793C88.4392 27.2793 88.2041 27.2793 88.0866 27.3953C87.9691 27.3953 87.7341 27.5113 87.6165 27.6273L87.7341 28.0912C87.8516 27.9752 87.9691 27.9752 88.0866 27.9752C88.2041 27.9752 88.3217 27.9752 88.5567 27.9752C88.7917 27.9752 88.9093 27.9752 89.0268 28.0912C89.1443 28.2072 89.2618 28.3232 89.2618 28.4392C89.2618 28.5551 89.2618 28.6711 89.1443 28.6711C89.0268 28.7871 88.9093 28.7871 88.7917 28.7871H88.0866V29.2511H88.6742C88.9093 29.2511 89.0268 29.2511 89.1443 29.367C89.2618 29.483 89.2618 29.483 89.2618 29.715C89.2618 29.831 89.1443 29.947 89.0268 30.063C88.9093 30.179 88.6742 30.179 88.4392 30.179C88.3217 30.179 88.0866 30.179 87.9691 30.063C87.8516 30.063 87.6165 29.947 87.499 29.831V29.947C87.6165 30.063 87.8516 30.179 88.0866 30.179C88.3217 30.179 88.4392 30.2949 88.6742 30.2949C88.9093 30.2949 89.1443 30.2949 89.2618 30.179C89.4968 30.063 89.6144 30.063 89.7319 29.831C89.8494 29.599 89.8494 29.599 89.8494 29.367C89.8494 29.2511 89.8494 29.0191 89.7319 28.9031C89.6144 28.9031 89.4968 28.7871 89.2618 28.6711Z" fill="#242C43"/>
<path d="M92.6697 28.5551H91.142V27.2793H90.6719V30.2949H91.142V29.0191H92.6697V30.2949H93.2573V27.2793H92.6697V28.5551Z" fill="#242C43"/>
<path d="M94.7851 29.0191H96.1953V28.5551H94.7851V27.7432H96.4304V27.2793H94.1975V30.2949H96.4304V29.831H94.7851V29.0191Z" fill="#242C43"/>
<path d="M98.0756 27.8592C98.1931 27.7432 98.4281 27.7432 98.6632 27.7432C99.0157 27.7432 99.2508 27.8592 99.4858 28.0912L99.8384 27.7432C99.7209 27.6273 99.4858 27.5113 99.3683 27.3953C99.1333 27.2793 98.8982 27.2793 98.6632 27.2793C98.3106 27.2793 98.0756 27.3953 97.8405 27.5113C97.6055 27.6273 97.3705 27.8592 97.253 28.0912C97.0179 28.2072 96.9004 28.4392 96.9004 28.7871C96.9004 29.1351 97.0179 29.367 97.1354 29.599C97.2529 29.831 97.488 30.063 97.723 30.1789C97.9581 30.2949 98.1931 30.4109 98.5457 30.4109C98.7807 30.4109 99.0157 30.4109 99.2508 30.2949C99.4858 30.1789 99.6033 30.063 99.7209 29.947L99.3683 29.599C99.1333 29.831 98.8982 29.947 98.5457 29.947C98.3106 29.947 98.1931 29.947 97.9581 29.831C97.8405 29.715 97.723 29.599 97.6055 29.483C97.488 29.367 97.488 29.1351 97.488 28.9031C97.488 28.6711 97.488 28.5551 97.6055 28.3232C97.723 28.0912 97.8405 27.9752 98.0756 27.8592Z" fill="#242C43"/>
<path d="M101.249 27.2793L99.9558 30.1789H100.543L100.896 29.483H102.424L102.776 30.1789H103.364L102.071 27.2793H101.249ZM101.013 29.1351L101.601 27.8592L102.189 29.1351H101.013Z" fill="#242C43"/>
<path d="M105.597 29.367V27.2793H105.009V30.2949H105.479L107.125 28.2072V30.2949H107.712V27.2793H107.125L105.597 29.367Z" fill="#242C43"/>
<path d="M110.415 29.367V27.2793H109.945V30.2949H110.415L112.06 28.2072V30.2949H112.53V27.2793H112.06L110.415 29.367Z" fill="#242C43"/>
<path d="M115.586 28.5551H114.058V27.2793H113.47V30.2949H114.058V29.0191H115.586V30.2949H116.173V27.2793H115.586V28.5551Z" fill="#242C43"/>
<path d="M119.229 28.5551H117.701V27.2793H117.114V30.2949H117.701V29.0191H119.229V30.2949H119.816V27.2793H119.229V28.5551Z" fill="#242C43"/>
<path d="M122.989 27.5113C122.754 27.3953 122.519 27.2793 122.167 27.2793C121.814 27.2793 121.579 27.3953 121.344 27.5113C121.109 27.6273 120.874 27.8592 120.757 28.0912C120.639 28.3232 120.521 28.5551 120.521 28.9031C120.521 29.1351 120.639 29.483 120.757 29.715C120.874 29.947 121.109 30.1789 121.344 30.2949C121.579 30.4109 121.814 30.5269 122.167 30.5269C122.519 30.5269 122.754 30.4109 122.989 30.2949C123.224 30.1789 123.459 29.947 123.577 29.715C123.694 29.483 123.812 29.2511 123.812 28.9031C123.812 28.5551 123.694 28.3232 123.577 28.0912C123.459 27.8592 123.224 27.6273 122.989 27.5113ZM122.989 29.367C122.872 29.483 122.754 29.599 122.637 29.715C122.519 29.831 122.284 29.831 122.049 29.831C121.814 29.831 121.697 29.831 121.462 29.715C121.344 29.599 121.227 29.483 121.109 29.367C120.992 29.2511 120.992 29.0191 120.992 28.7871C120.992 28.5551 120.992 28.4392 121.109 28.2072C121.227 28.0912 121.344 27.9752 121.462 27.8592C121.579 27.7432 121.814 27.7432 122.049 27.7432C122.284 27.7432 122.402 27.7432 122.637 27.8592C122.754 27.9752 122.872 28.0912 122.989 28.2072C123.107 28.3232 123.107 28.5551 123.107 28.7871C123.107 29.0191 123.107 29.1351 122.989 29.367Z" fill="#242C43"/>
<path d="M126.398 28.6711C126.515 28.5551 126.633 28.5551 126.75 28.4392C126.868 28.3232 126.868 28.2072 126.868 28.0912C126.868 27.8592 126.75 27.6273 126.633 27.5113C126.398 27.3953 126.163 27.2793 125.81 27.2793H124.517V30.1789H125.928C126.28 30.1789 126.633 30.063 126.75 29.947C126.985 29.831 126.985 29.599 126.985 29.367C126.985 29.1351 126.985 29.0191 126.868 28.9031C126.75 28.9031 126.633 28.7871 126.398 28.6711ZM124.987 27.7432H125.693C125.928 27.7432 126.045 27.7432 126.045 27.8592C126.163 27.9752 126.163 28.0912 126.163 28.2072C126.163 28.3232 126.163 28.4392 126.045 28.5551C125.928 28.6711 125.81 28.6711 125.693 28.6711H124.987V27.7432ZM125.81 29.831H124.987V29.0191H125.81C126.163 29.0191 126.398 29.1351 126.398 29.483C126.398 29.715 126.28 29.831 125.81 29.831Z" fill="#242C43"/>
<path d="M128.748 27.2793L127.455 30.1789H128.043L128.395 29.483H129.923L130.276 30.1789H130.863L129.571 27.2793H128.748ZM128.395 29.1351L128.983 27.8592L129.571 29.1351H128.395Z" fill="#242C43"/>
<path d="M133.801 27.2793H133.214V29.831H131.686V27.2793H131.216V30.2949H133.684V30.8749H134.272V29.831H133.801V27.2793Z" fill="#242C43"/>
<path d="M135.329 29.367V27.2793H134.859V30.2949H135.329L136.974 28.2072V30.2949H137.444V27.2793H136.974L135.329 29.367Z" fill="#242C43"/>
<path d="M140.382 26.9317C140.5 26.8157 140.617 26.6997 140.617 26.4678H140.265C140.265 26.5838 140.265 26.6997 140.147 26.6997C140.03 26.6997 140.03 26.8157 139.912 26.8157C139.795 26.8157 139.677 26.8157 139.677 26.6997C139.56 26.6997 139.56 26.5838 139.56 26.4678H139.207C139.207 26.6997 139.325 26.8157 139.442 26.9317C139.56 27.0477 139.795 27.0477 140.03 27.0477C140.03 27.1637 140.265 27.0477 140.382 26.9317Z" fill="#242C43"/>
<path d="M138.972 29.367V27.2793H138.502V30.2949H138.972L140.617 28.2072V30.2949H141.087V27.2793H140.617L138.972 29.367Z" fill="#242C43"/>
</svg>
