<svg width="154" height="45" viewBox="0 0 154 45" fill="none" xmlns="http://www.w3.org/2000/svg">
<path fill-rule="evenodd" clip-rule="evenodd" d="M10.4544 36.0522L22.4562 24.027L34.458 36.0522C35.7916 37.3884 35.7916 40.6333 33.4103 42.0648C26.9331 45.8824 17.9794 46.0732 11.6927 42.0648C8.93036 40.347 9.12087 37.3884 10.4544 36.0522ZM21.8847 29.7533C21.8847 30.3259 21.599 30.8986 21.2179 31.2803L17.8841 34.5252V31.2803C17.8841 30.5168 18.3604 29.8487 18.6461 29.5624L21.8847 26.3175V29.7533ZM21.8847 34.907C21.8847 35.3842 21.599 35.8614 21.3132 36.1477L18.5509 38.9154V36.2431C18.5509 35.575 18.9319 35.0024 19.2176 34.7161L21.98 31.9484V34.907H21.8847ZM23.0277 34.907C23.0277 35.3842 23.3135 35.8614 23.5993 36.1477L26.3616 38.9154V36.2431C26.3616 35.575 25.9806 35.0024 25.6948 34.7161L23.0277 31.9484V34.907ZM23.0277 29.7533C23.0277 30.3259 23.3135 30.8986 23.6945 31.2803L27.0283 34.5252V31.2803C27.0283 30.5168 26.5521 29.8487 26.2663 29.5624L23.123 26.3175V29.7533H23.0277ZM23.6945 37.8656C24.8375 39.0108 24.5518 39.6789 24.1708 40.4424L22.4562 44.069L20.6464 40.4424C20.2654 39.6789 20.1702 38.9154 21.2179 37.8656L22.4562 36.6249L23.6945 37.8656ZM35.9821 34.5252L23.9803 22.5L35.9821 10.4748C37.4109 9.13865 40.5542 9.13865 41.983 11.62C45.7931 18.1098 45.9836 27.081 42.0783 33.4754C40.2684 36.0522 37.3156 35.7659 35.9821 34.5252ZM37.7919 21.2593C38.9349 20.114 39.6017 20.4004 40.3637 20.7821L43.9833 22.5L40.3637 24.3133C39.6017 24.6951 38.8397 24.7905 37.7919 23.7407L36.5536 22.5L37.7919 21.2593ZM34.8391 23.0726C35.3153 23.0726 35.7916 23.3589 36.1726 23.6453L38.9349 26.413H36.1726C35.5058 26.413 34.9343 26.0312 34.6486 25.7449L31.8862 22.9772H34.8391V23.0726ZM29.6954 23.0726C30.2669 23.0726 30.8384 23.3589 31.2195 23.7407L34.5533 26.9856H31.3147C30.5527 26.9856 29.8859 26.5084 29.6002 26.2221L26.4568 22.9772H29.6954V23.0726ZM34.8391 21.8319C35.3153 21.8319 35.7916 21.5456 36.1726 21.2593L38.9349 18.3962H36.1726C35.5058 18.3962 34.9343 18.7779 34.6486 19.0642L31.8862 21.8319H34.8391ZM29.6954 21.8319C30.2669 21.8319 30.8384 21.5456 31.2195 21.1639L34.5533 17.8235H31.3147C30.5527 17.8235 29.8859 18.3007 29.6002 18.587L26.4568 21.8319H29.6954ZM34.458 8.94777L22.4562 20.973L10.4544 8.94777C9.02561 7.5162 9.12087 4.36674 11.5974 2.93516C18.0746 -0.882367 26.9331 -1.07324 33.315 2.93516C35.9821 4.55761 35.6963 7.61164 34.458 8.94777ZM23.0277 15.2467C23.0277 14.6741 23.3135 14.1014 23.6945 13.7197L27.0283 10.3793V13.6242C27.0283 14.4832 26.5521 15.0558 26.2663 15.3421L23.123 18.587V15.2467H23.0277ZM21.2179 7.13444C20.0749 5.98919 20.3607 5.32112 20.7417 4.55761L22.4562 0.930959L24.266 4.55761C24.647 5.32112 24.8375 6.08462 23.7898 7.13444L22.5515 8.37514L21.2179 7.13444ZM23.0277 9.99759C23.0277 9.61584 23.3135 9.04321 23.5993 8.75689L26.3616 5.98919V8.75689C26.3616 9.42496 25.9806 9.99759 25.6948 10.2839L23.0277 13.0516V9.99759ZM21.8847 9.99759C21.8847 9.61584 21.599 9.04321 21.3132 8.75689L18.5509 5.98919V8.75689C18.5509 9.42496 18.9319 9.99759 19.2176 10.2839L21.98 13.0516V9.99759H21.8847ZM21.8847 15.2467C21.8847 14.6741 21.599 14.1014 21.2179 13.7197L17.8841 10.3793V13.6242C17.8841 14.4832 18.3604 15.0558 18.6461 15.3421L21.8847 18.587V15.2467ZM8.93036 10.4748L20.9322 22.5L8.93036 34.5252C7.50157 35.8614 4.35824 35.8614 2.92945 33.38C-0.880651 26.8902 -1.07116 17.919 2.92945 11.5246C4.54874 8.94777 7.59683 9.13865 8.93036 10.4748ZM7.12056 23.7407C5.97753 24.886 5.31077 24.5996 4.54874 24.2179L0.929148 22.5L4.54874 20.6867C5.21551 20.4004 6.07279 20.2095 7.12056 21.2593L8.35885 22.5L7.12056 23.7407ZM9.97814 21.8319C9.50188 21.8319 9.02561 21.5456 8.73986 21.2593L5.97753 18.4916H8.73986C9.40662 18.4916 9.97814 18.8734 10.2639 19.1597L13.0262 21.8319H9.97814ZM15.217 21.8319C14.6455 21.8319 14.074 21.5456 13.693 21.1639L10.4544 17.8235H13.693C14.455 17.8235 15.1218 18.3007 15.4075 18.587L18.6461 21.7365H15.217V21.8319ZM9.97814 23.0726C9.50188 23.0726 9.02561 23.3589 8.73986 23.6453L5.97753 26.413H8.73986C9.40662 26.413 9.97814 26.0312 10.2639 25.7449L13.0262 22.9772H9.97814V23.0726ZM15.217 23.0726C14.6455 23.0726 14.074 23.3589 13.693 23.7407L10.4544 27.081H13.693C14.455 27.081 15.1218 26.6038 15.4075 26.3175L18.6461 23.0726H15.217Z" fill="#966414"/>
<path fill-rule="evenodd" clip-rule="evenodd" d="M52.4608 26.0312C52.4608 28.7989 52.4608 30.0396 52.3655 30.6122C52.175 32.3301 52.0798 32.3301 52.0798 32.9028C52.0798 33.2845 52.2703 33.5708 52.556 33.5708C52.937 33.5708 53.0323 33.4754 53.7943 33.4754C54.4611 33.4754 54.7468 33.5708 55.0326 33.5708C55.3184 33.5708 55.6041 33.2845 55.6041 32.9028C55.6041 31.9484 55.1278 31.7575 55.1278 29.5624V20.973C55.1278 20.973 55.1278 20.6867 55.2231 20.6867C55.4136 20.6867 55.5089 21.3547 55.6041 21.6411C55.7946 22.3091 56.0804 23.5498 56.5566 23.5498C56.9376 23.5498 57.2234 22.5954 57.3187 22.2137C57.6997 20.973 57.7949 20.5912 57.9854 20.5912C57.9854 20.5912 58.0807 20.5912 58.0807 20.973V29.5624C58.0807 31.3758 57.6044 32.4256 57.6044 32.9028C57.6044 33.1891 57.7949 33.38 58.1759 33.38C58.7474 33.38 58.6522 33.2845 59.319 33.2845C59.6047 33.2845 59.9857 33.38 60.462 33.38C60.843 33.38 61.224 33.6663 61.0335 32.1393C60.9383 30.8031 60.7477 29.9442 60.7477 27.6537V15.6284C60.7477 14.4832 60.7477 13.9106 60.843 13.3379C60.9383 12.6699 61.0335 12.2881 61.0335 11.9064C61.0335 11.2383 60.7477 11.2383 60.5572 11.2383C59.7 11.2383 60.3667 11.3337 59.5095 11.3337C58.938 11.3337 59.0332 11.2383 58.6522 11.2383C58.0807 11.2383 57.9854 12.1927 57.5092 13.8151C57.0329 15.533 56.7471 16.1056 56.5566 16.1056C56.0804 16.1056 55.7946 14.3878 55.6041 13.5288C55.2231 12.1927 55.3184 11.2383 54.7468 11.2383C54.4611 11.2383 54.2706 11.3337 53.7943 11.3337C53.3181 11.3337 53.3181 11.2383 52.7465 11.2383C52.2703 11.2383 52.175 11.62 52.175 11.9064C52.175 12.2881 52.2703 12.8607 52.3655 13.6242C52.4608 14.1969 52.4608 14.9604 52.4608 17.1555V26.0312ZM62.367 28.608C62.367 28.7035 62.367 30.2305 62.1765 31.5666C62.0813 32.521 61.986 32.6165 61.986 32.9028C61.986 33.2845 62.1765 33.5708 62.4623 33.5708C63.7006 33.5708 62.5575 33.4754 64.2721 33.4754C66.8439 33.4754 64.4626 33.5708 67.7964 33.5708C68.5585 33.5708 68.6537 33.0936 68.6537 32.6165C68.6537 32.2347 68.6537 31.9484 68.5585 31.6621C68.5585 31.2803 68.5585 30.994 68.5585 30.7077C68.5585 29.7533 68.6537 30.3259 68.6537 29.1807C68.6537 28.4172 68.368 28.4172 68.2727 28.4172C67.8917 28.4172 67.7964 28.7989 67.4154 29.1807C66.8439 29.9442 66.2724 29.8487 65.7961 29.8487C65.4151 29.8487 65.0341 29.8487 65.0341 28.3217V23.5498C65.0341 22.5 65.2246 22.2137 65.6056 22.2137H67.5107C68.368 22.2137 68.6537 21.4502 68.6537 20.8776C68.6537 20.2095 68.368 19.5414 67.4154 19.5414C67.0344 19.5414 66.6534 19.6369 66.2724 19.6369C65.1294 19.6369 65.0341 18.7779 65.0341 18.3007C65.0341 17.3463 65.4151 16.7737 66.0819 16.7737C66.4629 16.7737 66.7487 17.06 67.0344 17.4418C67.4154 18.0144 67.6059 18.3962 67.8917 18.3962C68.1775 18.3962 68.4632 18.0144 68.4632 17.4418C68.4632 17.1555 68.368 16.9646 68.368 16.6783C68.2727 16.2011 68.2727 15.533 68.2727 14.9604C68.2727 13.4334 68.368 12.9562 68.368 12.3835C68.368 11.62 67.9869 11.4292 67.7964 11.4292C67.0344 11.4292 67.4154 11.5246 65.2246 11.5246C63.6053 11.5246 63.6053 11.4292 62.9386 11.4292C62.2718 11.4292 62.0813 11.8109 62.0813 12.1927C62.0813 14.4832 62.367 12.1927 62.367 16.0102V28.608ZM73.9878 28.3217C73.9878 30.0396 73.8926 30.994 73.7021 31.7575C73.6068 32.3301 73.5116 32.7119 73.5116 33.0936C73.5116 33.38 73.5116 33.5708 73.7973 33.5708C74.2736 33.5708 73.8926 33.4754 75.0356 33.4754C75.7977 33.4754 76.1787 33.5708 76.5597 33.5708C76.9407 33.5708 76.9407 33.2845 76.9407 33.0936C76.9407 32.7119 76.8454 32.1393 76.7502 31.7575C76.6549 31.0894 76.6549 30.5168 76.6549 29.8487V16.7737C76.6549 15.533 76.6549 14.7695 76.8454 13.6242C77.1312 12.0972 77.2264 12.479 77.2264 11.9064C77.2264 11.2383 76.8454 11.2383 76.6549 11.2383C76.1787 11.2383 75.7977 11.2383 75.3214 11.2383C74.8451 11.4292 74.2736 11.4292 73.7021 11.4292C72.7496 11.4292 71.797 11.3337 71.1303 11.3337C70.8445 11.3337 70.5588 11.3337 70.5588 11.9064C70.5588 12.5744 70.5588 12.0018 70.7493 13.5288C70.8445 14.8649 70.8445 15.6284 70.8445 17.3463C70.8445 19.2551 70.654 24.886 70.4635 26.8902C70.4635 27.2719 70.4635 27.8445 70.273 27.8445C70.1777 27.8445 70.1777 27.8445 70.0825 27.7491C69.892 27.4628 70.1777 26.9856 69.7967 26.9856C69.511 26.9856 69.4157 27.1765 69.4157 27.7491C69.4157 28.2263 69.4157 28.8944 69.4157 29.467C69.4157 30.7077 69.4157 31.5666 69.4157 32.8073C69.4157 33.1891 69.4157 34.1435 70.5588 34.1435C72.2733 34.1435 72.3686 31.9484 72.4638 30.0396C72.8448 25.0768 72.7496 23.1681 73.0353 18.3962C73.1306 17.6327 73.1306 16.6783 73.6068 16.6783C73.8926 16.6783 73.9878 17.06 73.9878 17.4418V28.3217ZM78.3695 28.1309C78.3695 31.5666 77.9885 31.5666 77.9885 32.9982C77.9885 33.4754 78.2742 33.6663 78.4647 33.6663C79.1315 33.6663 78.7505 33.5708 79.9888 33.5708C81.6081 33.5708 80.9413 33.6663 82.4653 33.6663C83.7989 33.6663 85.5134 32.8073 85.5134 29.0852V23.5498C85.5134 20.114 83.8941 19.7323 83.1321 19.7323C81.7986 19.7323 81.9891 20.2095 81.3223 20.2095C81.0365 20.2095 81.0365 19.7323 81.0365 15.9148C81.0365 14.2923 81.1318 13.6242 81.2271 13.3379C81.3223 12.7653 81.4175 12.5744 81.4175 12.0018C81.4175 11.7155 81.4175 11.4292 81.1318 11.4292C80.7508 11.4292 80.3698 11.5246 79.7983 11.5246C79.5125 11.5246 79.2267 11.5246 78.941 11.5246C78.7505 11.4292 78.6552 11.4292 78.4647 11.4292C78.0837 11.4292 77.9885 11.5246 77.9885 11.8109C77.9885 12.1927 78.0837 12.479 78.2742 13.1471C78.3695 13.9106 78.4647 15.1513 78.4647 15.7239V28.1309H78.3695ZM81.0365 25.554C81.0365 24.7905 80.9413 23.6453 81.9891 23.6453C82.8463 23.6453 82.8463 24.7905 82.8463 25.3631V27.94C82.8463 28.7989 82.8463 30.0396 81.8938 30.0396C81.0365 30.0396 81.0365 29.2761 81.0365 27.94V25.554ZM86.8469 30.2305C86.8469 31.7575 86.7517 32.1393 86.7517 32.7119C86.7517 33.38 86.9422 33.4754 87.228 33.4754C87.5137 33.4754 87.7042 33.38 88.5615 33.38C89.2283 33.38 89.4188 33.4754 89.7045 33.4754C90.0855 33.4754 90.1808 33.0936 90.1808 32.9982C90.1808 32.7119 89.9903 32.3301 89.7998 31.2803C89.6093 30.1351 89.514 28.2263 89.514 26.8902V23.8361C89.514 21.6411 89.7045 21.1639 89.895 21.1639C90.3713 21.1639 90.6571 25.4586 90.8476 27.7491C91.4191 32.6165 91.3238 33.5708 92.0858 33.5708C92.3716 33.5708 92.4669 33.4754 93.2289 33.4754C93.8956 33.4754 94.1814 33.5708 94.3719 33.5708C94.5624 33.5708 94.7529 33.1891 94.7529 32.8073C94.7529 32.3301 94.2766 31.2803 93.6099 28.2263C93.2289 26.0312 92.4668 20.973 92.4668 19.2551C92.4668 18.3962 92.7526 17.8235 93.2289 16.8691C93.6099 15.9148 94.0861 14.3878 94.0861 12.9562C94.0861 11.4292 93.6099 11.2383 93.3241 11.2383C92.8479 11.2383 92.7526 11.3337 92.1811 11.3337C91.8001 11.3337 91.8953 11.2383 91.2286 11.2383C90.5618 11.2383 90.5618 11.8109 90.5618 12.0018C90.5618 12.2881 90.7523 12.5744 90.8476 12.9562C91.0381 13.3379 91.2286 13.9106 91.2286 14.5786C91.2286 15.3421 91.0381 16.2965 90.3713 16.2965C89.895 16.2965 89.514 15.8193 89.514 14.5786C89.514 13.2425 89.9903 12.2881 89.9903 11.8109C89.9903 11.2383 89.7045 11.2383 89.6093 11.2383C88.6567 11.2383 89.133 11.3337 88.1805 11.3337C87.609 11.3337 87.7042 11.2383 87.1327 11.2383C86.6564 11.2383 86.5612 11.8109 86.5612 11.9064C86.5612 14.006 86.8469 12.5744 86.8469 15.2467V30.2305ZM95.5149 28.608C95.5149 31.9484 96.7532 33.9526 98.8488 33.9526C101.992 33.9526 102.087 29.2761 102.087 28.2263V16.2965C102.087 14.4832 101.802 11.0474 98.944 11.0474C95.5149 11.0474 95.5149 15.9148 95.5149 17.8235V28.608ZM98.0867 17.919C98.0867 17.2509 98.0867 16.2011 98.7535 16.2011C99.5155 16.2011 99.5155 17.1555 99.5155 17.919V28.0354C99.5155 28.4172 99.4203 29.7533 98.7535 29.7533C98.182 29.7533 98.0867 28.7989 98.0867 28.2263V17.919ZM103.611 26.0312C103.611 28.7989 103.611 30.0396 103.516 30.6122C103.326 32.3301 103.23 32.3301 103.23 32.9028C103.23 33.2845 103.421 33.5708 103.707 33.5708C104.088 33.5708 104.183 33.4754 104.945 33.4754C105.612 33.4754 105.897 33.5708 106.183 33.5708C106.469 33.5708 106.755 33.2845 106.755 32.9028C106.755 31.9484 106.278 31.7575 106.278 29.5624V20.973C106.278 20.973 106.278 20.6867 106.374 20.6867C106.564 20.6867 106.659 21.3547 106.755 21.6411C106.945 22.3091 107.231 23.5498 107.707 23.5498C108.088 23.5498 108.374 22.5954 108.469 22.2137C108.85 20.973 108.946 20.5912 109.136 20.5912C109.136 20.5912 109.231 20.5912 109.231 20.973V29.5624C109.231 31.3758 108.755 32.4256 108.755 32.9028C108.755 33.1891 108.946 33.38 109.327 33.38C109.898 33.38 109.803 33.2845 110.47 33.2845C110.755 33.2845 111.136 33.38 111.613 33.38C111.994 33.38 112.375 33.6663 112.184 32.1393C112.089 30.8031 111.898 29.9442 111.898 27.6537V15.6284C111.898 14.4832 111.898 13.9106 111.994 13.3379C112.089 12.6699 112.184 12.2881 112.184 11.9064C112.184 11.2383 111.898 11.2383 111.708 11.2383C110.851 11.2383 111.517 11.3337 110.66 11.3337C110.089 11.3337 110.184 11.2383 109.803 11.2383C109.231 11.2383 109.136 12.1927 108.66 13.8151C108.184 15.533 107.898 16.1056 107.707 16.1056C107.231 16.1056 106.945 14.3878 106.755 13.5288C106.374 12.1927 106.469 11.2383 105.897 11.2383C105.612 11.2383 105.421 11.3337 104.945 11.3337C104.469 11.3337 104.469 11.2383 103.897 11.2383C103.421 11.2383 103.326 11.62 103.326 11.9064C103.326 12.2881 103.421 12.8607 103.516 13.6242C103.611 14.1969 103.611 14.9604 103.611 17.1555V26.0312ZM113.708 28.608C113.708 29.9442 113.613 30.7077 113.518 31.7575C113.422 32.4256 113.232 32.7119 113.232 33.0936C113.232 33.5708 113.613 33.5708 113.708 33.5708C113.994 33.5708 114.28 33.4754 114.565 33.4754C114.946 33.4754 115.327 33.4754 115.708 33.4754C116.661 33.4754 116.47 33.5708 117.614 33.5708C118.185 33.5708 120.662 33.6663 120.662 29.467V23.0726C120.662 19.7323 119.138 19.5414 118.28 19.5414C117.899 19.5414 117.518 19.5414 117.042 19.8277C116.756 20.114 116.661 20.2095 116.566 20.2095C116.375 20.2095 116.375 19.7323 116.375 19.5414V17.8235C116.375 16.5828 116.661 15.7239 117.709 15.7239C117.899 15.7239 118.471 15.8193 118.852 16.4874C119.138 16.8691 119.138 17.4418 119.519 17.4418C119.995 17.4418 119.9 16.7737 119.9 16.1056C119.9 15.4376 119.9 15.533 119.9 14.1014C119.9 12.9562 119.9 12.6699 119.9 12.0018C119.9 11.62 119.9 11.2383 119.423 11.2383C119.233 11.2383 119.042 11.3337 118.566 11.3337C118.376 11.3337 118.28 11.3337 118.09 11.3337C117.709 11.3337 117.328 11.3337 116.852 11.3337C115.518 11.3337 114.661 11.2383 113.803 11.2383C113.613 11.2383 113.327 11.3337 113.327 11.8109C113.327 12.0018 113.422 12.479 113.518 13.3379C113.613 14.1014 113.613 15.533 113.613 16.2965V28.608H113.708ZM116.375 25.0768C116.375 23.5498 116.947 23.5498 117.137 23.5498C117.518 23.5498 118.09 23.5498 118.09 25.2677V28.7989C118.09 29.3716 117.995 30.1351 117.137 30.1351C116.947 30.1351 116.375 30.1351 116.375 28.7035V25.0768ZM122.376 27.94C122.376 30.2305 122.186 31.2803 122.186 31.6621C121.995 32.4256 121.9 32.7119 121.9 33.0936C121.9 33.5708 122.281 33.5708 122.471 33.5708C123.519 33.5708 122.662 33.4754 123.71 33.4754C124.853 33.4754 123.995 33.5708 125.043 33.5708C125.519 33.5708 125.519 33.1891 125.519 32.9028C125.519 32.521 125.329 31.9484 125.138 31.4712C125.043 30.7077 124.948 29.8487 124.948 28.9898C124.948 27.6537 125.329 26.6038 125.805 25.2677C126.853 22.5954 127.044 22.3091 127.139 22.3091C127.234 22.3091 127.234 22.4046 127.234 22.5954C127.234 23.2635 127.139 23.2635 127.139 23.9316V28.8944C127.139 29.8487 127.139 31.0894 126.948 31.8529C126.853 32.521 126.663 32.6165 126.663 32.8073C126.663 33.0936 126.758 33.4754 127.139 33.4754C127.996 33.4754 127.52 33.38 128.377 33.38C129.234 33.38 128.472 33.4754 129.806 33.4754C129.901 33.4754 130.282 33.4754 130.282 32.9982C130.282 32.6165 130.092 32.0438 129.996 31.5666C129.901 31.1849 129.806 30.3259 129.806 27.6537V14.9604C129.806 12.8607 130.187 12.0018 130.187 11.5246C130.187 11.2383 129.901 11.2383 129.806 11.2383C128.472 11.2383 129.044 11.3337 128.282 11.3337C127.52 11.3337 127.996 11.2383 127.139 11.2383C126.758 11.2383 126.663 11.5246 126.663 11.62C126.663 11.9064 126.758 12.0018 126.853 12.2881C126.948 12.6699 127.044 12.9562 127.044 13.7197C127.044 14.7695 126.853 15.3421 125.996 17.2509C125.71 17.919 124.948 19.9232 124.948 19.1597V14.9604C124.948 14.4832 124.948 13.4334 125.234 12.8607C125.329 12.479 125.519 12.0972 125.519 11.7155C125.519 11.3337 125.329 11.3337 125.234 11.3337C124.948 11.3337 124.757 11.3337 124.567 11.4292C124.281 11.4292 123.995 11.4292 123.614 11.4292C122.948 11.4292 123.043 11.3337 122.376 11.3337C122.281 11.3337 121.9 11.3337 121.9 11.7155C121.9 12.2881 122.376 12.0972 122.376 15.4376V27.94ZM131.616 28.608C131.616 30.0396 131.52 30.6122 131.425 31.5666C131.33 32.3301 131.139 32.6165 131.139 32.9028C131.139 33.5708 131.425 33.5708 131.616 33.5708C131.806 33.5708 131.901 33.5708 132.092 33.4754C132.378 33.4754 132.663 33.4754 132.854 33.4754C132.949 33.4754 133.235 33.5708 134.092 33.5708C134.283 33.5708 134.759 33.6663 134.759 32.9028C134.759 32.3301 134.283 31.7575 134.283 26.8902C134.283 22.3091 134.378 21.0684 135.14 21.0684C135.997 21.0684 135.997 22.3091 135.997 23.8361V28.608C135.997 31.4712 135.616 31.0894 135.616 32.9028C135.616 33.1891 135.616 33.5708 136.093 33.5708C136.759 33.5708 136.569 33.4754 137.331 33.4754C138.379 33.4754 137.521 33.5708 138.569 33.5708C138.855 33.5708 139.141 33.4754 139.141 32.9028C139.141 32.3301 138.95 31.9484 138.855 30.994C138.664 30.2305 138.569 28.8944 138.569 27.081V18.3007C138.569 13.3379 139.141 12.9562 139.141 12.0972C139.141 11.4292 138.76 11.3337 138.664 11.3337C138.093 11.3337 138.283 11.4292 137.14 11.4292C136.95 11.4292 136.759 11.4292 136.664 11.4292C136.378 11.3337 136.188 11.3337 135.902 11.3337C135.426 11.3337 135.426 11.7155 135.426 12.0018C135.426 12.2881 135.521 12.5744 135.712 12.9562C135.807 13.2425 135.997 13.7197 135.997 14.4832C135.997 15.7239 135.521 16.0102 135.235 16.0102C134.949 16.0102 134.473 15.9148 134.473 14.5786C134.473 13.9106 134.568 13.6242 134.664 13.2425C134.759 12.7653 134.949 12.479 134.949 12.0972C134.949 11.8109 134.854 11.4292 134.473 11.4292C134.283 11.4292 133.997 11.5246 133.235 11.5246C132.092 11.5246 132.092 11.4292 131.711 11.4292C131.139 11.4292 131.139 12.0018 131.139 12.1927C131.139 13.5288 131.616 13.7197 131.616 16.392V28.608ZM143.808 29.8487C144.665 29.8487 144.856 30.6122 144.856 31.1849C144.856 32.2347 144.57 32.0438 144.57 32.9028C144.57 32.9982 144.665 33.5708 145.046 33.5708C145.237 33.5708 145.332 33.5708 145.523 33.4754C145.808 33.38 146.094 33.38 146.38 33.38C146.57 33.38 146.761 33.4754 146.951 33.4754C147.142 33.4754 147.237 33.5708 147.428 33.5708C147.904 33.5708 147.999 33.1891 147.999 32.9028C147.999 32.6165 147.904 32.6165 147.713 31.9484C147.618 31.5666 147.523 30.8031 147.428 30.1351C147.047 27.3674 147.047 26.0312 146.761 20.5912C146.189 12.1927 146.761 11.3337 145.523 11.3337C143.998 11.3337 145.046 11.4292 143.713 11.4292C143.046 11.4292 142.57 11.3337 142.284 11.3337C141.046 11.3337 141.522 13.0516 141.236 17.5372C140.379 32.1393 139.903 31.3758 139.903 32.9982C139.903 33.4754 140.093 33.6663 140.284 33.6663C140.474 33.6663 140.665 33.5708 140.855 33.5708C141.046 33.5708 141.236 33.5708 141.427 33.5708C142.189 33.5708 142.093 33.6663 142.57 33.6663C143.046 33.6663 143.236 33.1891 142.951 32.7119C142.855 32.3301 142.76 32.0438 142.76 31.5666C142.76 30.8986 142.855 29.8487 143.808 29.8487ZM143.808 26.413C142.951 26.413 143.141 25.554 143.141 24.5042C143.141 23.8361 143.427 17.919 143.903 17.919C144.189 17.919 144.475 20.4958 144.475 22.7863V25.554C144.475 25.8403 144.475 26.413 143.808 26.413ZM149.333 30.2305C149.333 31.5666 149.237 31.9484 149.047 32.521C148.952 32.6165 148.761 33.4754 149.523 33.4754C149.809 33.4754 150.095 33.38 150.666 33.38C150.952 33.38 151.142 33.38 151.333 33.38C151.619 33.38 151.809 33.4754 152 33.4754C152.095 33.4754 152.381 33.38 152.381 32.8073C152.381 32.4256 152.285 32.1393 152.19 31.8529C152 31.1849 151.904 30.0396 151.904 29.3716V18.8733C151.904 17.5372 152.19 17.06 152.476 17.06C152.762 17.06 152.952 17.3463 153.047 17.5372C153.238 17.8235 153.238 18.3007 153.619 18.3007C153.714 18.3007 154 18.2053 154 17.5372C154 16.7737 153.905 16.2965 153.905 14.1969C153.905 12.479 153.905 13.2425 153.905 12.0018C153.905 11.7155 153.905 11.3337 153.428 11.3337C151.619 11.3337 153.333 11.62 150.666 11.62C148.571 11.62 149.142 11.3337 148.094 11.3337C147.523 11.3337 147.523 11.7155 147.523 12.0972C147.523 12.3835 147.523 12.6699 147.523 13.0516C147.523 13.4334 147.523 13.8151 147.523 14.1969C147.523 14.6741 147.523 15.2467 147.523 15.9148C147.428 16.392 147.428 16.8691 147.428 17.5372C147.428 18.2053 147.713 18.3007 147.809 18.3007C148.094 18.3007 148.19 17.919 148.285 17.6327C148.38 17.2509 148.571 17.1555 148.856 17.1555C149.237 17.1555 149.333 17.6327 149.333 18.3007V30.2305Z" fill="#966414"/>
</svg>
