<svg width="74" height="38" viewBox="0 0 74 38" fill="none" xmlns="http://www.w3.org/2000/svg">
<path d="M70.4241 28.2854C70.1552 30.2295 68.3402 31.9724 66.3235 32.1735L12.8812 37.0673C10.8645 37.2684 8.91502 35.7936 8.37723 33.9165L0.982699 4.15196C0.579361 2.27491 1.78938 0.666016 3.73884 0.666016H70.5585C72.5752 0.666016 73.9197 2.27491 73.718 4.21899L70.4241 28.2854Z" fill="#F5A408"/>
<path d="M12.0071 8.44238H17.0488L21.1494 15.0791L25.25 8.44238H30.2917V25.5369H25.5861V15.6824L21.2166 22.3861H21.0822L16.7799 15.7494V25.4699H12.1415V8.44238H12.0071Z" fill="white"/>
<path d="M32.7119 8.44238H46.4926V12.4646H37.3503V15.0791H45.5515V18.8332H37.3503V21.5147H39.6359H46.5599V25.5369H32.7119V8.44238Z" fill="white"/>
<path d="M53.6854 12.5987H48.5764V8.44238H63.5671V12.5987H58.4582V25.5369H53.7526L53.6854 12.5987Z" fill="white"/>
</svg>
