<svg width="98" height="61" viewBox="0 0 98 61" fill="none" xmlns="http://www.w3.org/2000/svg">
<g clip-path="url(#clip0)">
<path d="M9.09931 56.9556C7.79006 56.9556 6.50338 56.9556 5.19412 56.9556C4.69751 56.9556 4.42663 57.2039 4.42663 57.7006C4.42663 58.0392 4.4492 58.3552 4.40405 58.6938C4.24604 59.687 3.4334 60.2739 2.37245 60.161C1.46952 60.0708 0.860036 59.2807 0.905182 58.31C0.927756 57.3845 0.927756 56.459 1.3115 55.5787C1.6501 54.8563 2.12414 54.2017 2.82392 53.9308C3.54627 53.6599 3.54627 53.1633 3.59141 52.5764C3.772 50.6351 4.13317 48.7163 5.30699 47.0911C6.43566 45.5109 7.97064 44.5177 9.97967 44.45C11.8307 44.4048 13.1399 45.24 13.8171 46.9556C14.4943 48.6938 14.8781 50.4771 14.9007 52.3507C14.9007 53.0504 15.0135 53.6599 15.781 54.0888C17 54.7886 17.7449 57.7231 17.2031 59.0324C16.8871 59.7999 16.0293 60.2513 15.1941 60.0933C14.3815 59.9353 13.772 59.1678 13.772 58.3326C13.772 58.1069 13.8171 57.9037 13.7946 57.678C13.7494 57.1362 13.5237 56.8653 12.8916 56.9105C11.6275 56.9782 10.3634 56.9331 9.09931 56.9556C9.09931 56.9331 9.09931 56.9331 9.09931 56.9556ZM9.25733 53.5019C9.25733 53.5019 9.25733 53.4793 9.25733 53.5019C9.75394 53.4793 10.2506 53.4793 10.7246 53.4793C11.1986 53.5019 11.4244 53.2987 11.4244 52.8021C11.4018 51.538 11.2889 50.2965 11.0406 49.055C10.9503 48.5583 10.702 48.0617 10.1377 47.8811C9.55078 47.7005 9.14446 48.0166 8.73814 48.3777C7.5869 49.371 7.31602 50.7931 7.11286 52.1926C6.93227 53.4342 7.04514 53.5245 8.35439 53.5019C8.64785 53.5019 8.96387 53.5019 9.25733 53.5019Z" fill="#A239B9"/>
<path d="M5.44237 34.8566C4.92318 36.3465 4.87803 37.9266 4.51686 39.439C4.26855 40.4323 3.41076 41.0869 2.50783 40.9063C1.42431 40.6806 0.8374 39.8454 1.04056 38.7167C1.44688 36.3916 1.87578 34.0891 2.2821 31.7641C2.46268 30.658 2.91415 29.6873 3.5462 28.7844C4.42657 27.5203 6.6839 27.8589 7.4514 29.3713C8.10602 30.6806 8.55749 32.0575 9.05411 33.4119C9.1444 33.6603 9.16697 34.0214 9.483 34.044C9.84417 34.0666 9.84417 33.6828 9.93447 33.4345C10.4311 32.1704 10.7923 30.8386 11.4243 29.6196C11.9661 28.5812 13.0044 27.8815 13.9751 27.9943C14.9006 28.0846 16.0067 29.1004 16.3227 30.0711C16.9774 32.1253 17.0225 34.2697 17.4514 36.3691C17.6094 37.114 17.7223 37.8815 17.8577 38.6264C18.0383 39.6196 17.5191 40.5 16.5936 40.7257C15.5778 40.974 14.6523 40.3871 14.4491 39.3487C14.2008 38.0621 13.9751 36.7528 13.7719 35.4661C13.7268 35.2404 13.7719 34.9695 13.4559 34.7889C12.9367 35.3984 12.8239 36.211 12.4627 36.9108C12.0112 37.8138 11.65 38.7618 10.9051 39.5068C10.0022 40.3871 8.87352 40.3871 8.01573 39.4616C7.09022 38.4458 6.66133 37.1591 6.14214 35.9176C5.93898 35.5338 5.98413 35.0147 5.44237 34.8566C5.44237 34.8566 5.41979 34.8341 5.44237 34.8566Z" fill="#ED2020"/>
<path d="M65.1037 51.1546C65.1714 50.4097 64.9457 49.6196 65.6455 49.0102C66.2324 48.4684 66.9096 48.2652 67.6094 48.5813C68.2188 48.8747 68.7155 49.3939 68.7155 50.1614C68.7155 50.5903 68.7155 51.0418 68.7155 51.4707C68.6929 52.4187 69.1444 53.0508 70.0247 53.3442C71.1985 53.728 72.3949 53.7957 73.5687 53.2765C73.9976 53.0959 74.4717 52.8251 74.3814 52.2833C74.2911 51.7415 73.7719 51.5384 73.2753 51.4707C72.9593 51.4255 72.6207 51.4481 72.3046 51.3804C71.7629 51.2675 71.334 50.974 71.176 50.4097C71.0179 49.8228 71.1534 49.3262 71.6049 48.9199C71.9435 48.6264 72.3498 48.3781 72.124 47.8363C71.8983 47.3397 71.4243 47.2043 70.9051 47.1591C69.8441 47.0688 68.8283 47.3623 67.8351 47.6332C66.6613 47.9492 65.6906 47.4977 65.4197 46.5497C65.1263 45.5113 65.7132 44.6083 66.8419 44.2246C68.2866 43.728 69.7313 43.412 71.2663 43.5248C72.5529 43.6151 73.7268 43.9989 74.8328 44.6309C75.9389 45.263 76.3453 46.4594 75.8486 47.6783C75.6003 48.333 75.5552 48.7167 76.3001 49.0779C78.6026 50.2517 78.6026 53.9989 76.413 55.6467C73.6365 57.7686 68.8509 57.588 66.5484 55.1727C65.3972 54.1117 65.0134 52.7122 65.1037 51.1546Z" fill="#48AD50"/>
<path d="M90.2506 51.2219C90.0475 52.2377 90.3184 53.1858 91.4696 53.9081C92.35 54.4499 92.4402 55.4431 91.8759 56.2106C91.3342 56.933 90.0249 57.1813 89.3251 56.4589C88.5125 55.6463 87.8579 55.9397 87.0678 56.3009C85.1491 57.1135 83.1852 57.3619 81.2664 56.4138C77.9481 54.7885 78.0836 50.9736 79.9572 49.2806C81.1761 48.1745 82.666 47.9713 84.201 48.2648C85.1265 48.4454 85.5554 49.1903 85.4651 50.2061C85.3748 51.0865 84.675 51.2219 83.9978 51.3573C83.7269 51.4025 83.456 51.4251 83.1852 51.4476C82.7111 51.4928 82.3274 51.6734 82.2822 52.2151C82.2371 52.7569 82.5305 53.0729 83.0046 53.2761C84.7879 54.0661 86.5937 53.1181 86.8646 51.1993C86.9775 50.2738 86.8195 49.3935 86.4132 48.5582C85.7585 47.2716 85.0136 46.933 82.5531 47.3393C81.3567 47.5424 80.4989 47.0458 80.2958 45.9172C80.1378 45.1045 80.5892 44.2467 81.3793 44.021C84.2461 43.1858 87.6998 43.4567 89.4606 46.7298C89.8895 47.5876 90.2958 49.416 90.2506 51.2219Z" fill="#ED2020"/>
<path d="M31.8533 34.8788C31.8533 36.3461 31.8533 37.5425 31.8533 38.7163C31.8307 39.7772 31.1987 40.4093 30.1829 40.4093C29.1897 40.4093 28.4899 39.7546 28.4447 38.7388C28.4222 37.5876 28.4447 36.4364 28.4447 35.2851C28.4447 34.9239 28.5125 34.4499 28.1287 34.3596C27.7675 34.2693 25.4651 38.3551 24.1332 39.7998C22.8917 41.1542 20.7698 40.9736 19.8217 39.1677C19.4154 38.4002 19.3928 37.407 19.3477 36.5267C19.28 34.495 19.3025 32.4634 19.3477 30.4318C19.3702 29.1677 20.0474 28.468 21.0632 28.4454C22.1242 28.4228 22.8917 29.1677 22.9143 30.2964C22.9368 31.5379 22.9143 32.7569 22.9368 33.9984C22.9368 34.2467 22.824 34.6079 23.2077 34.6756C23.5463 34.7208 25.7811 30.9059 26.9775 29.416C27.6998 28.5357 28.7382 28.2196 29.8443 28.4905C30.7698 28.7163 31.2438 29.3709 31.5373 30.2964C32.0791 31.8991 31.7405 33.547 31.8533 34.8788Z" fill="#F8C015"/>
<path d="M23.4561 49.2582C24.0655 49.2582 24.6525 49.2808 25.2619 49.2582C26.2326 49.2356 27.0904 49.9128 27.1581 50.8157C27.2258 51.7187 26.5486 52.4862 25.5328 52.5313C24.2461 52.599 22.9595 52.5539 21.6728 52.5765C21.447 52.5765 21.131 52.441 21.0407 52.7796C20.973 53.0505 21.1536 53.2988 21.3567 53.502C22.192 54.3146 23.2303 54.1566 24.2461 54.0889C24.9459 54.0437 25.6457 53.8406 26.3455 53.7051C27.429 53.4794 28.219 53.8406 28.4448 54.7209C28.7157 55.7819 28.2416 56.5494 27.1129 56.8428C25.6457 57.2492 24.1784 57.5426 22.6434 57.3846C19.7992 57.0686 18.1965 55.7819 17.429 52.9602C16.7743 50.59 17.0678 48.3327 18.5125 46.3011C19.6637 44.6984 21.4696 44.4726 23.2755 44.3146C24.3139 44.2243 25.3522 44.4275 26.368 44.5178C27.1355 44.5855 27.8804 45.4659 27.8804 46.2333C27.8804 46.9783 27.2935 47.6329 26.4583 47.7909C25.9166 47.8812 25.3748 47.7458 24.833 47.678C23.8398 47.5426 22.8692 47.52 21.8985 47.8361C21.6502 47.9264 21.447 48.0166 21.2664 48.1972C21.0407 48.4681 20.7021 48.7616 20.8376 49.1227C20.973 49.4613 22.8692 49.3033 23.4786 49.3033C23.4561 49.2808 23.4561 49.2582 23.4561 49.2582Z" fill="#48AD50"/>
<path d="M34.1558 35.759C34.2009 34.8561 34.0655 33.6822 34.2461 32.5084C34.6298 30.0254 36.21 28.4678 38.8736 27.9486C41.0407 27.5423 43.4786 28.5807 44.5621 30.522C45.5328 32.2375 45.3296 33.9757 44.2235 35.5558C43.2754 36.9102 41.8984 37.4971 40.2506 37.4068C39.4154 37.3617 38.851 36.7748 38.7382 35.9396C38.6253 35.1721 39.0993 34.4046 39.8668 34.1563C40.2054 34.0434 40.544 33.9531 40.9052 33.8628C41.3793 33.75 41.5824 33.3888 41.6501 32.9599C41.7179 32.531 41.5598 32.1473 41.1761 31.8989C40.3635 31.3572 39.5057 31.2217 38.6027 31.6732C37.7449 32.1247 37.7224 32.9599 37.6998 33.7274C37.6546 35.3075 37.7224 36.8877 37.6998 38.4678C37.6998 39.145 37.6998 39.8899 37.0226 40.2962C36.4357 40.6574 35.7811 40.838 35.149 40.4994C34.4944 40.1382 34.2009 39.5062 34.1783 38.7838C34.1332 37.8809 34.1558 36.9554 34.1558 35.759Z" fill="#48AD50"/>
<path d="M47.4289 47.8357C45.8036 47.7003 45.1264 48.8515 44.7201 50.0479C44.3815 51.0637 44.991 52.3504 46.0745 52.9599C47.2709 53.6371 48.5576 53.5016 49.7991 53.0276C50.8149 52.6438 51.763 52.847 52.1919 53.6145C52.7111 54.4948 52.4853 55.3978 51.5147 56.075C50.4312 56.8425 49.1219 57.0005 47.903 56.9779C45.6456 56.9328 43.6592 56.0976 42.237 54.1788C41.3567 52.9824 41.1309 51.6957 41.1761 50.2736C41.2212 49.0547 41.447 47.926 42.2145 46.9779C44.7878 43.3888 49.5282 44.2014 50.4086 44.7883C50.9729 45.172 51.3793 45.917 51.2212 46.5942C51.0632 47.3391 50.4763 47.8583 49.7314 47.8808C49.2799 47.9034 47.7449 47.8583 47.4289 47.8357Z" fill="#F8C015"/>
<path d="M59.9571 51.6737C59.9571 52.7798 59.9797 53.8634 59.9571 54.9695C59.912 56.5044 58.5576 57.2945 57.2709 56.5722C56.526 56.1433 56.5034 55.4209 56.5034 54.7211C56.4808 52.7121 56.5034 50.7257 56.5034 48.7166C56.5034 47.7008 56.4357 47.6783 55.4199 47.7008C54.8104 47.7234 54.2461 48.1297 53.5689 47.8137C52.8239 47.4525 52.3048 46.8205 52.3499 46.1433C52.395 45.3983 52.982 44.6986 53.7946 44.5631C54.7652 44.4051 55.7359 44.2245 56.7066 44.2471C58.5801 44.2697 60.4537 44.1342 62.3047 44.4954C63.3431 44.6986 63.93 45.4886 63.7494 46.5044C63.5914 47.4074 62.7111 47.9943 61.7178 47.8363C59.9571 47.5654 59.9571 47.5654 59.9571 49.3261C59.9571 50.0936 59.9571 50.8837 59.9571 51.6737Z" fill="#A239B9"/>
<path d="M36.0067 44.3378C36.7516 44.3604 37.9029 44.383 39.0315 44.5861C40.1602 44.7893 40.8148 45.6019 40.6568 46.6403C40.5214 47.6109 39.6185 48.1979 38.5124 48.0398C36.6839 47.7915 36.6613 47.8141 36.7291 49.6877C36.7742 51.4936 36.7968 53.322 36.7968 55.1279C36.7968 56.2791 36.0293 57.1369 35.0586 57.1143C34.088 57.1143 33.2979 56.2565 33.2753 55.1279C33.2528 53.0963 33.2753 51.0647 33.2753 49.0331C33.2753 47.8593 33.1399 47.769 31.9661 47.9721C31.5146 48.0624 31.0406 48.1527 30.5891 48.0624C29.6862 47.9044 29.167 47.2272 29.167 46.3243C29.1896 45.4665 29.8668 44.7441 30.8374 44.5861C32.4176 44.3378 34.0203 44.3152 36.0067 44.3378Z" fill="#ED2020"/>
<path d="M72.8691 11.0187C72.7788 11.9667 72.1919 13.0503 71.1084 13.9532C70.1829 14.7207 69.1219 15.285 68.1061 15.8494C67.2032 16.3685 66.1874 16.6846 65.1942 17.0232C64.4041 17.2941 62.8917 16.7297 62.5757 16.1428C61.9888 15.1044 62.1468 13.5243 62.982 12.802C64.3364 11.6281 65.5779 10.3189 67.0452 9.28051C67.745 8.7839 68.4899 8.33243 69.3251 8.03898C71.3793 7.33921 72.8917 8.7839 72.8691 11.0187Z" fill="#F8C015"/>
<path d="M54.9006 3.20867C54.8103 5.12741 54.1106 7.001 53.4785 8.87459C53.2076 9.7098 52.8464 10.4773 52.2595 11.1319C51.4017 12.1026 49.8442 12.3735 48.8961 11.5608C48.2866 11.0191 48.106 10.1613 48.0157 9.34863C47.8577 7.92651 48.8961 3.07323 49.2799 2.08001C49.6636 1.10935 50.7923 0.228989 51.7629 0.183843C53.0948 0.0935492 54.3363 0.77075 54.72 1.76398C54.9232 2.21545 54.8555 2.66691 54.9006 3.20867Z" fill="#F8C015"/>
<path d="M71.4695 28.4683C70.0248 28.4909 69.8668 28.1974 69.4379 27.2268C69.0316 26.2787 69.5508 24.9243 70.386 24.4051C72.1242 23.3442 74.0203 22.6444 75.9842 22.1252C76.9549 21.8543 77.8804 21.6963 78.851 22.1478C79.8668 22.6218 80.0248 23.5699 80.228 24.4728C80.4086 25.2855 79.912 25.9401 79.3251 26.3464C77.1806 27.8137 71.7178 28.4458 71.4695 28.4683Z" fill="#F8C015"/>
<path d="M41.3341 11.6965C40.9277 12.4866 39.9119 12.8703 39.1219 12.4414C38.535 12.1254 38.0158 11.7417 37.6772 11.1096C36.5485 8.98772 35.9842 6.7981 36.4356 4.40532C36.7065 3.00578 37.4289 2.23828 38.535 2.14799C39.6636 2.05769 40.0699 2.46402 40.6794 3.45724C41.6501 5.03738 41.8532 10.6807 41.3341 11.6965Z" fill="#F8C015"/>
<path d="M27.9707 10.1609C27.9933 8.42273 29.1897 7.27149 30.7021 7.4295C32.4628 7.61009 33.6818 11.6282 33.9301 12.8471C34.0881 13.592 33.8849 14.4272 33.3432 14.969C32.8014 15.5108 32.1242 15.5785 31.3116 15.2625C29.9346 14.7207 27.9707 11.8539 27.9707 10.1609Z" fill="#F8C015"/>
<path d="M72.1016 38.6944C71.4019 38.3558 70.815 38.0172 70.7247 37.1819C70.6118 36.1661 70.9278 35.3535 71.7856 34.8117C73.6366 33.6379 77.5644 33.9314 79.0316 35.6018C79.5283 36.1661 79.438 37.4754 78.9865 38.0623C77.9256 39.4393 73.0949 39.1684 72.1016 38.6944Z" fill="#F8C015"/>
<path d="M5.44315 34.8572L5.41992 34.834L5.44315 34.8572Z" fill="#FEFEFD"/>
<path d="M65.8488 41.5609C65.7811 41.5609 65.7134 41.5609 65.6456 41.5609C64.2687 41.448 63.2529 40.2516 63.3657 38.8972C63.4109 38.4006 63.4334 37.904 63.4334 37.4299C63.4334 27.3848 55.3973 19.2132 45.5102 19.2132C41.3567 19.2132 37.3161 20.6805 34.1107 23.3667C33.0497 24.2471 31.4921 24.1117 30.6118 23.0507C29.7314 21.9898 29.8669 20.4322 30.9278 19.5518C35.0136 16.1207 40.1829 14.2471 45.5102 14.2471C58.1287 14.2245 68.3996 24.6083 68.3996 37.4074C68.3996 38.0394 68.377 38.6489 68.3319 39.281C68.219 40.5676 67.1355 41.5609 65.8488 41.5609Z" fill="#F8C015"/>
<path d="M58.3319 40.5679C58.2642 40.5679 58.219 40.5679 58.1513 40.5679C56.8646 40.4776 55.894 39.3264 56.0068 38.0397C56.0294 37.7688 56.0294 37.498 56.0294 37.2271C56.0294 31.6515 51.5825 27.1142 46.0971 27.1142C44.8105 27.1142 43.7495 26.0533 43.7495 24.7666C43.7495 23.4799 44.8105 22.4189 46.0971 22.4189C54.1558 22.4189 60.7247 29.0555 60.7247 37.2045C60.7247 37.6108 60.7021 37.9946 60.6795 38.4009C60.5666 39.6424 59.5283 40.5679 58.3319 40.5679Z" fill="#F8C015"/>
<path d="M94.9458 43.9531C93.6591 43.9531 92.5981 44.9915 92.5981 46.3008C92.5981 47.5874 93.6365 48.6484 94.9458 48.6484C96.2325 48.6484 97.2934 47.61 97.2934 46.3008C97.2934 44.9915 96.2325 43.9531 94.9458 43.9531ZM94.9458 48.0389C93.9751 48.0389 93.2076 47.2488 93.2076 46.3008C93.2076 45.3527 93.9977 44.5626 94.9458 44.5626C95.9164 44.5626 96.6839 45.3527 96.6839 46.3008C96.6839 47.2488 95.9164 48.0389 94.9458 48.0389Z" fill="#48AD50"/>
<path d="M95.7132 46.1651C95.781 46.0748 95.8261 45.9394 95.8261 45.8039C95.8261 45.6911 95.8035 45.5782 95.7584 45.5105C95.7132 45.4202 95.6455 45.3525 95.5778 45.3073C95.4875 45.2622 95.4198 45.217 95.3295 45.1944C95.2392 45.1719 95.1263 45.1719 95.036 45.1719H94.2234V47.2938H94.72V46.4586H94.9006L95.3521 47.2938H95.9615L95.3972 46.3908C95.5326 46.3457 95.6229 46.278 95.7132 46.1651ZM94.9457 46.0748H94.6974V45.5782H94.9683C95.194 45.5782 95.3069 45.6685 95.3069 45.8039C95.3295 45.9845 95.194 46.0748 94.9457 46.0748Z" fill="#48AD50"/>
</g>
<defs>
<clipPath id="clip0">
<rect width="96.3883" height="60" fill="white" transform="translate(0.905273 0.161133)"/>
</clipPath>
</defs>
</svg>
