<svg width="150" height="38" viewBox="0 0 150 38" fill="none" xmlns="http://www.w3.org/2000/svg">
<path d="M84.9828 13.3477H76.3665L75.6862 27.1338C75.6409 28.2222 75.4595 28.8118 75.0967 29.3559H73.8269V34.8886H77.1374V32.3943H82.9421V34.8886H86.298V29.3559H85.0282V13.3477H84.9828ZM81.5816 16.4768V29.3559H78.4525C78.77 28.8571 78.9514 28.1769 78.9967 27.1338L79.4956 16.4768H81.5816Z" fill="#F8B133"/>
<path d="M89.8352 32.3944H98.2702V29.3106H93.191V24.3222H97.2271V21.1931H93.191V16.4768H98.2702V13.3477H89.8352V32.3944Z" fill="#F8B133"/>
<path d="M106.524 13.3477H101.989V32.3944H105.345V25.4106H106.478C109.471 25.4106 111.059 23.7326 111.059 20.6035V18.2C111.104 15.0256 109.517 13.3477 106.524 13.3477ZM105.345 16.4768H106.478C107.204 16.4768 107.703 16.7489 107.703 18.0186V20.7849C107.703 22.0547 107.249 22.3268 106.478 22.3268H105.345V16.4768Z" fill="#F8B133"/>
<path d="M114.415 32.3944H122.804V29.3106H117.77V24.3222H121.761V21.1931H117.77V16.4768H122.804V13.3477H114.415V32.3944Z" fill="#F8B133"/>
<path d="M134.141 22.2361C135.23 21.5559 135.729 20.3314 135.729 18.5175V17.8372C135.729 14.7535 134.277 13.3477 131.194 13.3477H126.568V32.3944H131.375C134.414 32.3944 136.046 30.8071 136.046 27.7687V26.2722C136.046 24.2315 135.411 22.9164 134.141 22.2361ZM129.924 24.0501H131.012C132.101 24.0501 132.69 24.3675 132.69 26.0908V27.7234C132.69 29.0385 132.191 29.3106 131.42 29.3106H129.969V24.0501H129.924ZM132.373 19.1977C132.373 20.4221 131.919 20.921 130.831 20.921H129.924V16.4768H131.103C131.874 16.4768 132.373 16.7489 132.373 18.1547V19.1977Z" fill="#F8B133"/>
<path d="M146.612 13.3477H141.941L138.948 32.1223L138.903 32.3944H142.032L142.531 29.0385H145.705L146.204 32.3944H149.606L146.612 13.3477ZM145.297 26.0455H143.03L144.164 18.4268L145.297 26.0455Z" fill="#F8B133"/>
<path d="M7.34487 25.3199L5.39485 13.3477H0.905273V32.3944H3.89832V21.7826L5.66695 32.3944H8.79605L10.4286 21.8733V32.3944H13.6031V13.3477H9.15884L7.34487 25.3199Z" fill="#F8B133"/>
<path d="M21.3579 21.1931L20.723 23.5966V13.3477H17.6846V32.3944H21.0858L23.58 23.6873L24.3056 20.8303V32.3944H27.3893V13.3477H23.8067L21.3579 21.1931Z" fill="#F8B133"/>
<path d="M35.9602 13.3477H31.4253V32.3944H34.7811V25.4106H35.9149C38.9079 25.4106 40.4951 23.7326 40.4951 20.6035V18.2C40.5405 15.0256 38.9533 13.3477 35.9602 13.3477ZM34.7811 16.4768H35.9149C36.6405 16.4768 37.1393 16.7489 37.1393 18.0186V20.7849C37.1393 22.0547 36.6858 22.3268 35.9149 22.3268H34.7811V16.4768Z" fill="#F8B133"/>
<path d="M58.4083 3.09858L56.685 0.513672C56.685 0.513672 54.8711 1.32996 52.2408 4.14161C51.1524 5.32069 49.3385 7.58816 49.3385 7.58816L52.1501 9.99167C52.1501 9.99167 49.8373 11.8056 48.0233 13.7103C46.9803 14.7987 46.5268 15.6603 46.5268 15.6603L48.4315 17.4289C48.4315 17.4289 50.0641 16.658 51.742 16.1592C54.1001 15.4789 54.7804 15.751 54.7804 15.751C54.7804 15.751 51.878 16.8848 47.6605 19.6057C45.3024 21.1022 43.6698 23.0523 43.6698 23.0523L46.1187 25.6372C46.1187 25.6372 47.7966 24.5488 50.835 23.8232C52.6943 23.3697 54.9618 23.7778 54.9618 23.7778C54.9618 23.7778 51.2431 25.093 47.3884 27.2697C43.5338 29.4465 41.0396 32.0768 41.0396 32.0768L43.3977 34.9791C43.3977 34.9791 46.6175 32.6663 49.6559 31.4872C52.6943 30.2628 53.5106 30.5349 53.5106 30.5349V37.7001H57.456V31.3512C57.456 31.3512 58.363 30.7616 62.4898 31.4872C65.8003 32.0314 68.5212 34.5256 68.5212 34.5256L71.1968 31.7593C71.1968 31.7593 68.3852 28.9023 64.9386 28.086C61.4921 27.2697 58.0455 27.4965 58.0455 27.4965C58.0455 27.4965 58.5897 26.6802 61.1293 26.2267C63.7142 25.7732 67.3875 26.6349 67.3875 26.6349L68.5212 23.8232C68.5212 23.8232 66.2084 21.8732 62.7165 21.0115C56.685 19.515 54.1455 19.9232 54.1455 19.9232C54.1455 19.9232 55.8234 18.1092 60.313 18.1545C62.0363 18.1545 64.213 18.6987 64.213 18.6987L65.5735 16.1138C65.5735 16.1138 64.2584 14.0278 60.1316 13.4836C56.2769 12.9847 53.9641 13.3022 53.9641 13.3022C53.9641 13.3022 54.6897 12.0324 58.0455 11.3068C59.8141 10.8987 61.2653 11.0347 61.2653 11.0347L61.6735 7.95095C61.6735 7.95095 59.7234 7.49746 57.592 7.45211C55.4606 7.40676 54.1908 7.72421 54.1908 7.72421C54.1908 7.72421 54.6897 6.49978 55.9595 5.36604C57.592 3.73347 58.4083 3.09858 58.4083 3.09858Z" fill="#324798"/>
</svg>
