<svg width="151" height="32" viewBox="0 0 151 32" fill="none" xmlns="http://www.w3.org/2000/svg">
<path d="M34.8433 9.10817C34.4918 8.75662 34.1402 8.40507 33.6129 8.05351C33.0856 7.87774 32.3825 7.70196 31.6793 7.70196C30.9762 7.70196 30.0974 7.87774 29.3943 8.22929C28.6911 8.58084 27.988 9.10817 27.4607 9.6355C26.9334 10.3386 26.406 10.8659 26.0545 11.7448C25.7029 12.4479 25.3514 13.3268 25.1756 14.2057C24.9998 15.0846 24.8241 15.7877 24.8241 16.6666C24.8241 17.0181 24.8241 17.3697 24.9998 17.7212C24.6483 18.0728 24.2967 18.2486 23.9452 18.4243C23.4178 18.7759 22.8905 18.7759 22.539 18.7759C22.1874 18.7759 21.8359 18.6001 21.6601 18.4243C21.4843 18.0728 21.4843 17.5455 21.6601 16.8423L23.7694 1.54978C23.4178 1.374 22.8905 1.19822 22.3632 1.19822C21.3085 1.19822 20.6054 1.72555 20.0781 2.95599L13.9259 16.8423L14.8048 2.78021C15.1563 2.78021 15.3321 2.60444 15.5079 2.42866C15.6837 2.25288 15.8595 1.90133 15.8595 1.72555C15.8595 1.374 15.6837 1.19822 15.5079 1.02245C15.3321 1.19822 14.9806 1.19822 14.4532 1.19822C13.9259 1.19822 13.5744 1.02245 13.047 1.02245C12.6955 0.846671 12.1681 0.846671 11.465 0.670894C10.9377 0.495117 10.4104 0.495117 9.88304 0.495117C9.17994 0.495117 8.47683 0.670894 7.9495 0.846671C7.24639 1.02245 6.89484 1.374 6.54329 1.72555C6.19173 2.07711 6.01596 2.42866 5.84018 2.78021C5.6644 3.13177 5.48863 3.6591 5.48863 4.01065C5.48863 4.71376 5.6644 5.24109 6.01596 5.76842C6.54329 6.29575 7.07062 6.6473 7.59795 6.6473C7.9495 6.6473 8.30105 6.47152 8.65261 6.29575C8.47683 5.94419 8.30105 5.41686 8.30105 4.71376C8.30105 4.01065 8.65261 3.48332 9.17994 2.95599C9.53149 2.42866 10.4104 2.25288 11.465 2.25288H11.6408C10.9377 4.71376 10.2346 6.82308 9.53149 8.75662C8.82838 10.6902 8.12528 12.2722 7.59795 13.5026C7.07062 14.733 6.36751 15.7877 5.84018 16.4908C5.31285 17.1939 4.78552 17.897 4.43397 18.2486C4.08241 18.6001 3.55508 18.9517 3.02775 19.1274V18.9517C3.02775 17.897 3.20353 17.0181 3.55508 16.1392C3.20353 15.7877 2.85198 15.7877 2.32465 15.7877C0.742657 15.7877 0.0395508 16.315 0.0395508 17.7212C0.0395508 18.9517 0.215327 19.8305 0.742657 20.3579C1.09421 21.061 1.62154 21.2368 2.32465 21.2368C3.37931 21.2368 4.43397 20.7094 5.48863 19.8306C6.54329 18.9517 7.42217 17.3697 8.47683 15.0846C9.53149 12.7995 10.5862 9.81128 11.8166 6.11997L11.6408 9.28395L10.7619 21.061C11.1135 21.2368 11.465 21.4125 11.9924 21.4125C12.5197 21.4125 13.047 21.2368 13.3986 21.061C13.7501 20.8852 14.1017 20.3579 14.2775 19.8306L20.0781 6.29575L18.3203 18.2486C18.3203 18.7759 18.3203 19.3032 18.3203 19.8306C18.4961 20.1821 18.6719 20.5337 18.8477 20.8852C19.1992 21.061 19.375 21.2368 19.7265 21.4125C20.0781 21.5883 20.4296 21.5883 20.7812 21.5883C22.0116 21.5883 23.5936 20.7094 25.1756 19.1274C25.3514 19.479 25.5272 19.8306 25.7029 20.1821C26.0545 20.7094 26.406 20.8852 26.9334 21.2368C27.4607 21.4125 27.988 21.5883 28.6911 21.5883C29.57 21.5883 30.2731 21.4125 30.9762 21.061C31.6793 20.7094 32.3825 20.1821 32.9098 19.6548C33.4371 19.1274 33.9644 18.4243 34.316 17.5455C34.6676 16.8423 35.0191 15.9635 35.1949 15.0846C35.3707 14.2057 35.5464 13.5026 35.5464 12.6237C35.5464 11.9206 35.5464 11.3933 35.3707 10.8659C35.3707 9.98706 35.1949 9.45973 34.8433 9.10817ZM33.2613 15.0846C32.9098 16.1392 32.3825 17.0181 31.8551 17.897C31.3278 18.6001 30.6247 18.9517 29.9216 18.9517C29.3943 18.9517 29.0427 18.6001 28.6911 18.0728C28.3396 17.5455 28.1638 16.6666 28.1638 15.6119C28.1638 14.9088 28.3396 14.2057 28.5154 13.5026C28.6911 12.7995 29.0427 12.0964 29.2185 11.569C29.57 11.0417 29.9216 10.5144 30.4489 9.98706C30.9762 9.6355 31.5036 9.45973 32.0309 9.45973C32.5582 9.45973 32.9098 9.6355 33.2613 10.1628C33.4371 10.6902 33.6129 11.2175 33.6129 11.9206C33.7887 13.151 33.6129 14.0299 33.2613 15.0846Z" fill="#DC0C02"/>
<path d="M69.1199 10.514C68.9441 9.98666 68.7683 9.45933 68.4168 9.10777C68.0652 8.75622 67.7137 8.40467 67.1863 8.05311C66.659 7.87734 65.9559 7.70156 65.2528 7.70156C64.5497 7.70156 63.6708 7.87734 62.9677 8.22889C62.2646 8.58044 61.5615 9.10777 61.0341 9.6351C60.6826 10.3382 60.1553 11.0413 59.8037 11.7444C59.4522 12.4475 59.1006 13.3264 58.9248 14.2053C58.7491 15.0842 58.5733 15.7873 58.5733 16.6662C58.5733 17.0177 58.5733 17.3693 58.7491 17.7208C58.3975 17.8966 58.2217 18.2482 58.0459 18.2482C57.6944 18.4239 57.5186 18.5997 57.3428 18.5997C57.1671 18.5997 56.8155 18.5997 56.6397 18.4239C56.464 18.4239 56.2882 18.2482 56.1124 18.0724C55.9366 17.8966 55.7609 17.7208 55.5851 17.5451C55.4093 17.3693 55.2335 17.1935 55.2335 16.8419C55.0577 16.4904 55.0578 16.3146 54.882 16.1388C54.882 15.9631 54.7062 15.6115 54.5304 15.4357C54.3546 15.0842 54.3546 14.9084 54.3546 14.7326C54.3546 14.5569 54.3546 14.3811 54.1789 14.0295C55.0577 13.5022 55.9366 12.6233 56.6397 11.5686C57.3428 10.514 57.8702 9.6351 57.8702 8.932C57.8702 8.58044 57.6944 8.22889 57.5186 8.05311C57.3428 7.87734 56.9913 7.70156 56.464 7.70156C55.9366 7.70156 55.5851 7.87734 55.0577 8.05311C54.7062 9.45933 54.1789 10.6898 53.4758 11.7444C52.7726 12.7991 52.0695 13.5022 51.3664 13.678H51.1907L52.0695 9.28355C52.2453 8.40467 51.8938 7.87734 50.8391 7.87734C49.9602 7.87734 48.9056 8.22889 47.8509 9.10777C47.6751 9.28355 47.4994 9.45933 47.6751 9.81088C47.6751 10.1624 47.8509 10.3382 48.0267 10.514C48.2025 10.3382 48.3782 10.1624 48.554 10.1624C48.9056 10.1624 48.9056 10.3382 48.7298 10.8655L47.4994 16.3146C46.972 17.0177 46.0931 17.7208 45.0385 18.2482C43.9838 18.7755 42.9292 19.127 42.0503 19.127C41.3472 19.127 40.6441 18.9513 40.1167 18.4239C39.5894 17.8966 39.4136 17.1935 39.4136 16.3146C39.4136 15.4357 39.5894 14.5568 39.7652 13.678C39.941 12.7991 40.2925 12.096 40.4683 11.5686C40.8198 11.0413 41.1714 10.514 41.5229 10.1624C41.8745 9.81088 42.2261 9.6351 42.5776 9.6351C43.2807 9.6351 43.6323 9.81088 43.6323 10.3382C43.6323 10.8655 43.4565 11.3929 43.2807 12.096C43.6323 12.2718 43.9838 12.4475 44.3354 12.4475C44.8627 12.4475 45.2143 12.2718 45.5658 11.9202C45.9174 11.5686 46.0931 11.0413 46.0931 10.3382C46.0931 8.58044 45.0385 7.70156 42.9292 7.70156C42.0503 7.70156 40.9956 8.05311 40.2925 8.58044C39.4136 9.10777 38.7105 9.81088 38.1832 10.6898C37.6559 11.5686 37.1285 12.4475 36.777 13.5022C36.4254 14.5568 36.2496 15.6115 36.2496 16.6662C36.2496 18.2482 36.6012 19.3028 37.4801 20.1817C38.359 21.0606 39.4136 21.4121 40.6441 21.4121C41.8745 21.4121 43.2807 21.0606 44.6869 20.3575C45.5658 19.8301 46.2689 19.3028 46.972 18.5997L46.4447 21.2364C46.7962 21.4121 47.1478 21.5879 47.6751 21.5879C48.2025 21.5879 48.7298 21.4121 49.0813 21.2364C49.4329 20.8848 49.7844 20.5333 49.9602 20.0059L50.8391 15.4357L51.3664 15.26C51.3664 15.26 51.3664 15.4357 51.3664 15.6115C51.3664 15.9631 51.5422 16.4904 51.5422 16.8419C51.5422 17.1935 51.718 17.7208 51.8938 18.0724C52.0695 18.5997 52.2453 18.9513 52.4211 19.4786C52.5969 19.8302 52.7727 20.1817 53.1242 20.5333C53.3 20.8848 53.6515 21.2364 54.0031 21.4121C54.3546 21.5879 54.7062 21.7637 55.0577 21.7637C55.5851 21.7637 56.2882 21.4121 56.9913 20.8848C57.6944 20.3575 58.2217 19.8301 58.7491 19.3028C58.9248 19.6544 58.9248 20.0059 59.2764 20.3575C59.6279 20.8848 59.9795 21.0606 60.5068 21.4121C61.0342 21.5879 61.5615 21.7637 62.2646 21.7637C63.1435 21.7637 63.8466 21.5879 64.5497 21.2364C65.2528 20.8848 65.9559 20.3575 66.4832 19.8302C67.0106 19.3028 67.5379 18.5997 67.8894 17.7208C68.241 17.0177 68.5925 16.1388 68.7683 15.26C68.9441 14.3811 69.1199 13.678 69.1199 12.7991C69.2957 11.7444 69.2957 11.0413 69.1199 10.514ZM66.8348 15.0842C66.4832 16.1388 65.9559 17.0177 65.4286 17.8966C64.9012 18.5997 64.1981 18.9513 63.495 18.9513C62.9677 18.9513 62.6161 18.5997 62.2646 18.0724C61.913 17.5451 61.7373 16.6662 61.7373 15.6115C61.7373 14.9084 61.913 14.2053 62.0888 13.5022C62.2646 12.7991 62.6161 12.096 62.7919 11.5686C63.1435 11.0413 63.495 10.514 64.0224 9.98666C64.5497 9.6351 65.077 9.45933 65.6043 9.45933C66.1317 9.45933 66.4832 9.6351 66.8348 10.1624C67.0106 10.6898 67.1863 11.2171 67.1863 11.9202C67.3621 13.1506 67.1863 14.0295 66.8348 15.0842Z" fill="#DC0C02"/>
<path d="M150.329 9.98706C150.153 9.28395 149.801 8.75662 149.274 8.40507C148.747 8.05351 148.043 7.87774 147.34 7.87774C146.11 7.87774 144.879 8.58084 143.649 9.98706L143.825 9.28395C144.001 8.75662 143.825 8.40507 143.649 8.22929C143.473 8.05351 143.122 7.87774 142.594 7.87774C141.715 7.87774 140.661 8.22929 139.606 9.10817C139.43 9.28395 139.255 9.6355 139.255 9.98706C139.255 10.3386 139.43 10.5144 139.606 10.6902C139.782 10.5144 139.958 10.3386 140.133 10.3386C140.309 10.3386 140.309 10.3386 140.309 10.5144C140.309 10.6902 140.309 10.8659 140.309 11.0417L139.255 16.315C138.727 17.0181 137.848 17.7212 136.794 18.2486C135.739 18.7759 134.684 19.1274 133.805 19.1274C132.399 19.1274 131.52 18.4243 131.345 17.1939C132.575 16.315 133.63 15.7877 134.333 15.0846C135.212 14.5573 135.739 13.8541 136.266 13.3268C136.794 12.7995 137.145 12.2722 137.321 11.9206C137.497 11.3933 137.673 10.8659 137.673 10.3386C137.673 9.98706 137.673 9.6355 137.497 9.45973C137.321 9.10817 137.321 8.9324 136.969 8.58084C136.794 8.40507 136.442 8.05351 136.091 8.05351C135.739 7.87774 135.212 7.87774 134.684 7.87774C133.981 7.87774 133.278 8.05351 132.751 8.22929C131.872 8.40507 131.345 8.75662 130.817 9.28395C130.29 9.81128 129.938 10.3386 129.587 10.8659C129.235 11.3933 128.884 12.0964 128.708 12.7995C128.532 13.5026 128.356 14.2057 128.181 14.733C128.005 15.4361 128.005 15.9635 128.005 16.6666C128.005 17.0181 128.005 17.3697 128.005 17.7212C127.653 18.0728 127.302 18.2486 126.95 18.4243C126.423 18.6001 125.896 18.7759 125.544 18.7759C125.192 18.7759 125.017 18.6001 124.841 18.4243C124.665 18.2486 124.665 17.897 124.841 17.5455L126.071 11.3933C126.247 10.6902 126.247 10.1628 126.247 9.81128C126.247 9.28395 126.071 8.9324 125.896 8.75662C125.72 8.40507 125.544 8.22929 125.368 8.05351C125.192 7.87774 124.841 7.70196 124.665 7.70196C124.489 7.70196 124.138 7.52618 123.962 7.52618C122.556 7.52618 121.325 8.40507 119.919 10.3386C119.919 9.45973 119.743 8.75662 119.216 8.40507C118.689 7.87774 118.161 7.70196 117.634 7.70196C116.228 7.70196 114.997 8.58084 113.767 10.3386L113.943 9.28395C114.119 8.75662 113.943 8.40507 113.767 8.22929C113.591 8.05351 113.24 7.87774 112.712 7.87774C111.833 7.87774 110.779 8.22929 109.724 9.10817C109.548 9.28395 109.373 9.6355 109.373 9.98706C109.373 10.3386 109.548 10.5144 109.724 10.6902C109.9 10.5144 110.076 10.3386 110.251 10.3386C110.427 10.3386 110.427 10.3386 110.427 10.5144C110.427 10.6902 110.427 10.8659 110.427 11.0417L109.021 17.7212C108.669 17.897 108.494 18.2486 107.966 18.4243C107.439 18.6001 106.912 18.7759 106.56 18.7759C105.681 18.7759 105.505 18.0728 105.681 16.8423L107.615 8.05351C107.263 7.87774 106.912 7.70196 106.384 7.70196C105.857 7.70196 105.33 7.87774 104.978 8.05351C104.627 8.40507 104.275 8.75662 104.099 9.28395L102.517 16.8423C101.814 17.7212 100.935 18.2486 100.056 18.2486C99.1775 18.2486 99.0017 17.7212 99.1775 16.6666L100.759 9.28395C100.935 8.75662 100.759 8.40507 100.584 8.22929C100.408 8.05351 100.056 7.87774 99.529 7.87774C98.6502 7.87774 97.5955 8.22929 96.5408 9.10817C96.3651 9.28395 96.1893 9.6355 96.1893 9.98706C96.1893 10.3386 96.3651 10.5144 96.5408 10.6902C96.7166 10.5144 96.8924 10.3386 97.0682 10.3386C97.2439 10.3386 97.2439 10.3386 97.2439 10.5144C97.2439 10.6902 97.2439 10.8659 97.2439 11.0417L96.1893 16.315C96.0135 16.6666 96.0135 17.1939 96.0135 17.5455V17.7212C95.1346 18.2486 94.08 18.9517 92.8495 19.6548C92.8495 19.3032 93.0253 18.9517 93.0253 18.6001L95.3104 8.05351C94.9588 7.87774 94.6073 7.70196 94.08 7.70196C93.2011 7.70196 92.6738 7.87774 92.3222 8.40507C91.6191 7.87774 90.7402 7.52618 89.6855 7.52618C88.4551 7.52618 87.4004 8.05351 86.3458 8.9324C85.2911 9.81128 84.4122 11.0417 83.8849 12.4479C83.3576 13.8541 83.006 15.2604 83.006 16.8423C83.006 17.0181 83.006 17.3697 83.006 17.5455C82.6545 17.897 82.3029 18.0728 81.9514 18.2486C81.424 18.4243 80.8967 18.6001 80.5452 18.6001C79.6663 18.6001 79.4905 17.897 79.8421 16.6666L81.5998 7.87774C81.2483 7.70196 80.8967 7.52618 80.3694 7.52618C79.8421 7.52618 79.3147 7.70196 78.9632 7.87774C78.6116 8.22929 78.2601 8.58084 78.2601 9.10817L77.3812 12.9753C76.3265 13.151 75.0961 13.3268 74.0414 13.3268L74.7445 9.28395C74.9203 8.75662 74.7445 8.40507 74.5688 8.22929C74.393 8.05351 74.0414 7.87774 73.5141 7.87774C72.6352 7.87774 71.5806 8.22929 70.5259 9.10817C70.3501 9.28395 70.1743 9.45973 70.3501 9.81128C70.3501 10.1628 70.5259 10.3386 70.7017 10.5144C70.8774 10.3386 71.0532 10.1628 71.229 10.1628C71.4048 10.1628 71.4048 10.1628 71.4048 10.3386C71.4048 10.5144 71.4048 10.6902 71.4048 10.8659L69.2955 21.061C69.647 21.2368 69.9986 21.4125 70.5259 21.4125C71.0532 21.4125 71.5806 21.2368 71.9321 21.061C72.2837 20.7094 72.6352 20.3579 72.6352 19.8306L73.5141 15.4361C74.5688 15.4361 75.6234 15.2604 76.8539 14.733L76.3265 17.3697C76.1507 17.897 76.1507 18.4243 76.1507 18.7759C76.1507 19.1274 76.1507 19.6548 76.3265 19.8306C76.5023 20.1821 76.6781 20.3579 76.6781 20.5337C76.8539 20.7094 77.0296 20.8852 77.2054 21.061C77.3812 21.2368 77.7327 21.2368 77.9085 21.2368C78.0843 21.2368 78.4358 21.2368 78.6116 21.2368C80.0178 21.2368 81.424 20.3579 82.8303 18.7759V18.9517C83.006 19.3032 83.1818 19.6548 83.3576 20.0063C83.5334 20.3579 83.8849 20.5337 84.2365 20.7094C84.588 20.8852 85.1154 21.061 85.6427 21.061C87.0489 21.061 88.2793 20.1821 89.5098 18.6001C89.5098 18.7759 89.334 18.9517 89.334 19.479C89.1582 20.0063 89.1582 20.3579 88.9824 20.7094C88.2793 21.061 87.5762 21.2368 86.8731 21.5883C86.17 21.9399 85.4669 22.2914 84.7638 22.8188C84.0607 23.3461 83.5334 23.6976 83.006 24.225C82.4787 24.7523 82.1272 25.2796 81.7756 25.9827C81.424 26.6858 81.2483 27.2132 81.2483 27.9163C81.2483 28.9709 81.5998 29.674 82.1272 30.2014C82.6545 30.7287 83.5334 31.0803 84.4122 31.0803C85.1154 31.0803 85.6427 30.9045 86.17 30.7287C86.6973 30.5529 87.2247 30.2014 87.752 29.8498C88.1036 29.4983 88.6309 29.1467 88.9824 28.6194C89.334 28.0921 89.6855 27.5647 90.0371 27.0374C90.3887 26.5101 90.5644 25.807 90.916 25.1039C91.2675 24.4007 91.4433 23.6976 91.6191 22.9945C91.7949 22.2914 91.9706 21.5883 92.1464 20.8852C93.0253 20.5337 93.9042 20.0063 94.6073 19.479C95.1346 19.1274 95.4862 18.9517 95.8377 18.7759C95.8377 19.1274 96.0135 19.479 96.1893 19.8306C96.3651 20.1821 96.7166 20.5337 97.0682 20.7094C97.4197 20.8852 97.9471 21.061 98.4744 21.061C99.8806 21.061 101.111 20.0063 102.341 18.0728C102.341 18.6001 102.341 19.1274 102.517 19.479C102.693 19.8306 102.869 20.1821 103.045 20.3579C103.22 20.5337 103.572 20.7094 103.923 20.8852C104.275 21.061 104.451 21.061 104.802 21.061C105.505 21.061 106.209 20.8852 107.087 20.3579C107.615 20.0063 107.966 19.8306 108.318 19.479L107.966 20.8852C108.318 21.061 108.669 21.2368 109.197 21.2368C109.724 21.2368 110.251 21.061 110.603 20.8852C110.955 20.5337 111.306 20.1821 111.482 19.6548L113.064 12.0964C113.767 11.2175 114.646 10.6902 115.525 10.6902C115.876 10.6902 116.228 10.8659 116.228 11.2175C116.228 11.569 116.228 11.9206 116.228 12.2722L114.294 20.8852C114.646 21.061 114.997 21.2368 115.525 21.2368C116.052 21.2368 116.579 21.061 116.931 20.8852C117.282 20.5337 117.634 20.1821 117.81 19.6548L119.392 11.9206C120.095 11.0417 120.974 10.6902 121.677 10.6902C122.028 10.6902 122.38 10.8659 122.38 11.2175C122.38 11.569 122.38 11.9206 122.204 12.2722L121.15 17.5455C121.325 18.2486 121.325 18.7759 121.325 19.1274C121.325 19.479 121.501 20.0063 121.501 20.1821C121.677 20.5337 121.853 20.7094 122.028 20.8852C122.204 21.061 122.556 21.2368 122.732 21.2368C122.907 21.2368 123.259 21.4125 123.435 21.4125C124.314 21.4125 125.192 21.2368 125.896 20.7094C126.774 20.1821 127.478 19.6548 128.005 18.9517C128.181 19.479 128.532 19.8306 128.884 20.1821C129.763 21.061 130.817 21.4125 132.048 21.4125C133.278 21.4125 134.684 21.061 136.091 20.3579C136.969 19.8305 137.673 19.3032 138.376 18.6001L135.739 30.9045C136.091 31.0803 136.442 31.256 136.969 31.256C137.497 31.256 137.848 31.0803 138.376 30.9045C138.727 30.5529 139.079 30.2014 139.079 29.674L140.837 20.8852C141.364 21.4125 142.067 21.5883 142.594 21.5883C143.649 21.5883 144.704 21.2368 145.758 20.7094C146.637 20.1821 147.516 19.3032 148.219 18.4243C148.922 17.5455 149.274 16.4908 149.625 15.4361C149.977 14.3815 150.153 13.3268 150.153 12.2722C150.504 11.2175 150.504 10.5144 150.329 9.98706ZM86.8731 27.5647C86.17 28.4436 85.4669 28.9709 84.588 28.9709C84.4122 28.9709 84.0607 28.7952 83.8849 28.6194C83.7091 28.4436 83.5334 28.0921 83.5334 27.7405C83.5334 26.8616 84.0607 25.9827 85.1154 25.1039C86.17 24.225 87.4005 23.3461 88.9824 22.8188C88.1036 25.1039 87.4005 26.6858 86.8731 27.5647ZM90.2129 17.0181C89.8613 17.5455 89.5098 17.897 88.9824 18.2486C88.4551 18.6001 88.1036 18.7759 87.5762 18.7759C87.2247 18.7759 86.8731 18.6001 86.5216 18.2486C86.17 17.897 86.17 17.3697 86.17 16.8423C86.17 16.1392 86.17 15.2604 86.3458 14.5573C86.5216 13.8541 86.6973 12.9753 87.0489 12.2722C87.4005 11.569 87.752 10.8659 88.4551 10.5144C88.9824 9.98706 89.6856 9.81128 90.3887 9.81128C90.7402 9.81128 91.2675 9.81128 91.6191 9.98706L90.2129 17.0181ZM131.345 14.5573C131.345 14.0299 131.52 13.5026 131.696 12.9753C131.872 12.4479 132.048 11.9206 132.399 11.3933C132.575 10.8659 132.927 10.5144 133.454 10.1628C133.805 9.81128 134.333 9.6355 134.86 9.6355C135.036 9.6355 135.212 9.81128 135.387 9.98706C135.387 10.1628 135.387 10.5144 135.387 10.6902C135.387 11.569 135.036 12.4479 134.157 13.3268C133.454 14.2057 132.399 15.0846 130.993 15.9635C131.169 15.6119 131.169 15.0846 131.345 14.5573ZM146.989 15.0846C146.813 15.7877 146.461 16.4908 146.11 17.0181C145.758 17.7212 145.231 18.0728 144.704 18.6001C144.176 18.9517 143.473 19.1274 142.946 19.1274C142.419 19.1274 142.067 18.9517 141.54 18.7759L142.946 11.9206C143.825 10.8659 144.704 10.1628 145.583 10.1628C146.11 10.1628 146.461 10.3386 146.813 10.8659C147.165 11.3933 147.165 11.9206 147.165 12.7995C147.34 13.6784 147.165 14.3815 146.989 15.0846Z" fill="#DC0C02"/>
</svg>
