<svg width="114" height="26" viewBox="0 0 114 26" fill="none" xmlns="http://www.w3.org/2000/svg">
<path fill-rule="evenodd" clip-rule="evenodd" d="M30.31 16.8214C30.1109 19.2195 32.6003 20.6184 34.791 20.5185C36.4838 20.5185 38.4753 20.2187 38.774 18.0205C39.2719 13.6239 25.2316 16.8214 25.1321 7.72848C25.1321 2.93222 29.9117 0.134404 34.5918 0.334248C41.2634 0.534092 43.952 4.23121 43.952 8.52786H38.5749C38.5749 8.52786 39.0728 5.33035 34.5918 5.13051C32.899 5.13051 31.1067 5.73004 30.9075 7.32879C30.2105 11.4256 44.0516 8.32801 44.1511 17.6208C44.1511 22.2172 39.9689 25.3148 34.6914 25.2148C24.2359 25.1149 24.8333 17.4209 24.8333 16.8214H30.31Z" fill="#F0461C"/>
<path fill-rule="evenodd" clip-rule="evenodd" d="M107.482 11.2258V24.4155H113.158V0.933834H107.482L101.607 10.5264L96.13 0.933834H90.0558V24.3156H95.9309V11.6255L101.706 20.9182L107.482 11.2258Z" fill="#F0461C"/>
<path fill-rule="evenodd" clip-rule="evenodd" d="M80.6957 0.933834L89.1597 24.3156H83.3842L81.9902 20.2188H72.8291L71.3355 24.3156H65.4605L73.9245 0.933834H80.6957ZM77.4096 6.82924L74.4223 15.3226H80.2974L77.4096 6.82924Z" fill="#F0461C"/>
<path fill-rule="evenodd" clip-rule="evenodd" d="M55.5029 16.8214H51.9181V24.3156H46.4414V0.933834H58.3906C62.6724 0.933834 66.058 4.63095 65.7592 9.12744C65.5601 12.5248 64.0664 15.0228 60.9796 16.4218L64.863 24.2157H58.8885L55.5029 16.8214ZM51.9181 5.92994V12.225H57.594C59.1872 12.225 60.2825 10.4264 60.2825 9.02752C60.1829 7.42877 59.0876 5.92994 57.4944 5.92994H51.9181Z" fill="#F0461C"/>
<path fill-rule="evenodd" clip-rule="evenodd" d="M11.988 25.4147C18.9583 25.4147 23.6384 19.919 23.4393 12.9245C23.738 5.53025 18.7592 0.434223 11.988 0.434223C5.41596 0.534146 0.536715 5.73009 0.536715 13.0244C0.437139 20.2188 5.11723 25.7145 11.988 25.4147ZM11.988 5.43033C16.0706 5.33041 17.863 9.12745 17.7634 12.9245C17.5643 16.4218 15.971 20.2188 11.8884 20.3187C7.90536 20.3187 6.11299 16.6216 6.01341 12.9245C6.21257 9.32729 7.90536 5.43033 11.988 5.43033Z" fill="#F0461C"/>
</svg>
