<svg width="179" height="34" viewBox="0 0 179 34" fill="none" xmlns="http://www.w3.org/2000/svg">
<g clip-path="url(#clip0)">
<path d="M16.9106 33.892C25.9545 33.892 33.2861 26.4871 33.2861 17.3528C33.2861 8.21836 25.9545 0.813477 16.9106 0.813477C7.8667 0.813477 0.535156 8.21836 0.535156 17.3528C0.535156 26.4871 7.8667 33.892 16.9106 33.892Z" fill="#686E6E"/>
<path fill-rule="evenodd" clip-rule="evenodd" d="M15.6072 29.0615C18.9475 28.4065 21.3916 25.2951 21.3916 21.8563V16.043L10.3117 18.4174V24.9676C10.3117 27.424 8.68228 29.4709 6.40112 29.9622C6.727 30.2897 7.05288 30.5353 7.46023 30.7809L15.6072 29.0615Z" fill="#FFD200"/>
<path fill-rule="evenodd" clip-rule="evenodd" d="M10.3118 10.8029V17.5168L24.4875 14.4873V10.8847C24.4875 5.8902 17.9699 5.8902 17.9699 0.977539C17.807 0.977539 17.6441 0.977539 17.4811 0.977539C17.3182 0.977539 17.1552 0.977539 16.9923 0.977539C16.9108 5.80832 10.3118 5.80832 10.3118 10.8029Z" fill="#FFD200"/>
<path fill-rule="evenodd" clip-rule="evenodd" d="M88.6857 6.79043H89.5004V1.7959H88.6857V6.79043ZM85.0195 6.05354H86.1601C86.486 6.05354 86.7304 5.97166 86.8933 5.8079C87.0563 5.64415 87.1378 5.48039 87.1378 5.15288C87.1378 4.90725 87.0563 4.74349 86.8933 4.57974C86.7304 4.41598 86.486 4.41598 86.1601 4.41598H85.0195V6.05354ZM84.2048 6.79043V1.7959H85.0195V3.59721H86.1601C86.7304 3.59721 87.2192 3.76096 87.5451 4.00659C87.871 4.25223 88.0339 4.66162 88.0339 5.23476C88.0339 5.72602 87.871 6.13541 87.5451 6.46292C87.2192 6.70856 86.8119 6.87231 86.1601 6.87231H84.2048V6.79043Z" fill="#686E6E"/>
<path fill-rule="evenodd" clip-rule="evenodd" d="M91.4557 0.404143L91.9445 0.322266C92.026 0.649776 92.1889 0.813531 92.5148 0.813531C92.7592 0.813531 93.0036 0.649776 93.0851 0.322266L93.5739 0.404143C93.4924 0.731654 93.4109 0.895409 93.248 1.14104C93.0851 1.3048 92.8407 1.38667 92.5148 1.38667C92.1889 1.38667 92.026 1.3048 91.7815 1.14104C91.7001 0.977287 91.5371 0.731654 91.4557 0.404143ZM90.478 6.7906V1.79606H91.2927V5.48056L93.7368 1.79606H94.5515V6.87247H93.7368V3.18798L91.2927 6.87247H90.478V6.7906Z" fill="#686E6E"/>
<path fill-rule="evenodd" clip-rule="evenodd" d="M97.4028 6.79043V1.7959H98.2175V4.33411L100.662 1.7959H101.639L99.6025 4.00659L101.721 6.79043H100.743L99.0322 4.57974L98.2175 5.39851V6.79043H97.4028Z" fill="#686E6E"/>
<path fill-rule="evenodd" clip-rule="evenodd" d="M102.617 4.33395C102.617 4.66146 102.699 4.90709 102.862 5.15273C103.024 5.39836 103.187 5.64399 103.432 5.80775C103.676 5.9715 103.921 6.05338 104.247 6.05338C104.572 6.05338 104.817 5.9715 105.061 5.80775C105.306 5.64399 105.469 5.48024 105.631 5.15273C105.794 4.90709 105.794 4.57958 105.794 4.1702C105.794 3.84269 105.713 3.59705 105.55 3.35142C105.387 3.10579 105.224 2.86015 104.98 2.6964C104.735 2.53264 104.491 2.45077 104.165 2.45077C103.839 2.45077 103.595 2.53264 103.35 2.6964C103.106 2.86015 102.943 3.02391 102.78 3.35142C102.699 3.67893 102.617 4.00644 102.617 4.33395ZM101.721 4.33395C101.721 4.00644 101.802 3.67893 101.884 3.26954C102.047 2.94203 102.21 2.6964 102.373 2.45077C102.617 2.20513 102.862 2.04138 103.187 1.87762C103.513 1.71387 103.839 1.71387 104.247 1.71387C104.572 1.71387 104.898 1.79574 105.306 1.87762C105.632 2.04138 105.876 2.20513 106.12 2.36889C106.365 2.61452 106.528 2.86015 106.609 3.18766C106.691 3.51517 106.772 3.84269 106.772 4.25207C106.772 4.57958 106.691 4.90709 106.609 5.31648C106.446 5.64399 106.283 5.88963 106.12 6.13526C105.876 6.38089 105.632 6.54465 105.306 6.7084C104.98 6.87216 104.654 6.87216 104.247 6.87216C103.758 6.87216 103.35 6.79028 102.862 6.54465C102.454 6.29901 102.21 6.05338 101.965 5.56212C101.802 5.23461 101.721 4.74334 101.721 4.33395Z" fill="#686E6E"/>
<path fill-rule="evenodd" clip-rule="evenodd" d="M107.587 6.79043V1.7959H108.564L110.031 4.17035L111.579 1.7959H112.475V6.79043H111.66V3.2697L110.031 5.64415L108.483 3.2697V6.79043H107.587Z" fill="#686E6E"/>
<path fill-rule="evenodd" clip-rule="evenodd" d="M113.452 6.79043V1.7959H114.349L115.896 4.17035L117.363 1.7959H118.259V6.79043H117.444V3.2697L115.896 5.64415H115.815L114.267 3.2697V6.79043H113.452Z" fill="#686E6E"/>
<path fill-rule="evenodd" clip-rule="evenodd" d="M119.237 6.79043V1.7959H122.903V2.61467H120.052V3.92472H122.496V4.66162H120.052V6.05353H122.984V6.79043H119.237Z" fill="#686E6E"/>
<path fill-rule="evenodd" clip-rule="evenodd" d="M124.451 4.41598H125.51C125.836 4.41598 126.08 4.3341 126.243 4.17035C126.406 4.00659 126.488 3.76096 126.488 3.51533C126.488 3.2697 126.406 3.02406 126.243 2.86031C126.08 2.69655 125.836 2.61467 125.51 2.61467H124.451V4.41598ZM123.636 6.79043V1.7959H125.592C126.162 1.7959 126.651 1.95965 126.976 2.20529C127.302 2.5328 127.465 2.86031 127.465 3.43345C127.465 3.76096 127.384 4.08847 127.221 4.33411C127.058 4.57974 126.814 4.74349 126.569 4.90725C126.325 4.98913 125.999 5.071 125.51 5.071H124.451V6.70856H123.636V6.79043Z" fill="#686E6E"/>
<path fill-rule="evenodd" clip-rule="evenodd" d="M127.791 3.67908V1.7959H128.606V3.43345C128.606 3.76096 128.687 4.00659 128.85 4.17035C129.013 4.33411 129.258 4.41598 129.502 4.41598C129.747 4.41598 129.909 4.41598 130.154 4.33411C130.398 4.25223 130.561 4.17035 130.724 4.08847V1.7959H131.539V6.87231H130.724V4.82537C130.235 5.071 129.665 5.23476 129.258 5.23476C128.769 5.23476 128.28 5.071 128.036 4.82537C127.954 4.57974 127.791 4.17035 127.791 3.67908Z" fill="#686E6E"/>
<path fill-rule="evenodd" clip-rule="evenodd" d="M132.679 6.79043V1.7959H136.427V2.61467H133.576V3.92472H136.101V4.66162H133.576V6.05353H136.427V6.79043H132.679Z" fill="#686E6E"/>
<path fill-rule="evenodd" clip-rule="evenodd" d="M136.834 4.3341C136.834 4.00659 136.916 3.67908 136.997 3.2697C137.079 2.94218 137.323 2.69655 137.486 2.45092C137.731 2.20529 137.975 2.04153 138.301 1.95965C138.627 1.7959 138.953 1.7959 139.36 1.7959C139.767 1.7959 140.093 1.87778 140.501 1.95965C140.827 2.12341 141.071 2.28716 141.315 2.5328L140.745 3.18782C140.501 3.02406 140.338 2.86031 140.093 2.77843C139.849 2.69655 139.686 2.61467 139.36 2.61467C139.034 2.61467 138.79 2.69655 138.545 2.86031C138.301 3.02406 138.138 3.18782 137.975 3.51533C137.812 3.76096 137.812 4.08847 137.812 4.41598C137.812 4.90725 137.975 5.39851 138.219 5.72602C138.545 6.05353 138.871 6.21729 139.442 6.21729C139.686 6.21729 139.93 6.13541 140.175 6.05353C140.419 5.97166 140.582 5.8079 140.827 5.56227L141.397 6.13541C141.234 6.29917 141.071 6.46292 140.908 6.62668C140.745 6.70855 140.501 6.87231 140.256 6.87231C140.012 6.95419 139.767 6.95419 139.442 6.95419C138.953 6.95419 138.545 6.87231 138.138 6.62668C137.731 6.38104 137.486 6.13541 137.16 5.64415C136.997 5.31664 136.834 4.74349 136.834 4.3341Z" fill="#686E6E"/>
<path fill-rule="evenodd" clip-rule="evenodd" d="M141.967 6.79043V1.7959H142.782V4.33411L145.226 1.7959H146.285L144.248 4.00659L146.366 6.79043H145.307L143.678 4.57974L142.782 5.39851V6.79043H141.967Z" fill="#686E6E"/>
<path fill-rule="evenodd" clip-rule="evenodd" d="M146.692 6.79043V1.7959H147.588V5.48039L150.114 1.7959H151.01V6.79043H150.032V3.18782L147.588 6.79043H146.692Z" fill="#686E6E"/>
<path fill-rule="evenodd" clip-rule="evenodd" d="M152.884 0.404143L153.373 0.322266C153.454 0.649776 153.617 0.813531 153.943 0.813531C154.187 0.813531 154.432 0.649776 154.513 0.322266L155.002 0.404143C154.921 0.731654 154.839 0.895409 154.676 1.14104C154.513 1.3048 154.269 1.38667 153.943 1.38667C153.617 1.38667 153.454 1.3048 153.21 1.14104C153.047 0.977287 152.965 0.731654 152.884 0.404143ZM151.825 6.7906V1.79606H152.639V5.48056L155.084 1.79606H155.898V6.87247H155.084V3.18798L152.639 6.87247H151.825V6.7906Z" fill="#686E6E"/>
<path fill-rule="evenodd" clip-rule="evenodd" d="M159.564 6.05353H160.786C161.194 6.05353 161.438 5.97166 161.601 5.88978C161.764 5.8079 161.846 5.56227 161.846 5.31664C161.846 5.071 161.764 4.90725 161.601 4.82537C161.438 4.74349 161.194 4.66162 160.868 4.66162H159.564V6.05353ZM158.75 6.79043V1.7959H162.416V2.5328H159.564V3.67908H160.949C161.438 3.67908 162.009 3.84284 162.253 4.08847C162.579 4.3341 162.742 4.74349 162.742 5.23476C162.742 5.72602 162.579 6.05354 162.253 6.38105C161.927 6.62668 161.52 6.79043 160.868 6.79043H158.75Z" fill="#686E6E"/>
<path fill-rule="evenodd" clip-rule="evenodd" d="M164.697 4.82522H166.408L165.593 2.86015L164.697 4.82522ZM162.986 6.79028L165.186 1.71387H166.001L168.2 6.79028H167.304L166.815 5.56212H164.453L163.964 6.79028H162.986Z" fill="#686E6E"/>
<path fill-rule="evenodd" clip-rule="evenodd" d="M168.689 6.79043V1.7959H169.585V3.92472H171.948V1.7959H172.762V6.79043H171.948V4.66162H169.585V6.79043H168.689Z" fill="#686E6E"/>
<path fill-rule="evenodd" clip-rule="evenodd" d="M173.74 6.79043V1.7959H174.555V4.33411L176.999 1.7959H177.977L175.94 4.00659L178.14 6.79043H177.081L175.37 4.57974L174.555 5.39851V6.79043H173.74Z" fill="#686E6E"/>
<path fill-rule="evenodd" clip-rule="evenodd" d="M40.7814 4.82537H42.4923L41.6776 2.86031L40.7814 4.82537ZM39.0706 6.79043L41.2702 1.7959H42.0849L44.2846 6.87231H43.3885L42.8182 5.64415H40.4555L39.9667 6.87231H39.0706V6.79043Z" fill="#686E6E"/>
<path fill-rule="evenodd" clip-rule="evenodd" d="M44.6919 6.79043V1.7959H45.5881V4.33411L47.8692 1.7959H49.0098L46.9731 4.00659L49.0913 6.79043H48.0322L46.4028 4.57974L45.5881 5.39851V6.79043H44.6919Z" fill="#686E6E"/>
<path fill-rule="evenodd" clip-rule="evenodd" d="M49.4985 6.79043V1.7959H50.3947V6.05353H52.6759V1.7959H53.4906V6.05353H54.2238L54.1423 7.93672H53.3276V6.79043H49.4985Z" fill="#686E6E"/>
<path fill-rule="evenodd" clip-rule="evenodd" d="M54.6311 6.79043V1.7959H55.4458V5.48039L57.9714 1.7959H58.7861V6.79043H57.9714V3.18782L55.3643 6.79043H54.6311Z" fill="#686E6E"/>
<path fill-rule="evenodd" clip-rule="evenodd" d="M60.4155 4.33395C60.4155 4.66146 60.4969 4.90709 60.6599 5.15273C60.8228 5.39836 60.9857 5.64399 61.2302 5.80775C61.4746 5.9715 61.719 6.05338 62.0448 6.05338C62.3707 6.05338 62.6151 5.9715 62.8595 5.80775C63.2669 5.72587 63.4298 5.56212 63.5928 5.23461C63.7557 4.98897 63.7557 4.66146 63.7557 4.25207C63.7557 3.92456 63.6742 3.67893 63.5113 3.4333C63.3484 3.18766 63.1854 2.94203 62.941 2.77828C62.6966 2.61452 62.4522 2.53264 62.1263 2.53264C61.8004 2.53264 61.556 2.61452 61.3116 2.77828C61.0672 2.94203 60.9043 3.10579 60.7413 3.4333C60.4969 3.67893 60.4155 4.00644 60.4155 4.33395ZM59.5193 4.33395C59.5193 4.00644 59.6008 3.67893 59.6822 3.26954C59.8452 2.94203 60.0081 2.6964 60.171 2.45077C60.4155 2.20513 60.6599 2.04138 60.9857 1.87762C61.3116 1.71387 61.6375 1.71387 62.0448 1.71387C62.4522 1.71387 62.6966 1.79574 63.104 1.87762C63.4298 2.04138 63.6742 2.20513 63.9187 2.36889C64.1631 2.61452 64.326 2.86015 64.4075 3.18766C64.5704 3.51517 64.5704 3.84269 64.5704 4.25207C64.5704 4.57958 64.4889 4.90709 64.4075 5.31648C64.2445 5.64399 64.0816 5.88963 63.9187 6.13526C63.6742 6.38089 63.4298 6.54465 63.104 6.7084C62.7781 6.87216 62.4522 6.87216 62.0448 6.87216C61.556 6.87216 61.1487 6.79028 60.6599 6.54465C60.2525 6.29901 60.0081 6.05338 59.7637 5.64399C59.6008 5.23461 59.5193 4.74334 59.5193 4.33395Z" fill="#686E6E"/>
<path fill-rule="evenodd" clip-rule="evenodd" d="M65.3853 6.79043V1.7959H66.2V3.92472H68.5626V1.7959H69.4587V6.79043H68.5626V4.66162H66.2V6.79043H65.3853Z" fill="#686E6E"/>
<path fill-rule="evenodd" clip-rule="evenodd" d="M70.355 6.79043V1.7959H74.0211V2.61467H71.2512V3.92472H73.7767V4.66162H71.2512V6.05353H74.1026V6.79043H70.355Z" fill="#686E6E"/>
<path fill-rule="evenodd" clip-rule="evenodd" d="M75.6504 4.41598H76.7095C77.0354 4.41598 77.2798 4.3341 77.4427 4.17035C77.6057 4.00659 77.6871 3.76096 77.6871 3.51533C77.6871 3.2697 77.6057 3.02406 77.4427 2.86031C77.2798 2.69655 77.0354 2.61467 76.7095 2.61467H75.6504V4.41598ZM74.8357 6.79043V1.7959H76.791C77.3613 1.7959 77.8501 1.95965 78.176 2.20529C78.5019 2.5328 78.6648 2.86031 78.6648 3.43345C78.6648 3.76096 78.5833 4.08847 78.4204 4.33411C78.2574 4.57974 78.013 4.74349 77.7686 4.90725C77.5242 4.98913 77.1983 5.071 76.7095 5.071H75.6504V6.70856H74.8357V6.79043Z" fill="#686E6E"/>
<path fill-rule="evenodd" clip-rule="evenodd" d="M79.1536 6.79043V1.7959H80.1312V3.92472H82.4124V1.7959H83.3085V6.79043H82.4124V4.66162H80.1312V6.79043H79.1536Z" fill="#686E6E"/>
<path fill-rule="evenodd" clip-rule="evenodd" d="M39.1519 29.3074V10.9668H55.12V29.3074H50.2318V15.3882H44.0401V29.3074H39.1519Z" fill="#686E6E"/>
<path fill-rule="evenodd" clip-rule="evenodd" d="M80.9459 20.1371H83.3085C84.2047 20.1371 84.9379 19.8915 85.4268 19.4821C85.9156 19.0727 86.16 18.4177 86.16 17.6808C86.16 16.9439 85.9156 16.2888 85.4268 15.8795C84.9379 15.4701 84.2047 15.3063 83.3085 15.3063H80.9459V20.1371ZM75.8948 29.3074V10.9668H83.6344C85.9156 10.9668 87.7894 11.5399 89.1744 12.6862C90.5594 13.8325 91.2111 15.3882 91.2111 17.517C91.2111 18.9089 90.8852 20.1371 90.152 21.1196C89.5002 22.184 88.5226 22.9209 87.4635 23.3303C86.2415 23.8216 85.0194 24.0672 83.4715 24.0672H81.0274V29.3893H75.8948V29.3074Z" fill="#686E6E"/>
<path fill-rule="evenodd" clip-rule="evenodd" d="M93.4109 29.3074V10.9668H107.098V15.2244H98.3806V18.0083H107.098V22.1022H98.3806V24.9679H107.098V29.3074H93.4109Z" fill="#686E6E"/>
<path fill-rule="evenodd" clip-rule="evenodd" d="M124.125 29.2252H119.481C117.77 29.2252 116.141 28.8158 114.756 27.997C113.29 27.2601 112.23 26.1139 111.334 24.7219C110.52 23.33 110.031 21.7743 110.031 19.973C110.031 18.663 110.275 17.5167 110.764 16.3704C111.253 15.2241 111.905 14.2416 112.719 13.4228C113.534 12.604 114.593 11.949 115.815 11.4578C117.037 10.9665 118.259 10.8027 119.644 10.8027H124.044V15.1422H119.563C118.259 15.1422 117.282 15.5516 116.385 16.5342C115.571 17.5167 115.163 18.663 115.163 20.0549C115.163 21.4468 115.571 22.5112 116.385 23.4938C117.2 24.4763 118.259 24.8857 119.563 24.8857H124.044V29.2252H124.125Z" fill="#686E6E"/>
<path fill-rule="evenodd" clip-rule="evenodd" d="M132.19 25.2954H136.101C136.834 25.2954 137.486 25.1316 137.893 24.886C138.301 24.5585 138.464 24.1491 138.464 23.576C138.464 23.0847 138.301 22.6753 137.893 22.3478C137.486 22.0203 136.834 21.9384 136.02 21.9384H132.19V25.2954ZM132.19 18.2539H135.368C136.997 18.2539 137.73 17.6808 137.73 16.5345C137.73 16.0432 137.567 15.6338 137.16 15.3063C136.753 15.0607 136.264 14.8969 135.449 14.8969H132.19V18.2539ZM127.302 29.3074V10.9668H136.59C138.789 10.9668 140.419 11.4581 141.559 12.6043C142.293 13.3412 142.782 14.4057 142.782 15.6338C142.782 17.5989 141.885 18.9908 139.93 19.7277C141.152 20.1371 141.967 20.7102 142.619 21.4471C143.189 22.1022 143.515 23.1666 143.515 24.3947C143.515 25.9504 142.944 27.2604 141.722 28.0792C140.5 28.898 138.789 29.4711 136.59 29.4711H127.302V29.3074Z" fill="#686E6E"/>
<path fill-rule="evenodd" clip-rule="evenodd" d="M145.877 29.3074V10.9668H160.216V15.2244H150.847V18.0083H160.216V22.1022H150.847V24.9679H160.216V29.3074H145.877Z" fill="#686E6E"/>
<path fill-rule="evenodd" clip-rule="evenodd" d="M58.2974 29.3074V10.9668H72.7175V15.2244H63.3485V18.0083H72.7175V22.1022H63.3485V24.9679H72.7175V29.3074H58.2974Z" fill="#686E6E"/>
<path fill-rule="evenodd" clip-rule="evenodd" d="M162.171 15.3882V10.9668H178.139V15.3882H172.6V29.3074H167.63V15.3882H162.171Z" fill="#686E6E"/>
</g>
<defs>
<clipPath id="clip0">
<rect width="177.604" height="33.5698" fill="white" transform="translate(0.535156 0.322266)"/>
</clipPath>
</defs>
</svg>
