<svg width="254" height="62" viewBox="0 0 254 62" fill="none" xmlns="http://www.w3.org/2000/svg">
<path d="M85.8147 22.1565H74.0475V40.0338H77.8742V33.5675H85.719C89.7371 33.5675 92.3202 32.6166 92.3202 28.1473C92.5115 23.9632 90.4068 22.1565 85.8147 22.1565ZM88.5891 27.9571C88.5891 29.4786 88.3978 29.7639 86.4844 29.7639H77.9699V25.9602H86.2931C88.3978 25.9602 88.5891 26.3405 88.5891 27.9571Z" fill="#21346B"/>
<path d="M108.68 21.9663H101.791C96.8167 21.9663 94.8076 23.8681 94.8076 28.7178V33.5675C94.8076 38.132 96.8167 40.0338 101.791 40.0338H108.68C113.08 40.0338 115.472 38.9878 115.472 33.5675V28.7178C115.472 22.8221 112.219 21.9663 108.68 21.9663ZM98.73 33.5675V28.5277C98.73 26.2455 99.304 25.77 101.791 25.77H108.68C111.263 25.77 111.645 26.1504 111.645 28.5277V33.5675C111.645 35.9448 111.454 36.2301 108.68 36.2301H101.791C99.017 36.2301 98.73 35.6596 98.73 33.5675Z" fill="#21346B"/>
<path d="M131.64 21.9663H124.752C119.873 21.9663 117.864 24.0583 117.864 28.8129V33.2823C117.864 37.9418 119.968 40.0338 124.752 40.0338H131.64C136.232 40.0338 138.432 38.227 138.432 34.4234V33.2823H134.606V34.4234C134.606 35.3743 134.606 36.2301 131.64 36.2301H124.752C122.169 36.2301 121.69 35.7547 121.69 33.2823V28.8129C121.69 26.2454 122.169 25.77 124.752 25.77H131.64C134.606 25.77 134.606 26.816 134.606 27.5767V28.7178H138.432V27.5767C138.432 25.0093 137.284 21.9663 131.64 21.9663Z" fill="#21346B"/>
<path d="M145.225 34.8988V22.1565H141.302V40.0338H145.608L157.088 26.816V40.0338H161.01V22.1565H156.131L145.225 34.8988Z" fill="#D12127"/>
<path d="M179.666 29.0031H167.898V22.1565H164.072V40.0338H167.898V32.8068H179.666V40.0338H183.492V22.1565H179.666V29.0031Z" fill="#D12127"/>
<path d="M204.157 23.3927H200.521V21.9663H196.695V23.3927H193.059C188.084 23.3927 186.075 25.2945 186.075 30.1442V32.0461C186.075 36.6105 188.084 38.5123 193.059 38.5123H196.695V40.0338H200.521V38.5123H204.157C209.131 38.5123 211.14 36.6105 211.14 32.0461V30.1442C211.14 25.4847 209.036 23.3927 204.157 23.3927ZM204.157 34.7086H200.521V27.1964H204.157C206.644 27.1964 207.218 27.7669 207.218 29.954V32.0461C207.314 34.3283 206.835 34.7086 204.157 34.7086ZM189.902 29.954C189.902 27.6718 190.476 27.1964 192.963 27.1964H196.599V34.7086H192.963C190.38 34.7086 189.902 34.2332 189.902 32.0461V29.954Z" fill="#D12127"/>
<path d="M226.83 22.1565H215.063V40.0338H218.89V33.5675H226.735C230.753 33.5675 233.336 32.6166 233.336 28.1473C233.527 23.9632 231.422 22.1565 226.83 22.1565ZM229.605 27.9571C229.605 29.4786 229.413 29.7639 227.5 29.7639H218.985V25.9602H227.309C229.413 25.9602 229.605 26.3405 229.605 27.9571Z" fill="#D12127"/>
<path d="M244.625 22.1565H242.807L242.711 21.9663L242.616 22.1565H240.798L231.518 40.0338H235.823L237.832 36.135H247.495L249.504 40.0338H253.904L244.625 22.1565ZM239.841 32.3313L242.711 26.816L245.581 32.3313H239.841Z" fill="#D12127"/>
<path d="M33.197 45.0735C26.5002 45.0735 20.9514 39.6533 20.9514 32.9018C20.9514 26.1502 26.4045 20.73 33.197 20.73C39.9895 20.73 45.4426 26.1502 45.4426 32.9018H39.1284C39.1284 29.6686 36.4497 27.0061 33.197 27.0061C29.9443 27.0061 27.2655 29.6686 27.2655 32.9018C27.2655 36.1349 29.9443 38.7975 33.197 38.7975V45.0735Z" fill="#D12127"/>
<path d="M40.0851 47.4508L36.067 38.9876C37.4064 38.322 38.5544 37.1809 39.2241 35.8496L47.7386 39.9386C46.1122 43.1717 43.4335 45.8343 40.0851 47.4508Z" fill="#21346B"/>
<path d="M23.8215 54.7729C18.5597 52.5858 14.3503 48.4969 11.7672 43.3619L20.186 39.2729C21.7167 42.3159 24.3955 44.8834 27.4569 46.2147L23.8215 54.7729Z" fill="#21346B"/>
<path d="M18.0814 32.9969H12.8196C12.8196 21.8711 21.9081 12.8374 33.1013 12.8374V18.0675C24.8738 17.9724 18.0814 24.7239 18.0814 32.9969Z" fill="#21346B"/>
<path d="M33.1969 62C17.029 62 3.92236 48.9724 3.92236 32.9019H7.07943C7.07943 47.1657 18.751 58.862 33.1969 58.862V62Z" fill="#D12127"/>
<path d="M4.20942 32.9969H0C0 14.7393 14.8286 0 33.197 0V4.18405C17.2203 4.18405 4.20942 17.1166 4.20942 32.9969Z" fill="#D12127"/>
<path d="M64.1936 32.997H53.7658C53.7658 21.681 44.5816 12.5522 33.197 12.5522V2.09204C50.226 2.09204 64.1936 15.9755 64.1936 32.997Z" fill="#21346B"/>
<path d="M33.197 62V53.6319C44.6772 53.6319 54.0528 44.3129 54.0528 32.9019H62.4716C62.3759 48.9724 49.2693 62 33.197 62Z" fill="#D12127"/>
<path d="M46.5905 26.6259C45.0598 23.4878 42.2854 20.8252 39.0327 19.3989L42.7638 10.8406C48.2169 13.2179 52.522 17.4019 55.105 22.632L46.5905 26.6259Z" fill="#D12127"/>
</svg>
