<svg width="178" height="32" viewBox="0 0 178 32" fill="none" xmlns="http://www.w3.org/2000/svg">
<g clip-path="url(#clip0)">
<path d="M17.3386 8.22949H1.91454L0.535156 11.3892H17.3386C18.9687 11.3892 20.2227 12.6531 20.2227 14.2962C20.2227 15.9392 18.9687 17.2031 17.3386 17.2031H4.04631V26.5559L7.18128 27.9462V20.2365H17.3386C20.5989 20.2365 23.3577 17.5823 23.3577 14.1698C23.3577 10.7573 20.5989 8.22949 17.3386 8.22949Z" fill="#5B71B6"/>
<path d="M17.5893 0.646484H5.30028L3.9209 3.80621H17.4639C23.2323 3.80621 27.9974 8.609 27.9974 14.4229C27.9974 20.2368 23.2323 25.0396 17.4639 25.0396H11.9464V30.3479L15.0814 31.7382V28.1993H17.5893C25.1132 28.1993 31.1324 22.0063 31.1324 14.5493C31.1324 6.83955 24.9878 0.646484 17.5893 0.646484Z" fill="#A0D8F5"/>
<path d="M17.464 4.43848H3.67016L2.29077 7.47182H17.464C21.1006 7.47182 24.1101 10.5052 24.1101 14.1704C24.1101 17.8357 21.1006 20.8691 17.464 20.8691H8.0591V28.4524L11.1941 29.8427V24.1552H17.5894C22.9815 24.1552 27.2451 19.7316 27.2451 14.2968C27.2451 8.8621 22.8561 4.43848 17.464 4.43848Z" fill="#789ACC"/>
<path d="M75.5234 23.7761C73.2662 23.7761 71.3852 22.3858 71.3852 20.6163C71.3852 18.8469 73.2662 17.4566 75.5234 17.4566C77.0282 17.4566 78.4076 18.0886 79.1599 19.0997H82.9219C82.0441 16.3191 79.0346 14.2969 75.398 14.2969C71.1344 14.2969 67.6233 17.0774 67.6233 20.6163C67.6233 24.1552 71.1344 26.9358 75.398 26.9358C79.0346 26.9358 82.0441 24.9136 82.9219 22.133H79.1599C78.4076 23.0177 77.0282 23.7761 75.5234 23.7761Z" fill="#516390"/>
<path d="M97.3427 14.4229H94.3332H87.9378H85.4298H84.3013V26.5562H87.9378V17.8354H94.3332V26.5562H98.0951V14.4229H97.3427Z" fill="#516390"/>
<path d="M139.477 14.5492C137.47 14.5492 135.715 15.3076 134.461 16.4451V14.4229H130.824V30.9798H134.461V24.9132C135.715 26.0507 137.596 26.809 139.477 26.809C143.239 26.809 145.997 23.902 145.997 20.6159C145.997 17.2034 143.239 14.5492 139.477 14.5492ZM138.348 23.902C136.216 23.902 134.586 22.6381 134.335 21.1215V20.3631C134.586 18.7201 136.216 17.5826 138.348 17.5826C140.605 17.5826 142.236 18.9729 142.236 20.7423C142.236 22.5118 140.605 23.902 138.348 23.902Z" fill="#516390"/>
<path d="M154.775 14.5488C150.386 14.5488 146.875 17.3294 146.875 20.7419C146.875 24.1544 150.386 26.935 154.775 26.935C159.164 26.935 162.675 24.1544 162.675 20.7419C162.675 17.3294 159.164 14.5488 154.775 14.5488ZM154.901 24.1544C152.518 24.1544 150.386 22.6377 150.386 20.7419C150.386 18.8461 152.518 17.3294 154.901 17.3294C157.283 17.3294 159.039 18.8461 159.039 20.6155C159.164 22.5113 157.409 24.1544 154.901 24.1544Z" fill="#516390"/>
<path d="M115.275 21.753C115.275 21.5002 115.4 20.9947 115.4 20.7419C115.4 17.3294 111.889 14.5488 107.626 14.5488C103.362 14.5488 99.8508 17.3294 99.8508 20.7419C99.8508 24.1544 103.362 26.935 107.626 26.935C110.76 26.935 113.519 25.4183 114.773 23.1433H110.635C109.883 23.7752 108.88 24.028 107.751 24.028C105.745 24.028 104.114 23.0169 103.487 21.6266H114.021L115.275 21.753ZM107.751 17.3294C109.507 17.3294 111.011 18.2141 111.638 19.3516H103.738C104.365 18.2141 105.995 17.3294 107.751 17.3294Z" fill="#516390"/>
<path d="M174.212 14.4229H166.187V17.8354H166.312V21.7534C166.312 22.8909 165.434 23.6493 164.18 23.6493H163.177V26.809H164.18C167.19 26.809 169.447 24.6604 169.447 21.7534V17.8354H174.338V26.5562H177.974V17.8354V14.4229H174.212Z" fill="#516390"/>
<path d="M67.9994 14.8018H64.2375L60.6009 24.1546L55.9612 14.8018H52.1992L57.7168 26.1768H59.5977V26.3032C59.2215 27.1879 58.3437 27.8198 57.3406 27.8198H54.4564V30.9796H57.2152C59.3469 30.9796 61.3533 29.7157 62.2311 27.6935L63.3597 25.2921L67.9994 14.8018Z" fill="#516390"/>
<path d="M46.0548 11.2627H35.6467V26.303H38.7817V20.9947H46.0548C49.3152 20.9947 51.0707 18.7197 51.0707 16.1919C51.0707 13.4113 49.3152 11.2627 46.0548 11.2627ZM45.5532 18.0877H39.6595L38.6563 19.0988V18.0877V14.0433H45.4278C46.6818 14.0433 47.685 14.8016 47.685 16.0655C47.8104 17.3294 46.8072 18.0877 45.5532 18.0877Z" fill="#516390"/>
<path d="M124.554 14.4229H120.792H115.776V17.8354H120.792H122.297L120.792 19.2256V26.5562H124.554V17.8354H129.57V14.4229H124.554Z" fill="#516390"/>
</g>
<defs>
<clipPath id="clip0">
<rect width="177.313" height="30.9653" fill="white" transform="translate(0.535156 0.646484)"/>
</clipPath>
</defs>
</svg>
