<svg width="147" height="88" viewBox="0 0 147 88" fill="none" xmlns="http://www.w3.org/2000/svg">
<g clip-path="url(#clip0)">
<path d="M4.89164 79.1998C3.7628 79.1998 2.88481 79.5716 2.25768 80.1913C1.63055 80.935 1.37969 81.8026 1.37969 83.0421C1.37969 84.1575 1.75597 85.1491 2.38311 85.8928C3.01024 86.6364 3.88823 87.0082 5.01707 87.0082C6.39676 87.0082 7.5256 86.3885 8.15273 85.0252L9.15614 85.5209C8.77986 86.3885 8.15273 87.0083 7.40017 87.3801C6.77304 87.8759 5.89505 87.9998 4.89164 87.9998C3.88823 87.9998 3.01024 87.7519 2.25768 87.3801C1.50512 87.0083 1.00341 86.3885 0.627133 85.6449C0.250853 85.0252 0 84.0336 0 83.0421C0 81.5547 0.37628 80.3153 1.25427 79.4477C2.13225 78.5801 3.26109 78.2083 4.76621 78.2083C5.76962 78.2083 6.77304 78.4561 7.40017 78.828C8.15273 79.1998 8.65444 79.8195 9.03072 80.5632L7.77645 80.935C7.5256 80.3153 7.14932 79.9435 6.64761 79.6956C6.14591 79.3238 5.51877 79.1998 4.89164 79.1998Z" fill="black"/>
<path d="M19.1903 87.8759L18.0614 85.0252H13.5461L12.4172 87.8759H10.9121L14.9258 78.3323H16.4309L20.4445 87.8759H19.1903ZM15.6783 79.3238L15.5529 79.5717C15.4275 79.9435 15.302 80.4393 15.0512 81.059L13.7969 84.1576H17.5597L16.3055 80.9351C16.18 80.5633 16.0546 80.3154 15.9292 79.8196L15.6783 79.3238Z" fill="black"/>
<path d="M29.977 87.8759V83.414H24.5837V87.8759H23.204V78.3323H24.5837V82.4224H29.977V78.3323H31.3567V87.8759H29.977Z" fill="black"/>
<path d="M41.8925 87.8759V79.3238H36.4992V87.8759H35.1195V78.3323H43.2722V87.8759H41.8925Z" fill="black"/>
<path d="M54.0589 87.8759L52.93 85.0252H48.4147L47.2858 87.8759H45.9061L49.9198 78.3323H51.4249L55.4386 87.8759H54.0589ZM50.6723 79.3238L50.5469 79.5717C50.4215 79.9435 50.2961 80.4393 50.0452 81.059L48.7909 84.1576H52.5537L51.2995 80.9351C51.174 80.5633 51.0486 80.3154 50.9232 79.8196L50.6723 79.3238Z" fill="black"/>
<path d="M67.6049 79.3237V87.8759H66.2252V79.3237H62.7133V78.2083H70.866V79.3237H67.6049Z" fill="black"/>
<path d="M74.0017 87.8759V78.3323H81.5273V79.3238H75.256V82.4224H81.0256V83.414H75.256V86.7604H81.7782V87.8759H74.0017Z" fill="black"/>
<path d="M85.0393 78.3323H86.419V82.5464C86.7953 82.5464 87.0461 82.5464 87.297 82.4224C87.5478 82.2985 87.6733 82.1745 87.9241 81.9266C88.175 81.6788 88.5512 81.183 89.0529 80.4393L90.5581 78.3323H91.9378L89.9309 81.183C89.3038 82.0506 88.9275 82.5464 88.6767 82.6703L92.314 87.9999H90.6835L87.6733 83.29C87.5478 83.29 87.4224 83.414 87.1716 83.414C86.9207 83.414 86.6698 83.5379 86.5444 83.5379V87.8759H85.1647V78.3323H85.0393Z" fill="black"/>
<path d="M99.2124 79.1998C98.0836 79.1998 97.2056 79.5716 96.5785 80.1913C95.9514 80.935 95.7005 81.8026 95.7005 83.0421C95.7005 84.1575 96.0768 85.1491 96.7039 85.8928C97.331 86.6364 98.209 87.0082 99.3379 87.0082C100.718 87.0082 101.846 86.3885 102.474 85.0252L103.602 85.5209C103.226 86.3885 102.599 87.0083 101.846 87.3801C101.094 87.7519 100.216 87.9998 99.2124 87.9998C98.209 87.9998 97.331 87.7519 96.5785 87.3801C95.8259 87.0083 95.3242 86.3885 94.9479 85.6449C94.5717 84.9012 94.3208 84.0336 94.3208 83.0421C94.3208 81.5547 94.6971 80.3153 95.5751 79.4477C96.4531 78.5801 97.5819 78.2083 99.087 78.2083C100.09 78.2083 101.094 78.4561 101.721 78.828C102.474 79.1998 102.975 79.8195 103.352 80.5632L102.097 80.935C101.846 80.3153 101.47 79.9435 100.968 79.6956C100.592 79.3238 99.965 79.1998 99.2124 79.1998Z" fill="black"/>
<path d="M110.125 79.3237V87.8759H108.745V79.3237H105.358V78.2083H113.511V79.3237H110.125Z" fill="black"/>
<path d="M116.647 87.8759V78.3323H117.901V84.6534C117.901 85.1492 117.901 85.7689 117.901 86.5126L123.169 78.3323H124.799V87.8759H123.545V81.5548C123.545 81.059 123.545 80.4393 123.545 79.8196L118.277 87.8759H116.647Z" fill="black"/>
<path d="M134.332 79.4477H131.322L130.945 81.9266C130.695 83.7857 130.444 85.0252 130.193 85.7688C129.942 86.5125 129.691 87.1322 129.315 87.504C128.939 87.8759 128.437 87.9998 127.935 87.9998C127.684 87.9998 127.433 87.9998 127.308 87.8759V86.8843C127.433 86.8843 127.559 86.8843 127.684 86.8843C127.935 86.8843 128.186 86.7604 128.311 86.6364C128.437 86.5125 128.562 86.2646 128.813 85.8928C128.939 85.5209 129.064 85.0252 129.189 84.4054C129.315 83.7857 129.44 82.9181 129.566 81.9266C129.691 80.935 129.817 79.6956 130.067 78.2083H135.461V87.7519H134.081V79.4477H134.332Z" fill="black"/>
<path d="M147 85.1492C147 86.0168 146.749 86.6365 146.122 87.1323C145.495 87.6281 144.617 87.8759 143.613 87.8759H139.474V78.3323H140.854V82.4224H143.613C144.742 82.4224 145.62 82.6703 146.247 83.1661C146.749 83.5379 147 84.2816 147 85.1492ZM145.62 85.1492C145.62 84.6534 145.369 84.1576 144.993 83.9097C144.617 83.6618 143.99 83.414 143.237 83.414H140.729V86.8844H143.363C144.868 86.8844 145.62 86.2647 145.62 85.1492Z" fill="black"/>
<path d="M11.6646 58.8732V61.6C11.6646 63.831 12.4172 65.8141 15.302 65.8141C17.4343 65.8141 18.4377 63.831 18.4377 61.8479C18.4377 58.5014 15.6783 57.262 13.2952 55.8986C10.4104 54.2873 8.02726 52.8 6.27129 50.8169C4.64074 48.8338 3.63733 46.4789 3.63733 43.0084C3.63733 35.6958 8.15269 31.8535 15.302 31.8535C23.3293 31.8535 27.4684 37.1831 27.0921 44.4958H18.5631C18.4377 42.1408 18.5631 39.0422 15.5529 38.9183C13.6715 38.7944 12.5426 39.7859 12.2918 41.5211C12.0409 43.876 13.2952 45.1155 15.0511 46.3549C18.5631 48.5859 21.5733 49.9493 23.7056 51.9324C25.8378 53.9155 27.0921 56.5183 27.0921 61.2282C27.0921 68.7887 22.8276 72.8789 15.1766 72.8789C6.64757 72.8789 3.13562 68.169 3.13562 62.9634V58.7493H11.6646V58.8732Z" fill="black"/>
<path d="M29.3497 72.0112L38.0042 32.845H49.1671L57.8216 72.0112H48.4146L47.0349 64.4506H39.7601L38.6313 72.0112H29.3497ZM43.5229 40.0337L40.7636 57.6337H46.1569L43.5229 40.0337Z" fill="black"/>
<path d="M67.4795 49.7014L68.7337 53.5437C69.7371 49.7014 71.1168 45.9831 72.2457 42.1408L68.1066 32.2253H59.4521V72.0113H68.232L67.4795 49.7014Z" fill="black"/>
<path d="M90.6835 72.0112V32.845H101.721C105.358 32.845 110.501 33.2168 113.135 36.0675C115.267 38.4224 115.769 41.3971 115.769 44.6196C115.769 48.8337 114.765 53.5436 110.501 55.5267C107.24 57.1379 103.477 56.6422 100.09 56.7661V72.0112H90.6835ZM100.09 49.7013C101.846 49.7013 103.853 49.8253 105.358 48.7098C106.362 47.7182 106.487 46.1069 106.487 44.7436C106.487 43.2562 106.362 40.9013 104.731 40.1576C103.853 39.7858 102.599 39.7858 101.094 39.7858H100.09V49.7013Z" fill="black"/>
<path d="M112.006 72.0112L120.66 32.845H131.823L140.478 72.0112H131.071L129.691 64.4506H122.416L121.288 72.0112H112.006ZM126.305 40.0337L123.545 57.6337H128.939L126.305 40.0337Z" fill="black"/>
<path d="M84.5375 72.0109C84.5375 72.0109 84.7884 47.0982 92.9411 29.994C105.358 3.71791 125.301 -0.000395404 125.301 -0.000395404C125.301 -0.000395404 98.7107 -2.23138 81.6527 32.8447C77.8899 40.5292 76.3848 52.7996 76.3848 52.7996L68.6084 32.225H59.3268L74.6288 71.8869L84.5375 72.0109Z" fill="#EC6E00"/>
</g>
<defs>
<clipPath id="clip0">
<rect width="147" height="88" fill="white"/>
</clipPath>
</defs>
</svg>
