<svg width="129" height="48" viewBox="0 0 129 48" fill="none" xmlns="http://www.w3.org/2000/svg">
<g clip-path="url(#clip0)">
<path d="M19.047 20.2816H3.07834C2.11637 20.2816 1.44299 19.509 1.44299 18.5432C1.44299 17.5774 2.21257 16.8047 3.07834 16.8047H19.047C19.8166 16.8047 20.3938 16.6116 20.7786 16.1287C21.1634 15.7424 21.3557 15.0663 21.3557 14.3902C21.3557 13.2313 20.7786 11.5894 19.4318 11.5894H7.69579C4.3289 11.5894 2.30877 8.59547 2.30877 5.79467C2.30877 2.99386 4.2327 -0.0966797 7.4072 -0.0966797H13.3714C14.3334 -0.0966797 15.1029 0.675956 15.1029 1.64175C15.1029 2.60755 14.3334 3.38018 13.3714 3.38018H7.5034C6.25284 3.38018 5.77185 5.11861 5.77185 5.89125C5.77185 6.37415 6.15664 8.30574 7.79199 8.30574H19.4318C22.7025 8.30574 24.7226 11.4929 24.7226 14.4868C24.7226 16.0321 24.2416 17.3842 23.3759 18.4466C22.6063 19.2192 21.2595 20.2816 19.047 20.2816Z" fill="#1D1D1B"/>
<path d="M28.9553 20.2817C27.9933 20.2817 27.2238 19.5091 27.2238 18.5433V1.73843C27.2238 0.772636 27.9933 0 28.9553 0C29.9173 0 30.6868 0.772636 30.6868 1.73843V18.6398C30.6868 19.5091 29.9173 20.2817 28.9553 20.2817Z" fill="#1D1D1B"/>
<path d="M47.1365 20.2817C46.1745 20.2817 45.405 19.509 45.405 18.5432V10.1408C45.405 8.69212 44.0582 7.91949 43.6734 7.91949H28.9553C27.9933 7.91949 27.2238 7.14685 27.2238 6.18106C27.2238 5.21526 27.9933 4.44263 28.9553 4.44263H43.6734C46.0783 4.44263 48.7719 6.85711 48.7719 10.0442V18.4467C48.8681 19.509 48.0985 20.2817 47.1365 20.2817Z" fill="#1D1D1B"/>
<path d="M66.472 20.2815H58.1991C55.3132 20.2815 51.9463 17.9636 51.9463 14.9696V9.85093C51.9463 6.85697 55.3132 4.53906 58.1991 4.53906H66.472C69.3579 4.53906 72.7248 6.85697 72.7248 9.85093V14.9696C72.7248 17.9636 69.3579 20.2815 66.472 20.2815ZM58.1991 8.01592C56.9485 8.01592 55.3132 9.0783 55.3132 9.94751V15.0662C55.3132 15.9354 56.9485 16.9978 58.1991 16.9978H66.472C67.7226 16.9978 69.3579 15.9354 69.3579 15.0662V9.94751C69.3579 9.0783 67.7226 8.01592 66.472 8.01592H58.1991Z" fill="#1D1D1B"/>
<path d="M101.295 48C100.333 48 99.5637 47.2273 99.5637 46.2615V33.513C99.5637 30.5191 102.931 28.2012 105.817 28.2012H114.089C116.975 28.2012 120.342 30.5191 120.342 33.513V38.6318C120.342 41.6257 116.975 43.9436 114.089 43.9436H102.931V46.3581C102.931 47.2273 102.257 48 101.295 48ZM102.931 40.4668H114.089C115.34 40.4668 116.975 39.4044 116.975 38.5352V33.4165C116.975 32.5472 115.34 31.4849 114.089 31.4849H105.817C104.566 31.4849 102.931 32.5472 102.931 33.4165V40.4668Z" fill="#1D1D1B"/>
<path d="M61.566 43.8469H58.1991C55.3132 43.8469 51.9463 41.529 51.9463 38.5351V33.4164C51.9463 30.4224 55.3132 28.1045 58.1991 28.1045H66.472C69.3579 28.1045 72.7248 30.4224 72.7248 33.4164V36.1206C72.7248 37.4727 71.859 38.3419 70.4161 38.3419H55.3132V38.4385C55.3132 39.3077 56.9485 40.3701 58.1991 40.3701H61.566C62.5279 40.3701 63.2975 41.1427 63.2975 42.1085C63.2975 43.0743 62.4318 43.8469 61.566 43.8469ZM55.3132 35.0582H69.3579V33.5129C69.3579 32.6437 67.7226 31.5814 66.472 31.5814H58.1991C56.9485 31.5814 55.3132 32.6437 55.3132 33.5129V35.0582Z" fill="#1D1D1B"/>
<path d="M85.6152 43.8469H82.2483C79.3624 43.8469 75.9955 41.529 75.9955 38.5351V33.4164C75.9955 30.4224 79.3624 28.1045 82.2483 28.1045H90.5212C93.4071 28.1045 96.774 30.4224 96.774 33.4164V36.1206C96.774 37.4727 95.9082 38.3419 94.4653 38.3419H79.3624V38.4385C79.3624 39.3077 80.9977 40.3701 82.2483 40.3701H85.6152C86.5771 40.3701 87.3467 41.1427 87.3467 42.1085C87.3467 43.0743 86.4809 43.8469 85.6152 43.8469ZM79.3624 35.0582H93.4071V33.5129C93.4071 32.6437 91.7718 31.5814 90.5212 31.5814H82.2483C80.9977 31.5814 79.3624 32.6437 79.3624 33.5129V35.0582Z" fill="#1D1D1B"/>
<path d="M81.1902 19.7022C80.5168 19.7022 80.0358 19.3158 79.7473 18.8329L72.4363 5.79471C71.9553 5.02208 72.2439 3.9597 73.1097 3.47681C73.8792 2.99391 74.9374 3.28365 75.4184 4.15286L81.3826 14.7766L87.1544 5.79471C87.443 5.31182 88.0202 5.02208 88.5974 5.02208C89.1745 5.02208 89.6555 5.31182 90.0403 5.79471L96.1007 14.7766L102.161 4.05628C102.642 3.28365 103.7 2.99391 104.47 3.47681C105.239 3.9597 105.528 5.02208 105.047 5.79471L97.5437 18.8329C97.2551 19.3158 96.6779 19.7022 96.1007 19.7022C95.5235 19.7022 94.9464 19.4124 94.6578 18.9295L88.5012 9.75447L82.537 18.9295C82.3446 19.4124 81.7674 19.7022 81.1902 19.7022Z" fill="#1D1D1B"/>
<path d="M43.962 44.33H34.3423C31.1678 44.33 27.2238 41.336 27.2238 37.7626V25.0141C27.2238 24.0483 27.9933 23.2756 28.9553 23.2756C29.9173 23.2756 30.6868 24.0483 30.6868 25.0141V28.3943H43.5772C46.8479 28.3943 49.6376 30.7123 49.6376 33.6096V38.2455C49.5414 40.7565 47.4251 44.33 43.962 44.33ZM30.6868 31.7746V37.8591C30.6868 39.2112 32.8032 41.0463 34.4385 41.0463H44.0582C45.2126 41.0463 46.2707 39.4044 46.2707 38.342V33.7062C46.2707 32.837 45.2126 31.8712 43.5772 31.8712H30.6868V31.7746Z" fill="#1D1D1B"/>
<path d="M20.5861 37.1829C22.1268 37.1829 23.3758 35.9289 23.3758 34.3821C23.3758 32.8353 22.1268 31.5813 20.5861 31.5813C19.0454 31.5813 17.7964 32.8353 17.7964 34.3821C17.7964 35.9289 19.0454 37.1829 20.5861 37.1829Z" fill="#96C03E"/>
<path d="M10.4855 36.6035C11.7074 36.6035 12.698 35.609 12.698 34.3822C12.698 33.1554 11.7074 32.1609 10.4855 32.1609C9.26353 32.1609 8.27295 33.1554 8.27295 34.3822C8.27295 35.609 9.26353 36.6035 10.4855 36.6035Z" fill="#96C03E"/>
<path d="M1.53915 35.9275C2.3892 35.9275 3.0783 35.2356 3.0783 34.3822C3.0783 33.5288 2.3892 32.8369 1.53915 32.8369C0.689101 32.8369 0 33.5288 0 34.3822C0 35.2356 0.689101 35.9275 1.53915 35.9275Z" fill="#96C03E"/>
<path d="M108.51 19.1226C110.051 19.1226 111.3 17.8686 111.3 16.3218C111.3 14.775 110.051 13.521 108.51 13.521C106.969 13.521 105.72 14.775 105.72 16.3218C105.72 17.8686 106.969 19.1226 108.51 19.1226Z" fill="#A05198"/>
<path d="M118.515 18.5432C119.736 18.5432 120.727 17.5487 120.727 16.3219C120.727 15.0951 119.736 14.1006 118.515 14.1006C117.293 14.1006 116.302 15.0951 116.302 16.3219C116.302 17.5487 117.293 18.5432 118.515 18.5432Z" fill="#A05198"/>
<path d="M127.461 17.8672C128.311 17.8672 129 17.1753 129 16.3219C129 15.4685 128.311 14.7766 127.461 14.7766C126.611 14.7766 125.922 15.4685 125.922 16.3219C125.922 17.1753 126.611 17.8672 127.461 17.8672Z" fill="#A05198"/>
</g>
<defs>
<clipPath id="clip0">
<rect width="129" height="48" fill="white"/>
</clipPath>
</defs>
</svg>
