<svg width="191" height="91" viewBox="0 0 191 91" fill="none" xmlns="http://www.w3.org/2000/svg">
<path fill-rule="evenodd" clip-rule="evenodd" d="M91.5049 37.3214L94.1945 27.052L110.577 31.4532L107.887 41.7226L91.5049 37.3214ZM76.2231 25.8295L72.4332 15.9268L88.204 9.81408L91.9939 19.7167L76.2231 25.8295ZM107.398 10.1808L98.2289 24.3624L107.154 30.1084L116.2 15.9268L107.398 10.1808ZM104.953 13.115L94.3168 0.0336914L86.1257 6.75771L96.7619 19.839L104.953 13.115ZM79.8907 24.8514L80.8687 41.7226L91.3827 41.1113L90.4046 24.2402L79.8907 24.8514Z" fill="#1B110A"/>
<path d="M188.942 86.7124H0.30275V90.1355H188.942V86.7124Z" fill="#FDC90B"/>
<path fill-rule="evenodd" clip-rule="evenodd" d="M174.394 74.3641V77.2982H176.472C177.328 77.2982 177.817 77.2982 178.061 77.176C178.428 77.0537 178.673 76.9315 178.917 76.687C179.162 76.4425 179.284 76.1979 179.284 75.7089C179.284 75.3422 179.162 75.0977 179.039 74.8531C178.917 74.6086 178.673 74.4864 178.306 74.3641C178.061 74.2419 177.328 74.2419 176.35 74.2419H174.394V74.3641ZM174.394 69.9629V72.5303H175.861C176.717 72.5303 177.328 72.5303 177.45 72.5303C177.817 72.5303 178.184 72.408 178.306 72.1635C178.55 71.919 178.673 71.6745 178.673 71.3078C178.673 70.941 178.55 70.6965 178.428 70.452C178.184 70.2075 177.939 70.0852 177.572 70.0852C177.328 70.0852 176.717 70.0852 175.616 70.0852H174.394V69.9629ZM172.193 68.1291H176.594C177.45 68.1291 178.184 68.1291 178.55 68.2514C179.039 68.3736 179.406 68.4959 179.651 68.7404C180.017 68.9849 180.262 69.2294 180.506 69.7184C180.751 70.0852 180.873 70.5742 180.873 71.0632C180.873 71.5523 180.751 72.0413 180.506 72.5303C180.262 73.0193 179.895 73.2638 179.406 73.5083C180.017 73.7528 180.629 73.9974 180.995 74.4864C181.362 74.9754 181.484 75.4644 181.484 76.1979C181.484 76.687 181.362 77.176 181.118 77.665C180.873 78.154 180.506 78.5208 180.14 78.7653C179.773 79.0098 179.284 79.2543 178.673 79.2543C178.306 79.2543 177.45 79.3766 175.983 79.3766H172.193V68.1291ZM161.924 73.6306C161.924 74.8531 162.168 75.8312 162.779 76.4425C163.391 77.0537 164.124 77.4205 164.98 77.4205C165.836 77.4205 166.569 77.0537 167.181 76.4425C167.792 75.8312 168.036 74.8531 168.036 73.5083C168.036 72.2858 167.792 71.3078 167.181 70.6965C166.569 70.0852 165.836 69.7184 164.98 69.7184C164.002 69.7184 163.269 70.0852 162.779 70.6965C162.29 71.43 161.924 72.408 161.924 73.6306ZM159.601 73.7528C159.601 72.6526 159.723 71.6745 160.09 70.941C160.334 70.3297 160.701 69.8407 161.068 69.4739C161.557 68.9849 161.924 68.7404 162.535 68.4959C163.268 68.2514 164.002 68.0069 164.98 68.0069C166.569 68.0069 167.914 68.4959 168.892 69.4739C169.87 70.452 170.359 71.919 170.359 73.7528C170.359 75.5867 169.87 76.9315 168.892 77.9095C167.914 78.8876 166.569 79.3766 164.98 79.3766C163.391 79.3766 162.046 78.8876 161.068 77.9095C160.09 76.9315 159.601 75.4644 159.601 73.7528ZM148.965 79.2543V68.1291H151.165V72.5303H155.566V68.1291H157.767V79.2543H155.566V74.3641H151.165V79.2543H148.965ZM138.818 73.6306C138.818 74.8531 139.062 75.8312 139.673 76.4425C140.285 77.0537 141.018 77.4205 141.874 77.4205C142.73 77.4205 143.463 77.0537 144.074 76.4425C144.686 75.8312 144.93 74.8531 144.93 73.5083C144.93 72.2858 144.686 71.3078 144.074 70.6965C143.463 70.0852 142.73 69.7184 141.874 69.7184C140.896 69.7184 140.162 70.0852 139.673 70.6965C139.062 71.43 138.818 72.408 138.818 73.6306ZM136.495 73.7528C136.495 72.6526 136.617 71.6745 136.984 70.941C137.228 70.3297 137.595 69.8407 137.962 69.4739C138.451 68.9849 138.818 68.7404 139.429 68.4959C140.162 68.2514 140.896 68.0069 141.874 68.0069C143.463 68.0069 144.808 68.4959 145.786 69.4739C146.764 70.452 147.253 71.919 147.253 73.7528C147.253 75.5867 146.764 76.9315 145.786 77.9095C144.808 78.8876 143.463 79.3766 141.874 79.3766C140.285 79.3766 138.94 78.8876 137.962 77.9095C136.984 76.9315 136.495 75.4644 136.495 73.7528ZM125.858 68.1291H127.937V75.4644L132.46 68.1291H134.661V79.2543H132.583V72.0413L128.059 79.2543H125.858V68.1291ZM117.178 68.1291H124.636V69.9629H119.379V79.1321H117.178V68.1291ZM106.787 79.2543V68.1291H114.978V69.9629H108.987V72.408H114.489V74.2419H108.987V77.2982H115.1V79.1321H106.787V79.2543ZM98.7179 69.9629V73.1416H99.9405C100.796 73.1416 101.408 73.1416 101.652 73.0193C101.897 72.8971 102.141 72.7748 102.386 72.5303C102.508 72.2858 102.63 72.0413 102.63 71.6745C102.63 71.3078 102.508 70.941 102.263 70.6965C102.019 70.452 101.774 70.3297 101.408 70.2075C101.163 70.2075 100.552 70.0852 99.8182 70.0852H98.7179V69.9629ZM96.5173 79.2543V68.1291H100.063C101.408 68.1291 102.263 68.1291 102.752 68.2514C103.364 68.3736 103.975 68.7404 104.342 69.3517C104.708 69.9629 104.953 70.5742 104.953 71.5523C104.953 72.2858 104.831 72.7748 104.586 73.2638C104.342 73.7529 103.975 74.1196 103.608 74.3641C103.241 74.6086 102.875 74.8531 102.508 74.8531C102.019 74.9754 101.163 74.9754 100.185 74.9754H98.7179V79.1321H96.5173V79.2543ZM87.715 69.9629H86.0034C85.1476 69.9629 84.5363 69.9629 84.2918 69.9629C84.0473 69.9629 83.8028 70.0852 83.5583 70.3297C83.3138 70.5742 83.3138 70.8187 83.3138 71.1855C83.3138 71.5523 83.4361 71.919 83.5583 72.1635C83.8028 72.408 84.0473 72.5303 84.2918 72.5303C84.5363 72.5303 85.1476 72.6526 86.1257 72.6526H87.8372V69.9629H87.715ZM87.715 79.2543V74.6086H87.226C86.4924 74.6086 86.0034 74.7309 85.7589 74.9754C85.5144 75.2199 85.0254 75.8312 84.2918 76.8092L82.7025 79.2543H80.0129L81.3577 77.0537C81.8467 76.1979 82.3357 75.5867 82.5803 75.2199C82.947 74.8531 83.3138 74.6086 83.8028 74.2419C82.8248 74.1196 82.0912 73.7528 81.6022 73.1416C81.1132 72.5303 80.8687 71.919 80.8687 71.1855C80.8687 70.452 80.9909 69.9629 81.3577 69.3517C81.7245 68.8627 82.0912 68.4959 82.7025 68.2514C83.3138 68.1291 84.0473 68.0069 85.1476 68.0069H89.7933V79.1321H87.715V79.2543ZM69.988 68.1291H72.0663V75.4644L76.5898 68.1291H78.7904V79.2543H76.712V72.0413L72.1886 79.2543H69.988V68.1291ZM63.0195 79.2543V70.0852H59.7186V68.2514H68.5209V70.0852H65.2201V79.2543H63.0195ZM49.4492 68.1291H51.5275V75.4644L56.0509 68.1291H58.2515V79.2543H56.1732V72.0413L51.6498 79.2543H49.4492V68.1291ZM40.5246 74.3641V77.2982H42.6029C43.4587 77.2982 43.9477 77.2982 44.1922 77.176C44.559 77.0537 44.8035 76.9315 45.048 76.687C45.2925 76.4425 45.4148 76.1979 45.4148 75.7089C45.4148 75.3422 45.2925 75.0977 45.1703 74.8531C45.048 74.6086 44.8035 74.4864 44.4367 74.3641C44.1922 74.2419 43.4587 74.2419 42.4807 74.2419H40.5246V74.3641ZM40.5246 69.9629V72.5303H41.9916C42.8474 72.5303 43.4587 72.5303 43.5809 72.5303C43.9477 72.5303 44.3145 72.408 44.4367 72.1635C44.6812 71.919 44.8035 71.6745 44.8035 71.3078C44.8035 70.941 44.6812 70.6965 44.559 70.452C44.3145 70.2075 44.07 70.0852 43.7032 70.0852C43.4587 70.0852 42.8474 70.0852 41.7471 70.0852H40.5246V69.9629ZM38.2017 68.1291H42.6029C43.4587 68.1291 44.1922 68.1291 44.559 68.2514C45.048 68.3736 45.4148 68.4959 45.6593 68.7404C46.026 68.9849 46.2706 69.2294 46.5151 69.7184C46.7596 70.0852 46.8818 70.5742 46.8818 71.0632C46.8818 71.5523 46.7596 72.0413 46.5151 72.5303C46.2706 73.0193 45.9038 73.2638 45.4148 73.5083C46.026 73.7528 46.6373 73.9974 47.0041 74.4864C47.3708 74.9754 47.4931 75.4644 47.4931 76.1979C47.4931 76.687 47.3708 77.176 47.1263 77.665C46.8818 78.154 46.5151 78.5208 46.1483 78.7653C45.7815 79.0098 45.2925 79.2543 44.6812 79.2543C44.3145 79.2543 43.4587 79.3766 41.9916 79.3766H38.2017V68.1291ZM30.1329 71.1855L27.9323 70.6965C28.4213 68.8627 29.7661 68.0069 31.9667 68.0069C33.3115 68.0069 34.2896 68.2514 34.9008 68.8627C35.5121 69.4739 35.8789 70.0852 35.8789 70.8187C35.8789 71.3078 35.7566 71.7968 35.3899 72.2858C35.1454 72.6526 34.6563 73.1416 34.0451 73.3861C34.7786 73.6306 35.2676 73.9974 35.6344 74.4864C36.0011 74.9754 36.1234 75.4644 36.1234 76.1979C36.1234 77.176 35.7566 77.9095 35.0231 78.5208C34.2896 79.1321 33.1893 79.3766 31.8445 79.3766C30.7442 79.3766 29.7661 79.1321 29.1549 78.7653C28.5436 78.3985 27.9323 77.665 27.6878 76.5647L29.7661 75.9534C30.0106 76.5647 30.2552 77.0537 30.6219 77.2982C30.9887 77.5428 31.3555 77.5428 31.9667 77.5428C32.7003 77.5428 33.1893 77.4205 33.556 77.0537C33.9228 76.687 34.0451 76.4425 34.0451 75.9534C34.0451 75.4644 33.9228 75.0977 33.556 74.8531C33.067 74.7309 32.4557 74.6086 31.7222 74.6086H31.2332V72.8971H31.4777C32.2112 72.8971 32.7003 72.7748 33.067 72.408C33.4338 72.0413 33.556 71.6745 33.556 71.1855C33.556 70.8187 33.4338 70.452 33.067 70.2075C32.8225 69.9629 32.3335 69.8407 31.8445 69.8407C30.9887 69.7184 30.3774 70.2075 30.1329 71.1855ZM23.2866 74.8531L21.6973 70.8187L20.2303 74.8531H23.2866ZM27.321 79.2543H24.8759L23.8979 76.687H19.619L18.6409 79.2543H16.3181L20.597 68.1291H22.9199L27.321 79.2543ZM10.6944 69.9629V73.1416H11.9169C12.7727 73.1416 13.384 73.1416 13.6285 73.0193C13.873 72.8971 14.1175 72.7748 14.362 72.5303C14.4843 72.2858 14.6065 72.0413 14.6065 71.6745C14.6065 71.3078 14.4843 70.941 14.2398 70.6965C13.9953 70.452 13.7507 70.3297 13.384 70.2075C13.1395 70.2075 12.5282 70.0852 11.7947 70.0852H10.6944V69.9629ZM8.49379 79.2543H10.6944V75.0977H12.1614C13.1395 75.0977 13.9953 75.0977 14.4843 74.9754C14.851 74.8531 15.2178 74.7309 15.5846 74.4864C15.9513 74.2419 16.3181 73.8751 16.5626 73.3861C16.8071 72.8971 16.9294 72.408 16.9294 71.6745C16.9294 70.8187 16.6849 70.0852 16.3181 69.4739C15.9513 68.8627 15.3401 68.6181 14.7288 68.3736C14.362 68.2514 13.384 68.2514 12.0392 68.2514H8.49379V79.2543ZM180.506 63.7279V52.6028H182.707V57.493L187.23 52.6028H190.287L186.13 56.8817L190.531 63.6057H187.597L184.541 58.471L182.707 60.3048V63.6057H180.506V63.7279ZM109.965 63.7279V52.6028H112.166V57.493L116.689 52.6028H119.746L115.589 56.8817L119.99 63.6057H117.056L114 58.471L112.166 60.3048V63.6057H109.965V63.7279ZM169.259 63.7279V52.6028H171.46V57.0039H175.861V52.6028H178.061V63.7279H175.861V58.8378H171.46V63.7279H169.259ZM164.002 59.3268L162.413 55.2924L160.946 59.3268H164.002ZM168.036 63.7279H165.591L164.613 61.1606H160.212L159.234 63.7279H156.911L161.19 52.6028H163.513L168.036 63.7279ZM149.82 61.8941H152.021C152.755 61.8941 153.244 61.8941 153.488 61.7719C153.733 61.6496 153.977 61.5274 154.222 61.2829C154.466 61.0383 154.588 60.7938 154.588 60.4271C154.588 59.9381 154.466 59.5713 154.099 59.3268C153.733 59.0823 153.121 58.96 152.266 58.96H149.943V61.8941H149.82ZM147.62 52.725H155.933V54.5588H149.943V57.1262H152.877C153.733 57.1262 154.344 57.2484 154.955 57.3707C155.444 57.6152 155.933 57.982 156.3 58.471C156.667 58.96 156.911 59.6935 156.911 60.4271C156.911 61.1606 156.667 61.7719 156.3 62.3831C155.933 62.8722 155.444 63.2389 154.955 63.4834C154.466 63.728 153.733 63.7279 152.877 63.7279H147.62V52.725ZM137.962 49.5464H138.94C138.94 50.2799 138.695 50.7689 138.206 51.1357C137.839 51.5025 137.228 51.747 136.617 51.747C136.006 51.747 135.394 51.5025 135.028 51.1357C134.661 50.7689 134.416 50.1577 134.294 49.5464H135.272C135.272 49.9132 135.394 50.1577 135.639 50.4022C135.883 50.5244 136.128 50.6467 136.617 50.6467C136.984 50.6467 137.35 50.5244 137.595 50.4022C137.717 50.1577 137.839 49.9132 137.962 49.5464ZM132.216 52.725H134.294V60.0603L138.818 52.725H141.018V63.8502H138.94V56.6372L134.416 63.8502H132.216V52.725ZM121.091 52.725H123.169V60.0603L127.692 52.725H129.893V63.8502H127.815V56.6372L123.291 63.8502H121.091V52.725ZM105.809 59.6935L108.009 60.3048C107.643 61.5274 107.153 62.3831 106.298 62.9944C105.564 63.6057 104.586 63.8502 103.364 63.8502C101.897 63.8502 100.674 63.3612 99.6959 62.3831C98.7179 61.4051 98.2289 60.0603 98.2289 58.2265C98.2289 56.3927 98.7179 54.9256 99.6959 53.9476C100.674 52.9695 101.897 52.3582 103.486 52.3582C104.831 52.3582 105.931 52.725 106.787 53.5808C107.276 54.0698 107.643 54.6811 107.887 55.6591L105.809 56.2704C105.686 55.6591 105.442 55.2924 104.953 54.9256C104.586 54.5588 103.975 54.4366 103.486 54.4366C102.63 54.4366 102.019 54.6811 101.53 55.2924C101.041 55.9036 100.796 56.8817 100.796 58.1042C100.796 59.449 101.041 60.5493 101.53 61.0383C102.019 61.6496 102.63 61.8941 103.486 61.8941C104.097 61.8941 104.586 61.6496 105.075 61.2829C105.32 61.0383 105.686 60.5493 105.809 59.6935ZM93.3387 49.5464H94.3167C94.3167 50.2799 94.0722 50.7689 93.5832 51.1357C93.2164 51.5025 92.6052 51.747 91.9939 51.747C91.3826 51.747 90.7713 51.5025 90.4046 51.1357C90.0378 50.7689 89.7933 50.1577 89.6711 49.5464H90.6491C90.6491 49.9132 90.7713 50.1577 91.0159 50.4022C91.2604 50.5244 91.5049 50.6467 91.9939 50.6467C92.3606 50.6467 92.7274 50.5244 92.9719 50.4022C93.2164 50.1577 93.3387 49.9132 93.3387 49.5464ZM87.715 52.725H89.7933V60.0603L94.3167 52.725H96.5173V63.8502H94.439V56.6372L89.9156 63.8502H87.715V52.725ZM76.5898 52.725H78.6681V60.0603L83.1915 52.725H85.3921V63.8502H83.3138V56.6372L78.7904 63.8502H76.5898V52.725ZM72.4331 59.6935L74.6337 60.3048C74.2669 61.5274 73.7779 62.3831 72.9221 62.9944C72.1886 63.6057 71.2106 63.8502 69.988 63.8502C68.5209 63.8502 67.2984 63.3612 66.3204 62.3831C65.3423 61.4051 64.8533 60.0603 64.8533 58.2265C64.8533 56.3927 65.3423 54.9256 66.3204 53.9476C67.2984 52.9695 68.5209 52.3582 70.1103 52.3582C71.4551 52.3582 72.5554 52.725 73.4111 53.5808C73.9002 54.0698 74.2669 54.6811 74.5114 55.6591L72.4331 56.2704C72.3109 55.6591 72.0663 55.2924 71.5773 54.9256C71.2106 54.5588 70.5993 54.4366 70.1103 54.4366C69.2545 54.4366 68.6432 54.6811 68.1542 55.2924C67.6652 55.9036 67.4206 56.8817 67.4206 58.1042C67.4206 59.449 67.6652 60.5493 68.1542 61.0383C68.6432 61.6496 69.2545 61.8941 70.1103 61.8941C70.7215 61.8941 71.2105 61.6496 71.6996 61.2829C71.9441 61.0383 72.3109 60.5493 72.4331 59.6935ZM61.3079 59.6935L63.5085 60.3048C63.1417 61.5274 62.6527 62.3831 61.7969 62.9944C61.0634 63.6057 60.0854 63.8502 58.8628 63.8502C57.3957 63.8502 56.1732 63.3612 55.1952 62.3831C54.2171 61.4051 53.7281 60.0603 53.7281 58.2265C53.7281 56.3927 54.2171 54.9256 55.1952 53.9476C56.1732 52.9695 57.3957 52.3582 58.9851 52.3582C60.3299 52.3582 61.4302 52.725 62.2859 53.5808C62.775 54.0698 63.1417 54.6811 63.3862 55.6591L61.1856 56.2704C61.0634 55.6591 60.8189 55.2924 60.3299 54.9256C59.9631 54.5588 59.3518 54.4366 58.8628 54.4366C58.007 54.4366 57.3957 54.6811 56.9067 55.2924C56.4177 55.9036 56.1732 56.8817 56.1732 58.1042C56.1732 59.449 56.4177 60.5493 56.9067 61.0383C57.3957 61.6496 58.007 61.8941 58.8628 61.8941C59.4741 61.8941 59.9631 61.6496 60.4521 61.2829C60.8189 61.0383 61.0634 60.5493 61.3079 59.6935ZM44.07 58.2265C44.07 59.449 44.3145 60.4271 44.9258 61.0383C45.537 61.6496 46.2706 62.0164 47.1263 62.0164C47.9821 62.0164 48.7156 61.6496 49.3269 61.0383C49.9382 60.4271 50.1827 59.449 50.1827 58.1042C50.1827 56.8817 49.9382 55.9036 49.3269 55.2924C48.7156 54.6811 47.9821 54.3143 47.1263 54.3143C46.1483 54.3143 45.4148 54.6811 44.9258 55.2924C44.3145 56.0259 44.07 57.0039 44.07 58.2265ZM41.7471 58.3487C41.7471 57.2484 41.8694 56.2704 42.2361 55.5369C42.4807 54.9256 42.8474 54.4366 43.2142 54.0698C43.7032 53.5808 44.07 53.3363 44.6812 53.0918C45.4148 52.8473 46.1483 52.6028 47.1263 52.6028C48.7156 52.6028 50.0605 53.0918 51.0385 54.0698C52.0165 55.0479 52.5056 56.5149 52.5056 58.3487C52.5056 60.1826 52.0165 61.5274 51.0385 62.5054C50.0605 63.4834 48.7156 63.9725 47.1263 63.9725C45.537 63.9725 44.1922 63.4834 43.2142 62.5054C42.2361 61.4051 41.7471 60.0603 41.7471 58.3487ZM34.2896 54.5588V57.7375H35.5121C36.3679 57.7375 36.9792 57.7375 37.2237 57.6152C37.4682 57.493 37.7127 57.3707 37.9572 57.1262C38.0795 56.8817 38.2017 56.6372 38.2017 56.2704C38.2017 55.9036 38.0795 55.5369 37.835 55.2924C37.5905 55.0479 37.3459 54.9256 36.9792 54.8033C36.7347 54.8033 36.1234 54.6811 35.3899 54.6811H34.2896V54.5588ZM32.089 63.7279V52.6028H35.6344C36.9792 52.6028 37.835 52.6028 38.324 52.725C38.9353 52.8473 39.5465 53.214 39.9133 53.8253C40.2801 54.4366 40.5246 55.0479 40.5246 56.0259C40.5246 56.7594 40.4023 57.2484 40.1578 57.7375C39.9133 58.2265 39.5465 58.5932 39.1798 58.8378C38.813 59.0823 38.4462 59.3268 38.0795 59.3268C37.5905 59.449 36.7347 59.449 35.7566 59.449H34.2896V63.6057H32.089V63.7279ZM21.8196 63.7279V52.6028H30.0106V54.4366H24.0202V56.8817H29.5216V58.7155H24.0202V61.7719H30.1329V63.6057H21.8196V63.7279ZM17.6629 59.6935L19.8635 60.3048C19.4967 61.5274 19.0077 62.3831 18.1519 62.9944C17.4184 63.6057 16.4404 63.8502 15.2178 63.8502C13.7507 63.8502 12.5282 63.3612 11.5502 62.3831C10.5721 61.4051 10.0831 60.0603 10.0831 58.2265C10.0831 56.3927 10.5721 54.9256 11.5502 53.9476C12.5282 52.9695 13.7507 52.3582 15.3401 52.3582C16.6849 52.3582 17.7852 52.725 18.6409 53.5808C19.13 54.0698 19.4967 54.6811 19.7412 55.6591L17.6629 56.2704C17.5406 55.6591 17.2961 55.2924 16.8071 54.9256C16.4404 54.5588 15.8291 54.4366 15.3401 54.4366C14.4843 54.4366 13.873 54.6811 13.384 55.2924C12.895 55.9036 12.6505 56.8817 12.6505 58.1042C12.6505 59.449 12.895 60.5493 13.384 61.0383C13.873 61.6496 14.4843 61.8941 15.3401 61.8941C15.9513 61.8941 16.4404 61.6496 16.9294 61.2829C17.1739 61.0383 17.5406 60.5493 17.6629 59.6935ZM2.25879 58.96V61.8941H4.33712C5.1929 61.8941 5.68192 61.8941 5.92643 61.7719C6.2932 61.6496 6.53771 61.5274 6.78222 61.2829C7.02673 61.0383 7.14898 60.7938 7.14898 60.3048C7.14898 59.938 7.02673 59.6935 6.90447 59.449C6.78222 59.2045 6.53771 59.0823 6.17094 58.96C5.92643 58.8378 5.1929 58.8378 4.21486 58.8378H2.25879V58.96ZM2.25879 54.5588V57.1262H3.72584C4.58163 57.1262 5.1929 57.1262 5.31516 57.1262C5.68192 57.1262 6.04869 57.0039 6.17094 56.7594C6.41545 56.5149 6.53771 56.2704 6.53771 55.9036C6.53771 55.5369 6.41545 55.2924 6.2932 55.0479C6.04869 54.8033 5.80418 54.6811 5.43741 54.6811C5.1929 54.6811 4.58163 54.6811 3.48133 54.6811H2.25879V54.5588ZM0.058197 52.725H4.45937C5.31516 52.725 6.04869 52.725 6.41545 52.8473C6.90447 52.9695 7.27124 53.0918 7.51575 53.3363C7.88251 53.5808 8.12702 53.8253 8.37153 54.3143C8.61604 54.5588 8.7383 55.0479 8.7383 55.5369C8.7383 56.0259 8.61604 56.5149 8.37153 57.0039C8.12702 57.493 7.76026 57.7375 7.27124 57.982C7.88251 58.2265 8.49379 58.471 8.86055 58.96C9.22731 59.449 9.34957 59.938 9.34957 60.6716C9.34957 61.1606 9.22731 61.6496 8.98281 62.1386C8.7383 62.6277 8.37153 62.9944 8.00477 63.2389C7.638 63.4834 7.14898 63.7279 6.53771 63.7279C6.17094 63.7279 5.31516 63.8502 3.8481 63.8502H0.058197V52.725Z" fill="#1B110A"/>
</svg>
