<svg width="119" height="44" viewBox="0 0 119 44" fill="none" xmlns="http://www.w3.org/2000/svg">
<path fill-rule="evenodd" clip-rule="evenodd" d="M0.291844 0.285156C2.56248 0.285156 4.91721 0.285156 7.18785 0.285156C8.7857 0.369409 10.5518 0.622168 11.8973 1.6332C13.1588 2.47573 13.9157 3.82378 14.252 5.34034C14.5043 6.60413 14.5043 8.03643 13.9157 9.21597C13.4952 10.227 12.6542 10.9853 11.7291 11.5751C13.0747 11.8278 14.4202 12.5018 15.2612 13.5129C16.0181 14.4397 16.4386 15.6192 16.5227 16.883C16.6909 18.4838 16.3545 20.1689 15.4294 21.4327C14.5884 22.6122 13.327 23.4547 11.8973 23.9602C10.7199 24.3815 9.45848 24.4658 8.28112 24.4658C5.58999 24.4658 2.98297 24.4658 0.291844 24.4658C0.291844 16.3775 0.291844 8.28919 0.291844 0.285156ZM5.00131 4.16079C5.00131 6.18287 5.00131 8.28919 5.00131 10.3113C6.01048 10.3113 7.10375 10.3955 8.11292 9.97425C8.8698 9.72149 9.45848 9.13172 9.71078 8.4577C10.0472 7.69942 10.0472 6.77264 9.71078 5.93011C9.45848 5.17183 8.7857 4.66631 8.11292 4.41355C7.10375 3.99229 6.01048 4.16079 5.00131 4.16079ZM5.00131 13.9341C5.00131 16.1247 5.00131 18.3153 5.00131 20.5901C6.17868 20.5901 7.35604 20.6744 8.53341 20.5059C9.45848 20.3374 10.3836 20.0004 10.9722 19.2421C11.8973 18.0625 11.8973 16.0405 10.7199 15.0294C9.87897 14.2712 8.7016 14.0184 7.60834 14.0184C6.76736 13.9341 5.84229 13.9341 5.00131 13.9341ZM23.4187 9.30023C25.0165 8.37344 26.7826 8.12068 28.6327 8.28919C29.8101 8.37344 30.9875 8.71045 31.9966 9.21597C31.9966 10.6483 31.9966 12.1648 31.9966 13.5971C31.1557 12.8389 30.1465 12.3333 29.0532 12.2491C27.7918 12.0806 26.4462 12.3333 25.437 13.2601C23.671 14.7767 23.5028 17.8098 25.0165 19.5791C25.8575 20.5059 27.0349 21.0114 28.2123 21.0956C29.5578 21.1799 30.9034 20.6744 31.9125 19.7476C31.9125 21.1799 31.9125 22.6122 31.9125 24.0445C29.0532 25.5611 25.437 25.3083 22.83 23.539C21.1481 22.4437 19.9707 20.6744 19.5502 18.7366C19.1297 16.883 19.2979 14.9452 20.0548 13.2601C20.7276 11.4908 21.9049 10.1428 23.4187 9.30023ZM39.229 8.79471C40.6587 8.20494 42.1725 8.12068 43.6862 8.20494C45.2 8.37344 46.7978 8.87896 47.9752 9.89C49.0685 10.8168 49.8253 12.0806 50.2458 13.5129C50.5822 14.6924 50.6663 16.0405 50.6663 17.3043C46.7978 17.3043 42.8452 17.3043 38.9767 17.3043C38.9767 18.3995 39.3131 19.4948 40.07 20.3374C40.8269 21.0956 41.8361 21.4327 42.8452 21.4327C43.9385 21.4327 45.0318 21.0114 45.7887 20.2531C46.0409 20.0004 46.2932 19.6633 46.4614 19.3263C47.807 19.5791 49.1526 19.7476 50.4981 20.0004C49.9094 21.3484 49.0685 22.6122 47.807 23.4547C46.6296 24.2973 45.2 24.7185 43.6862 24.887C42.1725 24.9713 40.5746 24.887 39.1449 24.2973C37.6312 23.6232 36.2856 22.5279 35.4446 21.0956C34.5196 19.5791 34.2673 17.8098 34.3514 16.1247C34.4355 14.6924 34.7719 13.2601 35.5287 12.0806C36.4538 10.564 37.7153 9.46873 39.229 8.79471ZM40.5746 12.0806C39.8177 12.6703 39.3131 13.5129 39.1449 14.4397C41.5838 14.4397 44.0226 14.4397 46.5455 14.4397C46.3773 13.2601 45.5364 12.1648 44.4431 11.6593C43.0975 11.1538 41.5838 11.238 40.5746 12.0806ZM108.021 13.3444C109.871 13.0074 111.805 13.3444 113.487 14.1869C115.842 15.4507 117.608 17.8098 118.029 20.4216C118.365 22.4437 118.029 24.6343 116.935 26.4036C115.59 28.5942 113.235 30.195 110.712 30.532C108.946 30.7847 107.096 30.4477 105.498 29.6052C104.152 28.9312 103.059 27.9201 102.218 26.6563C101.041 24.887 100.536 22.7807 100.873 20.6744C101.209 17.9783 102.891 15.4507 105.33 14.1869C106.087 13.8499 107.096 13.5129 108.021 13.3444ZM106.339 19.4106C106.339 19.2421 106.339 18.9893 106.339 18.8208C105.834 18.8208 105.414 18.8208 104.909 18.8208C104.909 21.3484 104.909 23.876 104.909 26.3193C105.414 26.3193 105.834 26.3193 106.339 26.3193C106.339 25.224 106.339 24.213 106.339 23.1177C107.096 24.1288 108.61 24.0445 109.451 23.2862C110.544 22.3594 110.628 20.5059 109.703 19.4106C108.862 18.4838 107.096 18.3153 106.339 19.4106ZM110.712 18.8208C111.469 20.2531 112.226 21.6012 113.067 22.9492C112.478 24.0445 111.889 25.224 111.301 26.3193C111.805 26.3193 112.394 26.3193 112.899 26.3193C114.244 23.7917 115.506 21.2641 116.851 18.8208C116.347 18.8208 115.842 18.8208 115.253 18.8208C114.749 19.7476 114.328 20.6744 113.908 21.6012C113.403 20.6744 112.899 19.7476 112.394 18.8208C111.805 18.8208 111.217 18.8208 110.712 18.8208ZM102.639 22.1067C102.05 22.2752 101.798 23.1177 102.218 23.6232C102.639 24.1288 103.648 23.876 103.732 23.202C103.9 22.5279 103.227 21.8539 102.639 22.1067ZM107.096 20.0004C106.339 20.1689 106.003 21.0956 106.255 21.7697C106.507 22.4437 107.348 22.865 108.021 22.5279C108.778 22.2752 109.03 21.3484 108.694 20.6744C108.525 20.0846 107.769 19.7476 107.096 20.0004ZM22.9982 31.3745C24.1756 30.9532 25.6052 31.0375 26.7826 31.6273C26.7826 32.3855 26.7826 33.1438 26.7826 33.9021C26.1098 33.2281 25.0165 32.9753 24.0915 33.3123C23.5028 33.4808 22.9982 33.9021 22.83 34.4919C22.4095 35.5029 22.6618 36.7667 23.5869 37.3565C24.5961 38.0305 25.9416 37.862 26.7826 37.0195C26.7826 37.7777 26.7826 38.536 26.7826 39.2943C24.8483 40.3053 22.0731 39.7998 20.8958 37.862C20.1389 36.7667 20.0548 35.3344 20.4753 34.0706C20.8117 32.8068 21.7367 31.7958 22.9982 31.3745ZM39.5654 31.206C40.7428 30.9532 42.0884 31.206 43.0975 32.0485C43.9385 32.8068 44.359 33.8178 44.4431 34.9131C44.5272 36.1769 44.2749 37.525 43.4339 38.4518C42.5929 39.3785 41.3315 39.8841 40.07 39.7156C39.229 39.6313 38.3881 39.1258 37.8835 38.4518C37.8835 40.2211 37.8835 41.9904 37.8835 43.8439C37.1266 43.8439 36.3697 43.8439 35.6128 43.8439C35.6128 39.6313 35.6128 35.5029 35.6128 31.2903C36.3697 31.2903 37.1266 31.2903 37.8835 31.2903C37.8835 31.6273 37.8835 31.9643 37.8835 32.3013C38.2199 31.7958 38.8086 31.3745 39.5654 31.206ZM39.229 33.2281C38.4722 33.3966 37.8835 33.9863 37.7153 34.6604C37.463 35.5872 37.7153 36.5982 38.3881 37.188C39.1449 37.7777 40.2382 37.862 40.9951 37.3565C42.2565 36.5982 42.4247 34.5761 41.2474 33.6493C40.6587 33.2281 39.9018 33.0596 39.229 33.2281ZM70.5133 31.206C71.6066 31.0375 72.8681 31.1217 73.7932 31.7115C74.6341 32.217 75.2228 33.1438 75.391 34.0706C75.5592 34.6604 75.5592 35.2501 75.5592 35.8399C73.5409 35.8399 71.5225 35.8399 69.5042 35.8399C69.5042 36.4297 69.6724 37.1037 70.177 37.525C71.102 38.3675 72.784 38.0305 73.3727 36.9352C74.0454 37.0195 74.8023 37.188 75.4751 37.2722C75.0546 38.4518 74.0454 39.3785 72.8681 39.6313C71.7748 39.8841 70.5134 39.8841 69.5042 39.4628C68.3268 38.9573 67.4858 37.862 67.2335 36.5982C66.9813 35.4186 67.1494 34.0706 67.7381 33.0596C68.3268 32.0485 69.336 31.3745 70.5133 31.206ZM70.5133 32.9753C70.0088 33.2281 69.6724 33.8178 69.5042 34.3234C70.7656 34.3234 72.0271 34.3234 73.3727 34.3234C73.2886 33.9021 73.1204 33.5651 72.8681 33.2281C72.2794 32.7226 71.2702 32.554 70.5133 32.9753ZM55.3758 39.547C55.8804 36.7667 56.3849 33.9864 56.8895 31.206C57.4782 31.206 58.0669 31.206 58.5715 31.206C59.3284 32.8068 60.0852 34.4076 60.758 36.0927C61.5149 34.4919 62.2718 32.8068 63.0287 31.206C63.6173 31.206 64.206 31.206 64.7106 31.206C65.2152 33.9864 65.7198 36.7667 66.2244 39.547C65.4675 39.547 64.7106 39.547 63.8696 39.547C63.6173 38.1147 63.4492 36.5982 63.1969 35.1659C62.5241 36.6824 61.8513 38.199 61.0944 39.7156C60.8421 39.7156 60.6739 39.7156 60.4216 39.7156C59.7489 38.199 58.992 36.6824 58.3192 35.1659C58.0669 36.5982 57.8987 38.1147 57.6464 39.547C56.9736 39.547 56.1327 39.547 55.3758 39.547ZM0.123648 31.3745C0.880527 31.3745 1.63741 31.3745 2.47838 31.3745C2.47838 33.0596 2.47838 34.7446 2.47838 36.3454C3.73985 34.6604 5.00131 32.9753 6.17868 31.3745C6.93555 31.3745 7.69243 31.3745 8.44931 31.3745C8.44931 34.0706 8.44931 36.8509 8.44931 39.547C7.69243 39.547 6.93555 39.547 6.09458 39.547C6.09458 37.862 6.09458 36.2612 6.09458 34.5761C4.83311 36.2612 3.65575 37.862 2.39428 39.547C1.63741 39.547 0.880527 39.547 0.0395508 39.547C0.123648 36.7667 0.123648 34.0706 0.123648 31.3745ZM10.6358 31.3745C11.3927 31.3745 12.1496 31.3745 12.9065 31.3745C12.9065 32.3013 12.9065 33.3123 12.9065 34.2391C13.9998 34.2391 15.0089 34.2391 16.1022 34.2391C16.1022 33.3123 16.1022 32.3013 16.1022 31.3745C16.8591 31.3745 17.616 31.3745 18.3728 31.3745C18.3728 34.0706 18.3728 36.8509 18.3728 39.547C17.616 39.547 16.8591 39.547 16.1022 39.547C16.1022 38.4518 16.1022 37.3565 16.1022 36.2612C15.0089 36.2612 13.9998 36.2612 12.9065 36.2612C12.9065 37.3565 12.9065 38.4518 12.9065 39.547C12.1496 39.547 11.3927 39.547 10.5518 39.547C10.6358 36.7667 10.6358 34.0706 10.6358 31.3745ZM27.4554 31.3745C29.726 31.3745 31.9966 31.3745 34.2673 31.3745C34.2673 32.0485 34.2673 32.7226 34.2673 33.3123C33.5104 33.3123 32.7535 33.3123 31.9966 33.3123C31.9966 35.3344 31.9966 37.4407 31.9966 39.4628C31.2398 39.4628 30.4829 39.4628 29.726 39.4628C29.726 37.4407 29.726 35.3344 29.726 33.3123C28.9691 33.3123 28.2122 33.3123 27.4554 33.3123C27.4554 32.7226 27.4554 32.0485 27.4554 31.3745ZM45.1159 31.3745C46.0409 31.3745 46.8819 31.3745 47.807 31.3745C48.648 32.8911 49.4889 34.4076 50.3299 36.0084C51.0868 34.4919 51.8437 32.9753 52.6006 31.3745C53.4415 31.3745 54.3666 31.3745 55.2076 31.3745C53.021 35.5872 50.8345 39.7156 48.648 43.9282C47.807 43.9282 46.8819 43.9282 46.0409 43.9282C47.0501 42.0746 48.0593 40.2211 49.0685 38.3675C47.6388 36.0084 46.3773 33.6493 45.1159 31.3745ZM77.3253 31.3745C78.0821 31.3745 78.839 31.3745 79.5959 31.3745C79.5959 32.3013 79.5959 33.3123 79.5959 34.2391C80.6892 34.2391 81.6983 34.2391 82.7916 34.2391C82.7916 33.3123 82.7916 32.3013 82.7916 31.3745C83.5485 31.3745 84.3054 31.3745 85.0622 31.3745C85.0622 34.0706 85.0622 36.8509 85.0622 39.547C84.3054 39.547 83.5485 39.547 82.7916 39.547C82.7916 38.4518 82.7916 37.3565 82.7916 36.2612C81.6983 36.2612 80.6892 36.2612 79.5959 36.2612C79.5959 37.3565 79.5959 38.4518 79.5959 39.547C78.839 39.547 78.0821 39.547 77.2412 39.547C77.3252 36.7667 77.3253 34.0706 77.3253 31.3745ZM86.2396 31.3745C88.5102 31.3745 90.7809 31.3745 93.0515 31.3745C93.0515 32.0485 93.0515 32.7226 93.0515 33.3966C92.2946 33.3966 91.5378 33.3966 90.7809 33.3966C90.7809 35.4187 90.7809 37.525 90.7809 39.547C90.024 39.547 89.2671 39.547 88.5102 39.547C88.5102 37.525 88.5102 35.4187 88.5102 33.3966C87.7534 33.3966 86.9965 33.3966 86.2396 33.3966C86.2396 32.7226 86.2396 32.0485 86.2396 31.3745ZM94.313 31.3745C95.0699 31.3745 95.8267 31.3745 96.5836 31.3745C96.5836 32.3013 96.5836 33.3123 96.5836 34.2391C97.4246 34.2391 98.1815 34.1549 99.0224 34.3234C99.7793 34.4076 100.62 34.9131 100.957 35.6714C101.293 36.5139 101.293 37.525 100.873 38.2832C100.452 39.0415 99.6111 39.547 98.7701 39.547C97.2564 39.547 95.8267 39.547 94.313 39.547C94.313 36.7667 94.313 34.0706 94.313 31.3745ZM96.5836 36.0927C96.5836 36.5982 96.5836 37.188 96.5836 37.6935C97.1723 37.6935 97.6769 37.7777 98.2656 37.6092C98.7701 37.4407 98.9383 36.851 98.686 36.4297C98.5179 36.1769 98.1815 36.0927 97.8451 36.0927C97.4246 36.0927 97.0041 36.0927 96.5836 36.0927ZM102.05 31.3745C102.807 31.3745 103.564 31.3745 104.321 31.3745C104.321 34.0706 104.321 36.8509 104.321 39.547C103.564 39.547 102.807 39.547 101.966 39.547C102.05 36.7667 102.05 34.0706 102.05 31.3745Z" fill="#D42128"/>
</svg>
