<svg width="250" height="43" viewBox="0 0 250 43" fill="none" xmlns="http://www.w3.org/2000/svg">
<path d="M228.975 28.199C230.592 19.4192 232.209 11.3325 233.711 3.13025C233.711 2.8992 233.249 2.43711 233.018 2.09053C232.671 1.74396 232.325 1.39739 231.978 1.05082C232.44 0.819767 232.787 0.242145 233.249 0.242145C236.368 0.126621 239.603 0.126621 242.722 0.242145C243.184 0.242145 243.531 0.819767 243.877 1.16634C243.531 1.51291 243.069 2.09053 242.722 2.09053C240.989 1.97501 240.989 2.66816 241.336 4.05445C243.184 12.0256 244.917 19.9968 246.534 27.968C246.765 29.2387 247.343 29.7008 248.614 29.5853C249.076 29.5853 249.538 30.1629 250 30.394C249.538 30.7406 249.076 31.3182 248.729 31.3182C245.61 31.4337 242.491 31.4337 239.372 31.3182C238.91 31.3182 238.563 30.7406 238.101 30.5095C238.448 30.1629 238.794 29.8164 239.141 29.4698C239.372 29.0077 239.718 28.5456 239.718 28.0835C238.217 21.0365 236.715 13.9895 234.982 6.94255C234.52 9.25304 234.058 11.5635 233.596 13.874C232.671 18.495 231.863 23.116 231.054 27.7369C230.823 28.7766 230.592 29.7008 232.325 29.5853C232.556 29.5853 233.018 30.1629 233.133 30.5095C233.133 30.7406 232.556 31.3182 232.325 31.3182C228.512 31.4337 224.816 31.4337 221.003 31.3182C220.657 31.3182 220.195 30.7406 220.195 30.5095C220.31 30.1629 220.657 29.5853 221.003 29.5853C221.928 29.5853 222.505 29.4698 222.274 28.3146C220.772 21.4986 219.271 14.6827 217.884 7.86675C217.884 7.75122 217.653 7.52018 217.538 7.40465C213.379 13.0653 211.761 19.3037 213.032 26.2351C213.032 26.4662 213.148 26.5817 213.148 26.8127C213.841 31.6648 213.841 31.7803 208.873 31.7803C205.061 31.7803 204.714 31.4337 204.946 27.5059C205.177 23.6936 206.447 20.1123 208.758 17.1087C210.837 14.2206 212.917 11.3325 214.881 8.32885C215.574 7.28913 216.036 6.24941 216.382 5.09417C217.076 2.78368 216.729 2.43711 214.419 2.20606C213.956 2.20606 213.61 1.62844 213.263 1.39739C213.725 1.05082 214.072 0.473194 214.534 0.473194C218 0.357669 221.35 0.357669 224.816 0.473194C225.278 0.473194 225.624 0.935291 226.086 1.28186C225.624 1.62844 225.278 1.97501 224.816 2.32158C224.469 2.66816 223.776 2.8992 223.776 3.13025C225.278 11.217 227.126 19.4192 228.975 28.199Z" fill="#8E181B"/>
<path d="M194.895 9.83066C193.393 9.13752 192.122 9.25304 190.852 10.2928C187.155 13.4119 185.306 17.3397 184.96 22.3073C185.191 26.2351 187.155 29.2387 190.274 31.7803C192.584 33.6287 194.548 33.7442 196.281 31.2027C198.245 28.4301 200.094 25.542 201.018 22.3073C202.404 17.1087 199.631 11.9101 194.895 9.83066ZM193.624 26.8127C190.274 25.3109 187.617 20.3434 188.31 16.7621C188.772 14.3361 189.812 13.7585 192.007 14.7982C195.935 16.6466 197.436 19.9968 197.668 23.6936C197.668 27.5059 196.628 28.199 193.624 26.8127Z" fill="#8E181B"/>
<path d="M182.303 29.4698C181.956 29.1232 181.032 29.0077 180.454 29.2387C179.415 29.7008 178.837 29.3543 178.49 28.4301C178.259 27.8525 178.028 27.2748 177.913 26.6972C176.296 19.0726 174.794 11.448 173.176 3.8234C172.83 2.09053 173.985 2.32158 174.909 2.20606C175.14 1.74396 175.371 1.39739 175.487 0.935291C175.487 0.704242 174.909 0.35767 174.563 0.35767C170.057 0.35767 165.667 0.473194 161.162 0.473194H161.046C160.7 2.32158 160.7 2.32158 162.664 2.32158C165.783 2.32158 166.591 3.3613 165.552 6.24941C164.859 8.0978 163.934 9.94619 162.895 11.5635C160.238 16.3 158.043 21.3831 157.465 26.8127C157.234 28.5456 156.772 29.4698 154.692 29.1232C152.96 28.7766 152.266 29.7008 152.844 31.5492C153.306 32.9355 153.653 34.4373 154.115 35.9392C154.577 37.0944 155.155 38.2496 155.617 39.5204C156.194 38.3652 157.003 37.441 157.35 36.2857C158.158 33.6287 159.544 31.8958 162.548 31.7803C164.859 31.6648 167.169 31.6648 169.48 31.5492C175.718 31.4337 177.682 33.051 178.259 38.1341C178.259 38.5962 179.068 39.0583 179.53 39.5204C179.992 39.0583 180.57 38.7117 180.801 38.1341C181.494 35.9392 182.072 33.7442 182.534 31.4337C182.88 30.8561 182.765 29.9319 182.303 29.4698ZM170.75 29.7008C168.209 29.7008 165.667 29.8164 163.126 29.7008C160.931 29.5853 160.122 28.6611 160.353 26.5817C161.046 20.5744 163.472 15.1448 167.054 9.94619C168.671 16.5311 170.173 22.7694 171.559 28.8922C171.559 29.0077 170.981 29.7008 170.75 29.7008Z" fill="#8E181B"/>
<path d="M130.086 16.4155C127.198 20.921 124.887 25.0799 127.082 30.1629C127.544 31.3182 127.198 31.5492 126.042 31.6648C122.346 31.6648 121.537 31.0871 122.692 27.3904C123.616 24.6178 125.118 21.9607 126.505 19.4192C127.775 17.1087 129.162 14.9137 129.162 12.1411C129.162 11.9101 129.277 11.6791 129.508 11.448C129.624 11.217 129.855 11.1014 130.086 10.9859C131.357 10.8704 132.627 10.8704 133.898 10.9859C134.36 11.1014 134.938 12.0256 135.053 12.6032C135.978 16.7621 136.671 20.921 138.057 25.0799C139.097 21.2676 140.598 17.5708 141.176 13.643C141.638 10.8704 141.176 10.9859 144.064 10.7549C146.375 10.5238 147.068 11.448 147.183 13.643C147.53 19.0726 149.032 24.2712 151.342 29.1232C152.382 31.3182 152.151 31.2027 149.84 31.4337C147.299 31.6648 146.028 30.625 145.335 28.4301C144.295 25.0799 143.256 21.7297 141.638 18.2639C140.83 22.0762 139.905 25.8885 139.212 29.7008C138.981 30.8561 138.866 31.3182 137.595 31.3182C134.129 31.3182 134.014 31.4337 133.089 27.968C132.165 24.6178 131.472 21.152 130.663 17.6863C130.432 17.5708 130.317 17.2242 130.086 16.4155Z" fill="#8E181B"/>
<path d="M105.479 19.7658C108.136 18.1484 110.447 16.8776 112.642 15.4914C113.104 15.1448 113.335 14.1051 113.335 13.4119C113.335 11.6791 113.912 10.7549 115.761 10.9859C116.107 10.9859 116.338 10.9859 116.685 10.9859C119.458 10.9859 119.111 10.9859 118.995 13.7585C118.764 18.8416 118.88 24.0402 119.111 29.1232C119.227 30.9716 118.88 31.7803 116.916 31.6648C113.566 31.5492 113.219 31.4337 113.104 27.968C112.988 24.5023 113.104 20.921 113.104 17.1087C110.678 18.6105 108.367 19.8813 106.172 21.3831C105.941 21.6141 105.826 22.1918 105.826 22.6539C105.941 25.0799 106.172 27.5059 106.403 29.9319C106.519 31.2027 106.172 31.6648 104.901 31.7803C100.858 32.0113 100.743 32.0113 100.743 28.0835C100.627 23.2315 100.743 18.3795 100.743 13.5274C100.743 11.7946 101.436 10.8704 103.284 11.217C103.862 11.3325 104.324 11.3325 104.901 11.217C106.519 10.9859 106.75 11.7946 106.519 13.0653C106.057 15.0293 105.826 17.2242 105.479 19.7658Z" fill="#8E181B"/>
<path d="M89.6523 9.94619C88.7281 9.59961 87.4573 9.59961 86.7642 10.0617C78.4464 14.5672 77.9843 27.2748 85.84 32.3579C87.5729 33.5131 89.3057 33.5131 90.8075 32.0113C94.1577 28.7766 96.0061 24.7333 96.3527 21.0365C96.2372 15.4914 93.6956 11.3325 89.6523 9.94619ZM88.3815 26.9283C85.0313 25.3109 82.4898 20.2278 83.2985 16.8776C83.9916 14.4516 84.6847 14.1051 86.8797 15.1448C90.8075 16.9932 92.3093 20.2278 92.5404 23.5781C92.5404 27.7369 91.5007 28.4301 88.3815 26.9283Z" fill="#8E181B"/>
<path d="M70.2442 10.5238C68.7424 9.36857 67.3561 9.25304 65.7388 10.4083C61.8109 13.2964 59.5005 17.1087 59.616 21.9607C59.7315 28.4301 60.1936 34.8994 60.5402 41.3688C60.5402 41.9464 61.0023 42.9861 61.1178 42.9861C61.8109 42.8706 62.9662 42.7551 63.1972 42.293C63.7749 41.0222 64.2369 39.6359 64.3525 38.1341C64.468 35.246 64.3525 32.3579 64.3525 29.4698C68.7424 33.7442 73.2478 33.051 75.2118 27.7369C77.1757 22.4228 74.7497 13.9895 70.2442 10.5238ZM70.9374 27.6214C70.4753 29.4698 68.7424 30.2785 67.2406 29.1232C65.9698 28.199 65.0456 26.9283 64.3525 25.542C62.8507 22.3073 62.9662 18.9571 64.1214 15.7224C64.9301 13.643 65.3922 13.5274 66.894 15.0293C69.5511 17.9174 71.1684 21.6141 71.2839 25.542C71.1684 26.2351 71.0529 26.9283 70.9374 27.6214Z" fill="#8E181B"/>
<path d="M45.8686 22.0762C45.8686 24.7333 45.8686 27.3904 45.8686 30.0474C45.8686 31.2027 45.6375 31.7803 44.2512 31.8958C40.2079 32.1269 40.2079 32.1269 40.2079 28.0835C40.2079 23.347 40.3234 18.6105 40.4389 13.874C40.4389 12.8343 40.2079 12.4877 39.1682 12.4877C35.5869 12.4877 34.0851 14.3361 34.6627 17.9174C34.7783 18.2639 34.4317 18.9571 34.0851 19.0726C33.5075 19.1881 32.6988 19.0726 32.4678 18.726C31.4281 16.9932 30.5039 15.1448 29.5797 13.2964C28.8865 11.5635 29.6952 10.6393 31.7746 10.6393C39.3992 10.6393 47.0238 10.6393 54.764 10.6393C55.4571 10.6393 56.3813 10.7549 56.6123 11.217C56.8434 11.9101 56.8434 12.7188 56.6123 13.4119C55.8037 15.2603 54.8795 16.9932 53.8398 18.726C53.6087 19.0726 52.6845 19.0726 51.9914 19.0726C51.8759 19.0726 51.6448 18.3795 51.6448 18.0329C52.2224 14.1051 50.9517 12.4877 47.0238 12.6032C46.5617 12.6032 45.8686 13.2964 45.8686 13.7585C45.7531 16.5311 45.7531 19.3037 45.8686 22.0762Z" fill="#8E181B"/>
<path d="M22.0706 17.6863C23.5724 17.6863 25.0742 17.5708 26.576 17.6863C27.0381 17.6863 27.3847 18.2639 27.8468 18.495C27.5002 18.8416 27.2692 19.1881 26.9226 19.5347C26.576 19.9968 25.8829 20.3434 25.8829 20.8055C24.3811 28.0835 16.5254 33.6287 9.13186 32.4734C8.55424 32.3579 7.86109 31.7803 7.63005 31.2027C6.70585 29.2387 6.12823 27.0438 5.08851 25.0799C4.39537 23.6936 3.35565 22.6539 2.43145 21.3831C-1.49637 16.069 -0.225606 8.67542 3.1246 4.74759C6.82138 0.357669 13.8684 -1.25967 19.529 1.05082C22.7637 2.32158 24.3811 5.09417 25.6518 8.0978C25.8829 8.79094 26.6916 9.25304 27.2692 9.83066C27.5002 10.1772 27.8468 10.5238 27.8468 10.8704C27.7313 11.1014 27.6157 11.217 27.5002 11.3325C27.3847 11.448 27.1537 11.5635 26.9226 11.5635C23.6879 11.6791 20.3377 11.6791 17.103 11.5635C16.7565 11.5635 16.1788 10.9859 16.2944 10.7549C16.4099 10.4083 16.7565 10.0617 17.103 9.71514C17.4496 9.25304 18.1428 8.90647 18.0272 8.5599C17.9117 7.28913 17.6807 6.01836 17.3341 4.86312C16.7565 3.24578 15.6012 2.09053 13.7528 1.97501C12.8286 1.85949 12.02 1.97501 11.2113 2.43711C10.2871 2.8992 9.70948 3.59235 9.36291 4.40102C7.63005 7.52018 7.63005 10.9859 8.09214 14.3361C8.66976 18.2639 9.59396 22.1918 10.2871 26.1196C10.4026 27.5059 10.4026 28.8922 10.0561 30.394C9.82501 31.5492 10.4026 31.7803 11.2113 31.5492C12.251 31.2027 13.4063 30.7406 14.2149 30.0474C16.7565 27.6214 17.9117 24.6178 18.0272 21.152C18.0272 20.3434 18.1428 19.5347 16.872 19.6502C16.6409 19.6502 16.0633 18.9571 16.1788 18.8416C16.2944 18.495 16.7565 17.9174 17.103 17.9174C18.7204 17.6863 20.4532 17.6863 22.0706 17.6863Z" fill="#8E181B"/>
</svg>
