<svg width="76" height="14" viewBox="0 0 76 14" fill="none" xmlns="http://www.w3.org/2000/svg">
<path fill-rule="evenodd" clip-rule="evenodd" d="M28.9198 5.99345C28.3104 5.99345 27.8166 6.49356 27.8166 7.11082C27.8166 7.72808 28.3104 8.2282 28.9198 8.2282C29.5293 8.2282 30.0231 7.72808 30.0231 7.11082C30.0231 6.49356 29.5293 5.99345 28.9198 5.99345ZM73.8499 5.17344C74.5751 5.17344 75.1044 5.58344 75.4514 5.99345V4.011C74.882 3.61902 74.1969 3.46583 73.6008 3.46583C71.7725 3.46583 70.1799 4.79497 70.1799 7.07478C70.1799 9.25997 71.6257 10.6882 73.6275 10.6882C74.2058 10.6882 74.842 10.5981 75.447 10.1791V8.23721C75.1 8.59766 74.5528 8.98063 73.8455 8.98063C72.7689 8.98063 72.1195 8.16963 72.1195 7.13335C72.1239 6.01147 72.809 5.17344 73.8499 5.17344ZM70.3845 3.65957L67.8222 6.96664L70.4557 10.49H68.0936L66.1362 7.55237V10.49H64.25V3.65957H66.1407V6.52961L68.1736 3.65957H70.3845ZM58.6716 7.75962V3.65957H56.8521V10.49H58.7027L61.314 6.38993V10.49H63.1334V3.65957H61.2829L58.6716 7.75962ZM53.1999 6.73236H52.6616V5.15992H53.1999C54.0095 5.15992 54.1252 5.59696 54.1252 5.93938C54.1207 6.23675 54.0362 6.73236 53.1999 6.73236ZM53.6136 3.65957H50.771V10.49H52.6616V8.2327H53.6136C55.522 8.2327 56.0736 6.88555 56.0736 5.93938C56.0692 5.00673 55.5309 3.65957 53.6136 3.65957ZM45.1436 5.29959H46.625V10.49H48.5156V5.29959H49.997V3.65957H45.1392V5.29959H45.1436ZM39.9121 7.75962V3.65957H38.0927V10.49H39.9433L42.5546 6.38993V10.49H44.374V3.65957H42.5234L39.9121 7.75962ZM34.2848 9.12481H33.4751V7.69204H34.2848C34.8809 7.69204 35.2278 7.86776 35.2278 8.40392C35.2278 8.94909 34.872 9.12481 34.2848 9.12481ZM34.4671 6.32235H33.4751V5.29509H36.5668V3.65506H31.5845V10.4855H34.4671C34.9565 10.4855 37.1185 10.5035 37.1185 8.36787C37.114 6.31334 34.9787 6.32235 34.4671 6.32235ZM21.0148 7.07478C21.0148 9.25997 22.4606 10.6882 24.4624 10.6882C25.0407 10.6882 25.6769 10.5981 26.2863 10.1791V8.23721C25.9393 8.59766 25.3877 8.98063 24.6848 8.98063C23.6038 8.98063 22.9588 8.16963 22.9588 7.13335C22.9588 6.01147 23.6439 5.17344 24.6848 5.17344C25.4055 5.17344 25.9349 5.58344 26.2863 5.99345V4.011C25.7169 3.61902 25.0318 3.46583 24.4357 3.46583C22.6029 3.46133 21.0148 4.79046 21.0148 7.07478ZM17.0601 5.23201H18.0921V10.49H19.8359V3.65957H17.0601V5.23201Z" fill="white"/>
<path fill-rule="evenodd" clip-rule="evenodd" d="M6.77944 0.190918C6.30789 0.190918 5.84524 0.244981 5.40038 0.344093V6.62871C5.40038 7.39908 6.01873 8.02529 6.77944 8.02529C7.54014 8.02529 8.15849 7.39908 8.15849 6.62871C8.15849 5.88987 7.58906 5.28168 6.8684 5.23213V4.11036C8.19406 4.15991 9.26171 5.26816 9.26171 6.6242C9.26171 8.01177 8.14513 9.14255 6.77498 9.14255C5.40483 9.14255 4.28825 8.01177 4.28825 6.6242V0.69549C4.13255 0.763067 3.97685 0.839653 3.8256 0.916239V6.6242C3.8256 8.26856 5.15126 9.60658 6.77053 9.60658C8.39425 9.60658 9.71548 8.26856 9.71548 6.6242C9.71548 5.01137 8.44319 3.69138 6.86396 3.64183V2.52456C9.05264 2.57412 10.8232 4.39868 10.8232 6.6242C10.8232 8.88576 9.0037 10.7283 6.77498 10.7283C4.54181 10.7283 2.72237 8.88576 2.72237 6.6242V1.65958C1.31218 2.83992 0.413574 4.62394 0.413574 6.6197C0.413574 10.1742 3.25619 13.053 6.76609 13.053C10.276 13.053 13.1186 10.1697 13.1186 6.6197C13.132 3.06968 10.2893 0.190918 6.77944 0.190918Z" fill="white"/>
</svg>
