<svg width="68" height="22" viewBox="0 0 68 22" fill="none" xmlns="http://www.w3.org/2000/svg">
<path d="M32.3342 12.9644C32.3342 13.8744 32.2542 14.6628 32.0896 15.3295C31.925 15.9918 31.6403 16.5324 31.271 16.9468C30.8617 17.3613 30.3724 17.6946 29.714 17.9019C29.0601 18.1091 28.2816 18.1902 27.3385 18.1902H22.712C22.5474 18.1902 22.4673 18.1091 22.4673 17.983V7.99092C22.4673 7.82424 22.5474 7.78369 22.712 7.78369H27.3385C28.2816 7.78369 29.1001 7.86478 29.714 8.07201C30.368 8.27924 30.8617 8.56756 31.271 9.02707C31.6803 9.44152 31.925 9.98212 32.0896 10.6444C32.2497 11.3066 32.3342 12.0499 32.3342 12.9644ZM29.7941 13.005C29.7941 12.2571 29.7541 11.6805 29.6695 11.221C29.5895 10.766 29.4249 10.3921 29.2202 10.1443C29.0156 9.89652 28.7309 9.6893 28.3616 9.6037C27.9924 9.52261 27.5831 9.43702 27.0538 9.43702H24.9229V16.6089H27.0538C27.5431 16.6089 27.9969 16.5684 28.3616 16.4423C28.7309 16.3612 29.0156 16.1539 29.2202 15.9017C29.4249 15.6539 29.5895 15.28 29.6695 14.825C29.7541 14.3339 29.7941 13.7122 29.7941 13.005Z" fill="white"/>
<path d="M37.9393 12.1788C37.8993 12.2193 37.8592 12.2599 37.6947 12.2599C37.2454 12.2599 36.8761 12.2598 36.5069 12.3004C36.1777 12.3409 35.9331 12.3815 35.8129 12.3815V17.9766C35.8129 18.1028 35.7329 18.1838 35.5683 18.1838H33.7666C33.7266 18.1838 33.6866 18.1838 33.602 18.1433C33.562 18.1028 33.522 18.0622 33.522 17.9766V11.8003C33.522 11.5931 33.562 11.4264 33.6866 11.3454C33.8111 11.2643 33.9713 11.1381 34.1759 11.057C34.4206 10.9759 34.6652 10.9309 34.9944 10.8904C35.3236 10.8498 35.6483 10.8093 35.9375 10.7642C36.1421 10.7237 36.3868 10.7237 36.6315 10.6831C36.8761 10.6426 37.1208 10.6426 37.3699 10.6426H37.4945C37.5745 10.6426 37.619 10.6426 37.6591 10.6426C37.6991 10.6426 37.7391 10.6831 37.7836 10.7237C37.7836 10.7237 37.8237 10.7642 37.8637 10.8048C37.9037 10.8453 37.9037 10.8858 37.9037 10.9714V12.0076C37.9794 12.0526 37.9794 12.0977 37.9393 12.1788Z" fill="white"/>
<path d="M44.8567 17.7738C44.2829 18.1883 43.3843 18.3955 42.1564 18.3955C41.5826 18.3955 41.0532 18.355 40.6439 18.2694C40.1946 18.1883 39.8254 18.0216 39.5407 17.8144C39.256 17.6072 39.0069 17.3594 38.8868 16.9855C38.7222 16.6521 38.6421 16.1971 38.6421 15.7016V11.2237C38.6421 11.0165 38.7222 10.8903 38.9268 10.8903L40.6039 10.6426H40.684C40.8486 10.6426 40.9286 10.7237 40.9286 10.8903V15.8232C40.9286 16.1971 41.0087 16.4854 41.1733 16.6927C41.3379 16.8999 41.6627 16.981 42.1564 16.981C42.4412 16.981 42.6458 16.9404 42.8104 16.8999C42.975 16.8593 43.0951 16.7737 43.1796 16.6521C43.2597 16.526 43.3442 16.4449 43.3442 16.2782C43.3843 16.1521 43.3843 15.9899 43.3843 15.8232V11.2237C43.3843 11.0165 43.4643 10.9354 43.669 10.8903L45.3461 10.6426C45.3461 10.6426 45.3861 10.6426 45.4261 10.6426C45.5907 10.6426 45.6708 10.7237 45.6708 10.8903V15.7421C45.7197 16.6566 45.4306 17.3594 44.8567 17.7738Z" fill="white"/>
<path d="M54.3145 14.4981C54.3145 14.9937 54.2744 15.4938 54.1899 15.9488C54.1098 16.4038 53.9853 16.8183 53.7406 17.1922C53.536 17.5661 53.2068 17.8544 52.7575 18.0617C52.3482 18.2689 51.7743 18.395 51.0804 18.395C50.6711 18.395 50.3419 18.3545 49.9771 18.314C49.6479 18.2734 49.3232 18.1878 49.0785 18.1473L49.2431 19.0167V20.5485C49.2431 20.7557 49.163 20.8368 48.9584 20.8819L47.2813 21.1296H47.2012C47.0366 21.1296 46.9565 21.0485 46.9565 20.8819V12.178C46.9565 11.9708 46.9966 11.8041 47.0366 11.6824C47.0767 11.5563 47.1612 11.4347 47.2413 11.3491C47.3213 11.268 47.4058 11.1824 47.526 11.1418C47.6505 11.1013 47.7706 11.0157 47.9352 10.9751C48.4246 10.849 48.9184 10.7274 49.4477 10.6418C49.9816 10.5607 50.5109 10.5156 51.0047 10.5156C51.7432 10.5156 52.3126 10.5967 52.7664 10.804C53.2201 11.0112 53.5449 11.259 53.7495 11.6329C53.9942 11.9663 54.1187 12.3807 54.1988 12.8763C54.2744 13.4214 54.3145 13.962 54.3145 14.4981ZM51.9834 14.4576C51.9834 13.917 51.9434 13.5025 51.9033 13.1736C51.8633 12.8403 51.7788 12.633 51.6587 12.4708C51.5341 12.3042 51.414 12.2231 51.2094 12.1825C51.0448 12.142 50.8001 12.1014 50.5554 12.1014C50.3908 12.1014 50.2707 12.1014 50.1061 12.142C49.9415 12.1825 49.8214 12.1825 49.6969 12.2231C49.5323 12.2636 49.4121 12.2636 49.2876 12.3041V16.8633C49.4121 16.9039 49.4922 16.9039 49.6168 16.9444C49.7413 16.9444 49.8614 16.9849 49.986 16.9849C50.1106 16.9849 50.2707 16.9849 50.4353 16.9849C50.72 16.9849 50.9691 16.9444 51.1738 16.9039C51.3784 16.8633 51.543 16.7372 51.6631 16.5299C51.7877 16.3632 51.8678 16.1155 51.9078 15.7821C51.9389 15.4532 51.9834 14.9577 51.9834 14.4576Z" fill="white"/>
<path d="M62.0103 17.3589C61.9702 17.5256 61.8857 17.6472 61.7656 17.7733C61.641 17.8995 61.5209 17.94 61.3163 18.0211C61.1517 18.0617 60.907 18.1473 60.6624 18.1878C60.3777 18.2689 60.0885 18.3139 59.7193 18.3545C59.3901 18.395 58.9808 18.395 58.5315 18.395C58.0822 18.395 57.673 18.3545 57.2237 18.3139C56.8144 18.2734 56.4051 18.1473 56.0759 17.9806C55.7468 17.8139 55.462 17.5661 55.2574 17.2778C55.0528 16.9444 54.9282 16.53 54.9282 15.9534C54.9282 15.4984 55.0083 15.1245 55.1329 14.8767C55.2574 14.5884 55.462 14.3812 55.6667 14.255C55.8713 14.0883 56.116 14.0073 56.4051 13.9217C56.6898 13.8406 56.939 13.7955 57.2237 13.755L59.8038 13.3405V12.9666C59.8038 12.7594 59.8038 12.6333 59.7638 12.5116C59.7237 12.3855 59.6392 12.3044 59.4791 12.2233C59.2744 12.1422 58.9452 12.0972 58.4159 12.0972C58.1712 12.0972 57.9265 12.0972 57.6774 12.1377C57.4327 12.1783 57.1881 12.2188 56.939 12.2639C56.6943 12.3044 56.4897 12.345 56.3251 12.39C56.1605 12.4305 55.9959 12.4711 55.9158 12.4711C55.8758 12.4711 55.8357 12.5116 55.7912 12.5116C55.7112 12.5116 55.6266 12.4711 55.6266 12.3855L55.422 11.4305C55.422 11.4305 55.422 11.3899 55.422 11.3494C55.422 11.2683 55.422 11.2232 55.462 11.2232C55.5021 11.1827 55.5421 11.1827 55.5866 11.1421C55.6667 11.1016 55.7912 11.0611 55.9959 11.016C56.2005 10.9755 56.4452 10.8899 56.7343 10.8493C57.019 10.8088 57.3482 10.7232 57.7174 10.6827C58.0867 10.6421 58.4559 10.6016 58.8652 10.6016C59.399 10.6016 59.8483 10.6421 60.2175 10.7277C60.5867 10.8088 60.8714 10.8944 61.1161 11.016C61.4853 11.2232 61.73 11.471 61.8546 11.7638C61.9791 12.0972 62.0592 12.426 62.0592 12.8405V16.7372C62.0903 16.9895 62.0503 17.1967 62.0103 17.3589ZM59.8394 14.665L58.2424 14.9127C58.1178 14.9127 57.9577 14.9533 57.8331 14.9938C57.7085 15.0344 57.5884 15.0749 57.5039 15.1605C57.4238 15.2416 57.3393 15.3272 57.2592 15.4488C57.2192 15.575 57.1792 15.7371 57.1792 15.9444C57.1792 16.1921 57.2192 16.3994 57.3037 16.5255C57.3838 16.6922 57.5084 16.7733 57.6329 16.8589C57.7575 16.9399 57.9176 16.985 58.0822 16.985C58.2468 16.985 58.4114 17.0255 58.5716 17.0255C58.8563 17.0255 59.1054 17.0255 59.31 16.985C59.5146 16.9444 59.6792 16.9039 59.7993 16.9039V14.665H59.8394Z" fill="white"/>
<path d="M67.1706 17.8988C67.1706 17.9799 67.1706 18.0249 67.1306 18.0655C67.0905 18.106 67.0505 18.106 67.0505 18.106C66.9704 18.1465 66.8459 18.1871 66.6012 18.2321C66.3966 18.2727 66.0674 18.3132 65.6181 18.3132C64.8396 18.3132 64.3103 18.1465 63.941 17.7726C63.5718 17.3987 63.4072 16.9437 63.4072 16.322V8.15427C63.4072 8.07318 63.4072 7.98758 63.4473 7.94704C63.4873 7.90649 63.5273 7.86594 63.6519 7.86594L65.369 7.61816H65.449C65.6136 7.61816 65.6937 7.69926 65.6937 7.86594V16.1553C65.6937 16.4031 65.7738 16.5698 65.8983 16.6509C66.0229 16.7319 66.143 16.777 66.3076 16.777C66.4322 16.777 66.5122 16.777 66.5923 16.777C66.6724 16.777 66.7569 16.777 66.7969 16.7365C66.7969 16.7365 66.7969 16.7365 66.837 16.7365C66.837 16.7365 66.837 16.7365 66.877 16.7365C66.9571 16.7365 67.0416 16.777 67.0416 16.9031L67.2462 17.8582V17.8988H67.1706Z" fill="white"/>
<path d="M14.2377 4.05115C13.1745 3.38891 12.1914 3.14113 11.1682 2.43385C10.5543 2.01939 9.69577 0.983236 8.95731 0.11377C8.83275 1.52384 8.38345 2.05993 7.93415 2.4789C6.91099 3.30782 6.25706 3.51505 5.39404 4.0106C4.65558 4.38452 0.647461 6.83074 0.647461 12.052C0.647461 17.2733 4.98478 21.1296 9.81588 21.1296C14.647 21.1296 18.8197 17.5662 18.8197 12.2187C18.8197 6.87128 14.8917 4.42506 14.2377 4.05115ZM14.3623 19.2691C14.2822 19.3502 13.3391 20.0169 12.2759 20.1385C11.2127 20.2196 9.73581 20.3052 8.8372 19.4763C8.71264 19.3502 8.75713 19.1429 8.8372 19.0618C8.91728 18.9807 9.0018 18.9357 9.12191 18.9357C9.24202 18.9357 9.20198 18.9357 9.2865 18.9762C9.69577 19.3096 10.2696 19.5574 11.5775 19.5574C12.8453 19.5574 13.7484 19.1835 14.1576 18.8952C14.3222 18.769 14.4023 18.8951 14.4423 18.9357C14.4824 19.0168 14.5269 19.1024 14.3623 19.2691ZM10.8835 17.404C11.0882 17.1968 11.4574 16.8634 11.7821 16.7418C12.1113 16.6156 12.316 16.6156 12.6407 16.6156C12.9654 16.6156 13.2946 16.6156 13.5393 16.7823C13.784 16.949 13.9085 17.3229 13.9886 17.5301C14.0687 17.7374 13.9886 17.8635 13.824 17.9446C13.6994 18.0257 13.6594 17.9851 13.5393 17.7374C13.4147 17.4896 13.2946 17.1968 12.5962 17.1968C11.9022 17.1968 11.6976 17.4445 11.3284 17.7374C10.9992 18.0257 10.8791 18.1113 10.7545 17.9446C10.5944 17.7734 10.6344 17.6112 10.8835 17.404ZM16.1639 17.5662C15.4255 17.5256 13.993 15.2461 13.0944 15.201C11.9467 15.1605 9.41106 17.6473 7.44481 17.6473C6.25706 17.6473 5.88783 17.4806 5.47856 17.1923C4.86467 16.7778 4.57996 16.1156 4.57996 15.2461C4.57996 13.6693 6.05242 12.1782 7.89411 12.1782C10.2296 12.1782 11.8667 14.5433 13.05 14.4983C14.0331 14.4983 15.9549 12.507 16.8979 12.507C17.8811 12.507 18.1658 13.5432 18.1658 14.2054C18.1658 14.8677 17.9611 15.9894 17.4718 16.6922C17.0225 17.3589 16.7378 17.6112 16.1639 17.5662Z" fill="white"/>
</svg>
