<svg width="38" height="44" viewBox="0 0 38 44" fill="none" xmlns="http://www.w3.org/2000/svg">
<path d="M4.07204 18.3396C4.14767 18.4207 4.22773 18.4973 4.31671 18.5604L18.6099 29.0796C18.7166 29.1562 18.8367 29.1968 18.9613 29.1968C19.0859 29.1968 19.206 29.1562 19.3127 29.0796L33.6103 18.5604C34.0463 18.2405 34.3043 17.7269 34.3043 17.1863C34.3043 17.0106 34.2776 16.8349 34.2243 16.6637L29.2819 1.27448C29.1307 0.810462 28.7081 0.495117 28.2232 0.495117C27.7383 0.495117 27.3157 0.805957 27.1644 1.27448L24.006 11.118H13.9033L10.7449 1.27448C10.5981 0.810462 10.171 0.495117 9.6861 0.495117C9.20121 0.495117 8.77859 0.805957 8.62734 1.27448L5.6646 10.5098L5.29094 11.6766L5.11298 12.2308L3.90745 15.997L3.68945 16.6727C3.6761 16.7088 3.67165 16.7493 3.66276 16.7854C3.63162 16.9205 3.60938 17.0557 3.60938 17.1908C3.62272 17.6188 3.78733 18.0288 4.07204 18.3396ZM13.1159 12.2308L17.4799 25.827L6.99916 12.2308H13.1159ZM24.8067 12.2308H30.9234L20.4427 25.8315L24.8067 12.2308ZM6.07831 12.8389L16.1365 25.8901L4.9573 17.6639C4.90836 17.6278 4.86832 17.5828 4.83718 17.5377C4.76155 17.4386 4.71706 17.317 4.71706 17.1863C4.71706 17.1233 4.72595 17.0647 4.74375 17.0061L6.07831 12.8389ZM33.1966 17.0647C33.2055 17.1052 33.21 17.1458 33.21 17.1908C33.21 17.38 33.121 17.5557 32.9698 17.6684L21.7861 25.8946L31.8443 12.8434L33.1833 17.0106L33.1966 17.0647ZM31.2927 11.1225H25.167L28.2454 1.62138L31.2927 11.1225ZM23.6545 12.2308L18.9613 26.8632L14.2681 12.2308H23.6545ZM12.76 11.1225H6.63438L9.71279 1.62138L12.76 11.1225Z" fill="white"/>
<path d="M27.0444 35.1616C25.9857 35.1616 25.0115 35.5445 24.2507 36.1752L24.7134 36.9906C25.2517 36.6753 25.9056 36.3554 26.8487 36.3554C27.9253 36.3554 28.4013 36.914 28.4013 37.851V38.3331C28.1922 38.288 27.7607 38.2565 27.4893 38.2565C25.1894 38.2565 24.0283 39.0719 24.0283 40.7792C24.0283 42.3063 24.9536 43.0767 26.3549 43.0767C27.298 43.0767 28.2055 42.6397 28.5214 41.9279L28.7616 42.8965H29.6869V37.833C29.6869 36.2338 29.0018 35.1616 27.0444 35.1616ZM28.4013 41.1621C28.0721 41.509 27.5204 41.8559 26.7731 41.8559C25.7722 41.8559 25.3718 41.3558 25.3718 40.7071C25.3718 39.725 26.0435 39.2565 27.476 39.2565C27.7429 39.2565 28.1788 39.2881 28.4013 39.3331V41.1621Z" fill="white"/>
<path d="M34.478 35.1609C33.3036 35.1609 32.6719 35.9718 32.6719 35.9718V34.6924L32.6674 32.9985H32.0758H31.3862L31.3907 42.6571C32.0313 42.9274 32.9121 43.0806 33.8685 43.0806C36.3153 43.0806 37.4941 41.4948 37.4941 38.7558C37.4941 36.598 36.4042 35.1609 34.478 35.1609ZM33.9264 41.9003C33.4326 41.9003 33.0011 41.8417 32.6719 41.6886V37.5845V37.107C33.1212 36.7286 33.6728 36.4583 34.3757 36.4583C35.6435 36.4583 36.1373 37.3638 36.1373 38.8324C36.1329 40.9182 35.3455 41.9003 33.9264 41.9003Z" fill="white"/>
<path d="M5.05982 34.0708C6.22534 34.0708 6.9727 34.4628 7.46203 34.8547L8.02698 33.8636C7.25738 33.1788 6.22089 32.814 5.11766 32.814C2.32843 32.814 0.371094 34.5393 0.371094 38.0126C0.371094 41.6571 2.47968 43.0762 4.89523 43.0762C6.10523 43.0762 7.13283 42.7879 7.80455 42.4996L7.77786 38.6073V38.1568V37.391H4.19681V38.6163H6.4789L6.50559 41.5715C6.20754 41.7247 5.68262 41.8418 4.98421 41.8418C3.04465 41.8418 1.74567 40.6075 1.74567 38.0036C1.74567 35.3547 3.08913 34.0708 5.05982 34.0708Z" fill="white"/>
<path d="M11.043 32.9985H9.75732V34.301H11.043V32.9985Z" fill="white"/>
<path d="M11.043 35.3403H9.75732V42.8999H11.043V35.3403Z" fill="white"/>
<path d="M19.3402 32.9985H18.0234L18.0279 42.9006H23.3439V41.6752H19.3446L19.3402 32.9985Z" fill="white"/>
<path d="M14.2993 32.9985H13.0137L13.0181 34.6609V35.3411V35.7375V36.4313V40.3911V40.4046C13.0181 42.0084 13.7032 43.0806 15.6606 43.0806C15.9319 43.0806 16.1944 43.0535 16.4524 43.0085V41.8417C16.2656 41.8687 16.0698 41.8868 15.8563 41.8868C14.7798 41.8868 14.3038 41.3282 14.3038 40.3911V36.4313H16.4524V35.3411H14.3038L14.2993 32.9985Z" fill="white"/>
</svg>
