<svg width="34" height="39" viewBox="0 0 34 39" fill="none" xmlns="http://www.w3.org/2000/svg">
<path d="M0.32299 1.55287L2.80527 33.6869C2.84086 34.1689 3.16558 34.5788 3.61933 34.7275L16.6713 38.9171C16.9026 38.9892 17.1517 38.9892 17.3786 38.9171L30.4306 34.7275C30.8843 34.5833 31.2091 34.1689 31.2447 33.6869L33.7269 1.55287C33.7803 0.863613 33.242 0.273463 32.557 0.273463H1.49295C0.807881 0.268958 0.269608 0.863613 0.32299 1.55287ZM27.3656 11.5224H11.1996L11.689 16.0769H27.0141L26.0132 29.0648L17.0272 31.9524L8.04117 29.0648L7.51625 22.2803H12.2317V25.6094L17.1518 26.9474L22.0407 25.6094L22.4188 20.3071H7.36056L6.35964 7.35528H27.6859L27.3656 11.5224Z" fill="white"/>
</svg>
