<svg width="46" height="46" viewBox="0 0 46 46" fill="none" xmlns="http://www.w3.org/2000/svg">
<path d="M44.0445 1.50189V44.074H2.00594V1.50189H44.0445ZM45.379 0.150391H44.0445H2.00594H0.671387V1.50189V44.074V45.4255H2.00594H44.0445H45.379V44.074V1.50189V0.150391Z" fill="white"/>
<path fill-rule="evenodd" clip-rule="evenodd" d="M31.4595 21.2607C32.3092 20.9318 33.2256 20.8057 34.1331 20.8237C34.9472 20.8372 35.7702 20.9543 36.5353 21.2472C37.1448 21.4814 37.7142 21.8283 38.1991 22.2743C38.7418 22.7698 39.1777 23.369 39.5425 24.0087C38.5283 24.6889 37.4962 25.3421 36.4775 26.0133C36.1883 25.5043 35.8413 25.0043 35.3476 24.6799C34.8538 24.351 34.2399 24.2609 33.6571 24.315C33.1455 24.3691 32.6339 24.6168 32.3359 25.0538C32.02 25.5088 31.9845 26.1125 32.1357 26.635C32.2469 27.0224 32.5272 27.3423 32.8475 27.5766C33.2968 27.9054 33.8039 28.1352 34.3066 28.3649C35.2942 28.8019 36.2951 29.2028 37.2382 29.7299C37.99 30.1489 38.7151 30.6354 39.3112 31.2706C39.765 31.7571 40.1253 32.3337 40.3522 32.9599C40.628 33.7168 40.7125 34.5321 40.6947 35.334C40.668 36.262 40.4367 37.1945 39.9562 37.9874C39.3334 39.0325 38.3014 39.7804 37.1804 40.1948C35.7657 40.7174 34.2176 40.794 32.7363 40.6003C31.2327 40.3975 29.7646 39.7984 28.6258 38.7713C27.9541 38.1676 27.3802 37.4333 26.9932 36.6089C28.0653 35.9962 29.1285 35.3565 30.2006 34.7349C30.7211 35.5998 31.4106 36.4107 32.3492 36.8161C32.9987 37.1044 33.7238 37.1945 34.4267 37.145C35.005 37.0999 35.5922 36.9423 36.0593 36.5864C36.4063 36.3206 36.6688 35.9287 36.7355 35.4917C36.8156 34.9916 36.7133 34.451 36.4019 34.0501C36.0771 33.6357 35.6145 33.3654 35.1563 33.1266C34.2799 32.6851 33.368 32.3247 32.4782 31.9193C31.6108 31.5184 30.7656 31.0498 30.036 30.4192C29.4844 29.9416 29.0128 29.356 28.7014 28.6893C28.3144 27.8739 28.1676 26.9594 28.1721 26.0584C28.1721 25.0989 28.4212 24.1393 28.9283 23.3239C29.5022 22.3779 30.423 21.6571 31.4595 21.2607ZM20.8942 21.0489C22.2066 21.0489 23.5233 21.0489 24.8357 21.0489C24.8357 25.5674 24.8357 30.0858 24.8357 34.6042C24.8357 35.298 24.7778 35.9917 24.6177 36.6675C24.4353 37.4288 24.115 38.1631 23.6301 38.7713C22.9628 39.6272 21.9797 40.1948 20.9432 40.4606C20.1602 40.6633 19.3462 40.7264 18.541 40.6904C17.3844 40.6408 16.2188 40.33 15.2446 39.6812C14.2748 39.0461 13.5186 38.1045 13.0337 37.0459C13.7677 36.5999 14.4973 36.1494 15.2313 35.7034C15.5738 35.5007 15.903 35.2755 16.2544 35.0862C16.5836 35.6854 16.9306 36.3116 17.4822 36.7305C17.8959 37.0459 18.4298 37.163 18.9458 37.1315C19.3907 37.118 19.8577 37.0279 20.2092 36.735C20.4628 36.5278 20.6318 36.2305 20.7297 35.9151C20.8631 35.4917 20.8942 35.0457 20.8942 34.5997C20.8942 30.0903 20.8942 25.5674 20.8942 21.0489Z" fill="#323330"/>
</svg>
