<svg width="68" height="47" viewBox="0 0 68 47" fill="none" xmlns="http://www.w3.org/2000/svg">
<path fill-rule="evenodd" clip-rule="evenodd" d="M16.2317 42.614H13.6382C13.5448 38.1811 13.2957 34.0185 12.882 30.1127H12.8597L8.91388 42.614H6.93874L3.01513 30.1127H2.99289C2.70374 33.8609 2.5169 38.028 2.44127 42.614H0.0791016C0.230352 37.0369 0.612926 31.8111 1.22682 26.9277H4.43866L8.17988 38.4514H8.20212L11.9656 26.9277H15.0395C15.7112 32.6445 16.1072 37.8748 16.2317 42.614ZM27.4731 31.0408C26.4188 36.8432 25.0265 41.0553 23.296 43.6862C21.9481 45.7134 20.4756 46.7271 18.8697 46.7271C18.4426 46.7271 17.9133 46.5964 17.286 46.3351V44.9386C17.593 44.9836 17.9533 45.0107 18.3626 45.0107C19.1144 45.0107 19.7149 44.8034 20.1776 44.3845C20.7292 43.8754 21.0005 43.2988 21.0005 42.6636C21.0005 42.2266 20.787 41.3391 20.3599 39.9921L17.5129 31.0453H20.0574L22.0993 37.7351C22.5575 39.2533 22.7488 40.3165 22.6732 40.9202C23.7898 37.9018 24.5683 34.6087 25.0131 31.0453L27.4731 31.0408Z" fill="white"/>
<path fill-rule="evenodd" clip-rule="evenodd" d="M61.9801 42.6138H54.6178V26.9276H57.0956V40.6812H61.9801V42.6138ZM52.6871 42.9922L49.8401 41.5687C50.0937 41.3569 50.3339 41.1317 50.5518 40.8659C51.7618 39.4243 52.3668 37.298 52.3668 34.4779C52.3668 29.2882 50.3561 26.6934 46.3347 26.6934C44.364 26.6934 42.8248 27.3511 41.7215 28.671C40.5115 30.1126 39.9065 32.2344 39.9065 35.0365C39.9065 37.7935 40.4404 39.8163 41.5125 41.1002C42.4911 42.2624 43.968 42.8436 45.9432 42.8436C46.6816 42.8436 47.3534 42.7535 47.9717 42.5688L51.6773 44.7537L52.6871 42.9922ZM43.4654 39.4739C42.8381 38.4513 42.5267 36.8115 42.5267 34.55C42.5267 30.5991 43.71 28.626 46.0855 28.626C47.3267 28.626 48.2342 29.099 48.8169 30.0405C49.4442 31.0631 49.76 32.6894 49.76 34.9194C49.76 38.9018 48.5723 40.8929 46.2056 40.8929C44.9556 40.8929 44.0437 40.4244 43.4654 39.4739ZM38.8255 38.2666C38.8255 39.5955 38.3451 40.6857 37.3798 41.5417C36.4144 42.3931 35.1244 42.8211 33.5051 42.8211C31.9882 42.8211 30.5202 42.33 29.1011 41.3569L29.7684 40.01C30.9917 40.6316 32.0994 40.938 33.0914 40.938C34.0256 40.938 34.7551 40.7263 35.2845 40.3118C35.8139 39.8928 36.1297 39.3117 36.1297 38.5684C36.1297 37.6359 35.4892 36.8385 34.3103 36.1718C33.2249 35.5681 31.054 34.3067 31.054 34.3067C29.8751 33.4373 29.2879 32.5047 29.2879 30.9686C29.2879 29.6982 29.7283 28.671 30.6047 27.8917C31.4855 27.1078 32.6199 26.7159 34.0122 26.7159C35.4491 26.7159 36.757 27.1078 37.9358 27.8782L37.3397 29.2251C36.3344 28.7927 35.3379 28.5764 34.3592 28.5764C33.5674 28.5764 32.9535 28.7701 32.5264 29.1576C32.0949 29.545 31.8325 30.0405 31.8325 30.6442C31.8325 31.5722 32.4864 32.3786 33.6964 33.0588C34.7952 33.6625 37.0194 34.9464 37.0194 34.9464C38.225 35.8204 38.8255 36.7439 38.8255 38.2666Z" fill="white"/>
<path fill-rule="evenodd" clip-rule="evenodd" d="M65.0896 21.6748C63.5904 21.6342 62.4338 21.7874 61.4596 22.2064C61.1793 22.319 60.73 22.319 60.6944 22.6794C60.8457 22.8326 60.8635 23.0758 60.9969 23.2876C61.2194 23.666 61.6108 24.175 61.9712 24.4408C62.3626 24.7472 62.7585 25.0445 63.1678 25.3103C63.8974 25.7653 64.7203 26.0311 65.4321 26.4861C65.8458 26.7519 66.2551 27.0943 66.6688 27.3781C66.8734 27.5313 67.0024 27.7745 67.2649 27.8691V27.8106C67.1314 27.6394 67.0958 27.3916 66.9668 27.2024L66.4063 26.6528C65.8636 25.914 65.1874 25.2698 64.4623 24.7382C63.8618 24.3192 62.5539 23.7516 62.3092 23.0533L62.2692 23.0128C62.6829 22.9722 63.1678 22.8235 63.5593 22.7064C64.1954 22.5352 64.7782 22.5758 65.4277 22.4046C65.7302 22.328 66.0282 22.2334 66.3263 22.1388V21.9676C65.9882 21.6252 65.7479 21.1747 65.3921 20.8504C64.4401 20.0169 63.3902 19.2015 62.3048 18.5213C61.722 18.1429 60.9747 17.8951 60.3563 17.5752C60.1339 17.4626 59.7558 17.404 59.6268 17.2148C59.2931 16.7959 59.1019 16.2508 58.8572 15.7552C58.3145 14.7146 57.7895 13.5568 57.3224 12.4576C56.9844 11.7187 56.7797 10.9799 56.366 10.2997C54.4354 7.0786 52.3445 5.12793 49.1238 3.21331C48.4298 2.81236 47.6069 2.64567 46.7305 2.43394L45.3248 2.35736C45.0267 2.22221 44.7242 1.86181 44.4618 1.69513C43.3941 1.01487 40.6449 -0.462759 39.8575 1.4879C39.3504 2.72227 40.6049 3.9341 41.0364 4.5603C41.3567 4.99278 41.766 5.48833 41.9884 5.98388C42.1218 6.30824 42.1574 6.64612 42.2909 6.9885C42.5889 7.82192 42.8692 8.74994 43.2651 9.5293C43.4697 9.92574 43.6966 10.3447 43.9591 10.7006C44.1103 10.9123 44.3728 11.0024 44.4262 11.3448C44.1637 11.7232 44.1459 12.2909 43.9947 12.7639C43.3229 14.9038 43.5854 17.5572 44.5374 19.1295C44.8354 19.6025 45.5472 20.6476 46.4992 20.2467C47.3444 19.9043 47.1576 18.8276 47.3978 17.8771C47.4512 17.6473 47.4156 17.4986 47.5312 17.35V17.386C47.7937 17.9176 48.0562 18.4267 48.2964 18.9583C48.8791 19.8863 49.889 20.8549 50.7297 21.4946C51.179 21.837 51.5349 22.4226 52.0954 22.6343V22.5758H52.0598C51.9442 22.4046 51.7796 22.328 51.6283 22.1974C51.2902 21.855 50.9166 21.4405 50.6541 21.0621C49.8712 19.9989 49.1772 18.8231 48.5588 17.6113C48.2563 17.0211 47.9983 16.3814 47.7537 15.7913C47.6425 15.566 47.6425 15.2236 47.4512 15.1065C47.1709 15.5209 46.7572 15.8859 46.5526 16.3949C46.1967 17.2103 46.1611 18.2149 46.0276 19.2601L45.952 19.2961C45.3559 19.143 45.1468 18.5213 44.92 17.9897C44.3594 16.6427 44.266 14.4803 44.7509 12.9306C44.8799 12.5341 45.4449 11.2818 45.218 10.9033C45.1068 10.5384 44.7287 10.3357 44.524 10.0474C44.2838 9.68699 44.0169 9.23199 43.8479 8.83555C43.3986 7.77687 43.1717 6.60107 42.6912 5.53789C42.4644 5.04234 42.0729 4.53328 41.7571 4.07827C41.4012 3.5647 41.0097 3.20881 40.725 2.60064C40.6316 2.39341 40.5026 2.05103 40.6494 1.82578C40.685 1.67261 40.7606 1.61854 40.9118 1.57799C41.1521 1.37076 41.846 1.63206 42.0907 1.74919C42.7847 2.033 43.363 2.2988 43.9457 2.69524C44.2082 2.88445 44.4885 3.24484 44.8265 3.33945H45.2225C45.8186 3.47009 46.4947 3.37548 47.0552 3.54667C48.0473 3.87103 48.9459 4.34407 49.7511 4.85313C52.2022 6.42538 54.2218 8.66435 55.5875 11.3358C55.8099 11.7728 55.9078 12.1692 56.1124 12.6242C56.5084 13.5523 56.9932 14.5028 57.3847 15.4128C57.7762 16.3048 58.1543 17.2103 58.7148 17.9536C58.9951 18.3501 60.1206 18.5618 60.6232 18.769C60.9969 18.9402 61.5797 19.0889 61.9133 19.3006C62.5495 19.6971 63.1856 20.1521 63.7817 20.5891C64.0975 20.8233 65.0317 21.2964 65.0896 21.6748ZM46.0009 5.20902C46.1522 5.36219 46.3969 5.45679 46.5036 5.646C46.5971 5.78115 46.6148 5.9118 46.7305 6.04244C46.7305 6.49745 46.5971 6.79929 46.3346 6.9885L46.299 7.02453C46.1522 6.72269 46.0187 6.42087 45.8675 6.11453C45.6807 5.84873 45.4182 5.6415 45.2669 5.33516H45.2314V5.29912C45.4716 5.23605 45.7207 5.20452 45.9654 5.20452C45.9787 5.20903 45.9921 5.20902 46.0009 5.20902Z" fill="white"/>
<path fill-rule="evenodd" clip-rule="evenodd" d="M66.8743 42.614H67.2614V40.6904H66.6786L66.2026 42.0014L65.6866 40.6904H65.1261V42.614H65.4908V41.1499H65.5131L66.0514 42.614H66.3316L66.8699 41.1499V42.614H66.8743ZM63.747 42.614H64.1563V41.0193H64.6946V40.6904H63.1865V41.0148H63.747V42.614Z" fill="white"/>
</svg>
