<svg width="62" height="22" viewBox="0 0 62 22" fill="none" xmlns="http://www.w3.org/2000/svg">
<path fill-rule="evenodd" clip-rule="evenodd" d="M10.702 4.54883C12.7572 4.54883 14.2653 5.10745 15.2217 6.16614C16.1782 7.22032 16.5252 8.66645 16.2583 10.4955C16.1515 11.3289 15.9024 12.1534 15.5242 12.9553C15.1417 13.7572 14.6034 14.487 13.9005 15.1312C13.0464 15.9511 12.1256 16.4737 11.138 16.6945C10.1549 16.9152 9.12722 17.0278 8.06402 17.0278H4.92335L4.05588 21.5464H0.416992L3.68222 4.55334H10.702V4.54883ZM6.80511 7.26088L5.4394 14.3563C5.55951 14.3698 6.01769 14.3788 6.14225 14.3788C7.8149 14.3924 9.26068 14.3924 10.315 13.9193C11.4538 13.4103 12.1745 12.4597 12.5037 10.4865C12.7706 8.83314 12.4147 7.94113 11.485 7.57622C11.0712 7.41404 10.6442 7.33296 10.1237 7.27439C9.49646 7.20231 8.70017 7.25636 7.93502 7.26537C7.73484 7.27438 6.80511 7.26088 6.80511 7.26088Z" fill="#FEFEFE"/>
<path fill-rule="evenodd" clip-rule="evenodd" d="M23.1974 0.029541L22.3255 4.54811H25.5685C27.3435 4.62019 28.6781 4.91752 29.5767 5.54823C30.4753 6.17893 30.7644 7.38179 30.4397 9.14777L28.9227 17.0271H25.2571L26.7074 9.50817C26.8586 8.71979 26.7919 8.16115 26.5072 7.82778C26.2225 7.49441 25.6264 7.29619 24.7011 7.29619L21.8006 7.25565L19.9189 17.0271H16.3066L19.5763 0.0340505H23.1974V0.029541Z" fill="#FEFEFE"/>
<path fill-rule="evenodd" clip-rule="evenodd" d="M39.9423 4.54883C41.9975 4.54883 43.5055 5.10745 44.462 6.16614C45.4184 7.22032 45.7654 8.66645 45.4985 10.4955C45.3917 11.3289 45.1426 12.1534 44.7645 12.9553C44.3819 13.7572 43.8436 14.487 43.1408 15.1312C42.2866 15.9511 41.3658 16.4737 40.3782 16.6945C39.3951 16.9152 38.3675 17.0278 37.3043 17.0278H34.1636L33.2961 21.5464H29.6572L32.9224 4.55334H39.9423V4.54883ZM36.0453 7.26088L34.6796 14.3563C34.7997 14.3698 35.2579 14.3788 35.3825 14.3788C37.0552 14.3924 38.4965 14.3924 39.5552 13.9193C40.6941 13.4103 41.4147 12.4597 41.7439 10.4865C42.0108 8.83314 41.655 7.94113 40.7252 7.57622C40.3115 7.41404 39.8844 7.33296 39.3639 7.27439C38.7367 7.20231 37.9404 7.25636 37.1753 7.26537C36.9751 7.27438 36.0453 7.26088 36.0453 7.26088Z" fill="#FEFEFE"/>
<path fill-rule="evenodd" clip-rule="evenodd" d="M46.4941 2.97127V0.029541H61.4768V2.97127L51.3608 17.0222H46.8322L57.3174 2.97127H46.4941Z" fill="#FEFEFE"/>
</svg>
