<svg width="261" height="1747" fill="none" xmlns="http://www.w3.org/2000/svg"><path d="M130.86 127.81v76.5" stroke="#5E78FF" stroke-width="2"/><path d="M135.11 201.06l-4.25 4.24-4.25-4.24" stroke="#5E78FF" stroke-width="2" stroke-linecap="round"/><path d="M130.86 364.54v76.5" stroke="#5E78FF" stroke-width="2"/><path d="M135.11 437.78l-4.25 4.24-4.25-4.24" stroke="#5E78FF" stroke-width="2" stroke-linecap="round"/><path d="M130.86 762.13v76.5" stroke="#5E78FF" stroke-width="2"/><path d="M135.11 835.37l-4.25 4.24-4.25-4.24" stroke="#5E78FF" stroke-width="2" stroke-linecap="round"/><path d="M130.86 998.59v76.49" stroke="#5E78FF" stroke-width="2"/><path d="M135.11 1071.83l-4.25 4.24-4.25-4.24" stroke="#5E78FF" stroke-width="2" stroke-linecap="round"/><path d="M130.86 1234.47v76.5" stroke="#5E78FF" stroke-width="2"/><path d="M135.11 1307.71l-4.25 4.25-4.25-4.25" stroke="#5E78FF" stroke-width="2" stroke-linecap="round"/><path d="M130.86 1470.96v76.5" stroke="#5E78FF" stroke-width="2"/><path d="M135.11 1544.2l-4.25 4.24-4.25-4.24" stroke="#5E78FF" stroke-width="2" stroke-linecap="round"/><path d="M81.77 1640.56h-1.9v-8.67h-4.4v8.67H73.6v-10.12h8.18v10.12zm9.49 0h-1.73v-5.86h-1.76a20 20 0 01-.26 2.28 9.75 9.75 0 01-.42 1.62c-.16.44-.34.8-.54 1.07s-.4.48-.63.63c-.22.14-.46.24-.7.29a3.5 3.5 0 01-.71.08c-.26 0-.45-.03-.57-.07-.12-.05-.18-.11-.18-.19v-1.07h.42c.15 0 .3-.03.46-.07.15-.05.3-.15.45-.29.14-.15.28-.35.4-.62.14-.27.26-.62.37-1.06.1-.44.2-.99.29-1.62.08-.64.15-1.41.2-2.3h4.91v7.18zm6.5-3.06c-.5.02-.92.06-1.26.13-.34.06-.62.14-.82.24-.2.09-.35.21-.44.34a.74.74 0 00-.14.43c0 .3.1.52.27.65.18.13.42.19.7.19a2 2 0 00.92-.19c.27-.13.52-.32.77-.58v-1.21zm-3.96-3.12a4.24 4.24 0 012.98-1.13c.42 0 .8.07 1.12.21a2.31 2.31 0 011.36 1.45c.12.34.18.71.18 1.12v4.53h-.78a.78.78 0 01-.38-.07c-.09-.05-.16-.15-.2-.3l-.16-.52a6.4 6.4 0 01-.53.44 3.05 3.05 0 01-1.84.56c-.3 0-.59-.04-.84-.12a1.73 1.73 0 01-1.1-.98 2.12 2.12 0 01-.07-1.38c.06-.18.16-.36.3-.52.14-.16.32-.32.54-.46.22-.15.48-.27.8-.38a10.17 10.17 0 012.58-.38v-.42c0-.49-.1-.84-.31-1.07-.2-.23-.5-.35-.89-.35-.28 0-.51.03-.7.1-.18.06-.34.14-.48.22l-.39.22a.7.7 0 01-.38.1.52.52 0 01-.3-.09.84.84 0 01-.2-.23l-.31-.55zm14.53-1v7.18h-1.73v-3.18h-2.8v3.18h-1.73v-7.18h1.73v2.72h2.8v-2.72h1.73zm9.17 0v7.18h-1.73v-4.19a4.76 4.76 0 01.06-.74c-.1.21-.2.4-.3.56l-.15.2-.33.45-.44.64-.52.72-1.37 1.94c-.07.1-.16.19-.26.29a.53.53 0 01-.36.14h-1.06v-7.18h1.73v4.19c0 .11 0 .23-.02.36 0 .12-.02.25-.04.38a3.75 3.75 0 01.44-.75l.32-.46.46-.63.5-.73 1.4-1.94c.06-.11.15-.2.25-.29.11-.09.23-.14.37-.14h1.05zm9.16 0v7.18h-1.73v-4.19a4.76 4.76 0 01.06-.74c-.09.21-.2.4-.3.56l-.14.2-.33.45-.45.64-.51.72-1.38 1.94c-.07.1-.15.19-.26.29a.53.53 0 01-.36.14h-1.06v-7.18h1.73v4.19c0 .11 0 .23-.02.36 0 .12-.02.25-.04.38a3.75 3.75 0 01.44-.75l.32-.46.46-.63.51-.73 1.39-1.94c.06-.11.15-.2.26-.29.1-.09.22-.14.36-.14h1.05zm4.44 5.32c.2.24.4.41.63.5a1.9 1.9 0 001.47 0c.2-.09.38-.24.53-.44.15-.21.26-.46.34-.76.08-.31.12-.67.12-1.09 0-.42-.03-.77-.1-1.06a2.02 2.02 0 00-.3-.71 1.06 1.06 0 00-.45-.4 1.76 1.76 0 00-1.53.1c-.25.15-.49.36-.71.64v3.22zm-.1-4.34c.3-.33.63-.6 1-.81a2.75 2.75 0 012.4-.06c.32.16.6.4.83.72.24.3.42.69.55 1.14a5.74 5.74 0 01-.02 3.06c-.15.45-.35.85-.62 1.19-.27.33-.6.59-.98.79a2.93 2.93 0 01-2.3.09 2.42 2.42 0 01-.76-.51v2.94h-1.73v-9.53h1.06c.22 0 .37.1.44.31l.14.67zm10.49-1.09c.53 0 1.01.08 1.45.26a3.06 3.06 0 011.84 1.89c.17.46.25.97.25 1.54 0 .57-.08 1.08-.25 1.54a3.21 3.21 0 01-1.84 1.91c-.44.17-.92.26-1.45.26-.54 0-1.03-.09-1.46-.26a3.29 3.29 0 01-1.13-.74c-.3-.33-.55-.72-.72-1.17a4.45 4.45 0 01-.25-1.54c0-.57.08-1.08.25-1.54a3.13 3.13 0 011.85-1.89c.44-.18.92-.26 1.46-.26zm0 6.07c.6 0 1.04-.2 1.32-.61a3 3 0 00.44-1.76c0-.77-.15-1.36-.44-1.77-.28-.41-.72-.61-1.32-.61-.6 0-1.06.21-1.35.62a3 3 0 00-.44 1.76 3 3 0 00.44 1.76c.3.41.74.61 1.35.61zm8.8.04c.36 0 .64-.09.85-.27a.9.9 0 00.33-.73c0-.13-.02-.25-.06-.36a.61.61 0 00-.18-.3 1 1 0 00-.37-.2 2.22 2.22 0 00-.57-.07h-1.3v1.93h1.3zm-1.3-4.87v1.88h1.14c.17 0 .32-.02.46-.07s.26-.12.37-.21c.1-.09.18-.2.23-.32.06-.13.09-.27.09-.42 0-.1-.02-.21-.06-.31a.65.65 0 00-.19-.28c-.09-.08-.2-.15-.35-.2a1.7 1.7 0 00-.55-.07H149zm1.19-1.13c.45 0 .84.04 1.17.13.33.09.6.21.82.37.21.15.37.33.47.55.1.21.16.44.16.69a2 2 0 01-.07.48c-.03.16-.1.32-.2.47-.1.16-.24.3-.41.42-.18.13-.4.23-.66.3a2.6 2.6 0 011.15.56c.14.13.25.29.33.48a1.83 1.83 0 01-.11 1.56c-.16.27-.36.49-.62.66-.25.17-.54.3-.88.39-.33.08-.68.12-1.04.12h-2.94v-7.18h2.83zm9 4.12c-.5.02-.91.06-1.25.13-.35.06-.62.14-.82.24-.2.09-.36.21-.45.34a.74.74 0 00-.13.43c0 .3.1.52.27.65.18.13.42.19.7.19a2 2 0 00.92-.19c.26-.13.52-.32.77-.58v-1.21zm-3.96-3.12a4.24 4.24 0 012.99-1.13c.41 0 .8.07 1.12.21a2.3 2.3 0 011.36 1.45c.12.34.18.71.18 1.12v4.53h-.78a.79.79 0 01-.38-.07c-.09-.05-.16-.15-.21-.3l-.15-.52c-.19.17-.36.31-.54.44a3.04 3.04 0 01-1.84.56c-.3 0-.58-.04-.84-.12a1.73 1.73 0 01-1.1-.98 2.12 2.12 0 01-.06-1.38c.06-.18.16-.36.3-.52.13-.16.31-.32.53-.46.22-.15.5-.27.8-.38a10.18 10.18 0 012.58-.38v-.42c0-.49-.1-.84-.3-1.07-.2-.23-.5-.35-.9-.35-.27 0-.5.03-.7.1-.17.06-.34.14-.47.22l-.39.22a.7.7 0 01-.38.1.52.52 0 01-.3-.09.83.83 0 01-.2-.23l-.32-.55zm14.54-1v7.18h-1.73v-3.18h-2.8v3.18h-1.73v-7.18h1.73v2.72h2.8v-2.72h1.73zm9.17 0v7.18h-1.73v-4.19a4.76 4.76 0 01.06-.74c-.1.21-.2.4-.3.56l-.15.2-.33.45-.45.64-.5.72-1.39 1.94c-.06.1-.15.19-.25.29a.53.53 0 01-.36.14h-1.06v-7.18h1.73v4.19c0 .11 0 .23-.02.36l-.04.38a3.66 3.66 0 01.44-.75l.32-.46.45-.63.52-.73 1.38-1.94c.07-.11.15-.2.26-.29.1-.09.23-.14.37-.14h1.05zm7.33 2.76a2 2 0 00-.1-.63c-.06-.2-.15-.37-.28-.52a1.23 1.23 0 00-.48-.35c-.2-.09-.42-.13-.67-.13-.5 0-.9.14-1.19.42-.28.29-.46.69-.54 1.21h3.26zm-3.3 1.05c.03.37.1.69.2.96.1.26.24.48.4.66.17.17.37.3.6.39.23.09.49.13.77.13s.52-.03.72-.1c.2-.06.38-.14.53-.22l.4-.21c.12-.07.23-.1.34-.1.14 0 .25.05.32.16l.5.63a3.25 3.25 0 01-2.19 1.12 3.97 3.97 0 01-2.17-.19 3.23 3.23 0 01-1.87-1.94 4.65 4.65 0 01-.03-3.04 3.17 3.17 0 011.76-1.89c.43-.19.92-.28 1.45-.28.46 0 .87.07 1.25.21a2.78 2.78 0 011.64 1.66c.16.4.23.86.23 1.38 0 .26-.02.44-.08.53-.06.09-.16.14-.32.14h-4.45zm-74.26 13.97c.27-.27.6-.48 1.01-.64.4-.17.88-.25 1.44-.25.45 0 .84.05 1.18.16.35.1.64.24.87.43.24.17.42.38.54.61a1.48 1.48 0 01.13 1.15 1.58 1.58 0 01-.55.82 2.2 2.2 0 01-.56.3c.4.15.7.37.95.66.24.29.36.64.36 1.07 0 .35-.08.66-.24.93-.16.27-.38.5-.64.69a3.73 3.73 0 01-3.35.33 3.32 3.32 0 01-1.32-.93l.5-.63c.07-.11.17-.16.31-.16.11 0 .21.03.31.1l.34.23c.13.08.28.15.46.22s.4.1.66.1c.44 0 .77-.1.99-.29.22-.2.34-.44.34-.74a.8.8 0 00-.35-.68c-.23-.16-.6-.24-1.12-.24h-.82v-1.13h.82c.45 0 .8-.08 1.04-.24.24-.16.36-.37.36-.63 0-.24-.1-.43-.32-.59a1.6 1.6 0 00-.94-.23 2.28 2.28 0 00-1.07.25c-.13.05-.23.11-.31.16a.48.48 0 01-.24.08.43.43 0 01-.2-.05.6.6 0 01-.19-.2l-.39-.66zm11.52 3.34c-.5.02-.92.06-1.26.13-.34.06-.61.14-.82.24-.2.09-.35.21-.44.34a.74.74 0 00-.13.43c0 .3.09.52.26.65.18.13.42.19.7.19a2 2 0 00.93-.19c.26-.13.51-.32.76-.58v-1.21zm-3.96-3.12a4.24 4.24 0 012.98-1.13c.42 0 .8.07 1.13.21a2.3 2.3 0 011.36 1.45c.12.34.18.71.18 1.12v4.53h-.79a.79.79 0 01-.38-.07c-.08-.05-.15-.15-.2-.3l-.16-.52c-.18.17-.36.31-.53.44a3.01 3.01 0 01-1.14.49 3.04 3.04 0 01-1.54-.05 1.74 1.74 0 01-1.1-.98 2.13 2.13 0 01-.06-1.38c.06-.18.15-.36.29-.52.14-.16.32-.32.54-.46.22-.15.49-.27.8-.38a10.18 10.18 0 012.58-.38v-.42c0-.49-.1-.84-.3-1.07-.21-.23-.51-.35-.9-.35-.28 0-.51.03-.7.1-.18.06-.34.14-.48.22l-.39.22a.7.7 0 01-.37.1.52.52 0 01-.31-.09.85.85 0 01-.2-.23l-.31-.55zm13.06 4.95v-4.63h-1.76c-.05.6-.1 1.15-.18 1.63-.07.48-.15.91-.24 1.29a7.62 7.62 0 01-.66 1.71h2.84zm3-.05v3.17c0 .16-.05.29-.14.38a.47.47 0 01-.35.14h-1.08v-2.41h-5.38v1.92c0 .12-.04.23-.11.34-.08.1-.2.15-.36.15h-1.1v-3.64h.21c.16 0 .32-.02.48-.06.15-.05.3-.14.44-.28s.28-.34.4-.61c.13-.26.25-.61.35-1.05.1-.45.2-.99.27-1.63.08-.65.14-1.42.19-2.32H131v5.9h1.32zm5.88-1.78c-.5.02-.92.06-1.26.13-.34.06-.61.14-.82.24a1 1 0 00-.44.34.74.74 0 00-.13.43c0 .3.09.52.26.65.19.13.42.19.71.19.36 0 .66-.06.92-.19s.51-.32.76-.58v-1.21zm-3.96-3.12a4.24 4.24 0 012.98-1.13c.42 0 .8.07 1.13.21a2.32 2.32 0 011.36 1.45c.12.34.18.71.18 1.12v4.53h-.78a.78.78 0 01-.38-.07c-.1-.05-.16-.15-.21-.3l-.16-.52a6.5 6.5 0 01-.53.44 3.08 3.08 0 01-1.84.56c-.3 0-.58-.04-.84-.12a1.73 1.73 0 01-1.1-.98 2.12 2.12 0 01-.06-1.38c.06-.18.16-.36.3-.52.13-.16.31-.32.53-.46.22-.15.49-.27.8-.38a10.17 10.17 0 012.58-.38v-.42c0-.49-.1-.84-.3-1.07-.21-.23-.5-.35-.9-.35-.28 0-.5.03-.7.1-.18.06-.34.14-.48.22l-.38.22a.7.7 0 01-.38.1.51.51 0 01-.3-.09.83.83 0 01-.21-.23l-.31-.55zm13.95-1v7.18h-1.73v-2.82c-.62.15-1.19.24-1.72.26-.52.02-.98-.05-1.37-.19a1.88 1.88 0 01-.9-.72 2.39 2.39 0 01-.32-1.32v-2.39h1.72v2.12c0 .29.05.53.14.71.1.18.25.31.46.39.21.08.48.11.8.1a9.2 9.2 0 001.19-.16v-3.16h1.73zm-64.63 17v7.18h-1.73v-3.18h-2.8v3.18H77.3v-7.18h1.73v2.72h2.8v-2.72h1.73zm6.5 4.12c-.5.02-.91.06-1.25.13-.34.06-.62.14-.82.24-.2.09-.36.21-.44.34a.74.74 0 00-.14.43c0 .3.1.52.27.65.18.13.42.19.7.19a2 2 0 00.92-.19c.26-.13.52-.32.77-.58v-1.21zm-3.96-3.12a4.24 4.24 0 012.99-1.13c.42 0 .8.07 1.12.21a2.3 2.3 0 011.36 1.45c.12.34.18.71.18 1.12v4.53h-.78a.78.78 0 01-.38-.07c-.09-.05-.16-.15-.2-.3l-.16-.52c-.19.17-.36.31-.54.44a3.04 3.04 0 01-1.84.56c-.3 0-.58-.04-.84-.12a1.73 1.73 0 01-1.1-.98 2.12 2.12 0 01-.06-1.38c.06-.18.16-.36.3-.52.14-.16.32-.32.53-.46.22-.15.5-.27.81-.38a10.18 10.18 0 012.58-.38v-.42c0-.49-.1-.84-.31-1.07-.2-.23-.5-.35-.9-.35-.27 0-.5.03-.7.1-.17.06-.33.14-.47.22l-.39.22a.7.7 0 01-.38.1.52.52 0 01-.3-.09.84.84 0 01-.2-.23l-.32-.55zm17.83.52l-.15.15c-.05.04-.12.06-.21.06a.5.5 0 01-.26-.08l-.3-.18a1.9 1.9 0 00-.42-.18 1.7 1.7 0 00-.6-.09c-.3 0-.57.06-.8.17a1.5 1.5 0 00-.57.47c-.15.21-.26.46-.34.75-.07.29-.1.62-.1.99 0 .38.03.72.11 1.02.08.3.2.55.36.75.15.2.34.36.56.47.22.1.46.15.74.15a1.77 1.77 0 001.1-.32l.3-.23c.09-.07.19-.1.3-.1.13 0 .24.05.3.16l.5.63c-.19.22-.4.41-.62.57a3.36 3.36 0 01-1.44.55c-.25.04-.5.06-.75.06a3 3 0 01-2.28-.98 3.4 3.4 0 01-.7-1.16 4.58 4.58 0 01-.26-1.57c0-.53.08-1.02.22-1.47.16-.45.38-.84.68-1.17.3-.33.65-.59 1.09-.77a3.7 3.7 0 011.5-.28 3.42 3.42 0 012.5 1l-.46.63zm9.27 5.66h-1.73v-5.86h-1.76c-.06.88-.14 1.64-.26 2.28a9.61 9.61 0 01-.42 1.62c-.16.44-.34.8-.54 1.07s-.4.48-.63.63c-.22.14-.45.24-.7.29a3.5 3.5 0 01-.71.08 1.9 1.9 0 01-.57-.07c-.11-.05-.17-.11-.17-.19v-1.07h.4c.16 0 .32-.03.47-.07.16-.05.3-.15.45-.29.14-.15.28-.35.41-.62.13-.27.25-.62.36-1.06.11-.44.2-.99.3-1.62.08-.64.14-1.41.19-2.3h4.91v7.18zm7.33-4.42c0-.22-.03-.43-.1-.63-.06-.2-.15-.37-.27-.52a1.23 1.23 0 00-.49-.35c-.19-.09-.41-.13-.67-.13-.5 0-.9.14-1.18.42-.29.29-.47.69-.55 1.21h3.26zm-3.3 1.05c.03.37.1.69.2.96.1.26.24.48.4.66.18.17.38.3.6.39.24.09.5.13.77.13.28 0 .52-.03.72-.1.21-.06.39-.14.54-.22l.4-.21c.11-.07.22-.1.33-.1.15 0 .25.05.32.16l.5.63a3.28 3.28 0 01-2.18 1.12 3.96 3.96 0 01-2.17-.19 3.21 3.21 0 01-1.87-1.94 4.65 4.65 0 01-.04-3.04 3.15 3.15 0 011.76-1.89c.44-.19.92-.28 1.46-.28.45 0 .87.07 1.25.21a2.8 2.8 0 011.63 1.66c.16.4.24.86.24 1.38 0 .26-.03.44-.09.53-.05.09-.16.14-.32.14h-4.44zm11.92 2.14v-4.63h-1.77c-.05.6-.1 1.15-.17 1.63s-.15.91-.25 1.29a7.62 7.62 0 01-.66 1.71h2.85zm3-.05v3.17c0 .16-.06.29-.15.38a.47.47 0 01-.35.14h-1.08v-2.41h-5.37v1.92c0 .12-.04.23-.12.34-.08.1-.2.15-.36.15h-1.09v-3.64h.2c.17 0 .33-.02.48-.06.15-.05.3-.14.44-.28s.28-.34.4-.61c.14-.26.25-.61.36-1.05.1-.45.19-.99.26-1.63.08-.65.14-1.42.2-2.32h4.86v5.9h1.31zm8.22-5.9l-3.91 9.16a.62.62 0 01-.2.27c-.08.06-.2.1-.38.1h-1.28l1.34-2.89-2.9-6.64h1.52c.13 0 .23.03.31.1.08.06.14.14.17.22l1.53 3.73a14.08 14.08 0 01.23.76l.13-.39.14-.38 1.44-3.72c.04-.09.1-.17.18-.23a.51.51 0 01.3-.09h1.38zm8.35 5.96c.56 0 .97-.2 1.24-.61.26-.4.4-.99.4-1.76s-.14-1.36-.4-1.77c-.27-.41-.68-.61-1.24-.61-.56 0-.97.21-1.24.62-.26.4-.4.99-.4 1.76s.13 1.36.4 1.76c.26.41.68.61 1.24.61zm-3.33-3.03c.05-.48.17-.9.35-1.27a2.98 2.98 0 011.7-1.56c.39-.14.81-.21 1.28-.21.52 0 .99.08 1.4.26.43.17.79.41 1.09.73.3.32.52.71.69 1.16.16.46.24.97.24 1.54 0 .57-.08 1.08-.25 1.54-.17.45-.4.84-.7 1.17-.31.32-.67.56-1.1.74a3.89 3.89 0 01-2.7.04 3 3 0 01-1-.62c-.27-.27-.5-.6-.68-.99a4.14 4.14 0 01-.33-1.31h-1.42v3.03h-1.73v-7.18h1.73v2.93h1.43zm20.31 2.97v3.17a.5.5 0 01-.14.38.47.47 0 01-.35.14h-1.07v-2.41h-9.68v-7.18h1.72v5.9h2.38v-5.9h1.73v5.9h2.37v-5.9h1.73v5.9h1.31zm8.56-5.9v7.18h-1.73v-4.19a4.76 4.76 0 01.06-.74c-.1.21-.2.4-.3.56l-.15.2-.33.45-.45.64-.5.72-1.39 1.94c-.06.1-.15.19-.25.29a.53.53 0 01-.36.14h-1.06v-7.18h1.73v4.19c0 .11 0 .23-.02.36l-.04.38a3.66 3.66 0 01.44-.75l.32-.46.46-.63.5-.73 1.4-1.94c.06-.11.14-.2.25-.29.1-.09.23-.14.37-.14h1.04zm9.16 0v7.18h-1.73v-4.19a4.76 4.76 0 01.06-.74c-.1.21-.2.4-.3.56l-.15.2-.33.45-.44.64-.52.72-1.37 1.94c-.07.1-.15.19-.26.29a.53.53 0 01-.36.14h-1.06v-7.18h1.73v4.19c0 .11 0 .23-.02.36 0 .12-.02.25-.04.38a3.75 3.75 0 01.44-.75l.32-.46.46-.63.5-.73 1.4-1.94c.06-.11.15-.2.25-.29.11-.09.23-.14.37-.14h1.05zm-3.13-1.82c.17 0 .32-.02.43-.06a.5.5 0 00.28-.18c.07-.09.12-.2.15-.35.03-.14.04-.32.04-.53h1.02c.13 0 .21.05.27.15.06.1.09.21.09.33a1.3 1.3 0 01-.62 1.14c-.2.13-.44.24-.72.31a3.86 3.86 0 01-1.88 0 2.39 2.39 0 01-.72-.31 1.31 1.31 0 01-.62-1.14c0-.12.02-.23.08-.33a.3.3 0 01.27-.15h1.02c0 .21.02.39.05.53.03.15.07.26.14.35a.5.5 0 00.28.18c.11.04.26.06.44.06zM118 1684.37v7.19h-1.56v-4a8.36 8.36 0 01.1-1.13l-2.1 3.88c-.1.2-.27.3-.5.3h-.18a.51.51 0 01-.49-.3l-2.14-3.9a6.77 6.77 0 01.11 1.15v4h-1.56v-7.19h1.43a.9.9 0 01.36.07c.12.05.22.16.3.31l1.7 3.02.2.45c.07.16.13.31.18.47a10.26 10.26 0 01.39-.92l1.68-3.02a.63.63 0 01.3-.31.89.89 0 01.36-.07H118zm7.34 2.77c0-.22-.03-.43-.1-.63-.06-.2-.15-.37-.28-.52a1.23 1.23 0 00-.48-.35c-.19-.09-.41-.13-.67-.13-.5 0-.9.14-1.18.42-.29.29-.47.69-.55 1.21h3.26zm-3.3 1.05c.03.37.1.69.2.96.1.26.24.48.4.66.18.17.37.3.6.39.24.09.5.13.77.13a2.77 2.77 0 001.25-.32l.4-.21c.12-.07.23-.1.34-.1.15 0 .25.05.32.16l.5.63a3.25 3.25 0 01-2.18 1.12 3.96 3.96 0 01-2.17-.19 3.22 3.22 0 01-1.87-1.94 4.65 4.65 0 01-.04-3.04 3.16 3.16 0 011.76-1.89c.44-.19.92-.28 1.45-.28.46 0 .88.07 1.26.21a2.78 2.78 0 011.63 1.66c.16.4.24.86.24 1.38 0 .26-.03.44-.09.53-.05.09-.16.14-.32.14h-4.44zm12.3-2.29c-.05.06-.1.11-.16.15-.04.04-.11.06-.2.06a.5.5 0 01-.26-.08l-.3-.18a1.87 1.87 0 00-.43-.18 1.7 1.7 0 00-.59-.09c-.3 0-.57.06-.8.17a1.5 1.5 0 00-.57.47c-.15.21-.26.46-.34.75-.07.29-.11.62-.11.99 0 .38.04.72.12 1.02.08.3.2.55.36.75.15.2.34.36.56.47.22.1.46.15.74.15a1.76 1.76 0 001.1-.32l.3-.23c.09-.07.19-.1.3-.1.13 0 .24.05.3.16l.5.63c-.19.22-.4.41-.62.57a3.34 3.34 0 01-1.44.55c-.25.04-.5.06-.76.06a3 3 0 01-2.28-.98 3.4 3.4 0 01-.7-1.16 4.58 4.58 0 01-.25-1.57c0-.53.07-1.02.22-1.47.16-.45.38-.84.68-1.17.29-.33.65-.59 1.09-.77a3.7 3.7 0 011.5-.28 3.41 3.41 0 012.5 1l-.46.63zm6.35 1.71v-2.1h-.94c-.21 0-.4.03-.54.09-.15.06-.26.15-.36.25a.88.88 0 00-.19.34c-.03.12-.05.24-.05.37 0 .33.1.59.33.77.22.19.52.28.9.28h.85zm1.65-3.23v7.18h-1.65v-2.88h-.3c-.14 0-.25.01-.35.04a.78.78 0 00-.23.1.8.8 0 00-.16.17l-.13.21-1.15 1.77-.18.26a1.04 1.04 0 01-.5.3c-.11.02-.24.03-.4.03h-1.2l1.82-2.53c.1-.18.21-.32.34-.43.13-.11.28-.19.46-.26a2.83 2.83 0 01-.86-.28 2.04 2.04 0 01-.57-.45 1.64 1.64 0 01-.31-.55c-.07-.2-.1-.39-.1-.58a1.88 1.88 0 01.66-1.45c.23-.2.52-.35.88-.47s.8-.18 1.3-.18h2.63zm10.3 5.9v3.17c0 .16-.05.29-.14.38a.5.5 0 01-.36.14h-1.08v-2.41h-6v-7.18h1.73v5.9h2.8v-5.9h1.73v5.9h1.32z" fill="#5E78FF"/><path d="M130.86 1577.48a84.25 84.25 0 1028.97 5.12" stroke="#5E78FF" stroke-width="2" stroke-dasharray="5.5 5.5"/><path d="M130.18 1574.57l2.9 2.91-2.91 2.91" stroke="#5E78FF" stroke-width="2" stroke-linecap="round"/><circle cx="130.86" cy="49.72" r="48.49" stroke="#5E78FF" stroke-width="2"/><path d="M115.72 43.41c0 .64-.1 1.23-.32 1.77a4.12 4.12 0 01-4.07 2.67c-.66 0-1.26-.11-1.8-.33a4.15 4.15 0 01-2.28-2.34 4.83 4.83 0 01-.32-1.77c0-.63.1-1.22.32-1.76a4.08 4.08 0 012.29-2.33 4.78 4.78 0 014.1.25 4 4 0 011.94 2.63c.09.38.14.79.14 1.21zm-1.65 0c0-.47-.07-.9-.2-1.28-.12-.38-.3-.7-.54-.96a2.33 2.33 0 00-.86-.6 2.94 2.94 0 00-1.14-.22c-.43 0-.81.07-1.15.21a2.4 2.4 0 00-1.41 1.57c-.13.38-.2.8-.2 1.28s.07.9.2 1.29a2.43 2.43 0 001.41 1.56c.34.14.72.2 1.15.2.42 0 .8-.06 1.14-.2.34-.14.62-.34.86-.6.24-.27.42-.59.55-.96a4 4 0 00.19-1.29zm10.22 3.24v2.72c0 .14-.04.24-.12.32a.41.41 0 01-.3.12h-.93v-2.06h-5.14V41.6h1.48v5.06h2.4V41.6h1.48v5.06h1.13zm5.8-2.69c0-.19-.03-.37-.09-.54a1.25 1.25 0 00-.24-.45 1.1 1.1 0 00-.41-.3 1.36 1.36 0 00-.58-.11c-.43 0-.76.12-1.01.37-.25.24-.4.59-.47 1.03h2.8zm-2.83.9c.02.31.08.59.17.82.09.23.2.42.35.57.14.15.31.26.5.34.2.07.43.1.67.1a2 2 0 00.62-.08 7.55 7.55 0 00.8-.37c.1-.06.19-.09.28-.09.13 0 .22.05.28.14l.42.54a2.54 2.54 0 01-1.2.8 4.79 4.79 0 01-1.34.21c-.42 0-.82-.07-1.19-.2a2.73 2.73 0 01-1.6-1.67 4.02 4.02 0 01-.03-2.61 2.77 2.77 0 011.51-1.62c.37-.16.78-.24 1.24-.24.4 0 .75.06 1.08.18a2.32 2.32 0 011.4 1.43c.13.34.2.73.2 1.18 0 .22-.02.37-.07.45-.05.08-.14.12-.28.12h-3.8zm11.64-3.27v6.16h-1.49v-2.72h-2.4v2.72h-1.48V41.6h1.48v2.34h2.4v-2.34h1.49zm6.14.4a.83.83 0 01.7-.4h1.16l-1.44 2.29c-.1.16-.2.29-.3.39-.1.1-.23.17-.38.23.2.06.36.15.49.27.13.11.24.26.35.44l1.44 2.54h-1.03c-.26 0-.46-.04-.6-.13a1.1 1.1 0 01-.37-.38l-.9-1.7a.8.8 0 00-.76-.44h-.56v2.65h-1.48V41.6h1.48v2.54h.48c.17 0 .3-.03.4-.09.11-.06.2-.16.27-.29l1.05-1.77zm7.09 3.13a7.8 7.8 0 00-1.08.12c-.3.05-.53.12-.7.2a.92.92 0 00-.38.3.64.64 0 00-.11.36c0 .26.07.45.22.56.16.11.36.17.61.17.3 0 .57-.06.79-.17.22-.1.44-.28.65-.5v-1.04zm-3.4-2.67c.71-.65 1.56-.97 2.56-.97.36 0 .68.06.97.18a1.99 1.99 0 011.16 1.24c.1.3.16.61.16.96v3.9h-.68a.7.7 0 01-.32-.07c-.08-.04-.14-.13-.18-.26l-.13-.44-.46.37a2.8 2.8 0 01-.98.43 2.77 2.77 0 01-1.32-.05 1.62 1.62 0 01-.57-.31 1.41 1.41 0 01-.37-.53 1.85 1.85 0 01-.05-1.18c.05-.16.13-.3.25-.45.12-.14.27-.27.46-.4a3 3 0 01.7-.32 9.19 9.19 0 012.2-.33v-.36c0-.41-.09-.71-.26-.91-.18-.2-.43-.3-.77-.3a1.84 1.84 0 00-1.01.28l-.33.18c-.1.06-.2.09-.32.09-.1 0-.2-.03-.27-.08a.72.72 0 01-.17-.2l-.27-.47zm-37.6 19.3h-1.5v-5.06h-2.4v5.06h-1.47V55.6h5.36v6.16zm3.94-1.6c.17.2.35.35.55.44a1.66 1.66 0 001.25 0c.18-.09.33-.22.46-.39s.22-.39.3-.65c.06-.26.1-.57.1-.93 0-.36-.04-.66-.1-.9a1.73 1.73 0 00-.24-.62.98.98 0 00-.4-.34 1.2 1.2 0 00-.52-.1c-.3 0-.57.06-.79.19-.21.13-.42.3-.6.54v2.76zm-.08-3.72c.26-.28.54-.51.86-.69a2.3 2.3 0 012.05-.05c.28.14.52.34.72.61.2.27.36.6.46.99a4.84 4.84 0 01-.01 2.61c-.13.4-.3.73-.54 1.02-.22.3-.5.52-.83.68-.33.16-.69.24-1.1.24-.34 0-.63-.05-.88-.16a2.2 2.2 0 01-.65-.44v2.52h-1.48v-8.17h.9c.2 0 .32.1.38.27l.12.57zm9.13-.93c.46 0 .87.07 1.24.22a2.7 2.7 0 011.58 1.63c.15.39.22.83.22 1.31 0 .49-.07.93-.22 1.32-.14.4-.35.73-.62 1-.26.28-.58.5-.96.64-.37.15-.78.22-1.24.22a3.4 3.4 0 01-1.25-.22 2.71 2.71 0 01-1.59-1.64 3.8 3.8 0 01-.21-1.32c0-.48.07-.92.21-1.31a2.75 2.75 0 011.58-1.63c.38-.15.8-.22 1.26-.22zm0 5.2c.51 0 .9-.17 1.14-.52.24-.34.37-.84.37-1.5a2.6 2.6 0 00-.37-1.53c-.25-.34-.63-.52-1.14-.52-.52 0-.9.18-1.16.53-.24.35-.37.85-.37 1.51s.13 1.17.37 1.51c.26.35.64.52 1.16.52zm9.13-2.74c0-.19-.02-.37-.08-.54a1.25 1.25 0 00-.24-.45 1.1 1.1 0 00-.41-.3 1.36 1.36 0 00-.58-.11c-.43 0-.76.12-1.01.37-.25.24-.4.59-.47 1.03h2.8zm-2.82.9c.02.31.08.59.17.82a1.42 1.42 0 00.86.9c.2.08.41.11.66.11a2 2 0 00.61-.08 7.55 7.55 0 00.8-.37c.1-.06.2-.09.29-.09.12 0 .22.05.28.14l.42.54a2.54 2.54 0 01-1.2.8 4.79 4.79 0 01-1.34.21c-.43 0-.82-.07-1.2-.2a2.73 2.73 0 01-1.6-1.67 4.02 4.02 0 01-.02-2.61 2.77 2.77 0 011.51-1.62c.37-.16.78-.24 1.24-.24.39 0 .75.06 1.08.18a2.32 2.32 0 011.4 1.43c.13.34.2.73.2 1.18 0 .22-.03.37-.08.45-.04.08-.13.12-.27.12h-3.81zm9.95-2.88a.83.83 0 01.69-.39h1.16l-1.43 2.29c-.1.16-.2.29-.3.39-.11.1-.24.17-.39.23.2.06.37.15.5.27.12.11.24.26.34.44l1.44 2.54h-1.02c-.26 0-.47-.04-.6-.13a1.1 1.1 0 01-.38-.38l-.9-1.7a.8.8 0 00-.75-.44h-.56v2.65h-1.48V55.6h1.48v2.54h.48c.17 0 .3-.03.4-.09.1-.06.2-.16.27-.29l1.05-1.77zm9.11.71h-2.2v5.06h-1.47v-5.06h-2.2v-1.1h5.87v1.1zm5.1 2.43a7.8 7.8 0 00-1.09.12c-.29.05-.52.12-.7.2a.92.92 0 00-.38.3.64.64 0 00-.11.36c0 .26.07.45.23.56.15.11.36.17.6.17.3 0 .57-.06.79-.17.22-.1.44-.28.65-.5v-1.04zm-3.4-2.67c.7-.65 1.56-.97 2.55-.97.36 0 .69.06.97.18a1.99 1.99 0 011.16 1.24c.1.3.16.61.16.96v3.9h-.67a.7.7 0 01-.33-.07c-.07-.04-.13-.13-.18-.26l-.13-.44c-.16.14-.3.26-.46.37a2.8 2.8 0 01-.97.43 2.77 2.77 0 01-1.32-.05 1.62 1.62 0 01-.57-.31 1.41 1.41 0 01-.38-.53 1.85 1.85 0 01-.05-1.18c.05-.16.14-.3.25-.45.12-.14.28-.27.47-.4a3 3 0 01.69-.32 9.19 9.19 0 012.2-.33v-.36c0-.41-.09-.71-.26-.91-.18-.2-.43-.3-.76-.3a1.84 1.84 0 00-1.02.28l-.33.18c-.1.06-.2.09-.32.09-.1 0-.2-.03-.26-.08a.72.72 0 01-.18-.2l-.26-.47z" fill="#5E78FF"/><circle cx="130.86" cy="285.05" r="48.49" stroke="#5E78FF" stroke-width="2"/><path d="M100.02 283.08H98.4v-7.43h-3.76v7.43H93v-8.67h7.01v8.67zm4.08-1.6c.17.21.35.35.55.44a1.66 1.66 0 001.25 0c.18-.09.33-.21.46-.39.13-.17.22-.38.3-.64.06-.27.1-.58.1-.93 0-.36-.04-.67-.1-.92a1.73 1.73 0 00-.24-.6.98.98 0 00-.4-.35 1.2 1.2 0 00-.52-.1c-.3 0-.57.06-.79.19-.21.13-.42.31-.6.55v2.76zm-.08-3.71c.26-.29.54-.52.86-.7a2.3 2.3 0 012.05-.05c.28.14.52.35.72.61.2.27.36.6.47.99a4.84 4.84 0 01-.02 2.61c-.13.4-.3.74-.54 1.02-.22.3-.5.52-.83.68-.32.16-.69.24-1.1.24-.34 0-.63-.05-.87-.15a2.2 2.2 0 01-.66-.45v2.52h-1.48v-8.16h.9c.2 0 .32.09.38.27l.12.57zm10.38 1.53c0-.2-.03-.38-.09-.54a1.25 1.25 0 00-.24-.45 1.1 1.1 0 00-.41-.3 1.36 1.36 0 00-.58-.12c-.43 0-.77.12-1.01.37-.25.24-.4.59-.47 1.04h2.8zm-2.83.89c.02.32.08.59.17.82a1.42 1.42 0 00.86.9 2 2 0 001.28.02c.17-.04.32-.1.45-.17l.34-.19c.1-.06.2-.08.29-.08.12 0 .22.04.28.13l.42.54a2.54 2.54 0 01-1.2.8 4.79 4.79 0 01-1.34.21c-.43 0-.82-.07-1.2-.2a2.73 2.73 0 01-1.6-1.67 4.02 4.02 0 01-.02-2.61 2.77 2.77 0 011.51-1.62c.37-.16.78-.24 1.24-.24.39 0 .75.06 1.08.19a2.32 2.32 0 011.4 1.42c.13.34.2.74.2 1.18 0 .22-.03.38-.08.46-.04.07-.14.11-.27.11h-3.81zm10.35 1.84v-3.97h-1.51c-.04.52-.1.98-.15 1.4a11.64 11.64 0 01-.48 1.95c-.09.24-.19.44-.3.62h2.44zm2.57-.05v2.72c0 .14-.04.25-.12.33a.4.4 0 01-.3.12h-.93v-2.07h-4.6v1.65c0 .1-.04.2-.1.28-.07.1-.17.14-.31.14h-.94v-3.12h.18c.14 0 .27-.02.4-.06a.91.91 0 00.38-.24c.13-.12.24-.29.35-.51.11-.23.21-.53.3-.91s.16-.85.23-1.4c.07-.55.12-1.21.16-1.98h4.17v5.05h1.13zm4.55-5.15c.46 0 .87.07 1.24.22a2.7 2.7 0 011.58 1.63c.14.39.22.83.22 1.31 0 .49-.08.93-.22 1.32-.14.4-.35.73-.62 1-.26.28-.58.5-.96.64-.37.15-.78.22-1.24.22a3.4 3.4 0 01-1.25-.22 2.71 2.71 0 01-1.59-1.64A3.8 3.8 0 01126 280c0-.48.07-.92.21-1.31a2.75 2.75 0 011.58-1.63c.38-.15.8-.22 1.26-.22zm0 5.2c.51 0 .89-.17 1.13-.51.25-.35.38-.85.38-1.52a2.6 2.6 0 00-.38-1.51c-.24-.35-.62-.53-1.13-.53-.52 0-.9.18-1.16.53-.25.35-.37.85-.37 1.51s.12 1.17.37 1.52c.25.34.64.51 1.16.51zm10.53 1.05h-1.48v-5.06h-2.4v5.06h-1.48v-6.15h5.36v6.15zm8.18 0h-1.48v-5.02h-1.51c-.05.76-.13 1.4-.23 1.96-.1.54-.22 1-.36 1.38-.13.38-.29.69-.46.92-.17.23-.35.4-.54.53-.19.13-.39.22-.6.26-.2.04-.4.06-.61.06-.22 0-.38-.02-.49-.06-.1-.03-.15-.09-.15-.15v-.93h.36c.13 0 .26-.02.4-.06a.93.93 0 00.38-.24c.12-.13.24-.3.35-.53.11-.23.22-.54.3-.91.1-.38.19-.85.26-1.4.07-.54.13-1.2.17-1.96h4.21v6.15zm5.71-2.63a7.8 7.8 0 00-1.08.12c-.29.05-.52.12-.7.2a.92.92 0 00-.38.3.64.64 0 00-.11.36c0 .26.07.45.23.56.15.11.35.17.6.17.3 0 .57-.06.79-.16.22-.12.44-.28.65-.5v-1.05zm-3.4-2.67c.71-.64 1.57-.97 2.56-.97.36 0 .68.06.97.18a1.99 1.99 0 011.16 1.24c.1.3.16.62.16.96v3.9h-.67a.7.7 0 01-.33-.07c-.07-.04-.13-.13-.18-.26l-.13-.44c-.16.14-.3.26-.46.37a2.8 2.8 0 01-.97.43 2.77 2.77 0 01-1.32-.04 1.62 1.62 0 01-.57-.32 1.41 1.41 0 01-.38-.52 1.85 1.85 0 01-.05-1.2c.05-.15.14-.3.25-.44.12-.14.28-.27.46-.4a3 3 0 01.7-.32 9.19 9.19 0 012.2-.33v-.36c0-.4-.09-.71-.26-.9-.18-.2-.43-.3-.76-.3a1.84 1.84 0 00-1.02.27l-.33.18c-.1.06-.2.09-.32.09-.1 0-.2-.03-.27-.08a.72.72 0 01-.17-.2l-.26-.47zm12.42.24h-2.2v5.06h-1.48v-5.06h-2.19v-1.1h5.87v1.1zm5.09 2.43a7.8 7.8 0 00-1.08.12c-.3.05-.53.12-.7.2a.92.92 0 00-.38.3.64.64 0 00-.12.36c0 .26.08.45.23.56.16.11.36.17.6.17.31 0 .57-.06.8-.16.22-.12.44-.28.65-.5v-1.05zm-3.4-2.67c.71-.64 1.56-.97 2.56-.97.36 0 .68.06.96.18a1.99 1.99 0 011.17 1.24c.1.3.15.62.15.96v3.9h-.67a.7.7 0 01-.32-.07c-.08-.04-.14-.13-.18-.26l-.13-.44-.46.37a2.8 2.8 0 01-.98.43 2.77 2.77 0 01-1.32-.04 1.62 1.62 0 01-.57-.32 1.41 1.41 0 01-.37-.52 1.85 1.85 0 01-.05-1.2c.05-.15.13-.3.25-.44s.27-.27.46-.4a3 3 0 01.69-.32 9.19 9.19 0 012.2-.33v-.36c0-.4-.08-.71-.26-.9-.17-.2-.43-.3-.76-.3a1.84 1.84 0 00-1.01.27l-.33.18c-.1.06-.2.09-.33.09-.1 0-.19-.03-.26-.08a.72.72 0 01-.17-.2l-.27-.47zm-43.75 13.78a4.88 4.88 0 011.06-.12c.46 0 .86.07 1.2.2a2.36 2.36 0 011.41 1.41 3.15 3.15 0 01-.07 2.3 2.85 2.85 0 01-1.69 1.6 3.6 3.6 0 01-2.06.14 4.1 4.1 0 01-1.28-.54 4.06 4.06 0 01-.49-.4l.46-.62c.1-.14.22-.2.38-.2.1 0 .2.03.3.09l.36.21a2.02 2.02 0 001.13.3c.27 0 .51-.04.72-.13.21-.08.38-.2.52-.36.14-.16.24-.35.31-.57.07-.22.1-.45.1-.71 0-.47-.13-.84-.4-1.1-.28-.27-.68-.4-1.22-.4-.41 0-.83.07-1.26.22l-.93-.26.72-4.21h4.29v.63a.7.7 0 01-.2.51c-.13.13-.36.2-.67.2h-2.39l-.3 1.8zm12.18 1.18c0 .76-.08 1.42-.24 1.98a3.97 3.97 0 01-.68 1.38 2.71 2.71 0 01-2.27 1.08 2.74 2.74 0 01-2.26-1.08c-.29-.37-.5-.83-.67-1.38a7.23 7.23 0 01-.24-1.98c0-.76.08-1.41.24-1.97.16-.56.38-1.02.67-1.38.28-.36.62-.63 1-.81.39-.18.8-.27 1.26-.27.45 0 .87.09 1.26.27.4.18.73.45 1.02.81.28.36.5.82.67 1.38.16.56.24 1.21.24 1.97zm-1.53 0c0-.62-.04-1.14-.13-1.56-.1-.4-.22-.74-.38-.98a1.3 1.3 0 00-1.15-.66c-.21 0-.42.05-.62.15-.2.1-.37.27-.52.51a3.2 3.2 0 00-.37.98c-.08.42-.13.94-.13 1.56 0 .63.05 1.15.14 1.56.09.42.2.74.36.99.15.24.33.41.52.51a1.41 1.41 0 001.25 0c.2-.1.37-.27.52-.51.16-.25.28-.57.38-.99.09-.4.13-.93.13-1.56zm7.3-2.23a2.25 2.25 0 01-.6 1.56 1.94 1.94 0 01-1.4.58c-.3 0-.56-.05-.8-.15-.25-.1-.46-.24-.64-.43a2.03 2.03 0 01-.41-.68 2.5 2.5 0 01-.15-.88c0-.34.05-.64.15-.92a1.83 1.83 0 011.05-1.12c.24-.1.5-.15.8-.15a2.01 2.01 0 011.43.58c.18.2.32.42.42.7.1.27.15.57.15.9zm-1.14 0a2 2 0 00-.07-.59c-.04-.15-.1-.28-.18-.37a.62.62 0 00-.28-.2.85.85 0 00-.34-.07.85.85 0 00-.33.06c-.1.04-.2.11-.27.2-.07.1-.13.23-.18.38-.04.16-.06.35-.06.59 0 .22.02.4.06.56.05.15.1.27.18.36.07.1.16.16.27.2a.93.93 0 00.67 0c.1-.04.2-.1.28-.2.08-.1.14-.21.18-.36.05-.15.07-.34.07-.56zm4.03-1.87a1 1 0 01.18-.16.54.54 0 01.3-.07h1.08l-6.44 8.45a.72.72 0 01-.19.16.54.54 0 01-.26.06h-1.1l6.43-8.44zm2.02 6.4a2.25 2.25 0 01-.61 1.57 2.02 2.02 0 01-2.2.43c-.25-.1-.46-.25-.64-.43a2.03 2.03 0 01-.41-.68 2.5 2.5 0 01-.15-.89c0-.33.05-.64.15-.91a1.83 1.83 0 011.05-1.12c.24-.1.5-.16.8-.16a2.01 2.01 0 011.43.59c.18.19.32.42.42.69.1.27.16.58.16.91zm-1.15 0c0-.23-.02-.42-.07-.58-.04-.16-.1-.28-.18-.38a.62.62 0 00-.28-.2.85.85 0 00-.33-.07.85.85 0 00-.34.07c-.1.04-.2.1-.27.2-.08.1-.14.22-.18.38-.04.16-.06.35-.06.58 0 .23.02.41.06.57.04.15.1.27.18.36.08.1.17.16.27.2.1.04.22.06.34.06.12 0 .23-.02.33-.06.11-.04.2-.1.28-.2.08-.09.14-.21.18-.36.05-.16.07-.34.07-.57z" fill="#5E78FF"/><circle cx="130.86" cy="602.07" r="129.05" fill="#fff" stroke="#5E78FF" stroke-width="2"/><circle cx="130.68" cy="535.91" r="48.49" stroke="#5E78FF" stroke-width="2"/><circle cx="187.69" cy="631.33" r="48.49" stroke="#5E78FF" stroke-width="2"/><path d="M97.86 529.63c.3 0 .55-.04.77-.1.22-.08.4-.19.55-.33.15-.14.26-.3.33-.5a1.95 1.95 0 000-1.3 1.25 1.25 0 00-.32-.48 1.41 1.41 0 00-.55-.3c-.22-.07-.48-.1-.78-.1h-1.2v3.11h1.2zm0-4.36c.58 0 1.08.07 1.5.2.43.14.78.33 1.06.57.27.25.48.54.6.88a3.1 3.1 0 010 2.27 2.4 2.4 0 01-.63.9c-.28.25-.63.45-1.05.59-.42.14-.92.21-1.48.21h-1.2v3.05h-1.62v-8.67h2.82zm8.44 6.05a7.8 7.8 0 00-1.08.11c-.3.05-.53.12-.7.2a.92.92 0 00-.38.3.64.64 0 00-.11.36c0 .26.07.45.22.56.16.11.36.17.61.17.3 0 .57-.05.79-.16.22-.11.44-.28.65-.5v-1.04zm-3.4-2.67c.71-.65 1.56-.98 2.56-.98.36 0 .68.06.97.18a1.99 1.99 0 011.16 1.25c.1.29.16.6.16.96v3.88h-.67a.7.7 0 01-.33-.06c-.08-.04-.14-.13-.18-.25l-.13-.45c-.16.14-.3.27-.46.37a2.8 2.8 0 01-.98.43 2.77 2.77 0 01-1.31-.04 1.62 1.62 0 01-.58-.32 1.41 1.41 0 01-.37-.52 1.85 1.85 0 01-.05-1.19c.05-.16.14-.3.25-.44.12-.14.28-.28.46-.4a3 3 0 01.7-.32c.27-.1.59-.17.95-.23.37-.06.78-.1 1.25-.1v-.36c0-.42-.09-.72-.26-.92-.18-.2-.43-.3-.77-.3a1.84 1.84 0 00-1 .28l-.34.19c-.1.05-.2.08-.32.08-.1 0-.2-.03-.27-.08a.72.72 0 01-.17-.19l-.27-.47zm6.88-.2c.23-.22.52-.4.87-.54a3.2 3.2 0 011.23-.22c.38 0 .72.05 1.02.14.3.09.54.21.74.37.2.15.36.32.46.52a1.26 1.26 0 01.11.99 1.4 1.4 0 01-.47.7c-.13.1-.29.19-.48.26.34.13.6.31.81.56.21.25.31.56.31.92 0 .3-.07.57-.2.8-.14.23-.32.43-.55.6a3.26 3.26 0 01-3.47-.03c-.2-.14-.37-.3-.53-.5l.42-.53a.3.3 0 01.27-.14c.1 0 .18.03.27.09l.28.19.4.2c.15.05.34.08.57.08.37 0 .65-.09.85-.26a.8.8 0 00.28-.63c0-.24-.1-.44-.3-.58-.2-.14-.51-.2-.96-.2h-.7v-.97h.7c.4 0 .69-.07.9-.2.2-.14.31-.32.31-.55a.6.6 0 00-.28-.5c-.18-.13-.44-.2-.8-.2a1.92 1.92 0 00-.92.21l-.27.14a.39.39 0 01-.38.03.53.53 0 01-.15-.18l-.34-.57zm8.25 3.9c.16.2.35.35.54.43a1.66 1.66 0 001.26 0c.18-.08.33-.21.45-.38.13-.18.23-.4.3-.65.06-.27.1-.58.1-.93 0-.36-.03-.67-.1-.91a1.73 1.73 0 00-.24-.62.98.98 0 00-.4-.34 1.2 1.2 0 00-.52-.1c-.3 0-.56.06-.78.2-.22.12-.42.3-.61.54v2.76zm-.08-3.72c.25-.29.54-.52.86-.7a2.3 2.3 0 012.04-.05c.28.14.52.35.72.62.2.26.36.59.47.98a4.84 4.84 0 01-.02 2.62c-.12.39-.3.73-.53 1.02a2.43 2.43 0 01-1.93.92c-.34 0-.64-.06-.88-.16a2.2 2.2 0 01-.65-.45v2.52h-1.48v-8.16h.9c.2 0 .32.09.38.27l.12.57zm9.66 2.69a7.8 7.8 0 00-1.08.11c-.3.05-.53.12-.7.2a.92.92 0 00-.39.3.64.64 0 00-.1.36c0 .26.07.45.22.56.16.11.36.17.6.17.3 0 .57-.05.8-.16.22-.11.43-.28.65-.5v-1.04zm-3.4-2.67c.7-.65 1.56-.98 2.56-.98.36 0 .68.06.96.18a1.99 1.99 0 011.17 1.25c.1.29.15.6.15.96v3.88h-.67a.7.7 0 01-.32-.06c-.08-.04-.14-.13-.19-.25l-.13-.45c-.15.14-.3.27-.45.37a2.8 2.8 0 01-.98.43 2.77 2.77 0 01-1.32-.04 1.62 1.62 0 01-.57-.32 1.41 1.41 0 01-.37-.52 1.85 1.85 0 01-.06-1.19c.06-.16.14-.3.26-.44.11-.14.27-.28.46-.4a3 3 0 01.69-.32c.27-.1.6-.17.96-.23s.78-.1 1.25-.1v-.36c0-.42-.1-.72-.27-.92-.17-.2-.43-.3-.76-.3a1.84 1.84 0 00-1.02.28l-.33.19c-.1.05-.2.08-.32.08-.1 0-.2-.03-.26-.08a.72.72 0 01-.18-.19l-.26-.47zm10.13 4.3c.51 0 .9-.16 1.15-.49.25-.33.37-.8.37-1.44 0-.63-.12-1.1-.37-1.43-.24-.33-.62-.5-1.12-.5-.5 0-.89.16-1.15.47-.27.31-.4.77-.4 1.39 0 .65.13 1.15.37 1.5.25.33.64.5 1.15.5zm.43-6.28c-.38.03-.7.1-.97.22-.26.12-.48.29-.66.5-.17.2-.3.45-.4.73-.08.29-.13.6-.15.95a2.33 2.33 0 01.86-.76 2.64 2.64 0 011.28-.3c.41 0 .78.07 1.1.22.34.14.61.34.84.6.24.27.41.59.53.96a3.82 3.82 0 01-.03 2.48 2.68 2.68 0 01-1.58 1.55c-.38.14-.8.21-1.25.21-.44 0-.85-.07-1.23-.21-.37-.15-.7-.38-.97-.7a3.45 3.45 0 01-.63-1.26 8.34 8.34 0 01-.05-3.65c.1-.55.3-1.02.56-1.42.27-.41.61-.74 1.04-.99.43-.25.96-.4 1.59-.44l2.19-.17.07.77c.02.16 0 .3-.07.42-.06.11-.18.17-.34.18l-1.73.11zm7.5 1.02c.45 0 .86.08 1.23.22a2.7 2.7 0 011.58 1.63c.14.4.22.83.22 1.31 0 .5-.08.93-.22 1.32-.14.4-.35.73-.62 1-.26.28-.58.5-.96.64-.37.15-.78.22-1.24.22a3.4 3.4 0 01-1.25-.22 2.71 2.71 0 01-1.59-1.64 3.8 3.8 0 01-.21-1.32c0-.48.07-.92.21-1.31a2.75 2.75 0 011.58-1.63c.38-.14.8-.22 1.26-.22zm0 5.2c.5 0 .88-.17 1.13-.51.24-.35.37-.85.37-1.51a2.6 2.6 0 00-.38-1.52c-.24-.35-.62-.52-1.13-.52-.52 0-.9.17-1.16.52-.25.35-.37.86-.37 1.52s.13 1.16.37 1.5c.25.35.64.52 1.16.52zm10.26-4h-2.2v5.05h-1.48v-5.05h-2.19v-1.1h5.87v1.1zm5.55-.71a.83.83 0 01.7-.4h1.16l-1.44 2.3c-.1.15-.2.28-.3.38-.1.1-.23.18-.38.23.2.06.36.15.49.27.13.12.24.27.35.45l1.44 2.53h-1.03c-.26 0-.46-.04-.6-.13a1.1 1.1 0 01-.37-.38l-.9-1.7a.8.8 0 00-.76-.44h-.55v2.65h-1.49v-6.15h1.49v2.54h.48c.16 0 .3-.03.4-.1.1-.06.19-.15.26-.28l1.05-1.77zm7.1 3.14a7.8 7.8 0 00-1.09.11c-.29.05-.52.12-.7.2a.92.92 0 00-.38.3.64.64 0 00-.11.36c0 .26.07.45.23.56.15.11.35.17.6.17.3 0 .57-.05.79-.16.22-.11.44-.28.65-.5v-1.04zm-3.4-2.67c.7-.65 1.56-.98 2.55-.98.36 0 .68.06.97.18a1.99 1.99 0 011.16 1.25c.1.29.16.6.16.96v3.88h-.67a.7.7 0 01-.33-.06c-.07-.04-.13-.13-.18-.25l-.13-.45c-.16.14-.3.27-.46.37a2.8 2.8 0 01-.97.43 2.77 2.77 0 01-1.32-.04 1.62 1.62 0 01-.57-.32 1.41 1.41 0 01-.38-.52 1.85 1.85 0 01-.05-1.19c.05-.16.14-.3.25-.44.12-.14.28-.28.46-.4a3 3 0 01.7-.32c.27-.1.59-.17.95-.23.37-.06.78-.1 1.25-.1v-.36c0-.42-.09-.72-.26-.92-.18-.2-.43-.3-.76-.3a1.84 1.84 0 00-1.02.28l-.33.19c-.1.05-.2.08-.32.08-.1 0-.2-.03-.27-.08a.72.72 0 01-.17-.19l-.26-.47zm-53.45 19.3h-1.49v-5.06h-2.4v5.05h-1.48v-6.15h5.37v6.15zm5.19-6.26c.45 0 .87.08 1.24.22a2.7 2.7 0 011.58 1.63c.14.4.21.83.21 1.31 0 .5-.07.93-.21 1.32-.15.4-.35.73-.62 1-.27.28-.58.5-.96.64-.37.15-.79.22-1.24.22a3.4 3.4 0 01-1.26-.22 2.71 2.71 0 01-1.58-1.64 3.8 3.8 0 01-.22-1.32c0-.48.08-.92.22-1.31a2.75 2.75 0 011.58-1.63c.38-.14.8-.22 1.26-.22zm0 5.2c.5 0 .89-.17 1.13-.51.25-.35.37-.85.37-1.51a2.6 2.6 0 00-.37-1.52c-.24-.35-.62-.52-1.13-.52-.52 0-.9.17-1.16.52-.25.35-.37.86-.37 1.52s.12 1.16.37 1.5c.25.35.64.52 1.16.52zm14.45 1.05h-1.49v-5.05h-2.4v5.05h-1.48v-6.15h5.37v6.15zm8.18 0h-1.49v-5.02h-1.5c-.06.76-.13 1.41-.23 1.96-.1.54-.22 1-.36 1.38-.14.38-.3.69-.46.92-.17.23-.35.4-.54.54-.2.12-.4.2-.6.25-.2.04-.4.06-.62.06-.22 0-.38-.02-.48-.06-.1-.03-.15-.08-.15-.15v-.93h.35c.14 0 .27-.02.4-.06a.93.93 0 00.38-.24c.13-.13.25-.3.36-.53.1-.23.21-.54.3-.91.1-.38.18-.85.25-1.4.08-.54.13-1.2.17-1.96h4.22v6.15zm5.7-2.62a7.8 7.8 0 00-1.07.11c-.3.05-.53.12-.7.2a.92.92 0 00-.38.3.64.64 0 00-.12.36c0 .26.08.45.23.56.16.11.36.17.6.17.31 0 .57-.05.8-.16.22-.11.44-.28.65-.5v-1.04zm-3.39-2.67c.7-.65 1.56-.98 2.56-.98.36 0 .68.06.96.18a1.99 1.99 0 011.17 1.25c.1.29.15.6.15.96v3.88h-.67a.7.7 0 01-.32-.06c-.08-.04-.14-.13-.18-.25l-.13-.45c-.16.14-.31.27-.46.37a2.8 2.8 0 01-.98.43 2.77 2.77 0 01-1.32-.04 1.62 1.62 0 01-.57-.32 1.41 1.41 0 01-.37-.52 1.85 1.85 0 01-.06-1.19c.06-.16.14-.3.26-.44s.27-.28.46-.4a3 3 0 01.69-.32c.28-.1.6-.17.96-.23s.78-.1 1.25-.1v-.36c0-.42-.1-.72-.27-.92-.17-.2-.43-.3-.76-.3a1.84 1.84 0 00-1.01.28l-.33.19c-.1.05-.2.08-.33.08-.1 0-.19-.03-.26-.08a.72.72 0 01-.18-.19l-.26-.47zm12.6-.86v6.15h-1.48v-2.72h-2.4v2.72h-1.48v-6.15h1.48v2.33h2.4v-2.33h1.48zm8.06 0l-3.35 7.85c-.05.1-.1.18-.18.23-.06.06-.17.08-.31.08h-1.1l1.14-2.47-2.48-5.7h1.3c.11 0 .2.04.27.1.06.05.12.11.15.18l1.3 3.2a7.94 7.94 0 01.2.65 32.3 32.3 0 01.23-.66l1.24-3.19a.44.44 0 01.4-.28h1.2zM36.44 632.1h-1.46a.61.61 0 01-.38-.13c-.1-.08-.2-.2-.29-.35l-1.84-2.92a.85.85 0 00-.33-.33.57.57 0 00-.21-.07 1.71 1.71 0 00-.27-.02h-.96v3.81h-1.62v-8.67h1.62v3.63h.81a1 1 0 00.43-.08.87.87 0 00.33-.31l1.9-2.81c.09-.13.18-.23.29-.31.1-.08.24-.12.39-.12h1.38l-2.36 3.48a1.5 1.5 0 01-.79.61c.24.07.45.18.6.32.18.15.34.35.49.6l2.27 3.66zm4.02-6.26c.45 0 .87.08 1.24.22a2.7 2.7 0 011.58 1.63c.14.4.21.83.21 1.31 0 .5-.07.93-.21 1.32-.15.4-.35.73-.62 1-.26.28-.58.5-.96.64-.37.15-.79.22-1.24.22a3.4 3.4 0 01-1.26-.22 2.71 2.71 0 01-1.58-1.64 3.8 3.8 0 01-.22-1.32c0-.48.08-.92.22-1.31a2.75 2.75 0 011.58-1.63c.38-.14.8-.22 1.26-.22zm0 5.2c.51 0 .89-.17 1.13-.51.25-.35.37-.85.37-1.51a2.6 2.6 0 00-.37-1.52c-.24-.35-.62-.52-1.13-.52-.52 0-.9.17-1.16.52-.25.35-.37.86-.37 1.52s.12 1.16.37 1.5c.25.35.64.52 1.16.52zm6.65-.54c.16.2.35.35.54.43a1.66 1.66 0 001.26 0c.18-.08.33-.21.45-.38.13-.18.23-.4.3-.65.06-.27.1-.58.1-.93 0-.36-.03-.67-.1-.91a1.73 1.73 0 00-.24-.62.98.98 0 00-.4-.34 1.2 1.2 0 00-.52-.1c-.3 0-.57.06-.78.2-.22.12-.42.3-.61.54v2.76zm-.08-3.72c.25-.29.54-.52.86-.7a2.3 2.3 0 012.04-.05c.28.14.52.35.72.62.2.26.36.59.47.98a4.84 4.84 0 01-.02 2.62c-.12.39-.3.73-.53 1.02a2.43 2.43 0 01-1.93.92c-.34 0-.64-.06-.88-.16a2.2 2.2 0 01-.65-.45v2.52h-1.49v-8.16h.91c.2 0 .32.09.38.27l.12.57zm7.89 3.72c.16.2.35.35.54.43a1.66 1.66 0 001.26 0c.18-.08.33-.21.45-.38.13-.18.23-.4.3-.65.06-.27.1-.58.1-.93 0-.36-.03-.67-.1-.91a1.73 1.73 0 00-.24-.62.98.98 0 00-.4-.34 1.2 1.2 0 00-.52-.1c-.3 0-.57.06-.78.2-.22.12-.42.3-.61.54v2.76zm-.08-3.72c.25-.29.54-.52.86-.7a2.3 2.3 0 012.04-.05c.28.14.52.35.72.62.2.26.36.59.47.98a4.84 4.84 0 01-.02 2.62c-.12.39-.3.73-.53 1.02a2.43 2.43 0 01-1.93.92c-.34 0-.64-.06-.88-.16a2.2 2.2 0 01-.65-.45v2.52h-1.49v-8.16h.9c.2 0 .33.09.39.27l.12.57zm10.37 1.53c0-.2-.03-.37-.09-.54a1.25 1.25 0 00-.24-.45 1.1 1.1 0 00-.41-.3 1.36 1.36 0 00-.58-.12c-.42 0-.76.13-1.01.37-.24.24-.4.59-.47 1.04h2.8zm-2.83.9c.03.3.08.58.17.81.09.23.2.42.35.57.14.15.31.26.5.34.2.07.43.1.67.1a2 2 0 00.62-.08c.17-.05.32-.11.45-.18l.34-.19c.1-.05.2-.08.3-.08.12 0 .2.04.27.14l.42.54a2.54 2.54 0 01-1.19.8 4.79 4.79 0 01-1.34.21c-.43 0-.83-.08-1.2-.22a2.73 2.73 0 01-1.6-1.66 4.02 4.02 0 01-.03-2.6 2.77 2.77 0 011.51-1.62c.37-.17.78-.25 1.24-.25.4 0 .75.06 1.08.19a2.32 2.32 0 011.4 1.42c.13.34.2.74.2 1.18 0 .23-.02.38-.07.46-.05.07-.14.11-.28.11h-3.8zm9.95-2.88a.83.83 0 01.69-.4h1.16l-1.43 2.3c-.1.15-.2.28-.3.38-.11.1-.24.18-.38.23.2.06.36.15.49.27.13.12.24.27.35.45l1.44 2.53h-1.03c-.26 0-.46-.04-.6-.13a1.1 1.1 0 01-.37-.38l-.9-1.7a.8.8 0 00-.76-.44h-.56v2.65h-1.48v-6.15h1.48v2.54h.48c.17 0 .3-.03.4-.1.11-.06.2-.15.27-.28l1.05-1.77zm9.12.7h-2.2v5.06h-1.48v-5.05h-2.19v-1.1h5.87v1.1zm3.35 3.47c.17.2.35.35.55.43a1.66 1.66 0 001.25 0c.18-.08.33-.21.46-.38.13-.18.22-.4.3-.65.06-.27.1-.58.1-.93 0-.36-.04-.67-.1-.91a1.73 1.73 0 00-.24-.62.98.98 0 00-.4-.34 1.2 1.2 0 00-.52-.1c-.3 0-.57.06-.79.2-.21.12-.42.3-.6.54v2.76zm-.08-3.72c.26-.29.54-.52.86-.7a2.3 2.3 0 012.05-.05c.28.14.52.35.72.62.2.26.36.59.47.98a4.84 4.84 0 01-.02 2.62c-.13.39-.3.73-.54 1.02a2.43 2.43 0 01-1.93.92c-.34 0-.63-.06-.87-.16a2.2 2.2 0 01-.66-.45v2.52h-1.48v-8.16h.9c.2 0 .32.09.38.27l.12.57zm9.13-.94c.46 0 .87.08 1.24.22a2.7 2.7 0 011.58 1.63c.15.4.22.83.22 1.31 0 .5-.07.93-.22 1.32-.14.4-.35.73-.62 1-.26.28-.58.5-.96.64-.37.15-.78.22-1.24.22a3.4 3.4 0 01-1.25-.22 2.71 2.71 0 01-1.59-1.64 3.8 3.8 0 01-.21-1.32c0-.48.07-.92.21-1.31a2.75 2.75 0 011.58-1.63c.38-.14.8-.22 1.26-.22zm0 5.2c.51 0 .9-.17 1.14-.51.24-.35.37-.85.37-1.51a2.6 2.6 0 00-.37-1.52c-.25-.35-.63-.52-1.14-.52-.52 0-.9.17-1.16.52-.24.35-.37.86-.37 1.52s.13 1.16.37 1.5c.26.35.64.52 1.16.52zm7.68.04c.31 0 .56-.08.74-.23a.77.77 0 00.28-.62.98.98 0 00-.05-.31.56.56 0 00-.16-.26.77.77 0 00-.3-.17c-.14-.04-.3-.06-.5-.06h-1.11v1.65h1.1zm-1.1-4.18v1.62h.97a1 1 0 00.7-.24.85.85 0 00.21-.28.86.86 0 00.03-.62.57.57 0 00-.17-.24.77.77 0 00-.3-.17 1.42 1.42 0 00-.47-.07h-.97zm1.01-.96c.4 0 .73.04 1 .11.29.08.52.18.7.31a1.24 1.24 0 01.55 1.07c0 .13-.02.27-.06.41-.03.14-.09.28-.18.4-.08.14-.2.26-.34.37-.15.1-.34.19-.57.25.2.04.4.1.56.19.17.07.31.17.43.29a1.3 1.3 0 01.38.94 1.59 1.59 0 01-.72 1.38c-.22.14-.47.25-.76.33-.28.07-.58.1-.9.1h-2.51v-6.15h2.42zm8.3.39a.83.83 0 01.68-.4h1.17l-1.44 2.3c-.1.15-.2.28-.3.38-.1.1-.23.18-.38.23.2.06.36.15.49.27.13.12.24.27.35.45l1.44 2.53h-1.03c-.26 0-.46-.04-.6-.13a1.1 1.1 0 01-.37-.38l-.9-1.7a.8.8 0 00-.76-.44h-.55v2.65h-1.49v-6.15h1.49v2.54h.48c.16 0 .3-.03.4-.1.1-.06.19-.15.26-.28l1.05-1.77zm7.08 3.14a7.8 7.8 0 00-1.08.11c-.29.05-.52.12-.7.2a.92.92 0 00-.38.3.64.64 0 00-.11.36c0 .26.07.45.23.56.15.11.35.17.6.17.3 0 .57-.05.79-.16.22-.11.44-.28.65-.5v-1.04zm-3.4-2.67c.71-.65 1.57-.98 2.56-.98.36 0 .68.06.97.18a1.99 1.99 0 011.16 1.25c.1.29.16.6.16.96v3.88h-.67a.7.7 0 01-.33-.06c-.07-.04-.13-.13-.18-.25l-.13-.45c-.16.14-.3.27-.46.37a2.8 2.8 0 01-.97.43 2.77 2.77 0 01-1.32-.04 1.62 1.62 0 01-.57-.32 1.41 1.41 0 01-.38-.52 1.85 1.85 0 01-.05-1.19c.05-.16.14-.3.25-.44.12-.14.28-.28.46-.4a3 3 0 01.7-.32c.27-.1.59-.17.95-.23.37-.06.78-.1 1.25-.1v-.36c0-.42-.09-.72-.26-.92-.18-.2-.43-.3-.76-.3a1.84 1.84 0 00-1.02.28l-.33.19c-.1.05-.2.08-.32.08-.1 0-.2-.03-.27-.08a.72.72 0 01-.17-.19l-.26-.47zm-51.81 19.3h-1.48v-5.06h-2.4v5.05h-1.49v-6.15h5.37v6.15zm8.18 0H68.3v-5.03h-1.52c-.04.76-.12 1.41-.22 1.96-.1.54-.22 1-.36 1.38-.13.38-.29.69-.46.92-.17.23-.35.4-.54.54-.2.12-.39.2-.6.25-.2.04-.4.06-.61.06-.22 0-.38-.02-.49-.06-.1-.03-.15-.08-.15-.15v-.93h.36c.13 0 .26-.02.4-.06a.93.93 0 00.38-.24c.12-.13.24-.3.35-.53.11-.23.21-.54.3-.91.1-.38.19-.85.26-1.4.07-.54.13-1.2.17-1.96h4.2v6.15zm5.71-2.63a7.8 7.8 0 00-1.08.11c-.3.05-.53.12-.7.2a.92.92 0 00-.38.3.64.64 0 00-.11.36c0 .26.07.45.22.56.16.11.36.17.61.17.3 0 .57-.05.79-.16.22-.11.44-.28.65-.5v-1.04zm-3.4-2.67c.71-.65 1.56-.98 2.56-.98.36 0 .68.06.97.18a1.99 1.99 0 011.16 1.25c.1.29.16.6.16.96v3.88h-.68a.7.7 0 01-.32-.06c-.08-.04-.14-.13-.18-.25l-.13-.45c-.16.14-.31.27-.46.37a2.8 2.8 0 01-.98.43 2.77 2.77 0 01-1.32-.04 1.62 1.62 0 01-.57-.32 1.41 1.41 0 01-.37-.52 1.85 1.85 0 01-.05-1.19c.05-.16.13-.3.25-.44s.27-.28.46-.4a3 3 0 01.7-.32c.27-.1.59-.17.95-.23.37-.06.78-.1 1.25-.1v-.36c0-.42-.09-.72-.26-.92-.18-.2-.43-.3-.77-.3a1.84 1.84 0 00-1.01.28l-.33.19c-.1.05-.2.08-.32.08-.1 0-.2-.03-.27-.08a.72.72 0 01-.17-.19l-.27-.47zm12.6-.86v6.15h-1.48v-2.72h-2.4v2.72h-1.48v-6.15h1.48v2.33h2.4v-2.33h1.49zm5.73 3.53a7.8 7.8 0 00-1.08.11c-.3.05-.53.12-.7.2a.92.92 0 00-.38.3.64.64 0 00-.12.36c0 .26.08.45.23.56.16.11.36.17.6.17.31 0 .57-.05.8-.16.22-.11.43-.28.65-.5v-1.04zm-3.4-2.67c.7-.65 1.56-.98 2.56-.98.36 0 .68.06.96.18a1.99 1.99 0 011.17 1.25c.1.29.15.6.15.96v3.88h-.67a.7.7 0 01-.32-.06c-.08-.04-.14-.13-.18-.25l-.14-.45c-.15.14-.3.27-.45.37a2.8 2.8 0 01-.98.43 2.77 2.77 0 01-1.32-.04 1.62 1.62 0 01-.57-.32 1.41 1.41 0 01-.37-.52 1.85 1.85 0 01-.06-1.19c.06-.16.14-.3.26-.44s.27-.28.46-.4a3 3 0 01.69-.32c.27-.1.6-.17.96-.23s.78-.1 1.25-.1v-.36c0-.42-.1-.72-.27-.92-.17-.2-.43-.3-.76-.3a1.84 1.84 0 00-1.01.28l-.33.19c-.1.05-.2.08-.33.08-.1 0-.19-.03-.26-.08a.72.72 0 01-.18-.19l-.26-.47z" fill="#5E78FF"/><circle cx="74.02" cy="631.33" r="48.49" stroke="#5E78FF" stroke-width="2"/><path d="M170.34 633.05l-1.06-2.89a6.32 6.32 0 01-.33-1.02 11.53 11.53 0 01-.32 1.03l-1.05 2.88h2.76zm2.85 3.27h-1.25a.54.54 0 01-.34-.1.68.68 0 01-.2-.26l-.65-1.77h-3.6l-.64 1.77c-.03.09-.1.17-.19.25-.09.08-.2.11-.35.11h-1.25l3.4-8.67h1.66l3.4 8.67zm7-6.15v6.15h-1.49v-2.72h-2.4v2.72h-1.48v-6.15h1.48v2.33h2.4v-2.33h1.49zm5.72 3.53a7.8 7.8 0 00-1.09.11c-.29.05-.52.12-.7.2a.92.92 0 00-.38.3.64.64 0 00-.1.36c0 .26.07.45.22.56.15.11.36.17.6.17.3 0 .57-.05.8-.16.22-.11.43-.28.65-.5v-1.04zm-3.4-2.67c.7-.65 1.56-.98 2.56-.98.36 0 .68.06.96.18a1.99 1.99 0 011.16 1.25c.1.29.16.6.16.96v3.88h-.67a.7.7 0 01-.33-.06c-.07-.04-.13-.13-.17-.25l-.14-.45c-.15.14-.3.27-.45.37a2.8 2.8 0 01-.98.43 2.77 2.77 0 01-1.32-.04 1.62 1.62 0 01-.57-.32 1.41 1.41 0 01-.37-.52 1.85 1.85 0 01-.06-1.19c.06-.16.14-.3.25-.44.13-.14.28-.28.47-.4a3 3 0 01.69-.32c.27-.1.6-.17.96-.23s.78-.1 1.25-.1v-.36c0-.42-.1-.72-.27-.92-.17-.2-.43-.3-.76-.3a1.84 1.84 0 00-1.01.28l-.34.19c-.1.05-.2.08-.32.08-.1 0-.2-.03-.26-.08a.72.72 0 01-.18-.19l-.26-.47zm12.95 5.3h-1.48v-5.03h-1.51c-.05.76-.13 1.41-.23 1.96-.1.54-.22 1-.36 1.38-.13.38-.29.69-.46.92-.17.23-.35.4-.54.54-.2.12-.39.2-.6.25-.2.04-.4.06-.61.06-.22 0-.38-.02-.49-.06-.1-.03-.15-.08-.15-.15v-.93h.36c.13 0 .26-.02.4-.06a.93.93 0 00.38-.24c.12-.13.24-.3.35-.53.11-.23.22-.54.3-.91.1-.38.19-.85.26-1.4.07-.54.13-1.2.17-1.96h4.2v6.15zm8-6.16v6.15h-1.5v-3.59a4.08 4.08 0 01.06-.64 2.91 2.91 0 01-.38.66 152.74 152.74 0 01-1.1 1.55l-1.19 1.66c-.05.09-.13.17-.22.25a.44.44 0 01-.3.12h-.91v-6.16h1.48v3.6c0 .09 0 .2-.02.3l-.03.33a3.13 3.13 0 01.38-.64 37.39 37.39 0 00.66-.93l.44-.63 1.19-1.67c.05-.08.13-.17.22-.24.1-.08.2-.12.31-.12h.9zm2.1.66c.23-.22.51-.4.86-.54a3.2 3.2 0 011.24-.22c.38 0 .71.05 1 .14.3.09.55.21.75.37.2.15.36.32.47.52a1.26 1.26 0 01.1.99 1.4 1.4 0 01-.47.7c-.13.1-.29.19-.47.26.33.13.6.31.8.56.21.25.32.56.32.92 0 .3-.07.57-.21.8-.14.23-.32.43-.55.6-.23.15-.49.27-.78.36a3.26 3.26 0 01-2.69-.4c-.2-.13-.37-.3-.53-.48l.42-.54a.3.3 0 01.28-.14c.09 0 .18.03.26.09l.29.19c.1.07.24.13.4.2.14.05.33.08.56.08.38 0 .66-.09.85-.26a.8.8 0 00.29-.63c0-.24-.1-.44-.3-.58-.2-.14-.52-.2-.96-.2h-.7v-.97h.7c.38 0 .68-.07.9-.2.2-.14.3-.32.3-.55a.6.6 0 00-.27-.5c-.18-.13-.45-.2-.8-.2a1.92 1.92 0 00-.93.21l-.26.14a.39.39 0 01-.38.03.53.53 0 01-.16-.18l-.33-.57z" fill="#5E78FF"/><path d="M113.67 671.54l-1.76-3.7 3.7-1.78M76 551.78l4.1-.15.15 4.1M199.46 574.33l-1.82 3.68-3.68-1.81" stroke="#5E78FF" stroke-width="2" stroke-linecap="round"/><path d="M180.97 550.99a70.3 70.3 0 0116.67 27.26m-48.3 89.9a70.4 70.4 0 01-18.48 2.45c-6.56 0-12.9-.9-18.92-2.57M80.14 551.6a70.28 70.28 0 00-16.02 26.52" stroke="#5E78FF" stroke-width="2"/><circle cx="130.86" cy="919.1" r="48.49" stroke="#5E78FF" stroke-width="2"/><path d="M116.08 919.64c.3 0 .56-.04.78-.1.22-.08.4-.19.54-.33.15-.14.26-.3.33-.5a1.95 1.95 0 000-1.3 1.25 1.25 0 00-.32-.48 1.41 1.41 0 00-.55-.3c-.22-.07-.48-.1-.78-.1h-1.2v3.11h1.2zm0-4.36c.58 0 1.08.07 1.5.2.43.14.78.33 1.06.57.27.25.48.54.6.88a3.1 3.1 0 010 2.27 2.4 2.4 0 01-.63.9c-.28.25-.63.45-1.05.59-.42.14-.92.21-1.48.21h-1.2v3.05h-1.62v-8.67h2.82zm9.06 4.89c0-.2-.03-.37-.08-.54a1.25 1.25 0 00-.24-.45 1.1 1.1 0 00-.42-.3 1.36 1.36 0 00-.57-.12c-.43 0-.77.13-1.02.37-.24.24-.4.59-.47 1.04h2.8zm-2.83.9c.03.3.08.58.17.81.1.23.2.42.35.57.14.15.31.26.51.34.2.07.42.1.66.1a2 2 0 00.62-.08c.17-.05.33-.11.45-.18l.35-.19c.1-.05.2-.08.28-.08.13 0 .22.04.28.14l.43.54a2.54 2.54 0 01-1.2.8 4.79 4.79 0 01-1.34.21c-.43 0-.83-.08-1.2-.22a2.73 2.73 0 01-1.6-1.66 4.02 4.02 0 01-.03-2.6 2.77 2.77 0 011.51-1.62c.37-.17.79-.25 1.25-.25.39 0 .74.06 1.07.19a2.32 2.32 0 011.4 1.42c.14.34.2.74.2 1.18 0 .23-.02.38-.07.46-.05.07-.14.11-.28.11h-3.8zm11.99 2.88h-1.49v-5.02h-1.5c-.06.76-.13 1.41-.23 1.96-.1.54-.22 1-.36 1.38-.13.38-.29.69-.46.92-.17.23-.35.4-.54.54-.2.12-.4.2-.6.25-.2.04-.4.06-.61.06-.22 0-.38-.02-.49-.06-.1-.03-.15-.08-.15-.15v-.93h.35c.14 0 .27-.02.4-.06a.93.93 0 00.38-.24c.13-.13.25-.3.36-.53.11-.23.21-.54.3-.91.1-.38.19-.85.26-1.4.07-.54.13-1.2.17-1.96h4.2v6.15zm7.99-6.15v6.15h-1.48v-3.59a4.08 4.08 0 01.05-.64 2.91 2.91 0 01-.38.66 152.74 152.74 0 01-1.1 1.55l-1.19 1.66c-.06.09-.13.17-.22.25a.44.44 0 01-.3.12h-.91v-6.16h1.48v3.6c0 .09 0 .2-.02.3l-.03.33a3.13 3.13 0 01.37-.64 37.39 37.39 0 00.67-.93l.44-.63 1.19-1.67c.05-.08.13-.17.22-.24.09-.08.2-.12.3-.12h.9zm2.1.66c.24-.22.52-.4.87-.54a3.2 3.2 0 011.23-.22c.38 0 .72.05 1.02.14.3.09.54.21.74.37.2.15.36.32.46.52a1.26 1.26 0 01.11.99 1.4 1.4 0 01-.47.7c-.13.1-.29.19-.48.26.34.13.6.31.81.56.21.25.31.56.31.92 0 .3-.06.57-.2.8-.14.23-.32.43-.55.6a3.26 3.26 0 01-3.47-.03c-.2-.14-.37-.3-.53-.5l.42-.53a.3.3 0 01.27-.14c.1 0 .18.03.27.09l.29.19c.1.07.24.13.4.2.14.05.33.08.56.08.37 0 .66-.09.85-.26a.8.8 0 00.28-.63c0-.24-.1-.44-.3-.58-.2-.14-.51-.2-.96-.2h-.7v-.97h.7c.4 0 .7-.07.9-.2.2-.14.31-.32.31-.55a.6.6 0 00-.28-.5c-.18-.13-.44-.2-.8-.2a1.92 1.92 0 00-.92.21l-.27.14a.39.39 0 01-.38.03.53.53 0 01-.15-.18l-.34-.57z" fill="#5E78FF"/><circle cx="130.86" cy="1154.98" r="48.49" stroke="#5E78FF" stroke-width="2"/><path d="M124.42 1142.3l-1.06-2.88a6.14 6.14 0 01-.33-1.03 13.09 13.09 0 01-.33 1.04l-1.05 2.87h2.77zm2.84 3.28h-1.24a.6.6 0 01-.34-.1.71.71 0 01-.2-.27l-.65-1.77h-3.6l-.64 1.77a.55.55 0 01-.19.25c-.1.08-.2.12-.35.12h-1.25l3.4-8.68h1.66l3.4 8.68zm5.32-5.77a.86.86 0 01.69-.39h1.16l-1.43 2.29c-.1.16-.2.29-.3.39-.11.09-.24.17-.39.23.2.06.37.15.5.27.12.11.24.26.34.44l1.44 2.54h-1.02c-.26 0-.46-.05-.6-.13a1.17 1.17 0 01-.37-.38l-.91-1.71a.92.92 0 00-.31-.33.88.88 0 00-.44-.1h-.56v2.65h-1.48v-6.16h1.48v2.54h.48c.17 0 .3-.03.4-.09.1-.06.2-.16.27-.29l1.05-1.77zm9.11.71h-2.2v5.06h-1.47v-5.06h-2.2v-1.1h5.88v1.1zm-47.54 18.04c.31 0 .56-.07.74-.22a.78.78 0 00.27-.63 1 1 0 00-.04-.31.55.55 0 00-.16-.26.8.8 0 00-.31-.17c-.13-.04-.3-.06-.5-.06h-1.1v1.65h1.1zm-1.1-4.17v1.61h.97c.14 0 .27-.02.4-.06a.86.86 0 00.51-.45.89.89 0 00.02-.63.6.6 0 00-.16-.24.8.8 0 00-.3-.17 1.55 1.55 0 00-.47-.06h-.97zm1.01-.97c.39 0 .72.04 1 .12.29.07.52.18.7.31a1.25 1.25 0 01.54 1.06c0 .13-.01.27-.05.41a1.4 1.4 0 01-.53.77c-.15.11-.33.19-.56.25.2.05.39.11.56.19.16.08.3.17.43.29.12.12.21.26.27.42.07.15.1.33.1.53a1.6 1.6 0 01-.71 1.37c-.22.15-.47.26-.76.33-.28.07-.58.11-.9.11h-2.51v-6.16h2.42zm7.13 5.1c.33 0 .58-.09.75-.26a.85.85 0 00.25-.64.92.92 0 00-.06-.33.76.76 0 00-.49-.46 1.28 1.28 0 00-.46-.07h-1.1v1.76h1.1zm-.02-2.82c.43 0 .8.05 1.09.16.3.1.53.24.72.42.18.17.31.38.4.61a2.08 2.08 0 01-.03 1.52c-.1.24-.25.45-.45.62-.2.17-.44.31-.73.4-.28.1-.61.15-.98.15h-2.52v-6.16h1.41v2.28h1.1zm4.94-2.28v6.16h-1.49v-6.16h1.48zm7.82 6.16h-1.48v-5.06h-2.4v5.06h-1.48v-6.16h5.36v6.16zm5.2-6.25c.45 0 .86.07 1.23.22a2.75 2.75 0 011.58 1.62c.15.4.22.83.22 1.32 0 .49-.07.93-.22 1.32-.14.39-.35.72-.62 1-.26.28-.58.49-.96.64a3.57 3.57 0 01-2.5 0 2.7 2.7 0 01-1.58-1.64 3.8 3.8 0 01-.21-1.32c0-.49.07-.92.21-1.32.15-.39.36-.72.62-.99.27-.27.6-.48.97-.63.37-.15.8-.22 1.25-.22zm0 5.2c.5 0 .88-.17 1.13-.52.24-.34.37-.85.37-1.51s-.13-1.17-.37-1.52c-.25-.35-.63-.52-1.14-.52-.52 0-.9.18-1.16.53-.24.35-.37.85-.37 1.51s.13 1.16.37 1.51c.26.35.64.52 1.16.52zm10.72 1.05h-1.48v-5.02h-1.52c-.04.75-.12 1.4-.22 1.95a8.4 8.4 0 01-.36 1.39c-.13.38-.29.68-.46.92-.17.22-.35.4-.54.53-.2.13-.39.21-.6.25a2.58 2.58 0 01-1.1.01c-.1-.04-.15-.09-.15-.16v-.92h.36c.13 0 .26-.02.4-.06a.89.89 0 00.38-.25c.12-.12.24-.3.35-.53.11-.23.21-.53.3-.91.1-.38.19-.84.26-1.39.07-.55.13-1.2.17-1.97h4.2v6.16zm7.82-6.16v6.16h-1.48v-2.73h-2.4v2.73h-1.48v-6.16h1.48v2.34h2.4v-2.34h1.48zm6.44 2.37c0-.19-.03-.37-.09-.54a1.28 1.28 0 00-.24-.45c-.1-.13-.24-.23-.41-.3a1.46 1.46 0 00-.58-.11c-.43 0-.76.12-1.01.36-.25.25-.4.59-.47 1.04h2.8zm-2.83.9c.02.31.08.59.17.82.09.23.2.42.35.57.14.15.31.26.5.33a2.22 2.22 0 001.73-.16l.35-.18c.1-.06.2-.09.29-.09.12 0 .22.05.28.14l.42.54c-.16.19-.35.35-.55.49-.2.12-.42.23-.64.31a3.89 3.89 0 01-1.35.21 2.9 2.9 0 01-2.15-.84 3.06 3.06 0 01-.64-1.03 4.06 4.06 0 01-.03-2.61 2.76 2.76 0 012.75-1.86c.39 0 .75.06 1.08.18a2.41 2.41 0 011.4 1.42c.13.35.2.74.2 1.19 0 .22-.03.37-.07.45-.05.08-.14.12-.28.12h-3.81zm11.63-3.27v6.16h-1.48v-2.73h-2.4v2.73h-1.48v-6.16h1.48v2.34h2.4v-2.34h1.48zm4.99 5.1c.33 0 .58-.09.75-.26a.85.85 0 00.25-.64.92.92 0 00-.06-.33.76.76 0 00-.49-.46 1.28 1.28 0 00-.46-.07h-1.1v1.76h1.1zm-.02-2.82c.43 0 .8.05 1.09.16.3.1.54.24.72.42.18.17.32.38.4.61a2.08 2.08 0 01-.03 1.52c-.1.24-.25.45-.45.62-.2.17-.44.31-.73.4-.28.1-.61.15-.98.15h-2.52v-6.16h1.41v2.28h1.1zm4.94-2.28v6.16h-1.49v-6.16h1.49zm7.95 6.16h-1.43c-.1 0-.2-.03-.26-.09a.74.74 0 01-.16-.19l-1.3-2.14-.08.19-.08.17-1.15 1.78a.96.96 0 01-.16.19.34.34 0 01-.24.09h-1.33l2.11-3.18-2.03-2.98h1.43c.11 0 .2.02.24.05.05.03.1.08.14.14l1.3 2.06c.03-.14.1-.27.18-.41l1.04-1.62c.08-.14.2-.22.34-.22h1.36l-2.02 2.92 2.1 3.24zm-56.13 12.4c.17.21.35.35.55.43a1.56 1.56 0 001.25 0c.18-.08.34-.21.46-.38.13-.17.22-.39.3-.65.06-.26.1-.57.1-.93 0-.36-.03-.66-.1-.91a1.69 1.69 0 00-.24-.61.93.93 0 00-.4-.34 1.1 1.1 0 00-.52-.11c-.3 0-.57.06-.79.2-.21.12-.42.31-.6.54v2.76zm-.08-3.72c.26-.28.54-.51.86-.69a2.37 2.37 0 012.05-.05 2 2 0 01.72.61c.2.26.36.59.47.98a4.88 4.88 0 01-.02 2.62c-.13.39-.3.73-.53 1.02a2.43 2.43 0 01-1.93.92c-.34 0-.64-.05-.88-.16a2.19 2.19 0 01-.66-.44v2.52h-1.48v-8.17h.9c.2 0 .33.09.38.27l.13.57zm9.66 2.69c-.43.02-.79.06-1.08.11-.29.06-.52.12-.7.21a.9.9 0 00-.38.29.65.65 0 00-.11.37c0 .26.07.44.23.56.15.11.35.16.6.16.3 0 .57-.05.79-.16.22-.11.44-.28.65-.5v-1.04zm-3.4-2.67c.71-.65 1.57-.97 2.56-.97.36 0 .68.06.97.18.28.11.52.28.72.49.2.21.34.46.44.75.1.29.16.61.16.96v3.89H125a.7.7 0 01-.33-.06.47.47 0 01-.18-.26l-.13-.44c-.16.14-.3.26-.46.37-.14.1-.3.19-.46.26a2.77 2.77 0 01-1.84.12 1.6 1.6 0 01-.56-.32 1.4 1.4 0 01-.38-.52 1.85 1.85 0 01-.05-1.19c.05-.15.14-.3.25-.44a2.4 2.4 0 011.15-.72 8.86 8.86 0 012.2-.33v-.36c.01-.41-.08-.72-.25-.91-.18-.2-.43-.3-.76-.3-.24 0-.44.03-.6.08-.16.06-.3.12-.42.19l-.33.19a.6.6 0 01-.32.08c-.1 0-.2-.02-.27-.07a.69.69 0 01-.17-.2l-.26-.47zm10.14 4.31c.5 0 .89-.17 1.14-.49.25-.33.38-.81.38-1.44 0-.63-.12-1.11-.37-1.44-.25-.33-.62-.49-1.12-.49-.5 0-.9.16-1.16.47-.26.31-.4.77-.4 1.38 0 .66.13 1.15.38 1.5.25.34.63.51 1.15.51zm.43-6.28c-.38.02-.7.09-.97.22-.26.12-.48.28-.66.49-.17.2-.3.45-.4.74-.08.28-.13.6-.15.95.1-.16.22-.3.37-.43.14-.13.3-.24.49-.34a2.84 2.84 0 012.39-.08c.32.14.6.35.83.61.23.27.4.58.53.96a3.75 3.75 0 01-.04 2.47 2.68 2.68 0 01-1.58 1.56 3.55 3.55 0 01-2.47-.01c-.38-.14-.7-.38-.97-.7a3.39 3.39 0 01-.64-1.26 8.3 8.3 0 01-.05-3.65c.12-.54.3-1.02.57-1.42.26-.41.61-.74 1.04-.98.43-.25.95-.4 1.58-.45l2.2-.17.07.77a.7.7 0 01-.07.42c-.07.11-.18.17-.34.18l-1.73.12zm7.49 1.02c.45 0 .87.07 1.24.22a2.75 2.75 0 011.58 1.62c.14.4.21.83.21 1.32 0 .49-.07.93-.21 1.32-.15.39-.35.72-.62 1-.26.28-.58.49-.96.64a3.57 3.57 0 01-2.5 0 2.7 2.7 0 01-1.58-1.64 3.8 3.8 0 01-.22-1.32c0-.49.08-.92.22-1.32.15-.39.35-.72.62-.99s.59-.48.96-.63c.38-.15.8-.22 1.26-.22zm0 5.2c.51 0 .89-.17 1.13-.52.25-.34.37-.85.37-1.51s-.12-1.17-.37-1.52c-.24-.35-.62-.52-1.13-.52-.52 0-.9.18-1.16.53-.25.35-.37.85-.37 1.51s.12 1.16.37 1.51c.25.35.64.52 1.16.52zm10.27-4.01h-2.2v5.06h-1.48v-5.06h-2.19v-1.1h5.87v1.1z" fill="#5E78FF"/><circle cx="130.86" cy="1391.47" r="48.49" stroke="#5E78FF" stroke-width="2"/><path d="M115 1382.02h-1.63v-7.44h-3.77v7.44h-1.62v-8.68H115v8.68zm5.23-6.25c.45 0 .87.07 1.24.22a2.75 2.75 0 011.58 1.62c.14.4.21.83.21 1.32 0 .49-.07.93-.21 1.32-.15.39-.35.72-.62 1s-.59.49-.96.64a3.57 3.57 0 01-2.5 0 2.7 2.7 0 01-1.58-1.64 3.8 3.8 0 01-.22-1.32c0-.49.08-.92.22-1.32.15-.39.35-.72.62-.99s.59-.48.96-.63c.38-.15.8-.22 1.26-.22zm0 5.2c.5 0 .89-.17 1.13-.52.25-.34.37-.85.37-1.51s-.12-1.17-.37-1.52c-.24-.35-.62-.52-1.13-.52-.52 0-.9.18-1.16.53-.25.35-.37.85-.37 1.51s.12 1.16.37 1.51c.25.35.64.52 1.16.52zm10.72 1.05h-1.48V1377h-1.51c-.05.75-.12 1.4-.22 1.95a8.4 8.4 0 01-.36 1.39c-.14.38-.3.68-.46.92-.17.22-.35.4-.54.53-.2.13-.4.21-.6.25a2.58 2.58 0 01-1.1.01c-.1-.04-.15-.09-.15-.16v-.92h.35c.13 0 .27-.02.4-.06a.89.89 0 00.38-.25c.13-.12.24-.3.36-.53.1-.23.21-.53.3-.91.1-.38.18-.84.25-1.39.08-.55.13-1.2.17-1.97h4.21v6.16zm7.83-6.16v6.16h-1.48v-2.73h-2.4v2.73h-1.49v-6.16h1.49v2.34h2.4v-2.34h1.48zm5.72 3.53c-.43.02-.79.06-1.08.11-.3.06-.53.12-.7.21a.9.9 0 00-.38.29.65.65 0 00-.12.37c0 .26.08.44.23.56.16.11.36.16.6.16.31 0 .57-.05.8-.16.22-.11.44-.28.65-.5v-1.04zm-3.4-2.67c.71-.65 1.56-.97 2.56-.97.36 0 .68.06.96.18.29.11.53.28.72.49.2.21.35.46.45.75.1.29.15.61.15.96v3.89h-.67a.7.7 0 01-.32-.06.47.47 0 01-.18-.26l-.13-.44-.46.37c-.15.1-.3.19-.46.26a2.77 2.77 0 01-1.84.12 1.6 1.6 0 01-.57-.32 1.4 1.4 0 01-.37-.52 1.85 1.85 0 01-.05-1.19c.05-.15.13-.3.25-.44a2.4 2.4 0 011.15-.72 8.86 8.86 0 012.2-.33v-.36c0-.41-.08-.72-.26-.91-.17-.2-.43-.3-.76-.3-.24 0-.44.03-.6.08-.15.06-.3.12-.41.19l-.33.19a.6.6 0 01-.33.08c-.1 0-.19-.02-.26-.07a.69.69 0 01-.17-.2l-.27-.47zm10.45 1.91v-1.8h-.8c-.2 0-.35.03-.47.08a.77.77 0 00-.47.5 1.1 1.1 0 00-.05.32c0 .28.1.5.28.66.2.16.45.24.77.24h.74zm1.4-2.77v6.16h-1.4v-2.47h-.26c-.12 0-.22.01-.3.03a.57.57 0 00-.34.23l-.1.19-1 1.51c-.04.08-.1.16-.15.22a.72.72 0 01-.19.16c-.06.04-.15.07-.24.1-.1.02-.2.03-.34.03h-1.02l1.55-2.17c.09-.16.18-.28.3-.37.1-.09.24-.17.4-.22a2.42 2.42 0 01-.75-.24c-.2-.11-.36-.24-.48-.39-.13-.14-.22-.3-.27-.47a1.7 1.7 0 01.05-1.16c.09-.22.23-.41.43-.58.2-.17.44-.3.75-.4.31-.11.68-.16 1.11-.16h2.26zm-42.64 13.91c.45 0 .87.07 1.24.22a2.75 2.75 0 011.58 1.62c.14.4.22.83.22 1.32 0 .49-.08.93-.22 1.32s-.35.72-.62 1c-.26.28-.58.49-.96.64a3.57 3.57 0 01-2.5 0 2.7 2.7 0 01-1.58-1.64 3.8 3.8 0 01-.22-1.32c0-.49.08-.92.22-1.32.15-.39.36-.72.62-.99.27-.27.59-.48.97-.63.37-.15.79-.22 1.25-.22zm0 5.2c.51 0 .89-.17 1.13-.52.25-.34.38-.85.38-1.51s-.13-1.17-.38-1.52c-.24-.35-.62-.52-1.13-.52-.52 0-.9.18-1.16.53-.25.35-.37.85-.37 1.51s.12 1.16.37 1.51c.25.35.64.52 1.16.52zm10.53 1.05h-1.48v-5.06h-2.4v5.06h-1.48v-6.16h5.36v6.16zm8.18 0h-1.48V1391h-1.51c-.05.75-.13 1.4-.23 1.95a8.4 8.4 0 01-.36 1.39c-.13.38-.29.68-.46.92-.17.22-.35.4-.54.53-.19.13-.39.21-.6.25a2.58 2.58 0 01-1.1.01c-.1-.04-.15-.09-.15-.16v-.92h.36c.13 0 .26-.02.4-.06a.89.89 0 00.38-.25c.12-.12.24-.3.35-.53.11-.23.22-.53.3-.91.1-.38.19-.84.26-1.39.07-.55.13-1.2.17-1.97h4.21v6.16zm5.71-2.63c-.43.02-.79.06-1.08.11-.29.06-.52.12-.7.21a.9.9 0 00-.38.29.65.65 0 00-.11.37c0 .26.07.44.23.56.15.11.35.16.6.16.3 0 .57-.05.79-.16.22-.11.44-.28.65-.5v-1.04zm-3.4-2.67c.71-.65 1.57-.97 2.56-.97.36 0 .68.06.97.18.28.11.52.28.72.49.2.21.34.46.44.75.1.29.16.61.16.96v3.89h-.67a.7.7 0 01-.33-.06.47.47 0 01-.18-.26l-.13-.44c-.16.14-.3.26-.46.37-.14.1-.3.19-.46.26a2.77 2.77 0 01-1.84.12 1.6 1.6 0 01-.56-.32 1.4 1.4 0 01-.38-.52 1.85 1.85 0 01-.05-1.19c.05-.15.14-.3.25-.44a2.4 2.4 0 011.15-.72 8.86 8.86 0 012.2-.33v-.36c.01-.41-.08-.72-.25-.91-.18-.2-.43-.3-.76-.3-.24 0-.44.03-.6.08-.16.06-.3.12-.42.19l-.33.19a.6.6 0 01-.32.08c-.1 0-.2-.02-.27-.07a.69.69 0 01-.17-.2l-.26-.47zm12.42.24h-2.2v5.06h-1.48v-5.06h-2.19v-1.1h5.87v1.1zm5.09 2.43c-.43.02-.8.06-1.08.11-.3.06-.53.12-.7.21a.9.9 0 00-.38.29.65.65 0 00-.12.37c0 .26.08.44.23.56.16.11.36.16.6.16.31 0 .57-.05.8-.16.22-.11.44-.28.65-.5v-1.04zm-3.4-2.67c.7-.65 1.56-.97 2.56-.97.36 0 .68.06.96.18.29.11.53.28.72.49.2.21.35.46.45.75.1.29.15.61.15.96v3.89h-.67a.7.7 0 01-.32-.06.47.47 0 01-.18-.26l-.14-.44a2.93 2.93 0 01-.92.63 2.77 2.77 0 01-1.84.12 1.6 1.6 0 01-.56-.32 1.4 1.4 0 01-.37-.52 1.85 1.85 0 01-.06-1.19c.06-.15.14-.3.26-.44a2.4 2.4 0 011.15-.72 8.86 8.86 0 012.2-.33v-.36c0-.41-.08-.72-.26-.91-.17-.2-.43-.3-.76-.3-.24 0-.44.03-.6.08-.16.06-.3.12-.41.19l-.33.19a.6.6 0 01-.33.08c-.1 0-.19-.02-.26-.07a.69.69 0 01-.17-.2l-.27-.47zm-42.08 13.81c.23-.23.52-.41.87-.55.34-.14.75-.21 1.23-.21.38 0 .72.04 1.02.13.3.09.54.21.74.37.2.15.36.33.46.53a1.24 1.24 0 01.11.98 1.31 1.31 0 01-.47.7c-.13.1-.29.19-.48.26.34.13.6.32.81.57.21.24.31.55.31.91 0 .3-.07.57-.2.8a2.04 2.04 0 01-1.34.96 3.05 3.05 0 01-1.47.08c-.2-.03-.4-.09-.61-.16-.2-.08-.4-.19-.6-.31-.2-.14-.37-.3-.53-.49l.42-.54a.3.3 0 01.27-.14c.1 0 .18.03.27.09l.28.19c.12.07.25.14.4.2.15.05.34.08.57.08.37 0 .65-.08.85-.25a.8.8 0 00.28-.63c0-.25-.1-.44-.3-.58-.2-.14-.51-.21-.96-.21h-.7v-.97h.7c.4 0 .69-.07.9-.2.2-.14.31-.32.31-.54a.6.6 0 00-.28-.51c-.18-.13-.44-.2-.8-.2a2.06 2.06 0 00-.92.21l-.27.14a.35.35 0 01-.2.07.32.32 0 01-.18-.04.5.5 0 01-.15-.17l-.34-.57zm10.02 2.86c-.43.02-.8.06-1.08.11-.3.06-.53.12-.7.21a.9.9 0 00-.38.29.65.65 0 00-.12.37c0 .26.08.44.23.56.16.11.36.16.6.16.31 0 .57-.05.8-.16.22-.11.44-.28.65-.5v-1.04zm-3.4-2.67c.7-.65 1.56-.97 2.56-.97.36 0 .68.06.96.18.29.11.53.28.72.49.2.21.35.46.45.75.1.29.15.61.15.96v3.89h-.67a.7.7 0 01-.32-.06.47.47 0 01-.18-.26l-.14-.44a2.93 2.93 0 01-.92.63 2.77 2.77 0 01-1.84.12 1.6 1.6 0 01-.56-.32 1.4 1.4 0 01-.37-.52 1.85 1.85 0 01-.05-1.19c.05-.15.13-.3.25-.44a2.4 2.4 0 011.15-.72 8.86 8.86 0 012.2-.33v-.36c0-.41-.08-.72-.26-.91-.17-.2-.43-.3-.76-.3-.24 0-.44.03-.6.08-.16.06-.3.12-.41.19l-.33.19a.6.6 0 01-.33.08c-.1 0-.19-.02-.26-.07a.69.69 0 01-.17-.2l-.27-.47zm18.29-.87v6.17h-1.34v-3.43a7.3 7.3 0 01.1-.97l-1.82 3.32a.43.43 0 01-.42.26h-.16a.43.43 0 01-.42-.26l-1.83-3.34a5.35 5.35 0 01.1.99v3.43h-1.34v-6.17h1.22c.1 0 .2.02.3.07.11.04.2.13.26.26l1.46 2.59.18.39.15.4.15-.41.18-.38 1.44-2.59a.5.5 0 01.26-.26c.1-.05.2-.07.3-.07h1.23zm6.43 2.38c0-.19-.02-.37-.08-.54a1.28 1.28 0 00-.24-.45c-.1-.13-.25-.23-.41-.3a1.46 1.46 0 00-.58-.11c-.43 0-.77.12-1.01.36-.25.25-.4.59-.47 1.04h2.8zm-2.82.9c.02.31.08.59.17.82.08.23.2.42.34.57.15.15.32.26.51.33a2.22 2.22 0 001.73-.16l.35-.18c.1-.06.2-.09.29-.09.12 0 .21.05.27.14l.43.54c-.16.19-.35.35-.55.49-.2.12-.42.23-.64.31a3.89 3.89 0 01-1.35.21 2.9 2.9 0 01-2.15-.84 3.06 3.06 0 01-.64-1.03 4.06 4.06 0 01-.03-2.61 2.76 2.76 0 012.75-1.86c.39 0 .75.06 1.07.18a2.41 2.41 0 011.4 1.42c.14.35.2.74.2 1.19 0 .22-.02.37-.07.45-.04.08-.14.12-.27.12h-3.81zm10.68-1.97l-.13.14c-.04.03-.1.04-.18.04a.45.45 0 01-.23-.06l-.25-.16a1.5 1.5 0 00-.36-.15c-.14-.05-.31-.08-.51-.08-.26 0-.5.05-.69.15-.2.09-.36.22-.49.4a1.9 1.9 0 00-.29.64c-.06.25-.1.53-.1.85 0 .33.04.62.1.87.08.26.18.48.31.65.14.17.3.31.48.4.2.09.4.13.64.13s.43-.03.57-.08c.15-.06.27-.13.37-.2l.26-.19a.4.4 0 01.25-.09.3.3 0 01.27.14l.43.54c-.17.19-.34.35-.54.49-.19.12-.39.23-.6.31a3.37 3.37 0 01-1.28.21 2.56 2.56 0 01-1.96-.84c-.25-.27-.45-.6-.6-.99-.14-.4-.21-.85-.21-1.35 0-.45.06-.87.19-1.26a2.65 2.65 0 011.51-1.66c.37-.16.8-.24 1.29-.24a3 3 0 011.2.22c.35.15.66.36.94.63l-.4.54zm5.59 1.47v-1.8h-.8c-.2 0-.35.03-.47.08a.77.77 0 00-.47.5 1.1 1.1 0 00-.05.32c0 .28.1.5.28.66.2.16.45.24.77.24h.74zm1.4-2.77v6.16h-1.4v-2.47h-.26c-.12 0-.22.01-.3.03a.57.57 0 00-.34.23l-.11.19-.98 1.51c-.05.08-.1.16-.16.22a.72.72 0 01-.19.16c-.06.04-.15.07-.24.1-.1.02-.2.03-.34.03h-1.02l1.55-2.17c.08-.16.18-.28.3-.37.1-.09.24-.17.39-.22a2.42 2.42 0 01-.74-.24c-.2-.11-.36-.24-.49-.39a1.56 1.56 0 01-.35-.97 1.56 1.56 0 01.56-1.24c.2-.17.45-.3.76-.4.3-.11.68-.16 1.11-.16h2.26zm8.98 5.06v2.72c0 .13-.04.24-.12.32a.41.41 0 01-.3.12h-.93v-2.06h-5.15v-6.16h1.48v5.06h2.4v-5.06h1.49v5.06h1.13z" fill="#5E78FF"/></svg>