<svg width="831" height="381" fill="none" xmlns="http://www.w3.org/2000/svg"><path d="M117.98 138.1h52.22" stroke="#5E78FF" stroke-width="2"/><path d="M167.98 135.2l2.9 2.9-2.9 2.9" stroke="#5E78FF" stroke-width="2" stroke-linecap="round"/><path d="M303.87 138.1h52.22" stroke="#5E78FF" stroke-width="2"/><path d="M353.87 135.2l2.9 2.9-2.9 2.9" stroke="#5E78FF" stroke-width="2" stroke-linecap="round"/><path d="M662.5 138.1h52.23" stroke="#5E78FF" stroke-width="2"/><path d="M712.5 135.2l2.9 2.9-2.9 2.9" stroke="#5E78FF" stroke-width="2" stroke-linecap="round"/><path d="M719.84 330.92H584" stroke="#5E78FF" stroke-width="2"/><path d="M586.22 328.02l-2.9 2.9 2.9 2.9" stroke="#5E78FF" stroke-width="2" stroke-linecap="round"/><path d="M442.72 331.33H89.77a40 40 0 01-40-40V206" stroke="#5E78FF" stroke-width="2" stroke-dasharray="5.5 5.5"/><path d="M52.68 208.22l-2.9-2.9-2.9 2.9" stroke="#5E78FF" stroke-width="2" stroke-linecap="round"/><path d="M780.58 208.06v52.22" stroke="#5E78FF" stroke-width="2"/><path d="M783.49 258.06l-2.9 2.9-2.9-2.9" stroke="#5E78FF" stroke-width="2" stroke-linecap="round"/><circle cx="49.49" cy="138.1" r="48.49" stroke="#5E78FF" stroke-width="2"/><path d="M34.35 131.8c0 .63-.11 1.22-.32 1.76a4.12 4.12 0 01-4.08 2.67c-.65 0-1.25-.11-1.79-.33a4.15 4.15 0 01-2.29-2.34 4.83 4.83 0 01-.31-1.77c0-.63.1-1.22.31-1.76a4.08 4.08 0 012.29-2.33 4.78 4.78 0 014.1.25 4 4 0 011.94 2.63c.1.38.15.79.15 1.21zm-1.65 0c0-.48-.07-.91-.2-1.29-.12-.38-.3-.7-.54-.96a2.33 2.33 0 00-.87-.6 2.94 2.94 0 00-1.14-.22c-.42 0-.8.07-1.14.21a2.4 2.4 0 00-1.41 1.57c-.13.38-.2.8-.2 1.28s.07.9.2 1.29c.13.37.3.7.54.96.24.26.53.46.87.6.34.14.72.2 1.14.2.43 0 .8-.06 1.14-.2.34-.14.63-.34.87-.6.23-.27.42-.59.54-.96a4 4 0 00.2-1.29zm10.22 3.23v2.72c0 .14-.04.24-.12.32a.41.41 0 01-.3.12h-.93v-2.06h-5.15v-6.16h1.49v5.06h2.4v-5.06h1.48v5.06h1.13zm5.8-2.69c0-.19-.03-.37-.09-.54a1.25 1.25 0 00-.24-.45 1.1 1.1 0 00-.41-.3 1.36 1.36 0 00-.58-.11c-.43 0-.77.12-1.01.37-.25.24-.4.59-.47 1.03h2.8zm-2.83.9c.02.31.08.59.17.82a1.42 1.42 0 00.86.9c.2.08.41.11.65.11a2 2 0 00.62-.08 7.55 7.55 0 00.8-.37c.1-.06.2-.09.29-.09.12 0 .21.05.27.14l.43.54a2.54 2.54 0 01-1.2.8 4.79 4.79 0 01-1.34.21c-.43 0-.82-.07-1.2-.21a2.73 2.73 0 01-1.6-1.66 4.02 4.02 0 01-.02-2.61 2.77 2.77 0 011.51-1.62c.37-.16.78-.24 1.24-.24.39 0 .75.06 1.07.18a2.32 2.32 0 011.4 1.43c.14.34.2.73.2 1.18 0 .22-.02.37-.07.45-.04.08-.14.12-.27.12h-3.81zm11.63-3.27v6.16h-1.48v-2.72h-2.4v2.72h-1.48v-6.16h1.48v2.34h2.4v-2.34h1.48zm6.15.4a.83.83 0 01.69-.4h1.16l-1.43 2.29c-.1.16-.2.29-.3.39-.11.1-.24.17-.39.23.2.06.37.15.5.27.12.11.24.26.34.44l1.44 2.54h-1.02c-.26 0-.46-.04-.6-.13a1.1 1.1 0 01-.37-.38l-.9-1.7a.8.8 0 00-.76-.44h-.56v2.65H60v-6.16h1.48v2.54h.48c.17 0 .3-.03.4-.09.1-.06.2-.16.27-.29l1.05-1.77zm7.09 3.13a7.8 7.8 0 00-1.08.12c-.3.05-.53.12-.7.2a.92.92 0 00-.38.3.64.64 0 00-.12.36c0 .26.08.45.23.56.16.11.36.17.6.17.31 0 .57-.06.8-.17.22-.1.44-.28.65-.5v-1.04zm-3.4-2.67c.71-.65 1.56-.97 2.56-.97.36 0 .68.06.96.18a1.99 1.99 0 011.17 1.24c.1.3.15.61.15.96v3.89h-.67a.7.7 0 01-.32-.06c-.08-.04-.14-.13-.18-.26l-.13-.44-.46.37a2.8 2.8 0 01-.98.43 2.77 2.77 0 01-1.32-.05 1.62 1.62 0 01-.57-.31 1.41 1.41 0 01-.37-.53 1.85 1.85 0 01-.05-1.18c.05-.16.13-.3.25-.45.12-.14.27-.27.46-.4a3 3 0 01.69-.32 9.19 9.19 0 012.2-.33v-.36c0-.41-.08-.71-.26-.91-.17-.2-.43-.3-.76-.3a1.84 1.84 0 00-1.01.28l-.33.18c-.1.06-.2.09-.33.09-.1 0-.19-.03-.26-.08a.72.72 0 01-.17-.2l-.27-.47zm-37.61 19.3h-1.48v-5.06h-2.4v5.06h-1.48v-6.16h5.36v6.16zm3.95-1.6c.17.2.35.35.55.44a1.66 1.66 0 001.25 0c.18-.09.33-.22.46-.39.12-.17.22-.39.29-.65.07-.26.1-.57.1-.93 0-.36-.03-.66-.09-.9a1.73 1.73 0 00-.24-.62.98.98 0 00-.4-.34 1.2 1.2 0 00-.52-.11c-.31 0-.57.07-.79.2-.21.13-.42.3-.61.54v2.76zm-.08-3.72c.25-.28.54-.51.86-.69a2.3 2.3 0 012.05-.05c.28.14.52.34.72.61.2.27.36.6.46.99a4.84 4.84 0 01-.01 2.61c-.13.4-.3.73-.54 1.02-.23.29-.5.52-.83.68-.33.16-.7.24-1.1.24-.34 0-.63-.05-.88-.16a2.2 2.2 0 01-.65-.44v2.52h-1.48v-8.17h.9c.2 0 .32.1.38.27l.12.57zm9.13-.93c.46 0 .87.07 1.24.22a2.7 2.7 0 011.58 1.63c.14.39.22.83.22 1.31 0 .49-.08.93-.22 1.32-.14.4-.35.73-.62 1-.26.28-.58.49-.96.64-.37.15-.78.22-1.24.22a3.4 3.4 0 01-1.25-.22 2.71 2.71 0 01-1.59-1.64 3.8 3.8 0 01-.21-1.32c0-.48.07-.92.21-1.31a2.75 2.75 0 011.58-1.63c.38-.15.8-.22 1.26-.22zm0 5.2c.51 0 .89-.17 1.13-.52.25-.34.38-.84.38-1.5a2.6 2.6 0 00-.38-1.53c-.24-.34-.62-.52-1.13-.52-.52 0-.9.18-1.16.53-.25.35-.37.85-.37 1.51s.12 1.17.37 1.51c.25.35.64.52 1.16.52zm9.13-2.74c0-.19-.03-.37-.08-.54a1.25 1.25 0 00-.24-.45 1.1 1.1 0 00-.42-.3 1.36 1.36 0 00-.57-.11c-.43 0-.77.12-1.02.37-.24.24-.4.59-.46 1.03h2.8zm-2.82.9c.02.31.08.59.16.82.1.23.2.42.35.57.15.15.32.26.51.34.2.07.42.1.66.1a2 2 0 00.62-.08 7.55 7.55 0 00.8-.37c.1-.06.2-.09.29-.09.12 0 .21.05.27.14l.43.54a2.54 2.54 0 01-1.2.8 4.79 4.79 0 01-1.34.21c-.43 0-.83-.07-1.2-.21a2.73 2.73 0 01-1.6-1.66 4.02 4.02 0 01-.03-2.61 2.77 2.77 0 011.51-1.62c.37-.16.79-.24 1.25-.24.39 0 .74.06 1.07.18a2.32 2.32 0 011.4 1.43c.14.34.2.73.2 1.18 0 .22-.02.37-.07.45-.05.08-.14.12-.27.12h-3.81zm9.94-2.88a.83.83 0 01.7-.39h1.16l-1.44 2.29c-.1.16-.2.29-.3.39-.1.1-.23.17-.38.23.2.06.36.15.5.27.12.11.24.26.34.44l1.44 2.54H60c-.26 0-.46-.04-.6-.13a1.1 1.1 0 01-.37-.38l-.9-1.7a.8.8 0 00-.75-.44h-.56v2.65h-1.48v-6.16h1.48v2.54h.48c.17 0 .3-.03.4-.09.1-.06.2-.16.26-.29l1.05-1.77zm9.12.71h-2.2v5.06h-1.48v-5.06h-2.19v-1.1h5.87v1.1zm5.1 2.43a7.8 7.8 0 00-1.09.12c-.3.05-.52.12-.7.2a.92.92 0 00-.38.3.64.64 0 00-.11.36c0 .26.07.45.23.56.15.11.35.17.6.17.3 0 .57-.06.79-.17.22-.1.44-.28.65-.5v-1.04zm-3.4-2.67c.7-.65 1.56-.97 2.55-.97.36 0 .68.06.97.18a1.99 1.99 0 011.16 1.24c.1.3.16.61.16.96v3.89h-.67a.7.7 0 01-.33-.06c-.07-.04-.13-.13-.18-.26l-.13-.44c-.16.14-.3.26-.46.37a2.8 2.8 0 01-.97.43 2.77 2.77 0 01-1.32-.05 1.62 1.62 0 01-.57-.31 1.41 1.41 0 01-.38-.53 1.85 1.85 0 01-.05-1.18c.05-.16.14-.3.25-.45.12-.14.28-.27.46-.4a3 3 0 01.7-.32 9.19 9.19 0 012.2-.33v-.36c0-.41-.09-.71-.26-.91-.18-.2-.43-.3-.76-.3a1.84 1.84 0 00-1.02.28l-.33.18c-.1.06-.2.09-.32.09-.1 0-.2-.03-.27-.08a.72.72 0 01-.17-.2l-.26-.47z" fill="#5E78FF"/><circle cx="240.73" cy="138.1" r="48.49" stroke="#5E78FF" stroke-width="2"/><path d="M209.9 136.13h-1.63v-7.44h-3.77v7.44h-1.62v-8.68h7.01v8.68zm4.08-1.6c.16.2.35.35.54.44a1.66 1.66 0 001.26 0c.18-.09.33-.22.45-.39.13-.17.23-.39.3-.65.06-.26.1-.57.1-.93 0-.36-.03-.66-.1-.9a1.73 1.73 0 00-.24-.62.98.98 0 00-.4-.34 1.2 1.2 0 00-.52-.11c-.3 0-.57.06-.78.2-.22.13-.42.3-.61.54v2.76zm-.08-3.72c.25-.28.54-.51.86-.69a2.3 2.3 0 012.04-.05c.28.14.52.34.72.61.2.26.36.6.47.98a4.84 4.84 0 01-.02 2.62c-.12.4-.3.73-.53 1.02a2.43 2.43 0 01-1.93.92c-.34 0-.64-.05-.88-.16a2.2 2.2 0 01-.65-.44v2.52h-1.49v-8.17h.91c.2 0 .32.1.38.27l.12.57zm10.37 1.53c0-.19-.03-.37-.09-.54a1.25 1.25 0 00-.24-.45 1.1 1.1 0 00-.4-.3 1.36 1.36 0 00-.58-.11c-.43 0-.77.12-1.02.37-.24.24-.4.59-.47 1.03h2.8zm-2.83.9c.03.31.08.59.17.82.09.23.2.42.35.57.14.15.31.26.5.34.2.07.43.1.67.1a2 2 0 00.62-.08 7.55 7.55 0 00.8-.37c.1-.06.2-.09.28-.09.13 0 .22.05.28.14l.42.54a2.54 2.54 0 01-1.19.8 4.79 4.79 0 01-1.34.21c-.43 0-.83-.07-1.2-.21a2.73 2.73 0 01-1.6-1.66 4.02 4.02 0 01-.03-2.61 2.77 2.77 0 011.51-1.62c.37-.16.78-.24 1.25-.24.38 0 .74.06 1.07.18a2.32 2.32 0 011.4 1.43c.13.34.2.73.2 1.18 0 .22-.02.37-.07.45-.05.08-.14.12-.28.12h-3.8zm10.35 1.83v-3.96h-1.5c-.05.51-.1.98-.16 1.4a11.64 11.64 0 01-.47 1.95c-.1.23-.2.44-.3.61h2.43zm2.57-.04v2.72c0 .13-.04.24-.12.32a.4.4 0 01-.3.12h-.92v-2.06h-4.61v1.64c0 .1-.03.2-.1.3-.07.08-.17.12-.3.12h-.94v-3.12h.17c.14 0 .27-.01.4-.05a.91.91 0 00.39-.24c.12-.12.23-.3.34-.52.12-.22.22-.53.3-.9.1-.38.17-.85.23-1.4.07-.55.12-1.22.16-1.99h4.17v5.06h1.13zm4.55-5.15c.46 0 .87.07 1.25.22a2.7 2.7 0 011.57 1.63c.15.39.22.83.22 1.3 0 .5-.07.94-.22 1.33a2.65 2.65 0 01-1.58 1.64c-.37.15-.78.22-1.24.22a3.4 3.4 0 01-1.25-.22 2.71 2.71 0 01-1.59-1.64 3.8 3.8 0 01-.21-1.32c0-.48.07-.92.21-1.31a2.75 2.75 0 011.58-1.63c.38-.15.8-.22 1.26-.22zm0 5.2c.52 0 .9-.17 1.14-.52.24-.34.37-.84.37-1.5a2.6 2.6 0 00-.37-1.53c-.25-.34-.63-.52-1.14-.52-.52 0-.9.18-1.16.53-.24.35-.37.85-.37 1.51s.13 1.16.38 1.51c.25.35.63.52 1.15.52zm10.53 1.05h-1.48v-5.06h-2.4v5.06h-1.48v-6.16h5.36v6.16zm8.18 0h-1.48v-5.02h-1.51c-.05.75-.12 1.4-.22 1.95s-.22 1-.36 1.39c-.14.38-.3.69-.46.92-.17.22-.35.4-.54.53-.2.13-.4.21-.6.25-.2.05-.4.07-.62.07-.22 0-.38-.02-.48-.06-.1-.04-.15-.09-.15-.16v-.92h.35c.13 0 .27-.02.4-.06a.93.93 0 00.38-.25c.13-.12.24-.3.36-.53.1-.23.21-.53.3-.9.1-.39.18-.85.25-1.4.08-.55.13-1.2.17-1.97h4.21v6.16zm5.72-2.63a7.8 7.8 0 00-1.08.12c-.3.05-.53.12-.7.2a.92.92 0 00-.38.3.64.64 0 00-.12.36c0 .26.08.45.23.56.16.1.36.17.6.17.31 0 .57-.06.8-.17.22-.1.43-.28.65-.5v-1.04zm-3.4-2.67c.7-.65 1.56-.97 2.56-.97.36 0 .68.06.96.18a1.99 1.99 0 011.17 1.24c.1.3.15.61.15.96v3.89h-.67a.7.7 0 01-.32-.06c-.08-.04-.14-.13-.18-.26l-.14-.44c-.15.14-.3.26-.45.37a2.8 2.8 0 01-.98.42 2.77 2.77 0 01-1.32-.04 1.62 1.62 0 01-.57-.31 1.41 1.41 0 01-.37-.53 1.85 1.85 0 01-.06-1.19c.06-.15.14-.3.26-.44s.27-.27.46-.4a3 3 0 01.69-.32 9.19 9.19 0 012.2-.33v-.36c0-.41-.08-.72-.26-.91-.17-.2-.43-.3-.76-.3a1.84 1.84 0 00-1.01.28l-.33.18c-.1.06-.2.08-.33.08-.1 0-.19-.02-.26-.07a.72.72 0 01-.18-.2l-.26-.47zm12.41.24h-2.2v5.06h-1.48v-5.06h-2.19v-1.1h5.87v1.1zm5.1 2.43a7.8 7.8 0 00-1.09.12c-.3.05-.53.12-.7.2a.92.92 0 00-.38.3.64.64 0 00-.11.36c0 .26.07.45.22.56.16.1.36.17.61.17.3 0 .57-.06.79-.17.22-.1.44-.28.65-.5v-1.04zm-3.4-2.67c.7-.65 1.56-.97 2.55-.97.36 0 .68.06.97.18a1.99 1.99 0 011.16 1.24c.1.3.16.61.16.96v3.89h-.68a.7.7 0 01-.32-.06c-.07-.04-.13-.13-.18-.26l-.13-.44c-.16.14-.3.26-.46.37a2.8 2.8 0 01-.98.42 2.77 2.77 0 01-1.31-.04 1.62 1.62 0 01-.57-.31 1.41 1.41 0 01-.38-.53 1.85 1.85 0 01-.05-1.19c.05-.15.13-.3.25-.44s.28-.27.46-.4a3 3 0 01.7-.32 9.19 9.19 0 012.2-.33v-.36c0-.41-.09-.72-.26-.91-.18-.2-.43-.3-.76-.3a1.84 1.84 0 00-1.02.28l-.33.18c-.1.06-.2.08-.32.08-.1 0-.2-.02-.27-.07a.72.72 0 01-.17-.2l-.26-.47zm-43.76 13.77a4.88 4.88 0 011.06-.11c.46 0 .86.07 1.21.2a2.36 2.36 0 011.41 1.41 3.15 3.15 0 01-.07 2.3 2.85 2.85 0 01-1.7 1.6 3.6 3.6 0 01-2.05.14 4.1 4.1 0 01-1.29-.54 4.06 4.06 0 01-.48-.4l.45-.63c.1-.13.23-.2.38-.2.1 0 .2.03.3.1l.36.2a2.02 2.02 0 001.13.3c.28.01.52-.03.73-.12.2-.09.38-.2.51-.36.14-.17.25-.35.31-.57.08-.22.11-.46.11-.71 0-.47-.14-.84-.41-1.1-.27-.28-.68-.4-1.21-.4-.42 0-.84.07-1.27.22l-.92-.27.72-4.2h4.28v.62a.7.7 0 01-.2.52c-.13.13-.35.2-.67.2h-2.38l-.3 1.8zm12.19 1.2c0 .75-.08 1.4-.25 1.96a3.97 3.97 0 01-.67 1.39 2.71 2.71 0 01-2.28 1.07 2.74 2.74 0 01-2.26-1.08c-.28-.36-.5-.82-.66-1.38a7.23 7.23 0 01-.24-1.97c0-.76.08-1.42.24-1.97.16-.56.38-1.02.66-1.38.29-.37.62-.64 1-.81.4-.18.81-.27 1.26-.27.46 0 .88.09 1.26.27.4.17.74.44 1.02.8.29.37.51.83.67 1.39.17.55.25 1.21.25 1.97zm-1.53 0c0-.64-.05-1.16-.14-1.57-.1-.41-.22-.74-.37-.98a1.3 1.3 0 00-1.16-.66c-.2 0-.41.05-.61.15-.2.1-.37.26-.52.5a3.2 3.2 0 00-.37 1c-.09.4-.13.92-.13 1.55s.04 1.15.13 1.56c.1.41.21.74.37.99.15.24.32.41.52.51a1.41 1.41 0 001.24 0c.2-.1.38-.27.53-.51.15-.25.28-.58.37-.99.1-.41.14-.93.14-1.56zm7.3-2.25a2.25 2.25 0 01-.6 1.57 1.94 1.94 0 01-1.41.57c-.29 0-.56-.04-.8-.15-.24-.1-.46-.24-.64-.42a2.03 2.03 0 01-.41-.68 2.5 2.5 0 01-.15-.89c0-.33.05-.64.15-.9.1-.28.24-.51.41-.7a2.01 2.01 0 011.43-.59 2.01 2.01 0 011.45.6c.18.18.32.4.42.68.1.27.15.58.15.91zm-1.14 0a2 2 0 00-.07-.58c-.05-.16-.11-.28-.19-.38a.62.62 0 00-.28-.2.85.85 0 00-.33-.07.85.85 0 00-.34.07c-.1.04-.2.1-.27.2s-.13.22-.17.38c-.05.16-.07.35-.07.58 0 .23.02.41.07.57.04.14.1.26.17.36.08.09.17.16.27.2.1.03.22.06.34.06.12 0 .23-.03.33-.06.11-.05.2-.11.28-.2.08-.1.14-.22.19-.36.04-.16.07-.34.07-.57zm4.02-1.86a1 1 0 01.18-.16.54.54 0 01.3-.08h1.08l-6.44 8.46a.72.72 0 01-.19.16.54.54 0 01-.26.06h-1.1l6.43-8.44zm2.02 6.4a2.25 2.25 0 01-.6 1.56 2.02 2.02 0 01-2.2.44c-.25-.1-.46-.25-.64-.44a2.03 2.03 0 01-.42-.67 2.5 2.5 0 01-.15-.9c0-.33.05-.63.15-.9a1.83 1.83 0 011.05-1.12c.25-.1.51-.16.8-.16a2.01 2.01 0 011.43.59c.18.19.32.41.42.69.1.27.16.57.16.9zm-1.15 0c0-.23-.02-.43-.06-.58-.05-.16-.1-.28-.19-.38a.62.62 0 00-.27-.2.85.85 0 00-.34-.07.85.85 0 00-.34.06c-.1.05-.19.11-.27.2-.07.1-.13.23-.18.39-.04.15-.06.35-.06.58 0 .22.02.41.06.56.05.16.1.28.18.37.08.1.17.16.27.2.1.04.22.06.34.06.12 0 .23-.02.34-.06.1-.04.2-.1.27-.2.08-.1.14-.22.19-.37.04-.15.06-.34.06-.56z" fill="#5E78FF"/><circle cx="780.58" cy="138.1" r="48.49" stroke="#5E78FF" stroke-width="2"/><path d="M765.8 138.64c.3 0 .56-.03.78-.1.22-.08.4-.19.55-.32.14-.15.25-.31.33-.5a1.95 1.95 0 000-1.3 1.25 1.25 0 00-.33-.48 1.41 1.41 0 00-.54-.3c-.22-.08-.48-.11-.78-.11h-1.21v3.11h1.2zm0-4.36c.59 0 1.09.07 1.51.2.43.14.78.33 1.05.57.28.25.48.54.61.88.14.34.2.71.2 1.11 0 .43-.06.81-.2 1.16a2.4 2.4 0 01-.63.9c-.28.25-.63.45-1.06.6-.42.13-.91.2-1.47.2h-1.21v3.06h-1.61v-8.68h2.82zm9.07 4.89c0-.2-.03-.37-.09-.54a1.25 1.25 0 00-.24-.45 1.1 1.1 0 00-.41-.3 1.36 1.36 0 00-.58-.12c-.43 0-.76.13-1.01.37-.25.25-.4.6-.47 1.04h2.8zm-2.83.9c.02.3.08.58.17.81.09.23.2.42.35.58.14.14.31.25.5.33.2.07.43.1.67.1a2 2 0 00.61-.07 7.55 7.55 0 00.8-.37c.1-.06.2-.1.29-.1.12 0 .22.06.28.15l.42.54a2.54 2.54 0 01-1.2.8 4.79 4.79 0 01-1.34.21c-.42 0-.82-.08-1.19-.22a2.73 2.73 0 01-1.6-1.66 4.02 4.02 0 01-.03-2.6 2.77 2.77 0 011.51-1.62c.37-.17.78-.25 1.24-.25.39 0 .75.06 1.08.19a2.32 2.32 0 011.4 1.42c.13.34.2.74.2 1.18 0 .23-.03.38-.07.46-.05.08-.14.11-.28.11h-3.81zm11.98 2.89h-1.48v-5.03h-1.51c-.05.76-.12 1.41-.22 1.96-.1.54-.22 1-.36 1.39-.14.38-.3.68-.47.91-.16.23-.34.4-.54.54-.19.13-.39.2-.59.25-.2.04-.41.06-.62.06-.22 0-.38-.01-.48-.05-.1-.04-.15-.1-.15-.16v-.93h.35c.13 0 .26-.02.4-.06a.93.93 0 00.38-.24c.12-.13.24-.3.35-.53.12-.23.22-.53.31-.91.1-.38.18-.84.25-1.4.07-.54.13-1.2.17-1.96h4.21v6.16zm8-6.16v6.16h-1.49v-3.6a4.08 4.08 0 01.06-.64 2.91 2.91 0 01-.39.66 152.74 152.74 0 01-1.1 1.55l-1.18 1.66c-.06.09-.13.17-.23.25a.44.44 0 01-.3.12h-.9v-6.16h1.47v3.6l-.01.3-.04.34a3.13 3.13 0 01.38-.65 37.39 37.39 0 00.66-.93l.44-.63 1.19-1.67c.06-.08.13-.16.22-.24.1-.08.2-.12.31-.12h.9zm2.1.66c.23-.22.52-.4.86-.54a3.2 3.2 0 011.24-.22c.38 0 .72.05 1.01.14.3.09.55.21.75.37.2.15.35.32.46.53a1.26 1.26 0 01.1.98 1.4 1.4 0 01-.47.7c-.13.1-.28.19-.47.26.33.13.6.31.8.56.22.25.32.56.32.92 0 .3-.07.57-.21.8-.14.23-.32.43-.55.6-.22.15-.49.28-.78.36a3.26 3.26 0 01-2.68-.4c-.2-.13-.38-.3-.54-.48l.43-.54a.3.3 0 01.27-.14c.09 0 .18.03.26.09l.29.2c.11.06.24.12.4.18.15.06.34.09.57.09.37 0 .65-.09.84-.25a.8.8 0 00.29-.63c0-.25-.1-.45-.3-.59-.2-.14-.52-.2-.96-.2h-.7v-.97h.7c.39 0 .69-.07.9-.2.2-.14.3-.32.3-.55a.6.6 0 00-.27-.5c-.18-.13-.45-.2-.8-.2a1.92 1.92 0 00-.93.21l-.26.14a.39.39 0 01-.38.03.53.53 0 01-.16-.18l-.33-.56z" fill="#5E78FF"/><circle cx="780.58" cy="330.92" r="48.49" stroke="#5E78FF" stroke-width="2"/><path d="M774.14 318.24l-1.06-2.89a6.32 6.32 0 01-.33-1.03 11.53 11.53 0 01-.32 1.04l-1.05 2.88h2.76zm2.85 3.27h-1.25a.54.54 0 01-.34-.1.68.68 0 01-.2-.26l-.65-1.77h-3.59l-.65 1.77c-.03.09-.1.17-.18.25-.1.07-.21.11-.35.11h-1.26l3.41-8.67h1.65l3.41 8.67zm5.31-5.76a.83.83 0 01.7-.4h1.16l-1.44 2.3c-.1.15-.2.28-.3.38-.1.1-.23.17-.38.23.2.06.36.15.5.27.12.12.24.26.34.44l1.44 2.54h-1.03c-.26 0-.46-.04-.6-.13a1.1 1.1 0 01-.37-.38l-.9-1.7a.8.8 0 00-.75-.44h-.56v2.65h-1.49v-6.15h1.49v2.53h.48c.16 0 .3-.03.4-.09.1-.06.2-.16.26-.28l1.05-1.77zm9.12.7h-2.2v5.06h-1.48v-5.06h-2.19v-1.1h5.87v1.1zm-47.54 18.05c.3 0 .55-.08.73-.23a.77.77 0 00.28-.62.98.98 0 00-.05-.32.56.56 0 00-.16-.25.77.77 0 00-.3-.17c-.13-.04-.3-.06-.5-.06h-1.1v1.65h1.1zm-1.1-4.18v1.62h.96a1 1 0 00.7-.24.85.85 0 00.22-.28.86.86 0 00.02-.62.57.57 0 00-.16-.24.77.77 0 00-.3-.17 1.42 1.42 0 00-.48-.07h-.97zm1-.96c.4 0 .73.03 1 .11.3.08.52.18.7.31a1.24 1.24 0 01.55 1.06c0 .14-.02.27-.05.42-.04.14-.1.27-.19.4-.08.14-.2.26-.34.37-.15.1-.34.19-.57.25.2.04.4.1.56.18.17.08.31.18.43.3a1.3 1.3 0 01.38.94 1.59 1.59 0 01-.72 1.37c-.21.15-.47.26-.75.33-.29.08-.59.11-.9.11h-2.52v-6.15h2.42zm7.13 5.09c.34 0 .59-.08.75-.25a.88.88 0 00.25-.65.9.9 0 00-.23-.6.8.8 0 00-.31-.19 1.32 1.32 0 00-.47-.07h-1.1v1.76h1.11zm-.01-2.81c.43 0 .79.05 1.08.15.3.1.54.25.72.42.19.18.32.38.4.61a2.07 2.07 0 01-.03 1.52c-.1.24-.25.45-.45.63-.2.17-.44.3-.73.4-.28.1-.6.14-.97.14h-2.52v-6.15h1.4v2.28h1.1zm4.93-2.28v6.15h-1.48v-6.15h1.48zm7.82 6.15h-1.48v-5.06h-2.4v5.06h-1.48v-6.15h5.37v6.15zm5.2-6.25c.45 0 .87.07 1.24.22a2.7 2.7 0 011.58 1.63c.14.39.21.83.21 1.31 0 .49-.07.93-.21 1.32-.15.4-.35.73-.62 1-.26.28-.58.5-.96.64-.37.15-.79.22-1.24.22a3.4 3.4 0 01-1.26-.22 2.71 2.71 0 01-1.58-1.64 3.8 3.8 0 01-.22-1.32c0-.48.08-.92.22-1.31a2.75 2.75 0 011.58-1.63c.38-.15.8-.22 1.26-.22zm0 5.2c.5 0 .89-.17 1.13-.51.25-.35.37-.85.37-1.52a2.6 2.6 0 00-.37-1.51c-.24-.35-.62-.53-1.13-.53-.52 0-.9.18-1.16.53-.25.35-.37.85-.37 1.51s.12 1.17.37 1.52c.25.34.64.51 1.16.51zm10.72 1.05h-1.48v-5.02h-1.51c-.05.76-.12 1.4-.22 1.96-.1.54-.22 1-.36 1.38-.14.38-.3.69-.47.92-.16.23-.34.4-.53.53-.2.13-.4.22-.6.26-.2.04-.4.06-.62.06-.22 0-.38-.02-.48-.06-.1-.03-.15-.09-.15-.15v-.93h.35c.13 0 .26-.02.4-.06a.93.93 0 00.38-.24c.13-.13.24-.3.36-.53.1-.23.2-.54.3-.91.1-.38.18-.85.25-1.4.07-.54.13-1.2.17-1.96h4.21v6.15zm7.83-6.15v6.15h-1.49v-2.72h-2.4v2.72h-1.48v-6.15h1.49v2.33h2.4v-2.33h1.48zm6.43 2.37c0-.2-.03-.38-.08-.54a1.25 1.25 0 00-.24-.45 1.1 1.1 0 00-.42-.3 1.36 1.36 0 00-.57-.12c-.43 0-.77.12-1.02.37-.24.24-.4.59-.47 1.04h2.8zm-2.83.89c.03.32.09.59.17.82.1.23.2.42.35.57.14.15.32.26.51.34.2.07.42.1.66.1a2 2 0 00.62-.08c.18-.05.33-.12.46-.18l.34-.19c.1-.06.2-.08.28-.08.13 0 .22.04.28.13l.43.54a2.54 2.54 0 01-1.2.8 4.79 4.79 0 01-1.34.21c-.43 0-.83-.07-1.2-.2a2.73 2.73 0 01-1.6-1.67 4.02 4.02 0 01-.03-2.61 2.77 2.77 0 011.51-1.62c.37-.16.79-.24 1.25-.24.38 0 .74.06 1.07.19a2.32 2.32 0 011.4 1.42c.13.34.2.74.2 1.18 0 .22-.02.38-.07.46-.05.07-.14.11-.27.11H791zm11.64-3.26v6.15h-1.48v-2.72h-2.4v2.72h-1.49v-6.15h1.49v2.33h2.4v-2.33h1.48zm4.98 5.09c.34 0 .59-.08.75-.25a.88.88 0 00.25-.65.9.9 0 00-.23-.6.8.8 0 00-.31-.19 1.32 1.32 0 00-.47-.07h-1.1v1.76h1.11zm-.01-2.81c.43 0 .79.05 1.09.15.3.1.53.25.71.42.19.18.32.38.4.61a2.07 2.07 0 01-.03 1.52c-.1.24-.25.45-.45.63-.2.17-.44.3-.73.4-.28.1-.6.14-.97.14h-2.52v-6.15h1.4v2.28h1.1zm4.93-2.28v6.15h-1.48v-6.15h1.48zm7.96 6.15h-1.43a.4.4 0 01-.26-.08.83.83 0 01-.17-.2l-1.3-2.14-.07.2a1.1 1.1 0 01-.08.16l-1.16 1.79-.16.19a.35.35 0 01-.24.08h-1.32l2.1-3.17-2.02-2.98h1.43c.1 0 .19.01.24.04.05.03.1.08.14.15l1.29 2.05c.04-.14.1-.27.18-.4l1.04-1.62c.09-.15.2-.22.34-.22h1.36l-2.02 2.91 2.1 3.24zm-56.13 12.4c.17.21.35.35.54.44a1.66 1.66 0 001.26 0c.18-.09.33-.21.46-.39.12-.17.22-.38.29-.64.07-.27.1-.58.1-.93 0-.36-.03-.67-.09-.92a1.73 1.73 0 00-.25-.6.98.98 0 00-.4-.35 1.2 1.2 0 00-.51-.1c-.31 0-.57.06-.79.19-.22.13-.42.31-.61.55v2.76zm-.08-3.71c.25-.29.54-.52.86-.7a2.3 2.3 0 012.05-.05c.27.14.51.35.71.61.2.27.37.6.47.99a4.84 4.84 0 01-.01 2.61c-.13.4-.3.74-.54 1.02-.23.3-.5.52-.83.68-.33.16-.7.24-1.1.24-.34 0-.63-.05-.88-.15a2.2 2.2 0 01-.65-.45v2.52h-1.48v-8.16h.9c.2 0 .32.09.38.27l.12.57zm9.66 2.68a7.8 7.8 0 00-1.08.12c-.3.05-.53.12-.7.2a.92.92 0 00-.38.3.64.64 0 00-.12.36c0 .26.08.45.23.56.16.11.36.17.6.17.31 0 .57-.06.8-.16.22-.12.44-.28.65-.5v-1.05zm-3.4-2.67c.7-.64 1.56-.97 2.56-.97.36 0 .68.06.96.18a1.99 1.99 0 011.17 1.24c.1.3.15.62.15.96v3.9h-.67a.7.7 0 01-.32-.07c-.08-.04-.14-.13-.18-.26l-.13-.44-.46.37a2.8 2.8 0 01-.98.43 2.77 2.77 0 01-1.32-.04 1.62 1.62 0 01-.57-.32 1.41 1.41 0 01-.37-.52 1.85 1.85 0 01-.05-1.2c.05-.15.13-.3.25-.44s.27-.27.46-.4a3 3 0 01.69-.32 9.19 9.19 0 012.2-.33v-.36c0-.4-.08-.71-.26-.9-.17-.2-.43-.3-.76-.3a1.84 1.84 0 00-1.01.27l-.33.18c-.1.06-.2.09-.33.09-.1 0-.19-.03-.26-.08a.72.72 0 01-.17-.2l-.27-.47zm10.13 4.31c.51 0 .9-.16 1.15-.49.25-.33.38-.8.38-1.44 0-.63-.13-1.1-.38-1.43-.24-.33-.62-.5-1.12-.5-.5 0-.89.16-1.15.47-.26.31-.4.77-.4 1.39 0 .65.13 1.15.38 1.5.25.33.63.5 1.14.5zm.43-6.28c-.37.02-.7.1-.96.22-.27.12-.49.29-.66.5-.17.2-.3.44-.4.73-.09.29-.14.6-.16.95a2.33 2.33 0 01.86-.76 2.64 2.64 0 011.29-.3c.4 0 .77.07 1.1.21.33.15.6.35.84.62.23.26.4.58.52.95a3.82 3.82 0 01-.03 2.48 2.68 2.68 0 01-1.58 1.55c-.38.14-.8.21-1.25.21-.44 0-.85-.07-1.23-.21-.37-.15-.7-.38-.97-.7a3.45 3.45 0 01-.63-1.27 8.34 8.34 0 01-.05-3.65c.11-.54.3-1.01.57-1.42.26-.4.6-.73 1.03-.98.43-.25.96-.4 1.59-.44l2.19-.17.08.77c.01.16-.01.3-.08.42-.06.1-.17.17-.34.18l-1.73.11zm7.5 1.02c.45 0 .86.07 1.24.22a2.7 2.7 0 011.57 1.63c.15.39.22.83.22 1.31 0 .49-.07.93-.22 1.32-.14.4-.35.73-.62 1-.26.28-.58.5-.95.64-.38.15-.8.22-1.25.22a3.4 3.4 0 01-1.25-.22 2.71 2.71 0 01-1.59-1.64 3.8 3.8 0 01-.21-1.32c0-.48.07-.92.22-1.31.14-.4.35-.73.61-1 .27-.27.6-.48.97-.63.38-.15.8-.22 1.25-.22zm0 5.2c.5 0 .88-.17 1.13-.51.25-.35.37-.85.37-1.52a2.6 2.6 0 00-.37-1.51c-.25-.35-.63-.53-1.14-.53-.52 0-.9.18-1.15.53-.25.35-.38.85-.38 1.51s.13 1.17.38 1.52c.25.34.63.51 1.15.51zm10.26-4h-2.2v5.05h-1.47v-5.06H793v-1.1h5.87v1.1z" fill="#5E78FF"/><circle cx="513.02" cy="330.92" r="48.49" stroke="#5E78FF" stroke-width="2"/><path d="M497.16 321.46h-1.63v-7.43h-3.76v7.44h-1.62v-8.68h7.01v8.67zm5.23-6.25c.46 0 .87.08 1.24.23a2.7 2.7 0 011.58 1.62c.14.4.22.83.22 1.31 0 .5-.08.93-.22 1.32-.14.4-.35.73-.62 1-.26.28-.58.5-.96.64-.37.15-.78.23-1.24.23a3.4 3.4 0 01-1.25-.23 2.71 2.71 0 01-1.59-1.63 3.8 3.8 0 01-.21-1.32c0-.49.07-.93.21-1.32a2.75 2.75 0 011.58-1.63c.38-.14.8-.22 1.26-.22zm0 5.2c.51 0 .89-.17 1.13-.51.25-.34.38-.85.38-1.51a2.6 2.6 0 00-.38-1.52c-.24-.35-.62-.52-1.13-.52-.52 0-.9.17-1.16.52-.25.35-.37.86-.37 1.52s.12 1.16.37 1.5c.25.35.64.53 1.16.53zm10.73 1.05h-1.49v-5.02h-1.5c-.06.76-.13 1.41-.23 1.96-.1.54-.22 1-.36 1.39-.14.38-.29.68-.46.91-.17.23-.35.4-.54.54-.2.13-.4.2-.6.25-.2.04-.4.06-.61.06-.22 0-.39-.01-.49-.06-.1-.03-.15-.08-.15-.15v-.92h.35c.14 0 .27-.03.4-.06a.93.93 0 00.38-.25c.13-.13.25-.3.36-.53.11-.23.21-.53.3-.91.1-.38.18-.85.26-1.4.07-.54.12-1.2.16-1.96h4.22v6.15zm7.82-6.15v6.15h-1.48v-2.72h-2.4v2.72h-1.48v-6.15h1.48v2.33h2.4v-2.33h1.48zm5.72 3.53a7.8 7.8 0 00-1.08.11c-.3.05-.53.12-.7.2a.92.92 0 00-.38.3.64.64 0 00-.11.37c0 .25.07.44.22.55.16.12.36.17.61.17.3 0 .57-.05.79-.16.22-.11.44-.28.65-.5v-1.04zm-3.4-2.67c.71-.65 1.56-.98 2.56-.98.36 0 .68.06.97.19a1.99 1.99 0 011.16 1.24c.1.29.16.6.16.96v3.88h-.68a.7.7 0 01-.32-.06c-.08-.04-.14-.13-.18-.25l-.13-.45c-.16.14-.31.27-.46.38a2.8 2.8 0 01-.98.42 2.77 2.77 0 01-1.32-.04 1.62 1.62 0 01-.57-.32 1.41 1.41 0 01-.37-.52 1.85 1.85 0 01-.05-1.19c.05-.16.13-.3.25-.44s.27-.28.46-.4a3 3 0 01.7-.32 9.19 9.19 0 012.2-.33v-.36c0-.41-.09-.72-.26-.91-.18-.2-.43-.3-.77-.3a1.84 1.84 0 00-1.01.27l-.33.19c-.1.05-.2.08-.32.08-.1 0-.2-.03-.27-.08a.72.72 0 01-.17-.19l-.27-.47zm10.45 1.91v-1.8h-.8c-.19 0-.35.02-.47.08a.85.85 0 00-.3.2.74.74 0 00-.17.3c-.03.1-.05.21-.05.31 0 .29.1.51.29.67.19.16.44.24.76.24h.74zm1.41-2.77v6.15h-1.4V319h-.27c-.12 0-.22.01-.3.04a.6.6 0 00-.33.23l-.12.18-.98 1.51c-.05.09-.1.16-.16.23a.72.72 0 01-.43.25c-.09.02-.2.03-.33.03h-1.03l1.55-2.17a1.25 1.25 0 01.7-.59 2.54 2.54 0 01-.74-.24 1.45 1.45 0 01-.84-1.36 1.56 1.56 0 01.56-1.24c.2-.16.45-.3.76-.4.3-.1.67-.15 1.1-.15h2.26zm-42.65 13.9c.46 0 .87.08 1.24.23a2.7 2.7 0 011.58 1.62c.15.4.22.83.22 1.31 0 .5-.07.93-.22 1.32-.14.4-.35.73-.62 1-.26.28-.58.5-.96.64-.37.15-.78.23-1.24.23a3.4 3.4 0 01-1.25-.23 2.71 2.71 0 01-1.59-1.63 3.8 3.8 0 01-.21-1.32c0-.49.07-.93.21-1.32a2.75 2.75 0 011.58-1.63c.38-.14.8-.22 1.26-.22zm0 5.2c.51 0 .9-.17 1.14-.51.24-.34.37-.85.37-1.51a2.6 2.6 0 00-.37-1.52c-.25-.35-.63-.52-1.14-.52-.52 0-.9.17-1.16.52-.24.35-.37.86-.37 1.52s.13 1.16.37 1.5c.26.35.64.53 1.16.53zm10.53 1.05h-1.48v-5.05h-2.4v5.05h-1.48v-6.15H503v6.15zm8.18 0h-1.48v-5.02h-1.51c-.05.76-.12 1.41-.22 1.96-.1.54-.22 1-.36 1.39-.14.38-.3.68-.47.91-.16.23-.34.4-.53.54-.2.13-.4.2-.6.25-.2.04-.4.06-.62.06-.22 0-.38-.01-.48-.06-.1-.03-.15-.08-.15-.15v-.92h.35c.13 0 .26-.03.4-.06a.93.93 0 00.38-.25c.13-.13.24-.3.36-.53.1-.23.2-.53.3-.91.1-.38.18-.85.25-1.4.07-.54.13-1.2.17-1.96h4.21v6.15zm5.71-2.62a7.8 7.8 0 00-1.07.11c-.3.05-.53.12-.7.2a.92.92 0 00-.38.3.64.64 0 00-.12.37c0 .25.08.44.23.55.15.12.36.17.6.17.3 0 .57-.05.8-.16.22-.11.43-.28.64-.5v-1.04zm-3.4-2.67c.72-.65 1.57-.98 2.56-.98.37 0 .69.06.97.19a1.99 1.99 0 011.16 1.24c.1.29.16.6.16.96v3.88h-.67a.7.7 0 01-.32-.06c-.08-.04-.14-.13-.19-.25l-.13-.45a2.8 2.8 0 01-1.43.8 2.77 2.77 0 01-1.32-.04 1.62 1.62 0 01-.57-.32 1.41 1.41 0 01-.37-.52 1.85 1.85 0 01-.06-1.19c.06-.16.14-.3.25-.44.13-.14.28-.28.47-.4a3 3 0 01.69-.32 9.19 9.19 0 012.2-.33v-.36c0-.41-.08-.72-.26-.91-.17-.2-.43-.3-.76-.3a1.84 1.84 0 00-1.01.27l-.34.19c-.1.05-.2.08-.32.08-.1 0-.2-.03-.26-.08a.72.72 0 01-.18-.19l-.26-.47zm12.42.24h-2.2v5.05h-1.48v-5.05h-2.19v-1.1h5.87v1.1zm5.09 2.43a7.8 7.8 0 00-1.08.11c-.3.05-.53.12-.7.2a.92.92 0 00-.38.3.64.64 0 00-.11.37c0 .25.07.44.22.55.16.12.36.17.61.17.3 0 .57-.05.79-.16.22-.11.44-.28.65-.5v-1.04zm-3.4-2.67c.71-.65 1.56-.98 2.56-.98.36 0 .68.06.97.19a1.99 1.99 0 011.16 1.24c.1.29.16.6.16.96v3.88h-.68a.7.7 0 01-.32-.06c-.08-.04-.14-.13-.18-.25l-.13-.45c-.16.14-.31.27-.46.38a2.8 2.8 0 01-.98.42 2.77 2.77 0 01-1.32-.04 1.62 1.62 0 01-.57-.32 1.41 1.41 0 01-.37-.52 1.85 1.85 0 01-.05-1.19c.05-.16.13-.3.25-.44s.27-.28.46-.4a3 3 0 01.7-.32 9.19 9.19 0 012.2-.33v-.36c0-.41-.09-.72-.26-.91-.18-.2-.43-.3-.77-.3a1.84 1.84 0 00-1.01.27l-.33.19c-.1.05-.2.08-.32.08-.1 0-.2-.03-.27-.08a.72.72 0 01-.17-.19l-.27-.47zm-42.08 13.8c.24-.22.53-.4.87-.54a3.2 3.2 0 011.24-.22c.38 0 .71.05 1 .14.3.09.55.21.75.37.2.15.36.32.47.52a1.26 1.26 0 01.1.99 1.4 1.4 0 01-.47.7c-.13.1-.29.19-.48.26.34.13.61.31.81.56.21.25.32.56.32.92 0 .3-.07.57-.21.8-.14.23-.32.43-.55.6a3.26 3.26 0 01-3.47-.03c-.2-.14-.37-.3-.53-.5l.43-.53a.3.3 0 01.26-.14c.1 0 .19.03.27.09l.29.2c.1.06.24.12.4.18.15.06.34.09.56.09.38 0 .66-.09.85-.25a.8.8 0 00.29-.63c0-.25-.1-.45-.3-.59-.2-.14-.52-.2-.96-.2h-.7v-.97h.7c.39 0 .68-.07.9-.2.2-.14.3-.32.3-.55a.6.6 0 00-.27-.5c-.18-.13-.45-.2-.8-.2a1.92 1.92 0 00-.93.21l-.27.14a.39.39 0 01-.38.03.53.53 0 01-.15-.18l-.34-.56zm10.02 2.87a7.8 7.8 0 00-1.08.11c-.3.05-.53.12-.7.2a.92.92 0 00-.38.3.64.64 0 00-.12.37c0 .25.08.44.23.55.16.12.36.17.6.17.31 0 .58-.05.8-.16.22-.11.44-.28.65-.5v-1.04zm-3.4-2.67c.71-.65 1.56-.98 2.56-.98.36 0 .68.06.97.19a1.99 1.99 0 011.16 1.24c.1.29.16.6.16.96v3.88h-.68a.7.7 0 01-.32-.06c-.08-.04-.14-.13-.18-.25l-.13-.45c-.16.14-.31.27-.46.38a2.8 2.8 0 01-.98.42 2.77 2.77 0 01-1.32-.04 1.62 1.62 0 01-.57-.32 1.41 1.41 0 01-.37-.52 1.85 1.85 0 01-.05-1.19c.05-.16.13-.3.25-.44s.27-.28.46-.4a3 3 0 01.7-.32 9.19 9.19 0 012.2-.33v-.36c0-.41-.09-.72-.27-.91-.17-.2-.42-.3-.76-.3a1.84 1.84 0 00-1.01.27l-.33.19c-.1.05-.2.08-.32.08-.1 0-.2-.03-.27-.08a.72.72 0 01-.17-.19l-.27-.47zm18.3-.87v6.16h-1.34v-3.43a7.04 7.04 0 01.08-.96l-1.8 3.32a.44.44 0 01-.43.26h-.15a.44.44 0 01-.42-.26l-1.84-3.34a5.4 5.4 0 01.1.98v3.44h-1.34v-6.17h1.22c.1 0 .2.02.3.06.11.05.2.13.27.27l1.45 2.59a4.27 4.27 0 01.33.78l.15-.4c.06-.14.12-.27.19-.38l1.44-2.6a.53.53 0 01.25-.26c.1-.04.2-.06.3-.06h1.23zm6.43 2.38c0-.2-.03-.37-.09-.54a1.25 1.25 0 00-.24-.45 1.1 1.1 0 00-.41-.3 1.36 1.36 0 00-.58-.12c-.43 0-.76.13-1.01.37-.25.25-.4.6-.47 1.04h2.8zm-2.83.9c.02.3.08.58.17.81.09.23.2.42.35.57.14.15.31.27.5.34.2.07.43.1.67.1a2 2 0 00.61-.07 7.55 7.55 0 00.8-.37c.1-.06.2-.1.29-.1.12 0 .22.06.28.15l.42.54a2.54 2.54 0 01-1.2.8 4.79 4.79 0 01-1.34.21c-.42 0-.82-.07-1.19-.21a2.73 2.73 0 01-1.6-1.67 4.02 4.02 0 01-.03-2.6 2.77 2.77 0 011.51-1.62c.37-.17.78-.25 1.24-.25.39 0 .75.06 1.08.19a2.32 2.32 0 011.4 1.42c.13.35.2.74.2 1.18 0 .23-.03.38-.07.46-.05.08-.14.11-.28.11h-3.81zm10.68-1.97a.68.68 0 01-.13.13c-.04.03-.1.05-.18.05a.42.42 0 01-.22-.06 3.95 3.95 0 00-.62-.32c-.14-.05-.3-.07-.51-.07-.26 0-.49.05-.68.15-.2.09-.37.22-.5.4-.13.17-.22.39-.28.64-.07.25-.1.53-.1.85 0 .32.03.62.1.87.07.26.17.47.3.65.14.17.3.3.49.4.19.08.4.13.63.13a1.6 1.6 0 00.95-.28c.1-.07.18-.13.25-.2a.4.4 0 01.25-.08.3.3 0 01.27.14l.43.54a2.76 2.76 0 01-1.77.96c-.22.03-.43.05-.65.05a2.57 2.57 0 01-1.96-.83c-.25-.28-.44-.61-.6-1-.14-.4-.2-.85-.2-1.36 0-.45.05-.87.18-1.25.13-.39.33-.72.58-1 .25-.29.56-.5.93-.67.38-.16.8-.24 1.29-.24a2.94 2.94 0 012.14.86l-.39.54zm5.59 1.47v-1.8h-.8c-.2 0-.35.02-.47.08a.85.85 0 00-.3.2.74.74 0 00-.17.3c-.03.1-.05.21-.05.31 0 .29.1.51.28.67.2.16.45.24.77.24h.74zm1.41-2.77v6.15h-1.41V347h-.26c-.12 0-.22.01-.3.04a.6.6 0 00-.33.23l-.12.18-.98 1.51c-.05.09-.1.16-.16.23a.72.72 0 01-.43.25c-.1.02-.2.03-.34.03h-1.02l1.55-2.17a1.25 1.25 0 01.7-.59 2.54 2.54 0 01-.75-.24c-.2-.1-.36-.23-.48-.38a1.45 1.45 0 01-.36-.97c0-.23.05-.45.14-.67.09-.21.23-.4.43-.57.2-.17.45-.3.75-.4.31-.1.68-.16 1.11-.16h2.26zm8.97 5.06v2.71c0 .14-.04.25-.12.33a.41.41 0 01-.3.12h-.93v-2.06h-5.15v-6.16h1.48v5.06h2.4v-5.06h1.49v5.06h1.13zM103.73 311.2h-1.9v-8.68h-4.4v8.68h-1.88v-10.13h8.18v10.13zm9.5 0h-1.74v-5.86h-1.76c-.06.88-.14 1.64-.26 2.28-.12.63-.26 1.17-.42 1.62-.16.44-.34.8-.54 1.07-.2.26-.4.47-.63.62-.22.15-.45.25-.7.3-.23.04-.47.07-.71.07a1.7 1.7 0 01-.57-.07c-.12-.04-.18-.1-.18-.18v-1.08h.42c.15 0 .3-.02.46-.07.15-.05.3-.14.45-.29.14-.14.28-.35.41-.61.13-.27.25-.63.36-1.07.11-.44.2-.98.3-1.62.08-.64.14-1.4.19-2.3h4.91v7.19zm6.49-3.07c-.5.02-.92.07-1.26.13-.34.06-.61.14-.82.24-.2.1-.35.21-.44.34a.74.74 0 00-.13.43c0 .3.08.52.26.65s.42.2.7.2a2.06 2.06 0 001.69-.78v-1.21zm-3.96-3.12a4.26 4.26 0 012.98-1.13c.42 0 .8.07 1.13.21a2.32 2.32 0 011.35 1.45c.13.34.19.71.19 1.12v4.54h-.79a.83.83 0 01-.38-.07c-.08-.06-.16-.16-.2-.3l-.16-.52c-.18.16-.36.3-.53.43-.17.12-.35.22-.54.3a3.28 3.28 0 01-2.14.14 1.65 1.65 0 01-1.1-.98 2.16 2.16 0 01-.06-1.38c.05-.18.15-.35.29-.51.14-.17.32-.32.54-.47.22-.14.48-.27.8-.38a10.71 10.71 0 012.58-.38v-.42c0-.48-.1-.84-.3-1.06-.22-.24-.51-.35-.9-.35a2.12 2.12 0 00-1.18.32l-.39.22a.74.74 0 01-.37.1.52.52 0 01-.31-.1.84.84 0 01-.2-.22l-.31-.56zm14.53-1v7.19h-1.73v-3.18h-2.8v3.18h-1.73V304h1.73v2.73h2.8V304h1.73zm9.17 0v7.19h-1.73V307a4.94 4.94 0 01.06-.74 3.42 3.42 0 01-.44.76l-.33.46-.45.64-.51.71-1.38 1.95c-.07.1-.15.19-.26.28-.1.1-.22.14-.36.14H133v-7.18h1.73v4.2c0 .1 0 .22-.02.35 0 .13-.02.25-.04.39a3.62 3.62 0 01.44-.76l.32-.45.46-.63.51-.73c.4-.58.87-1.23 1.39-1.95.06-.1.15-.2.25-.29.11-.09.23-.14.37-.14h1.05zm9.16 0v7.19h-1.73V307a4.94 4.94 0 01.07-.74 3.42 3.42 0 01-.45.76l-.33.46-.45.64-.51.71-1.38 1.95c-.06.1-.15.19-.26.28-.1.1-.22.14-.36.14h-1.05v-7.18h1.73v4.2l-.03.35c0 .13-.02.25-.04.39a3.62 3.62 0 01.44-.76l.33-.45c.13-.2.28-.4.45-.63l.51-.73c.4-.58.87-1.23 1.39-1.95.06-.1.15-.2.26-.29.1-.09.23-.14.36-.14h1.05zm4.44 5.32c.2.24.4.41.63.5a1.93 1.93 0 001.47 0c.2-.09.38-.24.53-.44.15-.2.26-.45.34-.76.08-.3.12-.67.12-1.08 0-.42-.03-.78-.1-1.06-.07-.3-.16-.54-.29-.72a1.14 1.14 0 00-.46-.4 1.4 1.4 0 00-.61-.12c-.36 0-.67.07-.92.23a2.7 2.7 0 00-.71.63v3.22zm-.1-4.34c.3-.33.63-.6 1-.8a2.68 2.68 0 012.4-.06c.32.16.6.4.83.71.24.3.43.69.55 1.15a5.63 5.63 0 01-.02 3.05c-.15.46-.35.85-.62 1.19-.27.34-.6.6-.98.8-.37.18-.8.27-1.27.27-.4 0-.74-.06-1.03-.18-.28-.13-.54-.3-.76-.52v2.94h-1.73v-9.53h1.06c.22 0 .37.1.44.32l.14.66zm10.49-1.09c.53 0 1.02.09 1.45.26a3.12 3.12 0 011.84 1.9c.17.45.25.97.25 1.53 0 .57-.08 1.08-.25 1.54a3.1 3.1 0 01-1.84 1.91 3.9 3.9 0 01-1.45.26c-.54 0-1.02-.09-1.46-.26a3.18 3.18 0 01-1.85-1.9 4.45 4.45 0 01-.25-1.55c0-.56.08-1.07.25-1.53a3.2 3.2 0 011.85-1.9c.44-.17.92-.26 1.46-.26zm0 6.07c.6 0 1.04-.2 1.32-.6a3 3 0 00.44-1.76c0-.78-.15-1.37-.44-1.78-.28-.4-.72-.6-1.32-.6-.6 0-1.06.2-1.35.61-.29.4-.44 1-.44 1.77 0 .76.15 1.35.44 1.76.3.4.74.6 1.35.6zm8.8.04c.36 0 .65-.09.86-.26a.9.9 0 00.32-.73c0-.13-.02-.25-.06-.37a.66.66 0 00-.18-.3.9.9 0 00-.36-.2 1.96 1.96 0 00-.58-.06h-1.3V310h1.3zm-1.3-4.87v1.88h1.14a1.2 1.2 0 00.83-.28c.1-.09.18-.2.23-.32a1 1 0 00.03-.73.67.67 0 00-.19-.28.9.9 0 00-.35-.2 1.64 1.64 0 00-.55-.07h-1.13zm1.19-1.13c.45 0 .84.05 1.17.14.33.09.6.2.82.36a1.45 1.45 0 01.63 1.24 2 2 0 01-.06.48 1.58 1.58 0 01-.62.9c-.17.13-.4.22-.66.3.24.04.46.12.65.21.2.09.37.2.5.34a1.53 1.53 0 01.44 1.1 1.85 1.85 0 01-.83 1.6c-.25.18-.55.3-.89.39-.33.08-.67.13-1.04.13h-2.94V304h2.83zm9 4.12c-.5.02-.91.07-1.25.13-.34.06-.62.14-.82.24-.2.1-.35.21-.44.34a.74.74 0 00-.14.43c0 .3.1.52.27.65.18.13.42.2.7.2a2.06 2.06 0 001.69-.78v-1.21zm-3.95-3.12a4.26 4.26 0 012.98-1.13c.42 0 .8.07 1.12.21a2.32 2.32 0 011.36 1.45c.12.34.18.71.18 1.12v4.54h-.78a.83.83 0 01-.38-.07c-.09-.06-.16-.16-.2-.3l-.16-.52c-.18.16-.36.3-.53.43-.18.12-.36.22-.54.3a3.28 3.28 0 01-2.14.14 1.65 1.65 0 01-1.1-.98 2.16 2.16 0 01-.07-1.38c.06-.18.16-.35.3-.51.14-.17.32-.32.54-.47.22-.14.48-.27.8-.38a10.71 10.71 0 012.58-.38v-.42c0-.48-.1-.84-.31-1.06-.2-.24-.5-.35-.89-.35a2.12 2.12 0 00-1.18.32l-.39.22a.74.74 0 01-.38.1.52.52 0 01-.3-.1.84.84 0 01-.2-.22l-.31-.56zm14.53-1v7.19h-1.73v-3.18h-2.8v3.18h-1.73V304h1.73v2.73h2.8V304h1.73zm9.17 0v7.19h-1.73V307a4.4 4.4 0 01.06-.74 3.5 3.5 0 01-.45.76l-.33.46-.44.64-.51.71-1.38 1.95c-.07.1-.16.19-.26.28-.1.1-.22.14-.36.14h-1.06v-7.18h1.73v4.2c0 .1 0 .22-.02.35 0 .13-.02.25-.04.39a3.54 3.54 0 01.44-.76l.32-.45.46-.63.5-.73 1.4-1.95c.06-.1.15-.2.25-.29.11-.09.23-.14.37-.14h1.05zm7.33 2.77c0-.22-.03-.43-.1-.63-.06-.2-.15-.38-.28-.53a1.27 1.27 0 00-.48-.35c-.2-.08-.42-.13-.67-.13-.5 0-.9.14-1.18.43a2.1 2.1 0 00-.55 1.2h3.26zm-3.3 1.04c.03.37.1.69.2.96a2 2 0 00.4.67c.17.17.37.3.6.39.23.08.5.12.77.12.28 0 .52-.03.72-.1.2-.06.38-.13.53-.21.16-.08.3-.15.4-.22.12-.06.23-.1.34-.1.14 0 .25.06.32.17l.5.63a2.97 2.97 0 01-1.4.93 4.28 4.28 0 01-1.56.24c-.5 0-.97-.08-1.4-.24a3.17 3.17 0 01-1.86-1.94 4.69 4.69 0 01-.04-3.05 3.3 3.3 0 011.77-1.89 3.6 3.6 0 011.44-.28c.46 0 .87.07 1.26.22a2.71 2.71 0 011.63 1.66c.16.4.24.86.24 1.38 0 .26-.03.44-.09.53-.05.09-.16.13-.32.13h-4.44zm11.14-3.03c.27-.26.6-.47 1-.64.4-.16.89-.25 1.45-.25.44 0 .84.06 1.18.16.35.1.63.25.87.43s.42.38.54.62a1.47 1.47 0 01.12 1.14c-.03.15-.1.3-.2.43-.08.14-.2.27-.35.4-.15.1-.33.21-.55.3.39.14.7.36.94.65.25.3.37.65.37 1.07 0 .35-.09.66-.25.93s-.37.5-.64.7c-.26.18-.57.33-.91.42a3.8 3.8 0 01-3.13-.46 2.95 2.95 0 01-.62-.56l.5-.63c.06-.11.17-.17.3-.17.11 0 .22.04.32.1l.33.23c.13.08.29.16.46.23.18.06.4.1.67.1.43 0 .76-.1.99-.3.22-.2.33-.44.33-.73a.78.78 0 00-.35-.68c-.23-.17-.6-.25-1.12-.25h-.81v-1.13h.81c.45 0 .8-.07 1.04-.23.25-.16.37-.37.37-.63a.7.7 0 00-.32-.6 1.58 1.58 0 00-.94-.22 2.2 2.2 0 00-1.08.24l-.3.16a.45.45 0 01-.44.03.62.62 0 01-.19-.2l-.4-.66zm11.51 3.34c-.5.02-.91.07-1.26.13-.34.06-.6.14-.81.24-.21.1-.36.21-.45.34a.75.75 0 00-.13.43c0 .3.09.52.27.65.18.13.41.2.7.2.36 0 .67-.06.92-.2.26-.12.52-.32.76-.58v-1.21zm-3.96-3.12a4.26 4.26 0 012.98-1.13c.42 0 .8.07 1.13.21a2.3 2.3 0 011.36 1.45c.12.34.18.71.18 1.12v4.54h-.78a.84.84 0 01-.38-.07c-.09-.06-.16-.16-.21-.3l-.15-.52c-.19.16-.36.3-.54.43a3.25 3.25 0 01-1.14.5 3.27 3.27 0 01-1.54-.05 1.9 1.9 0 01-.66-.37 1.67 1.67 0 01-.44-.61c-.1-.24-.15-.53-.15-.85a1.67 1.67 0 01.38-1.06c.14-.16.32-.31.54-.46.22-.14.5-.27.8-.38a10.73 10.73 0 012.58-.38v-.42c0-.48-.1-.84-.3-1.06-.2-.24-.5-.35-.9-.35a2.13 2.13 0 00-1.18.32l-.38.22a.74.74 0 01-.38.1.52.52 0 01-.3-.1.86.86 0 01-.21-.22l-.3-.56zm13.07 4.95v-4.62h-1.77c-.04.6-.1 1.14-.17 1.63-.07.48-.15.9-.25 1.29a7.66 7.66 0 01-.65 1.7h2.84zm3-.04v3.17c0 .15-.05.28-.15.37-.09.1-.2.14-.35.14h-1.07v-2.4h-5.38v1.91c0 .13-.04.24-.12.34-.07.1-.2.15-.36.15h-1.09v-3.64h.2c.17 0 .33-.02.48-.06.16-.05.3-.14.44-.28.15-.14.28-.34.4-.6.14-.27.25-.62.36-1.06.1-.44.19-.98.26-1.63.08-.64.15-1.42.2-2.32h4.86v5.9h1.31zm5.88-1.79c-.5.02-.92.07-1.26.13-.34.06-.62.14-.82.24-.2.1-.35.21-.44.34a.74.74 0 00-.14.43c0 .3.1.52.27.65.18.13.42.2.7.2a2.06 2.06 0 001.69-.78v-1.21zm-3.97-3.12a4.26 4.26 0 012.99-1.13c.42 0 .8.07 1.12.21a2.32 2.32 0 011.36 1.45c.12.34.18.71.18 1.12v4.54h-.78a.83.83 0 01-.38-.07c-.09-.06-.16-.16-.2-.3l-.16-.52c-.18.16-.36.3-.53.43-.18.12-.36.22-.54.3a3.28 3.28 0 01-2.14.14 1.65 1.65 0 01-1.1-.98 2.16 2.16 0 01-.07-1.38c.06-.18.16-.35.3-.51.14-.17.32-.32.54-.47.22-.14.48-.27.8-.38a10.71 10.71 0 012.58-.38v-.42c0-.48-.1-.84-.31-1.06-.2-.24-.5-.35-.89-.35a2.12 2.12 0 00-1.18.32l-.39.22a.74.74 0 01-.38.1.52.52 0 01-.3-.1.84.84 0 01-.2-.22l-.31-.56zm13.95-1v7.19h-1.73v-2.82a9.1 9.1 0 01-1.71.25c-.53.02-.99-.04-1.37-.19a1.87 1.87 0 01-.9-.72 2.4 2.4 0 01-.33-1.32v-2.39h1.73v2.13c0 .29.05.53.14.7.1.19.25.31.45.4.22.07.48.1.81.1.33-.02.72-.08 1.18-.17v-3.16h1.73zm13.38 0v7.19h-1.73v-3.18h-2.8v3.18h-1.73V304h1.73v2.73h2.8V304h1.73zm6.5 4.12c-.5.02-.92.07-1.26.13-.34.06-.61.14-.81.24-.21.1-.36.21-.45.34a.74.74 0 00-.13.43c0 .3.09.52.27.65.18.13.41.2.7.2.36 0 .66-.06.92-.2.26-.12.52-.32.76-.58v-1.21zm-3.96-3.12a4.26 4.26 0 012.98-1.13c.42 0 .8.07 1.13.21a2.32 2.32 0 011.36 1.45c.12.34.18.71.18 1.12v4.54h-.78a.84.84 0 01-.38-.07c-.09-.06-.16-.16-.21-.3l-.16-.52c-.18.16-.35.3-.53.43a3.3 3.3 0 01-1.14.5 3.27 3.27 0 01-1.54-.05 1.9 1.9 0 01-.66-.37 1.66 1.66 0 01-.44-.61 2.16 2.16 0 01-.06-1.39c.06-.18.16-.35.3-.51.13-.17.31-.32.53-.47.22-.14.5-.27.8-.38a10.73 10.73 0 012.58-.38v-.42c0-.48-.1-.84-.3-1.06-.2-.24-.5-.35-.9-.35a2.13 2.13 0 00-1.18.32l-.38.22a.74.74 0 01-.38.1.52.52 0 01-.3-.1.84.84 0 01-.21-.22l-.3-.56zm17.83.52a.86.86 0 01-.16.16c-.04.03-.11.05-.2.05a.5.5 0 01-.26-.07 4.64 4.64 0 00-.73-.37 1.8 1.8 0 00-.59-.08c-.3 0-.57.05-.8.17-.23.1-.42.26-.57.47-.15.2-.26.45-.34.74-.07.3-.11.62-.11 1 0 .37.04.71.12 1.01.08.3.2.55.36.76.15.2.34.35.56.46.22.1.46.16.74.16.27 0 .5-.04.66-.1a2.39 2.39 0 00.74-.45c.09-.07.18-.1.3-.1.13 0 .24.05.3.16l.5.63a3.24 3.24 0 01-2.06 1.12c-.25.03-.5.05-.76.05a3 3 0 01-2.28-.97c-.3-.32-.53-.7-.7-1.16a4.59 4.59 0 01-.25-1.58c0-.53.07-1.01.22-1.46.16-.45.38-.84.67-1.17.3-.33.66-.6 1.1-.78.43-.19.93-.28 1.5-.28a3.42 3.42 0 012.5 1l-.46.63zm9.27 5.67h-1.73v-5.86h-1.76a19.9 19.9 0 01-.26 2.28 9.83 9.83 0 01-.42 1.62c-.16.44-.34.8-.54 1.07-.2.26-.4.47-.63.62-.22.15-.46.25-.7.3-.23.04-.47.07-.71.07-.26 0-.45-.02-.57-.07-.12-.04-.18-.1-.18-.18v-1.08h.42c.15 0 .3-.02.46-.07.15-.05.3-.14.45-.29.14-.14.28-.35.41-.61.13-.27.25-.63.36-1.07.1-.44.2-.98.3-1.62.08-.64.14-1.4.19-2.3h4.91v7.19zm7.33-4.42c0-.22-.03-.43-.1-.63-.06-.2-.15-.38-.28-.53a1.27 1.27 0 00-.48-.35c-.2-.08-.41-.13-.67-.13-.5 0-.9.14-1.18.43a2.1 2.1 0 00-.55 1.2h3.26zm-3.3 1.04c.03.37.1.69.2.96a2 2 0 00.4.67c.18.17.37.3.6.39.23.08.5.12.77.12.28 0 .52-.03.72-.1.2-.06.39-.13.54-.21l.4-.22c.11-.06.22-.1.33-.1.14 0 .25.06.32.17l.5.63a2.97 2.97 0 01-1.4.93 4.28 4.28 0 01-1.56.24c-.5 0-.97-.08-1.4-.24a3.17 3.17 0 01-1.86-1.94 4.69 4.69 0 01-.04-3.05 3.3 3.3 0 011.76-1.89 3.6 3.6 0 011.45-.28c.46 0 .87.07 1.26.22a2.71 2.71 0 011.63 1.66c.16.4.24.86.24 1.38 0 .26-.03.44-.09.53-.05.09-.16.13-.32.13h-4.44zm11.91 2.14v-4.62h-1.76c-.05.6-.1 1.14-.18 1.63-.06.48-.15.9-.24 1.29a7.66 7.66 0 01-.66 1.7h2.84zm3-.04v3.17c0 .15-.05.28-.14.37-.09.1-.2.14-.35.14h-1.08v-2.4h-5.37v1.91c0 .13-.04.24-.12.34-.08.1-.2.15-.36.15h-1.1v-3.64h.21c.16 0 .32-.02.48-.06.15-.05.3-.14.44-.28s.28-.34.4-.6c.13-.27.25-.62.35-1.06.1-.44.2-.98.27-1.63.08-.64.14-1.42.19-2.32h4.86v5.9h1.32zm8.23-5.9l-3.91 9.15a.63.63 0 01-.2.27c-.08.07-.2.1-.38.1h-1.29l1.35-2.88-2.9-6.65h1.51c.14 0 .24.04.32.1a.6.6 0 01.17.23l1.53 3.72c.05.13.1.25.13.38l.1.38a35.17 35.17 0 01.27-.77l1.44-3.71a.5.5 0 01.47-.33h1.39zm8.35 5.95c.56 0 .97-.2 1.24-.6.26-.4.4-1 .4-1.76 0-.78-.14-1.37-.4-1.78-.27-.4-.68-.6-1.24-.6-.56 0-.97.2-1.24.61-.27.4-.4 1-.4 1.77s.13 1.36.4 1.76c.26.4.67.6 1.24.6zm-3.33-3.03c.05-.47.17-.9.35-1.27a2.96 2.96 0 011.7-1.56c.38-.14.81-.2 1.28-.2.52 0 .99.08 1.4.25a3.04 3.04 0 011.78 1.9c.16.45.24.97.24 1.53 0 .57-.08 1.08-.25 1.54a3.08 3.08 0 01-1.8 1.91 3.8 3.8 0 01-2.7.04 2.96 2.96 0 01-1.68-1.6 4.19 4.19 0 01-.33-1.31h-1.42v3.03h-1.73V304h1.73v2.93h1.43zm20.31 2.98v3.17c0 .15-.04.28-.14.37-.09.1-.2.14-.35.14h-1.08v-2.4h-9.68V304h1.73v5.9h2.38v-5.9h1.72v5.9h2.38v-5.9h1.73v5.9h1.31zm8.55-5.9v7.18h-1.73V307a4.94 4.94 0 01.07-.74 3.42 3.42 0 01-.45.76l-.33.46a172.34 172.34 0 01-2.6 3.58c-.1.1-.22.14-.35.14h-1.06v-7.18h1.73v4.2c0 .1 0 .22-.02.35l-.05.39a3.7 3.7 0 01.45-.76l.32-.45c.13-.2.29-.4.45-.63l.51-.73 1.39-1.95c.07-.1.15-.2.26-.29.1-.09.23-.14.36-.14h1.05zm9.16 0v7.18h-1.72V307a4.94 4.94 0 01.06-.74 3.42 3.42 0 01-.45.76l-.33.46a172.34 172.34 0 01-2.6 3.58c-.1.1-.22.14-.35.14h-1.06v-7.18h1.73v4.2c0 .1 0 .22-.02.35l-.04.39a3.7 3.7 0 01.44-.76l.32-.45.45-.63.52-.73 1.38-1.95c.07-.1.15-.2.26-.29.1-.09.23-.14.37-.14h1.04zm-3.12-1.83c.17 0 .31-.01.43-.05a.6.6 0 00.28-.18.8.8 0 00.15-.35c.03-.15.04-.33.04-.54h1.02c.12 0 .21.06.27.16.06.1.09.2.09.33a1.33 1.33 0 01-.63 1.14c-.2.13-.44.23-.72.3a3.87 3.87 0 01-1.88 0 2.52 2.52 0 01-.71-.3 1.34 1.34 0 01-.62-1.14c0-.13.02-.23.08-.33a.3.3 0 01.27-.16h1.02c0 .21.02.4.05.54a.8.8 0 00.14.35.6.6 0 00.27.18c.12.04.27.05.45.05zM384.2 304v7.2h-1.56v-4a8.19 8.19 0 01.1-1.13l-2.1 3.87c-.11.2-.27.3-.5.3h-.18a.51.51 0 01-.5-.3l-2.13-3.9a6.64 6.64 0 01.1 1.15v4h-1.55V304h1.43c.12 0 .24.02.35.08.12.05.22.15.3.3l1.7 3.03a5.33 5.33 0 01.39.92l.18-.48c.06-.16.13-.3.2-.44l1.69-3.03c.08-.15.18-.26.3-.3a.86.86 0 01.35-.08h1.43zm7.34 2.78c0-.22-.03-.43-.1-.63-.06-.2-.15-.38-.28-.53a1.27 1.27 0 00-.48-.35c-.2-.08-.42-.13-.67-.13-.5 0-.9.14-1.19.43a2.1 2.1 0 00-.54 1.2h3.26zm-3.3 1.04c.03.37.1.69.2.96s.24.49.4.67c.17.17.37.3.6.39.23.08.49.12.77.12s.52-.03.72-.1c.2-.06.38-.13.53-.21l.4-.22c.12-.06.23-.1.34-.1.14 0 .25.06.32.17l.5.63c-.2.22-.4.4-.65.56a3.9 3.9 0 01-1.54.56c-.26.03-.52.05-.77.05-.5 0-.97-.08-1.4-.24a3.18 3.18 0 01-1.87-1.94 4.69 4.69 0 01-.03-3.05 3.23 3.23 0 011.76-1.89 3.6 3.6 0 011.45-.28c.45 0 .87.07 1.25.22a2.7 2.7 0 011.64 1.66c.15.4.23.86.23 1.38 0 .26-.02.44-.08.53-.06.09-.16.13-.32.13h-4.45zm12.3-2.29a.8.8 0 01-.16.16c-.04.03-.11.05-.2.05a.5.5 0 01-.27-.07 4.38 4.38 0 00-.72-.37 1.8 1.8 0 00-.6-.08c-.3 0-.56.05-.8.17-.22.1-.41.26-.56.47-.15.2-.27.45-.34.74-.07.3-.11.62-.11 1 0 .37.04.71.12 1.01.08.3.2.55.35.76.16.2.34.35.56.46.22.1.47.16.75.16a1.87 1.87 0 001.1-.33l.3-.22c.08-.07.18-.1.29-.1.14 0 .24.05.31.16l.5.63a3.21 3.21 0 01-2.06 1.12c-.26.03-.5.05-.76.05a3 3 0 01-2.28-.97c-.3-.32-.53-.7-.7-1.16a4.59 4.59 0 01-.25-1.58c0-.53.07-1.01.22-1.46.15-.45.38-.84.67-1.17.3-.33.66-.6 1.1-.78.43-.19.93-.28 1.5-.28a3.42 3.42 0 012.5 1l-.46.63zm6.35 1.72v-2.1h-.94c-.22 0-.4.02-.54.09a1 1 0 00-.36.24.88.88 0 00-.19.34c-.04.13-.06.25-.06.37 0 .33.11.6.33.78.23.18.53.28.9.28h.86zm1.65-3.24v7.19h-1.65v-2.89h-.3c-.14 0-.26.02-.35.04a.7.7 0 00-.4.27l-.13.22-1.14 1.76c-.06.1-.12.19-.19.26a.86.86 0 01-.5.3c-.1.02-.24.04-.4.04h-1.19l1.81-2.54a1.45 1.45 0 01.8-.68 2.97 2.97 0 01-.85-.28 2.1 2.1 0 01-.57-.45 1.72 1.72 0 01-.41-1.14 1.84 1.84 0 01.66-1.45c.22-.2.52-.35.88-.46.36-.13.79-.19 1.3-.19h2.63zm10.3 5.9v3.18c0 .15-.05.28-.14.37-.1.1-.22.14-.36.14h-1.08v-2.4h-6V304h1.72v5.9h2.8v-5.9h1.73v5.9h1.33z" fill="#5E78FF"/><circle cx="513.02" cy="136.05" r="134.83" fill="#fff" stroke="#5E78FF" stroke-width="2"/><circle cx="512.84" cy="66.89" r="48.49" stroke="#5E78FF" stroke-width="2"/><circle cx="569.86" cy="162.31" r="48.49" stroke="#5E78FF" stroke-width="2"/><path d="M480.02 60.6c.3 0 .56-.03.78-.1.22-.08.4-.18.54-.32.15-.14.26-.3.33-.5a1.95 1.95 0 000-1.3 1.25 1.25 0 00-.32-.48 1.41 1.41 0 00-.55-.3c-.22-.07-.48-.1-.78-.1h-1.2v3.1h1.2zm0-4.36c.58 0 1.09.07 1.5.2.43.14.78.33 1.06.58.28.24.48.53.61.87.14.34.2.72.2 1.12 0 .42-.06.8-.2 1.16a2.4 2.4 0 01-.63.9c-.29.25-.64.45-1.06.59-.42.14-.91.2-1.48.2h-1.2v3.06h-1.62v-8.68h2.82zm8.44 6.05a7.8 7.8 0 00-1.08.12c-.29.05-.52.12-.7.2a.92.92 0 00-.38.3.64.64 0 00-.11.36c0 .26.07.45.23.56.15.11.35.17.6.17.3 0 .57-.06.79-.17.22-.1.44-.28.65-.5v-1.04zm-3.4-2.67c.71-.65 1.57-.97 2.56-.97.36 0 .69.06.97.18a1.99 1.99 0 011.16 1.24c.1.3.16.61.16.96v3.89h-.67a.7.7 0 01-.33-.06c-.07-.04-.13-.13-.18-.26l-.13-.44c-.16.14-.3.26-.46.37a2.8 2.8 0 01-.97.43 2.77 2.77 0 01-1.32-.05 1.62 1.62 0 01-.57-.31 1.41 1.41 0 01-.38-.53 1.85 1.85 0 01-.05-1.18c.05-.16.14-.3.25-.45.12-.14.28-.27.46-.4a3 3 0 01.7-.32 9.19 9.19 0 012.2-.33v-.36c0-.41-.08-.71-.26-.91-.18-.2-.43-.3-.76-.3a1.84 1.84 0 00-1.02.28l-.33.18c-.1.06-.2.09-.32.09-.1 0-.2-.03-.26-.08a.72.72 0 01-.18-.2l-.26-.47zm6.88-.19c.24-.22.52-.4.87-.55a3.2 3.2 0 011.24-.21c.38 0 .71.04 1 .14.3.08.55.2.75.36.2.15.36.33.46.53a1.26 1.26 0 01.11.98 1.4 1.4 0 01-.47.7c-.13.1-.29.2-.47.26.33.13.6.32.8.57.21.25.32.55.32.92 0 .3-.07.56-.21.8-.14.23-.32.42-.55.59a3.26 3.26 0 01-3.47-.03c-.2-.13-.37-.3-.53-.49l.42-.54a.3.3 0 01.28-.14c.09 0 .18.03.26.1l.29.19a1.66 1.66 0 00.97.28c.37 0 .65-.1.84-.26a.8.8 0 00.29-.63c0-.25-.1-.44-.3-.58-.2-.14-.52-.21-.96-.21h-.7v-.97h.7c.38 0 .68-.07.9-.2.2-.14.3-.32.3-.54a.6.6 0 00-.27-.5c-.18-.14-.45-.2-.8-.2a1.92 1.92 0 00-.93.2l-.26.14a.39.39 0 01-.38.03.53.53 0 01-.16-.17l-.33-.57zm8.25 3.9c.17.2.35.34.55.43a1.66 1.66 0 001.25 0c.18-.09.33-.22.45-.39.13-.17.23-.39.3-.65.07-.26.1-.57.1-.93 0-.36-.03-.66-.09-.9a1.73 1.73 0 00-.25-.62.98.98 0 00-.4-.34 1.2 1.2 0 00-.51-.11c-.31 0-.57.07-.79.2-.22.13-.42.3-.61.54v2.76zm-.08-3.73c.25-.28.54-.51.86-.69a2.3 2.3 0 012.04-.05c.29.14.53.34.73.61.2.27.36.6.46.99a4.84 4.84 0 01-.01 2.61c-.13.4-.3.73-.54 1.02-.23.29-.5.52-.83.68-.33.16-.7.24-1.1.24-.34 0-.63-.05-.88-.16a2.2 2.2 0 01-.65-.44v2.52h-1.48v-8.17h.9c.2 0 .32.1.38.27l.12.57zm9.66 2.7a7.8 7.8 0 00-1.08.1c-.3.06-.53.13-.7.21a.92.92 0 00-.38.3.64.64 0 00-.12.36c0 .26.08.45.23.56.16.11.36.17.6.17.31 0 .57-.06.8-.17.22-.1.44-.28.65-.5v-1.04zm-3.4-2.68c.71-.65 1.56-.97 2.56-.97.36 0 .68.06.96.18a1.99 1.99 0 011.17 1.24c.1.3.15.61.15.96v3.89h-.67a.7.7 0 01-.32-.06c-.08-.04-.14-.13-.18-.26l-.13-.44-.46.37a2.8 2.8 0 01-.98.43 2.77 2.77 0 01-1.32-.05 1.62 1.62 0 01-.57-.31 1.41 1.41 0 01-.37-.53 1.85 1.85 0 01-.05-1.18c.05-.16.13-.3.25-.45.12-.14.27-.27.46-.4a3 3 0 01.69-.32 9.19 9.19 0 012.2-.33v-.36c0-.41-.08-.71-.26-.91-.17-.2-.43-.3-.76-.3a1.84 1.84 0 00-1.01.28l-.33.18c-.1.06-.2.09-.33.09-.1 0-.19-.03-.26-.08a.72.72 0 01-.17-.2l-.27-.47zm10.13 4.31c.51 0 .9-.16 1.15-.5.25-.32.38-.8.38-1.43 0-.63-.13-1.1-.38-1.44-.24-.32-.61-.49-1.12-.49-.5 0-.89.16-1.15.47-.26.3-.4.77-.4 1.39 0 .65.13 1.15.38 1.49.25.34.63.51 1.14.51zm.43-6.28c-.37.02-.7.1-.96.22-.27.12-.49.28-.66.5-.17.2-.3.44-.4.73-.09.28-.14.6-.15.95.1-.16.22-.3.36-.43a2.64 2.64 0 011.78-.64c.4 0 .77.08 1.1.22.33.15.6.35.84.61.23.27.4.59.52.96a3.82 3.82 0 01-.03 2.48 2.68 2.68 0 01-1.58 1.55c-.38.14-.8.21-1.25.21-.44 0-.85-.07-1.23-.22-.37-.14-.7-.37-.96-.7a3.45 3.45 0 01-.64-1.26 8.34 8.34 0 01-.05-3.65c.11-.54.3-1.01.57-1.42.26-.4.6-.73 1.03-.98.43-.25.96-.4 1.59-.45l2.19-.16.08.76c.01.17-.01.3-.08.42-.06.12-.17.18-.34.18l-1.73.12zm7.5 1.02c.45 0 .86.07 1.24.22a2.7 2.7 0 011.57 1.63c.15.39.22.83.22 1.31 0 .49-.07.93-.22 1.32a2.65 2.65 0 01-1.58 1.64c-.37.15-.78.22-1.24.22a3.4 3.4 0 01-1.25-.22 2.71 2.71 0 01-1.58-1.64 3.8 3.8 0 01-.22-1.32c0-.48.07-.92.22-1.31.14-.4.35-.73.61-1 .27-.27.6-.48.97-.63.38-.15.8-.22 1.25-.22zm0 5.2c.5 0 .88-.17 1.13-.52.25-.34.37-.84.37-1.5a2.6 2.6 0 00-.37-1.53c-.25-.34-.62-.52-1.14-.52-.52 0-.9.18-1.15.53-.25.35-.38.85-.38 1.51s.13 1.17.38 1.51c.25.35.63.52 1.15.52zm10.26-4h-2.2v5.05h-1.47v-5.06h-2.2v-1.1h5.87v1.1zm5.55-.72a.83.83 0 01.7-.39h1.16l-1.44 2.29c-.1.16-.2.29-.3.39-.1.1-.23.17-.38.23.2.06.37.15.5.27.12.11.24.26.34.44l1.44 2.54h-1.02c-.26 0-.47-.04-.61-.13a1.1 1.1 0 01-.37-.38l-.9-1.7a.8.8 0 00-.75-.44h-.56v2.65h-1.48v-6.16h1.48v2.54h.48c.17 0 .3-.03.4-.09.1-.06.2-.16.27-.29l1.04-1.77zm7.1 3.14a7.8 7.8 0 00-1.09.12c-.29.05-.52.12-.7.2a.92.92 0 00-.38.3.64.64 0 00-.11.36c0 .26.08.45.23.56.15.11.36.17.6.17.3 0 .57-.06.79-.17.22-.1.44-.28.65-.5v-1.04zm-3.4-2.67c.7-.65 1.56-.97 2.55-.97.36 0 .69.06.97.18a1.99 1.99 0 011.16 1.24c.1.3.16.61.16.96v3.89h-.67a.7.7 0 01-.33-.06c-.07-.04-.13-.13-.18-.26l-.13-.44c-.15.14-.3.26-.45.37a2.8 2.8 0 01-.98.43 2.77 2.77 0 01-1.32-.05 1.62 1.62 0 01-.57-.31 1.41 1.41 0 01-.37-.53 1.85 1.85 0 01-.06-1.18c.05-.16.14-.3.25-.45.12-.14.28-.27.47-.4a3 3 0 01.69-.32 9.19 9.19 0 012.2-.33v-.36c0-.41-.08-.71-.26-.91-.18-.2-.43-.3-.76-.3a1.84 1.84 0 00-1.02.28l-.33.18c-.1.06-.2.09-.32.09-.1 0-.2-.03-.26-.08a.72.72 0 01-.18-.2l-.26-.47zm-53.45 19.3H489v-5.06h-2.4v5.06h-1.48v-6.16h5.37v6.16zm5.19-6.25c.45 0 .87.07 1.24.22a2.7 2.7 0 011.58 1.63c.14.39.21.83.21 1.31 0 .49-.07.93-.21 1.32-.14.4-.35.73-.62 1-.26.28-.58.49-.96.64-.37.15-.79.22-1.24.22a3.4 3.4 0 01-1.25-.22 2.71 2.71 0 01-1.59-1.64 3.8 3.8 0 01-.21-1.32c0-.48.07-.92.21-1.31a2.75 2.75 0 011.58-1.63c.38-.15.8-.22 1.26-.22zm0 5.2c.51 0 .89-.17 1.13-.52.25-.34.38-.84.38-1.5a2.6 2.6 0 00-.38-1.53c-.24-.34-.62-.52-1.13-.52-.52 0-.9.18-1.16.53-.25.35-.37.85-.37 1.51s.12 1.17.37 1.51c.25.35.64.52 1.16.52zm14.45 1.05h-1.48v-5.06h-2.4v5.06h-1.49v-6.16h5.37v6.16zm8.18 0h-1.48V73.9h-1.52c-.04.75-.12 1.4-.22 1.95s-.22 1.01-.36 1.39c-.13.38-.29.69-.46.92-.17.23-.35.4-.54.53-.2.13-.39.21-.6.25-.2.05-.4.07-.61.07-.22 0-.38-.02-.49-.06-.1-.04-.15-.09-.15-.16v-.92h.36c.13 0 .26-.02.4-.06a.93.93 0 00.38-.25c.12-.12.24-.3.35-.52.11-.24.21-.54.3-.92.1-.38.19-.84.26-1.39.07-.55.13-1.2.17-1.97h4.2v6.16zm5.71-2.63a7.8 7.8 0 00-1.08.12c-.3.05-.53.12-.7.2a.92.92 0 00-.38.3.64.64 0 00-.11.36c0 .26.07.45.22.56.16.11.36.17.61.17.3 0 .57-.06.79-.17.22-.1.44-.28.65-.5v-1.04zm-3.4-2.67c.71-.65 1.56-.97 2.56-.97.36 0 .68.06.97.18a1.99 1.99 0 011.16 1.24c.1.3.16.61.16.96v3.89h-.68a.7.7 0 01-.32-.06c-.08-.04-.14-.13-.18-.26l-.13-.44-.46.37a2.8 2.8 0 01-.98.43 2.77 2.77 0 01-1.32-.05 1.62 1.62 0 01-.57-.31 1.41 1.41 0 01-.37-.53 1.85 1.85 0 01-.05-1.18c.05-.16.13-.3.25-.45.12-.14.27-.27.46-.4a3 3 0 01.7-.32 9.19 9.19 0 012.2-.33v-.36c0-.41-.09-.71-.26-.91-.18-.2-.43-.3-.77-.3a1.84 1.84 0 00-1.01.28l-.33.18c-.1.06-.2.09-.32.09-.1 0-.2-.03-.27-.08a.72.72 0 01-.17-.2l-.27-.47zm12.6-.86v6.16h-1.48V76.2h-2.4v2.72h-1.48v-6.16h1.48v2.34h2.4v-2.34h1.49zm8.07 0l-3.36 7.85c-.04.1-.1.18-.17.24-.07.05-.18.08-.32.08h-1.1l1.15-2.47-2.5-5.7h1.31c.12 0 .2.03.27.09.07.05.12.12.15.19l1.3 3.2a7.94 7.94 0 01.2.65 32.3 32.3 0 01.23-.66l1.24-3.19a.44.44 0 01.4-.28h1.2zM418.6 163.07h-1.46a.61.61 0 01-.38-.12c-.1-.08-.2-.2-.28-.35l-1.85-2.92a.85.85 0 00-.33-.34.57.57 0 00-.21-.07 1.71 1.71 0 00-.27-.02h-.96v3.82h-1.62v-8.67h1.62v3.63h.81a1 1 0 00.43-.08.87.87 0 00.34-.31l1.9-2.81c.08-.13.17-.24.28-.32.1-.07.24-.11.39-.11h1.38l-2.36 3.47a1.5 1.5 0 01-.78.62c.24.06.44.17.6.32.17.15.33.34.48.6l2.28 3.66zm4.02-6.25c.46 0 .87.07 1.24.22a2.7 2.7 0 011.58 1.63c.14.39.22.83.22 1.31 0 .49-.08.93-.22 1.32-.14.4-.35.73-.62 1-.26.28-.58.5-.96.64-.37.15-.78.22-1.24.22a3.4 3.4 0 01-1.25-.22 2.71 2.71 0 01-1.59-1.64 3.8 3.8 0 01-.21-1.32c0-.48.07-.92.21-1.31a2.75 2.75 0 011.58-1.63c.38-.15.8-.22 1.26-.22zm0 5.2c.51 0 .9-.17 1.13-.52.25-.34.38-.84.38-1.5a2.6 2.6 0 00-.38-1.53c-.24-.34-.62-.52-1.13-.52-.52 0-.9.18-1.16.53-.25.35-.37.85-.37 1.51s.13 1.17.37 1.51c.25.35.64.52 1.16.52zm6.65-.55c.17.2.35.35.55.44a1.66 1.66 0 001.25 0c.18-.09.33-.22.45-.39.13-.17.23-.39.3-.65.07-.26.1-.57.1-.93 0-.35-.03-.66-.09-.9a1.73 1.73 0 00-.25-.62.98.98 0 00-.4-.34 1.2 1.2 0 00-.51-.1c-.31 0-.57.06-.79.19-.21.13-.42.3-.61.55v2.75zm-.08-3.72c.25-.28.54-.5.86-.69a2.3 2.3 0 012.05-.05c.27.14.51.34.71.61.2.27.37.6.47.99a4.84 4.84 0 01-.01 2.61c-.13.4-.3.74-.54 1.02-.23.3-.5.52-.83.68-.33.16-.7.24-1.1.24-.34 0-.63-.05-.88-.16a2.2 2.2 0 01-.65-.44v2.52h-1.48v-8.17h.9c.2 0 .32.1.38.28l.12.56zm7.89 3.72c.17.2.35.35.54.44a1.66 1.66 0 001.26 0c.18-.09.33-.22.45-.39.13-.17.23-.39.3-.65.07-.26.1-.57.1-.93 0-.35-.03-.66-.09-.9a1.73 1.73 0 00-.25-.62.98.98 0 00-.4-.34 1.2 1.2 0 00-.51-.1c-.31 0-.57.06-.79.19-.22.13-.42.3-.61.55v2.75zm-.08-3.72c.25-.28.54-.5.86-.69a2.3 2.3 0 012.04-.05c.28.14.52.34.72.61.2.27.36.6.47.99a4.84 4.84 0 01-.02 2.61c-.12.4-.3.74-.53 1.02-.23.3-.5.52-.83.68-.33.16-.7.24-1.1.24-.34 0-.63-.05-.88-.16a2.2 2.2 0 01-.65-.44v2.52h-1.48v-8.17h.9c.2 0 .32.1.38.28l.12.56zm10.37 1.53c0-.19-.03-.37-.08-.53a1.25 1.25 0 00-.24-.46 1.1 1.1 0 00-.42-.3 1.36 1.36 0 00-.57-.1c-.43 0-.77.11-1.02.36-.24.24-.4.59-.47 1.03h2.8zm-2.82.9c.02.31.07.59.16.82.1.23.2.42.35.57.14.15.31.26.51.34.2.07.42.1.66.1a2 2 0 00.62-.08 7.55 7.55 0 00.8-.37c.1-.06.2-.09.28-.09.13 0 .22.05.28.14l.43.54a2.54 2.54 0 01-1.2.8 4.79 4.79 0 01-1.34.21c-.43 0-.83-.07-1.2-.2a2.73 2.73 0 01-1.6-1.67 4.02 4.02 0 01-.03-2.61 2.77 2.77 0 011.51-1.62c.37-.16.79-.24 1.25-.24.39 0 .74.06 1.07.19a2.32 2.32 0 011.4 1.42c.13.34.2.73.2 1.18 0 .22-.02.38-.07.45-.05.08-.14.12-.27.12h-3.81zm9.94-2.88a.83.83 0 01.7-.39h1.16l-1.44 2.3c-.1.15-.2.28-.3.38-.1.1-.23.17-.38.23.2.06.36.15.5.27.12.12.23.26.34.44l1.44 2.54h-1.03c-.26 0-.46-.04-.6-.13a1.1 1.1 0 01-.37-.38l-.9-1.7a.8.8 0 00-.75-.44h-.56v2.65h-1.49v-6.16h1.49v2.54h.48c.17 0 .3-.03.4-.09.1-.06.2-.16.26-.29l1.05-1.76zm9.12.71h-2.2v5.06h-1.48v-5.06h-2.19v-1.1h5.87v1.1zm3.35 3.47c.17.2.36.34.55.43a1.66 1.66 0 001.25 0c.19-.09.34-.22.46-.39.13-.17.23-.39.3-.65.06-.26.1-.57.1-.93 0-.35-.03-.66-.1-.9a1.73 1.73 0 00-.24-.62.98.98 0 00-.4-.34 1.2 1.2 0 00-.52-.1c-.3 0-.57.06-.78.19-.22.13-.42.3-.62.55v2.75zm-.07-3.72c.25-.29.54-.52.86-.7a2.3 2.3 0 012.04-.05c.28.14.52.34.72.61.2.27.36.6.47.99a4.84 4.84 0 01-.02 2.61c-.12.4-.3.74-.53 1.02a2.43 2.43 0 01-1.93.92c-.34 0-.64-.05-.88-.16a2.2 2.2 0 01-.66-.44v2.52h-1.48v-8.17h.9c.2 0 .33.1.39.28l.12.56zm9.13-.94c.45 0 .87.07 1.24.22a2.7 2.7 0 011.57 1.63c.15.39.22.83.22 1.31 0 .49-.07.93-.22 1.32a2.65 2.65 0 01-1.58 1.64c-.37.15-.78.22-1.24.22a3.4 3.4 0 01-1.25-.22 2.71 2.71 0 01-1.58-1.64 3.8 3.8 0 01-.22-1.32c0-.48.07-.92.22-1.31a2.75 2.75 0 011.58-1.63c.38-.15.8-.22 1.25-.22zm0 5.2c.5 0 .88-.17 1.13-.52.25-.34.37-.84.37-1.5a2.6 2.6 0 00-.37-1.53c-.25-.34-.62-.52-1.13-.52-.52 0-.91.18-1.16.53-.25.35-.38.85-.38 1.51s.13 1.17.38 1.51c.25.35.63.52 1.15.52zm7.68.04c.3 0 .55-.08.73-.23a.77.77 0 00.28-.63.98.98 0 00-.05-.3.56.56 0 00-.15-.27.77.77 0 00-.32-.16c-.12-.04-.29-.06-.49-.06h-1.1v1.65h1.1zm-1.1-4.18v1.62h.96c.15 0 .28-.03.4-.06a.85.85 0 00.52-.46.86.86 0 00.02-.63.57.57 0 00-.16-.23.77.77 0 00-.3-.17 1.42 1.42 0 00-.48-.07h-.97zm1-.97c.4 0 .73.04 1 .12.3.07.53.18.71.31a1.24 1.24 0 01.54 1.06c0 .13-.02.27-.05.42a1.34 1.34 0 01-.53.77c-.15.1-.34.19-.57.25.2.04.4.1.56.18.17.08.31.18.43.3a1.3 1.3 0 01.38.94 1.59 1.59 0 01-.72 1.37c-.21.15-.47.26-.75.33-.29.07-.59.11-.9.11h-2.52v-6.16h2.43zm8.3.4a.83.83 0 01.69-.4h1.16l-1.44 2.3c-.1.15-.2.28-.3.38-.1.1-.23.17-.38.23.2.06.37.15.5.27.12.12.24.26.34.44l1.44 2.54h-1.03c-.25 0-.46-.04-.6-.13a1.1 1.1 0 01-.37-.38l-.9-1.7a.8.8 0 00-.75-.44h-.56v2.65h-1.48v-6.16h1.48v2.54h.48c.17 0 .3-.03.4-.09.1-.06.2-.16.27-.29l1.04-1.76zm7.09 3.13a7.8 7.8 0 00-1.09.12c-.29.05-.52.12-.7.2a.92.92 0 00-.38.3.64.64 0 00-.1.36c0 .26.07.45.22.56.16.11.36.17.6.17.3 0 .57-.06.8-.16.22-.12.43-.28.65-.5v-1.05zm-3.4-2.67c.7-.65 1.56-.97 2.56-.97.36 0 .68.06.96.18a1.99 1.99 0 011.16 1.24c.1.3.16.62.16.96v3.9h-.67a.7.7 0 01-.32-.07c-.08-.04-.14-.13-.19-.26l-.13-.44c-.15.14-.3.26-.45.37a2.8 2.8 0 01-.98.43 2.77 2.77 0 01-1.32-.05 1.62 1.62 0 01-.57-.31 1.41 1.41 0 01-.37-.53 1.85 1.85 0 01-.06-1.18c.06-.16.14-.3.25-.45.13-.14.28-.27.47-.4a3 3 0 01.69-.32 9.19 9.19 0 012.2-.33v-.36c0-.4-.08-.71-.26-.9-.18-.2-.43-.3-.76-.3a1.84 1.84 0 00-1.01.27l-.33.18c-.1.06-.2.09-.33.09-.1 0-.2-.03-.26-.08a.72.72 0 01-.18-.2l-.26-.47zm-51.82 19.3h-1.48v-5.06h-2.4v5.06h-1.48v-6.16h5.36v6.16zm8.18 0h-1.48v-5.02h-1.51c-.05.75-.13 1.4-.22 1.95-.1.55-.23 1.01-.37 1.4-.13.37-.29.68-.46.9-.17.24-.35.41-.54.54-.19.13-.39.22-.6.25-.2.05-.4.07-.6.07-.23 0-.4-.02-.5-.06-.1-.03-.15-.09-.15-.16v-.92h.36c.13 0 .26-.02.4-.06a.93.93 0 00.38-.25c.12-.12.24-.3.35-.52.12-.23.22-.54.3-.91.1-.38.19-.85.26-1.4.07-.54.13-1.2.17-1.97h4.21v6.16zm5.71-2.63a7.8 7.8 0 00-1.08.12c-.29.05-.52.12-.7.2a.92.92 0 00-.38.3.64.64 0 00-.11.36c0 .26.07.45.23.56.15.11.36.17.6.17.3 0 .57-.06.79-.16.22-.12.44-.28.65-.5v-1.05zm-3.4-2.67c.72-.65 1.57-.97 2.56-.97.36 0 .69.06.97.18a1.99 1.99 0 011.16 1.24c.1.3.16.62.16.96v3.9h-.67a.7.7 0 01-.33-.07c-.07-.04-.13-.13-.18-.26l-.13-.44c-.16.14-.3.26-.45.37a2.8 2.8 0 01-.98.43 2.77 2.77 0 01-1.32-.05 1.62 1.62 0 01-.57-.31 1.41 1.41 0 01-.38-.53 1.85 1.85 0 01-.05-1.18c.05-.16.14-.3.25-.45.12-.14.28-.27.46-.4a3 3 0 01.7-.32 9.19 9.19 0 012.2-.33v-.36c0-.4-.09-.71-.26-.9-.18-.2-.43-.3-.76-.3a1.84 1.84 0 00-1.02.27l-.33.18c-.1.06-.2.09-.32.09-.1 0-.2-.03-.27-.08a.72.72 0 01-.17-.2l-.26-.47zm12.6-.86v6.16h-1.47v-2.72h-2.4v2.72h-1.49v-6.16H463v2.34h2.4v-2.34h1.48zm5.73 3.53a7.8 7.8 0 00-1.08.12c-.3.05-.53.12-.7.2a.92.92 0 00-.38.3.64.64 0 00-.12.36c0 .26.08.45.23.56.16.11.36.17.6.17.31 0 .57-.06.8-.16.22-.12.44-.28.65-.5v-1.05zm-3.4-2.67c.71-.65 1.56-.97 2.56-.97.36 0 .68.06.96.18a1.99 1.99 0 011.17 1.24c.1.3.15.62.15.96v3.9h-.67a.7.7 0 01-.32-.07c-.08-.04-.14-.13-.18-.26l-.13-.44-.46.37a2.8 2.8 0 01-.98.43 2.77 2.77 0 01-1.32-.05 1.62 1.62 0 01-.57-.31 1.41 1.41 0 01-.37-.53 1.85 1.85 0 01-.05-1.18c.05-.16.13-.3.25-.45.12-.14.27-.27.46-.4a3 3 0 01.69-.32 9.19 9.19 0 012.2-.33v-.36c0-.4-.08-.71-.26-.9-.17-.2-.43-.3-.76-.3a1.84 1.84 0 00-1.01.27l-.33.18c-.1.06-.2.09-.33.09-.1 0-.19-.03-.26-.08a.72.72 0 01-.17-.2l-.27-.47z" fill="#5E78FF"/><circle cx="456.19" cy="162.31" r="48.49" stroke="#5E78FF" stroke-width="2"/><path d="M552.5 164.03l-1.06-2.9a6.32 6.32 0 01-.33-1.02 11.53 11.53 0 01-.32 1.04l-1.05 2.88h2.76zm2.85 3.27h-1.25a.54.54 0 01-.34-.1.68.68 0 01-.2-.26l-.65-1.78h-3.6l-.64 1.78c-.03.09-.1.17-.18.25-.1.07-.21.11-.35.11h-1.26l3.41-8.68h1.65l3.4 8.68zm7-6.16v6.16h-1.48v-2.72h-2.4v2.72h-1.49v-6.16h1.49v2.34h2.4v-2.33h1.48zm5.72 3.53a7.8 7.8 0 00-1.08.12c-.3.05-.53.12-.7.2a.92.92 0 00-.38.3.64.64 0 00-.12.36c0 .26.08.45.23.56.16.11.36.17.6.17.31 0 .57-.06.8-.16.22-.12.44-.28.65-.5v-1.05zm-3.4-2.67c.71-.65 1.56-.97 2.56-.97.36 0 .68.06.96.18a1.99 1.99 0 011.17 1.24c.1.3.15.62.15.96v3.9h-.67a.7.7 0 01-.32-.07c-.08-.04-.14-.13-.18-.26l-.13-.44-.46.37a2.8 2.8 0 01-.98.43 2.77 2.77 0 01-1.32-.05 1.62 1.62 0 01-.57-.31 1.41 1.41 0 01-.37-.52 1.85 1.85 0 01-.05-1.2c.05-.15.13-.3.25-.44s.27-.27.46-.4a3 3 0 01.69-.32 9.19 9.19 0 012.2-.33v-.36c0-.4-.08-.71-.26-.9-.17-.2-.43-.3-.76-.3a1.84 1.84 0 00-1.01.27l-.33.18c-.1.06-.2.09-.33.09-.1 0-.19-.03-.26-.08a.72.72 0 01-.17-.2l-.27-.47zm12.95 5.3h-1.48v-5.02h-1.51c-.05.75-.12 1.4-.22 1.96-.1.54-.22 1-.36 1.38-.14.38-.3.69-.47.92-.16.23-.34.4-.54.53-.19.13-.39.22-.59.25-.2.05-.41.07-.62.07-.22 0-.38-.02-.48-.06-.1-.04-.15-.09-.15-.16v-.92h.35c.13 0 .26-.02.4-.06a.93.93 0 00.38-.25c.12-.12.24-.3.35-.52.12-.23.22-.54.31-.91.1-.38.18-.85.25-1.4.07-.55.13-1.2.17-1.97h4.21v6.16zm8-6.16v6.16h-1.49v-3.6a4.08 4.08 0 01.06-.63 2.91 2.91 0 01-.39.66 152.74 152.74 0 01-1.1 1.54l-1.18 1.67c-.06.09-.13.17-.23.25a.44.44 0 01-.3.12h-.9v-6.16h1.47v3.6l-.01.3-.04.33a3.13 3.13 0 01.38-.65 37.39 37.39 0 00.66-.93c.15-.2.3-.4.44-.62l1.19-1.67c.06-.09.13-.17.22-.25.1-.07.2-.11.31-.11h.9zm2.1.67c.23-.22.52-.4.86-.55a3.2 3.2 0 011.24-.21c.38 0 .72.04 1.01.14.3.09.55.2.75.36.2.16.35.33.46.53a1.26 1.26 0 01.1.98 1.4 1.4 0 01-.47.7c-.13.1-.28.2-.47.26.33.13.6.32.8.57.22.25.32.55.32.92 0 .3-.07.56-.21.8-.14.23-.32.43-.55.59-.22.16-.49.28-.78.36a3.26 3.26 0 01-2.68-.4c-.2-.12-.38-.29-.54-.48l.43-.54a.3.3 0 01.27-.13c.09 0 .18.03.26.08l.29.2a1.66 1.66 0 00.97.28c.37 0 .65-.1.84-.26a.8.8 0 00.29-.63c0-.25-.1-.44-.3-.58-.2-.14-.52-.21-.96-.21h-.7v-.97h.7c.39 0 .69-.06.9-.2.2-.14.3-.32.3-.54a.6.6 0 00-.27-.5c-.18-.14-.45-.2-.8-.2a1.92 1.92 0 00-.93.2l-.26.15a.39.39 0 01-.38.03.53.53 0 01-.16-.18l-.33-.57z" fill="#5E78FF"/><path d="M495.84 202.51l-1.77-3.7 3.7-1.77M458.16 82.76l4.1-.15.15 4.1M581.62 105.3l-1.82 3.68-3.68-1.8" stroke="#5E78FF" stroke-width="2" stroke-linecap="round"/><path d="M563.14 81.96a70.3 70.3 0 0116.66 27.27m-48.3 89.9a70.36 70.36 0 01-18.48 2.45c-6.55 0-12.9-.9-18.92-2.58M462.3 82.58a70.27 70.27 0 00-16.02 26.53" stroke="#5E78FF" stroke-width="2"/></svg>