<svg width="630" height="432" fill="none" xmlns="http://www.w3.org/2000/svg"><path d="M111.98 130.05h52.22" stroke="#5E78FF" stroke-width="2"/><path d="M161.98 127.15l2.9 2.9-2.9 2.9" stroke="#5E78FF" stroke-width="2" stroke-linecap="round"/><path d="M295.87 130.05h52.22" stroke="#5E78FF" stroke-width="2"/><path d="M345.87 127.15l2.9 2.9-2.9 2.9" stroke="#5E78FF" stroke-width="2" stroke-linecap="round"/><path d="M428.76 381.98h-52.22" stroke="#5E78FF" stroke-width="2"/><path d="M378.77 379.08l-2.9 2.9 2.9 2.9" stroke="#5E78FF" stroke-width="2" stroke-linecap="round"/><path d="M242.9 381.98h-52.22" stroke="#5E78FF" stroke-width="2"/><path d="M192.9 379.08l-2.9 2.9 2.9 2.9" stroke="#5E78FF" stroke-width="2" stroke-linecap="round"/><path d="M499.83 279.6v32.22" stroke="#5E78FF" stroke-width="2"/><path d="M502.74 309.6l-2.9 2.9-2.9-2.9" stroke="#5E78FF" stroke-width="2" stroke-linecap="round"/><circle cx="49.49" cy="130.05" r="48.49" stroke="#5E78FF" stroke-width="2"/><path d="M34.35 123.74c0 .64-.11 1.23-.32 1.77a4.12 4.12 0 01-4.08 2.67c-.65 0-1.25-.11-1.79-.33a4.15 4.15 0 01-2.29-2.34 4.83 4.83 0 01-.31-1.77c0-.63.1-1.22.31-1.76a4.08 4.08 0 012.29-2.33 4.78 4.78 0 014.1.25 4 4 0 011.94 2.63c.1.39.15.79.15 1.21zm-1.65 0c0-.47-.07-.9-.2-1.27-.12-.38-.3-.7-.54-.97a2.33 2.33 0 00-.87-.6 2.94 2.94 0 00-1.14-.22c-.42 0-.8.07-1.14.21a2.4 2.4 0 00-1.41 1.58c-.13.37-.2.8-.2 1.27 0 .48.07.9.2 1.29.13.37.3.7.54.96.24.26.53.46.87.6.34.14.72.2 1.14.2.43 0 .8-.06 1.14-.2.34-.14.63-.34.87-.6.23-.27.42-.59.54-.96a4 4 0 00.2-1.29zm10.22 3.24v2.72c0 .14-.04.25-.12.33a.41.41 0 01-.3.12h-.93v-2.07h-5.15v-6.15h1.49v5.05h2.4v-5.05h1.48v5.05h1.13zm5.8-2.68c0-.2-.03-.38-.09-.54a1.25 1.25 0 00-.24-.45 1.1 1.1 0 00-.41-.3 1.36 1.36 0 00-.58-.12c-.43 0-.77.12-1.01.37-.25.24-.4.59-.47 1.04h2.8zm-2.83.89c.02.32.08.59.17.82a1.42 1.42 0 00.86.9 2 2 0 001.28.02c.17-.04.32-.1.45-.17l.34-.19c.1-.06.2-.08.29-.08.12 0 .21.04.27.13l.43.54a2.54 2.54 0 01-1.2.8 4.79 4.79 0 01-1.34.21c-.43 0-.82-.07-1.2-.2a2.73 2.73 0 01-1.6-1.67 4.02 4.02 0 01-.02-2.61 2.77 2.77 0 011.51-1.62c.37-.16.78-.24 1.24-.24.39 0 .75.06 1.07.19a2.32 2.32 0 011.4 1.42c.14.34.2.74.2 1.18 0 .22-.02.38-.07.46-.04.07-.14.11-.27.11h-3.81zm11.63-3.26v6.15h-1.48v-2.72h-2.4v2.72h-1.48v-6.15h1.48v2.33h2.4v-2.33h1.48zm6.15.39a.83.83 0 01.69-.4h1.16l-1.43 2.3c-.1.15-.2.28-.3.38-.11.1-.24.17-.39.23.2.06.37.15.5.27.12.12.24.26.34.44l1.44 2.54h-1.02c-.26 0-.46-.04-.6-.13a1.1 1.1 0 01-.37-.38l-.9-1.7a.8.8 0 00-.76-.44h-.56v2.65H60v-6.15h1.48v2.53h.48c.17 0 .3-.03.4-.09.1-.06.2-.16.27-.28l1.05-1.77zm7.09 3.13a7.8 7.8 0 00-1.08.12c-.3.05-.53.12-.7.2a.92.92 0 00-.38.3.64.64 0 00-.12.36c0 .26.08.45.23.56.16.11.36.17.6.17.31 0 .57-.06.8-.16.22-.12.44-.28.65-.5v-1.05zm-3.4-2.67c.71-.64 1.56-.97 2.56-.97.36 0 .68.06.96.18a1.99 1.99 0 011.17 1.24c.1.3.15.62.15.96v3.9h-.67a.7.7 0 01-.32-.07c-.08-.04-.14-.13-.18-.26l-.13-.44-.46.37a2.8 2.8 0 01-.98.43 2.77 2.77 0 01-1.32-.04 1.62 1.62 0 01-.57-.32 1.41 1.41 0 01-.37-.52 1.85 1.85 0 01-.05-1.2c.05-.15.13-.3.25-.44s.27-.27.46-.4a3 3 0 01.69-.32 9.19 9.19 0 012.2-.33v-.36c0-.4-.08-.71-.26-.9-.17-.2-.43-.3-.76-.3a1.84 1.84 0 00-1.01.27l-.33.18c-.1.06-.2.09-.33.09-.1 0-.19-.03-.26-.08a.72.72 0 01-.17-.2l-.27-.47zm-37.61 19.3h-1.48v-5.06h-2.4v5.06h-1.48v-6.15h5.36v6.15zm3.95-1.6c.17.21.35.35.55.44a1.66 1.66 0 001.25 0c.18-.09.33-.21.46-.39.12-.17.22-.38.29-.64.07-.27.1-.58.1-.93 0-.36-.03-.67-.09-.92a1.73 1.73 0 00-.24-.6.98.98 0 00-.4-.35 1.2 1.2 0 00-.52-.1c-.31 0-.57.06-.79.19-.21.13-.42.31-.61.55v2.76zm-.08-3.71c.25-.29.54-.52.86-.7a2.3 2.3 0 012.05-.05c.28.14.52.35.72.61.2.27.36.6.46.99a4.84 4.84 0 01-.01 2.61c-.13.4-.3.74-.54 1.02-.23.3-.5.52-.83.68-.33.16-.7.24-1.1.24-.34 0-.63-.05-.88-.15a2.2 2.2 0 01-.65-.45v2.52h-1.48v-8.16h.9c.2 0 .32.09.38.27l.12.57zm9.13-.94c.46 0 .87.07 1.24.22a2.7 2.7 0 011.58 1.63c.14.39.22.83.22 1.31 0 .49-.08.93-.22 1.32-.14.4-.35.73-.62 1-.26.28-.58.5-.96.64-.37.15-.78.22-1.24.22a3.4 3.4 0 01-1.25-.22 2.71 2.71 0 01-1.59-1.64 3.8 3.8 0 01-.21-1.32c0-.48.07-.92.21-1.31a2.75 2.75 0 011.58-1.63c.38-.15.8-.22 1.26-.22zm0 5.2c.51 0 .89-.17 1.13-.51.25-.35.38-.85.38-1.52a2.6 2.6 0 00-.38-1.51c-.24-.35-.62-.53-1.13-.53-.52 0-.9.18-1.16.53-.25.35-.37.85-.37 1.51s.12 1.17.37 1.52c.25.34.64.51 1.16.51zm9.13-2.73c0-.2-.03-.38-.08-.54a1.25 1.25 0 00-.24-.45 1.1 1.1 0 00-.42-.3 1.36 1.36 0 00-.57-.12c-.43 0-.77.12-1.02.37-.24.24-.4.59-.46 1.04h2.8zm-2.82.89c.02.32.08.59.16.82.1.23.2.42.35.57.15.15.32.26.51.34.2.07.42.1.66.1a2 2 0 00.62-.08c.18-.05.33-.12.46-.18l.34-.19c.1-.06.2-.08.29-.08.12 0 .21.04.27.13l.43.54a2.54 2.54 0 01-1.2.8 4.79 4.79 0 01-1.34.21c-.43 0-.83-.07-1.2-.2a2.73 2.73 0 01-1.6-1.67 4.02 4.02 0 01-.03-2.61 2.77 2.77 0 011.51-1.62c.37-.16.79-.24 1.25-.24.39 0 .74.06 1.07.19a2.32 2.32 0 011.4 1.42c.14.34.2.74.2 1.18 0 .22-.02.38-.07.46-.05.07-.14.11-.27.11h-3.81zm9.94-2.87a.83.83 0 01.7-.4h1.16l-1.44 2.3c-.1.15-.2.28-.3.38-.1.1-.23.17-.38.23.2.06.36.15.5.27.12.12.24.26.34.44l1.44 2.54H60c-.26 0-.46-.04-.6-.13a1.1 1.1 0 01-.37-.38l-.9-1.7a.8.8 0 00-.75-.44h-.56v2.65h-1.48v-6.15h1.48v2.53h.48c.17 0 .3-.03.4-.09.1-.06.2-.16.26-.28l1.05-1.77zm9.12.7h-2.2v5.06h-1.48v-5.06h-2.19v-1.1h5.87v1.1zm5.1 2.43a7.8 7.8 0 00-1.09.12c-.3.05-.52.12-.7.2a.92.92 0 00-.38.3.64.64 0 00-.11.36c0 .26.07.45.23.56.15.11.35.17.6.17.3 0 .57-.06.79-.16.22-.12.44-.28.65-.5v-1.05zm-3.4-2.67c.7-.64 1.56-.97 2.55-.97.36 0 .68.06.97.18a1.99 1.99 0 011.16 1.24c.1.3.16.62.16.96v3.9h-.67a.7.7 0 01-.33-.07c-.07-.04-.13-.13-.18-.26l-.13-.44c-.16.14-.3.26-.46.37a2.8 2.8 0 01-.97.43 2.77 2.77 0 01-1.32-.04 1.62 1.62 0 01-.57-.32 1.41 1.41 0 01-.38-.52 1.85 1.85 0 01-.05-1.2c.05-.15.14-.3.25-.44.12-.14.28-.27.46-.4a3 3 0 01.7-.32 9.19 9.19 0 012.2-.33v-.36c0-.4-.09-.71-.26-.9-.18-.2-.43-.3-.76-.3a1.84 1.84 0 00-1.02.27l-.33.18c-.1.06-.2.09-.32.09-.1 0-.2-.03-.27-.08a.72.72 0 01-.17-.2l-.26-.47z" fill="#5E78FF"/><circle cx="229.73" cy="130.05" r="48.49" stroke="#5E78FF" stroke-width="2"/><path d="M198.9 128.08h-1.63v-7.43h-3.77v7.43h-1.62v-8.67h7.01v8.67zm4.08-1.6c.16.21.35.35.54.44a1.66 1.66 0 001.26 0c.18-.09.33-.21.45-.39.13-.17.23-.38.3-.64.06-.27.1-.58.1-.93 0-.36-.03-.67-.1-.92a1.73 1.73 0 00-.24-.6.98.98 0 00-.4-.35 1.2 1.2 0 00-.52-.1c-.3 0-.57.06-.78.19-.22.13-.42.31-.61.55v2.76zm-.08-3.71c.25-.29.54-.52.86-.7a2.3 2.3 0 012.04-.05c.28.14.52.35.72.61.2.27.36.6.47.99a4.84 4.84 0 01-.02 2.61c-.12.4-.3.74-.53 1.02a2.43 2.43 0 01-1.93.92c-.34 0-.64-.05-.88-.15a2.2 2.2 0 01-.65-.45v2.52h-1.49v-8.16h.91c.2 0 .32.09.38.27l.12.57zm10.37 1.53c0-.2-.03-.38-.09-.54a1.25 1.25 0 00-.24-.45 1.1 1.1 0 00-.4-.3 1.36 1.36 0 00-.58-.12c-.43 0-.77.12-1.02.37-.24.24-.4.59-.47 1.04h2.8zm-2.83.89c.03.32.08.59.17.82.09.23.2.42.35.57.14.15.31.26.5.34.2.07.43.1.67.1a2 2 0 00.62-.08c.17-.05.32-.12.45-.18l.34-.19c.1-.06.2-.08.3-.08.12 0 .2.04.27.13l.42.54a2.54 2.54 0 01-1.19.8 4.79 4.79 0 01-1.34.21c-.43 0-.83-.07-1.2-.2a2.73 2.73 0 01-1.6-1.67 4.02 4.02 0 01-.03-2.61 2.77 2.77 0 011.51-1.62c.37-.16.78-.24 1.25-.24.38 0 .74.06 1.07.19a2.32 2.32 0 011.4 1.42c.13.34.2.74.2 1.18 0 .22-.02.38-.07.46-.05.07-.14.11-.28.11h-3.8zm10.35 1.84v-3.97h-1.5c-.05.52-.1.98-.16 1.4a11.64 11.64 0 01-.47 1.95c-.1.24-.2.44-.3.62h2.43zm2.57-.05v2.72c0 .14-.04.25-.12.33a.4.4 0 01-.3.12h-.92v-2.07h-4.61v1.65c0 .1-.03.2-.1.28-.07.1-.17.14-.3.14h-.94v-3.12h.17c.14 0 .27-.02.4-.06a.91.91 0 00.39-.24c.12-.12.23-.29.34-.51.12-.23.22-.53.3-.91.1-.38.17-.85.23-1.4.07-.55.12-1.21.16-1.98h4.17v5.05h1.13zm4.55-5.15c.46 0 .87.07 1.25.22a2.7 2.7 0 011.57 1.63c.15.39.22.83.22 1.31 0 .49-.07.93-.22 1.32a2.65 2.65 0 01-1.58 1.64c-.37.15-.78.22-1.24.22a3.4 3.4 0 01-1.25-.22 2.71 2.71 0 01-1.59-1.64 3.8 3.8 0 01-.21-1.32c0-.48.07-.92.21-1.31a2.75 2.75 0 011.58-1.63c.38-.15.8-.22 1.26-.22zm0 5.2c.52 0 .9-.17 1.14-.51.24-.35.37-.85.37-1.52a2.6 2.6 0 00-.37-1.51c-.25-.35-.63-.53-1.14-.53-.52 0-.9.18-1.16.53-.24.35-.37.85-.37 1.51s.13 1.17.38 1.52c.25.34.63.51 1.15.51zm10.53 1.05h-1.48v-5.06h-2.4v5.06h-1.48v-6.15h5.36v6.15zm8.18 0h-1.48v-5.02h-1.51c-.05.76-.12 1.4-.22 1.96-.1.54-.22 1-.36 1.38-.14.38-.3.69-.46.92-.17.23-.35.4-.54.53-.2.13-.4.22-.6.26-.2.04-.4.06-.62.06-.22 0-.38-.02-.48-.06-.1-.03-.15-.09-.15-.15v-.93h.35c.13 0 .27-.02.4-.06a.93.93 0 00.38-.24c.13-.13.24-.3.36-.53.1-.23.21-.54.3-.91.1-.38.18-.85.25-1.4.08-.54.13-1.2.17-1.96h4.21v6.15zm5.72-2.63a7.8 7.8 0 00-1.08.12c-.3.05-.53.12-.7.2a.92.92 0 00-.38.3.64.64 0 00-.12.36c0 .26.08.45.23.56.16.11.36.17.6.17.31 0 .57-.06.8-.16.22-.12.43-.28.65-.5v-1.05zm-3.4-2.67c.7-.64 1.56-.97 2.56-.97.36 0 .68.06.96.18a1.99 1.99 0 011.17 1.24c.1.3.15.62.15.96v3.9h-.67a.7.7 0 01-.32-.07c-.08-.04-.14-.13-.18-.26l-.14-.44c-.15.14-.3.26-.45.37a2.8 2.8 0 01-.98.43 2.77 2.77 0 01-1.32-.04 1.62 1.62 0 01-.57-.32 1.41 1.41 0 01-.37-.52 1.85 1.85 0 01-.06-1.2c.06-.15.14-.3.26-.44s.27-.27.46-.4a3 3 0 01.69-.32 9.19 9.19 0 012.2-.33v-.36c0-.4-.08-.71-.26-.9-.17-.2-.43-.3-.76-.3a1.84 1.84 0 00-1.01.27l-.33.18c-.1.06-.2.09-.33.09-.1 0-.19-.03-.26-.08a.72.72 0 01-.18-.2l-.26-.47zm12.41.24h-2.2v5.06h-1.48v-5.06h-2.19v-1.1h5.87v1.1zm5.1 2.43a7.8 7.8 0 00-1.09.12c-.3.05-.53.12-.7.2a.92.92 0 00-.38.3.64.64 0 00-.11.36c0 .26.07.45.22.56.16.11.36.17.61.17.3 0 .57-.06.79-.16.22-.12.44-.28.65-.5v-1.05zm-3.4-2.67c.7-.64 1.56-.97 2.55-.97.36 0 .68.06.97.18a1.99 1.99 0 011.16 1.24c.1.3.16.62.16.96v3.9h-.68a.7.7 0 01-.32-.07c-.07-.04-.13-.13-.18-.26l-.13-.44c-.16.14-.3.26-.46.37a2.8 2.8 0 01-.98.43 2.77 2.77 0 01-1.31-.04 1.62 1.62 0 01-.57-.32 1.41 1.41 0 01-.38-.52 1.85 1.85 0 01-.05-1.2c.05-.15.13-.3.25-.44s.28-.27.46-.4a3 3 0 01.7-.32 9.19 9.19 0 012.2-.33v-.36c0-.4-.09-.71-.26-.9-.18-.2-.43-.3-.76-.3a1.84 1.84 0 00-1.02.27l-.33.18c-.1.06-.2.09-.32.09-.1 0-.2-.03-.27-.08a.72.72 0 01-.17-.2l-.26-.47zm-43.76 13.78a4.88 4.88 0 011.06-.12c.46 0 .86.07 1.21.2a2.36 2.36 0 011.41 1.41 3.15 3.15 0 01-.07 2.3 2.85 2.85 0 01-1.7 1.6 3.6 3.6 0 01-2.05.14 4.1 4.1 0 01-1.29-.54 4.06 4.06 0 01-.48-.4l.45-.62c.1-.14.23-.2.38-.2.1 0 .2.03.3.09l.36.21c.14.08.3.15.48.21s.4.1.66.1c.27 0 .5-.05.72-.14.2-.08.38-.2.51-.36.14-.16.25-.35.31-.57.08-.22.11-.45.11-.71 0-.47-.14-.84-.41-1.1-.27-.27-.68-.4-1.21-.4-.42 0-.84.07-1.27.22l-.92-.26.72-4.21h4.28v.63a.7.7 0 01-.2.51c-.13.13-.35.2-.67.2h-2.38l-.3 1.8zm12.19 1.18c0 .76-.08 1.42-.25 1.98a3.97 3.97 0 01-.67 1.38 2.71 2.71 0 01-2.28 1.08 2.74 2.74 0 01-2.26-1.08c-.28-.37-.5-.83-.66-1.38a7.23 7.23 0 01-.24-1.98c0-.76.08-1.41.24-1.97.16-.56.38-1.02.66-1.38.29-.36.62-.63 1-.81.4-.18.81-.27 1.26-.27.46 0 .88.09 1.26.27.4.18.74.45 1.02.81.29.36.51.82.67 1.38.17.56.25 1.21.25 1.97zm-1.53 0c0-.62-.05-1.14-.14-1.56-.1-.4-.22-.74-.37-.98a1.3 1.3 0 00-1.16-.66c-.2 0-.41.05-.61.15-.2.1-.37.27-.52.51a3.2 3.2 0 00-.37.98c-.09.42-.13.94-.13 1.56 0 .63.04 1.15.13 1.56.1.42.21.74.37.99.15.24.32.41.52.51a1.41 1.41 0 001.24 0c.2-.1.38-.27.53-.51.15-.25.28-.57.37-.99.1-.4.14-.93.14-1.56zm7.3-2.23a2.25 2.25 0 01-.6 1.56 1.94 1.94 0 01-1.41.58c-.29 0-.56-.05-.8-.15-.24-.1-.46-.24-.64-.43a2.03 2.03 0 01-.41-.68 2.5 2.5 0 01-.15-.88c0-.34.05-.64.15-.92a1.83 1.83 0 011.05-1.12c.24-.1.51-.15.8-.15a2.01 2.01 0 011.44.58c.18.2.32.42.42.7.1.27.15.57.15.9zm-1.14 0a2 2 0 00-.07-.59c-.05-.15-.11-.28-.19-.37a.62.62 0 00-.28-.2.85.85 0 00-.33-.07.85.85 0 00-.34.06c-.1.04-.2.11-.27.2-.07.1-.13.23-.17.38-.05.16-.07.35-.07.59 0 .22.02.4.07.56.04.15.1.27.17.36.08.1.17.16.27.2.1.04.22.06.34.06.12 0 .23-.02.33-.06.11-.04.2-.1.28-.2.08-.1.14-.21.19-.36.04-.15.07-.34.07-.56zm4.02-1.87a1 1 0 01.18-.16.54.54 0 01.3-.07h1.08l-6.44 8.45a.72.72 0 01-.19.16.54.54 0 01-.26.06h-1.1l6.43-8.44zm2.02 6.4a2.25 2.25 0 01-.6 1.57 2.02 2.02 0 01-2.2.43c-.25-.1-.46-.25-.64-.43a2.03 2.03 0 01-.42-.68 2.5 2.5 0 01-.15-.89c0-.33.05-.64.15-.91a1.83 1.83 0 011.05-1.12c.25-.1.51-.16.8-.16a2.01 2.01 0 011.43.59c.18.19.32.42.42.69.1.27.16.58.16.91zm-1.15 0c0-.23-.02-.42-.06-.58-.05-.16-.1-.28-.19-.38a.62.62 0 00-.27-.2.85.85 0 00-.34-.07.85.85 0 00-.34.07c-.1.04-.19.1-.27.2-.07.1-.13.22-.18.38-.04.16-.06.35-.06.58 0 .23.02.41.06.57.05.15.1.27.18.36.08.1.17.16.27.2.1.04.22.06.34.06.12 0 .23-.02.34-.06.1-.04.2-.1.27-.2.08-.09.14-.21.19-.36.04-.16.06-.34.06-.57z" fill="#5E78FF"/><circle cx="499.83" cy="130.05" r="129.05" fill="#fff" stroke="#5E78FF" stroke-width="2"/><circle cx="499.65" cy="63.89" r="48.49" stroke="#5E78FF" stroke-width="2"/><circle cx="556.67" cy="159.31" r="48.49" stroke="#5E78FF" stroke-width="2"/><path d="M466.83 57.6c.3 0 .56-.03.78-.1.22-.08.4-.18.54-.32.15-.14.26-.3.34-.5a1.95 1.95 0 000-1.3 1.25 1.25 0 00-.33-.48 1.41 1.41 0 00-.55-.3c-.22-.07-.48-.1-.78-.1h-1.2v3.1h1.2zm0-4.36c.59 0 1.09.07 1.51.2.43.14.78.33 1.05.58.28.24.48.53.61.87.14.34.2.72.2 1.12 0 .42-.06.8-.2 1.16a2.4 2.4 0 01-.63.9c-.28.25-.63.45-1.06.59-.42.14-.91.2-1.48.2h-1.2v3.06H464v-8.68h2.82zm8.44 6.05a7.8 7.8 0 00-1.07.12c-.3.05-.53.12-.7.2a.92.92 0 00-.38.3.64.64 0 00-.12.36c0 .26.08.45.23.56.15.11.36.17.6.17.3 0 .57-.06.8-.17.22-.1.43-.28.64-.5V59.3zm-3.4-2.67c.72-.65 1.57-.97 2.56-.97.37 0 .69.06.97.18a1.99 1.99 0 011.17 1.24c.1.3.15.61.15.96v3.9h-.67a.7.7 0 01-.32-.07c-.08-.04-.14-.13-.19-.26l-.13-.44c-.15.14-.3.26-.45.37a2.8 2.8 0 01-.98.43 2.77 2.77 0 01-1.32-.05 1.62 1.62 0 01-.57-.31 1.41 1.41 0 01-.37-.53 1.85 1.85 0 01-.06-1.18c.05-.16.14-.3.25-.45.13-.14.28-.27.47-.4a3 3 0 01.69-.32 9.19 9.19 0 012.2-.33v-.36c0-.4-.08-.71-.26-.9-.18-.2-.43-.3-.76-.3a1.84 1.84 0 00-1.01.27l-.34.18c-.1.06-.2.09-.32.09-.1 0-.2-.03-.26-.08a.72.72 0 01-.18-.2l-.26-.47zm6.89-.19c.23-.22.52-.4.86-.55a3.2 3.2 0 011.24-.21c.38 0 .71.04 1.01.14.3.08.55.2.75.36.2.15.35.33.46.53a1.26 1.26 0 01.1.98 1.4 1.4 0 01-.47.7c-.13.1-.28.2-.47.26.33.13.6.32.8.57.21.25.32.55.32.92 0 .3-.07.56-.21.8-.14.23-.32.42-.55.59-.23.16-.49.28-.78.36a3.26 3.26 0 01-2.69-.4c-.2-.12-.37-.29-.53-.48l.43-.54a.3.3 0 01.27-.14c.09 0 .18.03.26.1l.29.19a1.66 1.66 0 00.97.28c.37 0 .65-.1.84-.26a.8.8 0 00.29-.63c0-.25-.1-.44-.3-.58-.2-.14-.52-.21-.96-.21h-.7v-.97h.7c.39 0 .69-.07.9-.2.2-.14.3-.32.3-.54a.6.6 0 00-.27-.5c-.18-.14-.45-.2-.8-.2a1.92 1.92 0 00-.93.2l-.26.14a.39.39 0 01-.38.03.53.53 0 01-.16-.17l-.33-.57zm8.24 3.9c.17.2.35.34.55.43a1.66 1.66 0 001.25 0c.18-.09.33-.22.46-.39s.22-.39.3-.65c.06-.26.1-.57.1-.93 0-.36-.04-.66-.1-.9a1.73 1.73 0 00-.24-.62.98.98 0 00-.4-.34 1.2 1.2 0 00-.52-.1c-.3 0-.57.06-.79.19-.21.13-.42.3-.6.54v2.76zm-.08-3.73c.25-.28.54-.5.86-.69a2.3 2.3 0 012.05-.05c.28.14.52.34.72.61.2.27.36.6.46.99a4.84 4.84 0 01-.01 2.61c-.13.4-.3.73-.54 1.02-.22.3-.5.52-.83.68-.32.16-.69.24-1.1.24-.34 0-.63-.05-.88-.16a2.2 2.2 0 01-.65-.44v2.52h-1.48v-8.17h.9c.2 0 .32.1.38.27l.12.57zm9.66 2.7a7.8 7.8 0 00-1.08.1c-.3.06-.53.13-.7.21a.92.92 0 00-.38.3.64.64 0 00-.11.36c0 .26.07.45.22.56.16.11.36.17.61.17.3 0 .57-.06.79-.17.22-.1.44-.28.65-.5V59.3zm-3.4-2.68c.71-.65 1.56-.97 2.56-.97.36 0 .68.06.97.18a1.99 1.99 0 011.16 1.24c.1.3.16.61.16.96v3.9h-.68a.7.7 0 01-.32-.07c-.08-.04-.14-.13-.18-.26l-.13-.44-.46.37a2.8 2.8 0 01-.98.43 2.77 2.77 0 01-1.32-.05 1.62 1.62 0 01-.57-.31 1.41 1.41 0 01-.37-.53 1.85 1.85 0 01-.05-1.18c.05-.16.13-.3.25-.45.12-.14.27-.27.46-.4a3 3 0 01.7-.32 9.19 9.19 0 012.2-.33v-.36c0-.4-.09-.71-.26-.9-.18-.2-.43-.3-.77-.3a1.84 1.84 0 00-1.01.27l-.33.18c-.1.06-.2.09-.32.09-.1 0-.2-.03-.27-.08a.72.72 0 01-.17-.2l-.27-.47zm10.13 4.31c.52 0 .9-.16 1.15-.5.25-.32.38-.8.38-1.43 0-.63-.13-1.1-.37-1.44-.25-.32-.62-.49-1.13-.49-.5 0-.88.16-1.15.47-.26.3-.4.77-.4 1.39 0 .65.13 1.15.38 1.5.25.33.63.5 1.14.5zm.44-6.28c-.38.02-.7.1-.97.22-.26.12-.48.28-.66.5-.17.2-.3.44-.4.73-.08.28-.14.6-.15.95.1-.16.22-.3.36-.43a2.64 2.64 0 011.78-.64c.4 0 .78.08 1.1.22.33.15.61.35.84.61.23.27.4.59.53.96a3.82 3.82 0 01-.04 2.48 2.68 2.68 0 01-1.58 1.55c-.37.14-.79.21-1.25.21-.44 0-.85-.07-1.23-.22-.37-.14-.69-.37-.96-.7a3.45 3.45 0 01-.64-1.26 8.34 8.34 0 01-.05-3.65c.11-.54.3-1.01.57-1.42.26-.4.6-.73 1.04-.98.42-.25.95-.4 1.58-.45l2.19-.16.08.76c.01.17-.01.3-.07.42-.07.12-.18.18-.35.18l-1.72.12zm7.49 1.02c.45 0 .87.07 1.24.22a2.7 2.7 0 011.57 1.63c.15.39.22.83.22 1.31 0 .49-.07.93-.22 1.32a2.65 2.65 0 01-1.58 1.64c-.37.15-.78.22-1.24.22a3.4 3.4 0 01-1.25-.22 2.71 2.71 0 01-1.58-1.64 3.8 3.8 0 01-.22-1.32c0-.48.07-.92.22-1.31a2.75 2.75 0 011.58-1.63c.38-.15.8-.22 1.26-.22zm0 5.2c.5 0 .88-.17 1.13-.52.25-.34.37-.84.37-1.5a2.6 2.6 0 00-.37-1.53c-.25-.34-.62-.52-1.13-.52-.53 0-.91.18-1.16.53-.25.35-.38.85-.38 1.51s.13 1.17.38 1.51c.25.35.63.52 1.16.52zm10.27-4h-2.2v5.05h-1.48v-5.06h-2.2v-1.1h5.88v1.1zm5.55-.72a.83.83 0 01.69-.39h1.16l-1.43 2.3c-.1.15-.2.28-.3.38-.11.1-.24.17-.39.23.2.06.37.15.5.27.12.11.24.26.34.44l1.44 2.54h-1.02c-.26 0-.46-.04-.6-.13a1.1 1.1 0 01-.38-.38l-.9-1.7a.8.8 0 00-.75-.44h-.56v2.65h-1.48v-6.16h1.48v2.54h.48c.17 0 .3-.03.4-.09.1-.06.2-.16.27-.29l1.05-1.77zm7.09 3.14a7.8 7.8 0 00-1.08.12c-.3.05-.53.12-.7.2a.92.92 0 00-.38.3.64.64 0 00-.12.36c0 .26.08.45.23.56.16.11.36.17.6.17.31 0 .57-.06.8-.17.22-.1.43-.28.65-.5V59.3zm-3.4-2.67c.7-.65 1.56-.97 2.56-.97.36 0 .68.06.96.18a1.99 1.99 0 011.17 1.24c.1.3.15.61.15.96v3.9h-.67a.7.7 0 01-.32-.07c-.08-.04-.14-.13-.18-.26l-.14-.44c-.15.14-.3.26-.45.37a2.8 2.8 0 01-.98.43 2.77 2.77 0 01-1.32-.05 1.62 1.62 0 01-.57-.31 1.41 1.41 0 01-.37-.53 1.85 1.85 0 01-.06-1.18c.06-.16.14-.3.26-.45.12-.14.27-.27.46-.4a3 3 0 01.69-.32 9.19 9.19 0 012.2-.33v-.36c0-.4-.08-.71-.26-.9-.17-.2-.43-.3-.76-.3a1.84 1.84 0 00-1.01.27l-.33.18c-.1.06-.2.09-.33.09-.1 0-.19-.03-.26-.08a.72.72 0 01-.18-.2l-.26-.47zm-53.45 19.3h-1.48v-5.06h-2.4v5.06h-1.49v-6.16h5.37v6.16zm5.2-6.25c.45 0 .86.07 1.23.22a2.7 2.7 0 011.58 1.63c.14.39.22.83.22 1.31 0 .49-.07.93-.22 1.32-.14.4-.35.73-.62 1-.26.28-.58.5-.96.64-.37.15-.78.22-1.24.22a3.4 3.4 0 01-1.25-.22 2.71 2.71 0 01-1.59-1.64 3.8 3.8 0 01-.21-1.32c0-.48.07-.92.21-1.31a2.75 2.75 0 011.58-1.63c.38-.15.8-.22 1.26-.22zm0 5.2c.5 0 .88-.17 1.13-.52.24-.34.37-.84.37-1.5a2.6 2.6 0 00-.38-1.53c-.24-.34-.62-.52-1.13-.52-.52 0-.9.18-1.16.53-.25.35-.37.85-.37 1.51s.13 1.17.37 1.51c.25.35.64.52 1.16.52zm14.44 1.05h-1.48v-5.06h-2.4v5.06h-1.48v-6.16h5.36v6.16zm8.18 0h-1.48V70.9h-1.51c-.05.75-.13 1.4-.23 1.95s-.22 1.01-.36 1.4c-.13.37-.29.68-.46.9-.17.24-.35.41-.54.54-.19.13-.39.21-.6.25-.2.05-.4.07-.61.07-.22 0-.38-.02-.49-.06-.1-.04-.15-.09-.15-.16v-.92h.36c.13 0 .26-.02.4-.06a.93.93 0 00.38-.25c.12-.12.24-.3.35-.52.11-.24.22-.54.3-.92.1-.38.19-.84.26-1.39.07-.55.13-1.2.17-1.97h4.21v6.16zm5.71-2.63a7.8 7.8 0 00-1.08.12c-.29.05-.52.12-.7.2a.92.92 0 00-.38.3.64.64 0 00-.11.36c0 .26.07.45.23.56.15.11.35.17.6.17.3 0 .57-.06.79-.17.22-.1.44-.28.65-.5V73.3zm-3.4-2.67c.71-.65 1.57-.97 2.56-.97.36 0 .68.06.97.18a1.99 1.99 0 011.16 1.24c.1.3.16.61.16.96v3.9h-.67a.7.7 0 01-.33-.07c-.07-.04-.13-.13-.18-.26l-.13-.44c-.16.14-.3.26-.46.37a2.8 2.8 0 01-.97.43 2.77 2.77 0 01-1.32-.05 1.62 1.62 0 01-.57-.31 1.41 1.41 0 01-.38-.53 1.85 1.85 0 01-.05-1.18c.05-.16.14-.3.25-.45.12-.14.28-.27.46-.4a3 3 0 01.7-.32 9.19 9.19 0 012.2-.33v-.36c0-.4-.09-.71-.26-.9-.18-.2-.43-.3-.76-.3a1.84 1.84 0 00-1.02.27l-.33.18c-.1.06-.2.09-.32.09-.1 0-.2-.03-.27-.08a.72.72 0 01-.17-.2l-.26-.47zm12.6-.86v6.16h-1.47V73.2h-2.4v2.72h-1.49v-6.16h1.49v2.34h2.4v-2.34h1.48zm8.07 0l-3.36 7.85c-.04.1-.1.18-.17.24-.07.05-.17.08-.32.08h-1.1l1.15-2.47-2.49-5.7h1.3c.12 0 .2.03.27.09.07.05.12.12.15.2l1.31 3.18a7.94 7.94 0 01.2.65 32.3 32.3 0 01.23-.65l1.23-3.19a.44.44 0 01.4-.28h1.2zM405.42 160.07h-1.47a.61.61 0 01-.38-.12c-.1-.08-.2-.2-.28-.35l-1.85-2.92a.85.85 0 00-.33-.34.57.57 0 00-.21-.07 1.71 1.71 0 00-.26-.02h-.97v3.82h-1.61v-8.67h1.61v3.63h.82a1 1 0 00.42-.08.87.87 0 00.34-.31l1.9-2.81c.08-.13.17-.24.28-.32.11-.07.24-.11.4-.11h1.37l-2.36 3.47a1.5 1.5 0 01-.78.62c.24.06.44.17.6.32.17.15.33.34.48.6l2.28 3.66zm4.01-6.25c.46 0 .87.07 1.25.22a2.7 2.7 0 011.57 1.63c.15.39.22.83.22 1.31 0 .49-.07.93-.22 1.32-.14.4-.35.73-.62 1-.26.28-.58.5-.95.64-.38.15-.8.22-1.25.22a3.4 3.4 0 01-1.25-.22 2.71 2.71 0 01-1.58-1.64 3.8 3.8 0 01-.22-1.32c0-.48.07-.92.22-1.31.14-.4.35-.73.61-1 .27-.27.6-.48.97-.63.38-.15.8-.22 1.25-.22zm0 5.2c.51 0 .9-.17 1.14-.52.25-.34.37-.84.37-1.5a2.6 2.6 0 00-.37-1.53c-.25-.34-.63-.52-1.14-.52-.52 0-.9.18-1.16.53-.24.35-.37.85-.37 1.51s.13 1.17.38 1.51c.25.35.63.52 1.15.52zm6.65-.55c.17.2.35.35.55.44a1.66 1.66 0 001.25 0c.18-.09.33-.22.46-.39s.22-.39.3-.65c.06-.26.1-.57.1-.93 0-.35-.04-.66-.1-.9a1.73 1.73 0 00-.24-.62.98.98 0 00-.4-.34 1.2 1.2 0 00-.52-.1c-.3 0-.57.06-.79.19-.21.13-.42.3-.6.55v2.75zm-.08-3.72c.25-.28.54-.5.86-.69a2.3 2.3 0 012.05-.05c.28.14.52.34.72.61.2.27.36.6.47.99a4.84 4.84 0 01-.02 2.61c-.13.4-.3.74-.54 1.02-.23.3-.5.52-.83.68-.32.16-.69.24-1.1.24-.34 0-.63-.05-.88-.16a2.2 2.2 0 01-.65-.44v2.52h-1.48v-8.17h.9c.2 0 .32.1.38.28l.12.56zm7.89 3.72c.17.2.35.35.55.44a1.66 1.66 0 001.25 0c.18-.09.33-.22.46-.39.12-.17.22-.39.29-.65.07-.26.1-.57.1-.93 0-.35-.03-.66-.09-.9a1.73 1.73 0 00-.24-.62.98.98 0 00-.4-.34 1.2 1.2 0 00-.52-.1c-.31 0-.57.06-.79.19-.21.13-.42.3-.61.55v2.75zm-.08-3.72c.25-.28.54-.5.86-.69a2.3 2.3 0 012.05-.05c.28.14.52.34.72.61.2.27.36.6.46.99a4.84 4.84 0 01-.01 2.61c-.13.4-.3.74-.54 1.02-.23.3-.5.52-.83.68-.33.16-.69.24-1.1.24-.34 0-.63-.05-.88-.16a2.2 2.2 0 01-.65-.44v2.52h-1.48v-8.17h.9c.2 0 .32.1.38.28l.12.56zm10.37 1.53c0-.19-.03-.37-.08-.53a1.25 1.25 0 00-.24-.46 1.1 1.1 0 00-.42-.3 1.36 1.36 0 00-.57-.1c-.43 0-.77.11-1.01.36-.25.24-.4.59-.47 1.03h2.8zm-2.82.9c.02.31.08.59.16.82.1.23.2.42.35.57.15.15.32.26.51.34.2.07.42.1.66.1a2 2 0 00.62-.08 7.55 7.55 0 00.8-.37c.1-.06.2-.09.29-.09.12 0 .21.05.27.14l.43.54a2.54 2.54 0 01-1.2.8 4.79 4.79 0 01-1.34.21c-.43 0-.82-.07-1.2-.2a2.73 2.73 0 01-1.6-1.67 4.02 4.02 0 01-.03-2.61 2.77 2.77 0 011.51-1.62c.37-.16.79-.24 1.25-.24.39 0 .75.06 1.07.19a2.32 2.32 0 011.4 1.42c.14.34.2.73.2 1.18 0 .22-.02.38-.07.45-.05.08-.14.12-.27.12h-3.81zm9.94-2.88a.83.83 0 01.7-.39h1.16l-1.44 2.3c-.1.15-.2.28-.3.38-.1.1-.23.17-.38.23.2.06.36.15.5.27.12.12.24.26.34.44l1.44 2.54h-1.02c-.26 0-.47-.04-.61-.13a1.1 1.1 0 01-.37-.38l-.9-1.7a.8.8 0 00-.75-.44h-.56v2.65h-1.48v-6.16h1.48v2.54h.48c.17 0 .3-.03.4-.09.1-.06.2-.16.26-.29l1.06-1.76zm9.12.71h-2.2v5.06h-1.48v-5.06h-2.19v-1.1h5.87v1.1zm3.36 3.47c.17.2.35.34.54.43a1.66 1.66 0 001.26 0c.18-.09.33-.22.45-.39.13-.17.23-.39.3-.65.06-.26.1-.57.1-.93 0-.35-.03-.66-.1-.9a1.73 1.73 0 00-.24-.62.98.98 0 00-.4-.34 1.2 1.2 0 00-.51-.1c-.31 0-.57.06-.8.19-.2.13-.41.3-.6.55v2.75zm-.08-3.72c.25-.29.54-.52.86-.7a2.3 2.3 0 012.04-.05c.28.14.52.34.72.61.2.27.36.6.47.99a4.84 4.84 0 01-.02 2.61c-.12.4-.3.74-.53 1.02a2.43 2.43 0 01-1.93.92c-.34 0-.63-.05-.88-.16a2.2 2.2 0 01-.65-.44v2.52h-1.48v-8.17h.9c.2 0 .32.1.38.28l.12.56zm9.13-.94c.45 0 .87.07 1.24.22a2.7 2.7 0 011.58 1.63c.14.39.21.83.21 1.31 0 .49-.07.93-.21 1.32-.15.4-.35.73-.62 1-.26.28-.58.5-.96.64-.37.15-.79.22-1.24.22a3.4 3.4 0 01-1.26-.22 2.71 2.71 0 01-1.58-1.64 3.8 3.8 0 01-.22-1.32c0-.48.08-.92.22-1.31a2.75 2.75 0 011.58-1.63c.38-.15.8-.22 1.26-.22zm0 5.2c.5 0 .89-.17 1.13-.52.25-.34.37-.84.37-1.5a2.6 2.6 0 00-.37-1.53c-.24-.34-.62-.52-1.13-.52-.52 0-.9.18-1.16.53-.25.35-.37.85-.37 1.51s.12 1.17.37 1.51c.25.35.64.52 1.16.52zm7.68.04c.31 0 .56-.08.74-.23a.77.77 0 00.27-.63.98.98 0 00-.05-.3.56.56 0 00-.15-.27.77.77 0 00-.31-.16c-.13-.04-.3-.06-.5-.06h-1.1v1.65h1.1zm-1.1-4.18v1.62h.97c.14 0 .27-.03.4-.06a.85.85 0 00.52-.46.86.86 0 00.01-.63.57.57 0 00-.16-.23.77.77 0 00-.3-.17 1.42 1.42 0 00-.47-.07h-.98zm1-.97c.4 0 .73.04 1.01.12.28.07.52.18.7.31a1.24 1.24 0 01.54 1.06c0 .13-.02.27-.05.42a1.34 1.34 0 01-.53.77c-.15.1-.34.19-.56.25.2.04.39.1.55.18.17.08.32.18.44.3a1.3 1.3 0 01.38.94 1.59 1.59 0 01-.73 1.37c-.21.15-.46.26-.75.33s-.58.11-.9.11H468v-6.16h2.43zm8.3.4a.83.83 0 01.69-.4h1.16l-1.43 2.3c-.1.15-.2.28-.3.38-.11.1-.24.17-.39.23.2.06.37.15.5.27.12.12.24.26.34.44l1.44 2.54h-1.02c-.26 0-.46-.04-.6-.13a1.1 1.1 0 01-.38-.38l-.9-1.7a.8.8 0 00-.75-.44h-.56v2.65h-1.48v-6.16h1.48v2.54h.48c.17 0 .3-.03.4-.09.1-.06.2-.16.27-.29l1.05-1.76zm7.09 3.13a7.8 7.8 0 00-1.08.12c-.3.05-.53.12-.7.2a.92.92 0 00-.38.3.64.64 0 00-.12.36c0 .26.08.45.23.56.16.11.36.17.6.17.31 0 .57-.06.8-.16.22-.12.44-.28.65-.5v-1.05zm-3.4-2.67c.7-.65 1.56-.97 2.56-.97.36 0 .68.06.96.18a1.99 1.99 0 011.17 1.24c.1.3.15.62.15.96v3.9h-.67a.7.7 0 01-.32-.07c-.08-.04-.14-.13-.18-.26l-.13-.44-.46.37a2.8 2.8 0 01-.98.43 2.77 2.77 0 01-1.32-.05 1.62 1.62 0 01-.57-.31 1.41 1.41 0 01-.37-.53 1.85 1.85 0 01-.06-1.18c.06-.16.14-.3.26-.45.12-.14.27-.27.46-.4a3 3 0 01.69-.32 9.19 9.19 0 012.2-.33v-.36c0-.4-.08-.71-.26-.9-.17-.2-.43-.3-.76-.3a1.84 1.84 0 00-1.01.27l-.33.18c-.1.06-.2.09-.33.09-.1 0-.19-.03-.26-.08a.72.72 0 01-.17-.2l-.27-.47zm-51.82 19.3h-1.48v-5.06h-2.4v5.06h-1.48v-6.16h5.36v6.16zm8.18 0h-1.48v-5.02h-1.51c-.05.75-.12 1.4-.22 1.95s-.22 1.01-.36 1.4c-.14.37-.3.68-.46.9-.17.24-.35.41-.55.54-.19.13-.38.22-.59.25-.2.05-.4.07-.62.07-.22 0-.38-.02-.48-.06-.1-.03-.15-.09-.15-.16v-.92h.35c.13 0 .26-.02.4-.06a.93.93 0 00.38-.25c.13-.12.24-.3.35-.52.12-.23.22-.54.31-.91.1-.38.18-.85.25-1.4.07-.54.13-1.2.17-1.97h4.21v6.16zm5.71-2.63a7.8 7.8 0 00-1.08.12c-.29.05-.52.12-.7.2a.92.92 0 00-.38.3.64.64 0 00-.11.36c0 .26.08.45.23.56.15.11.36.17.6.17.3 0 .57-.06.79-.16.22-.12.44-.28.65-.5v-1.05zm-3.4-2.67c.72-.65 1.57-.97 2.56-.97.36 0 .69.06.97.18a1.99 1.99 0 011.16 1.24c.1.3.16.62.16.96v3.9h-.67a.7.7 0 01-.33-.07c-.07-.04-.13-.13-.18-.26l-.13-.44c-.15.14-.3.26-.45.37a2.8 2.8 0 01-.98.43 2.77 2.77 0 01-1.32-.05 1.62 1.62 0 01-.57-.31 1.41 1.41 0 01-.37-.53 1.85 1.85 0 01-.06-1.18c.05-.16.14-.3.25-.45.12-.14.28-.27.47-.4a3 3 0 01.69-.32 9.19 9.19 0 012.2-.33v-.36c0-.4-.08-.71-.26-.9-.18-.2-.43-.3-.76-.3a1.84 1.84 0 00-1.02.27l-.33.18c-.1.06-.2.09-.32.09-.1 0-.2-.03-.26-.08a.72.72 0 01-.18-.2l-.26-.47zm12.61-.86v6.16h-1.48v-2.72h-2.4v2.72h-1.48v-6.16h1.48v2.34h2.4v-2.34h1.48zm5.72 3.53a7.8 7.8 0 00-1.08.12c-.3.05-.53.12-.7.2a.92.92 0 00-.38.3.64.64 0 00-.11.36c0 .26.07.45.22.56.16.11.36.17.61.17.3 0 .57-.06.79-.16.22-.12.44-.28.65-.5v-1.05zm-3.4-2.67c.71-.65 1.56-.97 2.56-.97.36 0 .68.06.97.18a1.99 1.99 0 011.16 1.24c.1.3.16.62.16.96v3.9h-.68a.7.7 0 01-.32-.07c-.08-.04-.14-.13-.18-.26l-.13-.44-.46.37a2.8 2.8 0 01-.98.43 2.77 2.77 0 01-1.32-.05 1.62 1.62 0 01-.57-.31 1.41 1.41 0 01-.37-.53 1.85 1.85 0 01-.05-1.18c.05-.16.13-.3.25-.45.12-.14.27-.27.46-.4a3 3 0 01.7-.32 9.19 9.19 0 012.2-.33v-.36c0-.4-.09-.71-.26-.9-.18-.2-.43-.3-.77-.3a1.84 1.84 0 00-1.01.27l-.33.18c-.1.06-.2.09-.32.09-.1 0-.2-.03-.27-.08a.72.72 0 01-.17-.2l-.27-.47z" fill="#5E78FF"/><circle cx="443" cy="159.31" r="48.49" stroke="#5E78FF" stroke-width="2"/><path d="M539.31 161.03l-1.05-2.9a6.32 6.32 0 01-.34-1.02 11.53 11.53 0 01-.32 1.04l-1.05 2.88h2.76zm2.85 3.27h-1.25a.54.54 0 01-.34-.1.68.68 0 01-.2-.26l-.64-1.78h-3.6l-.65 1.78c-.03.09-.1.17-.18.25-.1.07-.21.11-.35.11h-1.25l3.4-8.68h1.65l3.41 8.68zm7-6.16v6.16h-1.48v-2.72h-2.4v2.72h-1.48v-6.16h1.48v2.34h2.4v-2.33h1.48zm5.72 3.53a7.8 7.8 0 00-1.08.12c-.3.05-.53.12-.7.2a.92.92 0 00-.38.3.64.64 0 00-.11.36c0 .26.07.45.22.56.16.11.36.17.61.17.3 0 .57-.06.79-.16.22-.12.44-.28.65-.5v-1.05zm-3.4-2.67c.71-.65 1.56-.97 2.56-.97.36 0 .68.06.97.18a1.99 1.99 0 011.16 1.24c.1.3.16.62.16.96v3.9h-.68a.7.7 0 01-.32-.07c-.08-.04-.14-.13-.18-.26l-.13-.44-.46.37a2.8 2.8 0 01-.98.43 2.77 2.77 0 01-1.32-.05 1.62 1.62 0 01-.57-.31 1.41 1.41 0 01-.37-.52 1.85 1.85 0 01-.05-1.2c.05-.15.13-.3.25-.44s.27-.27.46-.4a3 3 0 01.7-.32 9.19 9.19 0 012.2-.33v-.36c0-.4-.09-.71-.26-.9-.18-.2-.43-.3-.77-.3a1.84 1.84 0 00-1.01.27l-.33.18c-.1.06-.2.09-.32.09-.1 0-.2-.03-.27-.08a.72.72 0 01-.17-.2l-.27-.47zm12.95 5.3h-1.48v-5.02h-1.51c-.05.75-.12 1.4-.22 1.96-.1.54-.22 1-.36 1.38-.14.38-.3.69-.46.92-.17.23-.35.4-.54.53-.2.13-.4.22-.6.25-.2.05-.4.07-.62.07-.22 0-.38-.02-.48-.06-.1-.04-.15-.09-.15-.16v-.92h.35c.13 0 .27-.02.4-.06a.93.93 0 00.38-.25c.13-.12.24-.3.36-.52.1-.23.21-.54.3-.91.1-.38.18-.85.25-1.4.08-.55.13-1.2.17-1.97h4.21v6.16zm8-6.16v6.16h-1.49v-3.6a4.08 4.08 0 01.06-.63 2.91 2.91 0 01-.39.66 152.74 152.74 0 01-1.1 1.54l-1.18 1.67c-.06.09-.13.17-.23.25a.44.44 0 01-.3.12h-.9v-6.16h1.48v3.6l-.02.3-.04.33a3.13 3.13 0 01.38-.65 37.39 37.39 0 00.66-.93c.15-.2.3-.4.44-.62l1.2-1.67c.05-.09.12-.17.21-.25.1-.07.2-.11.31-.11h.9zm2.1.67c.23-.22.52-.4.86-.55a3.2 3.2 0 011.24-.21c.38 0 .72.04 1.01.14.3.09.55.2.75.36.2.16.36.33.46.53a1.26 1.26 0 01.1.98 1.4 1.4 0 01-.47.7c-.12.1-.28.2-.47.26.34.13.6.32.81.57.2.25.31.55.31.92 0 .3-.07.56-.2.8-.14.23-.33.43-.55.59a3.26 3.26 0 01-3.47-.03c-.2-.13-.38-.3-.54-.49l.43-.54a.3.3 0 01.27-.13c.1 0 .18.03.26.08l.3.2a1.66 1.66 0 00.97.28c.36 0 .64-.1.83-.26a.8.8 0 00.3-.63c0-.25-.1-.44-.3-.58-.2-.14-.52-.21-.97-.21h-.7v-.97h.7c.39 0 .69-.06.9-.2.2-.14.3-.32.3-.54a.6.6 0 00-.27-.5c-.18-.14-.45-.2-.8-.2a1.92 1.92 0 00-.93.2l-.26.15a.39.39 0 01-.38.03.53.53 0 01-.15-.18l-.34-.57z" fill="#5E78FF"/><path d="M482.65 199.52l-1.77-3.7 3.7-1.78M444.97 79.76l4.1-.15.15 4.1M568.43 102.3l-1.82 3.68-3.68-1.8" stroke="#5E78FF" stroke-width="2" stroke-linecap="round"/><path d="M549.95 78.96a70.3 70.3 0 0116.66 27.27m-48.3 89.9a70.36 70.36 0 01-18.48 2.45c-6.55 0-12.9-.9-18.92-2.58m-31.8-116.42a70.29 70.29 0 00-16.02 26.53" stroke="#5E78FF" stroke-width="2"/><circle cx="499.83" cy="381.98" r="48.49" stroke="#5E78FF" stroke-width="2"/><path d="M485.06 382.53c.3 0 .55-.04.77-.11.22-.08.4-.18.55-.32.14-.14.25-.3.32-.5a1.95 1.95 0 000-1.3 1.25 1.25 0 00-.32-.48 1.41 1.41 0 00-.55-.3c-.21-.07-.47-.1-.77-.1h-1.21v3.1h1.2zm0-4.37c.57 0 1.08.07 1.5.2.43.14.77.33 1.05.58.28.24.48.53.61.87.14.34.2.72.2 1.12 0 .42-.06.8-.2 1.16a2.4 2.4 0 01-.63.9c-.28.25-.63.45-1.06.59-.42.14-.91.2-1.47.2h-1.21v3.06h-1.62v-8.68h2.82zm9.06 4.9c0-.2-.03-.38-.09-.55a1.25 1.25 0 00-.24-.45 1.1 1.1 0 00-.41-.3 1.36 1.36 0 00-.58-.11c-.43 0-.76.12-1.01.37-.25.24-.4.59-.47 1.03h2.8zm-2.83.89c.02.31.08.59.17.82.09.23.2.42.35.57.14.15.31.26.5.34.2.07.43.1.67.1a2 2 0 00.61-.08 7.55 7.55 0 00.8-.37c.1-.06.2-.09.29-.09.12 0 .22.05.28.14l.42.54a2.54 2.54 0 01-1.2.8 4.79 4.79 0 01-1.34.21c-.42 0-.82-.07-1.19-.21a2.73 2.73 0 01-1.6-1.66 4.02 4.02 0 01-.03-2.61 2.77 2.77 0 011.51-1.62c.37-.16.78-.24 1.24-.24.39 0 .75.06 1.08.18a2.32 2.32 0 011.4 1.43c.13.34.2.73.2 1.18 0 .22-.03.37-.07.45-.05.08-.14.12-.28.12h-3.81zm11.98 2.89h-1.48v-5.02h-1.51c-.05.75-.12 1.4-.22 1.95s-.22 1.01-.36 1.39c-.14.38-.3.69-.47.92-.16.23-.34.4-.54.53-.19.13-.39.21-.59.25-.2.05-.41.07-.62.07-.22 0-.38-.02-.48-.06-.1-.04-.15-.09-.15-.16v-.92h.35c.13 0 .26-.02.4-.06a.93.93 0 00.38-.25c.12-.12.24-.3.35-.52.12-.24.22-.54.31-.92.1-.38.18-.84.25-1.39.07-.55.13-1.2.17-1.97h4.21v6.16zm8-6.16v6.16h-1.49v-3.6a4.08 4.08 0 01.06-.63 2.91 2.91 0 01-.39.65 152.74 152.74 0 01-1.1 1.55l-1.18 1.67c-.06.08-.13.17-.23.25a.44.44 0 01-.3.12h-.9v-6.16h1.47v3.6l-.01.3-.04.33a3.13 3.13 0 01.38-.65 37.39 37.39 0 00.66-.93l.44-.62 1.19-1.67c.06-.09.13-.17.22-.25.1-.08.2-.12.31-.12h.9zm2.1.67c.23-.22.52-.4.86-.55a3.2 3.2 0 011.24-.21c.38 0 .72.04 1.01.14.3.08.55.2.75.36.2.15.35.33.46.53a1.26 1.26 0 01.1.98 1.4 1.4 0 01-.47.7c-.13.1-.28.2-.47.26.33.13.6.32.8.57.22.25.32.55.32.92 0 .3-.07.56-.21.8-.14.23-.32.42-.55.59-.22.16-.49.28-.78.36a3.26 3.26 0 01-2.68-.4c-.2-.12-.38-.29-.54-.48l.43-.54a.3.3 0 01.27-.14c.09 0 .18.03.26.1l.29.19a1.66 1.66 0 00.97.28c.37 0 .65-.1.84-.26a.8.8 0 00.29-.63c0-.25-.1-.44-.3-.58-.2-.14-.52-.21-.96-.21h-.7v-.97h.7c.39 0 .69-.07.9-.2.2-.14.3-.32.3-.54a.6.6 0 00-.27-.5c-.18-.14-.45-.2-.8-.2a1.92 1.92 0 00-.93.2l-.26.14a.39.39 0 01-.38.03.53.53 0 01-.16-.17l-.33-.57z" fill="#5E78FF"/><circle cx="306.38" cy="381.98" r="48.49" stroke="#5E78FF" stroke-width="2"/><path d="M299.94 369.3l-1.06-2.88a6.32 6.32 0 01-.33-1.03 11.53 11.53 0 01-.32 1.04l-1.05 2.87h2.76zm2.85 3.28h-1.25a.54.54 0 01-.34-.1.68.68 0 01-.2-.27l-.65-1.77h-3.59l-.65 1.77c-.03.1-.1.18-.18.25-.1.08-.21.12-.35.12h-1.26l3.41-8.68h1.65l3.41 8.68zm5.31-5.77a.83.83 0 01.7-.39h1.16l-1.44 2.29c-.1.16-.2.29-.3.39-.1.1-.23.17-.38.22.2.06.36.16.5.28.12.11.24.26.34.44l1.44 2.54h-1.03c-.26 0-.46-.05-.6-.13a1.1 1.1 0 01-.37-.38l-.9-1.7a.8.8 0 00-.76-.44h-.55v2.65h-1.49v-6.16h1.49v2.54h.48c.17 0 .3-.03.4-.1.1-.06.2-.15.26-.28l1.05-1.77zm9.12.7h-2.2v5.07h-1.48v-5.06h-2.19v-1.1h5.87v1.1zm-47.55 18.05c.32 0 .56-.07.74-.23a.77.77 0 00.28-.62.98.98 0 00-.05-.31.56.56 0 00-.15-.26.77.77 0 00-.32-.17c-.13-.04-.29-.06-.49-.06h-1.1v1.65h1.1zm-1.1-4.17V383h.97a1 1 0 00.7-.24.85.85 0 00.21-.27.86.86 0 00.03-.63.57.57 0 00-.16-.24.77.77 0 00-.3-.17 1.42 1.42 0 00-.48-.06h-.97zm1.01-.97c.4 0 .73.04 1 .12.3.07.53.17.7.3a1.24 1.24 0 01.55 1.07c0 .13-.02.27-.06.41-.03.14-.09.28-.17.41-.09.13-.2.25-.35.36-.15.1-.34.2-.57.25.2.05.4.1.56.19.17.08.31.17.43.3.12.1.21.25.28.4.07.16.1.34.1.53a1.59 1.59 0 01-.72 1.38c-.21.15-.47.26-.75.33-.29.07-.59.1-.9.1h-2.52v-6.15h2.42zm7.13 5.1c.34 0 .59-.09.75-.26a.88.88 0 00.25-.64.9.9 0 00-.23-.6.8.8 0 00-.31-.2 1.32 1.32 0 00-.47-.06h-1.1v1.75h1.11zm-.01-2.82c.43 0 .79.05 1.08.16.3.1.54.24.72.42.19.17.32.38.4.6a2.07 2.07 0 01-.03 1.53c-.1.24-.25.44-.45.62-.2.17-.44.3-.73.4-.28.1-.6.15-.97.15h-2.52v-6.16h1.4v2.28h1.1zm4.93-2.28v6.16h-1.48v-6.16h1.48zm7.82 6.16h-1.48v-5.06h-2.4v5.06h-1.48v-6.16h5.37v6.16zm5.2-6.25c.45 0 .87.07 1.24.22a2.7 2.7 0 011.58 1.62c.14.4.21.83.21 1.32 0 .49-.07.93-.21 1.32-.15.39-.35.72-.62 1-.27.27-.59.49-.96.63-.37.15-.79.23-1.24.23a3.4 3.4 0 01-1.26-.23 2.71 2.71 0 01-1.58-1.63 3.8 3.8 0 01-.22-1.32c0-.49.08-.93.22-1.32.15-.39.35-.72.62-1 .26-.27.59-.48.96-.62.38-.15.8-.23 1.26-.23zm0 5.2c.5 0 .89-.17 1.13-.52.25-.34.37-.85.37-1.51a2.6 2.6 0 00-.37-1.52c-.24-.35-.62-.52-1.13-.52-.52 0-.9.18-1.16.53-.25.34-.37.85-.37 1.5 0 .67.12 1.17.37 1.52.25.35.64.52 1.16.52zm10.72 1.05h-1.48v-5.02h-1.51c-.05.75-.12 1.4-.22 1.95s-.22 1-.36 1.39c-.14.38-.3.68-.47.92-.16.22-.34.4-.53.53-.2.13-.4.21-.6.25-.2.04-.4.07-.62.07-.22 0-.38-.02-.48-.06-.1-.04-.15-.1-.15-.16v-.92h.35c.13 0 .26-.02.4-.06a.93.93 0 00.38-.25c.13-.12.24-.3.36-.53.1-.23.2-.53.3-.9.1-.39.18-.85.25-1.4.07-.55.13-1.2.17-1.97h4.21v6.16zm7.83-6.16v6.16h-1.49v-2.73h-2.4v2.73h-1.48v-6.16h1.49v2.33h2.4v-2.33h1.48zm6.43 2.37c0-.2-.03-.37-.08-.54a1.25 1.25 0 00-.24-.45 1.1 1.1 0 00-.42-.3 1.36 1.36 0 00-.57-.11c-.43 0-.77.12-1.02.36-.24.25-.4.6-.47 1.04h2.8zm-2.82.9c.02.31.07.58.16.82.1.23.2.42.35.57.14.15.31.26.51.33s.42.11.66.11a2 2 0 00.62-.08 7.55 7.55 0 00.8-.37c.1-.06.2-.09.28-.09.13 0 .22.05.28.14l.43.54a2.54 2.54 0 01-1.2.8 4.79 4.79 0 01-1.34.21c-.43 0-.83-.07-1.2-.21a2.73 2.73 0 01-1.6-1.66 4.02 4.02 0 01-.03-2.62 2.77 2.77 0 011.51-1.62c.37-.16.79-.24 1.25-.24.38 0 .74.07 1.07.2a2.32 2.32 0 011.4 1.41c.13.35.2.74.2 1.19 0 .22-.02.37-.07.45-.05.08-.14.12-.27.12h-3.81zm11.63-3.27v6.16h-1.48v-2.73h-2.4v2.73h-1.49v-6.16h1.49v2.33h2.4v-2.33h1.48zm4.98 5.1c.34 0 .59-.09.75-.26a.88.88 0 00.25-.64.9.9 0 00-.23-.6.8.8 0 00-.31-.2 1.32 1.32 0 00-.46-.06h-1.1v1.75h1.1zm-.01-2.82c.43 0 .79.05 1.08.16.3.1.54.24.72.42.19.17.32.38.4.6a2.07 2.07 0 01-.03 1.53c-.1.24-.25.44-.45.62-.2.17-.44.3-.73.4-.28.1-.6.15-.97.15h-2.52v-6.16h1.4v2.28h1.1zm4.93-2.28v6.16h-1.48v-6.16h1.48zm7.96 6.16h-1.43a.4.4 0 01-.26-.09.83.83 0 01-.17-.19l-1.3-2.14-.07.2a1.1 1.1 0 01-.08.16l-1.16 1.78c-.04.07-.1.13-.16.2a.35.35 0 01-.24.08h-1.32l2.1-3.18-2.02-2.98h1.43c.1 0 .19.02.24.05.05.03.1.07.14.14l1.29 2.06c.04-.14.1-.28.18-.4l1.04-1.63c.09-.14.2-.22.34-.22h1.36l-2.02 2.92 2.1 3.24zm-56.13 12.4c.17.2.35.35.54.43a1.66 1.66 0 001.26 0c.18-.08.33-.2.45-.38.13-.17.23-.39.3-.65.07-.26.1-.57.1-.93 0-.36-.03-.66-.09-.91a1.73 1.73 0 00-.25-.61.98.98 0 00-.4-.35 1.2 1.2 0 00-.51-.1c-.31 0-.57.06-.79.2-.21.12-.42.3-.61.54v2.76zm-.08-3.72c.25-.28.54-.51.86-.69a2.3 2.3 0 012.05-.05c.27.14.51.34.71.6.2.27.37.6.47 1a4.84 4.84 0 01-.01 2.6c-.13.4-.3.74-.54 1.03-.23.29-.5.51-.83.68-.33.16-.7.24-1.1.24-.34 0-.63-.06-.88-.16a2.2 2.2 0 01-.65-.44v2.52h-1.48v-8.17h.9c.2 0 .32.1.38.27l.12.57zm9.66 2.69a7.8 7.8 0 00-1.08.11c-.3.06-.53.12-.7.2a.92.92 0 00-.38.3.64.64 0 00-.12.37c0 .26.08.44.23.56.16.1.36.16.6.16.31 0 .57-.05.8-.16.22-.11.44-.28.65-.5v-1.04zm-3.4-2.67c.7-.65 1.56-.97 2.56-.97.36 0 .68.06.96.18a1.99 1.99 0 011.17 1.24c.1.3.15.61.15.96v3.89h-.67a.7.7 0 01-.32-.06c-.08-.05-.14-.13-.18-.26l-.13-.44-.46.37a2.8 2.8 0 01-.98.42 2.77 2.77 0 01-1.32-.04 1.62 1.62 0 01-.57-.32 1.41 1.41 0 01-.37-.52 1.85 1.85 0 01-.06-1.19c.06-.15.14-.3.26-.44s.27-.27.46-.4a3 3 0 01.69-.32 9.19 9.19 0 012.2-.33v-.36c0-.41-.08-.72-.26-.91-.17-.2-.43-.3-.76-.3a1.84 1.84 0 00-1.01.27l-.33.19c-.1.06-.2.08-.33.08-.1 0-.19-.02-.26-.07a.72.72 0 01-.18-.2l-.26-.47zm10.13 4.3c.51 0 .9-.16 1.15-.48.25-.33.38-.81.38-1.45 0-.62-.13-1.1-.38-1.43-.24-.33-.62-.5-1.12-.5-.5 0-.89.16-1.15.48-.26.3-.4.77-.4 1.38 0 .66.13 1.15.38 1.5.25.34.63.5 1.14.5zm.43-6.27c-.37.02-.7.1-.96.22-.27.12-.49.28-.66.49-.18.2-.3.45-.4.74-.09.28-.14.6-.15.94a2.33 2.33 0 01.86-.76 2.64 2.64 0 011.28-.3c.4 0 .77.07 1.1.22.33.14.6.35.83.61.24.26.41.58.53.95a3.82 3.82 0 01-.03 2.48 2.68 2.68 0 01-1.58 1.56c-.38.14-.8.2-1.25.2-.44 0-.85-.06-1.23-.2-.37-.15-.7-.39-.96-.71a3.45 3.45 0 01-.64-1.26 8.34 8.34 0 01-.05-3.65c.11-.54.3-1.02.56-1.42.27-.4.61-.74 1.04-.99.43-.24.96-.4 1.59-.44l2.19-.17.07.77c.02.17 0 .3-.07.42-.06.11-.18.17-.34.18l-1.73.12zm7.5 1.01c.45 0 .86.08 1.23.23a2.7 2.7 0 011.58 1.62c.15.4.22.83.22 1.32 0 .49-.07.93-.22 1.32-.14.39-.35.72-.62 1-.26.27-.58.49-.96.63-.37.15-.78.23-1.24.23a3.4 3.4 0 01-1.25-.23 2.71 2.71 0 01-1.58-1.63 3.8 3.8 0 01-.22-1.32c0-.49.07-.93.21-1.32.15-.39.36-.72.62-1 .27-.27.6-.48.97-.62.38-.15.8-.23 1.25-.23zm0 5.2c.5 0 .88-.16 1.13-.5.25-.35.37-.86.37-1.52a2.6 2.6 0 00-.37-1.52c-.25-.35-.63-.52-1.14-.52-.52 0-.9.18-1.15.53-.25.34-.38.85-.38 1.5 0 .67.13 1.17.38 1.52.25.35.63.52 1.15.52zm10.26-4h-2.2v5.06H321v-5.06h-2.2v-1.1h5.87v1.1z" fill="#5E78FF"/><circle cx="125.38" cy="381.98" r="48.49" stroke="#5E78FF" stroke-width="2"/><path d="M109.52 372.53h-1.63v-7.43h-3.77v7.43h-1.62v-8.68h7.02v8.68zm5.23-6.25c.45 0 .87.07 1.24.22a2.7 2.7 0 011.58 1.63c.14.39.21.82.21 1.3 0 .5-.07.94-.21 1.33-.15.4-.35.73-.62 1-.26.28-.58.49-.96.64-.37.15-.79.22-1.24.22a3.4 3.4 0 01-1.26-.22 2.71 2.71 0 01-1.58-1.64 3.8 3.8 0 01-.22-1.32c0-.49.08-.92.22-1.31a2.75 2.75 0 011.58-1.63c.38-.15.8-.22 1.26-.22zm0 5.2c.51 0 .89-.17 1.13-.52.25-.34.37-.84.37-1.5a2.6 2.6 0 00-.37-1.53c-.24-.35-.62-.52-1.13-.52-.52 0-.9.18-1.16.53-.25.35-.37.85-.37 1.51s.12 1.17.37 1.51c.25.35.64.52 1.16.52zm10.72 1.05H124v-5.02h-1.51c-.05.75-.12 1.4-.22 1.95s-.22 1-.36 1.39c-.14.38-.3.69-.46.92-.17.23-.35.4-.54.53-.2.13-.4.21-.6.25-.2.05-.4.07-.62.07-.22 0-.38-.02-.48-.06-.1-.04-.15-.09-.15-.16v-.92h.35c.13 0 .27-.02.4-.06a.93.93 0 00.38-.25c.13-.12.24-.3.36-.53.1-.23.21-.53.3-.9.1-.39.18-.85.25-1.4.08-.55.13-1.2.17-1.97h4.21v6.16zm7.83-6.16v6.16h-1.48v-2.72h-2.4v2.72h-1.49v-6.16h1.49v2.34h2.4v-2.34h1.48zm5.72 3.53a7.8 7.8 0 00-1.08.12c-.3.05-.53.12-.7.2a.92.92 0 00-.38.3.64.64 0 00-.12.36c0 .26.08.44.23.56.16.1.36.17.6.17.31 0 .57-.06.8-.17.22-.1.44-.28.65-.5v-1.04zm-3.4-2.67c.71-.65 1.56-.97 2.56-.97.36 0 .68.06.96.18a1.99 1.99 0 011.17 1.24c.1.3.15.61.15.96v3.89h-.67a.7.7 0 01-.32-.06c-.08-.05-.14-.13-.18-.26l-.13-.44-.46.37a2.8 2.8 0 01-.98.43 2.77 2.77 0 01-1.32-.05 1.62 1.62 0 01-.57-.31 1.41 1.41 0 01-.37-.53 1.85 1.85 0 01-.05-1.19c.05-.15.13-.3.25-.44s.27-.27.46-.4a3 3 0 01.69-.32 9.19 9.19 0 012.2-.33v-.36c0-.41-.08-.71-.26-.91-.17-.2-.43-.3-.76-.3a1.84 1.84 0 00-1.01.27l-.33.2c-.1.05-.2.08-.33.08-.1 0-.19-.03-.26-.08a.72.72 0 01-.17-.2l-.27-.47zm10.45 1.91v-1.8h-.8c-.2 0-.35.03-.47.08a.85.85 0 00-.3.21.74.74 0 00-.17.3c-.03.1-.05.2-.05.3 0 .3.1.51.28.67.2.17.45.25.77.25h.74zm1.41-2.77v6.16h-1.41v-2.47h-.26c-.12 0-.22 0-.3.03a.6.6 0 00-.33.23l-.12.19-.98 1.5c-.05.1-.1.17-.16.23a.72.72 0 01-.43.26c-.1.02-.2.03-.34.03h-1.02l1.55-2.17a1.25 1.25 0 01.7-.6 2.54 2.54 0 01-.75-.23c-.2-.11-.36-.24-.48-.38a1.45 1.45 0 01-.36-.98c0-.23.05-.45.14-.66.09-.22.23-.41.43-.58.2-.17.45-.3.75-.4.31-.1.68-.16 1.11-.16h2.26zm-42.65 13.9c.46 0 .87.08 1.24.23a2.7 2.7 0 011.58 1.63c.14.39.22.82.22 1.3 0 .5-.08.94-.22 1.33-.14.4-.35.73-.62 1-.26.28-.58.49-.96.64-.37.15-.78.22-1.24.22a3.4 3.4 0 01-1.25-.22 2.71 2.71 0 01-1.59-1.64 3.8 3.8 0 01-.21-1.32c0-.49.07-.92.21-1.31a2.75 2.75 0 011.58-1.63c.38-.15.8-.22 1.26-.22zm0 5.2c.51 0 .89-.16 1.13-.5.25-.35.38-.86.38-1.52a2.6 2.6 0 00-.38-1.52c-.24-.35-.62-.52-1.13-.52-.52 0-.9.18-1.16.53-.25.35-.37.85-.37 1.51s.12 1.17.37 1.51c.25.35.64.52 1.16.52zm10.53 1.06h-1.48v-5.06h-2.4v5.06H110v-6.16h5.36v6.16zm8.18 0h-1.48v-5.02h-1.51c-.05.75-.13 1.4-.23 1.95s-.22 1-.36 1.39c-.13.38-.29.69-.46.92-.17.23-.35.4-.54.53-.19.13-.39.21-.6.25-.2.05-.4.07-.61.07-.22 0-.38-.02-.49-.06-.1-.04-.15-.09-.15-.16v-.92h.36c.13 0 .26-.02.4-.06a.93.93 0 00.38-.25c.12-.12.24-.3.35-.53.11-.23.22-.53.3-.9.1-.39.19-.85.26-1.4.07-.55.13-1.2.17-1.97h4.21v6.16zm5.71-2.63a7.8 7.8 0 00-1.08.12c-.29.05-.52.12-.7.2a.92.92 0 00-.38.3.64.64 0 00-.11.36c0 .26.07.44.23.56.15.1.35.17.6.17.3 0 .57-.06.79-.17.22-.1.44-.28.65-.5v-1.04zm-3.4-2.67c.71-.65 1.57-.97 2.56-.97.36 0 .68.06.97.18a1.99 1.99 0 011.16 1.24c.1.3.16.61.16.96v3.89h-.67a.7.7 0 01-.33-.06c-.07-.05-.13-.13-.18-.26l-.13-.44c-.16.14-.3.26-.46.37a2.8 2.8 0 01-.97.43 2.77 2.77 0 01-1.32-.05 1.62 1.62 0 01-.57-.31 1.41 1.41 0 01-.38-.53 1.85 1.85 0 01-.05-1.19c.05-.15.14-.3.25-.44.12-.14.28-.27.46-.4a3 3 0 01.7-.32 9.19 9.19 0 012.2-.33v-.36c0-.41-.09-.71-.26-.91-.18-.2-.43-.3-.76-.3a1.84 1.84 0 00-1.02.27l-.33.2c-.1.05-.2.08-.32.08-.1 0-.2-.03-.27-.08a.72.72 0 01-.17-.2l-.26-.47zm12.42.24h-2.2v5.06h-1.48v-5.06h-2.19v-1.1h5.87v1.1zm5.09 2.43a7.8 7.8 0 00-1.08.12c-.3.05-.53.12-.7.2a.92.92 0 00-.38.3.64.64 0 00-.12.36c0 .26.08.44.23.56.16.1.36.17.6.17.31 0 .57-.06.8-.17.22-.1.44-.28.65-.5v-1.04zm-3.4-2.67c.71-.65 1.56-.97 2.56-.97.36 0 .68.06.96.18a1.99 1.99 0 011.17 1.24c.1.3.15.61.15.96v3.89h-.67a.7.7 0 01-.32-.06c-.08-.05-.14-.13-.18-.26l-.13-.44-.46.37a2.8 2.8 0 01-.98.43 2.77 2.77 0 01-1.32-.05 1.62 1.62 0 01-.57-.31 1.41 1.41 0 01-.37-.53 1.85 1.85 0 01-.05-1.19c.05-.15.13-.3.25-.44s.27-.27.46-.4a3 3 0 01.69-.32 9.19 9.19 0 012.2-.33v-.36c0-.41-.08-.71-.26-.91-.17-.2-.43-.3-.76-.3a1.84 1.84 0 00-1.01.27l-.33.2c-.1.05-.2.08-.33.08-.1 0-.19-.03-.26-.08a.72.72 0 01-.17-.2l-.27-.47zm-42.08 13.8c.23-.21.52-.4.87-.54a3.2 3.2 0 011.23-.21c.38 0 .72.04 1.02.14.3.08.54.2.74.36.2.15.36.33.46.53a1.26 1.26 0 01.11.98 1.4 1.4 0 01-.47.7c-.13.1-.29.2-.48.26.34.13.6.32.81.57.21.25.31.55.31.92 0 .3-.07.56-.2.8-.14.22-.32.42-.55.59a3.26 3.26 0 01-3.47-.03c-.2-.14-.37-.3-.53-.49l.42-.54a.3.3 0 01.27-.14c.1 0 .18.03.27.1.08.05.18.11.28.19.12.06.25.13.4.19.15.05.34.08.57.08.37 0 .65-.08.85-.25a.8.8 0 00.28-.63c0-.25-.1-.44-.3-.58-.2-.14-.51-.21-.96-.21h-.7v-.97h.7c.4 0 .69-.07.9-.2.2-.14.31-.32.31-.54a.6.6 0 00-.28-.5c-.18-.14-.44-.2-.8-.2a1.92 1.92 0 00-.92.2l-.27.14a.39.39 0 01-.38.03.53.53 0 01-.15-.17l-.34-.57zm10.02 2.87a7.8 7.8 0 00-1.08.12c-.3.05-.53.12-.7.2a.92.92 0 00-.38.3.64.64 0 00-.12.36c0 .26.08.44.23.56.16.1.36.17.6.17.31 0 .57-.06.8-.17.22-.1.44-.28.65-.5v-1.04zm-3.4-2.67c.7-.65 1.56-.97 2.56-.97.36 0 .68.06.96.18a1.99 1.99 0 011.17 1.24c.1.3.15.61.15.96v3.89h-.67a.7.7 0 01-.32-.06c-.08-.05-.14-.13-.18-.26l-.14-.44c-.15.14-.3.26-.45.37a2.8 2.8 0 01-.98.43 2.77 2.77 0 01-1.32-.05 1.62 1.62 0 01-.57-.31 1.41 1.41 0 01-.37-.53 1.85 1.85 0 01-.06-1.19c.06-.15.14-.3.26-.44s.27-.27.46-.4a3 3 0 01.69-.32 9.19 9.19 0 012.2-.33v-.36c0-.41-.08-.71-.26-.91-.17-.2-.43-.3-.76-.3a1.84 1.84 0 00-1.01.27l-.33.2c-.1.05-.2.08-.33.08-.1 0-.19-.03-.26-.08a.72.72 0 01-.17-.2l-.27-.47zm18.29-.87v6.17h-1.34v-3.43a7.04 7.04 0 01.1-.97l-1.82 3.32a.44.44 0 01-.42.26h-.16a.44.44 0 01-.42-.25l-1.83-3.35a5.4 5.4 0 01.1.99v3.43h-1.34v-6.17h1.22c.1 0 .2.02.3.07.11.04.2.13.26.26l1.46 2.6a4.27 4.27 0 01.33.78l.15-.4.18-.39 1.44-2.59a.53.53 0 01.26-.26c.1-.05.2-.07.3-.07h1.23zm6.43 2.38c0-.19-.02-.37-.08-.54a1.25 1.25 0 00-.24-.45 1.1 1.1 0 00-.41-.3 1.36 1.36 0 00-.58-.11c-.43 0-.77.12-1.01.37-.25.24-.4.59-.47 1.03h2.8zm-2.82.9c.02.31.08.59.17.82a1.42 1.42 0 00.86.9c.2.08.41.11.65.11a2 2 0 00.62-.08 7.55 7.55 0 00.8-.37c.1-.06.2-.09.29-.09.12 0 .21.05.27.14l.43.54a2.54 2.54 0 01-1.2.8 4.79 4.79 0 01-1.34.21c-.43 0-.82-.07-1.2-.21a2.73 2.73 0 01-1.6-1.66 4.02 4.02 0 01-.02-2.61 2.77 2.77 0 011.51-1.62c.37-.16.78-.24 1.24-.24.39 0 .75.06 1.07.18a2.32 2.32 0 011.4 1.43c.14.34.2.73.2 1.18 0 .22-.02.37-.07.45-.04.08-.14.12-.27.12h-3.81zm10.68-1.96a.68.68 0 01-.13.13c-.04.03-.1.05-.18.05a.42.42 0 01-.23-.07 3.95 3.95 0 00-.61-.31c-.14-.05-.31-.08-.51-.08-.26 0-.5.05-.69.15-.2.1-.36.22-.49.4-.13.18-.22.4-.29.64-.06.25-.1.53-.1.85 0 .33.04.62.1.88.08.25.18.47.31.64.14.18.3.3.48.4.2.09.4.13.64.13a1.6 1.6 0 00.94-.28l.26-.19a.4.4 0 01.25-.09.3.3 0 01.27.14l.43.54a2.76 2.76 0 01-1.77.96c-.22.03-.43.05-.65.05a2.57 2.57 0 01-1.96-.83c-.25-.28-.45-.6-.6-1-.14-.4-.21-.85-.21-1.35 0-.45.06-.87.19-1.25.13-.4.32-.73.58-1 .25-.3.56-.51.93-.67.37-.16.8-.24 1.29-.24.46 0 .86.07 1.2.22.35.15.66.36.94.63l-.4.55zm5.59 1.46v-1.8h-.8c-.2 0-.35.03-.47.08a.85.85 0 00-.31.21.74.74 0 00-.16.3c-.03.1-.05.2-.05.3 0 .3.1.51.28.67.2.17.45.25.77.25h.74zm1.4-2.77v6.16h-1.4v-2.47h-.26c-.12 0-.22 0-.3.03a.6.6 0 00-.34.23l-.11.19-.98 1.5c-.05.1-.1.17-.16.23a.72.72 0 01-.43.26c-.1.02-.2.03-.34.03h-1.03l1.56-2.17a1.25 1.25 0 01.69-.6 2.54 2.54 0 01-.74-.23c-.2-.11-.36-.24-.48-.38a1.45 1.45 0 01-.36-.98 1.56 1.56 0 01.56-1.24c.2-.17.45-.3.76-.4.3-.1.68-.16 1.11-.16h2.26zm8.98 5.06v2.72c0 .14-.04.24-.12.32a.41.41 0 01-.3.12h-.93v-2.06h-5.15v-6.16h1.48v5.06h2.4v-5.06h1.48v5.06h1.14z" fill="#5E78FF"/><path d="M56 382.33v0a12.61 12.61 0 01-12.61-12.62V198" stroke="#5E78FF" stroke-width="2" stroke-dasharray="5.5 5.5"/><path d="M46.3 199.22l-2.91-2.9-2.9 2.9" stroke="#5E78FF" stroke-width="2" stroke-linecap="round"/><path d="M72.7 250h-1.9v-8.67h-4.4V250h-1.88v-10.12h8.18V250zm9.49 0h-1.73v-5.86H78.7c-.06.88-.15 1.64-.26 2.28a9.9 9.9 0 01-.42 1.62c-.16.44-.34.8-.54 1.07s-.4.47-.63.62c-.23.15-.46.25-.7.3-.23.05-.47.07-.72.07s-.44-.02-.56-.06c-.12-.05-.18-.1-.18-.19v-1.07h.41c.16 0 .31-.03.47-.07.15-.05.3-.15.44-.3.15-.14.29-.34.42-.6.13-.28.25-.63.35-1.07.12-.45.21-.99.3-1.63.08-.64.15-1.4.2-2.3h4.9V250zm6.5-3.07c-.5.03-.92.07-1.26.14-.34.06-.62.14-.82.24-.2.1-.36.2-.44.34a.75.75 0 00-.14.42c0 .3.1.53.27.66.18.13.42.2.7.2.36 0 .67-.07.92-.2.26-.13.52-.32.77-.58v-1.22zm-3.97-3.11a4.26 4.26 0 012.99-1.13c.42 0 .8.06 1.12.2a2.32 2.32 0 011.36 1.45c.12.34.18.72.18 1.12V250h-.78a.82.82 0 01-.38-.07c-.09-.05-.16-.15-.2-.3l-.16-.52c-.18.16-.36.3-.53.43a3.3 3.3 0 01-1.15.5 3.21 3.21 0 01-1.54-.05 1.9 1.9 0 01-.66-.37 1.65 1.65 0 01-.44-.6c-.1-.25-.15-.53-.15-.85a1.66 1.66 0 01.39-1.06c.14-.16.32-.32.54-.46.21-.15.48-.27.8-.38a10.72 10.72 0 012.58-.39v-.42c0-.48-.1-.83-.31-1.06-.2-.23-.5-.35-.9-.35a2.15 2.15 0 00-1.17.32l-.39.22a.74.74 0 01-.38.1.51.51 0 01-.3-.1.83.83 0 01-.2-.22l-.32-.55zm14.54-1V250h-1.73v-3.18h-2.8V250H93v-7.18h1.73v2.72h2.8v-2.72h1.73zm9.17 0V250h-1.73v-4.2a4.96 4.96 0 01.06-.74 3.34 3.34 0 01-.45.77l-.33.45a217.55 217.55 0 01-2.34 3.3c-.06.1-.15.2-.25.29-.1.09-.23.14-.36.14h-1.06v-7.19h1.73v4.2c0 .1 0 .22-.02.35 0 .13-.02.26-.04.39a3.62 3.62 0 01.44-.76l.32-.45.46-.63.5-.73 1.4-1.94c.06-.1.14-.2.25-.3.1-.08.23-.13.37-.13h1.05zm9.16 0V250h-1.73v-4.2a4.96 4.96 0 01.06-.74 3.34 3.34 0 01-.45.77l-.33.45-.44.64-.51.71-1.38 1.95c-.07.1-.15.2-.26.29-.1.09-.22.14-.36.14h-1.06v-7.19h1.73v4.2c0 .1 0 .22-.02.35 0 .13-.02.26-.04.39a3.7 3.7 0 01.44-.76c.09-.11.2-.26.32-.45l.46-.63.5-.73 1.4-1.94c.06-.1.15-.2.25-.3.11-.08.23-.13.37-.13h1.05zm4.44 5.32c.2.24.4.4.63.5a1.94 1.94 0 001.47 0c.2-.1.38-.24.53-.45.15-.2.26-.45.34-.75.08-.31.12-.67.12-1.09 0-.42-.04-.77-.1-1.06-.07-.3-.17-.53-.3-.72a1.14 1.14 0 00-.45-.4 1.4 1.4 0 00-.61-.12c-.36 0-.67.08-.92.23-.25.15-.5.36-.71.64v3.22zm-.1-4.34c.3-.33.63-.6 1-.8a2.7 2.7 0 012.4-.07c.32.16.6.4.83.71.24.31.42.7.55 1.15a5.63 5.63 0 01-.02 3.05 3.6 3.6 0 01-.63 1.2 2.83 2.83 0 01-2.25 1.07c-.4 0-.74-.07-1.02-.19-.29-.12-.54-.3-.77-.51v2.94h-1.72v-9.53h1.05c.23 0 .37.1.44.31l.14.67zm10.49-1.1c.53 0 1.01.1 1.45.27a3.16 3.16 0 011.84 1.9c.17.45.25.96.25 1.53 0 .56-.08 1.08-.25 1.53a3.1 3.1 0 01-1.84 1.91c-.44.18-.92.26-1.45.26-.54 0-1.03-.08-1.46-.25a3.16 3.16 0 01-1.85-1.91 4.44 4.44 0 01-.26-1.54c0-.57.09-1.08.26-1.54.17-.46.41-.84.72-1.16.31-.32.69-.56 1.13-.73.43-.18.92-.26 1.46-.26zm0 6.08c.6 0 1.04-.2 1.32-.6a3 3 0 00.44-1.77c0-.78-.15-1.37-.44-1.77-.28-.4-.73-.61-1.32-.61-.6 0-1.06.2-1.35.62-.3.4-.44.99-.44 1.76s.15 1.36.44 1.76c.3.4.74.6 1.35.6zm8.8.04c.36 0 .64-.1.85-.27a.9.9 0 00.33-.73c0-.13-.02-.25-.06-.36a.66.66 0 00-.18-.3.9.9 0 00-.37-.2 1.96 1.96 0 00-.57-.07h-1.3v1.93h1.3zm-1.3-4.88v1.89h1.14c.17 0 .32-.03.46-.07a1 1 0 00.6-.53 1 1 0 00.03-.73.68.68 0 00-.19-.28.91.91 0 00-.36-.2 1.66 1.66 0 00-.54-.08h-1.14zm1.19-1.12c.45 0 .84.04 1.17.13.33.09.6.21.81.37a1.45 1.45 0 01.63 1.23 2 2 0 01-.06.49c-.04.16-.1.32-.2.47-.1.16-.24.3-.41.42-.18.13-.4.23-.66.3.24.05.45.12.65.21.2.1.36.2.5.35.14.13.25.3.33.48.07.18.11.39.11.62a1.85 1.85 0 01-.84 1.6c-.25.17-.54.3-.88.38-.33.09-.68.13-1.04.13h-2.94v-7.18h2.83zm9 4.11c-.5.03-.92.07-1.26.14-.34.06-.61.14-.81.24-.21.1-.36.2-.45.34a.74.74 0 00-.13.42c0 .3.09.53.27.66.18.13.41.2.7.2a2.06 2.06 0 001.68-.78v-1.22zm-3.96-3.11a4.26 4.26 0 012.98-1.13c.42 0 .8.06 1.13.2a2.33 2.33 0 011.36 1.45c.12.34.18.72.18 1.12V250h-.78a.82.82 0 01-.38-.07c-.09-.05-.16-.15-.21-.3l-.16-.52c-.18.16-.36.3-.53.43a2.76 2.76 0 01-1.14.5 3.22 3.22 0 01-1.54-.05c-.25-.08-.48-.2-.66-.37a1.63 1.63 0 01-.44-.6 2.16 2.16 0 01-.06-1.4c.06-.18.16-.35.3-.51.13-.16.31-.32.53-.46.22-.15.49-.27.8-.38a10.71 10.71 0 012.58-.39v-.42c0-.48-.1-.83-.3-1.06-.21-.23-.5-.35-.9-.35a2.15 2.15 0 00-1.18.32l-.38.22a.74.74 0 01-.38.1.5.5 0 01-.3-.1.83.83 0 01-.21-.22l-.3-.55zm14.54-1V250h-1.73v-3.18h-2.8V250h-1.73v-7.18h1.73v2.72h2.8v-2.72h1.73zm9.16 0V250h-1.72v-4.2a4.96 4.96 0 01.06-.74 3.34 3.34 0 01-.45.77l-.33.45a217.55 217.55 0 01-2.34 3.3c-.06.1-.15.2-.26.29-.1.09-.22.14-.35.14h-1.06v-7.19h1.73v4.2c0 .1 0 .22-.02.35l-.04.39a3.62 3.62 0 01.44-.76l.32-.45.45-.63.51-.73 1.4-1.94c.06-.1.14-.2.25-.3.1-.08.23-.13.36-.13h1.05zm7.34 2.76c0-.22-.03-.43-.1-.63-.06-.2-.15-.37-.28-.52a1.28 1.28 0 00-.48-.35c-.2-.1-.42-.14-.67-.14-.5 0-.9.15-1.19.43a2.1 2.1 0 00-.54 1.21h3.26zm-3.3 1.05c.03.37.1.68.2.96a2 2 0 00.4.66c.17.17.37.3.6.4.23.08.49.12.77.12s.52-.03.72-.1c.2-.06.38-.14.53-.22l.4-.21a.7.7 0 01.34-.1c.14 0 .25.05.32.16l.5.63c-.2.22-.41.41-.65.57a3.84 3.84 0 01-1.54.55c-.26.04-.52.05-.77.05-.5 0-.97-.08-1.4-.24a3.18 3.18 0 01-1.87-1.94 4.69 4.69 0 01-.03-3.04 3.24 3.24 0 011.76-1.89 3.6 3.6 0 011.45-.28c.45 0 .87.07 1.25.21a2.7 2.7 0 011.63 1.66c.16.4.24.86.24 1.38 0 .26-.03.44-.08.53-.06.1-.16.14-.32.14h-4.45zm11.14-3.03c.26-.27.6-.48 1-.64.4-.17.88-.25 1.44-.25a4 4 0 011.19.16c.34.1.63.24.87.42.23.18.41.39.53.62a1.47 1.47 0 01.13 1.15 1.65 1.65 0 01-.55.82c-.15.11-.34.21-.56.3.4.15.71.37.95.66.24.28.36.64.36 1.07 0 .35-.08.66-.24.93-.16.27-.37.5-.64.7-.26.18-.57.32-.91.42a3.8 3.8 0 01-3.13-.46 2.95 2.95 0 01-.63-.57l.5-.63c.07-.1.17-.16.31-.16.11 0 .22.03.31.1l.34.23a1.95 1.95 0 001.13.32c.43 0 .76-.1.98-.3.23-.2.34-.44.34-.73a.78.78 0 00-.35-.68c-.23-.16-.6-.24-1.12-.24h-.81v-1.13h.8c.46 0 .8-.08 1.05-.24.24-.16.37-.37.37-.63a.7.7 0 00-.33-.59 1.58 1.58 0 00-.93-.23 2.24 2.24 0 00-1.08.25c-.12.05-.23.1-.31.16a.45.45 0 01-.44.03.61.61 0 01-.18-.2l-.4-.66zm11.51 3.33c-.5.03-.92.07-1.26.14a3.3 3.3 0 00-.82.24c-.2.1-.35.2-.44.34a.75.75 0 00-.13.42c0 .3.09.53.26.66.19.13.42.2.71.2.36 0 .66-.07.92-.2s.51-.32.76-.58v-1.22zm-3.96-3.11a4.26 4.26 0 012.98-1.13c.42 0 .8.06 1.13.2a2.31 2.31 0 011.36 1.45c.12.34.18.72.18 1.12V250h-.79a.82.82 0 01-.37-.07c-.1-.05-.16-.15-.21-.3l-.16-.52c-.18.16-.36.3-.53.43a3.25 3.25 0 01-1.14.5 3.21 3.21 0 01-1.54-.05 1.9 1.9 0 01-.67-.37 1.66 1.66 0 01-.43-.6c-.1-.25-.15-.53-.15-.85a1.67 1.67 0 01.38-1.06c.14-.16.32-.32.54-.46.22-.15.49-.27.8-.38a10.73 10.73 0 012.58-.39v-.42c0-.48-.1-.83-.3-1.06-.21-.23-.5-.35-.9-.35a2.15 2.15 0 00-1.18.32l-.38.22a.74.74 0 01-.38.1.51.51 0 01-.31-.1.84.84 0 01-.2-.22l-.31-.55zm13.06 4.95v-4.63h-1.76c-.05.6-.1 1.15-.17 1.63s-.16.91-.25 1.29a7.5 7.5 0 01-.66 1.7h2.84zm3-.05v3.17c0 .16-.05.29-.14.38-.09.1-.2.14-.35.14h-1.08V250h-5.37v1.92c0 .12-.04.23-.12.33-.08.1-.2.16-.36.16h-1.1v-3.64h.21c.16 0 .32-.02.48-.06.15-.05.3-.15.44-.28.14-.15.28-.35.4-.6.14-.27.25-.63.35-1.06.1-.45.2-1 .27-1.64.08-.64.14-1.41.19-2.31h4.86v5.9h1.32zm5.88-1.79c-.5.03-.92.07-1.26.14-.34.06-.61.14-.81.24-.21.1-.36.2-.45.34a.74.74 0 00-.13.42c0 .3.09.53.27.66.18.13.42.2.7.2.36 0 .66-.07.92-.2s.52-.32.76-.58v-1.22zm-3.96-3.11a4.26 4.26 0 012.98-1.13c.42 0 .8.06 1.13.2a2.33 2.33 0 011.36 1.45c.12.34.18.72.18 1.12V250h-.78a.82.82 0 01-.38-.07c-.09-.05-.16-.15-.21-.3l-.16-.52c-.18.16-.35.3-.53.43a3.3 3.3 0 01-1.14.5 3.21 3.21 0 01-1.54-.05 1.9 1.9 0 01-.66-.37 1.64 1.64 0 01-.44-.6 2.16 2.16 0 01-.06-1.4c.06-.18.16-.35.3-.51.13-.16.31-.32.53-.46.22-.15.5-.27.8-.38a10.73 10.73 0 012.58-.39v-.42c0-.48-.1-.83-.3-1.06-.2-.23-.5-.35-.9-.35a2.15 2.15 0 00-1.18.32l-.38.22a.74.74 0 01-.38.1.51.51 0 01-.3-.1.83.83 0 01-.21-.22l-.3-.55zm13.95-1V250h-1.73v-2.82a9 9 0 01-1.72.26c-.52.02-.98-.05-1.37-.2a1.87 1.87 0 01-.9-.71 2.4 2.4 0 01-.32-1.32v-2.4h1.73v2.13c0 .3.04.53.14.71.1.18.25.3.45.39.21.08.48.11.8.1.33-.02.73-.07 1.19-.16v-3.16h1.73zm-154 17V267h-1.74v-3.18h-2.8V267h-1.73v-7.18h1.73v2.72h2.8v-2.72h1.73zm6.5 4.11c-.5.03-.92.07-1.26.14-.34.06-.62.14-.82.24-.2.1-.35.2-.44.34a.75.75 0 00-.13.43c0 .3.08.52.26.65s.42.2.7.2c.36 0 .67-.07.93-.2s.51-.32.76-.59v-1.2zm-3.96-3.11a4.26 4.26 0 012.98-1.13c.42 0 .8.06 1.13.2a2.32 2.32 0 011.35 1.45c.12.35.19.72.19 1.12V267h-.79a.82.82 0 01-.38-.07c-.09-.05-.16-.15-.2-.3l-.16-.52-.53.44a3.3 3.3 0 01-1.14.5 3.21 3.21 0 01-1.54-.06 1.9 1.9 0 01-.67-.37 1.64 1.64 0 01-.43-.6 2.16 2.16 0 01-.07-1.4c.06-.18.16-.35.3-.51.14-.16.32-.32.54-.46.22-.15.48-.27.8-.38a10.72 10.72 0 012.58-.38v-.43c0-.48-.1-.83-.31-1.06-.2-.23-.5-.35-.89-.35a2.15 2.15 0 00-1.18.32l-.39.22a.74.74 0 01-.37.1.51.51 0 01-.31-.1.83.83 0 01-.2-.22l-.31-.55zm17.82.52a.8.8 0 01-.15.15c-.05.04-.12.06-.21.06a.5.5 0 01-.26-.08 4.48 4.48 0 00-.72-.36 1.8 1.8 0 00-.6-.09c-.3 0-.57.06-.8.17-.22.1-.41.26-.57.47-.15.2-.26.45-.33.75a3.99 3.99 0 000 2c.09.3.2.56.36.76a1.56 1.56 0 001.3.62c.28 0 .5-.03.67-.1a2.36 2.36 0 00.73-.45c.1-.07.19-.1.3-.1.14 0 .24.05.31.16l.5.63a3.22 3.22 0 01-2.07 1.12c-.25.04-.5.06-.75.06a3 3 0 01-2.28-.97c-.3-.32-.53-.71-.7-1.17a4.59 4.59 0 01-.26-1.58c0-.52.08-1.01.23-1.46.15-.45.38-.84.67-1.17.3-.33.66-.59 1.1-.77.42-.2.92-.28 1.49-.28.54 0 1 .08 1.4.25.41.18.78.43 1.1.75l-.46.63zm9.28 5.66h-1.73v-5.86h-1.77c-.05.88-.14 1.64-.26 2.28a9.92 9.92 0 01-.42 1.62c-.15.44-.33.8-.54 1.07-.2.27-.4.47-.63.62-.22.15-.45.25-.69.3-.24.05-.48.08-.72.08-.26 0-.44-.03-.57-.07-.11-.05-.17-.1-.17-.19v-1.08h.41c.16 0 .31-.02.46-.06.16-.05.3-.15.45-.3.15-.14.28-.34.41-.6.14-.28.25-.63.36-1.07.11-.44.21-.99.3-1.63.08-.63.15-1.4.2-2.3h4.9V267zm7.33-4.42c0-.22-.04-.43-.1-.63-.06-.2-.16-.37-.28-.52a1.28 1.28 0 00-.48-.35c-.2-.1-.42-.13-.68-.13-.5 0-.9.14-1.18.42a2.1 2.1 0 00-.55 1.21h3.27zm-3.3 1.05c.03.37.1.68.2.95a2 2 0 00.4.67c.17.17.37.3.6.4.23.08.49.12.77.12s.52-.03.72-.1c.2-.06.38-.14.53-.22l.4-.21a.7.7 0 01.33-.1c.15 0 .26.05.33.16l.5.63c-.2.22-.41.41-.65.57a3.84 3.84 0 01-1.54.55c-.27.04-.53.06-.78.06-.5 0-.96-.09-1.4-.25a3.18 3.18 0 01-1.86-1.94 4.69 4.69 0 01-.04-3.04 3.24 3.24 0 011.76-1.89 3.6 3.6 0 011.46-.28c.45 0 .87.07 1.25.21a2.7 2.7 0 011.63 1.66c.16.4.24.86.24 1.38 0 .26-.03.44-.08.53-.06.1-.17.14-.33.14h-4.44zm11.9 2.14v-4.63h-1.76c-.04.6-.1 1.15-.17 1.63s-.15.91-.25 1.29a7.5 7.5 0 01-.65 1.7h2.84zm3-.05v3.17a.5.5 0 01-.14.38c-.08.1-.2.14-.35.14h-1.07V267h-5.38v1.92c0 .12-.04.23-.12.33-.07.1-.2.16-.36.16h-1.09v-3.64h.2c.17 0 .33-.02.48-.06.16-.05.3-.14.44-.28.15-.14.28-.35.4-.6a5 5 0 00.36-1.06c.1-.45.19-1 .26-1.63.08-.65.15-1.42.2-2.32h4.86v5.9h1.31zm8.23-5.9l-3.9 9.15a.63.63 0 01-.21.28c-.08.06-.2.1-.37.1h-1.3l1.35-2.89-2.9-6.64h1.52c.13 0 .24.03.31.1a.6.6 0 01.18.22l1.52 3.72a7.47 7.47 0 01.23.76 35.17 35.17 0 01.27-.76l1.44-3.72a.5.5 0 01.48-.32h1.38zm8.35 5.95c.56 0 .97-.2 1.24-.6.27-.4.4-.99.4-1.76 0-.78-.13-1.37-.4-1.77-.27-.4-.68-.61-1.24-.61-.56 0-.97.2-1.24.62-.26.4-.4.99-.4 1.76s.13 1.36.4 1.76c.26.4.68.6 1.24.6zm-3.33-3.03c.06-.47.17-.89.35-1.26a2.99 2.99 0 011.7-1.56c.39-.14.82-.21 1.28-.21.52 0 .99.08 1.4.25a3.06 3.06 0 011.78 1.9c.16.46.25.97.25 1.53 0 .57-.09 1.09-.26 1.55a3.08 3.08 0 01-1.8 1.91c-.4.17-.87.25-1.37.25-.48 0-.92-.07-1.31-.21a2.94 2.94 0 01-1.7-1.61 4.2 4.2 0 01-.33-1.31h-1.42V267h-1.73v-7.18h1.73v2.92h1.43zm20.32 2.98v3.17c0 .16-.05.29-.14.38-.1.1-.2.14-.35.14h-1.08V267h-9.68v-7.18h1.73v5.9h2.37v-5.9h1.73v5.9h2.37v-5.9h1.73v5.9h1.32zm8.55-5.9V267h-1.73v-4.2a4.42 4.42 0 01.06-.74 3.42 3.42 0 01-.45.77l-.33.45a217.55 217.55 0 01-2.33 3.3c-.07.1-.16.2-.26.29-.1.09-.22.14-.36.14h-1.06v-7.19h1.73v4.2c0 .1 0 .22-.02.36 0 .12-.02.25-.04.38a3.54 3.54 0 01.44-.76c.09-.11.2-.26.32-.45l.46-.63.5-.73 1.4-1.94c.06-.1.15-.2.25-.3.11-.08.23-.13.37-.13h1.05zm9.16 0V267h-1.73v-4.2a4.42 4.42 0 01.06-.74 3.42 3.42 0 01-.44.77l-.33.45a217.55 217.55 0 01-2.34 3.3c-.07.1-.15.2-.26.29-.1.09-.22.14-.36.14h-1.05v-7.19h1.72v4.2c0 .1 0 .22-.02.36 0 .12-.02.25-.04.38a3.54 3.54 0 01.44-.76l.33-.45.45-.63.51-.73 1.39-1.94c.06-.1.15-.2.26-.3.1-.08.22-.13.36-.13h1.05zm-3.13-1.82c.17 0 .32-.02.44-.06.11-.04.2-.1.28-.18a.8.8 0 00.14-.35c.03-.15.04-.32.04-.53h1.03c.12 0 .2.05.26.15.06.1.1.21.1.33a1.34 1.34 0 01-.63 1.14c-.2.13-.44.24-.72.31-.28.07-.6.1-.94.1-.34 0-.66-.03-.94-.1a2.48 2.48 0 01-.72-.3c-.2-.14-.35-.3-.46-.5-.1-.2-.16-.41-.16-.65 0-.12.03-.23.08-.33a.3.3 0 01.28-.15h1.02c0 .2.01.38.04.53a.8.8 0 00.15.35c.07.08.16.14.27.18.12.04.26.06.44.06zm18.56 1.8v7.2h-1.56v-4a8.21 8.21 0 01.1-1.13l-2.1 3.88c-.1.2-.27.3-.5.3h-.18a.51.51 0 01-.49-.3l-2.14-3.9a6.28 6.28 0 01.11 1.15v4h-1.56v-7.2h1.43c.12 0 .24.03.36.08s.22.16.3.3l1.7 3.03a4.77 4.77 0 01.38.92l.18-.48.2-.44 1.69-3.02a.62.62 0 01.3-.3.89.89 0 01.36-.09h1.42zm7.34 2.78c0-.22-.03-.43-.1-.63a1.28 1.28 0 00-.76-.88c-.19-.08-.41-.13-.67-.13-.5 0-.9.15-1.18.43-.29.29-.47.69-.55 1.21h3.26zm-3.3 1.05c.03.37.1.68.2.95a2 2 0 00.4.67c.18.17.38.3.6.4.24.08.5.12.77.12.28 0 .52-.03.72-.1.21-.06.39-.14.54-.22l.4-.21a.7.7 0 01.33-.1c.15 0 .25.05.32.16l.5.63c-.19.22-.4.41-.64.57a3.81 3.81 0 01-1.54.55c-.27.04-.53.06-.78.06-.5 0-.96-.09-1.4-.25a3.19 3.19 0 01-1.86-1.94 4.69 4.69 0 01-.04-3.04 3.25 3.25 0 011.76-1.89 3.6 3.6 0 011.46-.28c.45 0 .87.07 1.25.21a2.7 2.7 0 011.63 1.66c.16.4.24.86.24 1.38 0 .26-.03.44-.09.53-.05.1-.16.14-.32.14h-4.44zm12.3-2.3a.83.83 0 01-.15.16c-.05.04-.12.06-.21.06a.5.5 0 01-.26-.08 4.64 4.64 0 00-.72-.36 1.8 1.8 0 00-.6-.09c-.3 0-.57.06-.8.17-.22.1-.42.26-.57.47-.15.2-.26.45-.34.75-.07.29-.1.62-.1.98 0 .39.03.73.11 1.03.08.3.2.55.36.75a1.56 1.56 0 001.3.62c.28 0 .5-.03.66-.1a2.39 2.39 0 00.74-.45c.09-.07.19-.1.3-.1.13 0 .24.05.3.16l.5.63a3.24 3.24 0 01-2.06 1.12c-.25.04-.5.06-.75.06a3 3 0 01-2.28-.97 3.5 3.5 0 01-.7-1.17 4.59 4.59 0 01-.26-1.58c0-.52.08-1.01.22-1.46.16-.45.38-.84.68-1.17.3-.33.66-.59 1.09-.77.43-.2.93-.28 1.5-.28.53 0 1 .08 1.4.25.41.18.77.43 1.1.75l-.46.63zm6.36 1.72v-2.1h-.94c-.22 0-.4.03-.55.1a.99.99 0 00-.36.24.85.85 0 00-.18.33c-.04.13-.06.25-.06.38 0 .33.1.58.33.77.22.19.52.28.9.28h.86zm1.64-3.23V267h-1.64v-2.88h-.3c-.15 0-.26.01-.36.04a.68.68 0 00-.39.26l-.13.22-1.15 1.76-.18.26a.84.84 0 01-.5.3c-.11.03-.24.04-.4.04h-1.2l1.82-2.53a1.45 1.45 0 01.8-.69 2.97 2.97 0 01-.86-.28 2.06 2.06 0 01-.56-.45 1.81 1.81 0 01-.41-1.13 1.82 1.82 0 01.66-1.45c.22-.2.51-.35.87-.47s.8-.18 1.3-.18h2.63zm10.3 5.9v3.17c0 .16-.05.29-.14.38-.1.1-.21.14-.36.14h-1.08V267h-6v-7.18h1.73v5.9h2.8v-5.9h1.73v5.9h1.32z" fill="#5E78FF"/></svg>