<svg width="1217" height="558" fill="none" xmlns="http://www.w3.org/2000/svg"><path d="M173.26 202.42h76.5" stroke="#5E78FF" stroke-width="2"/><path d="M246.5 198.16l4.24 4.26-4.24 4.25" stroke="#5E78FF" stroke-width="2" stroke-linecap="round"/><path d="M445.59 202.42h76.5" stroke="#5E78FF" stroke-width="2"/><path d="M518.83 198.16l4.25 4.26-4.25 4.25" stroke="#5E78FF" stroke-width="2" stroke-linecap="round"/><path d="M971 202.42h76.5" stroke="#5E78FF" stroke-width="2"/><path d="M1044.24 198.16l4.25 4.26-4.25 4.25" stroke="#5E78FF" stroke-width="2" stroke-linecap="round"/><path d="M1055 484.9H855.99" stroke="#5E78FF" stroke-width="2"/><path d="M859.24 480.65L855 484.9l4.24 4.26" stroke="#5E78FF" stroke-width="2" stroke-linecap="round"/><path d="M649 485.5H113.33a40 40 0 01-40-40V301.9" stroke="#5E78FF" stroke-width="2" stroke-dasharray="5.5 5.5"/><path d="M77.58 305.15l-4.25-4.24-4.25 4.24" stroke="#5E78FF" stroke-width="2" stroke-linecap="round"/><path d="M1143.99 304.92v76.5" stroke="#5E78FF" stroke-width="2"/><path d="M1148.24 378.16l-4.25 4.24-4.26-4.24" stroke="#5E78FF" stroke-width="2" stroke-linecap="round"/><circle cx="72.91" cy="202.42" r="71.5" stroke="#5E78FF" stroke-width="2"/><path d="M53.72 193.63c0 .85-.14 1.64-.42 2.36a5.49 5.49 0 01-5.43 3.55c-.88 0-1.68-.14-2.4-.44a5.52 5.52 0 01-3.04-3.1 6.44 6.44 0 01-.43-2.37c0-.84.14-1.63.43-2.35a5.44 5.44 0 013.05-3.11 6.2 6.2 0 012.39-.45 6.4 6.4 0 013.08.78 5.35 5.35 0 012.58 3.51c.13.52.2 1.06.2 1.62zm-2.2 0c0-.63-.08-1.2-.25-1.7-.17-.5-.42-.94-.73-1.29-.32-.35-.7-.62-1.15-.8a3.93 3.93 0 00-1.52-.29 4 4 0 00-1.53.28 3.2 3.2 0 00-1.88 2.1c-.17.5-.26 1.07-.26 1.7 0 .64.09 1.2.26 1.72a3.23 3.23 0 001.88 2.08c.45.18.96.28 1.53.28.56 0 1.07-.1 1.52-.28.45-.2.83-.46 1.15-.8.31-.36.56-.78.73-1.28.17-.51.25-1.08.25-1.72zm13.3 4.32v3.63c0 .18-.05.32-.16.43-.1.1-.24.16-.4.16h-1.24v-2.75h-6.86v-8.21h1.98v6.74h3.2v-6.74h1.97v6.74h1.51zm7.4-3.58c0-.26-.04-.5-.12-.72a1.67 1.67 0 00-.32-.6c-.14-.17-.33-.3-.55-.4-.22-.1-.48-.15-.77-.15-.57 0-1.02.16-1.35.49-.33.32-.53.78-.62 1.38h3.72zm-3.77 1.2c.03.41.1.78.22 1.09.12.3.27.56.46.76.2.2.42.34.68.45.27.1.56.14.88.14.32 0 .6-.04.83-.11.23-.08.43-.16.6-.25l.46-.25a.8.8 0 01.39-.11c.16 0 .28.06.36.18l.57.72a3.38 3.38 0 01-1.6 1.07 6.34 6.34 0 01-1.8.28c-.55 0-1.08-.1-1.57-.28a3.64 3.64 0 01-2.14-2.22 5.36 5.36 0 01-.04-3.48 3.7 3.7 0 012.02-2.16c.49-.21 1.04-.32 1.65-.32.52 0 1 .08 1.43.25a3.1 3.1 0 011.87 1.9c.18.45.27.98.27 1.57 0 .3-.03.5-.1.6-.06.11-.18.16-.36.16h-5.08zm15.17-4.36v8.2h-1.97v-3.63h-3.2v3.64h-1.98v-8.21h1.98v3.11h3.2v-3.11h1.97zm7.87.52a1.11 1.11 0 01.92-.52h1.55l-1.91 3.05c-.14.21-.27.38-.41.52-.14.13-.3.23-.5.3.26.08.48.2.65.36.17.16.32.35.46.6l1.92 3.38h-1.36c-.35 0-.62-.06-.81-.18-.2-.12-.36-.28-.49-.5l-1.2-2.28a1.08 1.08 0 00-1-.58h-.75v3.54h-1.98v-8.21h1.98v3.38h.64c.22 0 .4-.04.53-.12.14-.08.26-.21.36-.38l1.4-2.36zm9.12 4.18c-.58.03-1.06.08-1.44.16-.4.06-.7.16-.94.27-.24.1-.4.24-.5.39a.85.85 0 00-.16.49c0 .34.1.6.3.74.21.15.48.22.81.22.41 0 .76-.07 1.05-.21.3-.15.6-.37.88-.67v-1.39zm-4.53-3.56a4.87 4.87 0 013.4-1.3c.48 0 .91.09 1.3.25a2.66 2.66 0 011.55 1.65c.13.4.2.82.2 1.28v5.19h-.9a.93.93 0 01-.42-.08c-.1-.06-.19-.18-.24-.35l-.18-.59c-.2.19-.41.35-.6.5a3.72 3.72 0 01-1.31.56 3.65 3.65 0 01-1.76-.05c-.3-.1-.55-.24-.76-.42a1.87 1.87 0 01-.5-.7 2.47 2.47 0 01-.07-1.58c.07-.21.18-.41.33-.6.16-.18.37-.36.62-.53.25-.16.56-.3.92-.43.37-.12.8-.22 1.28-.3.49-.07 1.04-.12 1.67-.14v-.48c0-.55-.12-.95-.36-1.21-.23-.27-.57-.4-1.01-.4a2.47 2.47 0 00-1.35.37l-.45.24a.84.84 0 01-.43.12.58.58 0 01-.35-.1.94.94 0 01-.23-.26l-.35-.64zm-48.49 26.07h-1.97v-6.75h-3.2v6.75h-1.98v-8.21h7.15v8.2zm4.94-2.13c.22.27.46.46.72.58a2.2 2.2 0 001.68 0c.24-.12.44-.29.6-.52.17-.23.3-.51.4-.86a5 5 0 00.13-1.24c0-.48-.04-.89-.12-1.22a2.3 2.3 0 00-.33-.81 1.3 1.3 0 00-.52-.46 1.6 1.6 0 00-.7-.14c-.41 0-.76.09-1.05.26-.29.17-.56.41-.81.73v3.68zm-.1-4.96a4.3 4.3 0 011.14-.92 3.08 3.08 0 012.72-.07c.38.18.7.46.96.81.28.35.48.8.63 1.31a6.45 6.45 0 01-.03 3.5c-.16.52-.4.97-.7 1.35a3.23 3.23 0 01-2.57 1.22c-.46 0-.86-.06-1.18-.2a2.93 2.93 0 01-.87-.6v3.37h-1.98v-10.9h1.2c.26 0 .43.13.51.37l.16.76zm11.83-1.25c.6 0 1.16.1 1.66.3a3.6 3.6 0 012.1 2.16c.2.53.29 1.11.29 1.76 0 .65-.1 1.23-.29 1.76a3.53 3.53 0 01-2.1 2.18c-.5.2-1.05.3-1.66.3-.61 0-1.17-.1-1.67-.3a3.61 3.61 0 01-2.11-2.18c-.2-.53-.3-1.11-.3-1.76 0-.65.1-1.23.3-1.76.2-.52.47-.96.82-1.32.36-.37.79-.65 1.29-.84.5-.2 1.06-.3 1.67-.3zm0 6.94c.68 0 1.19-.23 1.51-.7.33-.45.5-1.12.5-2 0-.9-.17-1.57-.5-2.03-.32-.47-.83-.7-1.51-.7-.7 0-1.2.24-1.54.7-.33.47-.5 1.14-.5 2.02 0 .88.17 1.56.5 2.02.33.46.85.69 1.54.69zm11.84-3.65c0-.26-.03-.5-.1-.72a1.67 1.67 0 00-.33-.6c-.14-.17-.33-.3-.55-.4-.22-.1-.47-.15-.77-.15-.57 0-1.02.16-1.35.49-.33.32-.53.78-.62 1.38h3.72zm-3.76 1.2c.03.41.1.78.22 1.09.12.3.27.56.46.76.2.2.42.34.68.45.27.1.56.14.88.14.32 0 .6-.04.83-.11.23-.08.44-.16.6-.25l.46-.25a.8.8 0 01.39-.11c.16 0 .28.06.36.18l.57.72a3.38 3.38 0 01-1.59 1.07 6.34 6.34 0 01-1.8.28c-.56 0-1.1-.1-1.58-.28a3.64 3.64 0 01-2.14-2.22 5.36 5.36 0 01-.04-3.48 3.7 3.7 0 012.02-2.16c.49-.21 1.04-.32 1.65-.32.52 0 1 .08 1.43.25a3.1 3.1 0 011.87 1.9c.18.45.27.98.27 1.57 0 .3-.03.5-.1.6-.06.11-.18.16-.36.16h-5.08zm12.93-3.84a1.11 1.11 0 01.92-.52h1.55l-1.91 3.05c-.14.21-.27.38-.41.52-.14.13-.3.23-.5.3.26.08.48.2.65.36.17.16.33.35.46.6l1.92 3.38H86.6c-.35 0-.62-.06-.81-.18-.2-.12-.36-.28-.49-.5l-1.2-2.28a1.07 1.07 0 00-1-.58h-.75v3.54h-1.98v-8.21h1.98v3.38h.64c.22 0 .4-.04.53-.12.14-.08.26-.21.36-.38l1.4-2.36zm11.82.94h-2.93v6.75H92.2v-6.75h-2.92v-1.46h7.82v1.46zm6.45 3.24c-.57.03-1.05.08-1.44.16-.39.06-.7.16-.93.27-.24.1-.4.24-.5.39a.86.86 0 00-.16.49c0 .34.1.6.3.74.21.15.48.22.81.22.4 0 .76-.07 1.05-.21.3-.15.59-.37.87-.67v-1.39zm-4.53-3.56a4.87 4.87 0 013.41-1.3c.48 0 .91.09 1.29.25a2.66 2.66 0 011.55 1.65c.14.4.21.82.21 1.28v5.19h-.9a.94.94 0 01-.43-.08c-.1-.06-.18-.18-.24-.35l-.17-.59c-.21.19-.41.35-.61.5a3.67 3.67 0 01-1.3.56 3.65 3.65 0 01-1.77-.05c-.29-.1-.54-.24-.76-.42a1.87 1.87 0 01-.5-.7 2.47 2.47 0 01-.06-1.58c.07-.21.18-.41.33-.6.16-.18.37-.36.62-.53.25-.16.56-.3.92-.43.37-.12.8-.22 1.28-.3.48-.07 1.04-.12 1.66-.14v-.48c0-.55-.12-.95-.35-1.21-.23-.27-.57-.4-1.02-.4a2.47 2.47 0 00-1.35.37l-.44.24a.84.84 0 01-.43.12.58.58 0 01-.35-.1.94.94 0 01-.23-.26l-.36-.64z" fill="#5E78FF"/><circle cx="353.09" cy="202.42" r="71.5" stroke="#5E78FF" stroke-width="2"/><path d="M313.47 199.92h-2.17V190h-5.02v9.9h-2.16v-11.56h9.35v11.57zm5.11-2.13c.23.27.47.46.73.58a2.2 2.2 0 001.67 0c.24-.12.44-.29.6-.52.18-.23.31-.51.4-.86.1-.35.14-.77.14-1.24 0-.48-.04-.89-.12-1.22-.08-.33-.19-.6-.33-.81a1.3 1.3 0 00-.53-.46c-.2-.1-.43-.14-.7-.14-.4 0-.75.09-1.04.26-.3.17-.56.41-.82.73v3.68zm-.1-4.96a4.3 4.3 0 011.14-.92 3.08 3.08 0 012.73-.07c.37.18.7.46.96.81.27.35.48.8.62 1.31a6.46 6.46 0 01-.02 3.5c-.17.52-.4.97-.71 1.35a3.24 3.24 0 01-2.57 1.22c-.46 0-.85-.06-1.18-.2a2.92 2.92 0 01-.87-.6v3.37h-1.97v-10.9h1.2c.26 0 .43.13.5.37l.17.76zm13.5 2.04c0-.26-.05-.5-.12-.72a1.68 1.68 0 00-.32-.6c-.15-.17-.33-.3-.55-.4-.22-.1-.48-.15-.77-.15-.57 0-1.02.16-1.35.49a2.4 2.4 0 00-.63 1.38h3.73zm-3.78 1.2c.04.41.1.78.23 1.09.11.3.27.56.46.76.2.2.42.34.68.45.27.1.56.14.88.14.32 0 .6-.04.82-.11.24-.08.44-.16.61-.25l.46-.25a.8.8 0 01.38-.11c.17 0 .3.06.37.18l.57.72a3.39 3.39 0 01-1.6 1.07 6.34 6.34 0 01-1.8.28c-.56 0-1.09-.1-1.58-.28a3.63 3.63 0 01-2.13-2.22 5.36 5.36 0 01-.04-3.48 3.7 3.7 0 012.02-2.16 4.11 4.11 0 011.65-.32c.52 0 1 .08 1.43.25a3.1 3.1 0 011.87 1.9c.18.45.27.98.27 1.57 0 .3-.04.5-.1.6-.06.11-.19.16-.37.16h-5.08zm13.47 2.44v-5.29h-2.02a28.4 28.4 0 01-.2 1.87c-.08.54-.17 1.03-.28 1.47a8.54 8.54 0 01-.75 1.95h3.25zm3.42-.06v3.63c0 .18-.05.32-.16.43-.1.1-.23.16-.4.16h-1.23v-2.75h-6.14v2.19c0 .14-.05.27-.14.38-.08.12-.22.18-.4.18h-1.25v-4.16h.23c.19 0 .37-.02.54-.07.18-.06.35-.16.5-.32.17-.16.33-.4.47-.7.15-.3.28-.7.4-1.2s.22-1.13.3-1.86c.1-.74.17-1.62.22-2.65h5.56v6.74h1.5zm5.74-6.87c.6 0 1.16.1 1.66.3a3.6 3.6 0 012.1 2.16c.2.53.29 1.11.29 1.76 0 .65-.1 1.23-.29 1.76a3.53 3.53 0 01-2.1 2.18c-.5.2-1.05.3-1.66.3-.61 0-1.17-.1-1.67-.3a3.62 3.62 0 01-2.11-2.18c-.2-.53-.3-1.11-.3-1.76 0-.65.1-1.23.3-1.76.2-.52.47-.96.82-1.32a3.7 3.7 0 011.29-.84c.5-.2 1.06-.3 1.67-.3zm0 6.94c.68 0 1.19-.23 1.51-.7.33-.45.5-1.12.5-2 0-.9-.17-1.57-.5-2.03-.32-.47-.83-.7-1.51-.7-.7 0-1.2.24-1.54.7-.33.47-.5 1.14-.5 2.02 0 .88.17 1.56.5 2.02.33.46.85.69 1.54.69zm13.7 1.4h-1.97v-6.75h-3.2v6.75h-1.97v-8.21h7.15v8.2zm10.58 0h-1.98v-6.7h-2.01c-.06 1-.16 1.88-.3 2.6-.13.74-.29 1.35-.48 1.86-.18.5-.38.91-.61 1.22-.23.3-.47.54-.72.71-.26.17-.52.29-.8.34-.27.06-.54.09-.82.09-.3 0-.5-.03-.65-.08-.13-.05-.2-.12-.2-.21v-1.23h.47c.18 0 .36-.03.53-.08.18-.06.35-.16.51-.33.17-.17.33-.4.48-.7.15-.31.28-.72.4-1.22.13-.5.25-1.13.34-1.86.1-.73.17-1.6.23-2.62h5.61v8.2zm7.28-3.5c-.57.02-1.05.07-1.44.15-.39.06-.7.16-.93.27-.24.1-.4.24-.5.39a.85.85 0 00-.16.49c0 .34.1.6.3.74.21.15.48.22.81.22.4 0 .76-.07 1.05-.21.3-.15.6-.37.87-.67v-1.39zm-4.52-3.57a4.87 4.87 0 013.4-1.3c.48 0 .91.09 1.3.25a2.68 2.68 0 011.54 1.65c.14.4.21.82.21 1.28v5.19h-.9a.93.93 0 01-.43-.08c-.1-.06-.18-.18-.24-.35l-.17-.59c-.21.19-.41.35-.61.5a3.76 3.76 0 01-1.3.56 3.66 3.66 0 01-1.76-.05c-.3-.1-.55-.24-.76-.42a1.86 1.86 0 01-.5-.7 2.46 2.46 0 01-.07-1.58c.07-.21.18-.41.33-.6.16-.18.37-.36.62-.53a4 4 0 01.92-.43c.37-.12.8-.22 1.28-.3.48-.07 1.04-.12 1.66-.14v-.48c0-.55-.11-.95-.35-1.21-.23-.27-.57-.4-1.01-.4a2.47 2.47 0 00-1.36.37l-.44.24a.84.84 0 01-.43.12.58.58 0 01-.35-.1.93.93 0 01-.23-.26l-.35-.64zm16.21.32h-2.93v6.75h-1.97v-6.75h-2.92v-1.46h7.82v1.46zm6.45 3.24c-.57.03-1.05.08-1.44.16-.38.06-.7.16-.93.27-.24.1-.4.24-.5.39a.86.86 0 00-.16.49c0 .34.1.6.3.74.21.15.48.22.81.22.41 0 .76-.07 1.05-.21.3-.15.6-.37.87-.67v-1.39zm-4.52-3.56a4.87 4.87 0 013.4-1.3c.48 0 .91.09 1.3.25a2.66 2.66 0 011.54 1.65c.14.4.21.82.21 1.28v5.19h-.9a.94.94 0 01-.43-.08c-.1-.06-.18-.18-.24-.35l-.17-.59c-.21.19-.41.35-.61.5a3.67 3.67 0 01-1.3.56 3.65 3.65 0 01-1.76-.05c-.3-.1-.55-.24-.76-.42a1.89 1.89 0 01-.5-.7c-.12-.28-.18-.6-.18-.97a1.9 1.9 0 01.44-1.2c.16-.2.37-.37.62-.53.25-.17.56-.31.92-.44.37-.12.8-.22 1.28-.3.49-.07 1.04-.12 1.66-.14v-.48c0-.55-.11-.95-.35-1.21-.23-.27-.57-.4-1.01-.4a2.47 2.47 0 00-1.36.37l-.44.24a.84.84 0 01-.43.12.58.58 0 01-.35-.1.95.95 0 01-.23-.26l-.35-.64zm-56.5 18.7a6.72 6.72 0 011.4-.15c.62 0 1.15.09 1.62.27a3.16 3.16 0 011.88 1.88 4.2 4.2 0 01-.09 3.06 3.8 3.8 0 01-2.27 2.14 4.8 4.8 0 01-2.74.18 5.35 5.35 0 01-1.71-.72 5.32 5.32 0 01-.65-.53l.6-.84a.6.6 0 01.51-.27c.13 0 .27.05.41.13l.47.28c.18.1.4.2.63.28.25.09.54.13.88.13.37 0 .69-.06.96-.18.28-.11.51-.28.7-.49.18-.2.32-.46.4-.75.1-.29.15-.6.15-.95 0-.63-.18-1.12-.55-1.47-.36-.36-.9-.54-1.62-.54-.55 0-1.1.1-1.68.3l-1.24-.34.96-5.62h5.72v.84c0 .28-.1.51-.27.69-.17.17-.47.26-.9.26h-3.17l-.4 2.4zm15.9 1.58c0 1.01-.1 1.89-.32 2.63a5.28 5.28 0 01-.9 1.84c-.38.5-.83.85-1.35 1.1-.52.23-1.08.34-1.68.34a3.65 3.65 0 01-3.02-1.44 5.36 5.36 0 01-.89-1.84 9.64 9.64 0 01-.31-2.63c0-1.01.1-1.89.31-2.63.22-.74.51-1.35.9-1.84.37-.48.82-.84 1.33-1.08a3.94 3.94 0 011.68-.36c.6 0 1.16.12 1.68.36s.97.6 1.35 1.08c.38.49.68 1.1.9 1.84.22.74.33 1.62.33 2.63zm-2.04 0c0-.83-.06-1.53-.18-2.08a4.13 4.13 0 00-.5-1.3 1.74 1.74 0 00-1.53-.89c-.28 0-.56.07-.83.2-.26.13-.49.36-.7.68-.2.33-.36.76-.48 1.31s-.17 1.25-.17 2.08c0 .84.05 1.53.17 2.08.12.55.29.99.49 1.31.2.33.43.56.7.7a1.88 1.88 0 001.65 0c.27-.14.5-.37.7-.7.21-.32.38-.76.5-1.3.12-.56.19-1.25.19-2.09zm9.4-2.98a3 3 0 01-.8 2.09 2.64 2.64 0 01-1.87.77c-.39 0-.74-.07-1.07-.2-.32-.14-.6-.33-.85-.57a2.7 2.7 0 01-.55-.9c-.13-.36-.2-.75-.2-1.2 0-.44.07-.84.2-1.2a2.46 2.46 0 011.4-1.5c.33-.14.68-.21 1.07-.21a2.7 2.7 0 011.92.78c.24.25.42.56.56.92.13.37.2.77.2 1.22zm-1.51 0c0-.31-.04-.57-.1-.78-.06-.2-.14-.37-.25-.5a.84.84 0 00-.37-.27 1.15 1.15 0 00-.9 0 .84.84 0 00-.35.27c-.1.13-.18.3-.23.5-.06.21-.1.47-.1.78 0 .3.04.55.1.75.06.2.13.36.23.48s.22.21.36.27c.14.05.29.07.45.07.16 0 .3-.02.44-.07a.85.85 0 00.37-.27c.1-.12.2-.28.25-.48.06-.2.1-.45.1-.75zm5.36-2.49c.07-.08.15-.15.24-.22.1-.06.23-.1.4-.1h1.44l-8.59 11.28a.94.94 0 01-.25.22.7.7 0 01-.35.08h-1.47l8.58-11.26zm2.7 8.54a3 3 0 01-.82 2.09 2.67 2.67 0 01-3.78 0 2.7 2.7 0 01-.55-.9c-.13-.36-.2-.75-.2-1.2 0-.44.06-.85.2-1.2a2.46 2.46 0 011.4-1.5c.32-.14.68-.21 1.06-.21a2.7 2.7 0 011.91.78c.24.25.43.56.56.92.14.36.21.77.21 1.22zm-1.54 0c0-.31-.02-.57-.08-.78-.06-.2-.14-.38-.25-.5a.84.84 0 00-.37-.27 1.15 1.15 0 00-.9 0 .84.84 0 00-.36.27c-.1.13-.18.3-.24.5-.05.2-.08.47-.08.78 0 .3.03.55.08.75.06.2.14.37.24.49.1.12.23.2.36.26.14.06.3.08.45.08.16 0 .31-.03.45-.08a.85.85 0 00.37-.26c.1-.13.19-.29.25-.5.06-.2.08-.44.08-.74z" fill="#5E78FF"/><circle cx="1143.99" cy="202.42" r="71.5" stroke="#5E78FF" stroke-width="2"/><path d="M1124.95 203.66c.39 0 .74-.04 1.03-.14a2 2 0 00.73-.42c.19-.19.34-.41.44-.67a2.76 2.76 0 000-1.73c-.1-.25-.24-.47-.43-.64-.2-.18-.44-.31-.73-.4-.3-.1-.64-.15-1.04-.15h-1.61v4.16h1.61zm0-5.81c.77 0 1.44.09 2.01.27.56.18 1.03.44 1.4.76.36.33.64.72.81 1.17a4 4 0 01.27 1.49c0 .56-.09 1.07-.28 1.54-.18.46-.46.86-.84 1.2-.37.34-.84.6-1.4.78-.56.2-1.22.28-1.97.28h-1.61v4.08h-2.15v-11.57h3.76zm11.74 6.52a2.12 2.12 0 00-.43-1.32c-.14-.17-.33-.3-.55-.4a1.8 1.8 0 00-.77-.15c-.57 0-1.02.16-1.35.49-.32.32-.53.78-.62 1.38h3.72zm-3.76 1.2c.03.41.1.78.22 1.09.12.3.27.56.46.76.2.2.42.34.68.45.27.1.56.14.88.14.32 0 .6-.04.83-.11.23-.08.44-.16.61-.25l.45-.25a.81.81 0 01.39-.11.4.4 0 01.36.18l.57.72a3.43 3.43 0 01-1.59 1.07 6.4 6.4 0 01-1.79.28c-.57 0-1.1-.1-1.59-.28a3.62 3.62 0 01-2.14-2.22 5.31 5.31 0 01-.04-3.48 3.71 3.71 0 013.67-2.48c.52 0 1 .08 1.43.25a3.25 3.25 0 011.87 1.9c.18.45.27.98.27 1.57 0 .3-.03.5-.1.6-.06.11-.18.16-.36.16h-5.08zm15.64 3.85h-1.98v-6.7h-2.01a25 25 0 01-.3 2.6c-.13.74-.29 1.35-.48 1.86a5 5 0 01-.61 1.22c-.23.3-.47.54-.72.71-.26.17-.52.29-.8.34a3.8 3.8 0 01-.82.09c-.29 0-.51-.03-.65-.08-.13-.05-.2-.12-.2-.21v-1.23h.47c.18 0 .36-.03.53-.08.18-.06.35-.16.51-.33.17-.17.33-.4.48-.7.14-.31.28-.72.4-1.22.13-.5.24-1.13.34-1.86.1-.73.17-1.6.22-2.62h5.62v8.2zm10.32-8.21v8.2h-1.97v-4.78l.01-.4.06-.45a4.84 4.84 0 01-.51.87l-.38.52-.51.73-.59.81-1.57 2.23c-.08.1-.18.22-.3.32a.59.59 0 01-.41.17h-1.2v-8.21h1.97V206l-.02.4-.05.45a4.2 4.2 0 01.5-.87l.37-.52.52-.72.59-.83 1.58-2.22c.07-.12.17-.23.3-.33a.6.6 0 01.41-.16h1.2zm2.47.89c.31-.3.7-.54 1.16-.73.45-.2 1-.29 1.64-.29.51 0 .96.06 1.36.18.39.12.72.28.99.5a2 2 0 01.61.7 1.63 1.63 0 01.15 1.3c-.04.18-.12.34-.23.5-.1.16-.23.3-.4.45-.17.13-.39.24-.64.34.45.17.81.42 1.08.75.28.33.42.74.42 1.22 0 .4-.09.76-.28 1.07-.18.3-.42.57-.73.8a4.33 4.33 0 01-4.62-.04c-.26-.19-.5-.4-.71-.66l.56-.72a.4.4 0 01.36-.18c.13 0 .24.04.36.12l.38.25a2.18 2.18 0 001.29.37c.49 0 .87-.1 1.13-.33.25-.23.38-.5.38-.84a.89.89 0 00-.4-.78c-.26-.19-.69-.28-1.28-.28h-.93v-1.29h.93c.52 0 .91-.09 1.19-.27.28-.18.42-.42.42-.72 0-.27-.12-.5-.37-.67a1.8 1.8 0 00-1.07-.26 2.6 2.6 0 00-1.23.28l-.36.18a.5.5 0 01-.5.04.8.8 0 01-.21-.23l-.45-.76z" fill="#5E78FF"/><circle cx="1143.99" cy="484.9" r="71.5" stroke="#5E78FF" stroke-width="2"/><path d="M1135.89 468.04l-1.41-3.85-.21-.61-.23-.76c-.06.27-.14.53-.21.77l-.22.61-1.4 3.84h3.68zm3.8 4.36h-1.66a.74.74 0 01-.46-.13 1 1 0 01-.26-.35l-.87-2.37h-4.79l-.86 2.37a.78.78 0 01-.25.33.7.7 0 01-.46.15h-1.68l4.55-11.56h2.2l4.54 11.56zm6.75-7.69a1.12 1.12 0 01.92-.51h1.56l-1.92 3.04c-.13.22-.27.39-.4.52-.14.13-.31.23-.51.3.27.09.49.2.66.37.17.15.32.35.46.59l1.92 3.38h-1.37c-.34 0-.61-.06-.8-.17a1.4 1.4 0 01-.49-.5l-1.21-2.28a1.1 1.1 0 00-.42-.44c-.16-.1-.36-.14-.58-.14h-.74v3.53h-1.98v-8.2h1.98v3.38h.64c.22 0 .4-.04.53-.12a.98.98 0 00.35-.38l1.4-2.37zm11.83.95h-2.93v6.74h-1.98v-6.74h-2.92v-1.47h7.83v1.47zm-61.73 24.4c.42 0 .74-.11.98-.31.25-.2.37-.48.37-.83 0-.16-.02-.3-.06-.42a.78.78 0 00-.21-.35 1 1 0 00-.42-.22 2.2 2.2 0 00-.65-.08h-1.48v2.2h1.47zm-1.47-5.58v2.15h1.29c.2 0 .37-.02.53-.07.16-.06.3-.14.42-.25.12-.1.21-.23.27-.36.06-.15.1-.3.1-.47 0-.13-.03-.25-.07-.37a.73.73 0 00-.21-.31 1.1 1.1 0 00-.41-.23 1.94 1.94 0 00-.63-.09h-1.29zm1.35-1.29c.52 0 .96.06 1.34.16.37.1.69.24.93.41a1.65 1.65 0 01.72 1.42c0 .18-.02.36-.07.55a1.86 1.86 0 01-.7 1.02c-.2.15-.45.26-.76.34.28.06.52.14.75.25.22.1.41.23.57.4a1.75 1.75 0 01.51 1.26 2.2 2.2 0 01-.96 1.83c-.29.19-.63.33-1.01.43-.38.1-.78.14-1.19.14h-3.36v-8.2h3.23zm9.17 6.8c.44 0 .78-.12 1-.34.22-.22.33-.51.33-.86 0-.15-.02-.3-.08-.44a.93.93 0 00-.23-.36c-.11-.11-.24-.2-.42-.25-.17-.06-.37-.1-.61-.1h-1.47V490h1.48zm-.02-3.75c.57 0 1.05.06 1.45.2.39.14.71.33.96.56.24.24.42.5.53.82.11.3.16.62.16.96a2.41 2.41 0 01-1.77 2.43c-.38.13-.81.2-1.31.2h-3.36v-8.22h1.88v3.05h1.46zm6.58-3.05v8.21h-1.98v-8.2h1.98zm10.1 8.21h-1.98v-6.74h-3.2v6.74h-1.98v-8.2h7.16v8.2zm6.59-8.33c.6 0 1.16.1 1.65.3a3.57 3.57 0 012.11 2.16c.19.52.28 1.1.28 1.75 0 .65-.09 1.24-.28 1.76-.2.52-.47.97-.83 1.34-.35.37-.78.65-1.28.85-.49.2-1.05.3-1.65.3-.62 0-1.18-.1-1.68-.3-.5-.2-.93-.48-1.28-.85a3.84 3.84 0 01-.83-1.34 5.13 5.13 0 01-.29-1.76c0-.64.1-1.23.29-1.75a3.57 3.57 0 012.11-2.17c.5-.2 1.06-.3 1.68-.3zm0 6.93c.68 0 1.18-.23 1.51-.69.33-.45.49-1.13.49-2.01 0-.89-.16-1.56-.49-2.03-.33-.46-.83-.7-1.51-.7-.7 0-1.21.24-1.55.71a3.46 3.46 0 00-.49 2.02c0 .88.16 1.55.49 2.01.34.46.85.7 1.55.7zm13.96 1.4h-1.97v-6.7h-2.02c-.06 1.01-.16 1.88-.29 2.62-.14.72-.3 1.34-.48 1.84-.19.5-.39.92-.62 1.23-.22.3-.46.54-.72.7-.26.18-.52.3-.79.35-.27.05-.55.08-.83.08-.29 0-.51-.02-.64-.08-.14-.05-.2-.12-.2-.2V490h.47c.17 0 .35-.02.53-.08.17-.05.34-.16.51-.32.16-.17.32-.4.47-.7.15-.32.29-.72.41-1.22.13-.51.24-1.13.33-1.86.1-.73.17-1.6.23-2.63h5.61v8.21zm10.1-8.2v8.2h-1.97v-3.63h-3.2v3.63h-1.98v-8.2h1.98v3.1h3.2v-3.1h1.97zm8.25 3.16c0-.26-.04-.5-.11-.73a1.49 1.49 0 00-.88-1c-.21-.1-.47-.15-.76-.15-.57 0-1.03.16-1.36.5-.32.32-.53.78-.62 1.38h3.73zm-3.77 1.19c.03.42.11.78.22 1.1.12.3.28.55.47.75.19.2.42.35.68.45.26.1.56.14.88.14.32 0 .59-.03.82-.1.24-.08.44-.16.61-.25l.46-.25a.77.77 0 01.38-.12c.17 0 .29.07.37.19l.57.72a3.48 3.48 0 01-1.6 1.06 6.45 6.45 0 01-1.79.28c-.57 0-1.1-.1-1.59-.28a3.62 3.62 0 01-2.14-2.21 5.55 5.55 0 01-.04-3.48 3.63 3.63 0 012.02-2.16 4.1 4.1 0 011.66-.32c.51 0 .99.08 1.43.25a3.12 3.12 0 011.86 1.9c.18.45.27.97.27 1.57 0 .3-.03.5-.09.6-.07.1-.19.16-.37.16h-5.08zm15.18-4.36v8.21h-1.98v-3.63h-3.2v3.63h-1.97v-8.2h1.97v3.1h3.2v-3.1h1.98zm6.31 6.8c.45 0 .78-.12 1-.34.22-.22.33-.51.33-.86 0-.15-.02-.3-.08-.44a1 1 0 00-.64-.62c-.17-.06-.38-.09-.62-.09h-1.46V490h1.47zm-.02-3.75c.57 0 1.06.06 1.45.2.39.14.71.33.96.56.25.24.42.5.53.82a2.8 2.8 0 01-.04 2.02 2.41 2.41 0 01-1.57 1.37c-.38.13-.81.2-1.3.2h-3.36v-8.22h1.88v3.05h1.45zm6.58-3.05v8.21h-1.98v-8.2h1.98zm10.27 8.21h-1.9a.54.54 0 01-.35-.1 1.05 1.05 0 01-.22-.26l-1.73-2.86c-.03.09-.06.18-.1.25l-.11.23-1.54 2.38-.21.25a.5.5 0 01-.32.11h-1.77l2.81-4.23-2.7-3.98h1.9a.6.6 0 01.32.07c.07.04.13.1.19.2l1.72 2.73c.06-.19.14-.36.25-.54l1.38-2.16c.12-.2.27-.3.46-.3h1.81l-2.69 3.9 2.8 4.31zm-72.67 16.88c.23.27.47.46.73.57a2.2 2.2 0 001.67 0c.24-.11.44-.28.61-.51.17-.23.3-.52.39-.86.09-.36.14-.77.14-1.25s-.04-.88-.12-1.21a2.5 2.5 0 00-.33-.82c-.14-.2-.32-.36-.53-.45a1.96 1.96 0 00-1.74.12c-.29.17-.56.41-.82.73v3.67zm-.1-4.96a4.1 4.1 0 011.14-.93 3.1 3.1 0 012.73-.07c.37.19.69.46.96.82.27.35.48.79.62 1.31a6.4 6.4 0 01-.02 3.49c-.17.52-.4.98-.71 1.36a3.4 3.4 0 01-1.11.9c-.44.22-.92.32-1.46.32-.46 0-.85-.07-1.18-.2a3.06 3.06 0 01-.87-.6v3.36h-1.97V502.2h1.2c.26 0 .43.13.51.37l.16.75zm12.54 3.58c-.57.03-1.05.08-1.44.15-.39.07-.7.16-.94.27-.23.12-.4.25-.5.4a.86.86 0 00-.15.48c0 .35.1.6.3.75.21.15.48.22.81.22.4 0 .75-.07 1.05-.22.3-.14.59-.37.87-.67v-1.38zm-4.53-3.56a4.88 4.88 0 013.41-1.3c.48 0 .91.08 1.29.24a2.62 2.62 0 011.55 1.66c.14.39.21.81.21 1.28v5.18h-.9a.93.93 0 01-.43-.08c-.1-.06-.18-.17-.24-.34l-.18-.6a4.1 4.1 0 01-1.22.85 3.74 3.74 0 01-2.45.16c-.29-.1-.55-.23-.76-.42a1.83 1.83 0 01-.49-.7 2.42 2.42 0 01-.08-1.58c.07-.2.18-.4.34-.6a3.8 3.8 0 011.54-.96 12.17 12.17 0 012.94-.44v-.47c0-.55-.12-.96-.35-1.22a1.3 1.3 0 00-1.02-.4 2.43 2.43 0 00-1.35.37l-.44.25a.85.85 0 01-.43.11.57.57 0 01-.35-.1.95.95 0 01-.24-.26l-.35-.63zm13.17 5.74c.69 0 1.2-.22 1.53-.65.34-.44.51-1.08.51-1.92 0-.84-.17-1.48-.5-1.91-.33-.44-.82-.66-1.5-.66-.67 0-1.18.2-1.53.62-.35.41-.53 1.03-.53 1.85 0 .87.17 1.53.5 2 .33.45.84.67 1.52.67zm.58-8.37c-.5.03-.93.13-1.29.3a2.53 2.53 0 00-1.41 1.63c-.11.38-.18.8-.2 1.27.13-.21.29-.4.48-.57a3.62 3.62 0 012.37-.85c.55 0 1.04.1 1.47.29.44.2.81.46 1.12.82.31.35.54.77.7 1.27a4.96 4.96 0 01-.05 3.3 3.5 3.5 0 01-2.1 2.07 4.77 4.77 0 01-3.31 0c-.49-.2-.92-.5-1.28-.94-.37-.43-.65-1-.85-1.68a10.76 10.76 0 01-.07-4.87c.15-.72.4-1.35.76-1.9a4 4 0 011.38-1.3 4.9 4.9 0 012.11-.6l2.92-.22.11 1.02c.02.22-.01.41-.1.56-.09.15-.24.23-.46.25l-2.3.15zm9.65 1.36c.61 0 1.16.1 1.66.3a3.57 3.57 0 012.1 2.16c.2.52.29 1.1.29 1.75a4.9 4.9 0 01-.29 1.76 3.67 3.67 0 01-2.1 2.19c-.5.2-1.05.3-1.66.3-.61 0-1.17-.1-1.67-.3-.5-.2-.93-.48-1.29-.85a3.97 3.97 0 01-.82-1.34 5.13 5.13 0 01-.29-1.76c0-.64.1-1.23.29-1.75.2-.52.47-.96.82-1.33a3.7 3.7 0 011.29-.84c.5-.2 1.06-.3 1.67-.3zm0 6.93c.69 0 1.19-.23 1.52-.69.33-.45.49-1.13.49-2.01 0-.89-.16-1.56-.49-2.03-.33-.46-.83-.7-1.52-.7-.69 0-1.2.24-1.54.71-.33.47-.5 1.14-.5 2.02 0 .88.17 1.55.5 2.01.34.46.85.7 1.54.7zm13.36-5.34h-2.92v6.74h-1.98v-6.74h-2.92v-1.47h7.82v1.47z" fill="#5E78FF"/><circle cx="752" cy="484.9" r="71.5" stroke="#5E78FF" stroke-width="2"/><path d="M731.85 472.4h-2.17v-9.9h-5.02v9.9h-2.16v-11.56h9.35v11.56zm6.64-8.33c.6 0 1.16.1 1.66.3a3.58 3.58 0 012.1 2.16c.2.52.29 1.1.29 1.75 0 .65-.1 1.24-.29 1.76a3.55 3.55 0 01-2.1 2.18c-.5.2-1.05.3-1.66.3-.61 0-1.17-.1-1.67-.3a3.62 3.62 0 01-2.11-2.18 5.08 5.08 0 01-.3-1.76c0-.64.1-1.23.3-1.75.2-.52.47-.96.82-1.33.36-.36.79-.64 1.29-.84.5-.2 1.06-.3 1.67-.3zm0 6.93c.68 0 1.19-.23 1.51-.69.33-.45.5-1.13.5-2.01 0-.89-.17-1.56-.5-2.03-.32-.46-.83-.7-1.5-.7-.7 0-1.22.24-1.55.71-.33.47-.5 1.14-.5 2.02 0 .88.17 1.55.5 2.01.33.46.85.7 1.54.7zm13.97 1.4h-1.98v-6.7h-2.01c-.07 1.01-.17 1.88-.3 2.62-.13.72-.3 1.34-.48 1.84s-.39.92-.62 1.23c-.22.3-.46.54-.72.7a2.2 2.2 0 01-.79.35c-.27.05-.54.08-.82.08-.3 0-.51-.02-.65-.08-.13-.05-.2-.12-.2-.2V471h.47c.18 0 .36-.02.53-.08.18-.05.35-.16.51-.32.17-.17.33-.4.48-.7.14-.32.28-.72.4-1.22.13-.51.24-1.13.34-1.86.1-.73.17-1.6.22-2.63h5.62v8.21zm10.1-8.2v8.2h-1.98v-3.63h-3.2v3.63h-1.97v-8.2h1.97v3.1h3.2v-3.1h1.98zm7.3 4.7c-.58.03-1.06.08-1.45.15-.39.07-.7.16-.93.27-.24.12-.4.25-.5.4a.85.85 0 00-.16.48c0 .35.1.6.3.75.21.15.48.22.81.22.4 0 .76-.07 1.05-.22.3-.14.59-.37.87-.67v-1.38zm-4.54-3.56a4.87 4.87 0 013.41-1.3c.48 0 .91.08 1.29.24a2.64 2.64 0 011.55 1.66c.14.39.2.81.2 1.28v5.18h-.89a.95.95 0 01-.43-.08c-.1-.06-.18-.17-.24-.34l-.18-.6a3.79 3.79 0 01-1.91 1.06 3.72 3.72 0 01-1.76-.05c-.29-.1-.54-.23-.76-.42a1.9 1.9 0 01-.5-.7c-.11-.27-.17-.6-.17-.96a1.9 1.9 0 01.44-1.21c.16-.19.37-.36.62-.53.25-.17.55-.3.92-.43.37-.12.8-.22 1.28-.3.48-.08 1.04-.13 1.66-.14v-.48c0-.55-.12-.96-.35-1.22-.24-.26-.57-.4-1.02-.4a2.44 2.44 0 00-1.35.37l-.44.25a.85.85 0 01-.43.11.59.59 0 01-.35-.1.97.97 0 01-.24-.26l-.35-.63zm13.6 2.55v-2.4h-1.07c-.25 0-.46.03-.63.1-.16.07-.3.17-.4.29a.99.99 0 00-.22.38c-.04.14-.06.28-.06.42 0 .38.12.68.37.9.26.2.6.31 1.03.31h.98zm1.88-3.7v8.21h-1.88v-3.3h-.34c-.16 0-.3.02-.4.05a.78.78 0 00-.45.3l-.15.26-1.32 2.01c-.06.11-.13.21-.2.3a.97.97 0 01-.58.34 2.2 2.2 0 01-.45.04h-1.37l2.08-2.9a1.65 1.65 0 01.92-.78 3.4 3.4 0 01-.99-.32 2.38 2.38 0 01-.65-.5 1.95 1.95 0 01-.47-1.3 2.1 2.1 0 01.75-1.66c.26-.23.6-.4 1.01-.54.41-.14.9-.2 1.48-.2h3.01zm-55.2 18.88c.6 0 1.16.1 1.66.3a3.57 3.57 0 012.1 2.16c.2.52.29 1.1.29 1.75 0 .65-.1 1.24-.29 1.76a3.54 3.54 0 01-2.1 2.18c-.5.2-1.05.3-1.66.3-.61 0-1.17-.1-1.67-.3a3.63 3.63 0 01-2.11-2.18 5.08 5.08 0 01-.3-1.76c0-.64.1-1.23.3-1.75.2-.52.47-.96.82-1.33.36-.36.79-.64 1.29-.84.5-.2 1.06-.3 1.67-.3zm0 6.93c.68 0 1.19-.23 1.51-.69.33-.45.5-1.13.5-2.01 0-.89-.17-1.56-.5-2.03-.32-.46-.83-.7-1.51-.7-.7 0-1.2.24-1.54.71-.33.47-.5 1.14-.5 2.02 0 .88.17 1.55.5 2.01.33.46.85.7 1.54.7zm13.7 1.4h-1.97v-6.74h-3.2v6.74h-1.97v-8.2h7.15v8.2zm10.58 0h-1.98v-6.7h-2.01c-.06 1.01-.16 1.88-.3 2.62-.13.72-.29 1.34-.48 1.84-.18.5-.38.92-.61 1.23-.23.3-.47.54-.72.7a2.2 2.2 0 01-.8.35c-.27.05-.54.08-.82.08-.3 0-.5-.02-.65-.08-.13-.05-.2-.12-.2-.2V490h.48c.17 0 .35-.02.52-.08.18-.05.35-.16.52-.32.16-.17.32-.4.47-.7.15-.32.28-.72.4-1.22.13-.51.25-1.13.34-1.86.1-.73.17-1.6.23-2.63h5.61v8.21zm7.28-3.5c-.57.03-1.05.08-1.44.15-.39.07-.7.16-.93.27-.24.12-.4.25-.5.4a.85.85 0 00-.16.48c0 .35.1.6.3.75.21.15.48.22.81.22.4 0 .76-.07 1.05-.22.3-.14.6-.37.87-.67v-1.38zm-4.52-3.56a4.87 4.87 0 013.4-1.3c.48 0 .91.08 1.3.24a2.65 2.65 0 011.54 1.66c.14.39.21.81.21 1.28v5.18h-.9a.95.95 0 01-.43-.08c-.1-.06-.18-.17-.24-.34l-.17-.6c-.21.2-.41.36-.61.5s-.4.26-.62.36a3.72 3.72 0 01-2.45.16c-.29-.1-.54-.24-.75-.43a1.88 1.88 0 01-.5-.7 2.46 2.46 0 01-.07-1.58c.07-.2.18-.4.33-.6.16-.18.37-.35.62-.52.25-.17.56-.3.92-.43.37-.12.8-.22 1.28-.3.49-.08 1.04-.13 1.66-.14v-.48c0-.55-.11-.96-.35-1.22-.23-.26-.57-.4-1.01-.4a2.44 2.44 0 00-1.36.37l-.44.25a.85.85 0 01-.43.11.59.59 0 01-.35-.1.95.95 0 01-.23-.26l-.35-.63zm16.21.32h-2.93v6.74h-1.97v-6.74h-2.92v-1.47h7.82v1.47zm6.45 3.24c-.57.03-1.05.08-1.44.15-.38.07-.7.16-.93.27-.24.12-.4.25-.5.4a.85.85 0 00-.16.48c0 .35.1.6.3.75.21.15.48.22.81.22.41 0 .76-.07 1.05-.22.3-.14.6-.37.87-.67v-1.38zm-4.52-3.56a4.87 4.87 0 013.4-1.3c.48 0 .91.08 1.3.24a2.64 2.64 0 011.54 1.66c.14.39.21.81.21 1.28v5.18h-.9a.95.95 0 01-.43-.08c-.1-.06-.18-.17-.24-.34l-.17-.6c-.21.2-.41.36-.61.5a3.75 3.75 0 01-1.3.57 3.71 3.71 0 01-1.76-.06 1.9 1.9 0 01-1.26-1.12c-.12-.27-.18-.6-.18-.96a1.9 1.9 0 01.44-1.21c.16-.19.37-.36.62-.53.25-.17.56-.3.92-.43.37-.12.8-.22 1.28-.3.49-.08 1.04-.13 1.66-.14v-.48c0-.55-.11-.96-.35-1.22-.23-.26-.57-.4-1.01-.4a2.44 2.44 0 00-1.36.37l-.44.25a.85.85 0 01-.43.11.59.59 0 01-.35-.1.97.97 0 01-.23-.26l-.35-.63zm-54.28 18.74c.31-.3.7-.54 1.16-.72.45-.2 1-.3 1.64-.3.51 0 .96.07 1.36.2.39.1.72.27.99.48.27.2.48.44.61.7a1.68 1.68 0 01.15 1.31 1.9 1.9 0 01-.63.94c-.17.13-.39.25-.64.35.45.16.81.42 1.08.75.28.33.42.73.42 1.22 0 .4-.1.75-.28 1.06-.18.31-.42.58-.73.8-.3.21-.65.37-1.05.49a4.35 4.35 0 01-3.57-.53c-.26-.18-.5-.4-.71-.65l.56-.72a.4.4 0 01.36-.19.6.6 0 01.36.13l.38.25a2.23 2.23 0 001.29.37c.5 0 .87-.11 1.13-.34.25-.22.38-.5.38-.84a.9.9 0 00-.4-.77c-.26-.19-.69-.28-1.28-.28h-.93v-1.3h.93c.52 0 .91-.08 1.2-.26.27-.19.4-.43.4-.72a.8.8 0 00-.36-.68 1.8 1.8 0 00-1.07-.26 2.54 2.54 0 00-1.23.28c-.14.06-.26.13-.36.19a.51.51 0 01-.5.04.7.7 0 01-.2-.24l-.46-.76zm13.02 3.82c-.57.03-1.05.08-1.44.15-.39.07-.7.16-.93.27-.24.12-.4.25-.5.4a.85.85 0 00-.16.48c0 .35.1.6.3.75.21.15.48.22.81.22.4 0 .76-.07 1.05-.22.3-.14.59-.37.87-.67v-1.38zm-4.52-3.56a4.87 4.87 0 013.4-1.3c.48 0 .91.08 1.3.24a2.64 2.64 0 011.54 1.66c.14.39.21.81.21 1.28v5.18h-.9a.95.95 0 01-.43-.08c-.1-.06-.18-.17-.24-.34l-.17-.6c-.21.2-.41.36-.61.5a3.79 3.79 0 01-1.3.57 3.72 3.72 0 01-1.76-.06c-.3-.1-.55-.23-.76-.42a1.9 1.9 0 01-.5-.7c-.12-.27-.18-.6-.18-.96a1.9 1.9 0 01.44-1.21c.16-.19.37-.36.62-.53.25-.17.56-.3.92-.43.37-.12.8-.22 1.28-.3.48-.08 1.04-.13 1.66-.14v-.48c0-.55-.11-.96-.35-1.22-.23-.26-.57-.4-1.01-.4a2.44 2.44 0 00-1.36.37l-.44.25a.85.85 0 01-.43.11.59.59 0 01-.35-.1.97.97 0 01-.23-.26l-.36-.63zm23.72-1.16v8.22h-1.79v-4.57a5.52 5.52 0 01.12-1.29l-2.42 4.43a.59.59 0 01-.55.34h-.21a.59.59 0 01-.56-.34l-2.45-4.46a7.52 7.52 0 01.13 1.32v4.57h-1.79v-8.22h1.63a1 1 0 01.41.09c.14.06.26.17.35.35l1.93 3.45a5.8 5.8 0 01.45 1.05l.2-.54.24-.5 1.92-3.46c.1-.18.21-.3.34-.35a1 1 0 01.41-.1h1.63zm8.24 3.18c0-.26-.04-.5-.11-.73a1.65 1.65 0 00-.32-.6c-.15-.17-.33-.3-.55-.4a1.8 1.8 0 00-.77-.15c-.57 0-1.02.16-1.36.5a2.4 2.4 0 00-.62 1.38h3.73zm-3.77 1.19c.03.42.1.78.22 1.1.12.3.28.55.47.75.2.2.42.35.68.45.27.1.56.14.88.14.32 0 .6-.03.82-.1.24-.08.44-.16.61-.25l.46-.25a.79.79 0 01.38-.12c.17 0 .29.07.37.19l.57.72c-.22.25-.47.47-.74.65a4.42 4.42 0 01-1.76.63c-.3.04-.6.06-.89.06-.57 0-1.1-.1-1.59-.28a3.64 3.64 0 01-2.13-2.21 5.36 5.36 0 01-.04-3.48 3.7 3.7 0 012.02-2.16 4.1 4.1 0 011.65-.32 4 4 0 011.43.25 3.08 3.08 0 011.86 1.9c.18.45.27.97.27 1.57 0 .3-.03.5-.1.6-.05.1-.18.16-.36.16h-5.08zm13.9-2.62a.91.91 0 01-.17.18c-.05.04-.13.06-.24.06-.1 0-.2-.03-.3-.09a4.83 4.83 0 00-.82-.41c-.18-.07-.4-.1-.68-.1-.34 0-.65.06-.91.2-.26.12-.48.3-.66.53-.17.23-.3.52-.38.85-.08.34-.13.71-.13 1.13 0 .44.05.83.14 1.17.1.34.23.63.4.87.18.22.4.4.65.52s.53.18.84.18c.32 0 .57-.04.76-.11a2.68 2.68 0 00.84-.52c.1-.07.22-.12.34-.12a.4.4 0 01.36.19l.57.72a3.66 3.66 0 01-2.36 1.28c-.29.04-.58.06-.87.06a3.44 3.44 0 01-2.6-1.11c-.34-.36-.6-.8-.8-1.33a5.25 5.25 0 01-.3-1.8c0-.6.1-1.16.26-1.67.18-.52.44-.96.77-1.34.34-.37.75-.67 1.25-.88.5-.22 1.07-.32 1.71-.32a3.92 3.92 0 012.86 1.14l-.52.72zm7.13 1.96v-2.4h-1.08c-.25 0-.45.03-.62.1-.16.07-.3.17-.4.29a.99.99 0 00-.22.38c-.05.14-.07.28-.07.42 0 .38.13.68.38.9.25.2.6.31 1.02.31h.99zm1.88-3.7v8.21h-1.88v-3.3h-.35c-.16 0-.29.02-.4.05a.78.78 0 00-.45.3l-.15.26-1.3 2.01c-.07.11-.14.21-.22.3a.97.97 0 01-.57.34 2.2 2.2 0 01-.45.04h-1.37l2.07-2.9a1.65 1.65 0 01.92-.78 3.4 3.4 0 01-.98-.32 2.38 2.38 0 01-.65-.5 1.95 1.95 0 01-.47-1.3c0-.3.06-.6.17-.9.13-.28.32-.54.58-.76.26-.23.6-.4 1-.54.42-.14.91-.2 1.49-.2h3zm11.63 6.75v3.62c0 .18-.06.33-.16.44-.11.1-.25.15-.41.15h-1.23v-2.75h-6.87v-8.2h1.98v6.74h3.2v-6.75h1.97v6.75h1.52zM180.4 472.16h-2.16v-9.92h-5.03v9.92h-2.16v-11.57h9.35v11.57zm10.7 0h-1.97v-6.7h-2.02c-.06 1-.16 1.88-.3 2.6-.13.73-.29 1.35-.47 1.86-.18.5-.39.91-.62 1.22-.22.3-.46.54-.72.71a2.2 2.2 0 01-.8.34c-.26.06-.54.09-.81.09-.3 0-.51-.03-.65-.08s-.2-.12-.2-.21v-1.23h.47c.18 0 .35-.03.53-.08.17-.06.34-.17.5-.33.18-.17.33-.4.48-.7.15-.32.29-.72.4-1.22.14-.5.25-1.13.34-1.86.1-.73.18-1.6.23-2.62h5.61v8.2zm7.29-3.5c-.57.02-1.05.07-1.44.14-.4.07-.7.16-.94.28-.23.1-.4.24-.5.39a.85.85 0 00-.15.49c0 .34.1.59.3.74.2.15.48.22.8.22.41 0 .76-.07 1.06-.21.3-.15.58-.38.87-.67v-1.39zm-4.53-3.57a4.87 4.87 0 013.4-1.3c.49 0 .92.09 1.3.25a2.65 2.65 0 011.55 1.65c.14.4.2.82.2 1.28v5.19h-.89a.95.95 0 01-.43-.08c-.1-.06-.18-.18-.24-.35l-.18-.59a3.83 3.83 0 01-1.22.85 3.72 3.72 0 01-2.45.16c-.3-.1-.55-.24-.76-.43a1.88 1.88 0 01-.5-.7 2.46 2.46 0 01-.07-1.58c.07-.2.18-.4.34-.59.16-.19.36-.36.61-.53.25-.16.56-.3.92-.43.37-.12.8-.22 1.28-.3.49-.07 1.04-.12 1.67-.14v-.48c0-.55-.12-.95-.35-1.21-.24-.27-.58-.4-1.02-.4a2.44 2.44 0 00-1.35.36l-.44.25a.85.85 0 01-.43.11.59.59 0 01-.36-.1.95.95 0 01-.23-.26l-.35-.63zm16.47-1.14v8.2h-1.98v-3.63h-3.2v3.64h-1.97v-8.21h1.97v3.11h3.2v-3.11h1.98zm10.33 0v8.2h-1.97v-4.79a5.26 5.26 0 01.07-.84 3.93 3.93 0 01-.51.87 387.81 387.81 0 01-1.48 2.06l-1.57 2.23c-.08.1-.17.22-.3.32a.59.59 0 01-.4.16h-1.21v-8.2h1.97v4.79c0 .12 0 .26-.02.4l-.05.45a4.1 4.1 0 01.5-.87l.37-.52.52-.72.59-.83 1.58-2.22c.07-.12.17-.23.3-.33.12-.1.26-.16.41-.16h1.2zm10.33 0v8.2h-1.98v-4.79a5.83 5.83 0 01.08-.84 3.86 3.86 0 01-.52.87 387.81 387.81 0 01-1.47 2.06l-1.57 2.23c-.08.1-.18.22-.3.32a.59.59 0 01-.4.16h-1.22v-8.2h1.98v4.79c0 .12 0 .26-.02.4a5.8 5.8 0 01-.05.45 4.2 4.2 0 01.5-.87l.37-.52.52-.72.58-.83 1.59-2.22c.07-.12.17-.23.3-.33.12-.1.26-.16.41-.16h1.2zm4.93 6.08c.22.27.47.46.73.57a2.21 2.21 0 001.67 0c.24-.1.44-.28.6-.5.18-.24.3-.53.4-.87a5 5 0 00.13-1.24c0-.48-.04-.89-.12-1.22a2.3 2.3 0 00-.32-.81 1.3 1.3 0 00-.53-.46 1.6 1.6 0 00-.7-.14c-.4 0-.76.08-1.05.26a3.1 3.1 0 00-.81.73v3.68zm-.1-4.96c.33-.38.71-.69 1.14-.92a3.07 3.07 0 012.73-.07c.37.18.69.45.96.81.27.35.48.8.62 1.31a6.42 6.42 0 01-.02 3.5c-.17.51-.4.97-.72 1.35-.3.39-.67.69-1.1.9-.44.22-.93.33-1.46.33a3 3 0 01-1.18-.21 2.95 2.95 0 01-.87-.6v3.37h-1.98v-10.9h1.21c.26 0 .42.13.5.37l.16.76zm11.83-1.25c.61 0 1.16.1 1.66.3a3.57 3.57 0 012.1 2.16c.2.53.29 1.11.29 1.76 0 .65-.1 1.23-.29 1.76a3.54 3.54 0 01-2.1 2.18c-.5.2-1.05.3-1.66.3-.61 0-1.17-.1-1.67-.3a3.63 3.63 0 01-2.11-2.18 5.08 5.08 0 01-.29-1.76c0-.65.1-1.23.29-1.76.2-.52.47-.96.82-1.32.36-.37.79-.65 1.29-.84.5-.2 1.06-.3 1.67-.3zm0 6.94c.69 0 1.19-.23 1.51-.7.34-.45.5-1.12.5-2 0-.9-.16-1.57-.5-2.03-.32-.47-.82-.7-1.5-.7-.7 0-1.22.24-1.55.7-.33.47-.5 1.14-.5 2.02 0 .88.17 1.55.5 2.02.33.46.85.69 1.54.69zm9.91.04c.42 0 .74-.1.98-.3.25-.2.37-.48.37-.83 0-.15-.02-.29-.06-.42a.74.74 0 00-.21-.34c-.1-.1-.24-.17-.42-.23a2.22 2.22 0 00-.65-.08h-1.48v2.2h1.47zm-1.47-5.56v2.15h1.3a1.34 1.34 0 00.94-.32c.11-.1.2-.23.27-.37a1.15 1.15 0 00.03-.83.76.76 0 00-.21-.32c-.1-.1-.24-.17-.41-.23a1.88 1.88 0 00-.63-.08h-1.3zm1.35-1.3c.52 0 .96.06 1.34.16.38.1.69.24.93.42.25.17.43.38.55.63.11.24.17.5.17.78 0 .18-.02.36-.07.55a1.8 1.8 0 01-.7 1.02c-.2.15-.45.26-.76.34.28.06.52.15.75.25.22.1.41.23.57.4a1.74 1.74 0 01.5 1.26 2.12 2.12 0 01-.95 1.82c-.29.2-.63.35-1.01.44-.38.1-.78.15-1.2.15h-3.35v-8.21h3.23zm10.15 4.71c-.57.03-1.05.08-1.44.15-.39.07-.7.16-.94.28-.23.1-.4.24-.5.39a.85.85 0 00-.15.49c0 .34.1.59.3.74.21.15.48.22.81.22.4 0 .75-.07 1.05-.21.3-.15.59-.38.87-.67v-1.39zm-4.53-3.56a4.87 4.87 0 013.41-1.3c.48 0 .91.09 1.29.25a2.65 2.65 0 011.55 1.65c.14.4.2.82.2 1.28v5.19h-.89a.95.95 0 01-.43-.08c-.1-.06-.18-.18-.24-.35l-.18-.59a3.83 3.83 0 01-1.22.85 3.72 3.72 0 01-2.45.16c-.3-.1-.54-.24-.76-.43a1.88 1.88 0 01-.5-.7 2.46 2.46 0 01-.06-1.58c.06-.2.18-.4.33-.59.16-.19.37-.36.62-.53.25-.16.55-.3.92-.43.37-.12.8-.22 1.28-.3.48-.07 1.04-.12 1.66-.14v-.48c0-.55-.12-.95-.35-1.21-.24-.27-.57-.4-1.02-.4a2.44 2.44 0 00-1.35.36l-.44.25a.85.85 0 01-.43.11.59.59 0 01-.35-.1.95.95 0 01-.23-.26l-.36-.63zm16.47-1.14v8.2h-1.97v-3.63h-3.2v3.64h-1.98v-8.21h1.98v3.11h3.2v-3.11h1.97zm10.34 0v8.2h-1.98v-4.79a5.83 5.83 0 01.07-.84 3.86 3.86 0 01-.51.87 387.81 387.81 0 01-1.47 2.06l-1.58 2.23c-.07.1-.17.22-.3.32a.59.59 0 01-.4.16h-1.21v-8.2h1.97v4.79c0 .12 0 .26-.02.4a5.8 5.8 0 01-.05.45 4.2 4.2 0 01.5-.87l.38-.52.52-.72.58-.83 1.58-2.22c.08-.12.18-.23.3-.33s.26-.16.42-.16h1.2zm8.24 3.16c0-.26-.04-.5-.12-.72a1.65 1.65 0 00-.32-.6c-.14-.17-.32-.3-.55-.4a1.8 1.8 0 00-.77-.15c-.57 0-1.02.16-1.35.48a2.4 2.4 0 00-.62 1.39h3.73zm-3.77 1.19c.03.42.1.79.22 1.1.12.3.27.55.46.76.2.2.42.34.69.44.26.1.56.15.88.15.31 0 .59-.04.82-.11.23-.08.44-.16.6-.25l.46-.25a.79.79 0 01.39-.11c.16 0 .28.06.37.18l.56.72c-.22.26-.46.47-.73.65a4.42 4.42 0 01-1.76.63c-.3.04-.6.07-.9.07-.56 0-1.1-.1-1.58-.28a3.64 3.64 0 01-2.14-2.22 5.36 5.36 0 01-.04-3.48 3.7 3.7 0 012.02-2.16 4.1 4.1 0 011.65-.32 4 4 0 011.44.25 3.08 3.08 0 011.86 1.9c.18.45.27.98.27 1.57 0 .3-.03.5-.1.6-.06.1-.18.16-.36.16h-5.08zm12.44-3.46c.3-.3.69-.55 1.15-.73.45-.2 1-.29 1.64-.29.51 0 .96.06 1.36.18.4.12.72.28.99.5.27.2.48.43.62.7a1.68 1.68 0 01.14 1.3 1.9 1.9 0 01-.63.94c-.17.14-.38.25-.63.35.44.17.8.42 1.07.75.28.33.42.74.42 1.22 0 .4-.1.76-.28 1.07-.18.3-.42.57-.73.79-.3.21-.65.38-1.04.49a4.35 4.35 0 01-3.58-.53c-.26-.18-.5-.4-.71-.65l.56-.72a.4.4 0 01.37-.18.6.6 0 01.35.12l.38.25a2.23 2.23 0 001.29.37c.5 0 .87-.11 1.13-.33.25-.23.38-.5.38-.84a.9.9 0 00-.4-.78c-.26-.19-.69-.28-1.28-.28h-.93v-1.29h.93c.52 0 .91-.09 1.2-.27.27-.18.4-.42.4-.72a.8.8 0 00-.36-.67 1.8 1.8 0 00-1.07-.27 2.54 2.54 0 00-1.23.28l-.36.19a.51.51 0 01-.5.04.7.7 0 01-.2-.23l-.46-.76zm13.01 3.81c-.57.03-1.05.08-1.44.15-.39.07-.7.16-.93.28-.24.1-.4.24-.5.39a.85.85 0 00-.16.49c0 .34.1.59.3.74.21.15.48.22.81.22.4 0 .76-.07 1.05-.21.3-.15.6-.38.87-.67v-1.39zm-4.52-3.56a4.87 4.87 0 013.4-1.3c.48 0 .91.09 1.3.25a2.64 2.64 0 011.54 1.65c.14.4.21.82.21 1.28v5.19h-.9a.95.95 0 01-.43-.08c-.1-.06-.18-.18-.24-.35l-.17-.59c-.21.19-.41.35-.61.5a3.79 3.79 0 01-1.3.56 3.72 3.72 0 01-1.76-.05c-.3-.1-.55-.24-.76-.43a1.9 1.9 0 01-.5-.7c-.12-.27-.18-.6-.18-.96a1.9 1.9 0 01.44-1.2c.16-.2.37-.37.62-.54.25-.16.56-.3.92-.43.37-.12.8-.22 1.28-.3.49-.07 1.04-.12 1.66-.14v-.48c0-.55-.11-.95-.35-1.21-.23-.27-.57-.4-1.01-.4a2.44 2.44 0 00-1.36.36l-.44.25a.85.85 0 01-.43.11.59.59 0 01-.35-.1.97.97 0 01-.23-.26l-.35-.63zm14.79 5.66v-5.29h-2.02c-.05.69-.12 1.3-.2 1.86-.08.55-.17 1.04-.28 1.48-.1.43-.23.8-.35 1.12-.13.32-.26.6-.4.83h3.25zm3.42-.06v3.63c0 .18-.05.32-.16.43-.1.1-.24.16-.4.16h-1.23v-2.75h-6.15v2.19c0 .14-.04.26-.13.38s-.22.18-.41.18h-1.25v-4.16h.23c.19 0 .37-.03.55-.07.17-.06.34-.16.5-.32.17-.16.32-.4.47-.7.14-.3.28-.7.4-1.2.11-.5.21-1.13.3-1.86.09-.74.16-1.62.22-2.65h5.56v6.74h1.5zm6.58-2.04c-.57.03-1.05.08-1.44.15-.39.07-.7.16-.94.28-.23.1-.4.24-.5.39a.85.85 0 00-.15.49c0 .34.1.59.3.74.21.15.48.22.81.22.4 0 .75-.07 1.05-.21.3-.15.59-.38.87-.67v-1.39zm-4.53-3.56a4.87 4.87 0 013.41-1.3c.48 0 .9.09 1.29.25a2.65 2.65 0 011.55 1.65c.14.4.2.82.2 1.28v5.19h-.89a.95.95 0 01-.43-.08c-.1-.06-.18-.18-.24-.35l-.18-.59a3.83 3.83 0 01-1.22.85 3.72 3.72 0 01-2.45.16c-.3-.1-.55-.24-.76-.43a1.88 1.88 0 01-.5-.7 2.46 2.46 0 01-.07-1.58c.07-.2.19-.4.34-.59.16-.19.37-.36.62-.53.25-.16.55-.3.92-.43.36-.12.79-.22 1.28-.3.48-.07 1.04-.12 1.66-.14v-.48c0-.55-.12-.95-.35-1.21-.24-.27-.58-.4-1.02-.4a2.44 2.44 0 00-1.35.36l-.44.25a.85.85 0 01-.43.11.59.59 0 01-.35-.1.95.95 0 01-.24-.26l-.35-.63zm15.8-1.14v8.2h-1.98v-3.22c-.7.17-1.36.27-1.96.3-.6.02-1.12-.05-1.56-.22a2.14 2.14 0 01-1.04-.82 2.74 2.74 0 01-.37-1.51v-2.73h1.98v2.42c0 .34.05.61.16.82.11.2.29.35.52.44.24.09.55.13.92.11.37-.02.82-.08 1.35-.18v-3.61h1.98zm15 0v8.2h-1.98v-3.63h-3.2v3.64h-1.97v-8.21h1.97v3.11h3.2v-3.11h1.98zm7.3 4.7c-.58.03-1.06.08-1.45.15-.39.07-.7.16-.93.28-.24.1-.4.24-.5.39a.85.85 0 00-.16.49c0 .34.1.59.3.74.21.15.48.22.81.22.4 0 .76-.07 1.05-.21.3-.15.59-.38.87-.67v-1.39zm-4.54-3.56a4.87 4.87 0 013.41-1.3c.48 0 .91.09 1.29.25a2.64 2.64 0 011.55 1.65c.14.4.21.82.21 1.28v5.19h-.9a.95.95 0 01-.43-.08c-.1-.06-.18-.18-.24-.35l-.17-.59c-.21.19-.42.35-.61.5a3.79 3.79 0 01-1.3.56 3.72 3.72 0 01-1.77-.05c-.29-.1-.54-.24-.76-.43a1.9 1.9 0 01-.5-.7c-.1-.27-.17-.6-.17-.96a1.9 1.9 0 01.44-1.2c.16-.2.37-.37.62-.54.25-.16.56-.3.92-.43.37-.12.8-.22 1.28-.3.48-.07 1.04-.12 1.66-.14v-.48c0-.55-.12-.95-.35-1.21-.23-.27-.57-.4-1.02-.4a2.44 2.44 0 00-1.35.36l-.44.25a.85.85 0 01-.43.11.59.59 0 01-.35-.1.97.97 0 01-.23-.26l-.36-.63zm20.1.6a.97.97 0 01-.18.17.39.39 0 01-.24.06c-.1 0-.2-.03-.3-.08a5.07 5.07 0 00-.82-.42c-.19-.06-.41-.1-.68-.1-.35 0-.66.07-.92.2-.26.12-.48.3-.65.53-.17.24-.3.52-.39.86-.08.33-.12.7-.12 1.13 0 .43.04.82.13 1.16.1.35.23.63.41.87.18.23.39.4.64.53.25.11.53.17.85.17.31 0 .57-.04.76-.11a2.74 2.74 0 00.84-.51c.1-.08.21-.12.33-.12a.4.4 0 01.36.18l.57.72a3.69 3.69 0 01-2.36 1.28c-.29.04-.57.07-.86.07a3.44 3.44 0 01-2.6-1.11c-.35-.37-.61-.81-.81-1.33a5.25 5.25 0 01-.29-1.8c0-.6.09-1.16.26-1.68.17-.51.43-.96.77-1.33.33-.38.75-.68 1.24-.89.5-.21 1.07-.32 1.72-.32a3.92 3.92 0 012.86 1.14l-.53.72zm10.45 6.47h-1.98v-6.7h-2.02c-.06 1-.16 1.88-.3 2.6-.13.73-.28 1.35-.47 1.86-.18.5-.39.91-.62 1.22-.22.3-.46.54-.72.71a2.2 2.2 0 01-.79.34c-.27.06-.55.09-.82.09-.3 0-.51-.03-.65-.08-.13-.05-.2-.12-.2-.21v-1.23h.47c.18 0 .35-.03.53-.08.17-.06.35-.17.51-.33.17-.17.32-.4.47-.7.15-.32.29-.72.41-1.22.13-.5.24-1.13.34-1.86.1-.73.17-1.6.22-2.62h5.62v8.2zm8.23-5.05c0-.26-.04-.5-.11-.72a1.65 1.65 0 00-.32-.6c-.14-.17-.33-.3-.55-.4a1.8 1.8 0 00-.77-.15c-.57 0-1.02.16-1.35.48a2.4 2.4 0 00-.63 1.39h3.73zm-3.77 1.19c.03.42.11.79.23 1.1a1.9 1.9 0 001.14 1.2c.27.1.56.15.88.15.32 0 .6-.04.82-.11.24-.08.44-.16.61-.25l.46-.25a.78.78 0 01.38-.11c.17 0 .3.06.37.18l.57.72a3.39 3.39 0 01-1.6 1.07 6.5 6.5 0 01-1.8.28c-.56 0-1.09-.1-1.58-.28a3.64 3.64 0 01-2.13-2.22 5.36 5.36 0 01-.04-3.48 3.77 3.77 0 012.01-2.16 4.1 4.1 0 011.66-.32 4 4 0 011.43.25 3.1 3.1 0 011.87 1.9c.18.45.27.98.27 1.57 0 .3-.03.5-.1.6-.06.1-.19.16-.37.16h-5.08zm13.47 2.45v-5.29h-2.01c-.06.69-.13 1.3-.2 1.86-.09.55-.18 1.04-.29 1.48-.1.43-.22.8-.35 1.12-.12.32-.25.6-.4.83h3.25zm3.43-.06v3.63c0 .18-.06.32-.17.43-.1.1-.23.16-.4.16h-1.23v-2.75h-6.14v2.19c0 .14-.05.26-.14.38-.08.12-.22.18-.4.18h-1.25v-4.16h.23c.19 0 .37-.03.54-.07.18-.06.35-.16.5-.32.17-.16.33-.4.47-.7.15-.3.28-.7.4-1.2s.22-1.13.3-1.86c.1-.74.17-1.62.22-2.65h5.56v6.74h1.5zm9.26-6.74l-4.47 10.46a.73.73 0 01-.24.31c-.09.08-.23.12-.42.12h-1.47l1.53-3.3-3.32-7.6h1.74c.15 0 .27.05.36.12a.7.7 0 01.2.26l1.74 4.25.15.43.12.44a38.28 38.28 0 01.3-.88l1.65-4.24a.58.58 0 01.54-.37h1.59zm9.4 6.8c.63 0 1.1-.22 1.41-.68.3-.46.46-1.13.46-2.02a3.7 3.7 0 00-.46-2.02c-.3-.47-.77-.7-1.42-.7-.63 0-1.1.24-1.41.7-.3.47-.46 1.14-.46 2.02 0 .89.15 1.56.45 2.02.3.46.78.69 1.42.69zm-3.81-3.46c.06-.54.2-1.02.4-1.45a3.4 3.4 0 011.94-1.78c.44-.16.93-.24 1.46-.24.6 0 1.13.1 1.61.3a3.48 3.48 0 012.03 2.16c.18.53.28 1.11.28 1.76 0 .65-.1 1.23-.3 1.76a3.52 3.52 0 01-2.05 2.18 4.33 4.33 0 01-3.08.05 3.38 3.38 0 01-1.93-1.84c-.2-.44-.32-.94-.37-1.5h-1.63v3.47h-1.97v-8.21h1.97v3.34h1.64zm23.07 3.4v3.63c0 .18-.05.32-.16.43-.1.1-.23.16-.4.16h-1.23v-2.75h-11.06v-8.21h1.97v6.74h2.71v-6.74h1.98v6.74h2.71v-6.74h1.98v6.74h1.5zm9.63-6.74v8.2h-1.97v-4.79a5.26 5.26 0 01.07-.84 3.93 3.93 0 01-.51.87l-.38.52-.51.73c-.2.26-.39.53-.58.81l-1.58 2.23a1.7 1.7 0 01-.3.32.6.6 0 01-.4.16h-1.21v-8.2h1.97v4.79c0 .12 0 .26-.02.4l-.05.45a4.03 4.03 0 01.5-.87l.37-.52.52-.72.59-.83 1.58-2.22c.07-.12.17-.23.3-.33.12-.1.26-.16.41-.16h1.2zm10.33 0v8.2h-1.98v-4.79a5.26 5.26 0 01.08-.84 3.93 3.93 0 01-.52.87l-.37.52-.51.73-.59.81-1.57 2.23a1.7 1.7 0 01-.3.32.6.6 0 01-.4.16h-1.22v-8.2h1.98v4.79c0 .12 0 .26-.02.4l-.05.45a4.03 4.03 0 01.5-.87l.37-.52.52-.72.58-.83 1.59-2.22c.07-.12.17-.23.3-.33.12-.1.26-.16.41-.16h1.2zm-3.57-2.08c.2 0 .36-.02.5-.07a.68.68 0 00.31-.2c.08-.1.14-.24.17-.4.03-.17.05-.37.05-.61h1.17c.13 0 .24.06.3.17.07.12.1.24.1.38a1.53 1.53 0 01-.7 1.3c-.24.15-.51.27-.83.36-.32.08-.68.12-1.07.12-.4 0-.76-.04-1.08-.12-.32-.09-.6-.2-.82-.36a1.52 1.52 0 01-.71-1.3c0-.14.03-.26.1-.38a.34.34 0 01.3-.17h1.17c0 .24.02.44.05.6.03.17.09.3.17.4.08.1.18.17.31.21.13.05.3.07.5.07zm20.93 2.06v8.23h-1.79v-4.58l.03-.63c.02-.24.05-.46.1-.66l-2.42 4.43a.59.59 0 01-.56.35h-.21a.59.59 0 01-.56-.35l-2.45-4.45a7.52 7.52 0 01.13 1.31v4.58h-1.79v-8.23h1.64a1 1 0 01.4.09c.14.06.26.18.35.35l1.93 3.46a5.8 5.8 0 01.45 1.05l.2-.55.24-.5 1.92-3.46c.1-.18.21-.3.35-.35a1 1 0 01.4-.09h1.64zm8.24 3.18c0-.26-.04-.5-.11-.72a1.65 1.65 0 00-.32-.6c-.15-.17-.33-.3-.55-.4a1.8 1.8 0 00-.77-.15c-.57 0-1.02.16-1.35.48a2.4 2.4 0 00-.63 1.39h3.73zm-3.77 1.19c.03.42.1.79.23 1.1a1.9 1.9 0 001.14 1.2c.27.1.56.15.88.15.32 0 .6-.04.82-.11.24-.08.44-.16.61-.25l.46-.25a.79.79 0 01.38-.11c.17 0 .29.06.37.18l.57.72c-.22.26-.47.47-.74.65a4.42 4.42 0 01-1.76.63c-.3.04-.6.07-.89.07-.57 0-1.1-.1-1.59-.28a3.64 3.64 0 01-2.13-2.22 5.36 5.36 0 01-.04-3.48 3.7 3.7 0 012.02-2.16 4.1 4.1 0 011.65-.32 4 4 0 011.43.25 3.08 3.08 0 011.86 1.9c.19.45.28.98.28 1.57 0 .3-.04.5-.1.6-.06.1-.19.16-.37.16h-5.08zm13.9-2.62a.91.91 0 01-.17.18c-.05.04-.13.06-.24.06-.1 0-.2-.03-.3-.08a4.83 4.83 0 00-.82-.42c-.18-.06-.4-.1-.68-.1-.34 0-.65.07-.9.2-.27.12-.49.3-.67.53-.16.24-.3.52-.38.86-.08.33-.13.7-.13 1.13 0 .43.05.82.14 1.16.1.35.23.63.4.87.18.23.4.4.65.53.25.11.53.17.85.17.31 0 .56-.04.75-.11a2.68 2.68 0 00.85-.51c.1-.08.2-.12.33-.12a.4.4 0 01.36.18l.57.72a3.66 3.66 0 01-2.36 1.28c-.29.04-.58.07-.87.07a3.44 3.44 0 01-2.6-1.11c-.34-.37-.6-.81-.8-1.33a5.25 5.25 0 01-.3-1.8c0-.6.1-1.16.26-1.68.18-.51.44-.96.77-1.33.34-.38.75-.68 1.25-.89.5-.21 1.07-.32 1.71-.32a3.92 3.92 0 012.86 1.14l-.52.72zm7.13 1.96v-2.4h-1.07c-.25 0-.46.03-.63.1-.16.08-.3.17-.4.29a.99.99 0 00-.22.38c-.04.15-.07.29-.07.43 0 .37.13.67.38.88.26.22.6.32 1.02.32h.99zm1.88-3.7v8.22h-1.88v-3.3h-.35c-.16 0-.29.02-.4.05a.78.78 0 00-.44.3l-.16.25-1.3 2.02-.22.3a.97.97 0 01-.57.34 2.2 2.2 0 01-.45.04h-1.37l2.07-2.9a1.65 1.65 0 01.92-.78 3.4 3.4 0 01-.98-.32 2.38 2.38 0 01-.65-.52 1.95 1.95 0 01-.47-1.3 2.1 2.1 0 01.75-1.66c.26-.21.6-.4 1.01-.52.41-.14.9-.21 1.48-.21h3zm11.63 6.75v3.63c0 .18-.06.32-.16.43-.11.1-.25.16-.41.16h-1.23v-2.75h-6.87v-8.21h1.98v6.74h3.2v-6.74h1.98v6.74h1.5z" fill="#5E78FF"/><circle cx="752" cy="199.42" r="198" fill="#fff" stroke="#5E78FF" stroke-width="2"/><circle cx="751.73" cy="98.09" r="71.5" stroke="#5E78FF" stroke-width="2"/><circle cx="835.27" cy="237.89" r="71.5" stroke="#5E78FF" stroke-width="2"/><path d="M709.48 89.34c.4 0 .74-.05 1.03-.14.3-.1.54-.24.73-.43.2-.18.34-.4.44-.67a2.6 2.6 0 000-1.73c-.1-.25-.24-.46-.43-.64-.2-.17-.44-.3-.73-.4-.3-.1-.64-.14-1.04-.14h-1.61v4.15h1.6zm0-5.81c.77 0 1.44.09 2 .27.57.18 1.04.43 1.4.76.37.32.65.71.82 1.17a4.15 4.15 0 010 3.03c-.2.46-.47.86-.85 1.2-.37.33-.84.6-1.4.78-.56.19-1.22.28-1.97.28h-1.61v4.07h-2.15V83.53h3.76zm10.92 8.06c-.57.03-1.05.08-1.44.15-.4.07-.7.16-.94.27-.23.12-.4.25-.5.4a.85.85 0 00-.15.48c0 .35.1.6.3.75.2.15.48.22.8.22.41 0 .76-.07 1.06-.21.3-.15.59-.38.87-.68V91.6zm-4.53-3.56a4.87 4.87 0 013.4-1.3c.49 0 .92.08 1.3.24a2.65 2.65 0 011.55 1.66c.14.39.2.82.2 1.28v5.18h-.89a.94.94 0 01-.43-.08c-.1-.05-.18-.17-.24-.34l-.18-.6c-.2.2-.4.36-.6.5a3.74 3.74 0 01-1.31.57 3.7 3.7 0 01-1.76-.05c-.3-.1-.55-.24-.76-.43a1.88 1.88 0 01-.5-.7c-.11-.27-.17-.6-.17-.96a1.9 1.9 0 01.44-1.21c.16-.19.36-.36.61-.53a4 4 0 01.92-.43c.37-.12.8-.22 1.28-.3.49-.08 1.04-.12 1.67-.14v-.48c0-.55-.12-.95-.35-1.22-.24-.26-.58-.4-1.02-.4a2.45 2.45 0 00-1.35.37l-.44.25a.84.84 0 01-.43.11.58.58 0 01-.36-.1.96.96 0 01-.23-.26l-.35-.63zm8.84-.26c.3-.3.69-.54 1.15-.72.46-.2 1-.3 1.65-.3.5 0 .95.07 1.35.2.4.1.72.27 1 .48.26.2.47.44.6.7a1.68 1.68 0 01.15 1.32 1.86 1.86 0 01-.63.94c-.17.13-.38.24-.63.34.44.17.8.42 1.08.75.27.33.41.74.41 1.22 0 .4-.09.76-.28 1.07-.18.3-.42.57-.72.79-.3.21-.66.37-1.05.49a4.34 4.34 0 01-3.58-.53 3.4 3.4 0 01-.71-.65l.57-.72a.4.4 0 01.36-.18.6.6 0 01.35.12l.38.25a2.22 2.22 0 001.29.37c.5 0 .87-.11 1.13-.34.25-.22.38-.5.38-.84a.9.9 0 00-.4-.77c-.26-.19-.68-.28-1.28-.28h-.92v-1.29h.92c.52 0 .92-.1 1.2-.27a.83.83 0 00.41-.72.8.8 0 00-.37-.67 1.8 1.8 0 00-1.07-.27 2.55 2.55 0 00-1.23.28l-.35.19a.51.51 0 01-.5.04.7.7 0 01-.22-.24l-.44-.76zm10.66 5.2c.22.27.46.46.72.57a2.21 2.21 0 001.68 0c.24-.11.44-.28.6-.51.17-.23.3-.52.4-.86a5 5 0 00.13-1.24c0-.48-.04-.89-.12-1.22-.07-.34-.18-.6-.33-.82a1.3 1.3 0 00-.52-.45 1.97 1.97 0 00-1.74.12c-.3.17-.57.41-.82.73v3.68zm-.1-4.96c.33-.38.7-.69 1.14-.92a3.07 3.07 0 012.72-.08c.38.19.7.46.96.82.28.35.48.79.63 1.31a6.46 6.46 0 01-.03 3.49c-.16.52-.4.98-.7 1.36a3.24 3.24 0 01-2.57 1.22c-.46 0-.86-.07-1.18-.2a2.94 2.94 0 01-.87-.6v3.36h-1.98V86.9h1.2c.26 0 .43.12.51.36l.16.76zm12.53 3.58c-.57.03-1.05.08-1.44.15-.38.07-.7.16-.93.27-.24.12-.4.25-.5.4a.85.85 0 00-.16.48c0 .35.1.6.3.75.21.15.48.22.81.22.41 0 .76-.07 1.05-.21.3-.15.6-.38.87-.68V91.6zm-4.52-3.56a4.87 4.87 0 013.4-1.3c.48 0 .91.08 1.3.24a2.65 2.65 0 011.54 1.66c.14.39.21.82.21 1.28v5.18h-.9a.95.95 0 01-.43-.08c-.1-.05-.18-.17-.24-.34l-.17-.6c-.21.2-.41.36-.61.5a3.7 3.7 0 01-1.3.57 3.7 3.7 0 01-1.76-.05c-.3-.1-.55-.24-.76-.43a1.9 1.9 0 01-.5-.7c-.12-.27-.18-.6-.18-.96a1.9 1.9 0 01.44-1.21c.16-.19.37-.36.62-.53.25-.16.56-.3.92-.43.37-.12.8-.22 1.28-.3.49-.08 1.04-.12 1.66-.14v-.48c0-.55-.11-.95-.35-1.22-.23-.26-.57-.4-1.01-.4a2.45 2.45 0 00-1.36.37l-.44.25a.84.84 0 01-.43.11.59.59 0 01-.35-.1.96.96 0 01-.23-.26l-.35-.63zm13.17 5.74c.68 0 1.2-.21 1.53-.65.33-.44.5-1.08.5-1.92 0-.84-.16-1.48-.5-1.91-.32-.44-.82-.66-1.5-.66-.66 0-1.18.2-1.53.62-.35.41-.53 1.03-.53 1.85 0 .87.17 1.54.5 2 .34.45.85.67 1.53.67zm.57-8.37c-.5.03-.92.13-1.28.3-.36.15-.65.37-.88.65-.23.27-.4.6-.53.98-.12.38-.19.8-.2 1.27.13-.21.29-.4.48-.57a3.54 3.54 0 012.37-.85c.54 0 1.03.1 1.47.29.44.2.8.46 1.11.82.31.35.55.77.7 1.27a5.07 5.07 0 01-.04 3.3 3.56 3.56 0 01-2.1 2.07c-.5.19-1.06.28-1.67.28-.6 0-1.14-.1-1.64-.28-.5-.2-.93-.5-1.29-.94-.36-.43-.64-1-.85-1.68a11.16 11.16 0 01-.07-4.87c.16-.72.4-1.35.76-1.89.35-.54.81-.98 1.38-1.31a4.92 4.92 0 012.12-.6l2.92-.22.1 1.03c.02.21 0 .4-.1.56-.08.15-.23.23-.45.24l-2.3.15zm9.66 1.36c.6 0 1.16.1 1.65.3a3.58 3.58 0 012.1 2.16c.2.52.3 1.1.3 1.75 0 .65-.1 1.24-.3 1.76a3.53 3.53 0 01-2.1 2.18c-.5.2-1.04.3-1.65.3-.61 0-1.17-.1-1.67-.3a3.62 3.62 0 01-2.12-2.18c-.19-.52-.28-1.1-.28-1.76 0-.64.1-1.23.28-1.75a3.68 3.68 0 012.11-2.17c.5-.2 1.07-.3 1.68-.3zm0 6.93c.68 0 1.19-.23 1.51-.68.33-.46.5-1.13.5-2.02 0-.89-.17-1.56-.5-2.02-.33-.47-.83-.7-1.51-.7-.7 0-1.21.23-1.55.7-.33.47-.5 1.14-.5 2.02 0 .88.17 1.55.5 2.02.34.45.86.68 1.55.68zm13.36-5.34h-2.93v6.74h-1.98v-6.74h-2.91v-1.46h7.82v1.46zm7.07-.94a1.1 1.1 0 01.92-.52h1.55l-1.91 3.04c-.14.22-.27.39-.41.52-.14.13-.3.23-.5.3.26.09.48.2.65.37.17.15.33.35.47.59l1.91 3.38h-1.36c-.35 0-.62-.05-.81-.17-.2-.12-.36-.29-.49-.5l-1.2-2.28c-.11-.2-.25-.34-.42-.44-.17-.1-.36-.14-.59-.14h-.74v3.53h-1.98v-8.2h1.98v3.38h.64c.22 0 .4-.04.53-.12.14-.09.26-.21.36-.38l1.4-2.36zm9.12 4.18c-.58.03-1.06.08-1.44.15-.4.07-.7.16-.94.27-.24.12-.4.25-.5.4a.85.85 0 00-.16.48c0 .35.1.6.3.75.22.15.49.22.82.22.4 0 .75-.07 1.04-.21.3-.15.6-.38.88-.68V91.6zm-4.53-3.56a4.87 4.87 0 013.4-1.3c.49 0 .91.08 1.3.24a2.65 2.65 0 011.55 1.66c.13.39.2.82.2 1.28v5.18h-.9a.94.94 0 01-.42-.08c-.1-.05-.19-.17-.24-.34l-.18-.6c-.2.2-.41.36-.6.5a3.74 3.74 0 01-1.31.57 3.7 3.7 0 01-1.76-.05c-.3-.1-.55-.24-.76-.43a1.88 1.88 0 01-.5-.7c-.12-.27-.17-.6-.17-.96a1.9 1.9 0 01.44-1.21c.16-.19.36-.36.61-.53a4 4 0 01.92-.43c.37-.12.8-.22 1.28-.3.49-.08 1.04-.12 1.67-.14v-.48c0-.55-.12-.95-.36-1.22-.23-.26-.57-.4-1.01-.4a2.45 2.45 0 00-1.35.37l-.44.25a.84.84 0 01-.44.11.58.58 0 01-.35-.1.96.96 0 01-.23-.26l-.35-.63zm-68.6 26.06h-1.98v-6.74h-3.2v6.74h-1.97v-8.2h7.15v8.2zm6.59-8.33c.6 0 1.16.1 1.65.3a3.58 3.58 0 012.1 2.16c.2.52.3 1.1.3 1.75 0 .65-.1 1.24-.3 1.76a3.55 3.55 0 01-2.1 2.18c-.5.2-1.05.3-1.65.3-.62 0-1.18-.1-1.68-.3a3.62 3.62 0 01-2.1-2.18 5.08 5.08 0 01-.3-1.76c0-.64.1-1.23.3-1.75.19-.52.46-.96.82-1.33.35-.36.78-.64 1.28-.84.5-.2 1.06-.3 1.68-.3zm0 6.93c.68 0 1.18-.23 1.5-.68.34-.46.5-1.14.5-2.02 0-.89-.16-1.56-.5-2.02-.32-.47-.82-.7-1.5-.7-.7 0-1.21.23-1.55.7-.33.47-.5 1.14-.5 2.02 0 .88.17 1.55.5 2.02.34.45.85.68 1.55.68zm18.6 1.4h-1.98v-6.74h-3.2v6.74h-1.98v-8.2h7.15v8.2zm10.57 0h-1.98v-6.7h-2.01c-.07 1.02-.17 1.89-.3 2.62-.13.72-.3 1.34-.48 1.84-.18.51-.39.92-.62 1.23-.22.3-.46.54-.72.71a2.2 2.2 0 01-.79.34c-.27.05-.55.08-.82.08-.3 0-.51-.02-.65-.08-.13-.04-.2-.11-.2-.2v-1.24h.47c.18 0 .35-.02.53-.08.18-.05.35-.16.51-.32.17-.17.32-.4.47-.7.15-.32.29-.72.41-1.22.13-.51.24-1.13.34-1.86.1-.73.17-1.6.22-2.62h5.62v8.2zm7.28-3.5c-.57.03-1.05.08-1.44.15-.39.07-.7.16-.94.27-.23.12-.4.25-.5.4a.85.85 0 00-.15.48c0 .35.1.6.3.75.21.15.48.22.81.22.4 0 .75-.07 1.05-.21.3-.15.59-.38.87-.68v-1.38zm-4.53-3.56a4.87 4.87 0 013.41-1.3c.48 0 .9.08 1.29.24a2.64 2.64 0 011.55 1.66c.14.39.2.82.2 1.28v5.18h-.89a.95.95 0 01-.43-.08c-.1-.06-.18-.17-.24-.34l-.18-.6a3.79 3.79 0 01-1.91 1.06 3.72 3.72 0 01-1.76-.04c-.3-.1-.54-.24-.76-.43a1.9 1.9 0 01-.5-.7c-.11-.27-.17-.6-.17-.96a1.9 1.9 0 01.44-1.21c.16-.19.37-.36.62-.53.25-.16.55-.3.92-.43.36-.12.8-.22 1.28-.3.48-.08 1.04-.12 1.66-.14v-.48c0-.55-.12-.95-.35-1.22-.24-.26-.57-.4-1.02-.4a2.44 2.44 0 00-1.35.37l-.44.25a.85.85 0 01-.43.11.59.59 0 01-.35-.1.97.97 0 01-.24-.26l-.35-.63zm16.47-1.14v8.2h-1.98v-3.63h-3.2v3.63h-1.97v-8.2h1.98v3.1h3.2v-3.1h1.97zm10.41 0l-4.47 10.46a.73.73 0 01-.23.31c-.09.08-.23.11-.42.11h-1.48l1.54-3.3-3.32-7.58h1.74c.15 0 .27.03.36.1a.7.7 0 01.2.26l1.74 4.26c.06.14.1.29.14.43l.13.44a38.28 38.28 0 01.3-.88l1.65-4.25a.58.58 0 01.54-.36h1.59zM620.63 238.89h-1.96a.82.82 0 01-.5-.16c-.14-.11-.26-.27-.38-.47l-2.47-3.9c-.06-.1-.13-.2-.2-.27a.78.78 0 00-.24-.17.75.75 0 00-.28-.1l-.35-.02h-1.29v5.09h-2.15v-11.57h2.15v4.85h1.1c.21 0 .4-.04.56-.11.16-.08.3-.22.45-.42l2.53-3.74c.11-.18.24-.31.38-.42.14-.1.32-.16.52-.16h1.84l-3.14 4.64a2.03 2.03 0 01-1.05.81c.32.1.59.24.8.44.23.19.44.45.64.8l3.04 4.88zm5.02-8.34c.6 0 1.16.1 1.65.3a3.58 3.58 0 012.1 2.16c.2.53.3 1.11.3 1.76 0 .65-.1 1.23-.3 1.76a3.55 3.55 0 01-2.1 2.18c-.5.2-1.05.3-1.65.3-.62 0-1.17-.1-1.67-.3a3.62 3.62 0 01-2.12-2.18 5.08 5.08 0 01-.28-1.76c0-.65.1-1.23.28-1.76a3.66 3.66 0 012.11-2.17c.5-.2 1.06-.29 1.68-.29zm0 6.94c.68 0 1.18-.23 1.5-.7.34-.45.5-1.12.5-2 0-.9-.16-1.57-.5-2.03-.32-.47-.82-.7-1.5-.7-.7 0-1.21.24-1.55.7-.33.47-.5 1.14-.5 2.02 0 .88.17 1.56.5 2.02.34.46.85.69 1.55.69zm8.53-.73c.22.27.47.46.73.58a2.2 2.2 0 001.67 0c.24-.12.44-.29.6-.52.18-.23.3-.51.4-.86.09-.35.13-.77.13-1.24 0-.48-.04-.89-.12-1.22-.07-.33-.18-.6-.32-.81a1.3 1.3 0 00-.53-.46c-.2-.1-.44-.14-.7-.14-.4 0-.76.09-1.04.26a3.1 3.1 0 00-.82.73v3.68zm-.1-4.96c.33-.38.71-.69 1.14-.92a3.07 3.07 0 012.73-.07c.37.18.69.45.96.81.27.35.48.8.62 1.31a6.46 6.46 0 01-.02 3.5c-.17.51-.4.97-.72 1.35-.3.39-.67.69-1.1.9-.44.22-.93.33-1.46.33a3 3 0 01-1.18-.21 2.94 2.94 0 01-.87-.6v3.37h-1.98v-10.9h1.21c.26 0 .43.13.5.37l.17.76zm10.18 4.96c.22.27.46.46.73.58a2.2 2.2 0 001.67 0c.24-.12.44-.29.6-.52.17-.23.3-.51.4-.86.09-.35.13-.77.13-1.24 0-.48-.04-.89-.12-1.22-.07-.33-.18-.6-.32-.81a1.3 1.3 0 00-.53-.46c-.2-.1-.44-.14-.7-.14-.41 0-.76.09-1.05.26a3.1 3.1 0 00-.81.73v3.68zm-.1-4.96c.33-.38.71-.69 1.14-.92a3.07 3.07 0 012.73-.07c.37.18.69.45.96.81.27.35.48.8.62 1.31a6.46 6.46 0 01-.02 3.5c-.17.51-.4.97-.72 1.35-.3.39-.67.69-1.1.9-.44.22-.93.33-1.47.33a3 3 0 01-1.17-.21 2.94 2.94 0 01-.87-.6v3.37h-1.98v-10.9h1.2c.26 0 .43.13.51.37l.16.76zm13.49 2.04c0-.26-.04-.5-.12-.72a1.66 1.66 0 00-.31-.6c-.15-.17-.33-.3-.56-.4a1.8 1.8 0 00-.76-.15c-.58 0-1.03.16-1.36.49a2.4 2.4 0 00-.62 1.38h3.73zm-3.77 1.2c.03.41.1.78.22 1.09.12.3.27.55.47.76.19.2.41.34.68.45.26.1.56.14.88.14.32 0 .6-.04.82-.11.23-.08.44-.16.6-.25l.47-.25a.78.78 0 01.38-.11c.16 0 .29.06.37.18l.57.72a3.39 3.39 0 01-1.6 1.07 4.82 4.82 0 01-1.79.28c-.57 0-1.1-.1-1.6-.28a3.63 3.63 0 01-2.13-2.22 5.36 5.36 0 01-.04-3.48 3.77 3.77 0 012.02-2.16 4.1 4.1 0 011.65-.32 4 4 0 011.44.25 3.1 3.1 0 011.86 1.9c.18.45.27.98.27 1.57 0 .3-.03.5-.1.6-.06.11-.18.16-.36.16h-5.08zm12.93-3.84a1.1 1.1 0 01.92-.52h1.55l-1.91 3.05a2.8 2.8 0 01-.4.52c-.15.13-.32.23-.51.3.26.08.48.2.65.36.17.16.33.35.47.6l1.92 3.38h-1.37c-.35 0-.62-.06-.8-.18-.2-.12-.36-.28-.5-.5l-1.2-2.28a1.08 1.08 0 00-1-.58h-.75v3.54h-1.97v-8.21h1.97v3.38h.64c.23 0 .4-.04.54-.12.14-.08.25-.21.35-.38l1.4-2.36zm11.82.94h-2.92v6.75h-1.98v-6.75h-2.92v-1.46h7.82v1.46zm4.14 4.62c.23.27.47.46.73.58a2.21 2.21 0 001.67 0c.24-.12.45-.29.61-.52.17-.23.3-.51.4-.86a5 5 0 00.13-1.24c0-.48-.04-.89-.12-1.22a2.3 2.3 0 00-.33-.81 1.3 1.3 0 00-.53-.46 1.6 1.6 0 00-.7-.14c-.4 0-.75.09-1.04.26a3.1 3.1 0 00-.82.73v3.68zm-.1-4.96c.33-.38.72-.69 1.14-.92a3.07 3.07 0 012.73-.07c.37.18.7.45.96.81.27.35.48.8.62 1.31a6.42 6.42 0 01-.02 3.5c-.17.51-.4.97-.71 1.35a3.25 3.25 0 01-2.57 1.22 3 3 0 01-1.18-.2 2.95 2.95 0 01-.87-.6v3.37h-1.97v-10.9h1.2c.26 0 .43.13.5.37l.17.76zm11.84-1.25c.6 0 1.16.1 1.65.3a3.57 3.57 0 012.1 2.16c.2.53.3 1.11.3 1.76 0 .65-.1 1.23-.3 1.76a3.54 3.54 0 01-2.1 2.18c-.5.2-1.05.3-1.65.3-.62 0-1.17-.1-1.68-.3a3.63 3.63 0 01-2.1-2.18 5.08 5.08 0 01-.3-1.76c0-.65.1-1.23.3-1.76.19-.52.46-.96.82-1.32.35-.37.78-.65 1.28-.84.5-.2 1.06-.3 1.68-.3zm0 6.94c.68 0 1.18-.23 1.5-.7.34-.45.5-1.12.5-2 0-.9-.16-1.57-.5-2.03-.32-.47-.82-.7-1.5-.7-.7 0-1.21.24-1.55.7-.33.47-.5 1.14-.5 2.02 0 .88.17 1.56.5 2.02.34.46.85.69 1.55.69zm9.9.04c.42 0 .75-.1.99-.3.24-.2.37-.48.37-.83 0-.15-.02-.29-.07-.42a.74.74 0 00-.2-.34c-.1-.1-.25-.17-.42-.22a2.22 2.22 0 00-.66-.08h-1.48v2.2h1.47zm-1.47-5.56v2.15h1.3a1.34 1.34 0 00.94-.32c.12-.1.21-.23.27-.37a1.15 1.15 0 00.04-.83.76.76 0 00-.22-.32c-.1-.1-.24-.17-.4-.22a1.88 1.88 0 00-.63-.1h-1.3zm1.35-1.3c.52 0 .97.06 1.34.16.38.1.7.24.94.42.24.17.42.38.54.63.12.24.18.5.18.78 0 .18-.03.36-.08.56a1.8 1.8 0 01-.7 1.02c-.2.14-.45.26-.75.34.27.05.52.14.74.24.23.1.42.24.58.4a1.74 1.74 0 01.5 1.26 2.12 2.12 0 01-.96 1.82c-.29.2-.62.35-1 .44-.38.1-.78.15-1.2.15h-3.36v-8.21h3.23zm10.72.53a1.1 1.1 0 01.92-.52h1.56l-1.92 3.05a2.8 2.8 0 01-.4.52c-.14.13-.31.23-.5.3.26.08.48.2.65.36.17.16.32.35.46.6l1.92 3.38h-1.37c-.34 0-.61-.06-.8-.18-.2-.12-.36-.28-.5-.5l-1.2-2.28a1.08 1.08 0 00-1-.58h-.75v3.54h-1.97v-8.21h1.98v3.38h.63c.23 0 .4-.04.54-.12.14-.08.26-.21.35-.38l1.4-2.36zm9.12 4.18c-.57.03-1.05.08-1.44.16-.39.06-.7.16-.93.27-.24.1-.4.24-.5.39a.85.85 0 00-.16.49c0 .34.1.6.3.74.21.15.48.22.81.22.4 0 .76-.07 1.05-.21.3-.15.59-.38.87-.67v-1.39zm-4.53-3.56a4.87 4.87 0 013.41-1.3c.48 0 .91.09 1.29.25a2.64 2.64 0 011.55 1.65c.14.4.21.82.21 1.28v5.19h-.9a.95.95 0 01-.43-.08c-.1-.06-.18-.18-.24-.35l-.17-.59c-.21.19-.41.35-.61.5a3.75 3.75 0 01-1.3.56 3.71 3.71 0 01-1.77-.05 1.9 1.9 0 01-1.26-1.12c-.1-.28-.17-.6-.17-.97a1.9 1.9 0 01.44-1.2c.16-.2.37-.37.62-.53.25-.17.56-.31.92-.44.37-.12.8-.22 1.28-.3.48-.07 1.04-.12 1.66-.14v-.48c0-.55-.12-.95-.35-1.21-.23-.27-.57-.4-1.02-.4a2.44 2.44 0 00-1.35.37l-.44.24a.85.85 0 01-.43.12.59.59 0 01-.35-.1.97.97 0 01-.23-.26l-.36-.64zm-66.75 26.07h-1.98v-6.75h-3.2v6.75h-1.97v-8.21h7.15v8.2zm10.57 0h-1.98v-6.7h-2.01c-.07 1-.16 1.88-.3 2.6-.13.73-.3 1.35-.48 1.86-.18.5-.38.91-.61 1.22-.23.3-.47.54-.72.71a2.2 2.2 0 01-.8.34c-.27.06-.54.09-.82.09-.3 0-.5-.03-.65-.08-.13-.05-.2-.12-.2-.21v-1.23h.47c.18 0 .36-.03.53-.08.18-.06.35-.17.51-.33.17-.17.33-.4.48-.7.14-.31.28-.72.4-1.22.13-.5.24-1.13.34-1.86.1-.73.17-1.6.22-2.62h5.62v8.2zm7.28-3.5c-.57.02-1.05.07-1.44.15-.39.06-.7.16-.93.27-.24.1-.4.24-.5.39a.85.85 0 00-.16.49c0 .34.1.6.3.74.21.15.48.22.81.22.4 0 .76-.07 1.05-.21.3-.15.59-.38.87-.67v-1.39zm-4.53-3.57a4.87 4.87 0 013.41-1.3c.48 0 .91.09 1.3.25a2.65 2.65 0 011.54 1.65c.14.4.21.82.21 1.28v5.19h-.9a.95.95 0 01-.43-.08c-.1-.06-.18-.18-.24-.35l-.17-.59c-.21.19-.41.35-.61.5a3.16 3.16 0 01-1.3.57 3.72 3.72 0 01-1.76-.06c-.3-.1-.55-.24-.76-.43a1.88 1.88 0 01-.5-.7 2.46 2.46 0 01-.07-1.57c.07-.21.18-.41.33-.6.16-.18.37-.36.62-.53.25-.16.56-.3.92-.43.37-.12.8-.22 1.28-.3.48-.07 1.04-.12 1.66-.14v-.48c0-.55-.12-.95-.35-1.21-.23-.27-.57-.4-1.01-.4a2.44 2.44 0 00-1.36.37l-.44.24a.85.85 0 01-.43.12.59.59 0 01-.35-.1.95.95 0 01-.23-.26l-.36-.64zm16.47-1.14v8.2h-1.97v-3.63h-3.2v3.64h-1.98v-8.21h1.98v3.11h3.2v-3.11h1.97zm7.3 4.7c-.57.03-1.05.08-1.44.16-.4.06-.7.16-.94.27-.23.1-.4.24-.5.39a.85.85 0 00-.15.49c0 .34.1.6.3.74.2.15.48.22.8.22.41 0 .76-.07 1.06-.21.3-.15.58-.38.87-.67v-1.39zm-4.53-3.56a4.87 4.87 0 013.4-1.3c.49 0 .92.09 1.3.25a2.64 2.64 0 011.55 1.65c.14.4.2.82.2 1.28v5.19h-.9a.95.95 0 01-.42-.08c-.1-.06-.18-.18-.24-.35l-.18-.59c-.2.19-.41.35-.6.5a3.79 3.79 0 01-1.31.56 3.72 3.72 0 01-1.76-.05c-.3-.1-.55-.24-.76-.43a1.9 1.9 0 01-.5-.7c-.11-.27-.17-.6-.17-.96a1.9 1.9 0 01.44-1.2c.16-.2.36-.37.61-.53.25-.17.56-.31.92-.44.37-.12.8-.22 1.28-.3.49-.07 1.04-.12 1.67-.14v-.48c0-.55-.12-.95-.36-1.21-.23-.27-.57-.4-1.01-.4a2.44 2.44 0 00-1.35.37l-.44.24a.85.85 0 01-.43.12.59.59 0 01-.36-.1.97.97 0 01-.23-.26l-.35-.64z" fill="#5E78FF"/><circle cx="668.73" cy="237.89" r="71.5" stroke="#5E78FF" stroke-width="2"/><path d="M812.95 240.18l-1.4-3.85a8.95 8.95 0 01-.44-1.37 14.68 14.68 0 01-.44 1.39l-1.4 3.83h3.68zm3.8 4.37h-1.66a.73.73 0 01-.46-.14.91.91 0 01-.26-.35l-.86-2.36h-4.8l-.86 2.36a.77.77 0 01-.25.34.7.7 0 01-.46.15h-1.67l4.54-11.57h2.2l4.54 11.57zm9-8.2v8.2h-1.97v-3.63h-3.2v3.63h-1.98v-8.2h1.98v3.1h3.2v-3.1h1.97zm7.3 4.7c-.57.02-1.05.07-1.44.15-.4.07-.7.16-.94.27-.23.11-.4.24-.5.4a.85.85 0 00-.16.48c0 .34.1.6.3.74.22.15.49.23.82.23.4 0 .75-.07 1.04-.22.3-.15.6-.37.88-.67v-1.39zm-4.53-3.56a4.87 4.87 0 013.4-1.3c.49 0 .92.08 1.3.24a2.64 2.64 0 011.55 1.66c.13.38.2.81.2 1.28v5.18h-.9a.95.95 0 01-.42-.08c-.1-.06-.18-.18-.24-.34l-.18-.6c-.2.19-.41.35-.6.5a3.75 3.75 0 01-1.31.57 3.71 3.71 0 01-1.76-.06 1.9 1.9 0 01-1.26-1.12c-.12-.28-.17-.6-.17-.97a1.9 1.9 0 01.44-1.2c.16-.2.36-.37.61-.53.25-.17.56-.31.92-.44.37-.12.8-.22 1.28-.3.49-.07 1.04-.12 1.67-.13v-.48c0-.56-.12-.96-.36-1.22-.23-.27-.57-.4-1.01-.4a2.44 2.44 0 00-1.35.37l-.44.25a.85.85 0 01-.44.1.59.59 0 01-.35-.1.97.97 0 01-.23-.25l-.35-.63zm16.93 7.06h-1.98v-6.7h-2.01c-.07 1.01-.16 1.88-.3 2.61-.13.73-.29 1.34-.48 1.85-.18.5-.38.91-.61 1.22-.23.3-.47.54-.72.72a2.2 2.2 0 01-.8.33c-.27.06-.54.09-.82.09-.3 0-.5-.03-.65-.08-.13-.05-.2-.12-.2-.2v-1.24h.48c.17 0 .35-.03.52-.08.18-.06.35-.16.51-.33.17-.17.33-.4.48-.7.15-.31.28-.72.4-1.22.13-.5.25-1.13.34-1.85.1-.74.17-1.61.23-2.63h5.61v8.2zm10.32-8.2v8.2h-1.97v-4.8a5.26 5.26 0 01.07-.84 3.93 3.93 0 01-.51.87 387.81 387.81 0 01-1.47 2.06l-1.58 2.23c-.07.11-.17.22-.3.33a.59.59 0 01-.4.16h-1.21v-8.21h1.97v4.8c0 .11 0 .25-.02.4l-.05.44a4.1 4.1 0 01.5-.87c.1-.13.23-.3.37-.52.16-.2.33-.45.52-.72a439.33 439.33 0 012.17-3.06c.08-.1.17-.22.3-.32.12-.1.26-.16.41-.16h1.2zm2.48.88c.3-.3.69-.54 1.15-.73.46-.2 1-.29 1.65-.29.5 0 .95.06 1.35.19.4.11.72.28.99.48.27.2.48.44.62.7a1.68 1.68 0 01.14 1.32 1.87 1.87 0 01-.63.94c-.17.13-.38.25-.63.34.44.17.8.42 1.08.75.27.33.41.74.41 1.23 0 .4-.1.75-.28 1.06-.18.31-.42.57-.73.8-.3.2-.65.37-1.04.48a4.35 4.35 0 01-3.58-.53 3.4 3.4 0 01-.71-.65l.57-.72a.4.4 0 01.36-.18.6.6 0 01.35.12l.38.26a2.24 2.24 0 001.29.37c.5 0 .87-.12 1.13-.34.25-.23.38-.5.38-.84a.9.9 0 00-.4-.78c-.26-.18-.69-.28-1.28-.28h-.93v-1.28h.93c.52 0 .92-.1 1.2-.28.27-.18.41-.42.41-.72a.8.8 0 00-.37-.67 1.8 1.8 0 00-1.07-.26 2.54 2.54 0 00-1.23.28c-.14.06-.26.12-.35.18a.51.51 0 01-.5.04.72.72 0 01-.22-.23l-.44-.76z" fill="#5E78FF"/><path d="M726.82 296.79l-2.59-5.42 5.42-2.6M671.62 121.34l6-.22.23 6M852.5 154.38l-2.67 5.38-5.39-2.65" stroke="#5E78FF" stroke-width="2" stroke-linecap="round"/><path d="M825.42 120.18a102.98 102.98 0 0124.41 39.94m-70.75 131.7a103.1 103.1 0 01-27.08 3.6c-9.6 0-18.9-1.32-27.72-3.78M677.7 121.08a102.97 102.97 0 00-23.48 38.87" stroke="#5E78FF" stroke-width="2"/></svg>