<svg width="139" height="44" viewBox="0 0 139 44" fill="none" xmlns="http://www.w3.org/2000/svg">
<path d="M41.6358 24.5872L31.9669 18.907V10.0878C31.9669 8.19435 30.9582 6.42552 29.359 5.47882L21.5599 0.919721C21.4123 0.844981 21.2647 0.820068 21.1171 0.820068C20.9694 0.820068 20.8218 0.844981 20.6742 0.919721L12.8751 5.47882C11.2513 6.42552 10.2672 8.19435 10.2672 10.0878V18.907L0.598313 24.5623C0.450696 24.637 0.352285 24.7865 0.278476 24.936C0.180065 25.0605 0.130859 25.2349 0.130859 25.3844V34.5275C0.130859 36.4209 1.13958 38.1898 2.73876 39.1365L10.4886 43.6706C10.6117 43.7454 10.7593 43.7703 10.9069 43.7703C10.9315 43.7703 10.9561 43.7703 10.9807 43.7703C11.0053 43.7703 11.0545 43.7952 11.0791 43.7952C11.2267 43.7952 11.3743 43.7703 11.4974 43.6956L21.1171 38.0652L30.786 43.7205C30.909 43.7952 31.0566 43.8201 31.1796 43.8201C31.2042 43.8201 31.2288 43.8201 31.2534 43.8201C31.278 43.8201 31.278 43.8201 31.3026 43.8201C31.4502 43.8201 31.5733 43.7952 31.6963 43.7205L39.4954 39.1614C41.1192 38.2147 42.1033 36.4458 42.1033 34.5524V25.3595C42.1033 25.1851 42.0541 25.0356 41.9557 24.9111C41.8818 24.7865 41.7834 24.6619 41.6358 24.5872ZM21.1171 14.2981L29.6296 19.2807L29.7527 19.3554L21.1171 24.4128L12.4815 19.3554L12.7029 19.2309L21.1171 14.2981ZM31.2288 30.3172L22.5932 25.2848L31.2288 20.2274L31.9669 20.6509L39.8644 25.2848L31.2288 30.3172ZM10.9807 20.2025L19.6163 25.2598L10.9807 30.3172L2.34511 25.2598L10.2426 20.626L10.9807 20.2025ZM30.4907 10.0878V18.06L30.2693 17.9354L21.8552 12.9777V2.81312L28.6209 6.77431C29.7773 7.47187 30.4907 8.71753 30.4907 10.0878ZM11.7188 10.0878C11.7188 8.71753 12.4323 7.44696 13.5886 6.77431L20.379 2.81312V12.9777L11.8418 17.9852L11.7188 18.06V10.0878ZM1.60703 34.5275V26.5553L10.2426 31.6127V41.7772L3.47684 37.8161C2.32051 37.1683 1.60703 35.8978 1.60703 34.5275ZM11.7188 31.6376L20.3544 26.5802V36.7448L11.7188 41.8022V31.6376ZM21.8552 26.5802L30.4907 31.6376V41.8022L21.8552 36.7448V26.5802ZM38.7327 37.841L31.9669 41.8022V31.6376L40.6025 26.5802V34.5524C40.6271 35.8977 39.9136 37.1683 38.7327 37.841Z" fill="white"/>
<path d="M55.856 14.6219C55.5854 15.0952 55.3885 15.4938 55.2163 15.8426H55.1425C55.1917 15.3444 55.2163 14.8959 55.2163 14.4973V6.32581H53.814V17.6613H55.2901L60.2845 9.34029C60.5305 8.89186 60.7274 8.49325 60.875 8.11955H60.9488C60.8996 8.46833 60.875 8.89186 60.875 9.41503V17.6862H62.2773V6.32581H60.8012L55.856 14.6219Z" fill="white"/>
<path d="M72.8566 10.9846H67.6654V6.32581H66.2139V17.6613H67.6654V12.2302H72.8566V17.6613H74.3082V6.32581H72.8566V10.9846Z" fill="white"/>
<path d="M80.8277 17.6613H82.2793V7.62129H85.9205V6.32581H77.1865V7.62129H80.8277V17.6613Z" fill="white"/>
<path d="M89.8581 7.82059C90.0057 7.6462 90.2517 7.57146 90.5961 7.57146H95.1231L95.1969 6.42546C94.1881 6.35072 92.589 6.32581 90.3747 6.32581C89.7104 6.32581 89.1692 6.5002 88.7755 6.84898C88.3819 7.19777 88.1851 7.69603 88.1851 8.29394V15.7181C88.1851 16.316 88.3819 16.7893 88.7755 17.163C89.1692 17.5118 89.6858 17.6862 90.3747 17.6862C92.589 17.6862 94.1881 17.6613 95.1969 17.5865L95.1231 16.4654H90.5961C90.2517 16.4654 90.0057 16.3907 89.8581 16.2163C89.7104 16.0419 89.6366 15.7679 89.6366 15.3693V12.2551H94.4834V11.0842H89.6366V8.61781C89.6366 8.26903 89.7104 7.99498 89.8581 7.82059Z" fill="white"/>
<path d="M102.159 6.17627C100.486 6.17627 99.1823 6.2261 98.272 6.32575V17.6612H99.7235V13.127C100.585 13.2267 101.446 13.2765 102.331 13.2765C103.635 13.2765 104.521 13.0274 105.038 12.5291C105.554 12.0309 105.8 11.1091 105.8 9.73885C105.8 8.36862 105.53 7.44684 105.013 6.94858C104.472 6.4254 103.512 6.17627 102.159 6.17627ZM103.857 11.5575C103.537 11.8814 102.971 12.0309 102.135 12.0309H99.7235V7.44684C100.166 7.44684 100.978 7.42193 102.135 7.42193C102.971 7.42193 103.537 7.5714 103.857 7.89528C104.177 8.21915 104.324 8.81706 104.324 9.71393C104.324 10.6357 104.177 11.2336 103.857 11.5575Z" fill="white"/>
<path d="M110.179 12.2302H115.37V17.6613H116.822V6.32581H115.37V10.9846H110.179V6.32581H108.728V17.6613H110.179V12.2302Z" fill="white"/>
<path d="M127.376 17.5867L127.303 16.4656H122.776C122.431 16.4656 122.185 16.3908 122.038 16.2164C121.89 16.0421 121.816 15.768 121.816 15.3694V12.2553H126.663V11.0843H121.816V8.61795C121.816 8.24425 121.89 7.9702 122.038 7.79581C122.185 7.62142 122.431 7.54668 122.776 7.54668H127.327L127.401 6.40068C126.392 6.32594 124.793 6.30103 122.579 6.30103C121.915 6.30103 121.373 6.47542 120.98 6.8242C120.586 7.17298 120.389 7.67125 120.389 8.26916V15.6933C120.389 16.2912 120.586 16.7645 120.98 17.1382C121.373 17.487 121.89 17.6614 122.579 17.6614C124.768 17.6863 126.368 17.6614 127.376 17.5867Z" fill="white"/>
<path d="M129.689 6.32581V7.62129H133.331V17.6613H134.758V7.62129H138.399V6.32581H129.689Z" fill="white"/>
<path d="M57.8486 36.2964C56.7415 36.2964 55.9788 35.9725 55.5606 35.2999C55.1423 34.6272 54.9209 33.4314 54.9209 31.7124C54.9209 29.9934 55.1423 28.7726 55.5606 28.1249C55.9788 27.4522 56.7415 27.1284 57.8486 27.1284C58.8081 27.1284 59.7922 27.1782 60.7764 27.2778L60.924 26.1817C60.0383 25.9574 59.0296 25.8578 57.8486 25.8578C56.2248 25.8578 55.0685 26.3062 54.4042 27.1782C53.7399 28.0501 53.3955 29.5698 53.3955 31.7373C53.3955 33.9047 53.7399 35.4244 54.4042 36.2964C55.0685 37.1683 56.2248 37.6168 57.8486 37.6168C59.1526 37.6168 60.2351 37.4922 61.1454 37.2431L60.9978 36.1718C60.1613 36.2466 59.1034 36.2964 57.8486 36.2964Z" fill="white"/>
<path d="M66.2632 34.3532C65.9926 34.8265 65.7958 35.2252 65.6236 35.5739H65.5497C65.5989 35.0757 65.6236 34.6272 65.6236 34.2286V26.0571H64.2212V37.3926H65.6974L70.6917 29.0716C70.9378 28.6232 71.1346 28.2246 71.2822 27.8509H71.356C71.3068 28.1997 71.2822 28.6232 71.2822 29.1464V37.4175H72.6846V26.082H71.2084L66.2632 34.3532Z" fill="white"/>
<path d="M80.3608 36.2964C79.2537 36.2964 78.491 35.9725 78.0728 35.2999C77.6545 34.6272 77.4331 33.4314 77.4331 31.7124C77.4331 29.9934 77.6545 28.7726 78.0728 28.1249C78.491 27.4522 79.2537 27.1284 80.3608 27.1284C81.3203 27.1284 82.3044 27.1782 83.2886 27.2778L83.4362 26.1817C82.5505 25.9574 81.5418 25.8578 80.3608 25.8578C78.737 25.8578 77.5807 26.3062 76.9164 27.1782C76.2522 28.0501 75.9077 29.5698 75.9077 31.7373C75.9077 33.9047 76.2522 35.4244 76.9164 36.2964C77.5807 37.1683 78.737 37.6168 80.3608 37.6168C81.6648 37.6168 82.7473 37.4922 83.6576 37.2431L83.51 36.1718C82.6981 36.2466 81.6402 36.2964 80.3608 36.2964Z" fill="white"/>
<path d="M85.478 27.3277H89.0946V37.3926H90.5462V27.3277H94.1874V26.0571H85.478V27.3277Z" fill="white"/>
<path d="M98.124 27.5269C98.2716 27.3525 98.5176 27.2529 98.8621 27.2529H103.389L103.463 26.1069C102.454 26.0321 100.855 26.0072 98.6406 26.0072C97.9764 26.0072 97.4351 26.1816 97.0661 26.5304C96.6724 26.8792 96.4756 27.3774 96.4756 27.9753V35.3995C96.4756 35.9974 96.6724 36.4707 97.0661 36.8444C97.4597 37.1932 97.9764 37.3676 98.6652 37.3676C100.879 37.3676 102.479 37.3427 103.487 37.2679L103.414 36.1468H98.8867C98.5422 36.1468 98.2962 36.0721 98.1486 35.8728C98.001 35.6984 97.9272 35.4244 97.9272 35.0258V31.9116H102.774V30.7407H97.9272V28.2743C97.9026 27.9753 97.9764 27.7013 98.124 27.5269Z" fill="white"/>
<path d="M117.462 26.0571H115.839C115.519 26.0571 115.297 26.2315 115.224 26.5554L113.108 33.4314C113.034 33.6307 112.96 33.9297 112.862 34.2785C112.763 34.6272 112.714 34.8764 112.665 35.0009H112.37C112.345 34.9511 112.296 34.7518 112.197 34.3532C112.099 33.9546 112.001 33.6805 111.951 33.4812L109.836 26.5554C109.737 26.2315 109.54 26.0571 109.22 26.0571H107.572C107.178 26.0571 106.982 26.2564 106.957 26.655L106.514 37.3926H107.966L108.359 27.253H108.679L111.189 35.6238C111.287 35.9476 111.509 36.122 111.853 36.122H113.157C113.477 36.122 113.698 35.9476 113.772 35.6238L116.281 27.253H116.626L117.044 37.3926H118.496L118.028 26.655C118.053 26.2564 117.856 26.0571 117.462 26.0571Z" fill="white"/>
<path d="M132.715 26.0571H131.288V37.3926H132.715V26.0571Z" fill="white"/>
<path d="M125.532 30.6162H123.145V26.0571H121.694V37.3926H121.718C122.678 37.4923 124.007 37.5172 125.729 37.5172C127.008 37.5172 127.918 37.268 128.435 36.7947C128.952 36.3213 129.222 35.4245 129.222 34.1041C129.222 32.8086 128.952 31.9117 128.41 31.3885C127.869 30.8654 126.91 30.6162 125.532 30.6162ZM127.328 35.8231C127.033 36.0971 126.418 36.2466 125.532 36.2466C124.351 36.2466 123.564 36.2466 123.145 36.2217V31.8121H125.532C126.418 31.8121 127.033 31.9865 127.328 32.2854C127.623 32.6093 127.795 33.2072 127.795 34.0542C127.795 34.9511 127.623 35.549 127.328 35.8231Z" fill="white"/>
</svg>
